<?xml version="1.0" encoding="utf-8"?>
<!-- Generator: Adobe Illustrator 15.1.0, SVG Export Plug-In . SVG Version: 6.00 Build 0)  -->
<!DOCTYPE svg PUBLIC "-//W3C//DTD SVG 1.1//EN" "http://www.w3.org/Graphics/SVG/1.1/DTD/svg11.dtd">
<svg version="1.1" id="Layer_1_copy" xmlns="http://www.w3.org/2000/svg" xmlns:xlink="http://www.w3.org/1999/xlink" x="0px"
	 y="0px" width="2000px" height="1000px" viewBox="0 0 2000 1000" enable-background="new 0 0 2000 1000" xml:space="preserve">
<g>
	<path fill="#E0DED9" d="M47.589,457.356h53.488l-1.981,117.73l2.264,93.674l-52.922,2.265L47.589,457.356z"/>
	<path fill="#E0DED9" d="M295.777,457.922l-2.547,113.202l-0.566,97.354h-46.979l-71.317-112.919l3.679,111.787l-46.413,0.566
		l-3.679-68.771l1.415-139.238h42.733l76.128,122.541l-2.547-124.521H295.777z"/>
	<path fill="#E0DED9" d="M468.688,508.297h-47.545l2.264,160.746h-62.261l2.83-75.562l-2.264-84.9l-48.111,0.283l-3.962-52.64
		h107.825l51.224-2.547V508.297z"/>
	<path fill="#E0DED9" d="M639.618,612.726v56.317H586.13l-93.674,2.265l-9.339-211.688l143.201-4.245l3.679,56.601h-94.241
		l1.415,21.509l74.147-1.133l-0.566,50.092l-71.317,2.548l1.415,30.564L639.618,612.726z"/>
	<path fill="#E0DED9" d="M735.55,569.143l-25.188,0.283l2.547,99.617l-52.356,1.699l-1.415-215.65l158.766,2.264l2.264,111.22
		l-34.243,0.283l54.903,98.77l-54.62,2.547L735.55,569.143z M709.23,531.786h67.638v-30.281l-68.487,1.981L709.23,531.786z"/>
	<path fill="#E0DED9" d="M993.079,668.194l-1.981-110.372l-36.791,69.902l-47.262-75.846v119.146h-51.507l-2.264-213.103
		l50.941,0.849l45.564,74.713c0,0,39.055-75.562,41.602-75.562l52.073-0.566l2.264,210.838H993.079z"/>
	<path fill="#E0DED9" d="M1074.858,457.356h53.488l-1.981,117.73l2.264,93.674l-52.922,2.265L1074.858,457.356z"/>
	<path fill="#E0DED9" d="M1161.167,456.79h108.674l42.45,0.566v67.921l-40.187,6.509V505.75l-63.959-0.566v11.037l106.976,65.657
		l-0.565,86.882h-150.559l-3.396-78.392l43.3,4.812l3.113,27.734l63.393-0.566v-11.32l-110.654-60.846L1161.167,456.79z"/>
	<path fill="#E0DED9" d="M1337.472,456.79h108.674l42.45,0.566v67.921l-40.187,6.509V505.75l-63.959-0.566v11.037l106.976,65.657
		l-0.565,86.882h-150.559l-3.396-78.392l43.3,4.812l3.113,27.734l63.393-0.566v-11.32l-110.654-60.846L1337.472,456.79z"/>
	<path fill="#E0DED9" d="M1520.565,457.356h53.488l-1.981,117.73l2.264,93.674l-52.922,2.265L1520.565,457.356z"/>
	<path fill="#E0DED9" d="M1760.831,669.893h-154.237l-0.849-211.688l150.558-0.849L1760.831,669.893z M1711.871,499.241
		l-58.016,0.849l1.981,127.918h56.034V499.241z"/>
	<path fill="#E0DED9" d="M1951.566,457.922l-2.547,113.202l-0.565,97.354h-46.979l-71.316-112.919l3.679,111.787l-46.413,0.566
		l-3.679-68.771l1.415-139.238h42.733l76.129,122.541l-2.548-124.521H1951.566z"/>
</g>
<g>
	<path fill="#E56525" d="M122.03,52.048v92.747h-21.203v-36.702H74.665v36.702H50.239v-36.702l-1.86-56.417l22.814,0.372
		l2.728,34.47l26.287-0.992l-1.736-32.982L122.03,52.048z"/>
	<path fill="#E56525" d="M199.034,120.368v24.675h-23.435l-41.042,0.992l-4.092-92.747l62.74-1.86l1.612,24.799h-41.29l0.62,9.423
		l32.486-0.496l-0.248,21.947l-31.247,1.116l0.62,13.391L199.034,120.368z"/>
	<path fill="#E56525" d="M321.544,74.615h-20.831l0.992,70.428h-27.278l1.24-33.106l-0.992-37.198l-21.079,0.124L251.86,51.8h47.242
		l22.442-1.116V74.615z"/>
	<path fill="#E56525" d="M402.514,52.048v92.747h-21.203v-36.702h-26.163v36.702h-24.426v-36.702l-1.86-56.417l22.814,0.372
		l2.728,34.47l26.287-0.992l-1.736-32.982L402.514,52.048z"/>
	<path fill="#E56525" d="M481.75,145.415h-67.576l-0.372-92.747l65.964-0.372L481.75,145.415z M460.299,70.647l-25.418,0.372
		l0.868,56.045h24.55V70.647z"/>
	<path fill="#E56525" d="M491.548,52.916l24.922,0.124l0.868,74.024h23.931l1.116-74.892h22.319v93.243l-69.56,0.372L491.548,52.916
		z"/>
	<path fill="#E56525" d="M576.113,51.924l64.6,0.124l10.043-0.248l0.868,27.03l-21.575,2.852v-9.671h-31.742l0.868,52.325
		l30.875-1.116v-13.019h-22.443l-0.372-17.731h44.762v52.573l-74.024,0.372L576.113,51.924z"/>
	<path fill="#E56525" d="M734.455,52.048v92.747h-21.203v-36.702h-26.163v36.702h-24.426v-36.702l-1.86-56.417l22.814,0.372
		l2.728,34.47l26.286-0.992l-1.736-32.982L734.455,52.048z"/>
	<path fill="#E56525" d="M811.582,74.615h-20.831l0.992,70.428h-27.278l1.24-33.106l-0.992-37.198l-21.079,0.124L741.898,51.8
		h47.242l22.442-1.116V74.615z"/>
	<path fill="#E56525" d="M861.93,52.42l23.187,0.62v70.056h43.522l-1.116,21.947l-65.22,1.364L861.93,52.42z"/>
	<path fill="#E56525" d="M1005.89,145.415h-67.576l-0.372-92.747l65.964-0.372L1005.89,145.415z M984.439,70.647l-25.418,0.372
		l0.868,56.045h24.55V70.647z"/>
	<path fill="#E56525" d="M1087.604,52.296l-24.923,92.375l-31.618,0.248l-20.706-92.25l22.194-1.116l14.383,64.725l18.228-63.98
		H1087.604z"/>
	<path fill="#E56525" d="M1163.491,120.368v24.675h-23.436l-41.041,0.992l-4.092-92.747l62.74-1.86l1.612,24.799h-41.29l0.62,9.423
		l32.486-0.496l-0.248,21.947l-31.246,1.116l0.62,13.391L1163.491,120.368z"/>
	<path fill="#E56525" d="M1317.619,52.296l-14.879,92.995h-20.583l-11.655-34.966l-13.144,35.338h-21.946L1217.185,51.8
		l22.567-0.124l10.167,48.853l19.715-45.629l18.476,44.886l8.555-47.489H1317.619z"/>
	<path fill="#E56525" d="M1373.421,130.536h-24.551l-2.232,14.879h-25.046l15.127-92.747l42.777-0.248l13.392,57.781l8.432,34.966
		h-24.923L1373.421,130.536z M1369.205,109.705l-9.796-47.613l-7.191,47.737L1369.205,109.705z"/>
	<path fill="#E56525" d="M1410.126,52.048h47.613l18.6,0.248v29.758l-17.607,2.852V73.499l-28.022-0.248v4.836l46.869,28.766
		l-0.248,38.066h-65.964l-1.488-34.346l18.972,2.108l1.363,12.151l27.774-0.248v-4.959l-48.48-26.659L1410.126,52.048z"/>
	<path fill="#E56525" d="M1530.404,52.048h47.613l18.6,0.248v29.758l-17.607,2.852V73.499l-28.022-0.248v4.836l46.869,28.766
		l-0.248,38.066h-65.964l-1.488-34.346l18.972,2.108l1.363,12.151l27.774-0.248v-4.959l-48.481-26.659L1530.404,52.048z"/>
	<path fill="#E56525" d="M1610.63,52.296h23.435l-0.867,51.581l0.991,41.042l-23.187,0.992L1610.63,52.296z"/>
	<path fill="#E56525" d="M1719.372,52.544l-1.116,49.597l-0.248,42.653h-20.583l-31.246-49.473l1.612,48.977l-20.335,0.248
		l-1.612-30.13l0.62-61.004h18.723l33.354,53.689l-1.116-54.557H1719.372z"/>
	<path fill="#E56525" d="M1751.116,73.251v15.995l30.007,0.248v20.707l-30.131-0.248l-0.743,35.71l-20.955-0.372V52.296
		l60.013-0.744v21.699H1751.116z"/>
	<path fill="#E56525" d="M1798.484,52.916l24.923,0.124l0.868,74.024h23.931l1.116-74.892h22.318v93.243l-69.56,0.372
		L1798.484,52.916z"/>
	<path fill="#E56525" d="M1882.926,52.42l23.187,0.62v70.056h43.521l-1.115,21.947l-65.221,1.364L1882.926,52.42z"/>
</g>
<g>
	<path fill="#998F86" d="M52.852,291.323h26.46l-0.98,58.24l1.12,46.34l-26.18,1.12L52.852,291.323z"/>
	<path fill="#998F86" d="M143.99,291.323h26.46l-0.98,58.24l1.12,46.34l-26.18,1.12L143.99,291.323z"/>
	<path fill="#998F86" d="M184.167,290.903l72.939,0.14l11.34-0.28l0.98,30.52l-24.36,3.22v-10.92h-35.84l0.98,59.08l34.86-1.26
		v-14.7h-25.34l-0.42-20.02h50.54v59.36l-83.58,0.42L184.167,290.903z"/>
	<path fill="#998F86" d="M363.923,291.604l-1.26,56l-0.28,48.16h-23.24l-35.28-55.86l1.82,55.3l-22.96,0.28l-1.82-34.02l0.7-68.879
		h21.14l37.66,60.62l-1.26-61.6H363.923z"/>
	<path fill="#998F86" d="M453.242,396.463h-76.3l-0.42-104.719l74.479-0.42L453.242,396.463z M429.021,312.043l-28.7,0.42
		l0.98,63.28h27.72V312.043z"/>
	<path fill="#998F86" d="M502.52,346.623l-12.46,0.14l1.26,49.28l-25.9,0.84l-0.7-106.679l78.54,1.12l1.12,55.02l-16.94,0.14
		l27.16,48.859l-27.02,1.26L502.52,346.623z M489.5,328.143h33.46v-14.979l-33.88,0.98L489.5,328.143z"/>
	<path fill="#998F86" d="M636.079,368.183v27.86h-26.46l-46.339,1.12l-4.62-104.72l70.84-2.1l1.82,28H584.7l0.7,10.64l36.68-0.56
		l-0.28,24.78l-35.28,1.26l0.7,15.12L636.079,368.183z"/>
	<path fill="#998F86" d="M732.397,306.863v76.16l-16.8,12.04l-70.56,1.82l-1.12-24.36h11.76v-57.26h-10.22l0.42-25.34l70.7,1.26
		L732.397,306.863z M703.977,372.523l-1.4-56.84l-22.12-0.42v57.26H703.977z"/>
	<path fill="#998F86" d="M873.375,316.523h-23.52l1.12,79.52h-30.8l1.4-37.38l-1.12-42l-23.8,0.14l-1.96-26.04h53.34l25.34-1.26
		V316.523z"/>
	<path fill="#998F86" d="M964.793,291.043v104.72h-23.94v-41.44h-29.54v41.44h-27.58v-41.44l-2.1-63.7l25.76,0.42l3.08,38.92
		l29.68-1.12l-1.96-37.24L964.793,291.043z"/>
	<path fill="#998F86" d="M1051.732,368.183v27.86h-26.46l-46.34,1.12l-4.62-104.72l70.84-2.1l1.819,28h-46.619l0.7,10.64l36.68-0.56
		l-0.28,24.78l-35.28,1.26l0.7,15.12L1051.732,368.183z"/>
	<path fill="#998F86" d="M1063.349,291.323h26.46l-0.98,58.24l1.12,46.34l-26.18,1.12L1063.349,291.323z"/>
	<path fill="#998F86" d="M1142.447,346.623l-12.46,0.14l1.26,49.28l-25.899,0.84l-0.7-106.679l78.539,1.12l1.12,55.02l-16.939,0.14
		l27.159,48.859l-27.02,1.26L1142.447,346.623z M1129.427,328.143h33.46v-14.979l-33.88,0.98L1129.427,328.143z"/>
	<path fill="#998F86" d="M1369.524,291.323l-16.801,105h-23.239l-13.16-39.479l-14.84,39.9h-24.78l-20.58-105.98l25.48-0.14
		l11.479,55.16l22.26-51.52l20.86,50.68l9.66-53.62H1369.524z"/>
	<path fill="#998F86" d="M1458.843,291.043v104.72h-23.939v-41.44h-29.54v41.44h-27.58v-41.44l-2.1-63.7l25.76,0.42l3.08,38.92
		l29.68-1.12l-1.96-37.24L1458.843,291.043z"/>
	<path fill="#998F86" d="M1473.402,291.323h26.46l-0.98,58.24l1.12,46.34l-26.18,1.12L1473.402,291.323z"/>
	<path fill="#998F86" d="M1516.1,291.043h53.76l20.999,0.28v33.6l-19.88,3.22v-12.88l-31.64-0.28v5.46l52.92,32.48l-0.28,42.979
		h-74.479l-1.68-38.78l21.42,2.38l1.54,13.72l31.359-0.28v-5.6l-54.739-30.1L1516.1,291.043z"/>
	<path fill="#998F86" d="M1678.075,348.303h-51.38v47.6h-23.94l0.561-104.58h76.159L1678.075,348.303z M1658.895,311.063h-32.199
		v19.6l32.199-1.12V311.063z"/>
	<path fill="#998F86" d="M1765.293,368.183v27.86h-26.46l-46.34,1.12l-4.62-104.72l70.84-2.1l1.82,28h-46.62l0.7,10.64l36.68-0.56
		l-0.279,24.78l-35.28,1.26l0.7,15.12L1765.293,368.183z"/>
	<path fill="#998F86" d="M1812.751,346.623l-12.46,0.14l1.26,49.28l-25.899,0.84l-0.7-106.679l78.539,1.12l1.12,55.02l-16.939,0.14
		l27.159,48.859l-27.02,1.26L1812.751,346.623z M1799.73,328.143h33.46v-14.979l-33.88,0.98L1799.73,328.143z"/>
	<path fill="#998F86" d="M1870.57,291.043h53.76l20.999,0.28v33.6l-19.88,3.22v-12.88l-31.64-0.28v5.46l52.92,32.48l-0.28,42.979
		h-74.479l-1.68-38.78l21.42,2.38l1.54,13.72l31.359-0.28v-5.6l-54.739-30.1L1870.57,291.043z"/>
</g>
<g>
	<path fill="#E0DED9" d="M49.837,193.797h19.582l7.649,0.102v12.239l-7.241,1.173v-4.691l-11.525-0.102v1.989l19.276,11.831
		l-0.102,15.656H50.348l-0.612-14.126l7.802,0.867l0.561,4.998l11.423-0.102v-2.04l-19.939-10.964L49.837,193.797z"/>
	<path fill="#E0DED9" d="M84.567,193.899h9.638l-0.357,21.214l0.408,16.879L84.72,232.4L84.567,193.899z"/>
	<path fill="#E0DED9" d="M121.642,213.022l9.077,18.868h-10.25l-4.692-9.74l-4.896,9.893l-10.505,0.306l9.791-19.327l-10.556-19.327
		h10.148l6.119,12.29l6.068-11.933l10.301-0.051L121.642,213.022z"/>
	<path fill="#E0DED9" d="M186.104,232.196h-27.792l-0.153-38.144l27.129-0.153L186.104,232.196z M177.282,201.446l-10.454,0.153
		l0.357,23.05h10.097V201.446z"/>
	<path fill="#E0DED9" d="M201.813,202.517v6.578l12.341,0.102v8.516l-12.392-0.102l-0.306,14.687l-8.618-0.153v-38.246l24.682-0.306
		v8.924H201.813z"/>
	<path fill="#E0DED9" d="M274.588,194.001l-0.459,20.398l-0.102,17.542h-8.465l-12.851-20.347l0.663,20.143l-8.363,0.102
		l-0.663-12.392l0.255-25.089h7.7l13.718,22.081l-0.459-22.438H274.588z"/>
	<path fill="#E0DED9" d="M281.067,193.899h9.638l-0.357,21.214l0.408,16.879l-9.536,0.408L281.067,193.899z"/>
	<path fill="#E0DED9" d="M327.524,194.001l-0.459,20.398l-0.102,17.542h-8.465l-12.851-20.347l0.663,20.143l-8.363,0.102
		l-0.663-12.392l0.255-25.089h7.7l13.718,22.081l-0.459-22.438H327.524z"/>
	<path fill="#E0DED9" d="M361.133,221.895v10.148h-9.638l-16.879,0.408l-1.683-38.144l25.803-0.765l0.663,10.199h-16.981
		l0.255,3.875l13.361-0.204l-0.102,9.026l-12.851,0.459l0.255,5.507L361.133,221.895z"/>
	<path fill="#E0DED9" d="M418.915,199.559V227.3l-6.119,4.386l-25.702,0.663l-0.408-8.873h4.284v-20.857h-3.723l0.153-9.23
		l25.752,0.459L418.915,199.559z M408.563,223.476l-0.51-20.704l-8.057-0.153v20.857H408.563z"/>
	<path fill="#E0DED9" d="M452.728,221.895v10.148h-9.638l-16.879,0.408l-1.683-38.144l25.803-0.765l0.663,10.199h-16.981
		l0.255,3.875l13.361-0.204l-0.102,9.026l-12.851,0.459l0.255,5.507L452.728,221.895z"/>
	<path fill="#E0DED9" d="M466.244,202.517v6.578l12.341,0.102v8.516l-12.392-0.102l-0.306,14.687l-8.618-0.153v-38.246l24.682-0.306
		v8.924H466.244z"/>
	<path fill="#E0DED9" d="M515.457,221.895v10.148h-9.638l-16.879,0.408l-1.683-38.144l25.803-0.765l0.663,10.199h-16.981
		l0.255,3.875l13.361-0.204l-0.102,9.026l-12.851,0.459l0.255,5.507L515.457,221.895z"/>
	<path fill="#E0DED9" d="M550.645,194.001l-0.459,20.398l-0.102,17.542h-8.465l-12.851-20.347l0.663,20.143l-8.363,0.102
		l-0.663-12.392l0.255-25.089h7.7l13.718,22.081l-0.459-22.438H550.645z"/>
	<path fill="#E0DED9" d="M587.722,199.559V227.3l-6.119,4.386l-25.702,0.663l-0.408-8.873h4.284v-20.857h-3.723l0.153-9.23
		l25.752,0.459L587.722,199.559z M577.37,223.476l-0.51-20.704l-8.057-0.153v20.857H577.37z"/>
	<path fill="#E0DED9" d="M614.191,226.077h-10.097l-0.918,6.119h-10.301l6.222-38.144l17.593-0.102l5.507,23.764l3.468,14.38h-10.25
		L614.191,226.077z M612.457,217.509l-4.028-19.582l-2.958,19.633L612.457,217.509z"/>
	<path fill="#E0DED9" d="M660.701,194.001l-0.459,20.398l-0.102,17.542h-8.465l-12.851-20.347l0.663,20.143l-8.363,0.102
		l-0.663-12.392l0.255-25.089h7.7l13.718,22.081l-0.459-22.438H660.701z"/>
	<path fill="#E0DED9" d="M693.597,203.078h-8.567l0.408,28.965h-11.219l0.51-13.616l-0.408-15.298l-8.669,0.051l-0.714-9.485h19.429
		l9.23-0.459V203.078z"/>
	<path fill="#E0DED9" d="M698.036,193.797h19.582l7.649,0.102v12.239l-7.241,1.173v-4.691l-11.525-0.102v1.989l19.276,11.831
		l-0.102,15.656h-27.129l-0.612-14.126l7.802,0.867l0.561,4.998l11.423-0.102v-2.04l-19.939-10.964L698.036,193.797z"/>
	<path fill="#E0DED9" d="M750.973,193.797h19.582l7.649,0.102v12.239l-7.241,1.173v-4.691l-11.525-0.102v1.989l19.276,11.831
		l-0.102,15.656h-27.129l-0.612-14.126l7.802,0.867l0.561,4.998l11.423-0.102v-2.04l-19.939-10.964L750.973,193.797z"/>
	<path fill="#E0DED9" d="M812.833,221.895v10.148h-9.638l-16.879,0.408l-1.683-38.144l25.803-0.765l0.663,10.199h-16.981
		l0.255,3.875l13.361-0.204l-0.102,9.026l-12.851,0.459l0.255,5.507L812.833,221.895z"/>
	<path fill="#E0DED9" d="M848.021,194.001l-0.459,20.398l-0.102,17.542h-8.465l-12.851-20.347l0.663,20.143l-8.363,0.102
		l-0.663-12.392l0.255-25.089h7.7l13.718,22.081l-0.459-22.438H848.021z"/>
	<path fill="#E0DED9" d="M880.916,203.078h-8.567l0.408,28.965h-11.219l0.51-13.616l-0.408-15.298l-8.669,0.051l-0.714-9.485h19.429
		l9.23-0.459V203.078z"/>
	<path fill="#E0DED9" d="M913.454,221.895v10.148h-9.638l-16.879,0.408l-1.683-38.144l25.803-0.765l0.663,10.199h-16.981
		l0.255,3.875l13.361-0.204l-0.102,9.026l-12.851,0.459l0.255,5.507L913.454,221.895z"/>
	<path fill="#E0DED9" d="M948.643,194.001l-0.459,20.398l-0.102,17.542h-8.465l-12.851-20.347l0.663,20.143l-8.363,0.102
		l-0.663-12.392l0.255-25.089h7.7l13.718,22.081l-0.459-22.438H948.643z"/>
	<path fill="#E0DED9" d="M954.001,193.491l29.526,0.408l-0.51,12.646l-8.363-0.969v-4.08l-12.851,0.102l0.561,21.724h12.137v-5.1
		l8.822-1.479v15.451h-28.455L954.001,193.491z"/>
	<path fill="#E0DED9" d="M1016.981,221.895v10.148h-9.638l-16.879,0.408l-1.683-38.144l25.803-0.765l0.663,10.199h-16.981
		l0.255,3.875l13.36-0.204l-0.102,9.026l-12.851,0.459l0.255,5.507L1016.981,221.895z"/>
	<path fill="#E0DED9" d="M1053.803,199.559V227.3l-6.119,4.386l-25.701,0.663l-0.408-8.873h4.283v-20.857h-3.723l0.153-9.23
		l25.752,0.459L1053.803,199.559z M1043.451,223.476l-0.51-20.704l-8.058-0.153v20.857H1043.451z"/>
	<path fill="#E0DED9" d="M1108.627,203.078h-8.566l0.407,28.965h-11.219l0.51-13.616l-0.407-15.298l-8.67,0.051l-0.714-9.485h19.43
		l9.229-0.459V203.078z"/>
	<path fill="#E0DED9" d="M1141.828,232.196h-27.793l-0.152-38.144l27.129-0.153L1141.828,232.196z M1133.006,201.446l-10.454,0.153
		l0.357,23.05h10.097V201.446z"/>
	<path fill="#E0DED9" d="M1194.408,214.654h-18.715v17.338h-8.72l0.203-38.093h27.742L1194.408,214.654z M1187.422,201.089h-11.729
		v7.14l11.729-0.408V201.089z"/>
	<path fill="#E0DED9" d="M1214.096,214.042l-4.539,0.051l0.459,17.95l-9.434,0.306l-0.255-38.858l28.607,0.408l0.408,20.041
		l-6.17,0.051l9.893,17.797l-9.842,0.459L1214.096,214.042z M1209.353,207.311h12.188v-5.457l-12.34,0.357L1209.353,207.311z"/>
	<path fill="#E0DED9" d="M1236.842,193.899h9.639l-0.357,21.214l0.408,16.879l-9.536,0.408L1236.842,193.899z"/>
	<path fill="#E0DED9" d="M1254.13,193.797h19.582l7.648,0.102v12.239l-7.241,1.173v-4.691l-11.524-0.102v1.989l19.276,11.831
		l-0.103,15.656h-27.129l-0.612-14.126l7.803,0.867l0.561,4.998l11.423-0.102v-2.04l-19.939-10.964L1254.13,193.797z"/>
	<path fill="#E0DED9" d="M1315.887,232.196h-27.793l-0.152-38.144l27.129-0.153L1315.887,232.196z M1307.064,201.446l-10.454,0.153
		l0.357,23.05h10.097V201.446z"/>
	<path fill="#E0DED9" d="M1351.993,194.001l-0.459,20.398l-0.102,17.542h-8.466l-12.851-20.347l0.663,20.143l-8.363,0.102
		l-0.663-12.392l0.256-25.089h7.7l13.717,22.081l-0.459-22.438H1351.993z"/>
	<path fill="#E0DED9" d="M1385.196,202.517v6.578l12.341,0.102v8.516l-12.392-0.102l-0.307,14.687l-8.618-0.153v-38.246
		l24.682-0.306v8.924H1385.196z"/>
	<path fill="#E0DED9" d="M1435.071,232.196h-27.793l-0.152-38.144l27.129-0.153L1435.071,232.196z M1426.249,201.446l-10.454,0.153
		l0.357,23.05h10.097V201.446z"/>
	<path fill="#E0DED9" d="M1454.759,214.042l-4.539,0.051l0.459,17.95l-9.434,0.306l-0.256-38.858l28.608,0.408l0.408,20.041
		l-6.171,0.051l9.894,17.797l-9.842,0.459L1454.759,214.042z M1450.016,207.311h12.188v-5.457l-12.341,0.357L1450.016,207.311z"/>
	<path fill="#E0DED9" d="M1530.083,208.84v23.355l-12.239-0.561l-17.44,0.714l-0.51-38.756l25.294,0.357v14.993L1530.083,208.84z
		 M1521.158,224.139l-0.407-7.241h-11.525v7.7L1521.158,224.139z M1509.583,209.299l7.445-0.153v-7.395l-7.445,0.102V209.299z"/>
	<path fill="#E0DED9" d="M1536.562,193.899h9.639l-0.357,21.214l0.408,16.879l-9.536,0.408L1536.562,193.899z"/>
	<path fill="#E0DED9" d="M1567.109,214.042l-4.539,0.051l0.459,17.95l-9.434,0.306l-0.255-38.858l28.607,0.408l0.408,20.041
		l-6.17,0.051l9.893,17.797l-9.842,0.459L1567.109,214.042z M1562.366,207.311h12.188v-5.457l-12.34,0.357L1562.366,207.311z"/>
	<path fill="#E0DED9" d="M1622.748,199.559V227.3l-6.119,4.386l-25.701,0.663l-0.408-8.873h4.283v-20.857h-3.723l0.153-9.23
		l25.752,0.459L1622.748,199.559z M1612.396,223.476l-0.51-20.704l-8.058-0.153v20.857H1612.396z"/>
	<path fill="#E0DED9" d="M1649.424,193.797h19.582l7.648,0.102v12.239l-7.241,1.173v-4.691l-11.524-0.102v1.989l19.276,11.831
		l-0.103,15.656h-27.129l-0.612-14.126l7.803,0.867l0.561,4.998l11.423-0.102v-2.04l-19.938-10.964L1649.424,193.797z"/>
	<path fill="#E0DED9" d="M1708.273,231.89l-0.356-19.888l-6.63,12.596l-8.516-13.667V232.4h-9.281l-0.408-38.399l9.18,0.153
		l8.21,13.462c0,0,7.037-13.615,7.496-13.615l9.383-0.102l0.408,37.991H1708.273z"/>
	<path fill="#E0DED9" d="M1723.117,194.154l10.25,0.051l0.356,30.444h9.843l0.459-30.801h9.179v38.348l-28.608,0.153
		L1723.117,194.154z"/>
	<path fill="#E0DED9" d="M1759.632,193.746l26.568,0.051l4.131-0.102l0.356,11.117l-8.873,1.173v-3.978h-13.055l0.357,21.52
		l12.697-0.459v-5.354h-9.229l-0.153-7.292h18.409v21.622l-30.444,0.153L1759.632,193.746z"/>
	<path fill="#E0DED9" d="M1796.248,193.746l26.568,0.051l4.131-0.102l0.356,11.117l-8.873,1.173v-3.978h-13.055l0.357,21.52
		l12.697-0.459v-5.354h-9.23l-0.152-7.292h18.409v21.622l-30.444,0.153L1796.248,193.746z"/>
	<path fill="#E0DED9" d="M1833.324,193.95l9.536,0.255v28.812h17.899l-0.459,9.026l-26.823,0.561L1833.324,193.95z"/>
	<path fill="#E0DED9" d="M1866.218,193.899h9.639l-0.357,21.214l0.408,16.879l-9.536,0.408L1866.218,193.899z"/>
	<path fill="#E0DED9" d="M1912.676,194.001l-0.459,20.398l-0.102,17.542h-8.466l-12.851-20.347l0.663,20.143l-8.363,0.102
		l-0.663-12.392l0.256-25.089h7.7l13.717,22.081l-0.459-22.438H1912.676z"/>
	<path fill="#E0DED9" d="M1918.288,193.746l26.568,0.051l4.131-0.102l0.356,11.117l-8.873,1.173v-3.978h-13.055l0.357,21.52
		l12.697-0.459v-5.354h-9.229l-0.153-7.292h18.409v21.622l-30.444,0.153L1918.288,193.746z"/>
</g>
<g>
	<path fill="#E56525" d="M147.719,773.445h-33.6l1.6,113.598H71.72l2-53.399l-1.6-59.999l-34,0.2l-2.8-37.2h76.199l36.199-1.799
		V773.445z"/>
	<path fill="#E56525" d="M278.316,737.045v149.598h-34.2v-59.199h-42.199v59.199h-39.399v-59.199l-3-90.998l36.799,0.6l4.4,55.6
		l42.399-1.6l-2.8-53.199L278.316,737.045z"/>
	<path fill="#E56525" d="M347.314,816.443l-17.8,0.201l1.8,70.398l-37,1.2l-1-152.397l112.198,1.6l1.6,78.599l-24.199,0.2
		l38.799,69.799l-38.6,1.8L347.314,816.443z M328.715,790.045h47.799v-21.4l-48.399,1.4L328.715,790.045z"/>
	<path fill="#E56525" d="M429.713,737.445h37.799l-1.4,83.199l1.6,66.198l-37.399,1.601L429.713,737.445z"/>
	<path fill="#E56525" d="M484.91,737.645l37.399,1v112.999h70.199l-1.8,35.399l-105.198,2.2L484.91,737.645z"/>
	<path fill="#E56525" d="M603.507,737.645l37.399,1v112.999h70.199l-1.8,35.399l-105.198,2.2L603.507,737.645z"/>
	<path fill="#E56525" d="M725.706,737.445h37.799l-1.4,83.199l1.6,66.198l-37.399,1.601L725.706,737.445z"/>
	<path fill="#E56525" d="M901.101,737.846l-1.8,79.998l-0.4,68.799h-33.199l-50.399-79.799l2.6,78.999l-32.799,0.4l-2.6-48.6
		l1-98.398h30.199l53.799,86.599l-1.8-87.998H901.101z"/>
	<path fill="#E56525" d="M916.301,736.846l104.199,0.199l16.199-0.4l1.4,43.6l-34.8,4.601v-15.601h-51.199l1.4,84.399l49.799-1.8
		v-21h-36.199l-0.6-28.6h72.199v84.799l-119.398,0.6L916.301,736.846z"/>
	<path fill="#E56525" d="M1123.498,735.846l115.799,1.6l-2,49.6l-32.8-3.801v-16l-50.399,0.4l2.2,85.199h47.6v-20l34.6-5.8v60.599
		h-111.599L1123.498,735.846z"/>
	<path fill="#E56525" d="M1375.493,737.045v149.598h-34.199v-59.199h-42.2v59.199h-39.399v-59.199l-2.999-90.998l36.799,0.6
		l4.4,55.6l42.399-1.6l-2.801-53.199L1375.493,737.045z"/>
	<path fill="#E56525" d="M1471.893,863.644h-39.6l-3.6,23.999h-40.399l24.399-149.598l68.999-0.4l21.6,93.199l13.6,56.399h-40.199
		L1471.893,863.644z M1465.093,830.044l-15.8-76.799l-11.6,76.999L1465.093,830.044z"/>
	<path fill="#E56525" d="M1531.092,737.045h76.799l29.999,0.4v47.999l-28.399,4.601v-18.4l-45.199-0.4v7.801l75.599,46.398
		l-0.399,61.399h-106.398l-2.4-55.399l30.6,3.4l2.2,19.6l44.799-0.4v-8l-78.198-42.998L1531.092,737.045z"/>
	<path fill="#E56525" d="M1766.886,847.244v39.799h-37.8l-66.199,1.6l-6.6-149.598l101.198-3l2.601,40h-66.6l1,15.199l52.399-0.8
		l-0.399,35.399l-50.399,1.801l1,21.6L1766.886,847.244z"/>
	<path fill="#E56525" d="M1781.685,737.045h76.799l29.999,0.4v47.999l-28.399,4.601v-18.4l-45.199-0.4v7.801l75.599,46.398
		l-0.399,61.399h-106.398l-2.4-55.399l30.6,3.4l2.2,19.6l44.799-0.4v-8l-78.198-42.998L1781.685,737.045z"/>
	<path fill="#E56525" d="M1947.88,737.445v88.199l-10.399,13.199h-15.399l-9-13.199l-3-88.799L1947.88,737.445z M1950.08,887.043
		l-36.999,0.4l0.6-32.8l36,0.2L1950.08,887.043z"/>
</g>
<g>
	<path fill="#998F86" d="M80.612,934.755l-0.486,21.601l-0.108,18.576h-8.964l-13.608-21.546l0.702,21.33l-8.856,0.108
		l-0.702-13.123l0.27-26.568h8.154l14.526,23.383l-0.486-23.761H80.612z"/>
	<path fill="#998F86" d="M116.684,975.202h-29.43l-0.162-40.393l28.729-0.162L116.684,975.202z M107.342,942.64l-11.07,0.162
		l0.378,24.408h10.692V942.64z"/>
	<path fill="#998F86" d="M164.149,934.647l-6.48,40.5h-8.964l-5.076-15.228l-5.724,15.39h-9.558l-7.938-40.879l9.828-0.054
		l4.428,21.276l8.586-19.872l8.046,19.548l3.726-20.682H164.149z"/>
	<path fill="#998F86" d="M190.068,934.539h20.736l8.101,0.108v12.96l-7.668,1.242v-4.969l-12.204-0.107v2.105l20.412,12.528
		l-0.108,16.578h-28.729l-0.648-14.958l8.262,0.918l0.594,5.292l12.096-0.107v-2.16l-21.115-11.61L190.068,934.539z"/>
	<path fill="#998F86" d="M257.46,934.539v40.393h-9.234v-15.984h-11.394v15.984h-10.638v-15.984l-0.81-24.57l9.936,0.162
		l1.188,15.013l11.448-0.433l-0.756-14.364L257.46,934.539z"/>
	<path fill="#998F86" d="M292.613,964.294v10.746h-10.206l-17.875,0.432l-1.782-40.393l27.325-0.81l0.702,10.8h-17.982l0.27,4.104
		l14.148-0.217l-0.108,9.559l-13.608,0.486l0.27,5.832L292.613,964.294z"/>
	<path fill="#998F86" d="M362.975,934.647l-6.48,40.5h-8.964l-5.076-15.228l-5.724,15.39h-9.558l-7.938-40.879l9.828-0.054
		l4.428,21.276l8.586-19.872l8.046,19.548l3.726-20.682H362.975z"/>
	<path fill="#998F86" d="M388.894,968.722h-10.692l-0.972,6.48h-10.908l6.588-40.393l18.63-0.108l5.832,25.164l3.672,15.229h-10.854
		L388.894,968.722z M387.058,959.649l-4.266-20.736l-3.132,20.79L387.058,959.649z"/>
	<path fill="#998F86" d="M437.925,934.755l-0.486,21.601l-0.108,18.576h-8.964l-13.608-21.546l0.702,21.33l-8.856,0.108
		l-0.702-13.123l0.27-26.568h8.154l14.526,23.383l-0.486-23.761H437.925z"/>
	<path fill="#998F86" d="M472.539,944.367h-9.072l0.432,30.673h-11.88l0.54-14.419l-0.432-16.2l-9.18,0.055l-0.756-10.045h20.574
		l9.774-0.485V944.367z"/>
	<path fill="#998F86" d="M506.775,964.294v10.746h-10.207l-17.874,0.432l-1.782-40.393l27.325-0.81l0.702,10.8h-17.982l0.27,4.104
		l14.148-0.217l-0.108,9.559l-13.608,0.486l0.27,5.832L506.775,964.294z"/>
	<path fill="#998F86" d="M545.546,940.642v29.376l-6.48,4.645l-27.217,0.702l-0.432-9.396h4.536v-22.087h-3.942l0.162-9.773
		l27.271,0.485L545.546,940.642z M534.583,965.968l-0.54-21.925l-8.532-0.162v22.087H534.583z"/>
	<path fill="#998F86" d="M603.163,944.367h-9.072l0.432,30.673h-11.88l0.54-14.419l-0.432-16.2l-9.18,0.055l-0.756-10.045h20.574
		l9.774-0.485V944.367z"/>
	<path fill="#998F86" d="M638.101,975.202h-29.43l-0.162-40.393l28.729-0.162L638.101,975.202z M628.759,942.64l-11.07,0.162
		l0.378,24.408h10.692V942.64z"/>
	<path fill="#998F86" d="M691.614,974.878l-0.378-21.061l-7.02,13.338l-9.018-14.472v22.734h-9.828l-0.432-40.663l9.72,0.162
		l8.694,14.257c0,0,7.452-14.419,7.938-14.419l9.936-0.107l0.432,40.23H691.614z"/>
	<path fill="#998F86" d="M729.521,968.722h-10.692l-0.972,6.48h-10.908l6.588-40.393l18.63-0.108l5.832,25.164l3.672,15.229h-10.854
		L729.521,968.722z M727.685,959.649l-4.266-20.736l-3.132,20.79L727.685,959.649z"/>
	<path fill="#998F86" d="M761.434,955.978l-4.806,0.054l0.486,19.009l-9.99,0.324l-0.27-41.149l30.295,0.433l0.432,21.222
		l-6.534,0.055l10.477,18.846l-10.422,0.486L761.434,955.978z M756.412,948.85h12.906v-5.778l-13.068,0.378L756.412,948.85z"/>
	<path fill="#998F86" d="M800.205,955.978l-4.806,0.054l0.486,19.009l-9.99,0.324l-0.27-41.149l30.294,0.433l0.432,21.222
		l-6.534,0.055l10.476,18.846l-10.422,0.486L800.205,955.978z M795.183,948.85h12.906v-5.778l-13.068,0.378L795.183,948.85z"/>
	<path fill="#998F86" d="M843.891,955.978l0.216,19.332h-10.908v-20.25l-12.96-20.467l10.8-0.107l7.722,12.906l6.588-12.961h10.747
		L843.891,955.978z"/>
	<path fill="#998F86" d="M914.415,934.539v40.393h-9.234v-15.984h-11.394v15.984h-10.638v-15.984l-0.81-24.57l9.936,0.162
		l1.188,15.013l11.448-0.433l-0.756-14.364L914.415,934.539z"/>
	<path fill="#998F86" d="M921.649,934.647h10.206l-0.378,22.464l0.432,17.874l-10.098,0.433L921.649,934.647z"/>
	<path fill="#998F86" d="M965.767,974.878l-0.378-21.061l-7.02,13.338l-9.018-14.472v22.734h-9.828l-0.432-40.663l9.72,0.162
		l8.694,14.257c0,0,7.452-14.419,7.938-14.419l9.936-0.107l0.432,40.23H965.767z"/>
	<path fill="#998F86" d="M1032.401,944.367h-9.072l0.433,30.673h-11.881l0.54-14.419l-0.432-16.2l-9.181,0.055l-0.756-10.045h20.574
		l9.774-0.485V944.367z"/>
	<path fill="#998F86" d="M1067.34,975.202h-29.431l-0.161-40.393l28.728-0.162L1067.34,975.202z M1057.998,942.64l-11.07,0.162
		l0.378,24.408h10.692V942.64z"/>
	<path fill="#998F86" d="M1122.958,964.294v10.746h-10.206l-17.874,0.432l-1.782-40.393l27.324-0.81l0.702,10.8h-17.982l0.271,4.104
		l14.148-0.217l-0.108,9.559l-13.608,0.486l0.271,5.832L1122.958,964.294z"/>
	<path fill="#998F86" d="M1150.281,968.722h-10.692l-0.972,6.48h-10.908l6.588-40.393l18.631-0.108l5.832,25.164l3.672,15.229
		h-10.854L1150.281,968.722z M1148.445,959.649l-4.266-20.736l-3.133,20.79L1148.445,959.649z"/>
	<path fill="#998F86" d="M1167.885,934.539h20.736l8.101,0.108v12.96l-7.668,1.242v-4.969l-12.204-0.107v2.105l20.412,12.528
		l-0.108,16.578h-28.729l-0.647-14.958l8.262,0.918l0.594,5.292l12.097-0.107v-2.16l-21.114-11.61L1167.885,934.539z"/>
	<path fill="#998F86" d="M1233.17,964.294v10.746h-10.206l-17.874,0.432l-1.782-40.393l27.324-0.81l0.702,10.8h-17.982l0.271,4.104
		l14.148-0.217l-0.108,9.559l-13.608,0.486l0.271,5.832L1233.17,964.294z"/>
	<path fill="#998F86" d="M1292.083,934.539v40.393h-9.234v-15.984h-11.395v15.984h-10.638v-15.984l-0.81-24.57l9.936,0.162
		l1.188,15.013l11.448-0.433l-0.757-14.364L1292.083,934.539z"/>
	<path fill="#998F86" d="M1327.236,964.294v10.746h-10.206l-17.874,0.432l-1.782-40.393l27.324-0.81l0.702,10.8h-17.982l0.271,4.104
		l14.148-0.217l-0.108,9.559l-13.608,0.486l0.271,5.832L1327.236,964.294z"/>
	<path fill="#998F86" d="M1347.162,955.978l-4.807,0.054l0.486,19.009l-9.99,0.324l-0.27-41.149l30.294,0.433l0.433,21.222
		l-6.534,0.055l10.476,18.846l-10.422,0.486L1347.162,955.978z M1342.14,948.85h12.906v-5.778l-13.068,0.378L1342.14,948.85z"/>
	<path fill="#998F86" d="M1394.248,934.485l28.135,0.054l4.374-0.108l0.378,11.772l-9.396,1.242v-4.212h-13.824l0.379,22.788
		l13.445-0.486v-5.67h-9.773l-0.162-7.722h19.494v22.896l-32.238,0.162L1394.248,934.485z"/>
	<path fill="#998F86" d="M1432.803,934.917l10.854,0.054l0.378,32.239h10.422l0.486-32.617h9.72v40.609l-30.294,0.162
		L1432.803,934.917z"/>
	<path fill="#998F86" d="M1472.168,934.647h10.207l-0.379,22.464l0.433,17.874l-10.099,0.433L1472.168,934.647z"/>
	<path fill="#998F86" d="M1488.691,934.701l10.099,0.27v30.511h18.954l-0.486,9.559l-28.404,0.594L1488.691,934.701z"/>
	<path fill="#998F86" d="M1545.339,944.367h-9.072l0.433,30.673h-11.881l0.54-14.419l-0.432-16.2l-9.181,0.055l-0.756-10.045h20.574
		l9.774-0.485V944.367z"/>
	<path fill="#998F86" d="M1572.825,955.978l0.216,19.332h-10.908v-20.25l-12.96-20.467l10.801-0.107l7.722,12.906l6.588-12.961
		h10.746L1572.825,955.978z"/>
	<path fill="#998F86" d="M1610.786,934.215l31.267,0.433l-0.54,13.392l-8.856-1.025v-4.32l-13.608,0.108l0.595,23.004h12.852v-5.4
		l9.343-1.565v16.362h-30.133L1610.786,934.215z"/>
	<path fill="#998F86" d="M1677.961,975.202h-29.431l-0.161-40.393l28.728-0.162L1677.961,975.202z M1668.619,942.64l-11.07,0.162
		l0.378,24.408h10.692V942.64z"/>
	<path fill="#998F86" d="M1715.976,934.755l-0.485,21.601l-0.108,18.576h-8.964l-13.608-21.546l0.702,21.33l-8.856,0.108
		l-0.702-13.123l0.271-26.568h8.154l14.526,23.383l-0.486-23.761H1715.976z"/>
	<path fill="#998F86" d="M1722.131,934.539h20.736l8.101,0.108v12.96l-7.668,1.242v-4.969l-12.204-0.107v2.105l20.412,12.528
		l-0.108,16.578h-28.729l-0.647-14.958l8.262,0.918l0.594,5.292l12.097-0.107v-2.16l-21.114-11.61L1722.131,934.539z"/>
	<path fill="#998F86" d="M1756.96,934.215l31.267,0.433l-0.54,13.392l-8.856-1.025v-4.32l-13.608,0.108l0.595,23.004h12.852v-5.4
		l9.343-1.565v16.362h-30.133L1756.96,934.215z"/>
	<path fill="#998F86" d="M1795.245,934.647h10.207l-0.379,22.464l0.433,17.874l-10.099,0.433L1795.245,934.647z"/>
	<path fill="#998F86" d="M1841.739,964.294v10.746h-10.206l-17.874,0.432l-1.782-40.393l27.324-0.81l0.702,10.8h-17.982l0.271,4.104
		l14.148-0.217l-0.108,9.559l-13.608,0.486l0.271,5.832L1841.739,964.294z"/>
	<path fill="#998F86" d="M1878.782,934.755l-0.485,21.601l-0.108,18.576h-8.964l-13.608-21.546l0.702,21.33l-8.856,0.108
		l-0.702-13.123l0.271-26.568h8.154l14.526,23.383l-0.486-23.761H1878.782z"/>
	<path fill="#998F86" d="M1884.236,934.215l31.267,0.433l-0.54,13.392l-8.856-1.025v-4.32l-13.608,0.108l0.595,23.004h12.852v-5.4
		l9.343-1.565v16.362h-30.133L1884.236,934.215z"/>
	<path fill="#998F86" d="M1950.709,964.294v10.746h-10.206l-17.874,0.432l-1.782-40.393l27.324-0.81l0.702,10.8h-17.982l0.271,4.104
		l14.148-0.217l-0.108,9.559l-13.608,0.486l0.271,5.832L1950.709,964.294z"/>
</g>
</svg>
