<?xml version="1.0" encoding="utf-8"?>
<!-- Generator: Adobe Illustrator 24.1.3, SVG Export Plug-In . SVG Version: 6.00 Build 0)  -->
<svg version="1.1" id="Layer_1" xmlns="http://www.w3.org/2000/svg" xmlns:xlink="http://www.w3.org/1999/xlink" x="0px" y="0px"
	 viewBox="0 0 1920 1200" style="enable-background:new 0 0 1920 1200;" xml:space="preserve">
<style type="text/css">
	.st0{fill:#F3F4F4;}
</style>
<rect width="1920" height="1200"/>
<path class="st0" d="M197.06,355.49c-3.81,26.02-15.23,37.77-36.07,37.77c-11.74,0-24.12-6.45-24.12-19.36
	c0-8.67,6.14-14.49,15.13-17.46c-9.94-3.39-12.69-10.79-12.69-15.87c0-7.41,4.44-14.39,13.75-16.71c3.28-6.88,11-9.73,18.3-9.73
	c10.79,0,18.83,6.45,18.83,14.6c0,7.09-5.92,11.53-14.6,13.12c-1.27-5.18-5.5-8.57-9.42-8.57c-3.07,0-5.29,1.8-5.29,5.71
	c0,8.89,11.32,11.53,16.29,9.42c-0.53,3.39-0.32,6.77,0.21,10.16c-8.57-1.27-14.28,0.85-14.28,5.71c0,3.91,3.91,6.03,9.84,6.03
	c7.41,0,18.09-3.91,20.63-15.13L197.06,355.49z M257.88,355.38c-3.39,28.25-10.16,37.87-20.95,37.87c-8.36,0-13.54-8.46-13.54-18.41
	c-4.97,13.65-10.9,18.41-16.4,18.41c-6.77,0-14.18-9.42-14.18-28.46c0-24.23,11.74-35.23,28.25-35.23c10.47,0,19.57,2.64,28.46,6.56
	c-0.53,5.92-2.33,10.68-3.91,15.55c-0.21,12.17,0.53,19.15,3.17,19.15c2.01,0,3.6-3.39,5.71-15.66L257.88,355.38z M226.04,349.14
	c-1.06-0.32-2.33-0.53-3.7-0.53c-4.13,0-5.92,4.65-5.92,11.74c0,7.83,1.27,10.16,2.86,10.16
	C221.49,370.51,224.03,363.63,226.04,349.14z M296.49,355.38c-3.28,25.71-10.58,37.87-21.26,37.87c-7.09,0-12.27-4.87-12.27-12.69
	c0-8.36,2.33-12.27,2.33-20.63c0-1.9-0.74-3.17-3.49-3.49l-3.91-0.53h-0.11c-0.11,1.16-0.32,2.22-0.42,3.39
	c-0.42,2.86-4.13,2.86-3.6-0.21c0.32-1.48,0.53-2.96,0.74-4.44c-1.8-1.16-2.01-3.07-2.01-6.03c0-3.6,0.42-11.21,1.59-17.46
	c0.53,0.21,1.38,0.32,2.54,0.42l0.32-8.36c0.21-4.34,3.39-3.39,3.39-0.95c0,3.39-0.11,6.66-0.21,9.73c1.48,0.21,3.39,0.42,5.71,0.63
	l7.83,0.63c9.42,0.95,14.39,4.65,14.39,11.74c0,7.19-2.96,16.4-2.96,22.11c0,2.12,0.85,2.86,2.12,2.86c2.33,0,3.7-3.07,5.92-14.7
	L296.49,355.38z M332.67,355.8c-3.6,30.78-15.76,37.45-25.92,37.45c-11.95,0-15.55-9.31-14.7-22.74l1.06-16.71
	c-2.75-0.74-3.81-2.86-3.81-4.87c0-2.33,0.95-4.55,2.86-7.93l10.16-17.46c4.13-0.85,8.89-1.06,12.27-1.06c2.96,0,3.6,1.06,3.39,3.39
	c-0.11,1.59-0.42,4.23-0.63,7.41c3.6,0,7.62-0.32,9.31-0.85c-0.21,6.03-0.53,11.21-1.27,15.87c-0.63,4.23-2.43,6.03-7.19,6.03h-2.86
	c-0.32,3.39-0.63,6.14-0.74,7.83c-0.74,7.93,2.12,9.2,4.44,9.2c4.76,0,8.04-3.39,10.37-16.19L332.67,355.8z M385.88,368.71
	c-2.01,17.35-6.98,24.54-17.03,24.54c-5.4,0-12.17-2.86-12.17-13.75c0-8.99,2.75-22.22,2.75-26.24c0-2.01-0.74-3.39-2.54-3.39
	c-2.64,0-6.03,5.61-6.03,21.69c0,5.29,0.53,8.89,0.95,11.85c0.42,1.69,0.63,3.07,0.63,4.13c0,4.23-2.33,5.18-9.42,5.18
	c-6.56,0-15.45-0.53-15.45-5.5c0.21-3.81,1.8-13.01,1.8-26.66V342.9c0-9.2-0.74-12.59-2.01-18.51c4.23-5.82,12.48-10.26,17.98-10.26
	c2.86,0,4.97,2.12,4.97,6.98c0,10.68-0.21,16.93-0.21,30.68c3.39-13.44,9.84-22.22,19.36-22.22c6.03,0,12.69,3.91,12.69,13.75
	c0,8.67-3.07,17.77-3.07,23.06c0,3.07,1.38,3.91,2.86,3.91C382.81,370.3,384.08,370.3,385.88,368.71z M512.29,320.89
	c0,21.16-17.03,72.36-35.33,72.36c-9.2,0-13.96-9.73-14.6-23.7c-3.39,13.65-8.89,23.7-17.88,23.7c-10.47,0-13.54-12.69-13.75-22.64
	l-0.53-21.48c-0.11-8.36-0.11-11.74-4.97-11.74c-2.96,0-6.77,2.86-6.77,5.71c0,1.38,1.06,2.43,2.33,2.43c1.8,0,3.7-0.85,4.87-2.64
	c1.06,9.63,0.32,24.75-5.92,24.75c-4.65,0-10.47-9.94-10.47-24.54c0-23.27,22.43-28.99,29.52-28.99c7.3,0,12.06,3.39,13.12,10.9
	c0.95,6.35,0.95,12.69,1.06,18.41l0.21,11c0.21,8.57-0.21,16.19,3.17,16.19c2.12,0,4.44-11.32,4.44-21.79
	c0-7.51-0.85-14.39-2.64-19.89l-1.27-3.28c9.84-4.23,14.39-5.5,19.57-5.5c8.89,0,7.51,11.53,5.18,17.77l0.11,16.5
	c0.21,8.57-0.11,16.19,3.28,16.19c2.43,0,4.55-13.44,4.55-25.71c0-8.36-1.16-20.52-4.23-25.5c4.23-3.91,14.6-7.41,19.57-7.41
	C508.59,312.01,512.29,314.33,512.29,320.89z M512.49,326.39c0-7.3,10.68-13.86,18.72-13.86c4.55,0,7.93,2.64,7.93,7.3
	c0,7.3-10.68,13.65-18.3,13.65C515.87,333.48,512.49,331.37,512.49,326.39z M513.02,371.04l0.74-13.86
	c0.32-4.13,0.32-9.42-1.27-11.64c4.65-5.61,14.28-10.05,19.25-10.05c2.86,0,5.61,1.69,5.61,8.15c0,4.76-0.85,8.36-2.75,15.23
	c-0.21,2.54-0.42,4.65-0.42,6.14c0,3.81,0.53,5.82,2.12,5.82c1.8,0,4.13-3.39,6.24-15.66l3.39,0.21
	c-3.17,26.45-11.21,37.87-20.1,37.87C516.61,393.25,512.38,386.27,513.02,371.04z M603.78,355.38
	c-3.17,25.71-10.47,37.87-21.16,37.87c-5.61,0-12.59-2.86-12.59-13.75c0-8.99,3.07-22.22,2.64-26.24c-0.11-2.01-0.63-3.39-2.43-3.39
	c-2.64,0-6.03,5.61-6.03,21.69c0,5.4,0.53,8.89,1.06,11.85c0.32,1.48,0.53,2.75,0.53,3.6c0,4.65-2.33,5.71-9.42,5.71
	c-6.56,0-16.19-0.53-16.08-5.5c0.21-3.91,2.22-14.07,2.22-23.38c0-9.94,0.32-15.76-1.8-23.91c3.91-5.71,12.27-10.37,17.24-10.37
	c3.91,0,5.29,4.34,6.03,10.47c0.32,2.64,0.32,5.61,0.32,8.67c3.6-11.74,9.73-19.15,18.51-19.15c6.03,0,12.59,3.91,12.59,13.75
	c0,8.99-2.96,18.62-2.96,24.44c0,2.22,0.85,2.86,2.12,2.86c2.33,0,3.7-3.17,5.82-15.45L603.78,355.38z M662.38,368.71
	c-2.01,17.35-7.09,24.54-17.46,24.54c-5.61,0-12.06-4.97-11.53-18.83c-4.02,12.69-10.58,18.83-17.24,18.83
	c-10.16,0-16.5-9.42-16.5-28.46c0-24.01,11.74-32.9,28.46-32.9c1.8,0,3.49,0.11,5.08,0.42c-0.32-2.75-0.74-4.97-1.38-7.93
	c4.23-5.82,12.48-10.26,17.98-10.26c2.86,0,6.14,0.74,6.14,7.3c0,4.44-1.38,11.53-2.43,16.71l0.21,19.04
	c0,8.67,0.63,13.12,4.55,13.12C659,370.3,660.59,370.08,662.38,368.71z M633.5,350.83c-1.27-0.53-2.64-0.85-4.34-0.85
	c-4.13,0-5.71,4.34-5.71,10.68c0,7.51,1.8,9.84,3.6,9.84C628.95,370.51,632.55,366.81,633.5,350.83z M749.02,384.9
	c-0.53,4.55-4.44,8.36-11.53,8.36c-6.66,0-12.8-3.28-18.94-10.68c-5.4,6.03-12.59,10.68-21.05,10.68c-11,0-18.62-7.72-18.62-17.67
	c0-9.84,4.97-17.14,16.61-22c-3.39-3.49-4.97-7.72-4.97-12.06c0-8.99,7.09-14.7,15.13-16.29c2.54-7.19,7.83-11.11,15.45-11.11
	c11.64,0,16.61,8.15,16.61,15.45c0,6.56-3.6,11.74-7.51,15.34c-3.17-2.75-7.41-4.97-12.8-4.97c-3.39,0-6.24,1.9-6.24,6.03
	c0,3.7,3.39,10.58,9.42,15.87c1.48-3.81,1.48-6.56-0.11-9.31c6.03-3.6,13.33-7.62,18.83-7.62c3.49,0,4.23,2.64,4.23,4.44
	c0,6.03-5.18,13.01-9.84,18.83c1.38,0.21,2.86,0.32,4.34,0.32c3.7,0,7.51-0.74,10.26-3.7C749.44,374.42,749.55,379.18,749.02,384.9z
	 M709.98,369.56c-2.01-3.6-4.13-7.62-6.14-12.17c-2.43,2.43-3.49,4.76-3.49,7.41c0,2.96,2.43,5.5,6.24,5.5
	C707.66,370.3,708.71,370.08,709.98,369.56z M828.88,363.84c-1.48-0.42-4.02-0.85-7.19-1.06v10.16c0,17.88-6.24,19.78-17.03,19.78
	c-3.81,0-12.91-0.95-21.37-3.17c8.78-7.62,15.23-15.87,18.3-27.4c-4.02,0.11-8.36,0.21-12.59,0.53c-1.9,5.92-4.97,10.05-9.31,10.05
	c-8.04,0-10.9-11-10.9-19.36c0-22,19.68-39.25,38.3-39.25c11,0,17.77,5.82,16.4,21.69l-0.74,8.46c2.43-0.74,4.34-1.27,5.61-1.38
	C833.33,342.58,834.6,347.76,828.88,363.84z M803.6,349.03c0.11-1.27,0.11-2.64,0.11-3.91c0-4.87-1.48-7.51-7.72-7.51
	c-5.61,0-15.45,3.7-15.45,7.19c0,3.17,6.03,2.54,10.68,0.42v3.91C795.14,349.77,799.37,349.56,803.6,349.03z M833.53,326.39
	c0-7.3,10.68-13.86,18.72-13.86c4.55,0,7.93,2.64,7.93,7.3c0,7.3-10.68,13.65-18.3,13.65C836.92,333.48,833.53,331.37,833.53,326.39
	z M834.06,371.04l0.74-13.86c0.32-4.13,0.32-9.42-1.27-11.64c4.65-5.61,14.28-10.05,19.25-10.05c2.86,0,5.61,1.69,5.61,8.15
	c0,4.76-0.85,8.36-2.75,15.23c-0.21,2.54-0.42,4.65-0.42,6.14c0,3.81,0.53,5.82,2.12,5.82c1.8,0,4.13-3.39,6.24-15.66l3.39,0.21
	c-3.17,26.45-11.21,37.87-20.1,37.87C837.66,393.25,833.43,386.27,834.06,371.04z M905.57,355.38
	c-3.28,25.71-10.58,37.87-21.26,37.87c-7.09,0-12.27-4.87-12.27-12.69c0-8.36,2.33-12.27,2.33-20.63c0-1.9-0.74-3.17-3.49-3.49
	l-3.91-0.53h-0.11c-0.11,1.16-0.32,2.22-0.42,3.39c-0.42,2.86-4.13,2.86-3.6-0.21c0.32-1.48,0.53-2.96,0.74-4.44
	c-1.8-1.16-2.01-3.07-2.01-6.03c0-3.6,0.42-11.21,1.59-17.46c0.53,0.21,1.38,0.32,2.54,0.42l0.32-8.36
	c0.21-4.34,3.39-3.39,3.39-0.95c0,3.39-0.11,6.66-0.21,9.73c1.48,0.21,3.39,0.42,5.71,0.63l7.83,0.63
	c9.42,0.95,14.39,4.65,14.39,11.74c0,7.19-2.96,16.4-2.96,22.11c0,2.12,0.85,2.86,2.12,2.86c2.33,0,3.7-3.07,5.92-14.7
	L905.57,355.38z M949.05,375.06c-1.06,11-9.42,18.2-22.74,18.2c-12.38,0-25.39-8.36-25.39-27.19c0-14.28,5.4-22.96,14.6-26.55
	c2.75-6.45,8.46-9.94,15.97-9.94c9.73,0,17.24,6.24,17.24,17.03c0,10.58-8.78,23.38-24.65,20.21c2.22,3.07,6.03,4.87,10.58,4.87
	c5.29,0,9.73-2.22,14.07-7.62C949.26,368.5,949.47,370.83,949.05,375.06z M921.86,359.93c0,0.42,0,0.95,0.11,1.38
	c4.55-0.42,8.99-3.28,8.99-9.31c0-2.12-1.06-3.6-3.07-3.6C924.93,348.4,921.86,353.58,921.86,359.93z"/>
<path class="st0" d="M1071.27,354.66c-0.6,8.15-4.57,15.79-10.53,21.85c1.29,2.98,1.69,5.56,1.69,8.54
	c0,14.5-10.73,21.66-20.56,21.66c-10.53,0-15.5-6.66-17.48-18.38c2.68,0,5.26-0.2,7.85-0.6c9.93-1.69,18.38-7.25,18.38-14.6
	c0-2.48-0.7-5.17-2.68-7.85c-3.58,10.03-9.64,17.68-20.56,17.68c-9.83,0-20.36-7.25-20.36-24.83c0-16.59,9.24-30.5,20.16-34.07
	c3.08-5.46,7.85-9.14,15.2-9.14c10.33,0,13.71,7.55,13.71,15.2c0,5.96-3.38,13.81-7.65,17.18c-3.18-3.87-10.73-8.15-16.59-8.15
	c-3.97,0-7.15,1.79-7.15,7.95c0,7.25,7.75,13.71,14.5,13.71c3.58,0,5.76-0.5,7.85-1.29c-0.4-1.69-0.99-2.98-1.59-4.07
	c2.28-1.69,6.46-3.68,11.62-3.68c3.87,0,5.36,1.39,5.36,4.37c0,5.86-1.89,10.63-4.57,14.7c0.5,0.89,0.99,1.69,1.39,2.48
	c4.87-5.66,8.05-12.52,9.04-19.87L1071.27,354.66z M1125.8,353.66c-2.98,24.14-9.83,35.56-19.87,35.56
	c-5.26,0-11.82-2.68-11.82-12.91c0-8.44,2.88-20.86,2.48-24.64c-0.1-1.89-0.6-3.18-2.28-3.18c-2.48,0-5.66,5.26-5.66,20.36
	c0,5.07,0.5,8.34,0.99,11.13c0.3,1.39,0.5,2.58,0.5,3.38c0,4.37-2.19,5.36-8.84,5.36c-6.16,0-15.2-0.5-15.1-5.17
	c0.2-3.68,2.09-13.21,2.09-21.95c0-9.34,0.3-14.8-1.69-22.45c3.68-5.36,11.52-9.73,16.19-9.73c3.68,0,4.97,4.07,5.66,9.83
	c0.3,2.48,0.3,5.26,0.3,8.15c3.38-11.03,9.14-17.98,17.38-17.98c5.66,0,11.82,3.68,11.82,12.91c0,8.44-2.78,17.48-2.78,22.95
	c0,2.09,0.79,2.68,1.99,2.68c2.19,0,3.48-2.98,5.46-14.5L1125.8,353.66z M1183.02,353.66c-3.18,26.52-9.54,35.56-19.67,35.56
	c-7.85,0-12.71-7.95-12.71-17.28c-4.67,12.81-10.23,17.28-15.4,17.28c-6.36,0-13.31-8.84-13.31-26.72
	c0-22.75,11.03-33.08,26.52-33.08c9.83,0,18.38,2.48,26.72,6.16c-0.5,5.56-2.19,10.03-3.68,14.6c-0.2,11.42,0.5,17.98,2.98,17.98
	c1.89,0,3.38-3.18,5.36-14.7L1183.02,353.66z M1153.12,347.8c-0.99-0.3-2.19-0.5-3.48-0.5c-3.87,0-5.56,4.37-5.56,11.03
	c0,7.35,1.19,9.54,2.68,9.54C1148.85,367.87,1151.24,361.41,1153.12,347.8z M1219.28,353.66c-3.08,24.14-9.93,35.56-19.97,35.56
	c-6.66,0-11.52-4.57-11.52-11.92c0-7.85,2.19-11.52,2.19-19.37c0-1.79-0.7-2.98-3.28-3.28l-3.68-0.5h-0.1
	c-0.1,1.09-0.3,2.09-0.4,3.18c-0.4,2.68-3.87,2.68-3.38-0.2c0.3-1.39,0.5-2.78,0.7-4.17c-1.69-1.09-1.89-2.88-1.89-5.66
	c0-3.38,0.4-10.53,1.49-16.39c0.5,0.2,1.29,0.3,2.38,0.4l0.3-7.85c0.2-4.07,3.18-3.18,3.18-0.89c0,3.18-0.1,6.26-0.2,9.14
	c1.39,0.2,3.18,0.4,5.36,0.6l7.35,0.6c8.84,0.89,13.51,4.37,13.51,11.03c0,6.75-2.78,15.4-2.78,20.76c0,1.99,0.79,2.68,1.99,2.68
	c2.19,0,3.48-2.88,5.56-13.81L1219.28,353.66z M1216.11,368.66v-24.54c0-10.33-0.89-14.01-1.89-19.57
	c3.97-5.46,11.72-9.64,16.89-9.64c2.48,0,5.36,1.69,5.36,8.15c0,5.66-0.4,9.34-2.09,19.07l0.2,13.51c0.2,8.84,0.3,11.52,1.89,11.52
	c1.29,0,2.58-2.48,4.67-13.71l3.18,0.3c-3.68,28.11-9.24,35.46-17.09,35.46C1218.59,389.23,1216.11,382.87,1216.11,368.66z
	 M1239.65,367.17c0-4.87,0.99-10.73,1.49-13.71c0.3-2.68,3.48-2.28,3.18,0.2c-0.4,6.95,3.97,14.8,10.43,14.8
	c2.19,0,4.17-1.29,4.17-3.97c0-5.86-10.93-7.65-10.93-17.48c0-9.34,8.84-17.58,18.28-17.58c4.87,0,11.52,1.19,11.52,8.05
	c0,3.18-0.99,7.15-2.98,12.02c-3.48-1.49-6.16-1.99-8.15-1.99c-3.87,0-5.56,0.99-5.56,2.28c0,1.99,3.38,3.48,8.54,6.66
	c8.64,5.17,10.83,8.84,10.83,14.6c0,10.63-8.84,18.18-21.16,18.18C1246.8,389.23,1239.65,382.47,1239.65,367.17z M1367.99,368.37
	c0,9.44-6.56,20.86-30.1,20.86c-8.84,0-19.77-2.09-26.82-4.57c3.18-11.13,5.36-24.04,5.36-34.17c0-5.17,0-8.44-0.2-10.93
	c-3.28,3.97-4.47,8.94-4.47,13.61c0,3.77,0,6.85,1.49,10.83c-9.54-2.68-14.7-9.83-14.7-20.36c0-14.01,13.81-28.71,37.75-28.71
	c14.7,0,26.62,6.06,26.62,17.18c0,7.25-3.08,12.91-9.93,17.58C1362.03,353.37,1367.99,359.72,1367.99,368.37z M1348.33,365.78
	c0-4.07-5.66-6.95-12.91-8.05c-0.1,2.28-0.1,4.67-0.1,7.05v6.06c1.49,0.6,3.38,1.19,5.66,1.19
	C1346.24,372.04,1348.33,368.66,1348.33,365.78z M1335.81,332.11c0,6.26-0.2,12.22-0.3,18.28c6.36-2.78,9.14-6.36,9.14-11.13
	C1344.65,335.49,1342.07,332.11,1335.81,332.11z M1431.57,353.66c-3.18,26.52-9.54,35.56-19.67,35.56
	c-7.85,0-12.71-7.95-12.71-17.28c-4.67,12.81-10.23,17.28-15.4,17.28c-6.36,0-13.31-8.84-13.31-26.72
	c0-22.75,11.03-33.08,26.52-33.08c9.83,0,18.38,2.48,26.72,6.16c-0.5,5.56-2.19,10.03-3.68,14.6c-0.2,11.42,0.5,17.98,2.98,17.98
	c1.89,0,3.38-3.18,5.36-14.7L1431.57,353.66z M1401.67,347.8c-0.99-0.3-2.19-0.5-3.48-0.5c-3.87,0-5.56,4.37-5.56,11.03
	c0,7.35,1.19,9.54,2.68,9.54C1397.4,367.87,1399.79,361.41,1401.67,347.8z M1467.83,353.66c-3.08,24.14-9.93,35.56-19.97,35.56
	c-6.66,0-11.52-4.57-11.52-11.92c0-7.85,2.19-11.52,2.19-19.37c0-1.79-0.7-2.98-3.28-3.28l-3.68-0.5h-0.1
	c-0.1,1.09-0.3,2.09-0.4,3.18c-0.4,2.68-3.87,2.68-3.38-0.2c0.3-1.39,0.5-2.78,0.7-4.17c-1.69-1.09-1.89-2.88-1.89-5.66
	c0-3.38,0.4-10.53,1.49-16.39c0.5,0.2,1.29,0.3,2.38,0.4l0.3-7.85c0.2-4.07,3.18-3.18,3.18-0.89c0,3.18-0.1,6.26-0.2,9.14
	c1.39,0.2,3.18,0.4,5.36,0.6l7.35,0.6c8.84,0.89,13.51,4.37,13.51,11.03c0,6.75-2.78,15.4-2.78,20.76c0,1.99,0.79,2.68,1.99,2.68
	c2.19,0,3.48-2.88,5.56-13.81L1467.83,353.66z M1520.38,353.66c-2.98,24.14-8.54,35.56-19.87,35.56c-6.56,0-12.52-5.86-11.32-25.23
	c3.68-5.36,5.66-8.84,5.66-12.22c0-1.99-0.7-3.28-2.68-3.28c-3.18,0-7.05,6.16-7.05,23.64c0,2.98,0.2,5.17,0.5,7.05
	c0.4,1.69,0.7,3.18,0.7,4.17c0,4.37-2.19,5.36-8.84,5.36c-6.16,0-14.5-0.5-14.5-5.17c0.2-3.58,1.69-12.22,1.69-25.03v-16.59
	c0-8.64-0.7-11.82-1.89-17.38c3.97-5.26,11.72-9.44,16.89-9.44c2.68,0,4.67,1.99,4.67,6.36c0,10.53-0.2,16.49-0.2,30.89
	c2.78-13.81,8.84-22.95,19.07-22.95c4.77,0,11.03,2.88,11.03,10.83c0,6.75-3.58,13.01-8.05,17.38c0.3,9.04,1.49,10.33,3.48,10.33
	c2.48,0,5.36-2.68,7.55-14.5L1520.38,353.66z M1517.21,368.66v-24.54c0-10.33-0.89-14.01-1.89-19.57
	c3.97-5.46,11.72-9.64,16.89-9.64c2.48,0,5.36,1.69,5.36,8.15c0,5.66-0.4,9.34-2.09,19.07l0.2,13.51c0.2,8.84,0.3,11.52,1.89,11.52
	c1.29,0,2.58-2.48,4.67-13.71l3.18,0.3c-3.68,28.11-9.24,35.46-17.09,35.46C1519.69,389.23,1517.21,382.87,1517.21,368.66z
	 M1592.21,354.16c-2.28,23.05-12.62,35.07-29.11,35.07c-10.93,0-22.05-7.85-22.05-25.53c0-13.41,5.07-21.56,13.71-24.93
	c2.58-6.06,7.95-9.34,15-9.34c9.14,0,16.19,5.86,16.19,15.99c0,9.93-8.24,21.95-23.15,18.97c2.09,2.88,5.66,4.57,9.93,4.57
	c7.85,0,13.51-2.98,16.39-15.5L1592.21,354.16z M1560.72,357.93c0,0.4,0,0.89,0.1,1.29c4.27-0.4,8.44-3.08,8.44-8.74
	c0-1.99-0.99-3.38-2.88-3.38C1563.6,347.11,1560.72,351.97,1560.72,357.93z M1638.7,382.47c0,15.2-10.03,24.24-28.21,24.24
	c-13.71,0-19.57-4.87-19.57-12.32c0-4.87,2.48-8.54,4.67-10.03c0,1.99,1.89,6.95,9.24,6.95c7.25,0,9.83-3.77,10.93-13.61
	c0.4-3.08,0.6-6.26,0.7-9.54c-2.68,9.34-7.95,15.2-16.69,15.2c-8.34,0-12.81-5.36-12.81-11.72c0-1.99,0.3-4.77,0.79-6.85l-0.7-1.09
	c1.09-3.58,2.09-7.05,2.09-12.52c0-4.87-1.49-11.03-2.38-12.71c5.36-4.67,12.52-8.54,18.87-8.54c3.68,0,5.46,1.99,5.46,5.66
	c0,8.84-2.78,17.38-2.78,29.7c0,1.89,0.7,3.18,2.28,3.18c2.58,0,5.07-4.17,5.07-17.98v-4.37c0-3.18-0.7-5.86-1.39-7.15
	c5.56-4.97,12.71-9.54,19.37-9.54c3.38,0,5.17,1.89,5.17,5.56c0,6.16-1.79,11.82-2.68,19.37
	C1634.33,370.35,1638.7,371.84,1638.7,382.47z M1702.28,345.82c-5.76,1.49-14.01,2.48-19.87,2.48c-13.31,0-18.67-10.83-17.28-21.16
	c29.2,1.59,32.68,2.19,34.67,5.76l-27.42,0.2c0.4,3.38,1.59,8.74,12.42,8.34l14.2-0.4c-0.6-1.19-1.09-2.48-1.59-3.97
	c12.52-8.34,16.39-8.84,19.57-7.25l-12.22,8.84c1.19,2.09,2.88,3.68,5.36,3.68c2.68,0,4.57-0.89,7.35-2.68l7.35-4.67
	c1.29,2.28,0.7,4.17-1.99,7.35c-4.37,4.97-8.34,7.25-12.52,7.25C1708.14,349.59,1705.06,348.7,1702.28,345.82z M1726.51,370.15
	c2.19,4.87,0.1,8.15-4.87,9.34c-10.03,2.38-15.5-1.99-16.99-9.24c-5.26-1.59-7.95-5.96-8.24-10.93c-4.97-1.89-8.44-5.76-8.34-10.83
	c3.08,2.28,5.56,5.17,15.1,5.17c6.95,0,15.79-2.19,18.97-3.87c-1.49,7.35-2.68,10.03-17.18,10.83c-2.68,0.1-5.17-0.2-7.45-0.89
	l0.3,0.3c4.47,6.26,15.2,5.66,24.54,0.99c1.49,6.66-3.68,9.34-11.32,9.83c-1.99,0.1-3.68,0-5.26-0.3c3.48,2.78,6.75,3.68,12.22,3.08
	C1722.14,373.13,1726.12,371.05,1726.51,370.15z M1730.98,329.92c-5.96-2.98-9.83-3.68-12.52-3.77c3.97-2.88,11.82-2.88,20.16,0.1
	c15.89,5.66,21.36,13.51,14.7,26.42C1750.85,343.33,1743.5,336.08,1730.98,329.92z M1732.87,348.5c0,4.97,6.85,10.13,14.01,5.66
	c1.29,4.97-2.38,9.14-7.75,9.14c-7.15,0-12.62-5.36-12.62-13.11c0-5.36,3.97-9.93,9.04-9.93c2.48,0,3.48,0.89,4.17,2.09
	C1735.35,342.94,1732.87,345.42,1732.87,348.5z M1755.72,363.7c1.99,8.15,1.79,12.62-2.38,15.5c-3.68,2.48-7.85,4.67-12.52,4.67
	c-6.46,0-11.13-2.88-12.62-6.06c1.09,0.7,3.28,0.5,4.47,0.5C1740.72,378.3,1753.83,371.15,1755.72,363.7z M1786.61,362.11
	c0,11.42-6.26,14.6-12.22,14.6c-12.71,0-14.9-20.56-14.9-39.63c3.68,2.88,9.93,4.17,15.6,4.17c2.98,0,7.35-0.79,8.15-1.99
	C1785.72,346.11,1786.61,356.35,1786.61,362.11z M1780.25,354.86c0-2.19-0.5-3.87-1.39-6.36c0,2.68-2.19,3.68-3.97,2.98
	c-0.3,3.38,0.5,7.05,2.98,7.05C1779.76,358.53,1780.25,356.44,1780.25,354.86z"/>
<path class="st0" d="M1040.22,799.36c-0.51,3.06-0.85,6.71-0.85,11.13c0,7.99,1.44,17.84,1.44,22.94c0,18.44-9.01,28.13-23.11,28.13
	c-11.9,0-18.18-6.88-18.18-17c0-3.31,0.59-5.86,2.46-11.73c2.12,3.91,6.29,5.01,9.26,5.01c10.28,0,15.3-12.24,14.7-30.25
	c-0.08-2.12-0.08-4.16,0.08-6.03c-3.82-0.93-7.73-1.78-11.39-1.78c-4.93,0-6.54,0.85-6.54,3.4c0,2.38,3.4,2.97,6.88,2.97
	c2.12,0,4.08-0.25,6.37-0.85c-0.51,14.11-3.82,25.24-9.26,25.24c-6.71,0-13.6-14.79-13.6-27.96c0-11.3,2.89-19.54,14.62-19.54
	c5.61,0,12.24,1.19,18.69,3.06c2.21-2.04,5.01-3.06,8.24-3.06c4.59,0,7.31,1.61,9.01,3.14L1040.22,799.36z M1096.05,816.19
	c-2.72,22.69-8.16,30.42-16.83,30.42c-6.71,0-10.88-6.8-10.88-14.79c-3.99,10.96-8.75,14.79-13.17,14.79
	c-5.44,0-11.39-7.56-11.39-22.86c0-19.46,9.43-28.3,22.69-28.3c8.41,0,15.72,2.12,22.86,5.27c-0.42,4.76-1.87,8.58-3.14,12.49
	c-0.17,9.77,0.42,15.38,2.55,15.38c1.61,0,2.89-2.72,4.59-12.58L1096.05,816.19z M1070.47,811.17c-0.85-0.25-1.87-0.42-2.97-0.42
	c-3.31,0-4.76,3.74-4.76,9.43c0,6.29,1.02,8.16,2.29,8.16C1066.82,828.34,1068.86,822.82,1070.47,811.17z M1166.84,816.19
	c-2.55,20.65-8.41,30.42-17,30.42c-4.59,0-10.11-2.46-10.11-11.56c0-7.31,2.38-17.42,2.12-20.56c-0.17-1.61-0.59-2.72-2.04-2.72
	c-2.12,0-4.84,4.5-4.84,17.42v0.34c0.34,6.12,1.27,11.22,1.27,12.07c0,3.74-3.23,4.59-9.01,4.59c-5.27,0-11.39-1.02-11.39-4.93
	c0-3.06,0.25-6.63,0.85-13.51c0.42-4.59,1.02-11.13,0.85-13.26c-0.08-1.61-0.51-2.72-1.95-2.72c-2.12,0-4.84,4.5-4.84,17.42
	c0,4.33,0.42,7.14,0.85,9.52c0.25,1.19,0.42,2.21,0.42,2.89c0,3.74-1.87,4.59-7.56,4.59c-5.27,0-13-0.42-12.92-4.42
	c0.17-3.14,1.78-11.3,1.78-18.78c0-7.99,0.25-12.66-1.44-19.2c3.14-4.59,9.86-8.33,13.85-8.33c3.14,0,4.25,3.48,4.84,8.41
	c0.25,2.12,0.25,4.5,0.25,6.97c2.89-9.43,7.82-15.38,14.87-15.38c4.84,0,10.11,3.14,10.11,11.05v2.29
	c2.89-8.24,7.65-13.34,14.19-13.34c4.84,0,10.11,3.14,10.11,11.05c0,7.14-2.46,14.53-2.46,19.12c0,1.7,0.76,2.29,1.7,2.29
	c1.87,0,3.06-2.46,4.76-11.9L1166.84,816.19z M1162.93,792.9c0-5.86,8.58-11.13,15.04-11.13c3.65,0,6.37,2.12,6.37,5.86
	c0,5.86-8.58,10.96-14.7,10.96C1165.65,798.6,1162.93,796.9,1162.93,792.9z M1163.35,828.76l0.59-11.13
	c0.26-3.31,0.26-7.56-1.02-9.35c3.74-4.5,11.47-8.07,15.47-8.07c2.29,0,4.5,1.36,4.5,6.54c0,3.82-0.68,6.71-2.21,12.24
	c-0.17,2.04-0.34,3.74-0.34,4.93c0,3.06,0.42,4.67,1.7,4.67c1.44,0,3.31-2.72,5.01-12.58l2.72,0.17
	c-2.55,21.24-9.01,30.42-16.15,30.42C1166.24,846.61,1162.84,841,1163.35,828.76z M1220.8,816.19c-2.63,20.65-8.5,30.42-17.08,30.42
	c-5.69,0-9.86-3.91-9.86-10.2c0-6.71,1.87-9.86,1.87-16.57c0-1.53-0.59-2.55-2.8-2.8l-3.14-0.42h-0.08
	c-0.09,0.93-0.26,1.78-0.34,2.72c-0.34,2.29-3.31,2.29-2.89-0.17c0.25-1.19,0.42-2.38,0.59-3.57c-1.44-0.93-1.61-2.46-1.61-4.84
	c0-2.89,0.34-9.01,1.27-14.02c0.42,0.17,1.1,0.25,2.04,0.34l0.25-6.71c0.17-3.48,2.72-2.72,2.72-0.76c0,2.72-0.08,5.35-0.17,7.82
	c1.19,0.17,2.72,0.34,4.59,0.51l6.29,0.51c7.56,0.76,11.56,3.74,11.56,9.43c0,5.78-2.38,13.17-2.38,17.76c0,1.7,0.68,2.29,1.7,2.29
	c1.87,0,2.97-2.46,4.76-11.81L1220.8,816.19z M1263.97,816.61c-1.53,14.53-7.39,18.86-12.24,19.29c-4.08,6.2-9.86,10.71-16.57,10.71
	c-9.94,0-17.93-6.88-17.93-21.84c0-17.17,8.84-29.32,21.24-29.32c9.18,0,14.11,5.01,14.62,12.49c2.55,0.85,4.5,3.14,4.5,8.84
	c0,3.4-0.59,7.05-1.78,10.54c2.04-1.19,4.42-4.25,5.52-11.3L1263.97,816.61z M1241.45,829.87c0.68,0,1.36-0.17,1.95-0.59
	c-0.59-1.87-0.93-4.08-0.93-6.37c0-5.61,1.02-9.26,2.46-11.64c-0.51-0.17-1.1-0.25-1.61-0.25c-3.74,0-6.71,4.84-6.71,11.05
	C1236.6,826.3,1238.47,829.87,1241.45,829.87z M1303.4,822.48c0,15.81,2.12,28.64,2.12,34.42c0,3.57-3.23,4.67-8.92,4.67
	c-5.35,0-11.56-0.42-11.47-4.42c0.25-4.59,2.04-13.94,2.72-25.58c-3.23,10.11-8.5,15.04-13.85,15.04c-8.16,0-13.26-7.56-13.26-22.86
	c0-20.56,9.43-28.3,22.86-28.3c8.41,0,15.55,2.12,22.86,5.44c-0.59,5.61-1.78,10.71-3.06,15.55V822.48z M1288.02,811.43
	c-1.02-0.42-2.21-0.68-3.57-0.68c-3.31,0-4.59,3.82-4.59,9.69c0,6.03,1.44,7.9,2.89,7.9
	C1284.36,828.34,1287.34,825.2,1288.02,811.43z M1360.5,816.19c-2.55,20.99-8.84,30.42-17.08,30.42c-4.59,0-9.43-2.21-9.43-11.05
	c0.08-0.85,0.08-1.7,0.08-2.63c-2.55,8.5-6.97,13.68-13.85,13.68c-4.93,0-10.79-2.89-10.79-11.98c0-7.48,1.87-14.28,1.87-20.56
	c0-4.16-1.27-9.43-2.04-10.88c4.59-3.99,10.71-7.31,16.15-7.31c3.14,0,4.67,1.7,4.67,4.84c0,7.56-2.38,14.87-2.38,25.41
	c0,1.87,0.59,3.14,1.95,3.14c2.21,0,4.33-3.65,4.33-15.81v-3.74c0-2.72-0.59-5.01-1.19-6.12c4.76-4.25,10.88-8.16,16.57-8.16
	c2.89,0,3.99,1.61,3.99,4.76c0,5.27-1.1,10.11-1.87,16.57c-0.85,7.65-0.85,11.64,1.44,11.64c2.04,0,2.97-2.55,4.84-12.41
	L1360.5,816.19z M1409.45,816.19c-2.72,22.69-8.16,30.42-16.83,30.42c-6.71,0-10.88-6.8-10.88-14.79
	c-3.99,10.96-8.75,14.79-13.17,14.79c-5.44,0-11.39-7.56-11.39-22.86c0-19.46,9.43-28.3,22.69-28.3c8.41,0,15.72,2.12,22.86,5.27
	c-0.42,4.76-1.87,8.58-3.14,12.49c-0.17,9.77,0.42,15.38,2.55,15.38c1.61,0,2.89-2.72,4.59-12.58L1409.45,816.19z M1383.87,811.17
	c-0.85-0.25-1.87-0.42-2.97-0.42c-3.31,0-4.76,3.74-4.76,9.43c0,6.29,1.02,8.16,2.29,8.16
	C1380.22,828.34,1382.26,822.82,1383.87,811.17z M1405.54,792.9c0-5.86,8.58-11.13,15.04-11.13c3.65,0,6.37,2.12,6.37,5.86
	c0,5.86-8.58,10.96-14.7,10.96C1408.26,798.6,1405.54,796.9,1405.54,792.9z M1405.97,828.76l0.59-11.13
	c0.26-3.31,0.26-7.56-1.02-9.35c3.74-4.5,11.47-8.07,15.47-8.07c2.29,0,4.5,1.36,4.5,6.54c0,3.82-0.68,6.71-2.21,12.24
	c-0.17,2.04-0.34,3.74-0.34,4.93c0,2.8,0.59,4.25,2.46,4.25c0.51,0,1.87-0.17,3.23-1.27c-1.36,13.94-5.1,19.71-12.41,19.71
	C1408.86,846.61,1405.46,841,1405.97,828.76z M1491.88,822.99c-1.19-0.34-3.23-0.68-5.78-0.85v8.16c0,14.36-5.01,15.89-13.68,15.89
	c-3.06,0-10.37-0.76-17.17-2.55c7.05-6.12,12.24-12.75,14.7-22.01c-3.23,0.08-6.71,0.17-10.11,0.42c-1.53,4.76-3.99,8.07-7.48,8.07
	c-6.46,0-8.75-8.84-8.75-15.55c0-17.68,15.81-31.53,30.76-31.53c8.84,0,14.28,4.67,13.17,17.42l-0.59,6.8
	c1.95-0.59,3.48-1.02,4.5-1.1C1495.45,805.91,1496.47,810.07,1491.88,822.99z M1471.57,811.09c0.08-1.02,0.08-2.12,0.08-3.14
	c0-3.91-1.19-6.03-6.2-6.03c-4.5,0-12.41,2.97-12.41,5.78c0,2.55,4.84,2.04,8.58,0.34v3.14
	C1464.77,811.68,1468.17,811.51,1471.57,811.09z M1546.01,816.19c-2.55,20.99-8.84,30.42-17.08,30.42c-4.59,0-9.43-2.21-9.43-11.05
	c0.08-0.85,0.08-1.7,0.08-2.63c-2.55,8.5-6.97,13.68-13.85,13.68c-4.93,0-10.79-2.89-10.79-11.98c0-7.48,1.87-14.28,1.87-20.56
	c0-4.16-1.27-9.43-2.04-10.88c4.59-3.99,10.71-7.31,16.15-7.31c3.14,0,4.67,1.7,4.67,4.84c0,7.56-2.38,14.87-2.38,25.41
	c0,1.87,0.59,3.14,1.95,3.14c2.21,0,4.33-3.65,4.33-15.81v-3.74c0-2.72-0.59-5.01-1.19-6.12c4.76-4.25,10.88-8.16,16.57-8.16
	c2.89,0,3.99,1.61,3.99,4.76c0,5.27-1.1,10.11-1.87,16.57c-0.85,7.65-0.85,11.64,1.44,11.64c2.04,0,2.97-2.55,4.84-12.41
	L1546.01,816.19z M1592.49,816.19c-2.55,20.65-8.41,30.42-17,30.42c-4.5,0-10.11-2.29-10.11-11.05c0-7.22,2.46-17.85,2.12-21.07
	c-0.08-1.61-0.51-2.72-1.95-2.72c-2.12,0-4.84,4.5-4.84,17.42c0,4.33,0.42,7.14,0.85,9.52c0.26,1.19,0.42,2.21,0.42,2.89
	c0,3.74-1.87,4.59-7.56,4.59c-5.27,0-13-0.42-12.92-4.42c0.17-3.14,1.78-11.3,1.78-18.78c0-7.99,0.25-12.66-1.44-19.2
	c3.14-4.59,9.86-8.33,13.85-8.33c3.14,0,4.25,3.48,4.84,8.41c0.25,2.12,0.25,4.5,0.25,6.97c2.89-9.43,7.82-15.38,14.87-15.38
	c4.84,0,10.11,3.14,10.11,11.05c0,7.22-2.38,14.96-2.38,19.63c0,1.78,0.68,2.29,1.7,2.29c1.87,0,2.97-2.55,4.67-12.41
	L1592.49,816.19z M1634.13,826.9c-1.53,13.94-5.52,19.71-13.68,19.71c-5.61,0-10.71-5.01-9.69-21.58c3.14-4.59,4.84-7.56,4.84-10.45
	c0-1.7-0.59-2.8-2.29-2.8c-2.72,0-6.03,5.27-6.03,20.22c0,2.55,0.17,4.42,0.42,6.03c0.34,1.44,0.59,2.72,0.59,3.57
	c0,3.74-1.87,4.59-7.56,4.59c-5.27,0-12.41-0.42-12.41-4.42c0.17-3.06,1.44-10.45,1.44-21.41v-14.19c0-7.39-0.59-10.11-1.61-14.87
	c3.4-4.5,10.03-8.07,14.45-8.07c2.29,0,3.99,1.7,3.99,5.44c0,9.01-0.17,14.11-0.17,26.43c2.38-11.81,7.56-19.63,16.32-19.63
	c4.08,0,9.43,2.46,9.43,9.26c0,5.61-2.89,10.88-6.54,14.53c0.59,7.48,2.21,8.92,4.76,8.92
	C1631.75,828.17,1632.86,827.92,1634.13,826.9z M1698.21,815.59c-2.8,20.99-13.85,31.02-25.66,31.02
	c-11.98,0-22.01-8.33-22.01-27.28c0-15.21,7.73-25.75,17.34-28.64c2.55-4.59,6.54-7.65,13.09-7.65c8.41,0,11.81,6.54,11.81,12.41
	c0,7.14-2.38,12.75-7.39,16.74c-2.29-4.76-7.82-8.58-12.83-8.58c-4.16,0-6.54,1.95-6.54,7.14c0,7.73,7.14,14.45,16.83,14.45
	c5.44,0,10.54-2.21,13-11.05L1698.21,815.59z M1695.32,829.02v-20.99c0-8.84-0.76-11.98-1.61-16.74c3.4-4.67,10.03-8.24,14.45-8.24
	c2.12,0,4.59,1.44,4.59,6.97c0,4.84-0.34,7.99-1.78,16.32l0.17,11.56c0.17,7.56,0.25,9.86,1.61,9.86c1.1,0,2.21-2.12,3.99-11.73
	l2.72,0.25c-3.14,24.05-7.9,30.34-14.62,30.34C1697.44,846.61,1695.32,841.17,1695.32,829.02z M1765.93,816.19
	c-2.55,20.99-8.84,30.42-17.08,30.42c-4.59,0-9.43-2.21-9.43-11.05c0.08-0.85,0.08-1.7,0.08-2.63c-2.55,8.5-6.97,13.68-13.85,13.68
	c-4.93,0-10.79-4.16-10.79-11.9c0-3.4,0.25-5.52,0.68-9.01l-0.59-0.93c0.93-3.06,1.78-6.03,1.78-10.71c0-4.16-1.27-9.43-2.04-10.88
	c4.59-3.99,10.71-7.31,16.15-7.31c3.14,0,4.67,1.7,4.67,4.84c0,7.56-2.38,14.87-2.38,25.41c0,1.87,0.59,3.14,1.95,3.14
	c2.21,0,4.33-3.65,4.33-15.81v-3.74c0-2.72-0.59-5.01-1.19-6.12c4.76-4.25,10.88-8.16,16.57-8.16c2.89,0,3.99,1.61,3.99,4.76
	c0,5.27-1.1,10.11-1.87,16.57c-0.85,7.65-0.85,11.64,1.44,11.64c2.04,0,2.97-2.55,4.84-12.41L1765.93,816.19z M1802.47,828.85
	c-3.91,11.56-12.15,17.76-22.43,17.76c-6.88,0-12.83-1.02-18.61-2.72c0.17-3.31,1.44-11.56,1.44-23.54v-14.19
	c0-7.39-0.51-10.11-1.53-14.87c3.4-4.5,9.94-8.07,14.36-8.07c2.29,0,4.08,1.7,4.08,5.44c0,3.99,0,7.31-0.08,13.09
	c2.38-3.99,6.29-6.29,11.47-6.29c6.03,0,14.02,5.1,13.85,17.93c1.44-1.02,2.8-2.12,4.16-3.31
	C1808.93,820.1,1807.15,825.96,1802.47,828.85z M1784.46,828.76c-2.04-1.53-3.65-3.57-4.84-6.03v8.84
	C1781.31,831.4,1783.01,830.38,1784.46,828.76z M1782.59,811.85c0,3.4,2.21,5.86,5.78,6.54c0.08-0.68,0.08-1.44,0.08-2.21
	c0-5.27-2.04-7.31-3.57-7.31C1783.35,808.88,1782.59,810.16,1782.59,811.85z"/>
<path class="st0" d="M228.3,815.06c-3.05,22.68-10.83,33.14-22.31,33.14c-6.66,0-10.74-4.72-10.74-13.61
	c0-5.65,1.3-15.18,1.85-23.05c-4.63,19.72-10.46,31.01-16.66,31.01c-6.57,0-11.94-8.61-12.68-34.52c-3.33,8.89-5.09,17.4-4.54,25.82
	c0.65,4.35,1.67,8.7,3.05,12.59c-4.91,0.93-8.33,1.3-13.14,1.3c-5.65,0-12.31-1.57-12.31-8.15c0-7.87,5.92-18.33,5.92-34.62
	c0-11.85-7.13-10.74-7.13,2.31c0,7.31,0.28,10.74,1.2,17.86c-8.7-2.96-15.09-10.92-15.09-21.94c0-13.98,7.13-24.25,19.16-24.25
	c5.28,0,12.87,0.74,16.11,16.01c0.74,3.15,1.3,7.22,1.57,12.59c1.39-8.33,3.24-16.11,5.46-24.9c15.83-0.09,19.62,3.89,19.16,9.07
	c-1.48,14.25-1.57,21.75,1.48,21.75c4.07,0,8.42-14.62,8.42-22.68c3.42-0.19,8.61,0.46,11.2,1.57c5.92,2.31,8.24,4.63,8.52,7.59
	c0.56,5-1.67,13.7-1.67,20.64c0,4.54,1.39,6.57,3.42,6.57c2.5,0,4.91-2.31,6.76-12.31L228.3,815.06z M251.89,830.61
	c-0.65,0-1.3-0.09-1.94-0.28c4.35,5.09,6.39,10.09,6.11,14.72c-0.56,14.16-10.37,19.44-16.75,19.44c-10.46,0-16.66-5.74-15.74-21.1
	l1.85-31.47c0.37-6.2,0.93-13.79,0.93-21.57c0-3.61-0.09-6.11-0.56-7.96c5.28-2.04,10.55-3.42,16.01-3.42c6.66,0,7.4,5.46,7.4,8.05
	c0,5.37-2.31,12.5-5.55,20.55l-0.56,6.02c2.04,0.46,3.98,0.65,5.55,0.65c5.28,0,8.52-0.93,11.76-2.96
	C260.13,825.15,258.1,830.61,251.89,830.61z M241.9,827.18c-0.56,6.76-1.02,12.68-1.02,16.75s1.02,5.28,2.5,5.28
	c1.67,0,2.59-2.31,2.78-5.83C246.34,837.09,245.23,832.92,241.9,827.18z M342.69,805.99c0,19.9-13.79,41.74-41,41.74
	c-5.18,0-11.2-0.65-15.46-1.48c2.68-11.48,3.42-17.86,3.42-30.08c0-5.65-0.09-9.26-0.28-14.25c-3.7,3.98-5,9.35-5,13.88
	c0,3.61,0,6.39,1.39,10.09c-8.89-2.41-13.98-9.72-13.98-19.53c0-13.88,13.24-27.4,36.1-27.4
	C329.83,778.96,342.69,791.08,342.69,805.99z M321.59,810.8c0-8.89-4.07-13.05-12.22-13.98c-0.28,6.29-0.74,19.81-0.74,28.79
	c0,1.85,0,3.52,0.09,5.09C316.87,828.66,321.59,819.87,321.59,810.8z M395.91,815.52c-1.67,15.83-8.05,20.55-13.33,21.01
	c-4.44,6.76-10.74,11.66-18.05,11.66c-10.83,0-19.53-7.5-19.53-23.79c0-18.7,9.63-31.93,23.14-31.93c10,0,15.36,5.46,15.92,13.61
	c2.78,0.93,4.91,3.42,4.91,9.63c0,3.7-0.65,7.68-1.94,11.48c2.22-1.3,4.81-4.63,6.02-12.31L395.91,815.52z M371.38,829.96
	c0.74,0,1.48-0.19,2.13-0.65c-0.65-2.04-1.02-4.44-1.02-6.94c0-6.11,1.11-10.09,2.68-12.68c-0.56-0.19-1.2-0.28-1.76-0.28
	c-4.07,0-7.31,5.28-7.31,12.03C366.1,826.07,368.14,829.96,371.38,829.96z M392.11,824.41c0-19.81,10.55-31.93,23.88-31.93
	c10.46,0,16.94,7.13,16.94,20.27c0,21.1-8.52,35.45-21.38,35.45C400.16,848.19,392.11,840.7,392.11,824.41z M423.67,814.59
	c0-4.54-1.11-6.66-3.15-6.66c-2.78,0-5.09,4.63-5.09,13.98c0,3.98,1.2,6.48,3.05,6.48C421.27,828.39,423.67,824.04,423.67,814.59z
	 M512.43,826.72c-1.67,15.18-6.02,21.47-14.9,21.47c-4.72,0-10.55-2.5-10.55-12.03c0-7.87,2.31-19.44,2.31-22.95
	c-0.19-1.76-0.65-2.96-2.22-2.96c-2.31,0-5.28,4.91-5.28,18.97v0.37c0.37,6.66,1.39,12.22,1.39,13.14c0,4.07-3.52,5-9.81,5
	c-5.74,0-12.4-1.11-12.4-5.37c0-3.33,0.28-7.22,0.93-14.72c0.46-5,1.11-12.13,0.93-14.44c-0.09-1.76-0.56-2.96-2.13-2.96
	c-2.31,0-5.28,4.91-5.28,18.97c0,4.72,0.46,7.78,0.93,10.37c0.28,1.3,0.46,2.41,0.46,3.15c0,4.07-2.04,5-8.24,5
	c-5.74,0-14.16-0.46-14.07-4.81c0.19-3.42,1.94-12.31,1.94-20.46c0-8.7,0.28-13.79-1.57-20.92c3.42-5,10.74-9.07,15.09-9.07
	c3.42,0,4.63,3.79,5.28,9.16c0.28,2.31,0.28,4.91,0.28,7.59c3.15-10.27,8.52-16.75,16.2-16.75c5.28,0,11.01,3.42,11.01,12.03v2.5
	c3.15-8.98,8.33-14.53,15.46-14.53c5.28,0,11.01,3.42,11.01,12.03c0,7.59-2.68,15.55-2.68,20.18c0,2.68,1.3,3.42,2.5,3.42
	C509.84,828.11,510.86,828.11,512.43,826.72z M564.26,815.52c-0.65,10.09-5.74,14.62-11.29,15.09c4.44,5,6.57,9.9,6.29,14.44
	c-0.56,14.16-10.37,19.44-16.75,19.44c-10.46,0-16.66-5.74-15.74-21.1l1.85-31.47c0.37-6.2,0.93-13.79,0.93-21.57
	c0-3.61-0.09-6.11-0.56-7.96c5.28-2.04,10.55-3.42,16.01-3.42c6.66,0,7.4,5.46,7.4,8.05c0,5.37-2.31,12.5-5.55,20.55l-1.11,13.05
	c2.31,1.76,4.72,2.5,6.66,2.5c5.28,0,8.24-2.59,9.07-8.24L564.26,815.52z M545.1,827.18c-0.56,6.76-1.02,12.68-1.02,16.75
	s1.02,5.28,2.5,5.28c1.67,0,2.59-2.31,2.78-5.83C549.54,837.09,548.43,832.92,545.1,827.18z M591.19,826.72
	c-2.04,15.18-5.83,21.47-16.2,21.47c-12.03,0-15.09-9.72-14.44-19.9l0.83-14.62c-2.41-0.65-3.24-2.5-3.24-4.26
	c0-2.04,0.83-3.98,2.5-6.94l8.89-15.27c3.61-0.74,7.78-0.93,10.74-0.93c2.59,0,3.15,0.93,2.96,2.96c-0.09,1.39-0.37,3.7-0.56,6.48
	c3.15,0,6.66-0.28,8.15-0.74c-0.19,5.28-0.46,9.81-1.11,13.88c-0.56,3.7-2.13,5.28-6.29,5.28h-2.5c-0.28,2.68-0.46,4.63-0.46,5.28
	c-0.37,6.2,0.56,9.35,5.09,9.35C587.86,828.76,589.62,827.92,591.19,826.72z M595.08,838.01c0-5.74,2.59-10.09,9.63-10.09
	s9.63,4.35,9.63,10.09c0,5.83-2.59,10.18-9.63,10.18S595.08,843.84,595.08,838.01z M692.73,815.98c-0.56,7.59-4.26,14.72-9.81,20.36
	c1.2,2.78,1.57,5.18,1.57,7.96c0,13.51-10,20.18-19.16,20.18c-9.81,0-14.44-6.2-16.29-17.12c2.5,0,4.91-0.19,7.31-0.56
	c9.26-1.57,17.12-6.76,17.12-13.61c0-2.31-0.65-4.81-2.5-7.31c-3.33,9.35-8.98,16.48-19.16,16.48c-9.16,0-18.97-6.76-18.97-23.14
	c0-15.46,8.61-28.42,18.79-31.75c2.87-5.09,7.31-8.52,14.16-8.52c9.63,0,12.77,7.03,12.77,14.16c0,5.55-3.15,12.87-7.13,16.01
	c-2.96-3.61-10-7.59-15.46-7.59c-3.7,0-6.66,1.67-6.66,7.4c0,6.76,7.22,12.77,13.51,12.77c3.33,0,5.37-0.46,7.31-1.2
	c-0.37-1.57-0.93-2.78-1.48-3.79c2.13-1.57,6.02-3.42,10.83-3.42c3.61,0,5,1.3,5,4.07c0,5.46-1.76,9.9-4.26,13.7
	c0.46,0.83,0.93,1.57,1.3,2.31c4.54-5.28,7.5-11.66,8.42-18.51L692.73,815.98z M739.93,815.52c-1.67,15.83-8.05,20.55-13.33,21.01
	c-4.44,6.76-10.74,11.66-18.05,11.66c-10.83,0-19.53-7.5-19.53-23.79c0-18.7,9.63-31.93,23.14-31.93c10,0,15.36,5.46,15.92,13.61
	c2.78,0.93,4.91,3.42,4.91,9.63c0,3.7-0.65,7.68-1.94,11.48c2.22-1.3,4.81-4.63,6.02-12.31L739.93,815.52z M715.4,829.96
	c0.74,0,1.48-0.19,2.13-0.65c-0.65-2.04-1.02-4.44-1.02-6.94c0-6.11,1.11-10.09,2.68-12.68c-0.56-0.19-1.2-0.28-1.76-0.28
	c-4.07,0-7.31,5.28-7.31,12.03C710.12,826.07,712.16,829.96,715.4,829.96z M773.8,815.06c-2.87,22.49-9.26,33.14-18.6,33.14
	c-6.2,0-10.74-4.26-10.74-11.11c0-7.31,2.04-10.74,2.04-18.05c0-1.67-0.65-2.78-3.05-3.05l-3.42-0.46h-0.09
	c-0.09,1.02-0.28,1.94-0.37,2.96c-0.37,2.5-3.61,2.5-3.15-0.19c0.28-1.3,0.46-2.59,0.65-3.89c-1.57-1.02-1.76-2.68-1.76-5.28
	c0-3.15,0.37-9.81,1.39-15.27c0.46,0.19,1.2,0.28,2.22,0.37l0.28-7.31c0.19-3.79,2.96-2.96,2.96-0.83c0,2.96-0.09,5.83-0.19,8.52
	c1.3,0.19,2.96,0.37,5,0.56l6.85,0.56c8.24,0.83,12.59,4.07,12.59,10.27c0,6.29-2.59,14.35-2.59,19.35c0,1.85,0.74,2.5,1.85,2.5
	c2.04,0,3.24-2.68,5.18-12.87L773.8,815.06z M769.54,789.7c0-6.39,9.35-12.13,16.38-12.13c3.98,0,6.94,2.31,6.94,6.39
	c0,6.39-9.35,11.94-16.01,11.94C772.5,795.9,769.54,794.05,769.54,789.7z M770.01,828.76l0.65-12.13c0.28-3.61,0.28-8.24-1.11-10.18
	c4.07-4.91,12.5-8.79,16.85-8.79c2.5,0,4.91,1.48,4.91,7.13c0,4.17-0.74,7.31-2.41,13.33c-0.19,2.22-0.37,4.07-0.37,5.37
	c0,3.33,0.46,5.09,1.85,5.09c1.57,0,3.61-2.96,5.46-13.7l2.96,0.19c-2.78,23.14-9.81,33.14-17.59,33.14
	C773.15,848.19,769.45,842.08,770.01,828.76z M795.83,829.03v-22.86c0-9.63-0.83-13.05-1.76-18.23c3.7-5.09,10.92-8.98,15.74-8.98
	c2.31,0,5,1.57,5,7.59c0,5.28-0.37,8.7-1.94,17.77l0.19,12.59c0.19,8.24,0.28,10.74,1.76,10.74c1.2,0,2.41-2.31,4.35-12.77
	l2.96,0.28c-3.42,26.19-8.61,33.04-15.92,33.04C798.14,848.19,795.83,842.27,795.83,829.03z M819.15,829.03v-22.86
	c0-9.63-0.83-13.05-1.76-18.23c3.7-5.09,10.92-8.98,15.74-8.98c2.31,0,5,1.57,5,7.59c0,5.28-0.37,8.7-1.94,17.77l0.19,12.59
	c0.19,8.24,0.28,10.74,1.76,10.74c1.2,0,2.41-2.31,4.35-12.77l2.96,0.28c-3.42,26.19-8.61,33.04-15.92,33.04
	C821.47,848.19,819.15,842.27,819.15,829.03z M898.75,815.06c-2.96,24.71-8.89,33.14-18.33,33.14c-7.31,0-11.85-7.4-11.85-16.11
	c-4.35,11.94-9.53,16.11-14.35,16.11c-5.92,0-12.4-8.24-12.4-24.9c0-21.2,10.27-30.82,24.71-30.82c9.16,0,17.12,2.31,24.9,5.74
	c-0.46,5.18-2.04,9.35-3.42,13.61c-0.19,10.64,0.46,16.75,2.78,16.75c1.76,0,3.15-2.96,5-13.7L898.75,815.06z M870.89,809.6
	c-0.93-0.28-2.04-0.46-3.24-0.46c-3.61,0-5.18,4.07-5.18,10.27c0,6.85,1.11,8.89,2.5,8.89C866.91,828.29,869.13,822.28,870.89,809.6
	z"/>
<path class="st0" d="M942.24,823.29c-0.93,8.52-2.04,14.62-3.42,18.33c-1.39,3.89-5,6.57-8.89,6.57c-13.98,0-20.36-11.85-29.8-0.93
	c-5.28-8.89-4.54-25.73,4.17-25.73c2.78,0,4.81,1.02,6.76,2.68c1.39-2.41,2.78-5,4.26-7.68c-12.31-5-16.66-2.68-17.03,1.94
	c-0.37,3.05-3.79,2.78-3.15-0.19c1.2-6.02,1.57-12.13,1.57-11.85c0.93-9.63,4.81-13.98,10.37-13.98c6.11,0,10.74,3.42,13.14,13.61
	c1.94-4.81,3.33-9.44,3.52-13.24c10.92,2.87,16.2,11.29,16.2,16.11c0,5-5.28,10-17.12,17.86l-0.56,0.37h3.33
	C932.61,827.18,938.63,826.26,942.24,823.29z"/>
<path class="st0" d="M142.4,656.48c6.92,0,14.56-1.58,19.05-5.1c0,23.29-2.67,48.41-18.2,48.41c-7.28,0-14.92-3.88-14.92-17.83
	c0-7.04,1.09-19.53,4.12-27.9C133.42,655.51,138.76,656.48,142.4,656.48z M142.64,668.98c-2.18,0.85-4.85-0.36-4.85-3.64
	c-1.09,3.03-1.7,5.1-1.7,7.76c0,1.94,0.61,4.49,2.91,4.49C142.04,677.59,143.01,673.1,142.64,668.98z M199.67,701.13
	c-1.82,3.88-7.52,7.4-15.41,7.4c-5.7,0-10.8-2.67-15.29-5.7c-5.1-3.52-5.34-8.98-2.91-18.93c2.31,9.1,18.32,17.83,28.15,17.83
	C195.66,701.73,198.33,701.98,199.67,701.13z M168.97,670.43c-8.13-15.77-1.46-25.36,17.96-32.27c10.19-3.64,19.78-3.64,24.63-0.12
	c-3.28,0.12-8.01,0.97-15.29,4.61C180.98,650.17,172,659.03,168.97,670.43z M193.96,665.34c0-3.76-3.03-6.79-8.37-7.52
	c0.85-1.46,2.06-2.55,5.1-2.55c6.19,0,11.04,5.58,11.04,12.13c0,9.46-6.67,16.01-15.41,16.01c-6.55,0-11.04-5.1-9.46-11.16
	C185.59,677.71,193.96,671.4,193.96,665.34z M248.68,665.34c0.12,6.19-4.12,10.92-10.19,13.22c-0.36,6.07-3.64,11.4-10.07,13.35
	c-1.82,8.86-8.49,14.19-20.75,11.28c-6.07-1.46-8.61-5.46-5.94-11.4c0.49,1.09,5.34,3.64,10.43,4.25
	c6.67,0.73,10.68-0.36,14.92-3.76c-1.94,0.36-4,0.49-6.43,0.36c-9.34-0.61-15.65-3.88-13.83-12.01c11.4,5.7,24.51,6.43,29.97-1.21
	l0.36-0.36c-2.79,0.85-5.82,1.21-9.1,1.09c-17.71-0.97-19.17-4.25-20.99-13.22c3.88,2.06,14.68,4.73,23.17,4.73
	C241.89,671.65,244.92,668.13,248.68,665.34z M255.6,665.09c-7.16,0-17.23-1.21-24.26-3.03c-3.4,3.52-7.16,4.61-9.83,4.61
	c-5.1,0-9.95-2.79-15.29-8.86c-3.28-3.88-4-6.19-2.43-8.98l8.98,5.7c3.4,2.18,5.7,3.28,8.98,3.28c3.03,0,5.1-1.94,6.55-4.49
	l-14.92-10.8c3.88-1.94,8.61-1.33,23.9,8.86c-0.61,1.82-1.21,3.4-1.94,4.85l17.35,0.49c13.22,0.49,14.68-6.07,15.17-10.19
	l-33.49-0.24c2.43-4.37,6.67-5.1,42.34-7.04C278.4,651.87,271.85,665.09,255.6,665.09z M349.38,672.25
	c-0.85,13.22-7.52,19.17-14.8,19.78c5.82,6.55,8.61,12.98,8.25,18.93c-0.73,18.56-13.59,25.48-21.96,25.48
	c-13.71,0-21.84-7.52-20.62-27.66l2.43-41.25c0.49-8.13,1.21-18.08,1.21-28.27c0-4.73-0.12-8.01-0.73-10.43
	c6.92-2.67,13.83-4.49,20.99-4.49c8.74,0,9.71,7.16,9.71,10.56c0,7.04-3.03,16.38-7.28,26.93l-1.46,17.11
	c3.03,2.31,6.19,3.28,8.74,3.28c6.92,0,10.8-3.4,11.89-10.8L349.38,672.25z M324.27,687.54c-0.73,8.86-1.33,16.62-1.33,21.96
	s1.33,6.92,3.28,6.92c2.18,0,3.4-3.03,3.64-7.64C330.09,700.52,328.64,695.06,324.27,687.54z M384.69,686.93
	c-2.67,19.9-7.64,28.15-21.23,28.15c-15.77,0-19.78-12.74-18.93-26.08l1.09-19.17c-3.15-0.85-4.25-3.28-4.25-5.58
	c0-2.67,1.09-5.22,3.28-9.1l11.65-20.02c4.73-0.97,10.19-1.21,14.07-1.21c3.4,0,4.12,1.21,3.88,3.88c-0.12,1.82-0.49,4.85-0.73,8.49
	c4.12,0,8.74-0.36,10.68-0.97c-0.24,6.92-0.61,12.86-1.46,18.2c-0.73,4.85-2.79,6.92-8.25,6.92h-3.28
	c-0.36,3.52-0.61,6.07-0.61,6.92c-0.49,8.13,0.73,12.25,6.67,12.25C380.32,689.6,382.63,688.51,384.69,686.93z M389.79,701.73
	c0-7.52,3.4-13.22,12.62-13.22s12.62,5.7,12.62,13.22c0,7.64-3.4,13.35-12.62,13.35S389.79,709.38,389.79,701.73z M499.59,655.87
	c-1.46,0-2.79,0-4.12-0.12c0.49,13.83,6.43,27.42,6.43,37.73c0,15.29-15.04,21.6-34.46,21.6c-26.93,0-32.64-21.6-18.93-36.28
	c-0.49,5.1,3.88,8.25,11.77,8.25c8.37,0,12.86-5.7,15.29-18.93c1.09-5.46,1.82-10.8,3.03-15.65c-19.9-1.7-26.81-0.49-26.81,2.79
	c0,4.37,12.13,4.37,19.78,0.24c-1.09,13.47-5.34,23.66-14.92,23.66c-8.74,0-18.93-17.59-18.93-33c0-12.62,4-21.84,20.99-21.84
	c16.5,0,29.12,12.25,50.96,0.85C513.3,636.58,507.6,655.87,499.59,655.87z M583.79,671.65c-3.76,29.48-12.13,43.43-24.26,43.43
	c-6.55,0-14.56-3.28-14.56-15.77c0-10.31,3.15-25.48,3.15-30.09c0-2.31-0.85-3.88-2.91-3.88c-3.03,0-6.92,6.43-6.92,24.87
	c0,6.07,0.61,10.19,1.09,13.59c0.49,1.94,0.73,3.52,0.73,4.73c0,4.85-2.67,5.94-10.8,5.94c-7.52,0-17.71-0.61-17.71-6.31
	c0.24-4.37,2.06-14.92,2.06-30.57v-20.26c0-10.56-0.85-14.44-2.31-21.23c4.85-6.67,14.32-11.77,20.62-11.77
	c3.28,0,5.7,2.43,5.7,8.01c0,12.25-0.24,19.41-0.24,35.18c3.88-15.41,11.28-25.48,22.2-25.48c6.92,0,14.56,4.49,14.56,15.77
	c0,10.31-3.52,21.35-3.52,28.03c0,2.55,0.97,3.28,2.43,3.28c2.67,0,4.25-3.64,6.79-17.71L583.79,671.65z M633.66,694.21
	c-1.21,12.62-10.8,20.87-26.08,20.87c-14.19,0-29.12-9.58-29.12-31.18c0-16.38,6.19-26.33,16.74-30.45
	c3.15-7.4,9.71-11.4,18.32-11.4c11.16,0,19.78,7.16,19.78,19.53c0,12.13-10.07,26.81-28.27,23.17c2.55,3.52,6.92,5.58,12.13,5.58
	c6.07,0,11.16-2.55,16.14-8.74C633.9,686.69,634.14,689.36,633.66,694.21z M602.48,676.86c0,0.49,0,1.09,0.12,1.58
	c5.22-0.49,10.31-3.76,10.31-10.68c0-2.43-1.21-4.12-3.52-4.12C605.99,663.64,602.48,669.58,602.48,676.86z M745.88,671.65
	c-3.76,29.97-11.53,43.43-22.69,43.43c-11.04,0-17.35-7.64-17.35-29.12c-1.46,0.49-3.03,0.97-4.49,1.33
	c-0.36,11.16-0.12,17.71,2.91,23.42c-7.64,2.55-16.62,3.76-22.69,3.76s-8.74-2.55-8.74-7.04c0-10.8,4.85-19.53,5.1-39.67
	c0-6.67-0.12-9.34-0.61-12.01c-3.88,4.49-5.34,10.07-5.34,15.29c0,4.61,0.61,8.37,2.43,13.22c-12.62-3.03-19.53-11.04-19.53-22.81
	c0-18.2,18.2-37.12,47.68-37.12c21.23,0,33.85,11.65,33.85,25.84c0,11.4-6.31,21.72-16.5,28.87c2.06,5.34,4.97,7.4,9.58,7.4
	c4.85,0,9.95-2.43,12.5-15.04L745.88,671.65z M701.6,647.14c-0.12,6.79-0.12,17.35-0.12,26.33c6.43-3.88,10.43-10.19,10.43-15.53
	C711.91,651.26,707.66,647.62,701.6,647.14z M803.03,672.25c-2.79,28.15-15.41,42.83-35.55,42.83c-13.35,0-26.93-9.58-26.93-31.18
	c0-16.38,6.19-26.33,16.74-30.45c3.15-7.4,9.71-11.4,18.32-11.4c11.16,0,19.78,7.16,19.78,19.53c0,12.13-10.07,26.81-28.27,23.17
	c2.55,3.52,6.92,5.58,12.13,5.58c9.58,0,16.5-3.64,20.02-18.93L803.03,672.25z M764.57,676.86c0,0.49,0,1.09,0.12,1.58
	c5.22-0.49,10.31-3.76,10.31-10.68c0-2.43-1.21-4.12-3.52-4.12C768.09,663.64,764.57,669.58,764.57,676.86z M870.36,686.93
	c-2.31,19.9-8.13,28.15-20.02,28.15c-6.43,0-13.83-5.7-13.22-21.6c-4.61,14.56-12.13,21.6-19.78,21.6
	c-11.65,0-18.93-10.8-18.93-32.64c0-27.54,13.47-37.73,32.64-37.73c2.06,0,4,0.12,5.82,0.49c-0.36-3.15-0.85-5.7-1.58-9.1
	c4.85-6.67,14.32-11.77,20.62-11.77c3.28,0,7.04,0.85,7.04,8.37c0,5.1-1.58,13.22-2.79,19.17l0.24,21.84
	c0,9.95,0.73,15.04,5.22,15.04C866.48,688.75,868.3,688.51,870.36,686.93z M837.24,666.43c-1.46-0.61-3.03-0.97-4.97-0.97
	c-4.73,0-6.55,4.97-6.55,12.25c0,8.61,2.06,11.28,4.12,11.28C832.03,688.99,836.15,684.75,837.24,666.43z M999.82,671.65
	c-3.88,29.97-13.95,43.43-28.39,43.43c-10.8,0-16.99-7.64-16.99-20.99c0-2.06,0.24-4.97,0.49-8.61c-3.64,0.12-7.28,0.36-10.8,0.85
	v1.58c0.61,12.62,1.33,19.17,3.4,24.02c-8.49,1.7-15.89,2.55-22.44,2.55c-7.28,0-9.34-2.55-9.1-7.76c0.12-4.85,0.49-9.83,0.73-15.04
	c-5.82,1.7-11.16,3.64-15.89,5.82c-1.82-3.64-2.55-8.49-2.79-12.86c0-1.82,0.36-7.76,7.76-8.49c3.88-0.49,7.89-0.73,11.89-0.97
	c0.61-8.98,0.97-18.56,1.21-28.75c-8.86-0.97-18.08,1.58-18.08,4.85c0,3.03,8.98,2.79,13.1,2.18c0,9.46-5.1,19.78-12.62,19.78
	c-6.19,0-11.04-12.37-11.04-23.42c0-20.02,34.82-25.72,44.28-25.72c9.1,0,13.59,4.73,12.37,14.68c-1.7,13.1-3.03,21.35-3.03,36.4
	c4,0.24,8.01,0.61,11.89,1.09c0.85-9.1,1.7-20.02,1.7-30.57c0-5.46,0-9.58-0.97-15.04c6.55-3.4,17.35-6.31,23.9-6.31
	c5.7,0,8.25,3.52,8.13,9.58c-0.24,5.7-2.43,9.22-4.37,13.22c-0.73,12.86-1.58,23.29-1.58,31.67c0,5.82,1.46,8.13,3.88,8.13
	c3.52,0,7.28-2.43,9.46-15.53L999.82,671.65z M1061.45,672.25c-2.18,20.75-10.56,26.93-17.47,27.54
	c-5.82,8.86-14.07,15.29-23.66,15.29c-14.19,0-25.6-9.83-25.6-31.18c0-24.51,12.62-41.86,30.33-41.86c13.1,0,20.14,7.16,20.87,17.83
	c3.64,1.21,6.43,4.49,6.43,12.62c0,4.85-0.85,10.07-2.55,15.04c2.91-1.7,6.31-6.07,7.89-16.14L1061.45,672.25z M1029.3,691.18
	c0.97,0,1.94-0.24,2.79-0.85c-0.85-2.67-1.33-5.82-1.33-9.1c0-8.01,1.46-13.22,3.52-16.62c-0.73-0.24-1.58-0.36-2.31-0.36
	c-5.34,0-9.58,6.92-9.58,15.77C1022.39,686.08,1025.06,691.18,1029.3,691.18z M1096.64,686.93c-2.67,19.9-7.64,28.15-21.23,28.15
	c-15.77,0-19.78-12.74-18.93-26.08l1.09-19.17c-3.15-0.85-4.25-3.28-4.25-5.58c0-2.67,1.09-5.22,3.28-9.1l11.65-20.02
	c4.73-0.97,10.19-1.21,14.07-1.21c3.4,0,4.12,1.21,3.88,3.88c-0.12,1.82-0.49,4.85-0.73,8.49c4.12,0,8.74-0.36,10.68-0.97
	c-0.24,6.92-0.61,12.86-1.46,18.2c-0.73,4.85-2.79,6.92-8.25,6.92h-3.28c-0.36,3.52-0.61,6.07-0.61,6.92
	c-0.49,8.13,0.73,12.25,6.67,12.25C1092.27,689.6,1094.58,688.51,1096.64,686.93z M1189.94,670.8c-4,29.97-19.78,44.28-36.64,44.28
	c-17.11,0-31.42-11.89-31.42-38.94c0-21.72,11.04-36.76,24.75-40.89c3.64-6.55,9.34-10.92,18.68-10.92
	c12.01,0,16.86,9.34,16.86,17.71c0,10.19-3.4,18.2-10.56,23.9c-3.28-6.79-11.16-12.25-18.32-12.25c-5.94,0-9.34,2.79-9.34,10.19
	c0,11.04,10.19,20.62,24.02,20.62c7.76,0,15.04-3.15,18.56-15.77L1189.94,670.8z M1255.94,671.65
	c-3.76,29.48-12.13,43.43-24.26,43.43c-6.55,0-14.56-3.28-14.56-15.77c0-10.31,3.15-25.48,3.15-30.09c0-2.31-0.85-3.88-2.91-3.88
	c-3.03,0-6.92,6.43-6.92,24.87c0,6.07,0.61,10.19,1.09,13.59c0.49,1.94,0.73,3.52,0.73,4.73c0,4.85-2.67,5.94-10.8,5.94
	c-7.52,0-17.71-0.61-17.71-6.31c0.24-4.37,2.06-14.92,2.06-30.57v-20.26c0-10.56-0.85-14.44-2.31-21.23
	c4.85-6.67,14.32-11.77,20.62-11.77c3.28,0,5.7,2.43,5.7,8.01c0,12.25-0.24,19.41-0.24,35.18c3.88-15.41,11.28-25.48,22.2-25.48
	c6.92,0,14.56,4.49,14.56,15.77c0,10.31-3.52,21.35-3.52,28.03c0,2.55,0.97,3.28,2.43,3.28c2.67,0,4.25-3.64,6.79-17.71
	L1255.94,671.65z M1250.36,638.4c0-8.37,12.25-15.89,21.47-15.89c5.22,0,9.1,3.03,9.1,8.37c0,8.37-12.25,15.65-20.99,15.65
	C1254.24,646.53,1250.36,644.11,1250.36,638.4z M1250.97,689.6l0.85-15.89c0.36-4.73,0.36-10.8-1.46-13.35
	c5.34-6.43,16.38-11.53,22.08-11.53c3.28,0,6.43,1.94,6.43,9.34c0,5.46-0.97,9.58-3.15,17.47c-0.24,2.91-0.49,5.34-0.49,7.04
	c0,4.37,0.61,6.67,2.43,6.67c2.06,0,4.73-3.88,7.16-17.96l3.88,0.24c-3.64,30.33-12.86,43.43-23.05,43.43
	C1255.09,715.08,1250.24,707.07,1250.97,689.6z M1284.82,689.97V660c0-12.62-1.09-17.11-2.31-23.9
	c4.85-6.67,14.32-11.77,20.62-11.77c3.03,0,6.55,2.06,6.55,9.95c0,6.92-0.49,11.4-2.55,23.29l0.24,16.5
	c0.24,10.8,0.36,14.07,2.31,14.07c1.58,0,3.15-3.03,5.7-16.74l3.88,0.36c-4.49,34.33-11.28,43.31-20.87,43.31
	C1287.85,715.08,1284.82,707.31,1284.82,689.97z M1313.7,638.4c0-8.37,12.25-15.89,21.47-15.89c5.22,0,9.1,3.03,9.1,8.37
	c0,8.37-12.25,15.65-20.99,15.65C1317.58,646.53,1313.7,644.11,1313.7,638.4z M1314.3,689.6l0.85-15.89
	c0.36-4.73,0.36-10.8-1.46-13.35c5.34-6.43,16.38-11.53,22.08-11.53c3.28,0,6.43,1.94,6.43,9.34c0,5.46-0.97,9.58-3.15,17.47
	c-0.24,2.91-0.49,5.34-0.49,7.04c0,4,0.85,6.07,3.52,6.07c0.73,0,2.67-0.24,4.61-1.82c-1.94,19.9-7.28,28.15-17.71,28.15
	C1318.43,715.08,1313.57,707.07,1314.3,689.6z M1412.82,691.18c0.24,8.86,2.31,14.44,6.07,20.14c-6.79,2.31-10.8,3.15-20.62,3.15
	c-9.95,0-13.83-2.67-12.98-8.01c1.82-12.37,4.85-18.68,4.85-38.34c0-4.12-0.24-8.98-0.73-12.5c-3.76,4.49-5.22,10.19-5.22,15.41
	c0,4.61,0.61,8.37,2.43,13.22c-12.62-3.03-19.53-11.04-19.53-22.81c0-18.2,17.35-37.12,46.83-37.12c22.69,0,34.94,13.22,34.94,27.78
	C1448.85,670.68,1431.87,687.54,1412.82,691.18z M1423.98,658.42c0-6.67-3.76-10.31-10.43-11.04c0,10.31,0,20.99-0.36,30.82
	C1420.46,671.89,1423.98,664.49,1423.98,658.42z M1509.88,672.25c-2.79,28.15-15.41,42.83-35.55,42.83
	c-13.35,0-26.93-9.58-26.93-31.18c0-16.38,6.19-26.33,16.74-30.45c3.15-7.4,9.71-11.4,18.32-11.4c11.16,0,19.78,7.16,19.78,19.53
	c0,12.13-10.07,26.81-28.27,23.17c2.55,3.52,6.92,5.58,12.13,5.58c9.58,0,16.5-3.64,20.02-18.93L1509.88,672.25z M1471.42,676.86
	c0,0.49,0,1.09,0.12,1.58c5.22-0.49,10.31-3.76,10.31-10.68c0-2.43-1.21-4.12-3.52-4.12
	C1474.94,663.64,1471.42,669.58,1471.42,676.86z M1567.27,668.61c-1.09,29.97-15.77,46.47-35.67,46.47h-1.58
	c0.36,7.16,2.79,12.62,2.79,14.8c0,5.34-2.67,6.55-10.8,6.55c-7.52,0-18.56-0.61-18.44-6.31c0.12-4,0.85-10.56,1.46-18.93v-0.12
	c0.61-7.28,1.09-16.01,1.09-25.6c0-12.98,0.12-20.75-2.06-31.54c4.49-6.55,14.07-11.89,19.78-11.89c4.49,0,6.07,4.97,6.92,12.01
	c0.36,3.28,0.36,6.92,0.36,10.68c3.52-15.29,10.19-22.69,19.65-22.69C1559.5,642.04,1567.87,649.56,1567.27,668.61z M1538.64,664.49
	c-2.79,0-7.04,5.22-7.52,26.08h1.21c5.58,0,8.86-4.49,9.46-18.93C1541.91,667.16,1540.7,664.49,1538.64,664.49z M1596.87,715.2
	h-1.33c0.36,7.16,2.79,12.5,2.79,14.68c0,5.34-2.67,6.55-10.8,6.55c-7.52,0-18.56-0.61-18.44-6.31c0.24-7.52,2.55-24.02,2.55-44.65
	c0-12.98,0.12-20.75-2.06-31.54c4.49-6.55,14.07-11.89,19.78-11.89c4.49,0,6.07,4.97,6.92,12.01c0.36,3.28,0.36,6.92,0.36,10.68
	c3.52-15.29,10.19-22.69,19.65-22.69c7.28,0,15.41,6.31,14.8,23.42c-0.36,9.22-3.03,18.08-8.13,25.11
	c7.28-4.12,12.62-10.8,14.32-19.17l3.64,0.85c-2.67,29.36-19.53,42.58-43.07,42.95h-0.73h-0.12H1596.87z M1596.63,690.57h1.21
	c5.1,0,8.86-4.49,8.86-18.93c0-4.49-1.21-6.31-3.15-6.31C1601,665.34,1597.12,669.83,1596.63,690.57z M1698.3,672.25
	c-2.79,28.15-15.41,42.83-35.55,42.83c-13.35,0-26.93-9.58-26.93-31.18c0-16.38,6.19-26.33,16.74-30.45
	c3.15-7.4,9.71-11.4,18.32-11.4c11.16,0,19.78,7.16,19.78,19.53c0,12.13-10.07,26.81-28.27,23.17c2.55,3.52,6.92,5.58,12.13,5.58
	c9.58,0,16.5-3.64,20.02-18.93L1698.3,672.25z M1659.84,676.86c0,0.49,0,1.09,0.12,1.58c5.22-0.49,10.31-3.76,10.31-10.68
	c0-2.43-1.21-4.12-3.52-4.12C1663.36,663.64,1659.84,669.58,1659.84,676.86z M1742.71,671.65c-3.76,29.48-12.13,43.43-24.39,43.43
	c-8.13,0-14.07-5.58-14.07-14.56c0-9.58,2.67-14.07,2.67-23.66c0-2.18-0.85-3.64-4-4l-4.49-0.61h-0.12
	c-0.12,1.33-0.36,2.55-0.49,3.88c-0.49,3.28-4.73,3.28-4.12-0.24c0.36-1.7,0.61-3.4,0.85-5.1c-2.06-1.33-2.31-3.52-2.31-6.92
	c0-4.12,0.49-12.86,1.82-20.02c0.61,0.24,1.58,0.36,2.91,0.49l0.36-9.58c0.24-4.97,3.88-3.88,3.88-1.09c0,3.88-0.12,7.64-0.24,11.16
	c1.7,0.24,3.88,0.49,6.55,0.73l8.98,0.73c10.8,1.09,16.5,5.34,16.5,13.47c0,8.25-3.4,18.8-3.4,25.36c0,2.43,0.97,3.28,2.43,3.28
	c2.67,0,4.25-3.52,6.79-16.86L1742.71,671.65z M1737.01,688.15c0-5.94,1.21-13.1,1.82-16.74c0.36-3.28,4.25-2.79,3.88,0.24
	c-0.49,8.49,4.85,18.08,12.74,18.08c2.67,0,5.1-1.58,5.1-4.85c0-7.16-13.35-9.34-13.35-21.35c0-11.4,10.8-21.47,22.32-21.47
	c5.94,0,14.07,1.46,14.07,9.83c0,3.88-1.21,8.74-3.64,14.68c-4.25-1.82-7.52-2.43-9.95-2.43c-4.73,0-6.79,1.21-6.79,2.79
	c0,2.43,4.12,4.25,10.43,8.13c10.56,6.31,13.22,10.8,13.22,17.83c0,12.98-10.8,22.2-25.84,22.2
	C1745.74,715.08,1737.01,706.83,1737.01,688.15z"/>
<path class="st0" d="M183.24,544.32c0.34,12.42,3.23,20.25,8.51,28.25c-9.53,3.23-15.14,4.42-28.93,4.42
	c-13.95,0-19.4-3.74-18.21-11.23c2.55-17.36,6.81-26.2,6.81-53.77c0-5.79-0.34-12.59-1.02-17.53c-5.27,6.3-7.32,14.29-7.32,21.61
	c0,6.47,0.85,11.74,3.4,18.55c-17.7-4.25-27.39-15.48-27.39-31.99c0-25.52,24.33-52.07,65.68-52.07c31.82,0,49,18.55,49,38.96
	C233.77,515.56,209.95,539.21,183.24,544.32z M198.89,498.38c0-9.36-5.27-14.46-14.63-15.48c0,14.46,0,29.44-0.51,43.22
	C193.96,517.27,198.89,506.89,198.89,498.38z M337.22,516.92c-5.44,45.43-16.33,60.91-33.69,60.91c-13.44,0-21.78-13.61-21.78-29.61
	c-8,21.95-17.53,29.61-26.37,29.61c-10.89,0-22.8-15.14-22.8-45.77c0-38.96,18.89-56.66,45.43-56.66c16.84,0,31.48,4.25,45.77,10.55
	c-0.85,9.53-3.74,17.19-6.3,25.01c-0.34,19.57,0.85,30.8,5.1,30.8c3.23,0,5.79-5.44,9.19-25.18L337.22,516.92z M286.01,506.89
	c-1.7-0.51-3.74-0.85-5.96-0.85c-6.64,0-9.53,7.49-9.53,18.89c0,12.59,2.04,16.33,4.59,16.33
	C278.69,541.26,282.77,530.2,286.01,506.89z M399.32,516.92c-5.27,41.35-17.02,60.91-34.2,60.91c-11.4,0-19.74-7.83-19.74-20.42
	c0-13.44,3.74-19.74,3.74-33.18c0-3.06-1.19-5.1-5.61-5.61l-6.3-0.85h-0.17c-0.17,1.87-0.51,3.57-0.68,5.44
	c-0.68,4.59-6.64,4.59-5.79-0.34c0.51-2.38,0.85-4.76,1.19-7.15c-2.89-1.87-3.23-4.93-3.23-9.7c0-5.79,0.68-18.04,2.55-28.07
	c0.85,0.34,2.21,0.51,4.08,0.68l0.51-13.44c0.34-6.98,5.44-5.44,5.44-1.53c0,5.44-0.17,10.72-0.34,15.65
	c2.38,0.34,5.44,0.68,9.19,1.02l12.59,1.02c15.14,1.53,23.14,7.49,23.14,18.89c0,11.57-4.76,26.37-4.76,35.56
	c0,3.4,1.36,4.59,3.4,4.59c3.74,0,5.96-4.93,9.53-23.65L399.32,516.92z M393.88,542.62v-42.03c0-17.7-1.53-23.99-3.23-33.52
	c6.81-9.36,20.08-16.5,28.93-16.5c4.25,0,9.19,2.89,9.19,13.95c0,9.7-0.68,15.99-3.57,32.67l0.34,23.14
	c0.34,15.14,0.51,19.74,3.23,19.74c2.21,0,4.42-4.25,8-23.48l5.44,0.51c-6.3,48.15-15.82,60.74-29.27,60.74
	C398.13,577.84,393.88,566.95,393.88,542.62z M434.37,470.3c0-11.74,17.19-22.29,30.12-22.29c7.32,0,12.76,4.25,12.76,11.74
	c0,11.74-17.19,21.95-29.44,21.95C439.82,481.7,434.37,478.3,434.37,470.3z M435.22,542.11l1.19-22.29
	c0.51-6.64,0.51-15.14-2.04-18.72c7.49-9.02,22.97-16.16,30.97-16.16c4.59,0,9.02,2.72,9.02,13.1c0,7.66-1.36,13.44-4.42,24.5
	c-0.34,4.08-0.68,7.49-0.68,9.87c0,6.13,0.85,9.36,3.4,9.36c2.89,0,6.64-5.44,10.04-25.18l5.44,0.34
	c-5.1,42.54-18.04,60.91-32.33,60.91C441.01,577.84,434.2,566.61,435.22,542.11z M586.15,516.92
	c-5.44,45.43-16.33,60.91-33.69,60.91c-13.44,0-21.78-13.61-21.78-29.61c-8,21.95-17.53,29.61-26.37,29.61
	c-10.89,0-22.8-15.14-22.8-45.77c0-38.96,18.89-56.66,45.43-56.66c16.84,0,31.48,4.25,45.77,10.55c-0.85,9.53-3.74,17.19-6.3,25.01
	c-0.34,19.57,0.85,30.8,5.1,30.8c3.23,0,5.79-5.44,9.19-25.18L586.15,516.92z M534.93,506.89c-1.7-0.51-3.74-0.85-5.96-0.85
	c-6.64,0-9.53,7.49-9.53,18.89c0,12.59,2.04,16.33,4.59,16.33C527.61,541.26,531.7,530.2,534.93,506.89z M727.88,516.92
	c-5.1,41.35-16.84,60.91-34.03,60.91c-9.19,0-20.25-4.93-20.25-23.14c0-14.63,4.76-34.88,4.25-41.18c-0.34-3.23-1.19-5.44-4.08-5.44
	c-4.25,0-9.7,9.02-9.7,34.88v0.68c0.68,12.25,2.55,22.46,2.55,24.16c0,7.49-6.47,9.19-18.04,9.19c-10.55,0-22.8-2.04-22.8-9.87
	c0-6.13,0.51-13.27,1.7-27.05c0.85-9.19,2.04-22.29,1.7-26.54c-0.17-3.23-1.02-5.44-3.91-5.44c-4.25,0-9.7,9.02-9.7,34.88
	c0,8.68,0.85,14.29,1.7,19.06c0.51,2.38,0.85,4.42,0.85,5.79c0,7.49-3.74,9.19-15.14,9.19c-10.55,0-26.03-0.85-25.86-8.85
	c0.34-6.3,3.57-22.63,3.57-37.6c0-15.99,0.51-25.35-2.89-38.45c6.3-9.19,19.74-16.67,27.73-16.67c6.3,0,8.51,6.98,9.7,16.84
	c0.51,4.25,0.51,9.02,0.51,13.95c5.79-18.89,15.65-30.8,29.78-30.8c9.7,0,20.25,6.3,20.25,22.12v4.59
	c5.79-16.5,15.31-26.71,28.42-26.71c9.7,0,20.25,6.3,20.25,22.12c0,14.29-4.93,29.1-4.93,38.28c0,3.4,1.53,4.59,3.4,4.59
	c3.74,0,6.13-4.93,9.53-23.82L727.88,516.92z M808.01,517.78c-3.91,39.47-21.61,60.06-49.85,60.06c-18.72,0-37.77-13.44-37.77-43.73
	c0-22.97,8.68-36.92,23.48-42.71c4.42-10.38,13.61-15.99,25.69-15.99c15.65,0,27.73,10.04,27.73,27.39
	c0,17.02-14.12,37.6-39.65,32.5c3.57,4.93,9.7,7.83,17.02,7.83c13.44,0,23.14-5.1,28.07-26.54L808.01,517.78z M754.08,524.24
	c0,0.68,0,1.53,0.17,2.21c7.32-0.68,14.46-5.27,14.46-14.97c0-3.4-1.7-5.79-4.93-5.79C759.01,505.69,754.08,514.03,754.08,524.24z
	 M901.25,516.92c-5.1,41.35-16.84,60.91-34.03,60.91c-9.02,0-20.25-4.59-20.25-22.12c0-14.46,4.93-35.73,4.25-42.2
	c-0.17-3.23-1.02-5.44-3.91-5.44c-4.25,0-9.7,9.02-9.7,34.88c0,8.68,0.85,14.29,1.7,19.06c0.51,2.38,0.85,4.42,0.85,5.79
	c0,7.49-3.74,9.19-15.14,9.19c-10.55,0-26.03-0.85-25.86-8.85c0.34-6.3,3.57-22.63,3.57-37.6c0-15.99,0.51-25.35-2.89-38.45
	c6.3-9.19,19.74-16.67,27.73-16.67c6.3,0,8.51,6.98,9.7,16.84c0.51,4.25,0.51,9.02,0.51,13.95c5.79-18.89,15.65-30.8,29.78-30.8
	c9.7,0,20.25,6.3,20.25,22.12c0,14.46-4.76,29.95-4.76,39.3c0,3.57,1.36,4.59,3.4,4.59c3.74,0,5.96-5.1,9.36-24.84L901.25,516.92z
	 M950.42,538.36c-3.74,27.9-10.72,39.47-29.78,39.47c-22.12,0-27.73-17.87-26.54-36.58l1.53-26.88c-4.42-1.19-5.96-4.59-5.96-7.83
	c0-3.74,1.53-7.32,4.59-12.76l16.33-28.07c6.64-1.36,14.29-1.7,19.74-1.7c4.76,0,5.79,1.7,5.44,5.44
	c-0.17,2.55-0.68,6.81-1.02,11.91c5.79,0,12.25-0.51,14.97-1.36c-0.34,9.7-0.85,18.04-2.04,25.52c-1.02,6.81-3.91,9.7-11.57,9.7
	h-4.59c-0.51,4.93-0.85,8.51-0.85,9.7c-0.68,11.4,1.02,17.19,9.36,17.19C944.3,542.11,947.53,540.58,950.42,538.36z M1078.71,530.54
	c-2.38-0.68-6.47-1.36-11.57-1.7v16.33c0,28.76-10.04,31.82-27.39,31.82c-6.13,0-20.76-1.53-34.37-5.1
	c14.12-12.25,24.5-25.52,29.44-44.07c-6.47,0.17-13.44,0.34-20.25,0.85c-3.06,9.53-8,16.16-14.97,16.16
	c-12.93,0-17.53-17.7-17.53-31.14c0-35.39,31.65-63.13,61.59-63.13c17.7,0,28.59,9.36,26.37,34.88l-1.19,13.61
	c3.91-1.19,6.98-2.04,9.02-2.21C1085.86,496.34,1087.9,504.67,1078.71,530.54z M1038.05,506.72c0.17-2.04,0.17-4.25,0.17-6.3
	c0-7.83-2.38-12.08-12.42-12.08c-9.02,0-24.84,5.96-24.84,11.57c0,5.1,9.7,4.08,17.19,0.68v6.3
	C1024.43,507.91,1031.24,507.57,1038.05,506.72z M1187.09,516.92c-5.1,42.03-17.7,60.91-34.2,60.91c-9.19,0-18.89-4.42-18.89-22.12
	c0.17-1.7,0.17-3.4,0.17-5.27c-5.1,17.02-13.95,27.39-27.73,27.39c-9.87,0-21.61-5.79-21.61-23.99c0-14.97,3.74-28.59,3.74-41.18
	c0-8.34-2.55-18.89-4.08-21.78c9.19-8,21.44-14.63,32.33-14.63c6.3,0,9.36,3.4,9.36,9.7c0,15.14-4.76,29.78-4.76,50.88
	c0,3.74,1.19,6.3,3.91,6.3c4.42,0,8.68-7.32,8.68-31.65v-7.49c0-5.44-1.19-10.04-2.38-12.25c9.53-8.51,21.78-16.33,33.18-16.33
	c5.79,0,8,3.23,8,9.53c0,10.55-2.21,20.25-3.74,33.18c-1.7,15.31-1.7,23.31,2.89,23.31c4.08,0,5.96-5.1,9.7-24.84L1187.09,516.92z
	 M1280.16,516.92c-5.1,41.35-16.84,60.91-34.03,60.91c-9.02,0-20.25-4.59-20.25-22.12c0-14.46,4.93-35.73,4.25-42.2
	c-0.17-3.23-1.02-5.44-3.91-5.44c-4.25,0-9.7,9.02-9.7,34.88c0,8.68,0.85,14.29,1.7,19.06c0.51,2.38,0.85,4.42,0.85,5.79
	c0,7.49-3.74,9.19-15.14,9.19c-10.55,0-26.03-0.85-25.86-8.85c0.34-6.3,3.57-22.63,3.57-37.6c0-15.99,0.51-25.35-2.89-38.45
	c6.3-9.19,19.74-16.67,27.73-16.67c6.3,0,8.51,6.98,9.7,16.84c0.51,4.25,0.51,9.02,0.51,13.95c5.79-18.89,15.65-30.8,29.78-30.8
	c9.7,0,20.25,6.3,20.25,22.12c0,14.46-4.76,29.95-4.76,39.3c0,3.57,1.36,4.59,3.4,4.59c3.74,0,5.96-5.1,9.36-24.84L1280.16,516.92z
	 M1370.17,516.92c-5.1,41.35-14.63,60.91-34.03,60.91c-11.23,0-21.44-10.04-19.4-43.22c6.3-9.19,9.7-15.14,9.7-20.93
	c0-3.4-1.19-5.61-4.59-5.61c-5.44,0-12.08,10.55-12.08,40.5c0,5.1,0.34,8.85,0.85,12.08c0.68,2.89,1.19,5.44,1.19,7.15
	c0,7.49-3.74,9.19-15.14,9.19c-10.55,0-24.84-0.85-24.84-8.85c0.34-6.13,2.89-20.93,2.89-42.88v-28.42c0-14.8-1.19-20.25-3.23-29.78
	c6.81-9.02,20.08-16.16,28.93-16.16c4.59,0,8,3.4,8,10.89c0,18.04-0.34,28.24-0.34,52.92c4.76-23.65,15.14-39.3,32.67-39.3
	c8.17,0,18.89,4.93,18.89,18.55c0,11.57-6.13,22.29-13.78,29.78c0.51,15.48,2.55,17.7,5.96,17.7c4.25,0,9.19-4.59,12.93-24.84
	L1370.17,516.92z M1468.17,516.92c-5.44,45.43-16.33,60.91-33.69,60.91c-13.44,0-21.78-13.61-21.78-29.61
	c-8,21.95-17.53,29.61-26.37,29.61c-10.89,0-22.8-15.14-22.8-45.77c0-38.96,18.89-56.66,45.43-56.66c16.84,0,31.48,4.25,45.77,10.55
	c-0.85,9.53-3.74,17.19-6.3,25.01c-0.34,19.57,0.85,30.8,5.1,30.8c3.23,0,5.79-5.44,9.19-25.18L1468.17,516.92z M1416.96,506.89
	c-1.7-0.51-3.74-0.85-5.96-0.85c-6.64,0-9.53,7.49-9.53,18.89c0,12.59,2.04,16.33,4.59,16.33
	C1409.64,541.26,1413.73,530.2,1416.96,506.89z M1567.54,516.92c-5.1,42.03-16.84,60.91-33.18,60.91c-9.02,0-18.89-4.42-18.89-22.12
	l0.17-7.83c-6.47,20.08-16.84,29.95-27.56,29.95c-16.33,0-26.54-15.14-26.54-45.77c0-38.62,18.89-52.92,45.77-52.92
	c2.89,0,5.61,0.17,8.17,0.68c-0.51-4.42-1.19-8-2.21-12.76c6.81-9.36,20.08-16.5,28.93-16.5c4.59,0,9.87,1.19,9.87,11.74
	c0,7.15-2.21,18.55-3.91,26.88l0.34,30.63c0,15.31,0.51,21.61,4.76,21.61c3.4,0,5.44-5.1,8.85-24.84L1567.54,516.92z
	 M1515.98,509.61c-2.04-0.85-4.25-1.36-6.98-1.36c-6.64,0-9.19,6.98-9.19,17.19c0,12.08,2.89,15.82,5.79,15.82
	C1508.67,541.26,1514.45,535.3,1515.98,509.61z M1647.68,517.78c-3.91,39.47-21.61,60.06-49.85,60.06
	c-18.72,0-37.77-13.44-37.77-43.73c0-22.97,8.68-36.92,23.48-42.71c4.42-10.38,13.61-15.99,25.69-15.99
	c15.65,0,27.73,10.04,27.73,27.39c0,17.02-14.12,37.6-39.65,32.5c3.57,4.93,9.7,7.83,17.02,7.83c13.44,0,23.14-5.1,28.07-26.54
	L1647.68,517.78z M1593.74,524.24c0,0.68,0,1.53,0.17,2.21c7.32-0.68,14.46-5.27,14.46-14.97c0-3.4-1.7-5.79-4.93-5.79
	C1598.67,505.69,1593.74,514.03,1593.74,524.24z M1642.4,542.62v-42.03c0-17.7-1.53-23.99-3.23-33.52
	c6.81-9.36,20.08-16.5,28.93-16.5c4.25,0,9.19,2.89,9.19,13.95c0,9.7-0.68,15.99-3.57,32.67l0.34,23.14
	c0.34,15.14,0.51,19.74,3.23,19.74c2.21,0,4.42-4.25,8-23.48l5.44,0.51c-6.3,48.15-15.82,60.74-29.27,60.74
	C1646.65,577.84,1642.4,566.95,1642.4,542.62z M1682.89,470.3c0-11.74,17.19-22.29,30.12-22.29c7.32,0,12.76,4.25,12.76,11.74
	c0,11.74-17.19,21.95-29.44,21.95C1688.34,481.7,1682.89,478.3,1682.89,470.3z M1683.74,542.11l1.19-22.29
	c0.51-6.64,0.51-15.14-2.04-18.72c7.49-9.02,22.97-16.16,30.97-16.16c4.59,0,9.02,2.72,9.02,13.1c0,7.66-1.36,13.44-4.42,24.5
	c-0.34,4.08-0.68,7.49-0.68,9.87c0,6.13,0.85,9.36,3.4,9.36c2.89,0,6.64-5.44,10.04-25.18l5.44,0.34
	c-5.1,42.54-18.04,60.91-32.33,60.91C1689.53,577.84,1682.72,566.61,1683.74,542.11z M1803.53,548.57
	c-0.85,17.7-12.93,29.27-33.01,29.27c-26.54,0-41.69-17.19-41.69-41.86c0-26.71,10.89-42.37,28.76-46.96
	c4.93-9.36,13.95-13.61,22.97-13.61c11.23,0,22.29,7.49,22.29,21.44c0,9.7-5.96,21.44-17.36,27.39
	c-3.23-10.21-7.15-13.95-12.08-13.95c-4.59,0-8,4.59-8,13.44c0,9.19,6.64,17.53,18.89,17.53c6.81,0,12.59-3.23,17.7-10.38
	C1803.19,538.02,1803.7,541.77,1803.53,548.57z"/>
<path class="st0" d="M310.64,112.1c0,38.33-30.86,131.1-64.02,131.1c-16.67,0-25.3-17.63-26.45-42.93
	c-6.13,24.72-16.1,42.93-32.39,42.93c-18.97,0-24.53-23-24.92-41.02l-0.96-38.91c-0.19-15.14-0.19-21.27-9.01-21.27
	c-5.37,0-12.27,5.18-12.27,10.35c0,2.49,1.92,4.41,4.22,4.41c3.26,0,6.71-1.53,8.82-4.79c1.92,17.44,0.57,44.85-10.73,44.85
	c-8.43,0-18.97-18.02-18.97-44.47c0-42.17,40.63-52.52,53.47-52.52c13.22,0,21.85,6.13,23.77,19.74c1.72,11.5,1.72,23,1.92,33.35
	l0.38,19.93c0.38,15.52-0.38,29.32,5.75,29.32c3.83,0,8.05-20.51,8.05-39.48c0-13.61-1.53-26.07-4.79-36.03l-2.3-5.94
	c17.82-7.67,26.07-9.97,35.46-9.97c16.1,0,13.61,20.89,9.39,32.2l0.19,29.9c0.38,15.52-0.19,29.32,5.94,29.32
	c4.41,0,8.24-24.34,8.24-46.57c0-15.14-2.11-37.18-7.67-46.19c7.67-7.09,26.45-13.42,35.46-13.42
	C303.93,96,310.64,100.22,310.64,112.1z M403.61,175.55c-4.41,44.47-24.34,67.66-56.16,67.66c-21.08,0-42.55-15.14-42.55-49.26
	c0-25.87,9.77-41.59,26.45-48.11c4.98-11.69,15.33-18.02,28.94-18.02c17.63,0,31.24,11.31,31.24,30.86
	c0,19.17-15.91,42.36-44.66,36.61c4.02,5.56,10.92,8.82,19.17,8.82c15.14,0,26.07-5.75,31.62-29.9L403.61,175.55z M342.85,182.83
	c0,0.77,0,1.72,0.19,2.49c8.24-0.77,16.29-5.94,16.29-16.87c0-3.83-1.92-6.52-5.56-6.52C348.41,161.94,342.85,171.33,342.85,182.83z
	 M397.67,203.53v-47.34c0-19.93-1.72-27.02-3.64-37.76c7.67-10.54,22.62-18.59,32.58-18.59c4.79,0,10.35,3.26,10.35,15.72
	c0,10.92-0.77,18.02-4.02,36.8l0.38,26.07c0.38,17.06,0.57,22.23,3.64,22.23c2.49,0,4.98-4.79,9.01-26.45l6.13,0.58
	c-7.09,54.24-17.82,68.42-32.97,68.42C402.46,243.2,397.67,230.94,397.67,203.53z M538.16,174.2c-4.22,47.72-30.47,69-54.24,69
	c-24.72,0-40.63-19.36-40.63-47.15c0-30.09,12.27-47.72,32.39-52.9c5.56-10.54,15.72-15.33,25.87-15.33
	c12.65,0,25.11,8.43,25.11,24.15c0,10.92-6.71,24.15-19.55,30.86c-3.64-11.5-8.05-15.72-13.61-15.72c-5.17,0-9.01,5.17-9.01,15.14
	c0,10.35,6.13,19.74,19.93,19.74c9.77,0,23.77-6.13,27.6-27.79H538.16z M635.53,175.55c-3.45,32.77-16.67,42.55-27.6,43.51
	c-9.2,13.99-22.23,24.15-37.37,24.15c-22.42,0-40.44-15.52-40.44-49.26c0-38.72,19.93-66.12,47.92-66.12
	c20.7,0,31.82,11.31,32.97,28.17c5.75,1.92,10.16,7.09,10.16,19.93c0,7.67-1.34,15.91-4.02,23.77c4.6-2.68,9.97-9.58,12.46-25.49
	L635.53,175.55z M584.74,205.45c1.53,0,3.07-0.38,4.41-1.34c-1.34-4.22-2.11-9.2-2.11-14.37c0-12.65,2.3-20.89,5.56-26.26
	c-1.15-0.38-2.49-0.57-3.64-0.57c-8.43,0-15.14,10.92-15.14,24.92C573.82,197.4,578.03,205.45,584.74,205.45z M795.39,174.59
	c-5.75,46.57-18.97,68.62-38.33,68.62c-10.35,0-22.81-5.56-22.81-26.07c0-16.48,5.37-39.29,4.79-46.38
	c-0.38-3.64-1.34-6.13-4.6-6.13c-4.79,0-10.92,10.16-10.92,39.29v0.77c0.77,13.8,2.88,25.3,2.88,27.22
	c0,8.43-7.28,10.35-20.32,10.35c-11.88,0-25.68-2.3-25.68-11.12c0-6.9,0.57-14.95,1.92-30.47c0.96-10.35,2.3-25.11,1.92-29.9
	c-0.19-3.64-1.15-6.13-4.41-6.13c-4.79,0-10.92,10.16-10.92,39.29c0,9.77,0.96,16.1,1.92,21.47c0.58,2.68,0.96,4.98,0.96,6.52
	c0,8.43-4.22,10.35-17.06,10.35c-11.88,0-29.32-0.96-29.13-9.97c0.38-7.09,4.02-25.49,4.02-42.36c0-18.02,0.58-28.56-3.26-43.32
	c7.09-10.35,22.23-18.78,31.24-18.78c7.09,0,9.58,7.86,10.92,18.97c0.58,4.79,0.58,10.16,0.58,15.72
	c6.52-21.27,17.63-34.69,33.54-34.69c10.92,0,22.81,7.09,22.81,24.92v5.18c6.52-18.59,17.25-30.09,32.01-30.09
	c10.92,0,22.81,7.09,22.81,24.92c0,16.1-5.56,32.77-5.56,43.12c0,3.83,1.73,5.17,3.83,5.17c4.22,0,6.9-5.56,10.73-26.83
	L795.39,174.59z M874.17,210.24c-1.92,19.93-17.06,32.97-41.21,32.97c-22.42,0-46-15.14-46-49.26c0-25.87,9.77-41.59,26.45-48.11
	c4.98-11.69,15.33-18.02,28.94-18.02c17.63,0,31.24,11.31,31.24,30.86c0,19.17-15.91,42.36-44.66,36.61
	c4.02,5.56,10.92,8.82,19.17,8.82c9.58,0,17.63-4.03,25.49-13.8C874.55,198.35,874.93,202.57,874.17,210.24z M824.91,182.83
	c0,0.77,0,1.72,0.19,2.49c8.24-0.77,16.29-5.94,16.29-16.87c0-3.83-1.92-6.52-5.56-6.52C830.47,161.94,824.91,171.33,824.91,182.83z
	 M982.65,175.35c-6.9,55.77-28.56,67.85-46.96,67.85c-21.66,0-28.17-16.87-26.64-41.21l1.92-30.09c-6.32-1.34-8.82-5.18-8.82-9.01
	c0-4.22,1.34-7.28,5.17-13.42l20.32-32.58c7.47-1.53,16.1-1.92,22.23-1.92c5.37,0,6.52,1.92,6.13,6.13
	c-0.19,2.88-0.77,7.67-1.15,13.42c6.52,0,13.8-0.58,16.87-1.53c-0.38,10.93-0.96,20.32-2.3,28.75c-1.15,7.67-4.41,10.92-13.03,10.92
	h-5.17c-0.58,6.13-1.15,11.12-1.34,14.18c-1.34,14.37,3.83,16.67,8.05,16.67c8.62,0,14.57-6.13,18.78-29.32L982.65,175.35z
	 M1076.76,175.55c-0.38,35.07-9.01,43.7-23.77,43.7h-0.57c-9.01,13.8-22.04,23.96-37.18,23.96c-22.42,0-40.44-15.52-40.44-49.26
	c0-38.72,19.93-66.12,47.92-66.12c20.7,0,31.82,11.31,32.97,28.17c5.75,1.92,10.16,7.09,10.16,19.93c0,1.73,0,3.45-0.19,5.18
	C1070.25,180.53,1073.7,178.8,1076.76,175.55z M1029.42,205.45c1.72,0,3.45-0.58,4.98-1.53c-1.72-4.22-2.68-9.01-2.68-14.18
	c0-12.65,2.3-20.89,5.56-26.26c-1.15-0.38-2.49-0.57-3.64-0.57c-8.43,0-15.14,10.92-15.14,24.92
	C1018.5,197.4,1022.71,205.45,1029.42,205.45z M1279.17,174.59c-6.13,47.34-22.04,68.62-44.85,68.62
	c-17.06,0-26.83-12.07-26.83-33.16c0-3.26,0.38-7.86,0.77-13.61c-5.75,0.19-11.5,0.57-17.06,1.34v2.49
	c0.96,19.93,2.11,30.28,5.37,37.95c-13.42,2.68-25.11,4.03-35.46,4.03c-11.5,0-14.76-4.03-14.38-12.27
	c0.19-7.67,0.77-15.52,1.15-23.77c-9.2,2.68-17.63,5.75-25.11,9.2c-2.88-5.75-4.03-13.42-4.41-20.32c0-2.88,0.57-12.27,12.27-13.42
	c6.13-0.77,12.46-1.15,18.78-1.53c0.96-14.18,1.53-29.32,1.92-45.42c-13.99-1.53-28.56,2.49-28.56,7.67c0,4.79,14.18,4.41,20.7,3.45
	c0,14.95-8.05,31.24-19.93,31.24c-9.77,0-17.44-19.55-17.44-36.99c0-31.62,55.01-40.63,69.96-40.63c14.37,0,21.47,7.47,19.55,23.19
	c-2.68,20.7-4.79,33.73-4.79,57.5c6.32,0.38,12.65,0.96,18.78,1.73c1.34-14.37,2.68-31.62,2.68-48.3c0-8.62,0-15.14-1.53-23.77
	c10.35-5.37,27.41-9.97,37.76-9.97c9.01,0,13.03,5.56,12.84,15.14c-0.38,9.01-3.83,14.57-6.9,20.89
	c-1.15,20.32-2.49,36.8-2.49,50.02c0,9.2,2.3,12.84,6.13,12.84c5.56,0,11.5-3.83,14.95-24.53L1279.17,174.59z M1270.35,122.07
	c0-13.22,19.36-25.11,33.92-25.11c8.24,0,14.37,4.79,14.37,13.22c0,13.22-19.36,24.72-33.16,24.72
	C1276.49,134.91,1270.35,131.08,1270.35,122.07z M1271.31,202.95l1.34-25.11c0.58-7.47,0.58-17.06-2.3-21.08
	c8.43-10.16,25.87-18.21,34.88-18.21c5.17,0,10.16,3.07,10.16,14.76c0,8.62-1.53,15.14-4.98,27.6c-0.38,4.6-0.77,8.43-0.77,11.12
	c0,6.9,0.96,10.54,3.83,10.54c3.26,0,7.47-6.13,11.31-28.37l6.13,0.38c-5.75,47.92-20.32,68.62-36.42,68.62
	C1277.83,243.2,1270.16,230.55,1271.31,202.95z M1396.47,175.35c-6.52,55.77-28.56,67.85-46.96,67.85
	c-21.66,0-28.17-16.87-26.64-41.21l1.92-30.28c-4.98-1.34-6.9-5.18-6.9-8.82c0-4.22,1.72-8.24,5.18-14.37l18.4-31.62
	c7.47-1.53,16.1-1.92,22.23-1.92c5.37,0,6.52,1.92,6.13,6.13c-0.19,2.88-0.77,7.67-1.15,13.42c6.52,0,13.8-0.58,16.87-1.53
	c-0.38,10.93-0.96,20.32-2.3,28.75c-1.15,7.67-4.41,10.92-13.03,10.92h-5.17c-0.58,6.13-1.15,11.12-1.34,14.18
	c-1.34,14.37,3.83,16.67,8.05,16.67c8.62,0,14.57-6.13,18.78-29.32L1396.47,175.35z M1387.66,200.65c0-9.39,1.92-20.7,2.88-26.45
	c0.57-5.17,6.71-4.41,6.13,0.38c-0.77,13.42,7.67,28.56,20.12,28.56c4.22,0,8.05-2.49,8.05-7.67c0-11.31-21.08-14.76-21.08-33.73
	c0-18.02,17.06-33.92,35.27-33.92c9.39,0,22.23,2.3,22.23,15.52c0,6.13-1.92,13.8-5.75,23.19c-6.71-2.88-11.88-3.83-15.72-3.83
	c-7.47,0-10.73,1.92-10.73,4.41c0,3.83,6.52,6.71,16.48,12.84c16.67,9.97,20.89,17.06,20.89,28.17c0,20.51-17.06,35.07-40.82,35.07
	C1401.46,243.2,1387.66,230.17,1387.66,200.65z M1570.32,174.59c-2.11,22.23-11.69,28.37-23.38,28.37h-1.15
	c-13.99,25.87-38.14,44.85-65.17,39.48l-9.58-74.56c-0.96-7.09-2.3-13.61-3.83-18.4c13.22-10.92,29.52-21.66,38.91-21.66
	c13.61,0,8.62,14.76,8.62,55.39c0,6.52,0,11.88,0.19,16.87c1.92,0.96,3.83,1.53,5.75,1.53c5.94,0,10.73-1.53,14.76-4.79
	c-6.13-6.32-11.69-18.02-11.69-36.42c0-15.52,6.9-29.32,19.17-29.32c10.54,0,16.1,7.09,16.1,22.81c0,9.97-1.92,20.32-5.18,30.28
	c4.6-0.38,8.43-2.88,10.35-9.97L1570.32,174.59z M1561.51,122.07c0-13.22,19.36-25.11,33.92-25.11c8.24,0,14.37,4.79,14.37,13.22
	c0,13.22-19.36,24.72-33.16,24.72C1567.64,134.91,1561.51,131.08,1561.51,122.07z M1562.47,202.95l1.34-25.11
	c0.58-7.47,0.58-17.06-2.3-21.08c8.43-10.16,25.87-18.21,34.88-18.21c5.17,0,10.16,3.07,10.16,14.76c0,8.62-1.53,15.14-4.98,27.6
	c-0.38,4.6-0.77,8.43-0.77,11.12c0,6.9,0.96,10.54,3.83,10.54c3.26,0,7.47-6.13,11.31-28.37l6.13,0.38
	c-5.75,47.92-20.32,68.62-36.42,68.62C1568.98,243.2,1561.32,230.55,1562.47,202.95z M1615.94,203.53v-47.34
	c0-19.93-1.73-27.02-3.64-37.76c7.67-10.54,22.62-18.59,32.58-18.59c4.79,0,10.35,3.26,10.35,15.72c0,10.92-0.77,18.02-4.02,36.8
	l0.38,26.07c0.38,17.06,0.57,22.23,3.64,22.23c2.49,0,4.98-4.79,9.01-26.45l6.13,0.58c-7.09,54.24-17.82,68.42-32.97,68.42
	C1620.73,243.2,1615.94,230.94,1615.94,203.53z M1664.24,203.53v-47.34c0-19.93-1.73-27.02-3.64-37.76
	c7.67-10.54,22.62-18.59,32.58-18.59c4.79,0,10.35,3.26,10.35,15.72c0,10.92-0.77,18.02-4.02,36.8l0.38,26.07
	c0.38,17.06,0.57,22.23,3.64,22.23c2.49,0,4.98-4.79,9.01-26.45l6.13,0.58c-7.09,54.24-17.82,68.42-32.97,68.42
	C1669.04,243.2,1664.24,230.94,1664.24,203.53z M1797.45,210.24c-1.92,19.93-17.06,32.97-41.21,32.97c-22.42,0-46-15.14-46-49.26
	c0-25.87,9.78-41.59,26.45-48.11c4.98-11.69,15.33-18.02,28.94-18.02c17.63,0,31.24,11.31,31.24,30.86
	c0,19.17-15.91,42.36-44.66,36.61c4.03,5.56,10.93,8.82,19.17,8.82c9.58,0,17.63-4.03,25.49-13.8
	C1797.84,198.35,1798.22,202.57,1797.45,210.24z M1748.2,182.83c0,0.77,0,1.72,0.19,2.49c8.24-0.77,16.29-5.94,16.29-16.87
	c0-3.83-1.92-6.52-5.56-6.52C1753.75,161.94,1748.2,171.33,1748.2,182.83z"/>
<path class="st0" d="M202.99,1007.67c10.04,5.98,17.95,16.21,17.95,28.76c0,28.95-28.56,36.48-49.41,36.48
	c-15.83,0-44.77-9.07-44.77-23.16c0-10.61,1.74-27.21,5.98-45.35c8.3,20.07,25.48,27.98,38.21,27.98c3.86,0,6.75-1.93,6.75-4.25
	c0-2.7-2.32-4.25-9.46-8.11l-8.68-4.82c-23.35-12.93-32.42-28.37-32.42-40.91c0-12.93,6.37-24.32,22.19-28.37
	c7.33-10.81,20.65-17.37,35.9-17.37c16.21,0,33.97,8.49,33.97,30.11c0,19.11-17.37,31.46-29.14,36.09
	c1.54-10.81-4.82-24.32-16.6-24.32c-4.44,0-7.33,2.12-7.33,7.14c0,2.89,2.89,9.84,12.93,15.83L202.99,1007.67z M229.63,1032.95
	v-47.67c0-20.07-1.74-27.21-3.67-38.02c7.72-10.61,22.77-18.72,32.81-18.72c4.82,0,10.42,3.28,10.42,15.83
	c0,11-0.77,18.14-4.05,37.05l0.39,26.25c0.39,17.18,0.58,22.39,3.67,22.39c2.51,0,5.02-4.82,9.07-26.63l6.18,0.58
	c-7.14,54.62-17.95,68.9-33.19,68.9C234.45,1072.9,229.63,1060.55,229.63,1032.95z M395.6,1003.81
	c-6.18,51.53-18.53,69.09-38.21,69.09c-15.25,0-24.7-15.44-24.7-33.58c-9.07,24.9-19.88,33.58-29.91,33.58
	c-12.35,0-25.86-17.18-25.86-51.92c0-44.2,21.42-64.27,51.53-64.27c19.11,0,35.7,4.82,51.92,11.97
	c-0.96,10.81-4.25,19.49-7.14,28.37c-0.39,22.19,0.96,34.93,5.79,34.93c3.67,0,6.56-6.18,10.42-28.56L395.6,1003.81z M337.51,992.42
	c-1.93-0.58-4.25-0.96-6.75-0.96c-7.53,0-10.81,8.49-10.81,21.42c0,14.28,2.32,18.53,5.21,18.53
	C329.21,1031.41,333.84,1018.86,337.51,992.42z M478.59,1032.95c-9.07,26.05-27.79,39.95-50.95,39.95h-0.19
	c0.58,11.39,4.44,20.07,4.44,23.55c0,8.49-4.25,10.42-17.18,10.42c-11.97,0-29.53-0.96-29.33-10.04c0.19-6.37,1.35-16.79,2.32-30.11
	v-0.19c0.96-11.58,1.74-25.48,1.74-40.72c0-20.65,0.19-33-3.28-50.18c6.37-10.42,20.46-18.91,28.56-18.91
	c6.95,0,9.46,7.33,10.81,17.95c4.82-11.39,14.47-17.95,27.41-17.95c13.7,0,32.04,11.77,31.46,41.49c3.28-2.12,6.37-4.63,9.46-7.33
	C493.26,1013.84,489.01,1026.77,478.59,1032.95z M437.49,1031.79c-3.67-2.7-6.56-6.37-8.88-10.42c0,5.79-0.39,11.39-0.58,17.18
	C431.31,1037.58,434.59,1035.27,437.49,1031.79z M433.43,993.77c0,7.72,4.82,13.51,13.12,15.05c0.19-1.74,0.19-3.28,0.19-5.02
	c0-11.97-4.63-16.6-8.11-16.6S433.43,989.91,433.43,993.77z M654.41,1032.37c0,18.33-12.74,40.53-58.48,40.53
	c-17.18,0-38.41-4.05-52.11-8.88c6.18-21.62,10.42-46.7,10.42-66.39c0-10.04,0-16.4-0.39-21.23c-6.37,7.72-8.68,17.37-8.68,26.44
	c0,7.33,0,13.32,2.89,21.04c-18.53-5.21-28.56-19.11-28.56-39.56c0-27.21,26.83-55.78,73.34-55.78c28.56,0,51.72,11.77,51.72,33.39
	c0,14.09-5.98,25.09-19.3,34.16C642.83,1003.23,654.41,1015.58,654.41,1032.37z M616.2,1027.35c0-7.91-11-13.51-25.09-15.63
	c-0.19,4.44-0.19,9.07-0.19,13.7v11.77c2.89,1.16,6.56,2.32,11,2.32C612.15,1039.51,616.2,1032.95,616.2,1027.35z M591.88,961.93
	c0,12.16-0.39,23.74-0.58,35.51c12.35-5.4,17.76-12.35,17.76-21.62C609.06,968.49,604.04,961.93,591.88,961.93z M777.93,1003.81
	c-6.18,51.53-18.53,69.09-38.21,69.09c-15.25,0-24.7-15.44-24.7-33.58c-9.07,24.9-19.88,33.58-29.91,33.58
	c-12.35,0-25.86-17.18-25.86-51.92c0-44.2,21.42-64.27,51.53-64.27c19.11,0,35.7,4.82,51.92,11.97
	c-0.96,10.81-4.25,19.49-7.14,28.37c-0.39,22.19,0.96,34.93,5.79,34.93c3.67,0,6.56-6.18,10.42-28.56L777.93,1003.81z
	 M719.84,992.42c-1.93-0.58-4.25-0.96-6.75-0.96c-7.53,0-10.81,8.49-10.81,21.42c0,14.28,2.32,18.53,5.21,18.53
	C711.55,1031.41,716.18,1018.86,719.84,992.42z M861.31,1004.77c-6.37,47.86-27.6,68.13-54.23,68.13
	c-24.32,0-38.21-13.12-38.21-42.84c0-9.46,1.54-20.84,2.89-26.63c0.96-5.21,6.75-4.44,6.18,0.39c-0.77,13.51,6.75,28.76,17.76,28.76
	c4.25,0,9.07-2.51,9.07-7.72c0-11.39-19.69-14.86-19.69-33.97c0-18.14,17.76-34.16,36.28-34.16c9.26,0,21.62,2.32,21.62,15.63
	c0,6.18-1.93,13.9-5.79,23.35c-6.75-2.89-11.97-3.86-15.83-3.86c-7.53,0-10.42,1.54-10.42,4.82c0,2.89,2.89,5.21,13.32,11
	c10.42,5.6,15.25,11.77,16.02,19.69c8.11-4.82,13.12-12.93,14.86-23.93L861.31,1004.77z M852.25,1030.05
	c0-9.46,1.93-20.84,2.89-26.63c0.58-5.21,6.75-4.44,6.18,0.39c-0.77,13.51,7.72,28.76,20.26,28.76c4.25,0,8.11-2.51,8.11-7.72
	c0-11.39-21.23-14.86-21.23-33.97c0-18.14,17.18-34.16,35.51-34.16c9.46,0,22.39,2.32,22.39,15.63c0,6.18-1.93,13.9-5.79,23.35
	c-6.75-2.89-11.97-3.86-15.83-3.86c-7.53,0-10.81,1.93-10.81,4.44c0,3.86,6.56,6.75,16.6,12.93c16.79,10.04,21.04,17.18,21.04,28.37
	c0,20.65-17.18,35.32-41.11,35.32C866.14,1072.9,852.25,1059.78,852.25,1030.05z M1079.79,1019.25c-2.7-0.77-7.33-1.54-13.12-1.93
	v18.53c0,32.62-11.39,36.09-31.07,36.09c-6.95,0-23.55-1.74-38.98-5.79c16.02-13.9,27.79-28.95,33.39-49.99
	c-7.33,0.19-15.25,0.39-22.97,0.96c-3.47,10.81-9.07,18.33-16.98,18.33c-14.67,0-19.88-20.07-19.88-35.32
	c0-40.14,35.9-71.6,69.86-71.6c20.07,0,32.42,10.61,29.91,39.56l-1.35,15.44c4.44-1.35,7.91-2.32,10.23-2.51
	C1087.9,980.46,1090.21,989.91,1079.79,1019.25z M1033.66,992.23c0.19-2.32,0.19-4.82,0.19-7.14c0-8.88-2.7-13.7-14.09-13.7
	c-10.23,0-28.18,6.75-28.18,13.12c0,5.79,11,4.63,19.49,0.77v7.14C1018.22,993.58,1025.94,993.19,1033.66,992.23z M1202.73,1003.81
	c-5.79,47.67-20.07,69.09-38.79,69.09c-10.42,0-21.42-5.02-21.42-25.09c0.19-1.93,0.19-3.86,0.19-5.98
	c-5.79,19.3-15.83,31.07-31.46,31.07c-11.19,0-24.51-6.56-24.51-27.21c0-16.98,4.25-32.42,4.25-46.7c0-9.46-2.89-21.42-4.63-24.7
	c10.42-9.07,24.32-16.6,36.67-16.6c7.14,0,10.61,3.86,10.61,11c0,17.18-5.4,33.77-5.4,57.7c0,4.25,1.35,7.14,4.44,7.14
	c5.02,0,9.84-8.3,9.84-35.9v-8.49c0-6.18-1.35-11.39-2.7-13.9c10.81-9.65,24.7-18.53,37.63-18.53c6.56,0,9.07,3.67,9.07,10.81
	c0,11.97-2.51,22.97-4.25,37.63c-1.93,17.37-1.93,26.44,3.28,26.44c4.63,0,6.75-5.79,11-28.18L1202.73,1003.81z M1308.3,1003.81
	c-5.79,46.9-19.11,69.09-38.6,69.09c-10.23,0-22.97-5.21-22.97-25.09c0-16.4,5.6-40.53,4.82-47.86c-0.19-3.67-1.16-6.18-4.44-6.18
	c-4.82,0-11,10.23-11,39.56c0,9.84,0.96,16.21,1.93,21.62c0.58,2.7,0.96,5.02,0.96,6.56c0,8.49-4.25,10.42-17.18,10.42
	c-11.97,0-29.53-0.96-29.33-10.04c0.39-7.14,4.05-25.67,4.05-42.65c0-18.14,0.58-28.76-3.28-43.62
	c7.14-10.42,22.39-18.91,31.46-18.91c7.14,0,9.65,7.91,11,19.11c0.58,4.82,0.58,10.23,0.58,15.83
	c6.56-21.42,17.76-34.93,33.77-34.93c11,0,22.97,7.14,22.97,25.09c0,16.4-5.4,33.97-5.4,44.58c0,4.05,1.54,5.21,3.86,5.21
	c4.25,0,6.75-5.79,10.61-28.18L1308.3,1003.81z M1402.87,1028.12c-3.47,31.65-12.54,44.77-31.07,44.77
	c-12.74,0-24.32-11.39-22-49.02c7.14-10.42,11-17.18,11-23.74c0-3.86-1.35-6.37-5.21-6.37c-6.18,0-13.7,11.97-13.7,45.93
	c0,5.79,0.39,10.04,0.96,13.7c0.77,3.28,1.35,6.18,1.35,8.11c0,8.49-4.25,10.42-17.18,10.42c-11.97,0-28.18-0.96-28.18-10.04
	c0.39-6.95,3.28-23.74,3.28-48.63v-32.23c0-16.79-1.35-22.97-3.67-33.77c7.72-10.23,22.77-18.33,32.81-18.33
	c5.21,0,9.07,3.86,9.07,12.35c0,20.46-0.39,32.04-0.39,60.02c5.4-26.83,17.18-44.58,37.05-44.58c9.26,0,21.42,5.6,21.42,21.04
	c0,12.74-6.56,24.7-14.86,33c1.35,16.98,5.02,20.26,10.81,20.26C1397.47,1031.02,1399.97,1030.44,1402.87,1028.12z M1548.78,1003.81
	c-5.79,47.28-19.49,69.09-37.25,69.09c-10.81,0-19.3-8.11-25.67-24.32c-5.02,14.09-14.47,24.32-26.25,24.32
	c-18.72,0-28.95-17.95-20.07-45.16l27.98-2.32c-2.7-19.11-24.12-31.46-24.12-52.49c0-13.32,7.72-23.74,23.93-27.21
	c6.56-10.61,18.53-17.18,33.39-17.18c16.21,0,33.39,10.61,33.39,32.81c0,22.58-14.86,37.83-27.41,43.42
	c4.82-14.86-0.39-34.16-9.84-34.16c-3.28,0-7.33,2.12-7.33,9.84c0,10.42,5.98,21.42,5.98,30.69c0,4.05-0.19,7.72-0.77,11
	c8.11,5.02,16.02,6.95,23.93,6.95c7.72,0,19.69-6.18,23.93-25.67L1548.78,1003.81z M1539.9,950.93c0-13.32,19.49-25.28,34.16-25.28
	c8.3,0,14.47,4.82,14.47,13.32c0,13.32-19.49,24.9-33.39,24.9C1546.08,963.86,1539.9,960,1539.9,950.93z M1540.87,1032.37
	l1.35-25.28c0.58-7.53,0.58-17.18-2.32-21.23c8.49-10.23,26.05-18.33,35.12-18.33c5.21,0,10.23,3.09,10.23,14.86
	c0,8.68-1.54,15.25-5.02,27.79c-0.39,4.63-0.77,8.49-0.77,11.19c0,6.95,0.96,10.61,3.86,10.61c3.28,0,7.53-6.18,11.39-28.56
	l6.18,0.39c-5.79,48.25-20.46,69.09-36.67,69.09C1547.43,1072.9,1539.71,1060.16,1540.87,1032.37z M1706.46,1003.81
	c-5.79,46.9-19.11,69.09-38.6,69.09c-10.23,0-22.97-5.21-22.97-25.09c0-16.4,5.6-40.53,4.82-47.86c-0.19-3.67-1.16-6.18-4.44-6.18
	c-4.82,0-11,10.23-11,39.56c0,9.84,0.96,16.21,1.93,21.62c0.58,2.7,0.96,5.02,0.96,6.56c0,8.49-4.25,10.42-17.18,10.42
	c-11.97,0-29.53-0.96-29.33-10.04c0.39-7.14,4.05-25.67,4.05-42.65c0-18.14,0.58-28.76-3.28-43.62
	c7.14-10.42,22.39-18.91,31.46-18.91c7.14,0,9.65,7.91,11,19.11c0.58,4.82,0.58,10.23,0.58,15.83
	c6.56-21.42,17.76-34.93,33.77-34.93c11,0,22.97,7.14,22.97,25.09c0,16.4-5.4,33.97-5.4,44.58c0,4.05,1.54,5.21,3.86,5.21
	c4.25,0,6.75-5.79,10.61-28.18L1706.46,1003.81z M1785.78,1039.7c-1.93,20.07-17.18,33.19-41.49,33.19
	c-22.58,0-46.32-15.25-46.32-49.6c0-26.05,9.84-41.88,26.63-48.44c5.02-11.77,15.44-18.14,29.14-18.14
	c17.76,0,31.46,11.39,31.46,31.07c0,19.3-16.02,42.65-44.97,36.86c4.05,5.6,11,8.88,19.3,8.88c9.65,0,17.76-4.05,25.67-13.9
	C1786.17,1027.74,1786.55,1031.98,1785.78,1039.7z M1736.18,1012.11c0,0.77,0,1.74,0.19,2.51c8.3-0.77,16.4-5.98,16.4-16.98
	c0-3.86-1.93-6.56-5.6-6.56C1741.78,991.07,1736.18,1000.53,1736.18,1012.11z"/>
</svg>
