<svg xmlns="http://www.w3.org/2000/svg" xmlns:xlink="http://www.w3.org/1999/xlink" viewBox="0 0 1920 1200"><defs><clipPath id="a"><rect width="1920" height="1200" style="fill:none"/></clipPath></defs><title>ts_barna 1</title><rect width="1920" height="1200" style="fill:#e5352d"/><path d="M133.39,293.87c14.6,0,26.12,9.53,26.12,39.34,0,29.2-10.45,39.34-28.27,39.34A61.57,61.57,0,0,1,111.88,369v-105h10v32A29.11,29.11,0,0,1,133.39,293.87Zm-.92,8.61a23.72,23.72,0,0,0-10.6,2.46V362.1a27.84,27.84,0,0,0,9.37,1.85c12,0,18.44-9.53,18.44-30.74C149.68,314.62,144.76,302.48,132.47,302.48Z" style="fill:#fff"/><path d="M196.24,326.3h7.22V315.69c0-8.3-2.77-13.21-10.6-13.21a32.53,32.53,0,0,0-15.52,4.45l-3.08-7.53a35.62,35.62,0,0,1,18.9-5.53c14.14,0,20.13,8.61,20.13,23.36v54.4h-7.83l-1.39-6c-3.84,3.38-8.91,6.91-16.75,6.91-12,0-17.82-10.3-17.82-22.13S176.72,326.3,196.24,326.3Zm7.22,31.19v-22.9h-7.68c-10.61,0-16.45,6.92-16.45,15.68,0,8.14,4.77,13.83,10.3,13.83A18.49,18.49,0,0,0,203.46,357.49Z" style="fill:#fff"/><path d="M241.88,372.55c-10.45,0-18.14-6.76-18.29-6.91l4.61-7.38s6,5.53,13.22,5.53c8.14,0,10.91-6.61,10.91-12.14,0-4.76-2.92-9.22-11.38-15.21-11.52-8.15-15.67-14.75-15.67-22.75,0-12,7.68-19.82,19.21-19.82a27.37,27.37,0,0,1,16.13,5.69l-4,7.37s-5.69-4.3-11.83-4.3c-5.08,0-9.69,3.07-9.69,11.06,0,6,4.77,10.61,11.38,15.22,10.91,7.68,15.67,14,15.67,22.43C262.16,362.87,254.17,372.55,241.88,372.55Z" style="fill:#fff"/><path d="M297,363.79A25.06,25.06,0,0,0,311.33,359l3.54,7.84a32.8,32.8,0,0,1-18.29,5.68c-14.6,0-25.2-8.3-25.2-39.34,0-30.12,9.52-39.34,23.66-39.34,17.67,0,22.44,15.21,22.44,41.65H281.37C281.52,352.42,285.05,363.79,297,363.79Zm-15.67-36.42h26.27c-.3-18-3.84-24.89-12.75-24.89C285.36,302.48,281.83,312.31,281.37,327.37Z" style="fill:#fff"/><path d="M375.87,264.06V371.63H368l-1.53-6.76c-.93,1.38-6.46,7.68-14.29,7.68-14.45,0-24-9.83-24-39.34s11.68-39.34,26.43-39.34A29.81,29.81,0,0,1,366,296v-32Zm-9.83,41a28.28,28.28,0,0,0-10.61-2.61c-10.14,0-17.36,7.53-17.36,30.73,0,18.29,4.15,30.74,15.83,30.74,6.14,0,10.14-4.77,12.14-9.22Z" style="fill:#fff"/><path d="M416.59,333.06c0-30,9.22-39.19,24.74-39.19,15.67,0,24.89,9.22,24.89,39.19s-9.22,39.49-24.89,39.49C425.81,372.55,416.59,363,416.59,333.06Zm39.8,0c0-18.44-2.77-30.43-15.06-30.43-12,0-14.91,12-14.91,30.43s2.92,30.73,14.91,30.73C453.62,363.79,456.39,351.5,456.39,333.06Z" style="fill:#fff"/><path d="M505.56,302.32c-7.68,0-14.45,6.61-16.29,9.07v60.24h-10V294.79h7.38l2.3,7.84c4.61-4.46,11.83-8.76,19.06-8.76,14,0,17.82,9.38,17.82,25.05v52.71H516v-53C516,306.32,512.63,302.32,505.56,302.32Z" style="fill:#fff"/><path d="M593.45,302.32c-7.37,0-13.37,6.76-15.06,9.07v60.24h-10V294.79h7.38l2.31,7.84c4.14-4.46,10.45-8.76,17.82-8.76,8.76,0,13.52,3.84,15.83,10.6,4.76-5.68,11.68-10.6,19.67-10.6,14,0,17.67,9.38,17.67,25.05v52.71h-9.83v-53c0-12.29-3.23-16.29-10.61-16.29-6.14,0-12.29,6.15-15.21,9.53.15,1.69.31,4.3.31,7.38v52.4H603.9V317.84C603.9,306.93,600.68,302.32,593.45,302.32Z" style="fill:#fff"/><path d="M687.34,363.79A25.06,25.06,0,0,0,701.63,359l3.54,7.84a32.77,32.77,0,0,1-18.29,5.68c-14.6,0-25.2-8.3-25.2-39.34,0-30.12,9.53-39.34,23.66-39.34,17.68,0,22.44,15.21,22.44,41.65H671.67C671.82,352.42,675.35,363.79,687.34,363.79Zm-15.67-36.42h26.27c-.3-18-3.84-24.89-12.75-24.89C675.66,302.48,672.13,312.31,671.67,327.37Z" style="fill:#fff"/><path d="M766.17,264.06V371.63h-7.84l-1.53-6.76c-.92,1.38-6.46,7.68-14.29,7.68-14.45,0-24-9.83-24-39.34s11.68-39.34,26.43-39.34A29.75,29.75,0,0,1,756.34,296v-32Zm-9.83,41a28.28,28.28,0,0,0-10.61-2.61c-10.14,0-17.36,7.53-17.36,30.73,0,18.29,4.15,30.74,15.83,30.74,6.14,0,10.14-4.77,12.14-9.22Z" style="fill:#fff"/><path d="M786.76,266.21a7.07,7.07,0,1,1,0,14.14,7.07,7.07,0,1,1,0-14.14Zm4.92,28.58v76.84h-9.84V294.79Z" style="fill:#fff"/><path d="M833.78,294.79v8.61H819.64v39.49c0,14.91,2.92,20.9,9.84,20.9a28.89,28.89,0,0,0,5.84-1.07l2.15,8.29a26.77,26.77,0,0,1-8.3,1.54c-12.91,0-19.36-9.07-19.36-27.81V303.4h-7.38v-8.61h7.38v-20h9.83v20Z" style="fill:#fff"/><path d="M867.74,363.79A25.06,25.06,0,0,0,882,359l3.54,7.84a32.77,32.77,0,0,1-18.29,5.68c-14.6,0-25.2-8.3-25.2-39.34,0-30.12,9.52-39.34,23.66-39.34,17.68,0,22.44,15.21,22.44,41.65H852.07C852.22,352.42,855.75,363.79,867.74,363.79Zm-15.67-36.42h26.27c-.3-18-3.84-24.89-12.75-24.89C856.06,302.48,852.53,312.31,852.07,327.37Z" style="fill:#fff"/><path d="M923.83,302.94a12.64,12.64,0,0,0-12.6,10.75v57.94h-10V294.79h7.37l2.31,7.53c3.07-5.38,8.3-8.45,15.06-8.45a21,21,0,0,1,4.15.46l-1.85,9.07A24.12,24.12,0,0,0,923.83,302.94Z" style="fill:#fff"/><path d="M960.4,302.94a12.65,12.65,0,0,0-12.6,10.75v57.94h-10V294.79h7.37l2.31,7.53c3.07-5.38,8.3-8.45,15.06-8.45a21,21,0,0,1,4.15.46l-1.85,9.07A24.12,24.12,0,0,0,960.4,302.94Z" style="fill:#fff"/><path d="M995.89,326.3h7.23V315.69c0-8.3-2.77-13.21-10.61-13.21A32.58,32.58,0,0,0,977,306.93l-3.07-7.53a35.62,35.62,0,0,1,18.9-5.53c14.14,0,20.13,8.61,20.13,23.36v54.4h-7.84l-1.38-6c-3.84,3.38-8.91,6.91-16.75,6.91-12,0-17.82-10.3-17.82-22.13S976.38,326.3,995.89,326.3Zm7.23,31.19v-22.9h-7.69c-10.6,0-16.44,6.92-16.44,15.68,0,8.14,4.76,13.83,10.3,13.83A18.51,18.51,0,0,0,1003.12,357.49Z" style="fill:#fff"/><path d="M1054.13,302.32c-7.68,0-14.44,6.61-16.29,9.07v60.24h-10V294.79h7.38l2.31,7.84c4.61-4.46,11.83-8.76,19-8.76,14,0,17.83,9.38,17.83,25.05v52.71h-9.84v-53C1064.58,306.32,1061.2,302.32,1054.13,302.32Z" style="fill:#fff"/><path d="M1112.68,363.79A25.06,25.06,0,0,0,1127,359l3.53,7.84a32.72,32.72,0,0,1-18.28,5.68c-14.6,0-25.2-8.3-25.2-39.34,0-30.12,9.52-39.34,23.66-39.34,17.67,0,22.44,15.21,22.44,41.65H1097C1097.16,352.42,1100.69,363.79,1112.68,363.79ZM1097,327.37h26.28c-.31-18-3.84-24.89-12.75-24.89C1101,302.48,1097.46,312.31,1097,327.37Z" style="fill:#fff"/><path d="M1168.3,326.3h7.23V315.69c0-8.3-2.77-13.21-10.61-13.21a32.58,32.58,0,0,0-15.52,4.45l-3.07-7.53a35.62,35.62,0,0,1,18.9-5.53c14.14,0,20.13,8.61,20.13,23.36v54.4h-7.84l-1.38-6c-3.84,3.38-8.91,6.91-16.75,6.91-12,0-17.82-10.3-17.82-22.13S1148.79,326.3,1168.3,326.3Zm7.23,31.19v-22.9h-7.69c-10.6,0-16.44,6.92-16.44,15.68,0,8.14,4.76,13.83,10.3,13.83A18.49,18.49,0,0,0,1175.53,357.49Z" style="fill:#fff"/><path d="M1226.54,302.32c-7.68,0-14.44,6.61-16.29,9.07v60.24h-10V294.79h7.37l2.31,7.84c4.61-4.46,11.83-8.76,19-8.76,14,0,17.83,9.38,17.83,25.05v52.71H1237v-53C1237,306.32,1233.61,302.32,1226.54,302.32Z" style="fill:#fff"/><path d="M1312,302.94a12.65,12.65,0,0,0-12.6,10.75v57.94h-10V294.79h7.37l2.31,7.53c3.07-5.38,8.3-8.45,15.06-8.45a21,21,0,0,1,4.15.46l-1.85,9.07A24.12,24.12,0,0,0,1312,302.94Z" style="fill:#fff"/><path d="M1347.47,326.3h7.23V315.69c0-8.3-2.77-13.21-10.61-13.21a32.58,32.58,0,0,0-15.52,4.45l-3.07-7.53a35.62,35.62,0,0,1,18.9-5.53c14.14,0,20.13,8.61,20.13,23.36v54.4h-7.84l-1.38-6c-3.84,3.38-8.91,6.91-16.75,6.91-12,0-17.82-10.3-17.82-22.13S1328,326.3,1347.47,326.3Zm7.23,31.19v-22.9H1347c-10.6,0-16.44,6.92-16.44,15.68,0,8.14,4.76,13.83,10.3,13.83A18.51,18.51,0,0,0,1354.7,357.49Z" style="fill:#fff"/><path d="M1405.87,294.79v8.61h-14.14v39.49c0,14.91,2.92,20.9,9.83,20.9a28.89,28.89,0,0,0,5.84-1.07l2.15,8.29a26.68,26.68,0,0,1-8.29,1.54c-12.91,0-19.37-9.07-19.37-27.81V303.4h-7.37v-8.61h7.37v-20h9.84v20Z" style="fill:#fff"/><path d="M1424,266.21a7.07,7.07,0,0,1,0,14.14,7.07,7.07,0,1,1,0-14.14Zm4.92,28.58v76.84h-9.84V294.79Z" style="fill:#fff"/><path d="M1442.28,333.06c0-30,9.22-39.19,24.74-39.19,15.68,0,24.9,9.22,24.9,39.19s-9.22,39.49-24.9,39.49C1451.5,372.55,1442.28,363,1442.28,333.06Zm39.8,0c0-18.44-2.76-30.43-15.06-30.43-12,0-14.9,12-14.9,30.43s2.92,30.73,14.9,30.73C1479.32,363.79,1482.08,351.5,1482.08,333.06Z" style="fill:#fff"/><path d="M1531.25,302.32c-7.68,0-14.44,6.61-16.29,9.07v60.24h-10V294.79h7.37l2.31,7.84c4.61-4.46,11.83-8.76,19-8.76,14,0,17.83,9.38,17.83,25.05v52.71h-9.84v-53C1541.7,306.32,1538.32,302.32,1531.25,302.32Z" style="fill:#fff"/><path d="M1590.11,326.3h7.22V315.69c0-8.3-2.77-13.21-10.6-13.21a32.53,32.53,0,0,0-15.52,4.45l-3.08-7.53a35.62,35.62,0,0,1,18.9-5.53c14.14,0,20.13,8.61,20.13,23.36v54.4h-7.83l-1.39-6c-3.84,3.38-8.91,6.91-16.75,6.91-12,0-17.82-10.3-17.82-22.13S1570.59,326.3,1590.11,326.3Zm7.22,31.19v-22.9h-7.68c-10.61,0-16.45,6.92-16.45,15.68,0,8.14,4.77,13.83,10.3,13.83A18.49,18.49,0,0,0,1597.33,357.49Z" style="fill:#fff"/><path d="M1641.12,372.55c-13.06,0-19.51-9.07-19.51-27.81V264.06h9.83v78.83c0,15.06,2.92,20.9,9.84,20.9a18.46,18.46,0,0,0,4.15-.61l1.84,8.45A24.62,24.62,0,0,1,1641.12,372.55Z" style="fill:#fff"/><path d="M1660.18,266.21a7.07,7.07,0,0,1,0,14.14,7.07,7.07,0,0,1,0-14.14Zm4.91,28.58v76.84h-9.83V294.79Z" style="fill:#fff"/><path d="M1694.44,372.55c-10.45,0-18.13-6.76-18.28-6.91l4.61-7.38s6,5.53,13.21,5.53c8.15,0,10.91-6.61,10.91-12.14,0-4.76-2.92-9.22-11.37-15.21-11.52-8.15-15.67-14.75-15.67-22.75,0-12,7.68-19.82,19.21-19.82a27.37,27.37,0,0,1,16.13,5.69l-4,7.37s-5.69-4.3-11.84-4.3c-5.07,0-9.68,3.07-9.68,11.06,0,6,4.77,10.61,11.37,15.22,10.91,7.68,15.68,14,15.68,22.43C1714.73,362.87,1706.74,372.55,1694.44,372.55Z" style="fill:#fff"/><path d="M1751.3,302.32c-7.38,0-13.37,6.76-15.06,9.07v60.24h-10V294.79h7.38l2.3,7.84c4.15-4.46,10.45-8.76,17.83-8.76,8.76,0,13.52,3.84,15.82,10.6,4.77-5.68,11.68-10.6,19.67-10.6,14,0,17.68,9.38,17.68,25.05v52.71h-9.84v-53c0-12.29-3.22-16.29-10.6-16.29-6.15,0-12.29,6.15-15.21,9.53.15,1.69.3,4.3.3,7.38v52.4h-9.83V317.84C1761.75,306.93,1758.52,302.32,1751.3,302.32Z" style="fill:#fff"/><path d="M149.45,1024.87c0,25.82-8.15,33.2-28.28,33.2h-14.9v41.18H96.13V991.68h25C141.3,991.68,149.45,998.44,149.45,1024.87Zm-43.18,23.67h14.9c13.22,0,18-3.38,18-23.67,0-18.9-4.15-23.66-18-23.66h-14.9Z" style="fill:#fff"/><path d="M167,993.83a7.07,7.07,0,1,1,0,14.14,7.07,7.07,0,0,1,0-14.14Zm4.92,28.58v76.84h-9.83v-76.84Z" style="fill:#fff"/><path d="M185.09,1031.33v-8.92h39.34v8.92l-30,58.85h29.35v9.07H183.71v-9.07L214,1031.33Z" style="fill:#fff"/><path d="M232.88,1031.33v-8.92h39.34v8.92l-30,58.85h29.35v9.07H231.5v-9.07l30.27-58.85Z" style="fill:#fff"/><path d="M306.8,1053.92H314v-10.61c0-8.3-2.77-13.21-10.6-13.21a32.59,32.59,0,0,0-15.53,4.45l-3.07-7.53a35.62,35.62,0,0,1,18.9-5.53c14.14,0,20.13,8.61,20.13,23.36v54.4H316l-1.39-6c-3.84,3.38-8.91,6.91-16.75,6.91-12,0-17.82-10.29-17.82-22.13S287.28,1053.92,306.8,1053.92Zm7.22,31.19v-22.9h-7.69c-10.6,0-16.44,6.92-16.44,15.68,0,8.14,4.77,13.83,10.3,13.83A18.49,18.49,0,0,0,314,1085.11Z" style="fill:#fff"/><path d="M390.08,1053.92h7.22v-10.61c0-8.3-2.76-13.21-10.6-13.21a32.58,32.58,0,0,0-15.52,4.45l-3.07-7.53a35.58,35.58,0,0,1,18.9-5.53c14.14,0,20.13,8.61,20.13,23.36v54.4H399.3l-1.38-6c-3.84,3.38-8.91,6.91-16.75,6.91-12,0-17.83-10.29-17.83-22.13S370.56,1053.92,390.08,1053.92Zm7.22,31.19v-22.9h-7.68c-10.6,0-16.44,6.92-16.44,15.68,0,8.14,4.76,13.83,10.29,13.83A18.49,18.49,0,0,0,397.3,1085.11Z" style="fill:#fff"/><path d="M448.32,1029.94c-7.68,0-14.44,6.61-16.29,9.07v60.24H422v-76.84h7.38l2.3,7.84c4.61-4.46,11.84-8.76,19.06-8.76,14,0,17.83,9.38,17.83,25v52.71h-9.84v-53C458.77,1033.94,455.39,1029.94,448.32,1029.94Z" style="fill:#fff"/><path d="M528.84,991.68v107.57H521l-1.53-6.76c-.93,1.38-6.46,7.68-14.29,7.68-14.45,0-24-9.83-24-39.34s11.68-39.34,26.43-39.34a29.81,29.81,0,0,1,11.38,2.15v-32Zm-9.83,41a28.28,28.28,0,0,0-10.61-2.61c-10.14,0-17.36,7.53-17.36,30.73,0,18.29,4.15,30.74,15.83,30.74,6.14,0,10.14-4.77,12.14-9.23Z" style="fill:#fff"/><path d="M571.86,1126.91v-104.5h7.38l2,6.46s5.84-7.38,14.75-7.38c13.52,0,23.51,9.68,23.51,39.34,0,31.2-13.52,39.34-27.51,39.34a45.19,45.19,0,0,1-10.14-1.54v28.28ZM594,1030.1c-6.91,0-10.91,6.14-12.14,9.06v50.56a28.54,28.54,0,0,0,10.3,1.85c11.21,0,17.52-9.38,17.52-30.74C609.67,1042.39,605.82,1030.1,594,1030.1Z" style="fill:#fff"/><path d="M656.22,1053.92h7.23v-10.61c0-8.3-2.77-13.21-10.61-13.21a32.58,32.58,0,0,0-15.52,4.45l-3.07-7.53a35.62,35.62,0,0,1,18.9-5.53c14.14,0,20.13,8.61,20.13,23.36v54.4h-7.84l-1.38-6c-3.84,3.38-8.91,6.91-16.75,6.91-12,0-17.83-10.29-17.83-22.13S636.71,1053.92,656.22,1053.92Zm7.23,31.19v-22.9h-7.69c-10.6,0-16.44,6.92-16.44,15.68,0,8.14,4.76,13.83,10.3,13.83A18.51,18.51,0,0,0,663.45,1085.11Z" style="fill:#fff"/><path d="M701.86,1100.17c-10.45,0-18.13-6.76-18.29-6.91l4.61-7.38s6,5.53,13.22,5.53c8.14,0,10.91-6.61,10.91-12.14,0-4.76-2.92-9.22-11.37-15.21-11.53-8.15-15.68-14.75-15.68-22.74,0-12,7.69-19.83,19.21-19.83a27.38,27.38,0,0,1,16.14,5.69l-4,7.37s-5.68-4.3-11.83-4.3c-5.07,0-9.68,3.07-9.68,11.07,0,6,4.76,10.6,11.37,15.21,10.91,7.68,15.68,14,15.68,22.43C722.15,1090.49,714.15,1100.17,701.86,1100.17Z" style="fill:#fff"/><path d="M760.1,1022.41V1031H746v39.49c0,14.91,2.92,20.9,9.84,20.9a28.89,28.89,0,0,0,5.84-1.07l2.15,8.29a26.77,26.77,0,0,1-8.3,1.54c-12.91,0-19.36-9.07-19.36-27.81V1031h-7.38v-8.61h7.38v-20H746v20Z" style="fill:#fff"/><path d="M794.37,1053.92h7.22v-10.61c0-8.3-2.77-13.21-10.6-13.21a32.59,32.59,0,0,0-15.53,4.45l-3.07-7.53a35.62,35.62,0,0,1,18.9-5.53c14.14,0,20.13,8.61,20.13,23.36v54.4h-7.83l-1.39-6c-3.84,3.38-8.91,6.91-16.75,6.91-12,0-17.82-10.29-17.82-22.13S774.85,1053.92,794.37,1053.92Zm7.22,31.19v-22.9H793.9c-10.6,0-16.44,6.92-16.44,15.68,0,8.14,4.77,13.83,10.3,13.83A18.49,18.49,0,0,0,801.59,1085.11Z" style="fill:#fff"/><path d="M922.52,1022.41h10l-16,76.84H903.47l-13.22-61.47-13.37,61.47H863.82l-16-76.84H858l12.76,67.31,14.6-67.31h9.83l14.6,67.31Z" style="fill:#fff"/><path d="M947,993.83a7.07,7.07,0,0,1,0,14.14,7.07,7.07,0,0,1,0-14.14Zm4.92,28.58v76.84H942v-76.84Z" style="fill:#fff"/><path d="M986.6,1100.17c-13.06,0-19.52-9.07-19.52-27.81V991.68h9.84v78.83c0,15.06,2.92,20.9,9.83,20.9a18.38,18.38,0,0,0,4.15-.61l1.85,8.45A24.76,24.76,0,0,1,986.6,1100.17Z" style="fill:#fff"/><path d="M1017.33,1100.17c-13.06,0-19.52-9.07-19.52-27.81V991.68h9.84v78.83c0,15.06,2.92,20.9,9.83,20.9a18.38,18.38,0,0,0,4.15-.61l1.85,8.45A24.69,24.69,0,0,1,1017.33,1100.17Z" style="fill:#fff"/><path d="M1083.87,1029.94c-7.38,0-13.37,6.77-15.07,9.07v60.24h-10v-76.84h7.37l2.31,7.84c4.15-4.46,10.45-8.76,17.82-8.76,8.76,0,13.53,3.84,15.83,10.6,4.77-5.68,11.68-10.6,19.67-10.6,14,0,17.67,9.38,17.67,25v52.71h-9.83v-53c0-12.29-3.23-16.29-10.6-16.29-6.15,0-12.3,6.15-15.22,9.53.16,1.69.31,4.3.31,7.38v52.4h-9.84v-53.79C1094.31,1034.55,1091.09,1029.94,1083.87,1029.94Z" style="fill:#fff"/><path d="M1178.06,1053.92h7.22v-10.61c0-8.3-2.76-13.21-10.6-13.21a32.58,32.58,0,0,0-15.52,4.45l-3.07-7.53a35.58,35.58,0,0,1,18.9-5.53c14.13,0,20.13,8.61,20.13,23.36v54.4h-7.84l-1.38-6c-3.84,3.38-8.91,6.91-16.75,6.91-12,0-17.83-10.29-17.83-22.13S1158.54,1053.92,1178.06,1053.92Zm7.22,31.19v-22.9h-7.68c-10.6,0-16.44,6.92-16.44,15.68,0,8.14,4.76,13.83,10.29,13.83A18.49,18.49,0,0,0,1185.28,1085.11Z" style="fill:#fff"/><path d="M1210,1099.25V991.68h10v67.92l21.21-37.19h10.45l-20,33.81,23.82,43h-10.76L1226,1065l-6,10.6v23.67Z" style="fill:#fff"/><path d="M1283.63,1091.41a25.06,25.06,0,0,0,14.29-4.76l3.53,7.84a32.72,32.72,0,0,1-18.28,5.68c-14.6,0-25.21-8.3-25.21-39.34,0-30.12,9.53-39.34,23.67-39.34,17.67,0,22.44,15.22,22.44,41.65H1268C1268.11,1080,1271.64,1091.41,1283.63,1091.41ZM1268,1055h26.28c-.31-18-3.84-24.89-12.75-24.89C1272,1030.1,1268.41,1039.93,1268,1055Z" style="fill:#fff"/><path d="M1357.08,1099.25l-19.21-76.84h10.3l15.36,66.85,15.06-66.85h10.3l-22,87.75c-2.46,9.53-7.53,17.67-17.52,17.67a25.42,25.42,0,0,1-9.22-1.69l2.31-8a16,16,0,0,0,6,1.08c6.61,0,8.61-6.61,10.45-14l1.54-6Z" style="fill:#fff"/><path d="M1395,1060.68c0-30,9.22-39.19,24.74-39.19,15.68,0,24.9,9.22,24.9,39.19s-9.22,39.49-24.9,39.49C1404.25,1100.17,1395,1090.64,1395,1060.68Zm39.8,0c0-18.44-2.76-30.43-15.06-30.43-12,0-14.9,12-14.9,30.43s2.92,30.73,14.9,30.73C1432.07,1091.41,1434.83,1079.12,1434.83,1060.68Z" style="fill:#fff"/><path d="M1478,1091.72c7.38,0,13.68-5.84,16-8.45v-60.86h9.84v76.84h-8l-1.54-8c-4.61,4.45-11.83,8.91-19.06,8.91-13.83,0-18-9.53-18-25.05v-52.71h9.84v53C1467.1,1087.72,1470.63,1091.72,1478,1091.72Z" style="fill:#fff"/><path d="M1573.28,1029.94c-7.22,0-14.14,6.15-16.44,9.22v60.09h-10V991.68h10v38.42c4.15-4.15,11.22-8.61,18.59-8.61,14,0,18,9.38,18,25v52.71h-9.83v-53C1583.58,1033.94,1580.2,1029.94,1573.28,1029.94Z" style="fill:#fff"/><path d="M1632,1053.92h7.22v-10.61c0-8.3-2.76-13.21-10.6-13.21a32.58,32.58,0,0,0-15.52,4.45L1610,1027a35.64,35.64,0,0,1,18.91-5.53c14.13,0,20.13,8.61,20.13,23.36v54.4h-7.84l-1.38-6c-3.85,3.38-8.92,6.91-16.75,6.91-12,0-17.83-10.29-17.83-22.13S1612.46,1053.92,1632,1053.92Zm7.22,31.19v-22.9h-7.68c-10.61,0-16.44,6.92-16.44,15.68,0,8.14,4.76,13.83,10.29,13.83A18.49,18.49,0,0,0,1639.2,1085.11Z" style="fill:#fff"/><path d="M1663.94,1126.91v-104.5h7.38l2,6.46s5.84-7.38,14.76-7.38c13.52,0,23.51,9.68,23.51,39.34,0,31.2-13.52,39.34-27.51,39.34a45.19,45.19,0,0,1-10.14-1.54v28.28Zm22.13-96.81c-6.92,0-10.91,6.14-12.14,9.06v50.56a28.51,28.51,0,0,0,10.29,1.85c11.22,0,17.52-9.38,17.52-30.74C1701.74,1042.39,1697.9,1030.1,1686.07,1030.1Z" style="fill:#fff"/><path d="M1724.64,1126.91v-104.5H1732l2,6.46s5.84-7.38,14.75-7.38c13.53,0,23.51,9.68,23.51,39.34,0,31.2-13.52,39.34-27.5,39.34a45.33,45.33,0,0,1-10.15-1.54v28.28Zm22.13-96.81c-6.92,0-10.92,6.14-12.15,9.06v50.56a28.6,28.6,0,0,0,10.3,1.85c11.22,0,17.52-9.38,17.52-30.74C1762.44,1042.39,1758.6,1030.1,1746.77,1030.1Z" style="fill:#fff"/><path d="M1797.63,1099.25l-19.21-76.84h10.29l15.37,66.85,15.06-66.85h10.3l-22,87.75c-2.46,9.53-7.53,17.67-17.52,17.67a25.38,25.38,0,0,1-9.22-1.69l2.31-8a15.92,15.92,0,0,0,6,1.08c6.61,0,8.61-6.61,10.45-14l1.54-6Z" style="fill:#fff"/><path d="M103.14,902.77c0-7.73,5.84-12.62,18.18-12.62h2.11v-.88c0-3.58-1-4.67-5.47-4.67a54.05,54.05,0,0,0-9,1l-2.27-8a45.31,45.31,0,0,1,12.63-1.82c7.52,0,15.55,2.12,15.55,11.75v26.06h-9.34l-1.61-3.5c-2.55,2.33-5.4,4.09-9.56,4.09C107,914.24,103.14,908.76,103.14,902.77Zm20.29.15v-5.69h-2.85c-3.72,0-5.62,1.68-5.62,4.38a3.91,3.91,0,0,0,4.09,3.94A5.16,5.16,0,0,0,123.43,902.92Z" style="fill:#fff"/><path d="M156,885.84h-4.38v-9.42H156v-3.06c0-5.4,3.43-12.12,13.36-12.12a22.09,22.09,0,0,1,7.15,1.46l-2.41,8.76a12.94,12.94,0,0,0-4-.8c-2,0-2.7,1.16-2.7,3.21v2.55h6.93v9.42h-6.93v27.81H156Z" style="fill:#fff"/><path d="M175.63,902.77c0-7.73,5.84-12.62,18.17-12.62h2.12v-.88c0-3.58-.95-4.67-5.47-4.67a54.18,54.18,0,0,0-9.06,1l-2.26-8a45.31,45.31,0,0,1,12.63-1.82c7.52,0,15.55,2.12,15.55,11.75v26.06H198l-1.6-3.5c-2.56,2.33-5.4,4.09-9.57,4.09C179.5,914.24,175.63,908.76,175.63,902.77Zm20.29.15v-5.69h-2.85c-3.72,0-5.62,1.68-5.62,4.38a3.91,3.91,0,0,0,4.09,3.94A5.17,5.17,0,0,0,195.92,902.92Z" style="fill:#fff"/><path d="M212.78,876.42h8.11l2.62,3.21c2.19-1.53,5.48-3.79,10.08-3.79,5,0,7.66,1.6,9,4.16,2.19-1.53,5.91-4.16,10.88-4.16,9,0,10.58,5.4,10.58,11.9v25.91H252.71V888.1c0-1.6-.07-3.72-3.28-3.72a10,10,0,0,0-5.33,2v27.3H232.71V888.1c0-2.41-.66-3.72-3.36-3.72-2,0-4.3,1.39-5.18,2v27.3H212.78Z" style="fill:#fff"/><path d="M268.85,895c0-10.43,3.06-19.12,16.13-19.12s16.13,8.69,16.13,19.12-3.06,19.28-16.13,19.28S268.85,905.48,268.85,895Zm20.87,0c0-7.15-.87-9.71-4.74-9.71s-4.75,2.56-4.75,9.71.81,9.93,4.75,9.93S289.72,902.19,289.72,895Z" style="fill:#fff"/><path d="M305.86,902.34V876.42h11.39V902c0,1.9.36,3.73,3.13,3.73a10.65,10.65,0,0,0,5.48-2V876.42h11.39v37.23H328l-1.46-3.14a18.28,18.28,0,0,1-10.3,3.73C307.17,914.24,305.86,908.83,305.86,902.34Z" style="fill:#fff"/><path d="M341.26,911.24l3.51-8.1s3.87,2.26,7.3,2.26c3.65,0,4.45-1.38,4.45-2.55,0-1.68-1.9-2.7-6-4.89-5.62-3.07-8.32-5.7-8.32-11.61,0-5.69,4.75-10.51,12.7-10.51a22.2,22.2,0,0,1,11.54,3l-3.73,7.74a15.23,15.23,0,0,0-6.57-1.9c-2,0-2.77.88-2.77,2,0,1.39,1.24,2.27,6.2,4.82,4.68,2.41,8.25,5.26,8.25,10.51,0,4.68-3.94,12.2-14.81,12.2A23.44,23.44,0,0,1,341.26,911.24Z" style="fill:#fff"/><path d="M385.35,876.42h8.11l2.62,3.21c2.19-1.53,5.48-3.79,10.08-3.79,5,0,7.66,1.6,9,4.16,2.19-1.53,5.91-4.16,10.88-4.16,9.05,0,10.58,5.4,10.58,11.9v25.91H425.28V888.1c0-1.6-.07-3.72-3.28-3.72a10,10,0,0,0-5.33,2v27.3H405.28V888.1c0-2.41-.66-3.72-3.36-3.72-2,0-4.3,1.39-5.18,2v27.3H385.35Z" style="fill:#fff"/><path d="M441.42,895c0-10.43,3.06-19.12,16.13-19.12s16.13,8.69,16.13,19.12-3.06,19.28-16.13,19.28S441.42,905.48,441.42,895Zm20.87,0c0-7.15-.87-9.71-4.74-9.71s-4.75,2.56-4.75,9.71.81,9.93,4.75,9.93S462.29,902.19,462.29,895Z" style="fill:#fff"/><path d="M478.06,895c0-9.19,3.8-19.12,16.06-19.12a37.48,37.48,0,0,1,5.48.51V861.82H511v51.83h-9.2l-1.46-3.06c-3.21,3.28-5.55,3.65-7.89,3.65C482.15,914.24,478.06,904.38,478.06,895Zm21.54,8.69V884.89a22.64,22.64,0,0,0-3.36-.29c-5,0-6.79,4.82-6.79,10.36,0,7.23,2.77,10.59,6.42,10.59A5.75,5.75,0,0,0,499.6,903.65Z" style="fill:#fff"/><path d="M516.1,895c0-10.43,3.28-19.12,15.62-19.12,10,0,15,5.69,15,23.21H527.56c.29,3.65,2,5.91,6.86,5.91a29,29,0,0,0,7.37-1.16l2.85,8.32a35.12,35.12,0,0,1-11.83,2.12C519.45,914.24,516.1,905.55,516.1,895Zm19.56-3.21c0-4.89-1.75-7.15-4.16-7.15-2.63,0-3.94,2.63-4,7.15Z" style="fill:#fff"/><path d="M551.79,876.42h8.1l2.49,3.07a10.55,10.55,0,0,1,7.88-3.65,14.54,14.54,0,0,1,2.48.22l-2,10.58a9.9,9.9,0,0,0-3.14-.51,6.43,6.43,0,0,0-4.38,1.68v25.84H551.79Z" style="fill:#fff"/><path d="M576,876.42h8.1l2.63,3.21c2-1.38,6.49-3.79,10.87-3.79,9.06,0,10.44,5.4,10.44,11.9v25.91H596.68V888.1c0-2.48-.72-3.72-3.21-3.72a11.33,11.33,0,0,0-6.06,2v27.3H576Z" style="fill:#fff"/><path d="M626.69,861.82h11.39V879.2a20.06,20.06,0,0,1,10.21-3.36c9.06,0,10.44,5.4,10.44,11.9v25.91H647.35V888.1c0-2.77-1-3.72-3.14-3.72a11.62,11.62,0,0,0-6.13,2v27.3H626.69Z" style="fill:#fff"/><path d="M663.48,895c0-10.43,3.06-19.12,16.13-19.12s16.13,8.69,16.13,19.12-3.06,19.28-16.13,19.28S663.48,905.48,663.48,895Zm20.88,0c0-7.15-.88-9.71-4.75-9.71s-4.74,2.56-4.74,9.71.8,9.93,4.74,9.93S684.36,902.19,684.36,895Z" style="fill:#fff"/><path d="M700.49,902.34V876.42h11.39V902c0,1.9.36,3.73,3.14,3.73a10.61,10.61,0,0,0,5.47-2V876.42h11.39v37.23h-9.27l-1.46-3.14a18.21,18.21,0,0,1-10.29,3.73C701.8,914.24,700.49,908.83,700.49,902.34Z" style="fill:#fff"/><path d="M735.89,911.24l3.51-8.1s3.87,2.26,7.3,2.26c3.65,0,4.45-1.38,4.45-2.55,0-1.68-1.9-2.7-6-4.89-5.63-3.07-8.33-5.7-8.33-11.61,0-5.69,4.75-10.51,12.7-10.51a22.15,22.15,0,0,1,11.54,3l-3.72,7.74a15.28,15.28,0,0,0-6.57-1.9c-2,0-2.78.88-2.78,2,0,1.39,1.24,2.27,6.21,4.82,4.67,2.41,8.25,5.26,8.25,10.51,0,4.68-4,12.2-14.82,12.2A23.48,23.48,0,0,1,735.89,911.24Z" style="fill:#fff"/><path d="M766.12,895c0-10.43,3.28-19.12,15.62-19.12,10,0,15,5.69,15,23.21H777.58c.29,3.65,2,5.91,6.86,5.91a29,29,0,0,0,7.37-1.16l2.85,8.32a35.16,35.16,0,0,1-11.83,2.12C769.47,914.24,766.12,905.55,766.12,895Zm19.56-3.21c0-4.89-1.75-7.15-4.16-7.15-2.63,0-3.94,2.63-4,7.15Z" style="fill:#fff"/><path d="M815,913.51V861.82h11.39v14.53a28.24,28.24,0,0,1,5.33-.51c12.26,0,16.2,9.49,16.2,19,0,8.83-2.41,19.35-18.83,19.35C822.91,914.24,815,913.51,815,913.51Zm21.54-18.62c0-7.08-2.92-10.29-6.87-10.29a23.12,23.12,0,0,0-3.28.29V905.4a10.29,10.29,0,0,0,2.33.22C833.64,905.62,836.49,902.12,836.49,894.89Z" style="fill:#fff"/><path d="M852.62,902.34V876.42H864V902c0,1.9.36,3.73,3.14,3.73a10.65,10.65,0,0,0,5.47-2V876.42H884v37.23h-9.27l-1.46-3.14a18.28,18.28,0,0,1-10.3,3.73C853.93,914.24,852.62,908.83,852.62,902.34Z" style="fill:#fff"/><path d="M889.85,876.42h11.39v37.23H889.85Zm.07-9.71a5.62,5.62,0,1,1,5.62,5.62A5.57,5.57,0,0,1,889.92,866.71Z" style="fill:#fff"/><path d="M906.71,901.61V861.82H918.1v39.79c0,.36,0,3.28,3,3.28a11.57,11.57,0,0,0,2.92-.51l2.26,8.91a24.77,24.77,0,0,1-5.91,1C912.62,914.24,906.71,909.86,906.71,901.61Z" style="fill:#fff"/><path d="M930.65,901.68V885.84h-4.38v-9.42h4.38v-9.27H942v9.27h7.67v9.42H942v15.77c0,.36,0,3.28,2.92,3.28a13.57,13.57,0,0,0,4.82-1.09l2.92,8.54a22,22,0,0,1-8.91,1.9C933.43,914.24,930.65,906.57,930.65,901.68Z" style="fill:#fff"/><path d="M969.12,913.51V861.82h11.39v14.53a28.24,28.24,0,0,1,5.33-.51c12.26,0,16.21,9.49,16.21,19,0,8.83-2.41,19.35-18.84,19.35C977.08,914.24,969.12,913.51,969.12,913.51Zm21.54-18.62c0-7.08-2.92-10.29-6.86-10.29a23.4,23.4,0,0,0-3.29.29V905.4a10.39,10.39,0,0,0,2.34.22C987.81,905.62,990.66,902.12,990.66,894.89Z" style="fill:#fff"/><path d="M1004.89,925.4l2.78-8.17a16.13,16.13,0,0,0,6.2,1.6c2.56,0,3.21-1.75,4-3.87l.51-1.31H1015l-11.53-37.23h12l6.5,25.41,6.35-25.41h12l-13.65,42.71c-1.38,4.38-4.74,9-10.73,9A26.72,26.72,0,0,1,1004.89,925.4Z" style="fill:#fff"/><path d="M1067.82,861.82h17.45l13.86,51.83h-12l-2.41-8.76h-16.42l-2.34,8.76h-12Zm13.94,32.27-5.25-20.88-5.26,20.88Z" style="fill:#fff"/><path d="M1102.42,876.42h8.1l2.63,3.21c2-1.38,6.5-3.79,10.88-3.79,9,0,10.44,5.4,10.44,11.9v25.91h-11.39V888.1c0-2.48-.73-3.72-3.21-3.72a11.29,11.29,0,0,0-6.06,2v27.3h-11.39Z" style="fill:#fff"/><path d="M1141.77,901.68V885.84h-4.38v-9.42h4.38v-9.27h11.39v9.27h7.66v9.42h-7.66v15.77c0,.36,0,3.28,2.92,3.28a13.57,13.57,0,0,0,4.81-1.09l2.92,8.54a21.93,21.93,0,0,1-8.9,1.9C1144.54,914.24,1141.77,906.57,1141.77,901.68Z" style="fill:#fff"/><path d="M1165.27,895c0-10.43,3.07-19.12,16.14-19.12s16.13,8.69,16.13,19.12-3.07,19.28-16.13,19.28S1165.27,905.48,1165.27,895Zm20.88,0c0-7.15-.88-9.71-4.74-9.71s-4.75,2.56-4.75,9.71.8,9.93,4.75,9.93S1186.15,902.19,1186.15,895Z" style="fill:#fff"/><path d="M1202.65,876.42h8.1l2.63,3.21c2-1.38,6.5-3.79,10.88-3.79,9,0,10.43,5.4,10.43,11.9v25.91h-11.38V888.1c0-2.48-.73-3.72-3.22-3.72a11.25,11.25,0,0,0-6,2v27.3h-11.39Z" style="fill:#fff"/><path d="M1240.17,876.42h11.39v37.23h-11.39Zm.07-9.71a5.62,5.62,0,1,1,5.62,5.62A5.57,5.57,0,0,1,1240.24,866.71Z" style="fill:#fff"/><path d="M1270.9,887.74c0-16.43,4.24-26.65,20.88-26.65a30.15,30.15,0,0,1,12.77,3.21l-4.74,9.49a20.88,20.88,0,0,0-8.32-2c-7.3,0-8.4,5.26-8.4,16,0,10.07,1.1,16.06,8.25,16.06a19.91,19.91,0,0,0,5.33-.81V889.27h11.75V909c-3.43,2.41-10.65,5.4-16.42,5.4C1274.92,914.38,1270.9,904.16,1270.9,887.74Z" style="fill:#fff"/><path d="M1313.68,902.77c0-7.73,5.84-12.62,18.18-12.62H1334v-.88c0-3.58-1-4.67-5.47-4.67a54.05,54.05,0,0,0-9,1l-2.27-8a45.31,45.31,0,0,1,12.63-1.82c7.52,0,15.55,2.12,15.55,11.75v26.06H1336l-1.61-3.5c-2.55,2.33-5.4,4.09-9.56,4.09C1317.55,914.24,1313.68,908.76,1313.68,902.77Zm20.29.15v-5.69h-2.84c-3.73,0-5.62,1.68-5.62,4.38a3.9,3.9,0,0,0,4.08,3.94A5.16,5.16,0,0,0,1334,902.92Z" style="fill:#fff"/><path d="M1350.47,902.34V876.42h11.39V902c0,1.9.36,3.73,3.14,3.73a10.61,10.61,0,0,0,5.47-2V876.42h11.39v37.23h-9.27l-1.46-3.14a18.21,18.21,0,0,1-10.29,3.73C1351.79,914.24,1350.47,908.83,1350.47,902.34Z" style="fill:#fff"/><path d="M1387,895c0-9.19,3.8-19.12,16.06-19.12a37.48,37.48,0,0,1,5.48.51V861.82h11.38v51.83h-9.19l-1.46-3.06c-3.22,3.28-5.55,3.65-7.89,3.65C1391.06,914.24,1387,904.38,1387,895Zm21.54,8.69V884.89a22.64,22.64,0,0,0-3.36-.29c-5,0-6.79,4.82-6.79,10.36,0,7.23,2.77,10.59,6.42,10.59A5.75,5.75,0,0,0,1408.51,903.65Z" style="fill:#fff"/><path d="M1425.73,876.42h11.39v37.23h-11.39Zm4.68-18.61h10.36l-6.57,12.41h-6.35Z" style="fill:#fff"/><path d="M1456.1,876.42h11.39v37.23H1456.1Zm.07-9.71a5.63,5.63,0,1,1,5.62,5.62A5.58,5.58,0,0,1,1456.17,866.71Z" style="fill:#fff"/><path d="M1473.33,876.42h8.1l2.63,3.21c2-1.38,6.5-3.79,10.88-3.79,9,0,10.43,5.4,10.43,11.9v25.91H1494V888.1c0-2.48-.73-3.72-3.22-3.72a11.25,11.25,0,0,0-6,2v27.3h-11.39Z" style="fill:#fff"/><path d="M1525.08,861.82h18.11c13.87,0,17,6.86,17,13.73a14.45,14.45,0,0,1-5,10.73c4.46,2,6.79,5.4,6.79,11.31,0,10.51-5.25,16.06-21.46,16.06h-15.48Zm18.11,20.37c3.94,0,5.4-2,5.4-5.4a4.6,4.6,0,0,0-4.89-4.53h-6.86v9.93Zm-.59,21.1c5.33,0,7.52-1.54,7.52-5.7,0-3.79-1.9-5.11-5.69-5.11h-7.59v10.81Z" style="fill:#fff"/><path d="M1565.45,902.77c0-7.73,5.84-12.62,18.18-12.62h2.12v-.88c0-3.58-1-4.67-5.48-4.67a54.05,54.05,0,0,0-9,1l-2.26-8a45.29,45.29,0,0,1,12.62-1.82c7.52,0,15.55,2.12,15.55,11.75v26.06h-9.34l-1.61-3.5c-2.55,2.33-5.4,4.09-9.56,4.09C1569.32,914.24,1565.45,908.76,1565.45,902.77Zm20.3.15v-5.69h-2.85c-3.72,0-5.62,1.68-5.62,4.38a3.91,3.91,0,0,0,4.09,3.94A5.18,5.18,0,0,0,1585.75,902.92Z" style="fill:#fff"/><path d="M1602.61,876.42h8.1l2.48,3.07a10.59,10.59,0,0,1,7.89-3.65,14.54,14.54,0,0,1,2.48.22l-2,10.58a10,10,0,0,0-3.14-.51,6.43,6.43,0,0,0-4.38,1.68v25.84h-11.39Z" style="fill:#fff"/><path d="M1624.73,895c0-10.36,3.43-19.12,16.71-19.12a21.17,21.17,0,0,1,9.93,2.77l-3.72,8a15.24,15.24,0,0,0-5.84-1.32c-4.67,0-5.69,2.56-5.69,9.71s.8,9.93,5.84,9.93a18.17,18.17,0,0,0,5.69-1l3,8.17a22.27,22.27,0,0,1-9.34,2.2C1627.72,914.24,1624.73,905.4,1624.73,895Z" style="fill:#fff"/><path d="M1653.27,895c0-10.43,3.28-19.12,15.62-19.12,10,0,15,5.69,15,23.21h-19.13c.29,3.65,2,5.91,6.86,5.91a28.83,28.83,0,0,0,7.37-1.16l2.85,8.32a35.11,35.11,0,0,1-11.82,2.12C1656.63,914.24,1653.27,905.55,1653.27,895Zm19.56-3.21c0-4.89-1.75-7.15-4.16-7.15-2.63,0-3.94,2.63-4,7.15Z" style="fill:#fff"/><path d="M1688.6,901.61V861.82H1700v39.79c0,.36,0,3.28,3,3.28a11.57,11.57,0,0,0,2.92-.51l2.27,8.91a24.86,24.86,0,0,1-5.92,1C1694.51,914.24,1688.6,909.86,1688.6,901.61Z" style="fill:#fff"/><path d="M1709,895c0-10.43,3.06-19.12,16.13-19.12s16.13,8.69,16.13,19.12-3.06,19.28-16.13,19.28S1709,905.48,1709,895Zm20.88,0c0-7.15-.88-9.71-4.75-9.71s-4.74,2.56-4.74,9.71.8,9.93,4.74,9.93S1729.85,902.19,1729.85,895Z" style="fill:#fff"/><path d="M1746.34,876.42h8.11l2.63,3.21c2-1.38,6.49-3.79,10.87-3.79,9,0,10.44,5.4,10.44,11.9v25.91H1767V888.1c0-2.48-.73-3.72-3.21-3.72a11.33,11.33,0,0,0-6.06,2v27.3h-11.39Z" style="fill:#fff"/><path d="M1782.55,902.77c0-7.73,5.84-12.62,18.18-12.62h2.12v-.88c0-3.58-.95-4.67-5.48-4.67a54.05,54.05,0,0,0-9,1l-2.26-8a45.22,45.22,0,0,1,12.62-1.82c7.52,0,15.55,2.12,15.55,11.75v26.06h-9.34l-1.61-3.5c-2.55,2.33-5.4,4.09-9.56,4.09C1786.42,914.24,1782.55,908.76,1782.55,902.77Zm20.3.15v-5.69H1800c-3.72,0-5.62,1.68-5.62,4.38a3.91,3.91,0,0,0,4.09,3.94A5.18,5.18,0,0,0,1802.85,902.92Z" style="fill:#fff"/><g style="clip-path:url(#a)"><path d="M124.86,152.92,109,189.8h-4.7L156.7,68h6.61L181.93,189.8h-4.7l-5.56-36.88Zm46.11-4L159.49,72.7,126.6,148.91ZM276.24,70.79c-12.87,0-20.7,7.13-24.71,31l-.17,1h19.49l-.52,3.82H250.84L239.35,189.8H235l11.49-83.17h-9.92l.52-3.82H247l.52-3.14C250.66,80.71,258,67,276.76,67a38.73,38.73,0,0,1,6.44.7l-1,3.65A46.05,46.05,0,0,0,276.24,70.79Zm43.5,106.66c-2.26,3.31-11.13,13.4-24.18,13.4-15.31,0-25.41-8.53-25.41-31.67,0-34.62,20.88-57.42,45.59-57.42,7.83,0,14.44,1.22,18.44,2.79L322.35,189.8H318.7ZM295.38,187c14.79,0,23.67-14.27,25.75-19.31l8.36-60.21a46.91,46.91,0,0,0-12.88-1.91c-26.45,0-42.11,24.71-42.11,54.11C274.5,176.58,281.12,187,295.38,187Zm109.1-67.34c0-8.52-6.09-14.09-15.31-14.09-12.88,0-26.45,10.27-30.28,13.57L349,189.8h-4.35l12-87h4l-.52,10.44c7.48-5.75,19-11.49,28.89-11.49,11.83,0,18.61,5.92,19.66,13.57,10.09-8.35,20.53-13.57,30.79-13.57,14.27,0,20,8.35,20,17.92,0,2.44-.52,6.44-.87,9.57l-8.35,60.55h-4.35l8.35-61.24c.35-2.61.7-7,.7-8.7,0-7.14-4.18-14.27-15.83-14.27-13.4,0-25.58,10.61-30.28,15a96,96,0,0,1-.87,9.75l-8.35,59.5h-4.35l8.18-59C403.79,128.21,404.48,122.29,404.48,119.68Zm85.44-16.87-12.18,87h-4.35l12.18-87Zm.87-29.93a5.4,5.4,0,1,1-5.39,5.39A5.41,5.41,0,0,1,490.79,72.88Zm33.58,118c-10.44,0-19.49-4.7-19.49-22.1,0-2.44.53-8.53,1.05-12.35L518.28,68h4.35l-12,86.3a133.94,133.94,0,0,0-1.4,13.74c0,14.45,5.92,19,15.14,19h3.83l-.17,3.65Zm30.1-1-14.78-87H544L558.3,186l37.41-83.17h4.53l-44.72,99.52c-4.35,9.57-11.49,19.84-26.1,19.84-1.91,0-3.65-.18-3.65-.18l.87-3.82s1.74.17,2.78.17c10.09,0,16.35-6.09,22.79-20l4-8.53Zm150.17-54.11c0,20.53-7.66,55.16-39.67,55.16-17.23,0-26.45-12.18-26.45-33.76,0-27.49,11.31-55.33,39.67-55.33C695.42,101.76,704.64,113.42,704.64,135.69Zm-4.35-.69c0-12.71-4-29.41-22.8-29.41-20.18,0-34.62,18.62-34.62,52.37,0,12.53,4.35,29.06,22.79,29.06C686.89,187,700.29,166.66,700.29,135Zm59.49-64.21c-12.87,0-20.7,7.13-24.71,31l-.17,1h19.49l-.53,3.82H734.38L722.89,189.8h-4.35L730,106.63h-9.92l.52-3.82h9.92l.52-3.14C734.2,80.71,741.51,67,760.3,67a38.73,38.73,0,0,1,6.44.7l-1,3.65A46.05,46.05,0,0,0,759.78,70.79ZM864.53,68,847.65,189.8H844l1-12.35s-8.87,13.4-24.18,13.4c-13.75,0-25.41-6.27-25.41-32.71,0-32.37,20-56.38,45.59-56.38a57.74,57.74,0,0,1,14.27,1.57L860.18,68Zm-44.2,119c13,0,22.28-11,25.93-18.27l8.53-61.25a48.39,48.39,0,0,0-13.4-1.91c-26.1,0-41.59,25.06-41.59,53.24C799.8,174.67,805.37,187,820.33,187Zm66.82-84.21L875,189.8h-4.35l12.18-87ZM888,72.88a5.4,5.4,0,1,1-5.39,5.39A5.42,5.42,0,0,1,888,72.88Zm103.53-2.09c-12.88,0-20.71,7.13-24.71,31l-.17,1h19.49l-.53,3.82H966.15L954.66,189.8h-4.35l11.49-83.17h-43L907.34,189.8H903l11.48-83.17h-9.92l.52-3.82H915l.52-3.14C918.65,80.71,926,67,944.75,67a46.48,46.48,0,0,1,15.48,3L959,73.4a47.4,47.4,0,0,0-14.79-2.61c-12.87,0-20.7,7.13-24.7,31l-.18,1h43l.52-3.14C966,80.71,973.28,67,992.07,67a38.73,38.73,0,0,1,6.44.7l-1,3.65A46.05,46.05,0,0,0,991.55,70.79Zm-1.74,86.82c0,19.49,8.7,29.41,23.49,29.41,12,0,21.23-7,21.23-7l2.09,3.13a41.52,41.52,0,0,1-23.66,7.66c-11.31,0-27.49-5.74-27.49-33.24,0-34.27,14.78-55.85,39.67-55.85,16,0,21.22,12.88,21.22,26.28,0,3-.87,13.39-1.21,17.57H990.51A116.35,116.35,0,0,0,989.81,157.61ZM991,141.78h50.11c.35-4.17.87-10.44.87-13.4,0-14.26-5.22-22.79-18.09-22.79C1002.34,105.59,993.64,126.12,991,141.78Zm108.23-36.19c-14.09,0-23,10.44-25.58,13.57l-9.91,70.64h-4.35l12-87h4l-.52,9.74a33.1,33.1,0,0,1,24-10.79,26.89,26.89,0,0,1,6.79.87l-1,3.48A31.3,31.3,0,0,0,1099.26,105.59Zm9.92,52c0,19.49,8.7,29.41,23.49,29.41,12,0,21.23-7,21.23-7l2.08,3.13a41.52,41.52,0,0,1-23.66,7.66c-11.31,0-27.49-5.74-27.49-33.24,0-34.27,14.79-55.85,39.67-55.85,16,0,21.23,12.88,21.23,26.28,0,3-.87,13.39-1.22,17.57h-54.63A116.35,116.35,0,0,0,1109.18,157.61Zm1.22-15.83h50.11c.35-4.17.87-10.44.87-13.4,0-14.26-5.22-22.79-18.1-22.79C1121.71,105.59,1113,126.12,1110.4,141.78Zm130-22.27c0-8.35-5.56-13.92-16.7-13.92-12.53,0-25.23,9.22-30.62,13.57l-9.92,70.64h-4.35l12-87h4l-.52,10.44c7-5.22,18.09-11.49,30.1-11.49,14.26,0,20.53,7.66,20.53,16.36,0,2.26-.35,7.31-.7,9.92l-8.52,61.76h-4.35l8.52-62.29A65.46,65.46,0,0,0,1240.37,119.51Zm58-16.7-.52,3.82h-20.88l-6.44,46.29a121.44,121.44,0,0,0-1.57,15.66c0,15.31,7.31,18.44,15.14,18.44,2.44,0,6.09-.35,6.09-.35l-.17,3.66a40,40,0,0,1-6.09.52c-10.44,0-19.32-4.87-19.32-21.75a121.85,121.85,0,0,1,1.22-14.1l6.79-48.37H1262.3l.7-3.82h10.09l3.13-22.28h4.35l-3.13,22.28Zm142.68,0h4.52l-34.27,87h-6.79L1393,109.94l-34.63,79.86h-7l-9.57-87h4.35l9.22,83.17,36-83.17h4.87l12,83.17Zm13.23,54.8c0,19.49,8.7,29.41,23.49,29.41,12,0,21.22-7,21.22-7l2.09,3.13a41.52,41.52,0,0,1-23.66,7.66c-11.31,0-27.49-5.74-27.49-33.24,0-34.27,14.79-55.85,39.67-55.85,16,0,21.23,12.88,21.23,26.28,0,3-.87,13.39-1.22,17.57h-54.64A118,118,0,0,0,1454.23,157.61Zm1.21-15.83h50.12c.34-4.17.87-10.44.87-13.4,0-14.26-5.22-22.79-18.1-22.79C1466.75,105.59,1458.05,126.12,1455.44,141.78Zm84.92-39-12.18,87h-4.35l12.18-87Zm.87-29.93a5.4,5.4,0,1,1-5.4,5.39A5.42,5.42,0,0,1,1541.23,72.88Zm36,149.29a45,45,0,0,1-18.44-3.83l1.74-3.65a42.93,42.93,0,0,0,17.57,3.65c12.53,0,20.88-8.7,23.84-31.67l1.22-9.22c-2.26,3.31-11,13.4-24.19,13.4-15.31,0-25.4-8.53-25.4-31.67,0-34.62,20.88-57.42,45.59-57.42,7.83,0,14.44,1.22,18.44,2.79l-11.83,85.08C1602.47,213.47,1591.51,222.17,1577.24,222.17Zm1.57-35.15c14.79,0,23.66-14.27,25.75-19.31l8.18-60.21a44.8,44.8,0,0,0-12.7-1.91c-26.45,0-42.11,25.06-42.11,54.11C1557.93,176.58,1564.54,187,1578.81,187ZM1673,101.76c14.61,0,21.22,7.14,21.22,16.18a87.65,87.65,0,0,1-.52,8.88l-8.7,63h-4.35l8.53-62.46a78.35,78.35,0,0,0,.52-8.18c0-7.65-5.05-13.57-17.4-13.57-10.79,0-23.49,8.18-30.1,13.57l-9.75,70.64h-4.35L1644.93,68h4.35l-6.44,45.76C1650.85,107.5,1662.51,101.76,1673,101.76Zm74.64,1-.52,3.82h-20.88l-6.44,46.29a123.19,123.19,0,0,0-1.56,15.66c0,15.31,7.31,18.44,15.14,18.44,2.43,0,6.09-.35,6.09-.35l-.18,3.66a40,40,0,0,1-6.09.52c-10.44,0-19.31-4.87-19.31-21.75a119.68,119.68,0,0,1,1.22-14.1l6.78-48.37h-10.26l.69-3.82h10.09l3.14-22.28h4.35l-3.14,22.28Zm20.89,88a36.25,36.25,0,0,1-20.88-6.79l2.43-3.65s8.88,6.61,19.14,6.61c14.1,0,21.58-9.05,21.58-17.75,0-6.44-2.09-10.09-15.31-20.7-11.66-9.22-18.27-16.18-18.27-25.75,0-13.23,10.44-21.06,24.88-21.06,11.48,0,18.62,4.18,18.62,4.18l-1.92,3.65a38.66,38.66,0,0,0-16.88-4c-13.57,0-20.35,7.66-20.35,16.7,0,9.57,7.13,15.49,17,23.67,11.66,9.57,16.53,14.44,16.53,23C1795.1,176.75,1789.18,190.85,1768.48,190.85Z" style="fill:#fff"/></g><path d="M336.45,574.79c0,88-44.74,122-116.43,122H190v117H114.26v-361H221C303.4,452.76,336.45,493.94,336.45,574.79ZM190,623.09h30c32,0,40.67-19.32,40.67-48.3,0-36.1-12.71-48.31-40.67-48.31H190Z" style="fill:#fff4e0"/><path d="M543.9,452.76v73.72H445.26v64.07H543.9v74.23H445.26v74.74h99.15v74.24H369.5v-361Z" style="fill:#fff4e0"/><path d="M585.08,452.76H689.82c101.19,0,120.51,67.11,120.51,180,0,113.89-19.32,181-120.51,181H585.08Zm148.47,180c0-72.71-4.07-106.27-42.71-106.27h-30v213h30C729.48,739.52,733.55,704.44,733.55,632.75Z" style="fill:#fff4e0"/><path d="M953.7,452.76c74.24,0,117.46,32,117.46,122,0,57.45-22.37,94.57-52.37,109.82l59.49,129.15H997.94l-54.4-118.47H924.21V813.76H848.45v-361Zm41.7,122c0-28-6.1-48.31-41.7-48.31H924.21v95.08h33C986.25,621.56,995.4,603.77,995.4,574.79Z" style="fill:#fff4e0"/><path d="M1280.63,452.76v73.72H1182v64.07h98.64v74.23H1182v74.74h99.15v74.24H1106.23v-361Z" style="fill:#fff4e0"/><path d="M1427.06,452.76c74.24,0,117.46,32,117.46,122,0,57.45-22.38,94.57-52.37,109.82l59.48,129.15H1471.3l-54.41-118.47h-19.32V813.76h-75.76v-361Zm41.7,122c0-28-6.1-48.31-41.7-48.31h-29.49v95.08h33C1459.6,621.56,1468.76,603.77,1468.76,574.79Z" style="fill:#fff4e0"/><path d="M1561.8,813.76l75.25-361h112.87l75.76,361H1748.4l-10.68-61h-88l-10.68,61Zm106.26-135.25h50.85l-25.42-161.18Z" style="fill:#fff4e0"/></svg>