<?xml version="1.0" encoding="UTF-8"?><svg id="Capa_1" xmlns="http://www.w3.org/2000/svg" viewBox="0 0 1920 1200"><defs><style>.cls-1{fill:#fff0d8;}.cls-2{fill:#fffbf2;}.cls-3{fill:#ef4135;}.cls-4{fill:#850d23;}</style></defs><rect class="cls-3" width="1920" height="1200"/><path class="cls-4" d="M132.18,506c-5.63,0-6.38,7.5-6.38,9.75h-3.75c-1.12-19.12-4.88-38.25-10.12-53.62l3.38-1.12c12.75,33,30,55.88,63.75,55.88,31.5,0,46.88-19.5,46.88-49.12,0-32.25-18-50.25-54.75-84.38-37.12-34.5-53.25-52.12-53.25-81s15.38-52.88,61.88-52.88c9.75,0,18,1.12,22.88,1.12,6.38,0,7.5-1.88,7.5-9l3.38-.75c8.62,23.62,15.75,40.88,21.38,52.12l-3.38,1.5c-9.38-19.5-20.62-42.38-51.75-42.38-27.75,0-40.5,18.38-40.5,42.38s12,39.38,45,69.38c33.75,30.75,62.62,57.38,62.62,96.38,0,33-20.62,59.25-64.5,59.25-31.5,0-43.12-13.5-50.25-13.5Zm169.5-67.5l-14.25,48.38c-6.75,22.88,0,25.88,20.62,27.38l-.37,2.62c-10.13-.75-19.88-1.12-28.13-1.12s-16.5,.38-25.5,1.12l-.38-2.62c18.75-1.5,24-4.5,30.75-27.75l14.62-48.75c-21-6.38-39-14.62-57.38-14.62-21,0-37.5,10.5-45.75,16.5l-1.5-1.5c8.62-7.5,32.25-24,66-24,15.38,0,29.62,3.38,43.12,7.88l52.12-174.75,.75-.38,71.62,240c6.75,22.88,12,25.88,30.75,27.38l-.38,2.62c-9.38-.75-18.75-1.12-26.62-1.12h-18c-8.62,0-19.12,.38-29.62,1.12l-.38-2.62c20.62-1.5,27.38-4.5,20.62-27.38l-16.5-55.12c-8.25,6-24,12.75-47.25,12.75-14.25,0-27-2.62-39-6Zm58.88-2.25c12,0,21.38-3.75,26.62-7.12l-41.25-138-39.38,131.62c19.12,6.38,36.75,13.5,54,13.5Zm106.13,80.62l-.38-2.62c20.62-1.5,27-4.5,27-28.5v-202.5c0-24-6.38-27-27-28.5l.38-2.62c10.5,.75,21,1.12,29.62,1.12h18c8.62,0,19.12-.38,29.62-1.12l.38,2.62c-20.62,1.5-27,4.5-27,28.5v211.5c0,10.88,7.88,18.38,23.25,18.38h10.12c20.25,0,29.25-10.5,45-32.25l21-29.25,3.38,1.88c-8.25,13.88-20.25,41.62-24.75,62.25h-99c-8.62,0-19.12,.38-29.62,1.12Zm189.37-31.12l12.75-202.5c1.5-24-4.88-27-25.5-28.5l.38-2.62c10.5,.75,21,1.12,29.62,1.12h19.12l54,208.5,53.62-208.5h21c8.62,0,19.12-.38,29.62-1.12l.38,2.62c-20.62,1.5-27,4.5-25.12,28.5l14.62,202.5c1.88,24,8.25,27,28.88,28.5l-.38,2.62c-10.5-.75-21-1.12-29.62-1.12h-19.12c-8.62,0-19.12,.38-29.62,1.12l-.38-2.62c20.62-1.5,27-4.5,25.12-28.5l-15.75-217.5-63.75,247.5h-.75l-62.25-240.75-13.5,210.75c-1.5,24,4.88,27,25.5,28.5l-.37,2.62c-10.12-.75-19.88-1.12-28.13-1.12s-18.38,.38-28.5,1.12l-.38-2.62c20.62-1.5,27-4.5,28.5-28.5Zm378.38-195v195c0,24,6.38,27,27,28.5l-.37,2.62c-10.12-.75-19.88-1.12-28.12-1.12s-18.38,.38-28.5,1.12l-.38-2.62c20.63-1.5,27-4.5,27-28.5v-53.62c-7.5,6-18.75,12.38-43.88,12.38-21.75,0-36.75-4.88-49.5-10.12l-27.75,54c-11.25,21.38-4.12,24.38,16.5,25.88l-.37,2.62c-10.12-.75-20.25-1.12-28.5-1.12-7.5,0-16.5,.38-25.88,1.12l-.38-2.62c18.75-1.5,23.62-4.5,34.88-25.88l28.5-55.12c-13.12-5.62-23.62-10.88-36.75-10.88-16.88,0-31.5,8.62-36.38,13.12l-1.5-1.5c4.12-4.5,23.25-19.12,54.38-19.12,10.12,0,19.12,1.5,27.38,3.75l70.88-138c11.25-21.38,4.12-24.38-16.5-25.88l.38-2.62c10.5,.75,21,1.12,29.63,1.12h15.38l105.38,211.12v-181.12c0-24-6.38-27-27-28.5l.38-2.63c10.13,.75,19.88,1.12,28.5,1.12s18-.38,28.12-1.12l.38,2.62c-20.62,1.5-27,4.5-27,28.5v232.5h-3.38l-112.5-225Zm-28.5,147c12.75,0,19.88-4.12,25.13-8.62v-145.12l-7.88-15.75-78,151.5c22.12,6.75,39.38,18,60.75,18Zm226.5,79.12l-.38-2.62c20.62-1.5,27-4.5,27-28.5V255.88h-19.12c-27,0-33.75,11.62-46.5,38.62l-3-1.5c6.75-14.62,12.75-29.25,20.25-50.62l3.75,1.5-3.38,9.38h142.5l-3.38-9.38,3.75-1.5c7.5,21.38,13.5,36,20.25,50.62l-3,1.5c-12.75-27-19.5-38.62-46.5-38.62h-41.62v229.88c0,24,6.38,27,27,28.5l-.38,2.62c-10.5-.75-21-1.12-29.62-1.12h-18c-8.62,0-19.12,.38-29.62,1.12Zm97.88,0l-.38-2.62c20.62-1.5,27-4.5,27-28.5v-78.75c0-24-6.38-27-27-28.5l.38-2.62c10.5,.75,21,1.12,29.62,1.12h18c8.62,0,19.12-.38,29.62-1.12l.38,2.62c-20.62,1.5-27,4.5-27,28.5v78.75c0,24,6.38,27,27,28.5l-.38,2.62c-10.5-.75-21-1.12-29.62-1.12h-18c-8.62,0-19.12,.38-29.62,1.12Zm19.12-181.88c0-10.5,8.62-19.5,19.5-19.5s19.12,9,19.12,19.5-8.62,19.5-19.12,19.5-19.5-9-19.5-19.5Zm77.62-80.25v-2.62c9,.75,18,1.12,25.5,1.12h19.12l115.88,214.12v-184.12c0-24-6.38-27-27-28.5l.38-2.63c10.12,.75,19.88,1.12,28.5,1.12s18-.38,28.12-1.12l.38,2.62c-20.62,1.5-27,4.5-27,28.5v232.5h-3.38l-123-227.62v197.62c0,24,6.38,27,27,28.5l-.37,2.62c-10.12-.75-19.88-1.12-28.12-1.12s-18.38,.38-28.5,1.12l-.38-2.62c20.62-1.5,27-4.5,27-28.5v-203.62l-.75-1.5c-11.25-21.38-16.12-24.38-33.38-25.88Zm238.5,173.62l-17.62,58.5c-6.75,22.88,0,25.88,20.62,27.38l-.37,2.62c-10.12-.75-19.88-1.12-28.13-1.12s-16.5,.38-25.5,1.12l-.38-2.62c18.75-1.5,24-4.5,30.75-27.75l17.62-58.88c-3.75-1.12-7.12-1.5-11.25-1.5-11.25,0-22.12,4.88-28.5,9.75l-1.5-1.88c5.62-5.25,21-15.38,43.88-16.12l51-170.62,.75-.38,70.88,239.62c6.75,23.25,12,26.25,30.75,27.75l-.38,2.62c-9.38-.75-18.75-1.12-26.62-1.12h-18c-8.62,0-19.12,.38-29.62,1.12l-.38-2.62c20.62-1.5,27.38-4.5,20.62-27.75l-15-51.38c-8.25,5.62-18.38,9.38-31.5,9.38-22.88,0-36.38-11.25-52.12-16.12Zm67.5,9c6,0,10.88-1.88,15.38-4.88l-42-141.38-37.88,126.75c31.5,.38,45.75,19.5,64.5,19.5Z"/><path class="cls-2" d="M112.25,188.4c-4.41,0-8.82,.78-12.54,2.84h-.1l-.59-.78c13.23-6.86,20.78-11.76,24.89-16.47-12.45-2.94-20.48-17.25-20.48-34.79,0-19.7,10.09-35.28,25.19-35.28s25.29,15.58,25.29,35.28-10.09,35.28-25.29,35.28c-.78,0-1.67,0-2.45-.1-4.31,4.02-10.98,8.43-20.58,13.72,3.04-.78,5.98-.88,8.23-.88,19.01,0,49.4,9.8,65.66,9.8,6.47,0,13.43-1.27,16.66-6.86l.88,.49c-3.53,8.92-10.49,12.45-20.58,12.45-20.48,0-44.99-14.7-64.19-14.7Zm30.09-49.2c0-23.13-5.59-34.3-13.72-34.3-9.02,0-13.62,11.17-13.62,34.3,0,8.43,.59,15.19,1.76,20.48,.39-4.31,2.84-7.74,7.84-7.74,5.88,0,8.23,4.8,8.23,9.41,0,4.21-1.67,7.94-5.68,12.05,.49,.1,.98,.1,1.47,.1,9.11,0,13.72-11.17,13.72-34.3Zm-24.31,24.89c1.67,4.51,3.92,7.35,6.86,8.62,2.25-3.04,3.04-6.17,3.04-9.7,0-5.98-2.25-9.11-5.39-9.11-3.53,0-4.8,4.12-4.8,7.25,0,.78,.1,1.76,.29,2.94Zm47.14-3.92v-26.85c0-7.25-2.45-7.55-5.39-7.74l.1-.98c2.65,0,7.25-.29,8.62-.39l6.96-.69v35.09c0,7.64,1.37,12.45,7.94,12.45,3.33,0,5.88-1.18,7.74-2.74v-34.99c0-7.25-2.45-7.55-5.39-7.74l.1-.98c2.65,0,7.25-.29,8.62-.39l6.96-.69v41.16c0,7.25,2.45,7.55,5.39,7.84l-.1,.98c-2.65,0-7.25,.1-8.62,.2l-5.59,.39-1.27-4.61c-3.43,3.14-7.45,5-12.64,5-7.74,0-13.43-4.12-13.43-14.31Zm46.55-11.17c0-14.21,7.25-25.48,20.39-25.48s20.39,11.27,20.39,25.48-7.25,25.48-20.39,25.48-20.39-11.27-20.39-25.48Zm29.99,0c0-14.31-3.43-24.5-9.6-24.5s-9.6,10.19-9.6,24.5,3.43,24.5,9.6,24.5,9.6-10.29,9.6-24.5Zm45.08,21.37c-1.96,2.35-5.1,4.12-9.8,4.12-10.88,0-17.64-9.41-17.64-24.6,0-16.07,7.55-26.36,18.13-26.36,4.9,0,7.74,2.16,9.31,5.68v-16.47c0-6.08-2.16-6.66-7.06-6.57v-.98c2.84-.1,5.39-.1,7.74-.39l9.6-.88v60.76c0,7.25,2.45,7.55,5.39,7.94l-.1,.98c-2.65-.1-7.25,0-8.62,.1l-5.98,.39-.98-3.72Zm-6.96,2.16c2.74,0,5.39-1.37,6.96-4.12v-34.2c-.1-5.78-3.43-8.82-7.25-8.82-6.37,0-9.41,8.23-9.41,23.82s2.84,23.33,9.7,23.33Zm70.85,1.37l-.2-.98c2.94-.49,5.39-.98,5.39-8.23v-25.09c0-8.82-2.06-12.45-7.64-12.45-3.33,0-6.08,1.18-8.53,3.63v33.91c0,7.25,2.45,7.74,5.39,8.23l-.2,.98c-2.65-.2-7.25-.39-8.62-.39h-3.43c-1.37,0-5.98,.2-8.62,.39l-.2-.98c2.94-.49,5.39-.98,5.39-8.23v-31.36c0-7.25-2.45-7.45-5.39-7.64l.1-.98c2.65-.1,7.25-.39,8.62-.59l5.98-.59,.98,5.98c3.53-3.72,7.94-5.98,13.13-5.98,7.15,0,13.33,4.12,13.33,14.11v27.05c0,7.25,2.45,7.74,5.39,8.23l-.2,.98c-2.65-.2-7.25-.39-8.62-.39h-3.43c-1.37,0-5.98,.2-8.62,.39Zm48.31-4.7c-2.65,2.65-6.57,5.29-11.47,5.29-6.47,0-12.54-3.43-12.54-12.05,0-11.07,12.15-16.27,23.72-18.52v-6.57c0-6.86-1.96-12.25-7.55-12.25-1.67,0-3.04,.49-4.02,1.27,.1,2.06,.69,4.8,.69,8.43,0,4.12-2.16,6.47-5.59,6.47-2.74,0-4.51-1.96-4.51-5.29,0-8.04,9.7-12.45,17.45-12.45s13.82,4.12,13.82,15.29v26.76c0,1.96,0,5,2.55,5,1.67,0,2.55-.88,3.33-1.76l.78,.59c-2.06,2.65-4.8,5.1-9.21,5.1-3.82,0-6.57-1.86-7.45-5.29Zm-6.47,1.47c2.65,0,4.61-1.08,6.27-2.55-.1-.49-.1-.88-.1-1.37v-21.95l-.78,.29c-8.72,2.74-12.45,8.72-12.45,15.98,0,6.27,2.45,9.6,7.06,9.6Zm29.99-7.25v-37.93h-7.84v-.98c8.62,0,15-6.96,16.17-19.6h1.86v19.6h9.7v.98h-9.6v36.26c0,5.68,.49,9.21,4.31,9.21,2.16,0,4.31-1.08,5.39-1.96l.59,.59c-1.96,2.25-5.98,4.9-11.66,4.9-6.17,0-8.92-3.14-8.92-11.07Zm27.93-3.23v-26.85c0-7.25-2.45-7.55-5.39-7.74l.1-.98c2.65,0,7.25-.29,8.62-.39l6.96-.69v35.09c0,7.64,1.37,12.45,7.94,12.45,3.33,0,5.88-1.18,7.74-2.74v-34.99c0-7.25-2.45-7.55-5.39-7.74l.1-.98c2.65,0,7.25-.29,8.62-.39l6.96-.69v41.16c0,7.25,2.45,7.55,5.39,7.84l-.1,.98c-2.65,0-7.25,.1-8.62,.2l-5.59,.39-1.27-4.61c-3.43,3.14-7.45,5-12.64,5-7.74,0-13.43-4.12-13.43-14.31Zm45.77,13.72l-.2-.98c2.94-.49,5.39-.98,5.39-8.23v-31.36c0-7.25-2.45-7.45-5.39-7.64l.1-.98c2.65-.1,7.25-.39,8.62-.59l5.98-.59,.98,11.17v.29c1.96-9.21,6.96-11.47,11.17-11.47s7.06,2.16,7.94,3.82c-.39,1.86-2.84,10-3.63,13.13h-.98c-1.08-7.25-3.14-10.88-7.35-10.88-3.53,0-7.15,3.72-7.15,13.53v21.56c0,7.25,2.74,7.74,5.98,8.23l-.29,.98c-2.84-.2-7.94-.39-9.41-.39h-3.14c-1.37,0-5.98,.2-8.62,.39Zm58.11-4.7c-2.65,2.65-6.57,5.29-11.47,5.29-6.47,0-12.54-3.43-12.54-12.05,0-11.07,12.15-16.27,23.72-18.52v-6.57c0-6.86-1.96-12.25-7.55-12.25-1.67,0-3.04,.49-4.02,1.27,.1,2.06,.69,4.8,.69,8.43,0,4.12-2.16,6.47-5.59,6.47-2.74,0-4.51-1.96-4.51-5.29,0-8.04,9.7-12.45,17.45-12.45s13.82,4.12,13.82,15.29v26.76c0,1.96,0,5,2.55,5,1.67,0,2.55-.88,3.33-1.76l.78,.59c-2.06,2.65-4.8,5.1-9.21,5.1-3.82,0-6.57-1.86-7.45-5.29Zm-6.47,1.47c2.65,0,4.61-1.08,6.27-2.55-.1-.49-.1-.88-.1-1.37v-21.95l-.78,.29c-8.72,2.74-12.45,8.72-12.45,15.98,0,6.27,2.45,9.6,7.06,9.6Zm68.89,3.23l-.2-.98c2.94-.49,5.39-.98,5.39-8.23v-25.09c0-8.82-2.06-12.45-7.64-12.45-3.33,0-6.08,1.18-8.53,3.63v33.91c0,7.25,2.45,7.74,5.39,8.23l-.2,.98c-2.65-.2-7.25-.39-8.62-.39h-3.43c-1.37,0-5.98,.2-8.62,.39l-.2-.98c2.94-.49,5.39-.98,5.39-8.23v-31.36c0-7.25-2.45-7.45-5.39-7.64l.1-.98c2.65-.1,7.25-.39,8.62-.59l5.98-.59,.98,5.98c3.53-3.72,7.94-5.98,13.13-5.98,7.15,0,13.33,4.12,13.33,14.11v27.05c0,7.25,2.45,7.74,5.39,8.23l-.2,.98c-2.65-.2-7.25-.39-8.62-.39h-3.43c-1.37,0-5.98,.2-8.62,.39Zm25.28-24.89c0-14.21,7.25-25.48,20.39-25.48s20.39,11.27,20.39,25.48-7.25,25.48-20.39,25.48-20.39-11.27-20.39-25.48Zm29.99,0c0-14.31-3.43-24.5-9.6-24.5s-9.6,10.19-9.6,24.5,3.43,24.5,9.6,24.5,9.6-10.29,9.6-24.5Zm42.34,24.89l-.2-.98c2.94-.49,5.39-.98,5.39-8.23v-25.09c0-8.82-2.06-12.45-7.64-12.45-3.33,0-6.08,1.18-8.53,3.63v33.91c0,7.25,2.45,7.74,5.39,8.23l-.2,.98c-2.65-.2-7.25-.39-8.62-.39h-3.43c-1.37,0-5.98,.2-8.62,.39l-.2-.98c2.94-.49,5.39-.98,5.39-8.23v-31.36c0-7.25-2.45-7.45-5.39-7.64l.1-.98c2.65-.1,7.25-.39,8.62-.59l5.98-.59,.98,5.98c3.53-3.72,7.94-5.98,13.13-5.98,7.15,0,13.33,4.12,13.33,14.11v27.05c0,7.25,2.45,7.74,5.39,8.23l-.2,.98c-2.65-.2-7.25-.39-8.62-.39h-3.43c-1.37,0-5.98,.2-8.62,.39Zm70.36-3.53c-1.96,2.35-5.1,4.12-9.8,4.12-10.88,0-17.64-9.41-17.64-24.6,0-16.07,7.55-26.36,18.13-26.36,4.9,0,7.74,2.16,9.31,5.68v-16.47c0-6.08-2.16-6.66-7.06-6.57v-.98c2.84-.1,5.39-.1,7.74-.39l9.6-.88v60.76c0,7.25,2.45,7.55,5.39,7.94l-.1,.98c-2.65-.1-7.25,0-8.62,.1l-5.98,.39-.98-3.72Zm-6.96,2.16c2.74,0,5.39-1.37,6.96-4.12v-34.2c-.1-5.78-3.43-8.82-7.25-8.82-6.37,0-9.41,8.23-9.41,23.82s2.84,23.33,9.7,23.33Zm50.57-3.33c-2.65,2.65-6.57,5.29-11.47,5.29-6.47,0-12.54-3.43-12.54-12.05,0-11.07,12.15-16.27,23.72-18.52v-6.57c0-6.86-1.96-12.25-7.55-12.25-1.67,0-3.04,.49-4.02,1.27,.1,2.06,.69,4.8,.69,8.43,0,4.12-2.16,6.47-5.59,6.47-2.74,0-4.51-1.96-4.51-5.29,0-8.04,9.7-12.45,17.45-12.45s13.82,4.12,13.82,15.29v26.76c0,1.96,0,5,2.55,5,1.67,0,2.55-.88,3.33-1.76l.78,.59c-2.06,2.65-4.8,5.1-9.21,5.1-3.82,0-6.57-1.86-7.45-5.29Zm-6.47,1.47c2.65,0,4.61-1.08,6.27-2.55-.1-.49-.1-.88-.1-1.37v-21.95l-.78,.29c-8.72,2.74-12.45,8.72-12.45,15.98,0,6.27,2.45,9.6,7.06,9.6Zm29.99-7.25v-37.93h-7.84v-.98c8.62,0,15-6.96,16.17-19.6h1.86v19.6h9.7v.98h-9.6v36.26c0,5.68,.49,9.21,4.31,9.21,2.16,0,4.31-1.08,5.39-1.96l.59,.59c-1.96,2.25-5.98,4.9-11.66,4.9-6.17,0-8.92-3.14-8.92-11.07Zm31.36,10.68c-2.74-.39-4.9-2.55-4.9-5.68,0-3.63,2.74-6.47,6.08-6.47,2.74,0,6.17,1.96,6.17,6.57,0,6.08-5.88,12.74-11.96,15.98l-.78-.88c1.67-1.18,4.9-4.7,5.39-9.51Zm39-3.14c-.88,0-1.57,.59-1.27,2.55h-1.27c-.29-5-1.08-10.39-2.65-14.41l1.18-.39c3.14,8.04,8.72,14.7,17.35,14.7,7.06,0,10.49-4.51,10.49-11.17,0-8.92-6.17-14.51-13.62-21.17-8.04-7.25-14.7-13.33-14.7-21.66s6.86-15.49,17.35-15.49c2.45,0,4.41,.39,6.08,.39s2.74-.39,2.74-2.45l1.18-.39c1.37,4.7,3.72,10.19,5.59,14.21l-1.08,.49c-3.92-7.25-6.27-11.27-13.23-11.27-6.37,0-9.6,3.82-9.6,9.7,0,7.06,4.61,11.56,12.25,18.43,8.04,7.15,16.27,14.6,16.27,24.99s-7.64,16.47-18.52,16.47c-8.04,0-12.05-3.53-14.51-3.53Zm64.39-1.76c-2.65,2.65-6.57,5.29-11.47,5.29-6.47,0-12.54-3.43-12.54-12.05,0-11.07,12.15-16.27,23.72-18.52v-6.57c0-6.86-1.96-12.25-7.55-12.25-1.67,0-3.04,.49-4.02,1.27,.1,2.06,.69,4.8,.69,8.43,0,4.12-2.16,6.47-5.59,6.47-2.74,0-4.51-1.96-4.51-5.29,0-8.04,9.7-12.45,17.45-12.45s13.82,4.12,13.82,15.29v26.76c0,1.96,0,5,2.55,5,1.67,0,2.55-.88,3.33-1.76l.78,.59c-2.06,2.65-4.8,5.1-9.21,5.1-3.82,0-6.57-1.86-7.45-5.29Zm-6.47,1.47c2.65,0,4.61-1.08,6.27-2.55-.1-.49-.1-.88-.1-1.37v-21.95l-.78,.29c-8.72,2.74-12.45,8.72-12.45,15.98,0,6.27,2.45,9.6,7.06,9.6Zm24.79,3.23l-.2-.98c2.94-.49,5.39-.98,5.39-8.23v-50.96c0-7.25-2.45-7.55-5.39-7.74l.1-.98c2.65,0,7.25-.29,8.62-.39l6.96-.69v60.76c0,7.25,2.45,7.74,5.39,8.23l-.2,.98c-2.65-.2-7.25-.39-8.62-.39h-3.43c-1.37,0-5.98,.2-8.62,.39Zm75.95,0l-.2-.98c2.94-.49,5.39-.98,5.39-8.23v-25.48c0-7.06-.39-12.05-6.66-12.05-3.92,0-6.86,1.96-9.31,4.21,.49,1.57,.78,3.53,.78,5.68v27.64c0,7.25,2.45,7.74,5.39,8.23l-.2,.98c-2.65-.2-7.25-.39-8.62-.39h-3.43c-1.37,0-5.98,.2-8.62,.39l-.2-.98c2.94-.49,5.39-.98,5.39-8.23v-25.48c0-6.66-.29-12.05-6.76-12.05-3.53,0-6.37,1.67-8.43,3.53v34.01c0,7.25,2.45,7.74,5.39,8.23l-.2,.98c-2.65-.2-7.25-.39-8.62-.39h-3.43c-1.37,0-5.98,.2-8.62,.39l-.2-.98c2.94-.49,5.39-.98,5.39-8.23v-31.36c0-7.25-2.45-7.45-5.39-7.64l.1-.98c2.65-.1,7.25-.39,8.62-.59l5.98-.59,.88,5.88c3.53-3.53,7.25-5.88,12.84-5.88,4.9,0,9.51,1.76,11.56,6.86,4.02-4.41,7.74-6.86,13.82-6.86,6.76,0,12.84,3.14,12.84,13.52v27.64c0,7.25,2.45,7.74,5.39,8.23l-.2,.98c-2.65-.2-7.25-.39-8.62-.39h-3.43c-1.37,0-5.98,.2-8.62,.39Zm48.31-4.7c-2.65,2.65-6.57,5.29-11.47,5.29-6.47,0-12.54-3.43-12.54-12.05,0-11.07,12.15-16.27,23.72-18.52v-6.57c0-6.86-1.96-12.25-7.55-12.25-1.67,0-3.04,.49-4.02,1.27,.1,2.06,.69,4.8,.69,8.43,0,4.12-2.16,6.47-5.59,6.47-2.74,0-4.51-1.96-4.51-5.29,0-8.04,9.7-12.45,17.45-12.45s13.82,4.12,13.82,15.29v26.76c0,1.96,0,5,2.55,5,1.67,0,2.55-.88,3.33-1.76l.78,.59c-2.06,2.65-4.8,5.1-9.21,5.1-3.82,0-6.57-1.86-7.45-5.29Zm-6.47,1.47c2.65,0,4.61-1.08,6.27-2.55-.1-.49-.1-.88-.1-1.37v-21.95l-.78,.29c-8.72,2.74-12.45,8.72-12.45,15.98,0,6.27,2.45,9.6,7.06,9.6Zm51.25,3.23l-.2-.98c2.94-.49,5.39-.98,5.39-8.23v-25.09c0-8.82-2.06-12.45-7.64-12.45-3.33,0-6.08,1.18-8.53,3.63v33.91c0,7.25,2.45,7.74,5.39,8.23l-.2,.98c-2.65-.2-7.25-.39-8.62-.39h-3.43c-1.37,0-5.98,.2-8.62,.39l-.2-.98c2.94-.49,5.39-.98,5.39-8.23v-31.36c0-7.25-2.45-7.45-5.39-7.64l.1-.98c2.65-.1,7.25-.39,8.62-.59l5.98-.59,.98,5.98c3.53-3.72,7.94-5.98,13.13-5.98,7.15,0,13.33,4.12,13.33,14.11v27.05c0,7.25,2.45,7.74,5.39,8.23l-.2,.98c-2.65-.2-7.25-.39-8.62-.39h-3.43c-1.37,0-5.98,.2-8.62,.39Zm29.69-10.49v-37.93h-7.84v-.98c8.62,0,15-6.96,16.17-19.6h1.86v19.6h9.7v.98h-9.6v36.26c0,5.68,.49,9.21,4.31,9.21,2.16,0,4.31-1.08,5.39-1.96l.59,.59c-1.96,2.25-5.98,4.9-11.66,4.9-6.17,0-8.92-3.14-8.92-11.07Zm23.22,10.49l-.2-.98c2.94-.49,5.39-.98,5.39-8.23v-31.36c0-7.25-2.45-7.55-5.39-7.74l.1-.98c2.65,0,7.25-.29,8.62-.39l6.96-.69v41.16c0,7.25,2.45,7.74,5.39,8.23l-.2,.98c-2.65-.2-7.25-.39-8.62-.39h-3.43c-1.37,0-5.98,.2-8.62,.39Zm4.8-62.33c0-3.14,2.45-5.68,5.59-5.68s5.49,2.55,5.49,5.68-2.45,5.68-5.49,5.68-5.59-2.55-5.59-5.68Zm20.48,37.44c0-14.21,7.15-25.48,18.52-25.48,2.65,0,4.8,.59,6.08,.59,.98,0,1.67-.39,1.67-2.25l.88-.29c.98,4.61,2.55,10.19,4.12,14.31l-.98,.39c-3.23-7.84-5.29-11.66-10-11.66-6.47,0-9.51,7.45-9.51,22.35,0,16.37,3.63,25.29,10.78,25.29,5.19,0,9.41-4.61,11.27-11.07l.98,.2c-2.06,7.84-7.25,13.13-15.19,13.13-10.68,0-18.62-10.49-18.62-25.48Zm61.25,20.19c-2.65,2.65-6.57,5.29-11.47,5.29-6.47,0-12.54-3.43-12.54-12.05,0-11.07,12.15-16.27,23.72-18.52v-6.57c0-6.86-1.96-12.25-7.55-12.25-1.67,0-3.04,.49-4.02,1.27,.1,2.06,.69,4.8,.69,8.43,0,4.12-2.16,6.47-5.59,6.47-2.74,0-4.51-1.96-4.51-5.29,0-8.04,9.7-12.45,17.45-12.45s13.82,4.12,13.82,15.29v26.76c0,1.96,0,5,2.55,5,1.67,0,2.55-.88,3.33-1.76l.78,.59c-2.06,2.65-4.8,5.1-9.21,5.1-3.82,0-6.57-1.86-7.45-5.29Zm-6.47,1.47c2.65,0,4.61-1.08,6.27-2.55-.1-.49-.1-.88-.1-1.37v-21.95l-.78,.29c-8.72,2.74-12.45,8.72-12.45,15.98,0,6.27,2.45,9.6,7.06,9.6Zm68.89,3.23l-.2-.98c2.94-.49,5.39-.98,5.39-8.23v-25.09c0-8.82-2.06-12.45-7.64-12.45-3.33,0-6.08,1.18-8.53,3.63v33.91c0,7.25,2.45,7.74,5.39,8.23l-.2,.98c-2.65-.2-7.25-.39-8.62-.39h-3.43c-1.37,0-5.98,.2-8.62,.39l-.2-.98c2.94-.49,5.39-.98,5.39-8.23v-31.36c0-7.25-2.45-7.45-5.39-7.64l.1-.98c2.65-.1,7.25-.39,8.62-.59l5.98-.59,.98,5.98c3.53-3.72,7.94-5.98,13.13-5.98,7.15,0,13.33,4.12,13.33,14.11v27.05c0,7.25,2.45,7.74,5.39,8.23l-.2,.98c-2.65-.2-7.25-.39-8.62-.39h-3.43c-1.37,0-5.98,.2-8.62,.39Zm25.28-24.89c0-14.21,7.25-25.48,20.39-25.48s20.39,11.27,20.39,25.48-7.25,25.48-20.39,25.48-20.39-11.27-20.39-25.48Zm29.99,0c0-14.31-3.43-24.5-9.6-24.5s-9.6,10.19-9.6,24.5,3.43,24.5,9.6,24.5,9.6-10.29,9.6-24.5Zm42.34,24.89l-.2-.98c2.94-.49,5.39-.98,5.39-8.23v-25.09c0-8.82-2.06-12.45-7.64-12.45-3.33,0-6.08,1.18-8.53,3.63v33.91c0,7.25,2.45,7.74,5.39,8.23l-.2,.98c-2.65-.2-7.25-.39-8.62-.39h-3.43c-1.37,0-5.98,.2-8.62,.39l-.2-.98c2.94-.49,5.39-.98,5.39-8.23v-31.36c0-7.25-2.45-7.45-5.39-7.64l.1-.98c2.65-.1,7.25-.39,8.62-.59l5.98-.59,.98,5.98c3.53-3.72,7.94-5.98,13.13-5.98,7.15,0,13.33,4.12,13.33,14.11v27.05c0,7.25,2.45,7.74,5.39,8.23l-.2,.98c-2.65-.2-7.25-.39-8.62-.39h-3.43c-1.37,0-5.98,.2-8.62,.39Zm57.62-.88v10.29c0,7.25,2.94,7.74,6.47,8.23l-.2,.98c-3.23-.2-8.72-.39-10.39-.39h-2.74c-1.37,0-5.98,.2-8.62,.39l-.2-.98c2.94-.49,5.39-.98,5.39-8.23v-49.98c0-7.25-2.45-7.45-5.39-7.64l.1-.98c2.65-.1,7.25-.39,8.62-.59l5.98-.59,.88,4.7c2.65-2.65,5.78-4.7,10.58-4.7,11.07,0,16.96,10.88,16.96,24.6,0,15.39-7.35,26.36-20.19,26.36-2.84,0-5.29-.59-7.25-1.47Zm6.27,.39c6.57,0,10.39-9.7,10.39-25.48,0-13.92-2.94-21.86-9.41-21.86-2.94,0-5.39,1.67-7.25,3.53v39.89c1.67,2.55,3.82,3.92,6.27,3.92Zm26.26,.49l-.2-.98c2.94-.49,5.39-.98,5.39-8.23v-31.36c0-7.25-2.45-7.45-5.39-7.64l.1-.98c2.65-.1,7.25-.39,8.62-.59l5.98-.59,.98,11.17v.29c1.96-9.21,6.96-11.47,11.17-11.47s7.06,2.16,7.94,3.82c-.39,1.86-2.84,10-3.63,13.13h-.98c-1.08-7.25-3.14-10.88-7.35-10.88-3.53,0-7.15,3.72-7.15,13.53v21.56c0,7.25,2.74,7.74,5.98,8.23l-.29,.98c-2.84-.2-7.94-.39-9.41-.39h-3.14c-1.37,0-5.98,.2-8.62,.39Zm58.12-4.7c-2.65,2.65-6.57,5.29-11.47,5.29-6.47,0-12.54-3.43-12.54-12.05,0-11.07,12.15-16.27,23.72-18.52v-6.57c0-6.86-1.96-12.25-7.55-12.25-1.67,0-3.04,.49-4.02,1.27,.1,2.06,.69,4.8,.69,8.43,0,4.12-2.16,6.47-5.59,6.47-2.74,0-4.51-1.96-4.51-5.29,0-8.04,9.7-12.45,17.45-12.45s13.82,4.12,13.82,15.29v26.76c0,1.96,0,5,2.55,5,1.67,0,2.55-.88,3.33-1.76l.78,.59c-2.06,2.65-4.8,5.1-9.21,5.1-3.82,0-6.57-1.86-7.45-5.29Zm-6.47,1.47c2.65,0,4.61-1.08,6.27-2.55-.1-.49-.1-.88-.1-1.37v-21.95l-.78,.29c-8.72,2.74-12.45,8.72-12.45,15.98,0,6.27,2.45,9.6,7.06,9.6Zm25.58-21.66c0-14.11,7.06-25.48,19.5-25.48,10.68,0,17.25,8.43,17.25,17.94l-25.97,6.66c.2,16.07,4.31,23.91,12.15,23.91,3.82,0,9.21-1.86,11.76-10.88l.98,.2c-1.76,7.84-7.45,13.13-15.98,13.13-12.15,0-19.7-10.88-19.7-25.48Zm22.44-4.9c2.65-.69,3.33-.98,3.33-3.63,0-4.61-1.67-15.98-7.45-15.98s-7.55,10.58-7.55,22.35v.29l11.66-3.04Zm25.48,27.54c-1.27,0-1.37,.88-1.27,1.86h-.98c-.29-2.94-.88-6.96-2.06-11.86l.88-.29c3.33,7.84,7.45,12.05,13.53,12.05,3.82,0,6.47-2.55,6.47-7.06,0-3.92-2.25-6.27-10.39-14.31-7.84-7.74-10.98-11.17-10.98-17.35,0-7.15,5-11.17,12.54-11.17,2.45,0,4.02,.49,5.78,.49,1.47,0,1.86-.88,1.96-2.16l.88-.29c1.18,4.02,2.74,8.92,4.12,11.86l-.98,.49c-2.84-6.57-6.57-9.41-11.07-9.41-3.82,0-6.08,1.96-6.08,5.88,0,3.33,1.27,5,10,13.92,9.7,10,11.76,13.53,11.76,18.82,0,8.53-6.27,11.37-13.03,11.37s-9.11-2.84-11.07-2.84Zm33.42-8.23v-37.93h-7.84v-.98c8.62,0,14.99-6.96,16.17-19.6h1.86v19.6h9.7v.98h-9.6v36.26c0,5.68,.49,9.21,4.31,9.21,2.16,0,4.31-1.08,5.39-1.96l.59,.59c-1.96,2.25-5.98,4.9-11.66,4.9-6.17,0-8.92-3.14-8.92-11.07Zm46.06,5.78c-2.65,2.65-6.57,5.29-11.47,5.29-6.47,0-12.54-3.43-12.54-12.05,0-11.07,12.15-16.27,23.72-18.52v-6.57c0-6.86-1.96-12.25-7.55-12.25-1.67,0-3.04,.49-4.02,1.27,.1,2.06,.69,4.8,.69,8.43,0,4.12-2.16,6.47-5.59,6.47-2.74,0-4.51-1.96-4.51-5.29,0-8.04,9.7-12.45,17.45-12.45s13.82,4.12,13.82,15.29v26.76c0,1.96,0,5,2.55,5,1.67,0,2.55-.88,3.33-1.76l.78,.59c-2.06,2.65-4.8,5.1-9.21,5.1-3.82,0-6.57-1.86-7.45-5.29Zm-6.47,1.47c2.65,0,4.61-1.08,6.27-2.55-.1-.49-.1-.88-.1-1.37v-21.95l-.78,.29c-8.72,2.74-12.45,8.72-12.45,15.98,0,6.27,2.45,9.6,7.06,9.6Zm29.99-7.25v-37.93h-7.84v-.98c8.62,0,14.99-6.96,16.17-19.6h1.86v19.6h9.7v.98h-9.6v36.26c0,5.68,.49,9.21,4.31,9.21,2.16,0,4.31-1.08,5.39-1.96l.59,.59c-1.96,2.25-5.98,4.9-11.66,4.9-6.17,0-8.92-3.14-8.92-11.07Z"/><path class="cls-1" d="M197.73,709.99l-.16-1.3c8.59-.65,11.66-1.94,11.66-12.15v-100.44c-27.7,1.13-44.39,12.8-44.39,30.78,0,11.34,6.64,17.66,15.55,17.66,5.99,0,10.21-2.92,11.18-3.73l.65,.65c-2.43,2.43-7.29,5.35-14.42,5.35-8.75,0-20.9-4.86-20.9-20.25,0-22.03,26.08-32.08,57.67-32.08,38.39,0,50.22,10.37,50.22,26.41,0,12.96-7.94,21.22-21.71,25.27,15.71,3.89,30.29,13.93,30.29,33.05s-14.9,31.91-38.07,31.91c-7.61,0-18.31-1.3-24.62-1.62h-.16c-3.89,0-8.26,.16-12.8,.49Zm53.95-87.97c0-16.52-9.07-24.46-29.97-25.92v51.68c13.45-.65,29.97-4.21,29.97-25.76Zm-18.31,87.81c13.61,0,26.73-9.88,26.73-31.59,0-17.17-8.59-27.54-19.6-31.43-5.51,1.3-11.83,2.11-18.79,2.27v52.97c0,4.05,3.4,7.78,11.66,7.78Zm90.23-8.59c-3.73,4.54-10.21,9.88-19.12,9.88-10.04,0-20.25-6.16-20.25-20.09,0-18.63,19.6-26.89,39.37-30.29v-12.15c0-12.15-2.75-19.76-12.47-19.76-3.89,0-7.13,1.3-9.56,3.24,.49,2.59,1.13,7.29,1.13,11.02,0,5.67-2.75,8.75-7.29,8.75-4.05,0-6.32-2.75-6.32-7.13,0-10.85,13.93-17.82,26.41-17.82,16.36,0,20.25,12.15,20.25,24.3v47.3c0,3.4,0,7.29,3.4,7.29,2.75,0,4.05-2.11,5.35-4.54l1.13,.49c-2.59,6.16-6.48,9.4-11.99,9.4-5.02,0-9.4-2.92-10.04-9.88Zm0-39.2l-4.21,1.3c-14.42,4.54-22.68,12.96-22.68,25.76,0,10.69,5.51,16.2,13.77,16.2,5.83,0,10.21-2.75,13.12-5.83v-37.42Zm34.67,44.39c-1.46,0-1.46,1.94-1.3,3.08h-1.46c-.49-5.02-1.46-11.5-3.4-19.6l1.46-.49c4.37,13.45,11.02,20.41,20.9,20.41,7.61,0,12.96-5.18,12.96-12.64s-6.16-13.61-17.98-24.46c-12.96-11.83-18.31-17.82-18.31-27.54,0-10.37,6.97-18.31,19.44-18.31,4.21,0,6.48,.97,8.91,.97,1.94,0,2.75-.97,3.08-3.56l1.3-.16c1.46,5.99,3.73,13.45,5.83,18.95l-1.46,.49c-3.73-9.23-8.91-15.39-17.01-15.39-6.48,0-11.66,4.05-11.66,12.15,0,5.18,1.94,8.42,15.88,21.71,15.39,14.9,20.25,20.25,20.25,30.13,0,14.42-10.37,18.95-20.09,18.95-10.37,0-15.07-4.7-17.33-4.7Zm47.79-36.94c0-24.3,12.15-42.61,29.48-42.61,15.88,0,25.6,13.45,25.6,30.62l-42.28,9.88v.49c0,20.09,4.21,40.99,19.44,40.99,8.42,0,17.33-7.13,20.57-20.09l1.46,.49c-3.73,13.61-12.47,21.87-25.27,21.87-17.82,0-29-19.12-29-41.63Zm36.13-8.75c3.73-.97,5.51-1.62,5.51-7.45,0-8.26-3.89-25.11-13.45-25.11-8.59,0-15.07,14.26-15.39,37.91l23.33-5.35Zm73.87,41.15c-3.4,4.86-8.59,9.23-16.52,9.23-14.58,0-25.92-15.23-25.92-40.82s11.99-43.42,27.86-43.42c6.97,0,11.83,3.24,14.42,8.91v-26.73c0-10.21-3.08-11.18-11.83-10.69v-1.3c4.54-.16,9.07-.65,12.8-1.13l11.18-1.46v101.58c0,11.02,2.27,11.5,7.94,11.99v1.3c-5.18,0-9.56,.32-12.15,.49l-6.48,.65-1.3-8.59Zm-13.12,6.16c5.67,0,10.04-3.73,12.96-8.91v-57.35c-.49-8.1-6.48-13.12-12.8-13.12-10.85,0-16.69,15.39-16.69,40.82s5.51,38.56,16.52,38.56Zm72.74-39.04c0-23.49,11.99-42.12,30.46-42.12s30.62,18.63,30.62,42.12-11.99,42.12-30.62,42.12-30.46-18.63-30.46-42.12Zm48.28,0c0-22.84-5.67-40.82-17.82-40.82s-17.66,17.98-17.66,40.82,5.67,40.82,17.66,40.82,17.82-18.14,17.82-40.82Zm65.12,40.99l-.16-1.3c5.67-.81,7.78-1.62,7.78-12.64v-42.44c0-13.45-3.08-20.57-13.93-20.57-6.97,0-11.83,2.75-16.52,7.45v55.57c0,11.02,2.11,11.83,7.78,12.64l-.16,1.3c-5.18-.32-9.56-.49-12.15-.49h-3.08c-2.59,0-6.97,.16-12.15,.49l-.16-1.3c5.67-.81,7.78-1.62,7.78-12.64v-54.11c0-10.85-2.27-11.34-8.1-11.5v-1.3c5.18-.32,9.56-.81,12.15-1.3l6.8-.97,1.3,11.83c6.97-7.78,14.26-11.83,22.68-11.83,10.85,0,19.93,6.48,19.93,24.3v44.87c0,11.02,2.11,11.83,7.78,12.64l-.16,1.3c-5.18-.32-9.56-.49-12.15-.49h-3.08c-2.59,0-6.97,.16-12.15,.49Zm105.46,0l-.16-1.3c5.51-.81,7.78-1.62,7.78-12.64v-89.75c0-6.48-3.08-8.26-9.23-8.26-8.59,0-20.9,3.73-20.9,15.39,0,7.61,5.02,14.09,17.98,15.07h.32v1.3h-16.04v65.45c0,6.64,.32,12.15,5.83,12.15,3.24,0,6.16-1.94,8.42-4.05l.81,.81c-3.24,3.73-8.1,6.97-15.23,6.97-8.42,0-11.99-4.54-11.99-13.61v-67.72h-12.8v-1.3h32.56c-10.69-2.27-17.5-7.78-17.5-15.23,0-11.99,15.88-15.71,30.29-17.01l19.6-1.78v43.9c6.97-7.45,14.26-11.5,22.68-11.5,10.85,0,19.93,6.48,19.93,24.3v44.87c0,11.02,2.11,11.83,7.78,12.64l-.16,1.3c-5.18-.32-9.56-.49-12.15-.49h-3.08c-2.59,0-6.97,.16-12.15,.49l-.16-1.3c5.67-.81,7.78-1.62,7.78-12.64v-42.44c0-13.45-3.24-20.57-13.93-20.57-6.97,0-11.83,2.59-16.52,7.29v55.73c0,11.02,2.11,11.83,7.78,12.64l-.32,1.3c-5.18-.32-9.4-.49-11.99-.49h-3.08c-2.59,0-6.97,.16-12.15,.49Zm78.89-40.5c0-24.3,12.15-42.61,29.48-42.61,15.88,0,25.6,13.45,25.6,30.62l-42.28,9.88v.49c0,20.09,4.21,40.99,19.44,40.99,8.42,0,17.33-7.13,20.57-20.09l1.46,.49c-3.73,13.61-12.47,21.87-25.27,21.87-17.82,0-29-19.12-29-41.63Zm36.13-8.75c3.73-.97,5.51-1.62,5.51-7.45,0-8.26-3.89-25.11-13.45-25.11-8.59,0-15.07,14.26-15.39,37.91l23.33-5.35Zm58.97,49.25l-.16-1.3c5.67-.81,7.78-1.62,7.78-12.64v-86.51c0-11.02-2.27-11.5-7.94-11.66v-1.3c5.18-.16,9.4-.65,11.99-.97l8.1-1.13v101.58c0,11.02,2.11,11.83,7.78,12.64l-.16,1.3c-5.18-.32-9.56-.49-12.15-.49h-3.08c-2.59,0-6.97,.16-12.15,.49Zm36.77-40.5c0-24.3,12.15-42.61,29.48-42.61,15.88,0,25.6,13.45,25.6,30.62l-42.28,9.88v.49c0,20.09,4.21,40.99,19.44,40.99,8.42,0,17.33-7.13,20.57-20.09l1.46,.49c-3.73,13.61-12.47,21.87-25.27,21.87-17.82,0-29-19.12-29-41.63Zm36.13-8.75c3.73-.97,5.51-1.62,5.51-7.45,0-8.26-3.89-25.11-13.45-25.11-8.59,0-15.07,14.26-15.39,37.91l23.33-5.35Zm37.42,36.77v-67.72h-12.8v-1.3c14.26,0,21.06-11.5,23-32.4h1.78v32.4h14.9c14.26,0,20.9-11.5,22.84-32.4h1.94v32.4h16.2v1.3h-16.04v65.45c0,6.64,.16,12.15,5.67,12.15,3.4,0,6.32-1.94,8.42-4.05l.97,.81c-3.4,3.73-8.26,6.97-15.39,6.97-8.42,0-11.83-4.54-11.83-13.61v-67.72h-27.54v65.45c0,6.64,.32,12.15,5.83,12.15,3.24,0,6.16-1.94,8.42-4.05l.81,.81c-3.24,3.73-8.1,6.97-15.23,6.97-8.42,0-11.99-4.54-11.99-13.61Zm71.6-28.03c0-24.3,12.15-42.61,29.48-42.61,15.88,0,25.6,13.45,25.6,30.62l-42.28,9.88v.49c0,20.09,4.21,40.99,19.44,40.99,8.42,0,17.33-7.13,20.57-20.09l1.46,.49c-3.73,13.61-12.47,21.87-25.27,21.87-17.82,0-29-19.12-29-41.63Zm36.13-8.75c3.73-.97,5.51-1.62,5.51-7.45,0-8.26-3.89-25.11-13.45-25.11-8.59,0-15.07,14.26-15.39,37.91l23.33-5.35Zm28.67,49.25l-.16-1.3c5.67-.81,7.78-1.62,7.78-12.64v-54.11c0-10.85-2.27-11.34-8.1-11.5l.16-1.3c5.02-.32,9.4-.81,11.99-1.3l6.8-.97,1.3,18.47v1.78c3.4-16.04,11.34-20.25,17.66-20.25,5.67,0,10.04,3.24,11.83,6.32-.65,3.08-3.73,12.64-5.02,17.5h-.97c-1.94-10.21-5.18-15.23-10.69-15.23-5.99,0-12.8,7.13-12.8,23.81v36.77c0,11.02,2.43,11.83,8.59,12.64l-.16,1.3c-5.83-.32-10.53-.49-13.45-.49h-2.59c-2.59,0-6.97,.16-12.15,.49Zm55.08,0l-.16-1.3c5.67-.81,7.78-1.62,7.78-12.64v-54.11c0-11.02-2.27-11.5-8.1-11.66l.16-1.3c5.18-.16,9.4-.65,11.99-.97l7.94-1.13v69.18c0,11.02,2.27,11.83,7.78,12.64l-.16,1.3c-5.18-.32-9.56-.49-12.15-.49h-2.92c-2.59,0-6.97,.16-12.15,.49Zm5.35-102.87c0-4.37,3.56-8.1,8.1-8.1s7.94,3.73,7.94,8.1-3.56,8.1-7.94,8.1-8.1-3.73-8.1-8.1Zm71.44,102.87l-.16-1.3c5.67-.81,7.78-1.62,7.78-12.64v-42.44c0-13.45-3.08-20.57-13.93-20.57-6.97,0-11.83,2.75-16.52,7.45v55.57c0,11.02,2.11,11.83,7.78,12.64l-.16,1.3c-5.18-.32-9.56-.49-12.15-.49h-3.08c-2.59,0-6.97,.16-12.15,.49l-.16-1.3c5.67-.81,7.78-1.62,7.78-12.64v-54.11c0-10.85-2.27-11.34-8.1-11.5v-1.3c5.18-.32,9.56-.81,12.15-1.3l6.8-.97,1.3,11.83c6.97-7.78,14.26-11.83,22.68-11.83,10.85,0,19.93,6.48,19.93,24.3v44.87c0,11.02,2.11,11.83,7.78,12.64l-.16,1.3c-5.18-.32-9.56-.49-12.15-.49h-3.08c-2.59,0-6.97,.16-12.15,.49Zm33.21,14.58c0-9.72,9.23-16.04,18.79-18.95l-4.05-1.46c-6.8-2.59-8.75-5.67-8.75-9.23,0-5.18,3.89-8.59,10.04-11.5-9.23-4.37-13.93-14.74-13.93-27.38,0-17.66,9.4-29.16,25.76-29.16,4.21,0,7.94,.81,11.02,2.27,1.78-8.91,5.83-13.61,11.5-13.61s8.26,4.54,8.26,7.94-2.59,6.32-6.64,6.32c-4.54,0-6.32-3.56-7.29-5.51-1.46,.49-3.73,2.43-4.54,5.51,8.59,4.54,12.47,14.58,12.47,25.92,0,17.66-9.72,30.13-25.76,30.13-3.4,0-6.48-.65-9.23-1.62-1.78,.97-2.92,2.27-2.92,4.05,0,2.92,3.56,4.7,9.56,6.8l9.88,3.56c14.9,5.35,25.92,11.02,25.92,22.03,0,11.66-12.15,21.22-32.56,21.22-17.82,0-27.54-7.13-27.54-17.33Zm29.48,16.04c12.96,0,20.74-5.99,20.74-14.42,0-9.23-9.88-12.8-22.68-17.5l-6.97-2.43c-7.78,4.37-11.66,9.07-11.66,17.01,0,10.21,6.64,17.33,20.57,17.33Zm10.69-84.24c0-20.25-4.37-28.19-12.8-28.19s-12.8,7.94-12.8,28.19,4.37,28.19,12.8,28.19,12.8-8.1,12.8-28.19Zm63.18,50.06c-1.46,0-1.46,1.94-1.3,3.08h-1.46c-.49-5.02-1.46-11.5-3.4-19.6l1.46-.49c4.37,13.45,11.02,20.41,20.9,20.41,7.61,0,12.96-5.18,12.96-12.64s-6.16-13.61-17.98-24.46c-12.96-11.83-18.31-17.82-18.31-27.54,0-10.37,6.97-18.31,19.44-18.31,4.21,0,6.48,.97,8.91,.97,1.94,0,2.75-.97,3.08-3.56l1.3-.16c1.46,5.99,3.73,13.45,5.83,18.95l-1.46,.49c-3.73-9.23-8.91-15.39-17.01-15.39-6.48,0-11.66,4.05-11.66,12.15,0,5.18,1.94,8.42,15.88,21.71,15.39,14.9,20.25,20.25,20.25,30.13,0,14.42-10.37,18.95-20.09,18.95-10.37,0-15.07-4.7-17.33-4.7Zm44.39,3.56l-.16-1.3c5.67-.81,7.78-1.62,7.78-12.64v-54.11c0-11.02-2.27-11.5-8.1-11.66l.16-1.3c5.18-.16,9.4-.65,11.99-.97l7.94-1.13v69.18c0,11.02,2.27,11.83,7.78,12.64l-.16,1.3c-5.18-.32-9.56-.49-12.15-.49h-2.92c-2.59,0-6.97,.16-12.15,.49Zm5.35-102.87c0-4.37,3.56-8.1,8.1-8.1s7.94,3.73,7.94,8.1-3.56,8.1-7.94,8.1-8.1-3.73-8.1-8.1Zm28.03,117.45c0-9.72,9.23-16.04,18.79-18.95l-4.05-1.46c-6.8-2.59-8.75-5.67-8.75-9.23,0-5.18,3.89-8.59,10.04-11.5-9.23-4.37-13.93-14.74-13.93-27.38,0-17.66,9.4-29.16,25.76-29.16,4.21,0,7.94,.81,11.02,2.27,1.78-8.91,5.83-13.61,11.5-13.61s8.26,4.54,8.26,7.94-2.59,6.32-6.64,6.32c-4.54,0-6.32-3.56-7.29-5.51-1.46,.49-3.73,2.43-4.54,5.51,8.59,4.54,12.47,14.58,12.47,25.92,0,17.66-9.72,30.13-25.76,30.13-3.4,0-6.48-.65-9.23-1.62-1.78,.97-2.92,2.27-2.92,4.05,0,2.92,3.56,4.7,9.56,6.8l9.88,3.56c14.9,5.35,25.92,11.02,25.92,22.03,0,11.66-12.15,21.22-32.56,21.22-17.82,0-27.54-7.13-27.54-17.33Zm29.48,16.04c12.96,0,20.74-5.99,20.74-14.42,0-9.23-9.88-12.8-22.68-17.5l-6.97-2.43c-7.78,4.37-11.66,9.07-11.66,17.01,0,10.21,6.64,17.33,20.57,17.33Zm10.69-84.24c0-20.25-4.37-28.19-12.8-28.19s-12.8,7.94-12.8,28.19,4.37,28.19,12.8,28.19,12.8-8.1,12.8-28.19Zm68.04,53.62l-.16-1.3c5.67-.81,7.78-1.62,7.78-12.64v-42.44c0-13.45-3.08-20.57-13.93-20.57-6.97,0-11.83,2.75-16.52,7.45v55.57c0,11.02,2.11,11.83,7.78,12.64l-.16,1.3c-5.18-.32-9.56-.49-12.15-.49h-3.08c-2.59,0-6.97,.16-12.15,.49l-.16-1.3c5.67-.81,7.78-1.62,7.78-12.64v-54.11c0-10.85-2.27-11.34-8.1-11.5v-1.3c5.18-.32,9.56-.81,12.15-1.3l6.8-.97,1.3,11.83c6.97-7.78,14.26-11.83,22.68-11.83,10.85,0,19.93,6.48,19.93,24.3v44.87c0,11.02,2.11,11.83,7.78,12.64l-.16,1.3c-5.18-.32-9.56-.49-12.15-.49h-3.08c-2.59,0-6.97,.16-12.15,.49Zm41.47-3.56c-1.46,0-1.46,1.94-1.3,3.08h-1.46c-.49-5.02-1.46-11.5-3.4-19.6l1.46-.49c4.37,13.45,11.02,20.41,20.9,20.41,7.61,0,12.96-5.18,12.96-12.64s-6.16-13.61-17.98-24.46c-12.96-11.83-18.31-17.82-18.31-27.54,0-10.37,6.97-18.31,19.44-18.31,4.21,0,6.48,.97,8.91,.97,1.94,0,2.75-.97,3.08-3.56l1.3-.16c1.46,5.99,3.73,13.45,5.83,18.95l-1.46,.49c-3.73-9.23-8.91-15.39-17.01-15.39-6.48,0-11.66,4.05-11.66,12.15,0,5.18,1.94,8.42,15.88,21.71,15.39,14.9,20.25,20.25,20.25,30.13,0,14.42-10.37,18.95-20.09,18.95-10.37,0-15.07-4.7-17.33-4.7Z"/><path class="cls-1" d="M137.87,902.93v18.31c0,11.02,2.59,11.83,9.4,12.64l-.32,1.3c-6.16-.32-11.34-.49-14.58-.49h-2.11c-2.59,0-6.97,.16-12.15,.49l-.16-1.3c5.67-.81,7.78-1.62,7.78-12.64v-84.89c0-10.85-2.27-11.34-8.1-11.5l.16-1.3c5.02-.32,9.4-.81,11.99-1.3l6.8-.97,1.13,7.45c4.37-4.21,9.88-7.45,16.85-7.45,16.04,0,25.6,17.17,25.6,40.18,0,26.24-12.64,44.06-31.1,44.06-4.21,0-8.1-.97-11.18-2.59Zm11.02,1.3c12.15,0,18.47-16.36,18.47-42.28,0-22.03-4.54-37.58-16.85-37.58-5.02,0-9.23,2.75-12.64,6.32v66.1c2.75,4.7,6.16,7.45,11.02,7.45Zm81.32-8.59c-3.73,4.54-10.21,9.88-19.12,9.88-10.04,0-20.25-6.16-20.25-20.09,0-18.63,19.6-26.89,39.37-30.29v-12.15c0-12.15-2.75-19.76-12.47-19.76-3.89,0-7.13,1.3-9.56,3.24,.49,2.59,1.13,7.29,1.13,11.02,0,5.67-2.75,8.75-7.29,8.75-4.05,0-6.32-2.75-6.32-7.13,0-10.85,13.93-17.82,26.41-17.82,16.36,0,20.25,12.15,20.25,24.3v47.3c0,3.4,0,7.29,3.4,7.29,2.75,0,4.05-2.11,5.35-4.54l1.13,.49c-2.59,6.16-6.48,9.4-11.99,9.4-5.02,0-9.4-2.92-10.04-9.88Zm0-39.2l-4.21,1.3c-14.42,4.54-22.68,12.96-22.68,25.76,0,10.69,5.51,16.2,13.77,16.2,5.83,0,10.21-2.75,13.12-5.83v-37.42Zm27.21,47.95l-.16-1.3c5.67-.81,7.78-1.62,7.78-12.64v-54.11c0-11.02-2.27-11.5-8.1-11.66l.16-1.3c5.18-.16,9.4-.65,11.99-.97l7.94-1.13v69.18c0,11.02,2.27,11.83,7.78,12.64l-.16,1.3c-5.18-.32-9.56-.49-12.15-.49h-2.92c-2.59,0-6.97,.16-12.15,.49Zm5.35-102.87c0-4.37,3.56-8.1,8.1-8.1s7.94,3.73,7.94,8.1-3.56,8.1-7.94,8.1-8.1-3.73-8.1-8.1Zm71.44,102.87l-.16-1.3c5.67-.81,7.78-1.62,7.78-12.64v-42.44c0-13.45-3.08-20.57-13.93-20.57-6.97,0-11.83,2.75-16.52,7.45v55.57c0,11.02,2.11,11.83,7.78,12.64l-.16,1.3c-5.18-.32-9.56-.49-12.15-.49h-3.08c-2.59,0-6.97,.16-12.15,.49l-.16-1.3c5.67-.81,7.78-1.62,7.78-12.64v-54.11c0-10.85-2.27-11.34-8.1-11.5v-1.3c5.18-.32,9.56-.81,12.15-1.3l6.8-.97,1.3,11.83c6.97-7.78,14.26-11.83,22.68-11.83,10.85,0,19.93,6.48,19.93,24.3v44.87c0,11.02,2.11,11.83,7.78,12.64l-.16,1.3c-5.18-.32-9.56-.49-12.15-.49h-3.08c-2.59,0-6.97,.16-12.15,.49Zm42.77-12.47v-67.72h-12.8v-1.3c14.26,0,21.06-11.5,23-32.4h1.78v32.4h16.2v1.3h-16.04v65.45c0,6.64,.32,12.15,5.83,12.15,3.24,0,6.16-1.94,8.42-4.05l.81,.81c-3.24,3.73-8.1,6.97-15.23,6.97-8.42,0-11.99-4.54-11.99-13.61Zm31.91-28.03c0-24.3,12.15-42.61,29.48-42.61,15.88,0,25.6,13.45,25.6,30.62l-42.28,9.88v.49c0,20.09,4.21,40.99,19.44,40.99,8.42,0,17.33-7.13,20.57-20.09l1.46,.49c-3.73,13.61-12.47,21.87-25.27,21.87-17.82,0-29-19.12-29-41.63Zm36.13-8.75c3.73-.97,5.51-1.62,5.51-7.45,0-8.26-3.89-25.11-13.45-25.11-8.59,0-15.07,14.26-15.39,37.91l23.33-5.35Zm73.87,41.15c-3.4,4.86-8.59,9.23-16.52,9.23-14.58,0-25.92-15.23-25.92-40.82s11.99-43.42,27.86-43.42c6.97,0,11.83,3.24,14.42,8.91v-26.73c0-10.21-3.08-11.18-11.83-10.69v-1.3c4.54-.16,9.07-.65,12.8-1.13l11.18-1.46v101.58c0,11.02,2.27,11.5,7.94,11.99v1.3c-5.18,0-9.56,.32-12.15,.49l-6.48,.65-1.3-8.59Zm-13.12,6.16c5.67,0,10.04-3.73,12.96-8.91v-57.35c-.49-8.1-6.48-13.12-12.8-13.12-10.85,0-16.69,15.39-16.69,40.82s5.51,38.56,16.52,38.56Zm72.74-39.04c0-23.49,11.99-42.12,30.46-42.12s30.62,18.63,30.62,42.12-11.99,42.12-30.62,42.12-30.46-18.63-30.46-42.12Zm48.28,0c0-22.84-5.67-40.82-17.82-40.82s-17.66,17.98-17.66,40.82,5.67,40.82,17.66,40.82,17.82-18.14,17.82-40.82Zm65.12,40.99l-.16-1.3c5.67-.81,7.78-1.62,7.78-12.64v-42.44c0-13.45-3.08-20.57-13.93-20.57-6.97,0-11.83,2.75-16.52,7.45v55.57c0,11.02,2.11,11.83,7.78,12.64l-.16,1.3c-5.18-.32-9.56-.49-12.15-.49h-3.08c-2.59,0-6.97,.16-12.15,.49l-.16-1.3c5.67-.81,7.78-1.62,7.78-12.64v-54.11c0-10.85-2.27-11.34-8.1-11.5v-1.3c5.18-.32,9.56-.81,12.15-1.3l6.8-.97,1.3,11.83c6.97-7.78,14.26-11.83,22.68-11.83,10.85,0,19.93,6.48,19.93,24.3v44.87c0,11.02,2.11,11.83,7.78,12.64l-.16,1.3c-5.18-.32-9.56-.49-12.15-.49h-3.08c-2.59,0-6.97,.16-12.15,.49Zm105.46,0l-.16-1.3c5.51-.81,7.78-1.62,7.78-12.64v-89.75c0-6.48-3.08-8.26-9.23-8.26-8.59,0-20.9,3.73-20.9,15.39,0,7.61,5.02,14.09,17.98,15.07h.32v1.3h-16.04v65.45c0,6.64,.32,12.15,5.83,12.15,3.24,0,6.16-1.94,8.42-4.05l.81,.81c-3.24,3.73-8.1,6.97-15.23,6.97-8.42,0-11.99-4.54-11.99-13.61v-67.72h-12.8v-1.3h32.56c-10.69-2.27-17.5-7.78-17.5-15.23,0-11.99,15.88-15.71,30.29-17.01l19.6-1.78v43.9c6.97-7.45,14.26-11.5,22.68-11.5,10.85,0,19.93,6.48,19.93,24.3v44.87c0,11.02,2.11,11.83,7.78,12.64l-.16,1.3c-5.18-.32-9.56-.49-12.15-.49h-3.08c-2.59,0-6.97,.16-12.15,.49l-.16-1.3c5.67-.81,7.78-1.62,7.78-12.64v-42.44c0-13.45-3.24-20.57-13.93-20.57-6.97,0-11.83,2.59-16.52,7.29v55.73c0,11.02,2.11,11.83,7.78,12.64l-.32,1.3c-5.18-.32-9.4-.49-11.99-.49h-3.08c-2.59,0-6.97,.16-12.15,.49Zm78.89-40.5c0-24.3,12.15-42.61,29.48-42.61,15.88,0,25.6,13.45,25.6,30.62l-42.28,9.88v.49c0,20.09,4.21,40.99,19.44,40.99,8.42,0,17.33-7.13,20.57-20.09l1.46,.49c-3.73,13.61-12.47,21.87-25.27,21.87-17.82,0-29-19.12-29-41.63Zm36.13-8.75c3.73-.97,5.51-1.62,5.51-7.45,0-8.26-3.89-25.11-13.45-25.11-8.59,0-15.07,14.26-15.39,37.91l23.33-5.35Zm61.24,8.26c0-23.49,11.99-42.12,30.46-42.12s30.62,18.63,30.62,42.12-11.99,42.12-30.62,42.12-30.46-18.63-30.46-42.12Zm48.28,0c0-22.84-5.67-40.82-17.82-40.82s-17.66,17.98-17.66,40.82,5.67,40.82,17.66,40.82,17.82-18.14,17.82-40.82Zm22.52,40.99l-.16-1.3c5.67-.81,7.78-1.62,7.78-12.64v-86.51c0-11.02-2.27-11.5-7.94-11.66v-1.3c5.18-.16,9.4-.65,11.99-.97l8.1-1.13v101.58c0,11.02,2.11,11.83,7.78,12.64l-.16,1.3c-5.18-.32-9.56-.49-12.15-.49h-3.08c-2.59,0-6.97,.16-12.15,.49Zm79.22-8.1c-3.4,4.86-8.59,9.23-16.52,9.23-14.58,0-25.92-15.23-25.92-40.82s11.99-43.42,27.86-43.42c6.97,0,11.83,3.24,14.42,8.91v-26.73c0-10.21-3.08-11.18-11.83-10.69v-1.3c4.54-.16,9.07-.65,12.8-1.13l11.18-1.46v101.58c0,11.02,2.27,11.5,7.94,11.99v1.3c-5.18,0-9.56,.32-12.15,.49l-6.48,.65-1.3-8.59Zm-13.12,6.16c5.67,0,10.04-3.73,12.96-8.91v-57.35c-.49-8.1-6.48-13.12-12.8-13.12-10.85,0-16.69,15.39-16.69,40.82s5.51,38.56,16.52,38.56Zm80.35-2.75c-2.11,0-2.75,2.59-2.59,4.21h-1.78c-.49-8.26-1.94-16.69-4.37-23.33l1.62-.65c5.35,14.09,13.45,24.3,27.86,24.3,12.96,0,19.44-8.1,19.44-20.41,0-14.26-8.59-22.36-23.33-35.96-15.23-14.09-23.49-22.36-23.49-35.32s8.1-23.65,27.38-23.65c4.21,0,7.61,.49,9.88,.49,2.75,0,3.73-.65,3.73-3.89l1.62-.49c3.24,9.56,6.48,17.5,9.23,22.84l-1.62,.81c-4.86-9.56-9.4-18.47-22.19-18.47-11.5,0-17.01,7.45-17.01,17.66s5.83,17.66,19.6,30.13c14.26,12.8,27.05,24.46,27.05,41.47,0,14.9-10.04,26.08-28.67,26.08-13.45,0-18.95-5.83-22.36-5.83Zm103.18-4.05c-3.73,4.54-10.21,9.88-19.12,9.88-10.04,0-20.25-6.16-20.25-20.09,0-18.63,19.6-26.89,39.37-30.29v-12.15c0-12.15-2.75-19.76-12.47-19.76-3.89,0-7.13,1.3-9.56,3.24,.49,2.59,1.13,7.29,1.13,11.02,0,5.67-2.75,8.75-7.29,8.75-4.05,0-6.32-2.75-6.32-7.13,0-10.85,13.93-17.82,26.41-17.82,16.36,0,20.25,12.15,20.25,24.3v47.3c0,3.4,0,7.29,3.4,7.29,2.75,0,4.05-2.11,5.35-4.54l1.13,.49c-2.59,6.16-6.48,9.4-11.99,9.4-5.02,0-9.4-2.92-10.04-9.88Zm0-39.2l-4.21,1.3c-14.42,4.54-22.68,12.96-22.68,25.76,0,10.69,5.51,16.2,13.77,16.2,5.83,0,10.21-2.75,13.12-5.83v-37.42Zm27.21,47.95l-.16-1.3c5.67-.81,7.78-1.62,7.78-12.64v-86.51c0-11.02-2.27-11.5-7.94-11.66v-1.3c5.18-.16,9.4-.65,11.99-.97l8.1-1.13v101.58c0,11.02,2.11,11.83,7.78,12.64l-.16,1.3c-5.18-.32-9.56-.49-12.15-.49h-3.08c-2.59,0-6.97,.16-12.15,.49Zm74.52-8.75c-3.73,4.54-10.21,9.88-19.12,9.88-10.04,0-20.25-6.16-20.25-20.09,0-18.63,19.6-26.89,39.37-30.29v-12.15c0-12.15-2.75-19.76-12.47-19.76-3.89,0-7.13,1.3-9.56,3.24,.49,2.59,1.13,7.29,1.13,11.02,0,5.67-2.75,8.75-7.29,8.75-4.05,0-6.32-2.75-6.32-7.13,0-10.85,13.93-17.82,26.41-17.82,16.36,0,20.25,12.15,20.25,24.3v47.3c0,3.4,0,7.29,3.4,7.29,2.75,0,4.05-2.11,5.35-4.54l1.13,.49c-2.59,6.16-6.48,9.4-11.99,9.4-5.02,0-9.4-2.92-10.04-9.88Zm0-39.2l-4.21,1.3c-14.42,4.54-22.68,12.96-22.68,25.76,0,10.69,5.51,16.2,13.77,16.2,5.83,0,10.21-2.75,13.12-5.83v-37.42Zm107.41,47.95l-.16-1.3c5.67-.81,7.78-1.62,7.78-12.64v-43.09c0-11.02-1.13-19.93-12.64-19.93-6.32,0-11.02,2.92-16.2,8.1,.65,2.75,.97,5.99,.97,9.88v45.04c0,11.02,2.11,11.83,7.78,12.64l-.32,1.3c-5.18-.32-9.4-.49-11.99-.49h-3.08c-2.75,0-6.97,.16-12.15,.49l-.16-1.3c5.51-.81,7.78-1.62,7.78-12.64v-43.09c0-10.85-1.3-19.93-12.8-19.93-6.16,0-10.69,2.59-15.23,6.97v56.05c0,11.02,2.11,11.83,7.78,12.64l-.16,1.3c-5.18-.32-9.56-.49-12.15-.49h-3.08c-2.59,0-6.97,.16-12.15,.49l-.16-1.3c5.67-.81,7.78-1.62,7.78-12.64v-54.11c0-10.85-2.27-11.34-8.1-11.5v-1.3c5.18-.32,9.56-.81,12.15-1.3l6.8-.97,1.13,11.18c6.16-6.8,12.64-11.18,21.55-11.18,6.97,0,14.26,2.75,17.33,12.64,6.97-7.94,13.45-12.64,22.68-12.64s18.79,4.7,18.79,24.14v45.04c0,11.02,2.11,11.83,7.78,12.64l-.16,1.3c-5.18-.32-9.56-.49-12.15-.49h-3.08c-2.59,0-6.97,.16-12.15,.49Zm74.03-8.75c-3.73,4.54-10.21,9.88-19.12,9.88-10.04,0-20.25-6.16-20.25-20.09,0-18.63,19.6-26.89,39.37-30.29v-12.15c0-12.15-2.75-19.76-12.47-19.76-3.89,0-7.13,1.3-9.56,3.24,.49,2.59,1.13,7.29,1.13,11.02,0,5.67-2.75,8.75-7.29,8.75-4.05,0-6.32-2.75-6.32-7.13,0-10.85,13.93-17.82,26.41-17.82,16.36,0,20.25,12.15,20.25,24.3v47.3c0,3.4,0,7.29,3.4,7.29,2.75,0,4.05-2.11,5.35-4.54l1.13,.49c-2.59,6.16-6.48,9.4-11.99,9.4-5.02,0-9.4-2.92-10.04-9.88Zm0-39.2l-4.21,1.3c-14.42,4.54-22.68,12.96-22.68,25.76,0,10.69,5.51,16.2,13.77,16.2,5.83,0,10.21-2.75,13.12-5.83v-37.42Zm69.82,47.95l-.16-1.3c5.67-.81,7.78-1.62,7.78-12.64v-42.44c0-13.45-3.08-20.57-13.93-20.57-6.97,0-11.83,2.75-16.52,7.45v55.57c0,11.02,2.11,11.83,7.78,12.64l-.16,1.3c-5.18-.32-9.56-.49-12.15-.49h-3.08c-2.59,0-6.97,.16-12.15,.49l-.16-1.3c5.67-.81,7.78-1.62,7.78-12.64v-54.11c0-10.85-2.27-11.34-8.1-11.5v-1.3c5.18-.32,9.56-.81,12.15-1.3l6.8-.97,1.3,11.83c6.97-7.78,14.26-11.83,22.68-11.83,10.85,0,19.93,6.48,19.93,24.3v44.87c0,11.02,2.11,11.83,7.78,12.64l-.16,1.3c-5.18-.32-9.56-.49-12.15-.49h-3.08c-2.59,0-6.97,.16-12.15,.49Zm36.29-40.5c0-24.46,12.47-42.61,29.65-42.61,3.89,0,6.8,.97,8.91,.97,1.62,0,2.59-.65,2.75-3.56l1.46-.16c1.62,7.61,4.54,17.17,6.8,23.33l-1.3,.65c-4.37-11.34-8.59-19.93-17.66-19.93-12.96,0-17.82,17.33-17.82,40.66,0,26.41,6.16,40.18,17.82,40.18,9.07,0,17.01-8.26,20.09-20.25l1.46,.32c-3.56,13.77-12.47,22.03-23.98,22.03-16.69,0-28.19-18.31-28.19-41.63Zm98.82,31.75c-3.73,4.54-10.21,9.88-19.12,9.88-10.04,0-20.25-6.16-20.25-20.09,0-18.63,19.6-26.89,39.37-30.29v-12.15c0-12.15-2.75-19.76-12.47-19.76-3.89,0-7.13,1.3-9.56,3.24,.49,2.59,1.13,7.29,1.13,11.02,0,5.67-2.75,8.75-7.29,8.75-4.05,0-6.32-2.75-6.32-7.13,0-10.85,13.93-17.82,26.41-17.82,16.36,0,20.25,12.15,20.25,24.3v47.3c0,3.4,0,7.29,3.4,7.29,2.75,0,4.05-2.11,5.35-4.54l1.13,.49c-2.59,6.16-6.48,9.4-11.99,9.4-5.02,0-9.4-2.92-10.04-9.88Zm0-39.2l-4.21,1.3c-14.42,4.54-22.68,12.96-22.68,25.76,0,10.69,5.51,16.2,13.77,16.2,5.83,0,10.21-2.75,13.12-5.83v-37.42Z"/><path class="cls-1" d="M543.91,1056.18v-69.99h-1.62c-28.03,0-42.77,7.78-42.77,26.08,0,12.15,6.64,18.31,15.55,18.31,5.99,0,10.04-2.92,11.18-3.89l.65,.65c-2.43,2.43-7.29,5.35-14.26,5.35-8.91,0-21.06-4.86-21.06-20.57,0-23.17,27.22-27.22,51.03-27.22h12.64c3.73,0,8.26-.16,12.8-.49l.16,1.3c-8.75,.65-11.66,1.94-11.66,12.15v58.48c0,26.89,5.02,41.8,22.52,41.8,18.63,0,27.38-15.55,27.38-44.23v-56.05c0-10.21-3.08-11.5-11.66-12.15l.16-1.3c4.37,.32,8.59,.49,12.31,.49s7.78-.16,12.31-.49l.16,1.3c-8.75,.65-11.66,1.94-11.66,12.15v55.89c0,26.08-6.48,46.17-31.1,46.17-22.36,0-33.05-14.42-33.05-43.74Zm122.63,42.61l-.16-1.3c5.67-.81,7.78-1.62,7.78-12.64v-42.44c0-13.45-3.08-20.57-13.93-20.57-6.97,0-11.83,2.75-16.52,7.45v55.57c0,11.02,2.11,11.83,7.78,12.64l-.16,1.3c-5.18-.32-9.56-.49-12.15-.49h-3.08c-2.59,0-6.97,.16-12.15,.49l-.16-1.3c5.67-.81,7.78-1.62,7.78-12.64v-54.11c0-10.85-2.27-11.34-8.1-11.5v-1.3c5.18-.32,9.56-.81,12.15-1.3l6.8-.97,1.3,11.83c6.97-7.78,14.26-11.83,22.68-11.83,10.85,0,19.93,6.48,19.93,24.3v44.87c0,11.02,2.11,11.83,7.78,12.64l-.16,1.3c-5.18-.32-9.56-.49-12.15-.49h-3.08c-2.59,0-6.97,.16-12.15,.49Zm34.02,0l-.16-1.3c5.67-.81,7.78-1.62,7.78-12.64v-54.11c0-11.02-2.27-11.5-8.1-11.66l.16-1.3c5.18-.16,9.4-.65,11.99-.97l7.94-1.13v69.18c0,11.02,2.27,11.83,7.78,12.64l-.16,1.3c-5.18-.32-9.56-.49-12.15-.49h-2.92c-2.59,0-6.97,.16-12.15,.49Zm5.35-102.87c0-4.37,3.56-8.1,8.1-8.1s7.94,3.73,7.94,8.1-3.56,8.1-7.94,8.1-8.1-3.73-8.1-8.1Zm23,22.19l.16-1.3c4.86,.32,8.91,.49,11.34,.49h3.56c2.59,0,6.97-.16,12.15-.49l.16,1.3c-5.51,.81-7.94,1.78-4.37,12.15l17.66,50.54,17.5-50.54c3.56-10.37,1.3-11.34-4.37-12.15l.16-1.3,8.42,.49c2.11-.16,4.86-.32,7.78-.49l.16,1.3c-5.18,.81-6.97,1.78-10.53,12.15l-23.81,68.53h-1.46l-23.81-68.53c-3.73-10.37-5.51-11.34-10.69-12.15Zm70.96,40.18c0-24.3,12.15-42.61,29.48-42.61,15.88,0,25.6,13.45,25.6,30.62l-42.28,9.88v.49c0,20.09,4.21,40.99,19.44,40.99,8.42,0,17.33-7.13,20.57-20.09l1.46,.49c-3.73,13.61-12.47,21.87-25.27,21.87-17.82,0-29-19.12-29-41.63Zm36.13-8.75c3.73-.97,5.51-1.62,5.51-7.45,0-8.26-3.89-25.11-13.45-25.11-8.59,0-15.07,14.26-15.39,37.91l23.33-5.35Zm28.67,49.25l-.16-1.3c5.67-.81,7.78-1.62,7.78-12.64v-54.11c0-10.85-2.27-11.34-8.1-11.5l.16-1.3c5.02-.32,9.4-.81,11.99-1.3l6.8-.97,1.3,18.47v1.78c3.4-16.04,11.34-20.25,17.66-20.25,5.67,0,10.04,3.24,11.83,6.32-.65,3.08-3.73,12.64-5.02,17.5h-.97c-1.94-10.21-5.18-15.23-10.69-15.23-5.99,0-12.8,7.13-12.8,23.81v36.77c0,11.02,2.43,11.83,8.59,12.64l-.16,1.3c-5.83-.32-10.53-.49-13.45-.49h-2.59c-2.59,0-6.97,.16-12.15,.49Zm62.53-3.56c-1.46,0-1.46,1.94-1.3,3.08h-1.46c-.49-5.02-1.46-11.5-3.4-19.6l1.46-.49c4.37,13.45,11.02,20.41,20.9,20.41,7.61,0,12.96-5.18,12.96-12.64s-6.16-13.61-17.98-24.46c-12.96-11.83-18.31-17.82-18.31-27.54,0-10.37,6.97-18.31,19.44-18.31,4.21,0,6.48,.97,8.91,.97,1.94,0,2.75-.97,3.08-3.56l1.3-.16c1.46,5.99,3.73,13.45,5.83,18.95l-1.46,.49c-3.73-9.23-8.91-15.39-17.01-15.39-6.48,0-11.66,4.05-11.66,12.15,0,5.18,1.94,8.42,15.88,21.71,15.39,14.9,20.25,20.25,20.25,30.13,0,14.42-10.37,18.95-20.09,18.95-10.37,0-15.07-4.7-17.33-4.7Zm44.39,3.56l-.16-1.3c5.67-.81,7.78-1.62,7.78-12.64v-54.11c0-11.02-2.27-11.5-8.1-11.66l.16-1.3c5.18-.16,9.4-.65,11.99-.97l7.94-1.13v69.18c0,11.02,2.27,11.83,7.78,12.64l-.16,1.3c-5.18-.32-9.56-.49-12.15-.49h-2.92c-2.59,0-6.97,.16-12.15,.49Zm5.35-102.87c0-4.37,3.56-8.1,8.1-8.1s7.94,3.73,7.94,8.1-3.56,8.1-7.94,8.1-8.1-3.73-8.1-8.1Zm37.58,90.4v-67.72h-12.8v-1.3c14.26,0,21.06-11.5,23-32.4h1.78v32.4h24.3c2.75,0,6.97-.16,12.15-.49l.32,1.3c-5.67,.81-8.1,1.78-4.37,11.99l17.5,48.92,16.36-48.76c3.4-10.37,1.13-11.34-4.54-12.15l.16-1.3,8.42,.49c2.27-.16,5.02-.32,7.94-.49l.16,1.3c-5.35,.81-7.13,1.78-10.53,12.15l-22.84,68.2c-5.51,16.52-11.99,32.24-22.36,32.24s-13.61-6.48-13.61-11.5c0-5.99,4.37-8.91,8.91-8.91,6.97,0,11.5,6.16,14.42,11.83,3.56-3.4,8.75-16.69,11.5-25.6l-28.03-77.92h-15.71v65.45c0,6.64,.32,12.15,5.83,12.15,3.24,0,6.16-1.94,8.42-4.05l.81,.81c-3.24,3.73-8.1,6.97-15.23,6.97-8.42,0-11.99-4.54-11.99-13.61Zm154.87-68.2l.32-1.3c4.86,.32,8.91,.49,11.34,.49h3.4c2.59,0,6.8-.16,11.99-.49l.32,1.3c-5.67,.81-8.1,1.62-4.86,12.15l15.07,48.92,14.74-48.92c3.24-10.53,.97-11.34-4.7-12.15l.16-1.3,8.42,.49c2.27-.16,4.86-.32,7.94-.49l.16,1.3c-5.35,.81-7.13,1.62-10.21,12.15l-21.06,68.53h-1.62l-17.5-57.19-17.66,57.19h-1.46l-21.06-68.53c-3.24-10.53-5.02-11.34-10.37-12.15l.16-1.3c4.86,.32,8.91,.49,11.34,.49h3.4c2.59,0,6.97-.16,12.15-.49l.16,1.3c-5.67,.81-7.94,1.62-4.86,12.15l14.9,48.6,12.31-40.18-2.59-8.42c-3.24-10.53-5.02-11.34-10.37-12.15Zm103.34,71.93c-3.73,4.54-10.21,9.88-19.12,9.88-10.04,0-20.25-6.16-20.25-20.09,0-18.63,19.6-26.89,39.37-30.29v-12.15c0-12.15-2.75-19.76-12.47-19.76-3.89,0-7.13,1.3-9.56,3.24,.49,2.59,1.13,7.29,1.13,11.02,0,5.67-2.75,8.75-7.29,8.75-4.05,0-6.32-2.75-6.32-7.13,0-10.85,13.93-17.82,26.41-17.82,16.36,0,20.25,12.15,20.25,24.3v47.3c0,3.4,0,7.29,3.4,7.29,2.75,0,4.05-2.11,5.35-4.54l1.13,.49c-2.59,6.16-6.48,9.4-11.99,9.4-5.02,0-9.4-2.92-10.04-9.88Zm0-39.2l-4.21,1.3c-14.42,4.54-22.68,12.96-22.68,25.76,0,10.69,5.51,16.2,13.77,16.2,5.83,0,10.21-2.75,13.12-5.83v-37.42Zm27.21,47.95l-.16-1.3c5.67-.81,7.78-1.62,7.78-12.64v-86.51c0-11.02-2.27-11.5-7.94-11.66v-1.3c5.18-.16,9.4-.65,11.99-.97l8.1-1.13v101.58c0,11.02,2.11,11.83,7.78,12.64l-.16,1.3c-5.18-.32-9.56-.49-12.15-.49h-3.08c-2.59,0-6.97,.16-12.15,.49Zm34.51,0l-.16-1.3c5.67-.81,7.78-1.62,7.78-12.64v-86.51c0-11.02-2.27-11.5-7.94-11.66v-1.3c5.18-.16,9.4-.65,11.99-.97l8.1-1.13v101.58c0,11.02,2.11,11.83,7.78,12.64l-.16,1.3c-5.18-.32-9.56-.49-12.15-.49h-3.08c-2.59,0-6.97,.16-12.15,.49Zm41.96-3.56c-1.46,0-1.46,1.94-1.3,3.08h-1.46c-.49-5.02-1.46-11.5-3.4-19.6l1.46-.49c4.37,13.45,11.02,20.41,20.9,20.41,7.61,0,12.96-5.18,12.96-12.64s-6.16-13.61-17.98-24.46c-12.96-11.83-18.31-17.82-18.31-27.54,0-10.37,6.97-18.31,19.44-18.31,4.21,0,6.48,.97,8.91,.97,1.94,0,2.75-.97,3.08-3.56l1.3-.16c1.46,5.99,3.73,13.45,5.83,18.95l-1.46,.49c-3.73-9.23-8.91-15.39-17.01-15.39-6.48,0-11.66,4.05-11.66,12.15,0,5.18,1.94,8.42,15.88,21.71,15.39,14.9,20.25,20.25,20.25,30.13,0,14.42-10.37,18.95-20.09,18.95-10.37,0-15.07-4.7-17.33-4.7Z"/></svg>