<?xml version="1.0" encoding="UTF-8"?>
<svg id="Layer_1" data-name="Layer 1" xmlns="http://www.w3.org/2000/svg" xmlns:xlink="http://www.w3.org/1999/xlink" viewBox="0 0 1516 1036">
  <defs>
    <style>
      .cls-1 {
        clip-path: url(#clippath);
      }

      .cls-2 {
        fill: none;
      }

      .cls-2, .cls-3, .cls-4 {
        stroke-width: 0px;
      }

      .cls-5 {
        clip-path: url(#clippath-1);
      }

      .cls-4 {
        fill: #e6e7e8;
      }
    </style>
    <clipPath id="clippath">
      <rect class="cls-2" width="1516" height="1036"/>
    </clipPath>
    <clipPath id="clippath-1">
      <rect class="cls-2" width="1516" height="1036"/>
    </clipPath>
  </defs>
  <g class="cls-1">
    <rect class="cls-4" width="1514" height="1036"/>
    <g class="cls-5">
      <path class="cls-3" d="M1477.03,307.26c0-57.12-30.34-82.41-87.17-82.41-14.87,0-28.86,2.08-38.97,5.65l13.39,71.1c5.65-2.38,11.9-3.27,16.96-3.27,17.25,0,26.18,5.65,26.18,19.34s-10.41,25.29-42.54,25.29h-13.68l-16.06-116.32-66.64,8.33v4.46l22.61,164.81h78.83c59.2,0,107.1-35.1,107.1-96.98M1249.15,229.32h-85.97v73.78h18.15v37.19h67.83v-110.96ZM1148.3,331.06c0-66.04-14.58-101.74-95.79-101.74h-77.65v37.19l8.63,60.69,54.74-6.25-2.38-17.85h11.01c30.05,0,36,6.55,36,32.43v1.19h-120.48v67.53h185.93v-73.18ZM941.54,229.32h-85.98v73.78h18.15v101.15h67.83v-174.93ZM835.93,309.94c-7.73-55.04-27.07-80.62-82.41-80.62h-15.77v73.78h7.73c13.68,0,21.42,6.55,23.2,19.34l1.19,9.22-37.78,13.68v62.17h4.46l41.35-20.53,2.38,17.26h68.72l-13.09-94.3ZM713.66,329.28c0-66.04-11.9-99.96-93.12-99.96h-64.85v74.08h55.04c26.77,0,35.1,10.71,35.1,36.59v64.26h67.83v-74.97ZM542.01,331.06c0-66.04-14.58-101.74-95.79-101.74h-77.64v37.19l8.63,60.69,54.74-6.25-2.38-17.85h11.01c30.05,0,36,6.55,36,32.43v1.19h-120.48v67.53h185.93v-73.18ZM341.2,229.32h-85.97v73.78h18.15v37.19h67.83v-110.96ZM240.35,317.97c0-59.2-7.74-88.65-83-88.65H59.18v73.78h90.74c19.34,0,22.61,8.63,22.61,25.58v75.56h67.83v-86.27ZM130.28,319.16H62.46v85.08h67.83v-85.08Z"/>
      <path class="cls-3" d="M1400.18,80.26l-8.58,60.45,60.45-8.45-32.76-17.55,47.71-47.19-1.95-1.82-47.58,47.19-17.29-32.63ZM1298.27,116.66l-6.63,2.21c1.43,10.27,8.32,21.06,26,21.06,15.86,0,24.57-9.23,24.57-21.19,0-15.34-11.96-17.94-22.23-20.15-8.71-1.82-15.99-3.38-15.99-12.09,0-7.02,5.33-10.53,12.87-10.53,8.84,0,12.87,4.81,15.34,10.53l6.24-3.12c-3.12-7.15-8.32-13.78-21.45-13.78-11.44,0-20.54,6.24-20.54,17.55,0,12.87,10.4,15.99,20.02,18.07,9.49,2.08,17.94,3.64,17.94,14.3,0,7.93-5.98,13.65-16.77,13.65-12.74,0-17.68-8.19-19.37-16.51M1284.75,134.21l-2.6-5.59c-3.38,3.12-7.41,4.55-11.31,4.55-5.46,0-9.62-2.47-9.62-10.92v-44.07h17.81v-6.63h-17.81v-18.46h-7.67v18.46h-11.18v6.63h11.18v44.98c0,12.22,7.28,16.77,16.12,16.77,5.46,0,11.18-2.21,15.08-5.72M1173.08,137.98h7.8v-36.92c0-13.26,7.28-24.96,23.14-24.96,13.26,0,18.59,7.54,18.59,23.01v38.87h7.8v-41.34c0-17.42-8.58-27.04-25.48-27.04-12.87,0-21.19,6.5-24.31,15.99v-14.04h-7.54v66.43ZM1146.69,100.93h-49.92c1.04-14.04,9.62-24.96,25.87-24.96s23.27,10.27,24.05,24.96M1122.25,139.93c14.95,0,24.7-6.5,30.68-16.12l-5.46-3.77c-4.42,7.02-12.09,13.13-25.09,13.13-16.12,0-24.96-11.05-25.74-26h57.72c.78-21.97-8.97-37.57-31.33-37.57-20.28,0-34.19,14.43-34.19,35.62s13.39,34.71,33.41,34.71M971.19,137.98h7.8v-36.92c0-13.26,7.28-24.96,21.32-24.96,11.57,0,16.77,7.54,16.77,23.01v38.87h7.8v-36.92c0-12.87,6.89-24.96,21.32-24.96,11.7,0,16.77,7.54,16.77,23.01v38.87h7.67v-41.34c0-17.42-8.06-27.04-23.4-27.04-11.18,0-19.89,5.98-24.05,17.29-2.6-11.18-10.14-17.29-21.97-17.29-11.05,0-19.37,6.5-22.49,15.99v-14.04h-7.54v66.43ZM903.86,119.78c0-13.26,15.6-14.56,37.31-13.26v5.85c0,14.17-9.49,21.32-20.8,21.32s-16.51-6.5-16.51-13.91M895.93,120.17c0,10.92,7.54,19.63,22.49,19.63,11.7,0,20.28-5.72,23.27-13.91l.39,12.09h6.76v-42.51c0-14.17-4.94-25.87-24.83-25.87-12.61,0-21.71,5.2-27.04,14.95l5.33,4.03c4.03-7.02,10.14-12.48,20.8-12.48,14.17,0,18.07,8.19,18.07,19.24v5.07c-26.65-1.69-45.24,2.08-45.24,19.76M819.88,137.98h7.8v-36.92c0-13.26,7.28-24.96,23.14-24.96,13.26,0,18.59,7.54,18.59,23.01v38.87h7.8v-41.34c0-17.42-8.58-27.04-25.48-27.04-12.87,0-21.19,6.5-24.31,15.99v-14.04h-7.54v66.43ZM805.32,78.05l1.3-6.63c-2.6-1.3-6.24-1.82-9.1-1.82-10.27,0-17.29,6.89-20.15,16.12v-14.17h-7.54v66.43h7.8v-37.18c0-13.52,7.93-24.18,19.76-24.18,2.34,0,5.59.39,7.93,1.43M715.36,133.17c-17.68,0-27.56-11.05-27.56-28.47,0-16.25,10.4-28.34,27.69-28.34s27.56,11.83,27.56,27.56c0,17.42-10.66,29.25-27.69,29.25M715.23,139.93c21.84,0,35.88-15.21,35.88-35.88,0-19.5-13.39-34.45-35.49-34.45s-35.88,15.34-35.88,35.49,12.87,34.84,35.49,34.84M555.73,113.02c0,16.38,12.22,26.91,33.41,26.91,14.56,0,24.7-5.85,31.33-14.56l10.14,12.61h9.23l-15.34-18.85c4.55-8.58,7.28-18.46,8.84-27.82l-6.63-1.43c-1.56,7.28-3.38,15.73-6.89,23.4l-21.32-26.39c10.92-3.25,16.77-12.61,16.77-21.19,0-14.04-10.53-21.32-23.79-21.32-14.56,0-25.09,9.62-25.09,22.36,0,7.41,3.51,14.69,10.92,18.46-13.78,5.72-21.58,14.95-21.58,27.82M574.32,66.35c0-10.01,7.93-15.6,17.03-15.6,8.58,0,15.99,4.68,15.99,14.82,0,10.66-7.93,16.38-16.9,16.38s-16.12-5.46-16.12-15.6M590.04,88.06h.13l26,32.11c-5.46,7.28-14.04,13-26.26,13-14.43,0-26.13-6.11-26.13-21.32,0-12.74,10.01-20.02,22.36-24.05,1.3.13,2.6.26,3.9.26M467.72,116.66l-6.63,2.21c1.43,10.27,8.32,21.06,26,21.06,15.86,0,24.57-9.23,24.57-21.19,0-15.34-11.96-17.94-22.23-20.15-8.71-1.82-15.99-3.38-15.99-12.09,0-7.02,5.33-10.53,12.87-10.53,8.84,0,12.87,4.81,15.34,10.53l6.24-3.12c-3.12-7.15-8.32-13.78-21.45-13.78-11.44,0-20.54,6.24-20.54,17.55,0,12.87,10.4,15.99,20.02,18.07,9.49,2.08,17.94,3.64,17.94,14.3,0,7.93-5.98,13.65-16.77,13.65-12.74,0-17.68-8.19-19.37-16.51M387.51,137.98h7.8v-36.92c0-13.26,7.28-24.96,23.14-24.96,13.26,0,18.59,7.54,18.59,23.01v38.87h7.8v-41.34c0-17.42-8.58-27.04-25.48-27.04-12.87,0-21.19,6.5-24.31,15.99v-14.04h-7.54v66.43ZM333.04,133.17c-17.68,0-27.56-11.05-27.56-28.47,0-16.25,10.4-28.34,27.69-28.34s27.56,11.83,27.56,27.56c0,17.42-10.66,29.25-27.69,29.25M332.91,139.93c21.84,0,35.88-15.21,35.88-35.88,0-19.5-13.39-34.45-35.49-34.45s-35.88,15.34-35.88,35.49,12.87,34.84,35.49,34.84M256.99,139.93c12.87,0,23.01-6.37,28.6-14.3l-4.55-4.55c-5.33,7.02-12.22,11.96-23.53,11.96-16.38,0-26.39-11.05-26.39-28.34s10.01-28.34,26.26-28.34c10.14,0,17.81,5.2,22.62,12.87l4.81-4.42c-4.68-8.32-13.91-15.21-27.3-15.21-21.06,0-34.32,15.34-34.32,35.49s13.13,34.84,33.8,34.84M196.55,52.83h8.32v-16.25h-8.32v16.25ZM196.81,137.98h7.8v-66.43h-7.8v66.43ZM73.57,95.6l21.84,22.62,21.71-22.62c5.2-5.46,5.98-9.23,5.98-11.83,0-3.12-1.04-5.85-3.12-7.93s-4.81-3.12-7.67-3.12-5.59,1.17-8.58,3.77l-8.32,7.15-8.32-7.15c-2.99-2.6-5.98-3.77-8.71-3.77s-5.46,1.04-7.54,3.12c-1.95,1.95-3.12,4.68-3.12,7.54,0,2.6.39,6.63,5.85,12.22M95.54,151.5l-11.83-14.82h-33.41V52.18h90.48v84.5h-33.41l-11.83,14.82ZM95.54,153.71l12.48-15.73h34.06V50.88H49v87.1h34.19l12.35,15.73Z"/>
      <path class="cls-3" d="M1425.71,891.62l16.84-16.84,16.84,16.84,1.7-1.7-16.84-16.84,16.84-16.84-1.7-1.7-16.84,16.84-16.84-16.84-1.7,1.7,16.84,16.84-16.84,16.84,1.7,1.7ZM1362.14,864.94h55.05v-6.81h-55.05v6.81ZM1389.38,928.7c10.03,0,17.97-7.94,17.97-17.97s-7.95-17.59-17.97-17.59-17.78,7.95-17.78,17.59,7.95,17.97,17.78,17.97M1389.38,937.97c-14.76,0-27.05-11.73-27.05-27.24s12.3-27.05,27.05-27.05,27.05,12.11,27.05,27.05-12.11,27.24-27.05,27.24M1389.38,939.86c16.08,0,29.13-13.05,29.13-29.13s-13.05-28.94-29.13-28.94-28.94,13.05-28.94,28.94,13.05,29.13,28.94,29.13M1323.74,864.94h17.78v-4.35h-17.78v4.35ZM1333.01,894.27c4.73,0,8.89-3.78,8.89-8.7s-4.16-8.7-8.89-8.7-8.7,3.78-8.7,8.7,3.97,8.7,8.7,8.7M1313.33,952.72h132.8v-65.08l-1.89-1.89v65.08h-129.02v-80.21h114.07l-1.89-1.89h-114.07v83.99ZM1247.88,852.65h-24.97c0,56.94-14.19,84.37-61.48,84.37h-9.46l-3.03-25.73c33.86-.57,47.48-18.35,47.48-58.65h-24.59c0,26.49-4.92,39.54-24.97,41.43l-5.11-42.75-24.59,3.03v1.7l12.48,105.37h34.62c60.54,0,83.62-35.94,83.62-108.78M1094.83,852.65h-38.59v27.05h13.62v38.59h24.97v-65.65ZM971.68,813.87h-24.78v65.83h59.78l-37.46,81.72h27.24l46.73-100.45v-8.32h-71.51v-38.78ZM927.03,852.65h-38.59v27.05h13.62v81.72h24.97v-108.78ZM877.09,899.75c0-33.86-17.97-49.94-49.57-49.94-7.19,0-14.19,1.13-19.86,2.84l5.68,26.3c3.78-1.32,7.95-1.89,11.73-1.89,17.22,0,26.11,7.57,26.11,24.97,0,22.89-16.08,35-43.13,35h-9.46l-10.03-85.7-24.59,3.03v1.7l12.49,105.37h33.49c39.16,0,67.16-23.08,67.16-61.67M702.48,852.65h-38.59v27.05h13.62v81.72h24.97v-108.78ZM558.51,851.32l-24.59,3.03v1.7l10.41,79.83-5.49,25.54h25.35l10.03-48.05c4.54-21,11.73-36.32,28.19-36.32,15.32,0,24.4,11.16,24.4,29.89,0,20.05-7.95,31.21-26.86,31.21-3.41,0-7.38-.38-10.59-1.32l-6.24,25.16c5.49,1.51,12.11,2.46,19.11,2.46,33.11,0,50.32-20.81,50.32-58.27,0-34.62-18.73-56.38-45.02-56.38s-36.13,18.54-43.51,45.59l-5.49-44.08ZM508.76,892.19c-3.4-27.05-14.38-39.54-39.54-39.54h-9.27v27.05h6.05c10.59,0,16.46,5.11,17.78,16.65l3.03,25.16-30.08,15.89v25.73h1.89l30.84-19.11,2.08,17.4h25.16l-7.95-69.24ZM424.57,961.43v-81.72h19.67v-27.05h-64.13v27.05h19.49v81.72h24.97ZM360.44,852.65h-38.59v27.05h13.62v38.59h24.97v-65.65ZM304.25,852.65h-38.59v27.05h13.62v120.88h24.97v-147.94ZM200.96,920.18l-15.89-9.46v-24.59h-32.35l37.08-34.62,11.16,68.67ZM185.07,923.78v-10.97l14.57,8.51-14.57,2.46ZM160.48,915.46h15.89v-20.43h-15.89v20.43ZM102.78,886.13l-34.81-16.08,120.13-19.49-38.03,35.57h-47.29ZM68.92,886.13l-2.46-14.76,31.78,14.76h-29.32ZM56.81,888.02h126.37v71.51H56.81v-71.51ZM65.89,931.16h22.13v-1.89h-22.13v1.89ZM65.89,939.1h35.75v-1.89h-35.75v1.89ZM65.89,947.05h35.75v-1.89h-35.75v1.89ZM54.92,961.43h130.15v-35.94l18.16-2.84-12.11-74.35-126.94,20.62,2.84,17.21h-12.11v75.29Z"/>
      <path class="cls-3" d="M1270.63,772.84c119.71,0,181.2-81.21,181.2-264.29h-4.69c-.47,138.48-36.62,218.29-106.56,246.93l-104.22-247.39-5.63.47v.94l104.69,248.33c-19.25,7.04-40.84,10.33-64.78,10.33h-54.45v4.69h54.45ZM1158.9,508.55h-46.94v4.69h42.25v140.83h4.7v-145.53ZM1072.53,620.28c0-75.11-40.37-118.77-111.73-118.77-16.9,0-30.51,1.41-46.47,6.1l1.41,4.69c15.49-4.22,28.17-6.1,45.07-6.1,69.01,0,107.03,42.72,107.03,114.07,0,98.58-78.4,147.87-158.67,147.87h-47.88l-25.82-260.07-4.69.47v.94l26.29,263.36h53.05c84.03,0,162.43-50.23,162.43-152.57M754.71,508.55h-46.94v4.69h42.25v259.6h4.69v-264.29ZM649.56,600.09c0-54.92-31.92-91.54-91.07-91.54h-97.17v4.69h96.23c56.33,0,87.32,35.68,87.32,87.79v171.81h4.7v-172.75ZM398.41,508.55h-46.94v4.69h42.25v140.83h4.7v-145.53ZM84.82,768.15v-254.91h116.42c56.33,0,87.32,35.68,87.32,87.79v167.12H84.82ZM293.25,600.09c0-54.92-31.92-91.54-91.07-91.54h-122.05v264.29h213.13v-172.75Z"/>
    </g>
  </g>
</svg>