<svg xmlns="http://www.w3.org/2000/svg" viewBox="0 0 1920 1200"><title>ts_mecano 4</title><rect width="1920" height="1200" style="fill:#fffdf7"/><path d="M233.49,394.08H153.08V490.9H109.87V259.74h43.21v91.79h80.41V259.74H276.7V490.9H233.49Z"/><path d="M313.54,259.74H428.45v42.55H392.27V448.35h36.18V490.9H313.54V448.35h35.51V302.29H313.54Z"/><path d="M528.61,365.94H628.78v63c0,40.2-22.45,62-62.31,62H523.92c-39.86,0-62-21.78-62-62V322.05c0-39.86,22.12-62.31,62-62.31h42.55c39.86,0,62.31,22.45,62.31,62.31v19.77H585.56V322.05c0-13.4-5.69-19.09-19.09-19.09H523.92c-13.4,0-18.76,5.69-18.76,19.09V428.92c0,13.4,5.36,18.76,18.76,18.76h42.55c13.4,0,19.09-5.36,19.09-18.76V408.48H528.61Z"/><path d="M794.26,394.08h-80.4V490.9H670.65V259.74h43.21v91.79h80.4V259.74h43.22V490.9H794.26Z"/><path d="M1025.75,368.28v38.87h-138V368.28Z"/><path d="M1059.24,259.74h166.5v42.55H1164.1V490.9h-43.22V302.29h-61.64Z"/><path d="M1255.88,259.74H1406v42.55H1299.1v49.24h82.07v42.55H1299.1v54.27H1406V490.9H1255.88Z"/><path d="M1602.94,408.82v20.1c0,40.2-22.44,62-62.31,62h-42.55c-39.86,0-62-21.78-62-62V322.05c0-39.86,22.11-62.31,62-62.31h42.55c39.87,0,62.31,22.45,62.31,62.31v19.77h-43.21V322.05c0-13.4-5.7-19.09-19.1-19.09h-42.55c-13.39,0-18.75,5.69-18.75,19.09V428.92c0,13.4,5.36,18.76,18.75,18.76h42.55c13.4,0,19.1-5.36,19.1-18.76v-20.1Z"/><path d="M1768.43,394.08H1688V490.9h-43.22V259.74H1688v91.79h80.4V259.74h43.22V490.9h-43.22Z"/><path d="M112.58,543h42.56c14.56,0,21.84,7.28,21.84,21.7v14c0,14.56-7.28,21.7-21.84,21.7H115.66v39.2h-3.08Zm3.08,2.8v51.8h39.48c13.16,0,18.76-5.88,18.76-18.9v-14c0-13-5.6-18.9-18.76-18.9Z"/><path d="M184.12,636.8h14.56V587.66c0-14.42,7.28-21.56,21.56-21.56h13v2.8h-13c-12.6,0-18.48,6-18.48,18.76V636.8h22.12v2.8H184.12Z"/><path d="M246.7,566.1h20.58v70.7H283v2.8H246.7v-2.8h17.5V568.9H246.7ZM265.46,543c2.52,0,2.8.56,2.8,2.94s-.28,2.94-2.8,2.94-2.8-.56-2.8-2.94S262.94,543,265.46,543Z"/><path d="M399.44,639.6V587.66c0-12.74-5.6-18.76-18.76-18.76h-9.52c-12.88,0-18.76,5.74-18.76,18.76V639.6h-3.08V587.66c0-12.74-5.6-18.76-18.76-18.76H321c-13.16,0-18.76,6-18.76,18.76V639.6H299.2V587.66c0-14.42,7.28-21.56,21.84-21.56h9.52c10.64,0,17.5,3.78,20.3,11.62,2.8-7.84,9.52-11.62,20.3-11.62h9.52c14.56,0,21.84,7.14,21.84,21.56V639.6Z"/><path d="M423.66,583c1.4-11.34,9.1-16.94,21.42-16.94h19.18c14.42,0,21.7,7.14,21.7,21.56V618c0,14.42-7.28,21.56-21.7,21.56h-21c-17.36,0-21.7-11.06-21.7-19.32,0-7.56,3.64-19.32,21.7-19.32h39.62v-13.3c0-12.74-6-18.76-18.62-18.76H445.08c-12.32,0-17.36,5.18-18.48,14.14Zm59.22,35V603.76H443.26c-11.9,0-18.62,5.88-18.62,16.52s6.72,16.52,18.62,16.52h21C476.86,636.8,482.88,630.78,482.88,618Z"/><path d="M499.4,566.1h3.22l26.18,70.7h1.82l26.18-70.7H560l-27.3,73.5h-6Z"/><path d="M632.54,639.6H595.16c-14.56,0-21.84-7.14-21.84-21.56V587.66c0-14.42,7.28-21.56,21.84-21.56H616c17.36,0,21.7,10.5,21.7,18.9,0,7.56-3.64,18.76-21.7,18.76H576.4V618c0,12.74,5.6,18.76,18.76,18.76h37.38ZM576.4,587.66V601H616c11.62,0,18.62-5.32,18.62-16s-7-16.1-18.62-16.1H595.16C582,568.9,576.4,574.92,576.4,587.66Z"/><path d="M650.45,636.8H665V587.66c0-14.42,7.28-21.56,21.56-21.56h13v2.8h-13c-12.6,0-18.48,6-18.48,18.76V636.8h22.12v2.8H650.45Z"/><path d="M716.39,583c1.4-11.34,9.1-16.94,21.42-16.94H757c14.42,0,21.7,7.14,21.7,21.56V618c0,14.42-7.28,21.56-21.7,21.56H736c-17.36,0-21.7-11.06-21.7-19.32,0-7.56,3.64-19.32,21.7-19.32h39.62v-13.3c0-12.74-6-18.76-18.62-18.76H737.81c-12.32,0-17.36,5.18-18.48,14.14Zm59.22,35V603.76H736c-11.9,0-18.62,5.88-18.62,16.52S724.09,636.8,736,636.8h21C769.59,636.8,775.61,630.78,775.61,618Z"/><path d="M837.35,614.12v4.62c0,12.32,5.74,18.06,18.62,18.06h21c12.46,0,18.48-6,18.48-18.76v-8.4c0-12.74-5.74-18.9-18.48-18.9H856c-14.56,0-21.7-6.86-21.7-21.42V564.7c0-14.42,7.14-21.7,21.7-21.7h21c14.56,0,21.56,7.28,21.56,21.7v.7h-3.08v-.7c0-13-6.16-18.9-18.48-18.9H856c-13,0-18.62,5.88-18.62,18.9v4.62c0,12.74,5.6,18.62,18.62,18.62h21c14.56,0,21.56,7.14,21.56,21.7V618c0,14.42-7,21.56-21.56,21.56H856c-14.42,0-21.7-6.72-21.7-20.86v-4.62Z"/><path d="M981.83,618c0,14.42-7.14,21.56-21.7,21.56H939.27c-14.56,0-21.84-7.14-21.84-21.56V587.66c0-14.42,7.28-21.56,21.84-21.56h20.86c14.56,0,21.7,7.14,21.7,21.56Zm-3.08-30.38c0-12.74-5.74-18.76-18.62-18.76H939.27c-13.16,0-18.76,6-18.76,18.76V618c0,12.74,5.6,18.76,18.76,18.76h20.86c12.88,0,18.62-6,18.62-18.76Z"/><path d="M1006.05,566.1V618c0,12.74,5.6,18.76,18.76,18.76h20.86c12.88,0,18.62-6,18.62-18.76V566.1h3.08V618c0,14.42-7.14,21.56-21.7,21.56h-20.86c-14.56,0-21.84-7.28-21.84-21.56V566.1Z"/><path d="M1151.23,639.6V587.66c0-12.74-5.6-18.76-18.76-18.76h-20.72c-13.16,0-18.76,6-18.76,18.76V639.6h-3.08V587.66c0-14.42,7.28-21.56,21.84-21.56h20.72c14.56,0,21.84,7.14,21.84,21.56V639.6Z"/><path d="M1175.45,587.66c0-14.42,7.28-21.56,21.84-21.56h20.86c9.52,0,15.39,2.8,18.61,8.26V536h3.08v82c0,14.42-7.13,21.56-21.69,21.56h-20.86c-14.56,0-21.84-7.14-21.84-21.56Zm3.08,30.38c0,12.74,5.59,18.76,18.76,18.76h20.86c12.88,0,18.61-6,18.61-18.76V586.26c0-9.24-4.19-17.36-18.61-17.36h-20.86c-13.17,0-18.76,6-18.76,18.76Z"/><path d="M1300.18,543h56v2.8h-52.92v42.7H1344v2.8h-40.74v48.3h-3.08Z"/><path d="M1426.6,639.6h-37.38c-14.56,0-21.84-7.14-21.84-21.56V587.66c0-14.42,7.28-21.56,21.84-21.56h20.86c17.36,0,21.7,10.5,21.7,18.9,0,7.56-3.64,18.76-21.7,18.76h-39.62V618c0,12.74,5.6,18.76,18.76,18.76h37.38Zm-56.14-51.94V601h39.62c11.62,0,18.62-5.32,18.62-16s-7-16.1-18.62-16.1h-20.86C1376.06,568.9,1370.46,574.92,1370.46,587.66Z"/><path d="M1506.54,582.9c-1.4-9.52-7.14-14-18.2-14h-19c-13.44,0-18.2,7-18.2,16.1,0,10.64,6,15.12,18.48,15.12h19.18c13.3,0,21.7,7.14,21.7,20.16,0,12.46-8.4,19.32-21.7,19.32h-19.18c-12.6,0-19.88-5.88-21.28-16.94h3.08c1.4,9.52,6.86,14.14,18.2,14.14h19.18c12.46,0,18.62-6,18.62-16.38s-6.16-17.5-18.62-17.5h-19.18c-13.72,0-21.56-6.16-21.56-17.92,0-12.18,8.68-18.9,21.28-18.9h19c12.46,0,19.88,5.6,21.28,16.8Z"/><path d="M1535.66,566.1V543h3.08v23.1h29.4v2.8h-29.4V618c0,12.74,5.88,18.76,18.48,18.76h12.88v2.8h-12.88c-14.28,0-21.56-7.14-21.56-21.56V568.9H1524.6v-2.8Z"/><path d="M1583.54,566.1h20.58v70.7h15.68v2.8h-36.26v-2.8H1601V568.9h-17.5ZM1602.3,543c2.52,0,2.8.56,2.8,2.94s-.28,2.94-2.8,2.94-2.8-.56-2.8-2.94S1599.78,543,1602.3,543Z"/><path d="M1625.54,566.1h3.22l26.18,70.7h1.82l26.18-70.7h3.22l-27.3,73.5h-6Z"/><path d="M1699.6,583c1.4-11.34,9.1-16.94,21.42-16.94h19.18c14.42,0,21.7,7.14,21.7,21.56V618c0,14.42-7.28,21.56-21.7,21.56h-21c-17.36,0-21.7-11.06-21.7-19.32,0-7.56,3.64-19.32,21.7-19.32h39.62v-13.3c0-12.74-6-18.76-18.62-18.76H1721c-12.32,0-17.36,5.18-18.48,14.14Zm59.22,35V603.76H1719.2c-11.9,0-18.62,5.88-18.62,16.52s6.72,16.52,18.62,16.52h21C1752.8,636.8,1758.82,630.78,1758.82,618Z"/><path d="M1786.11,618c0,12.74,5.6,18.76,18.77,18.76h12.87v2.8h-12.87C1790,639.6,1783,632.46,1783,618V536h3.07Z"/><path d="M152.58,1025.38,130,1097.3h-6.23L99.8,1021.17h3.33l22.77,73.23h1.89l22.76-73.23h4.06l22.77,73.23h1.88L202,1021.17h3.33l-23.92,76.13H175.2Zm66.55,13.34c1.45-11.75,9.43-17.55,22.19-17.55h19.87c14.93,0,22.47,7.4,22.47,22.33V1075c0,14.93-7.54,22.33-22.47,22.33H239.43c-18,0-22.47-11.46-22.47-20,0-7.83,3.77-20,22.47-20h41V1043.5c0-13.19-6.23-19.43-19.28-19.43H241.32c-12.76,0-18,5.37-19.14,14.65ZM280.47,1075v-14.79h-41c-12.32,0-19.28,6.09-19.28,17.11s7,17.11,19.28,17.11h21.76C274.24,1094.4,280.47,1088.16,280.47,1075Zm82.65-36.4c-1.45-9.86-7.39-14.5-18.85-14.5H324.55c-13.92,0-18.85,7.25-18.85,16.68,0,11,6.23,15.66,19.14,15.66h19.87c13.77,0,22.47,7.39,22.47,20.88,0,12.9-8.7,20-22.47,20H324.84c-13,0-20.59-6.09-22-17.55H306c1.45,9.86,7.1,14.65,18.85,14.65h19.87c12.9,0,19.28-6.24,19.28-17s-6.38-18.12-19.28-18.12H324.84c-14.21,0-22.33-6.38-22.33-18.56,0-12.62,9-19.58,22-19.58h19.72c12.91,0,20.59,5.8,22,17.4ZM388.2,990h3.2v39.73c4.49-7.4,12.76-8.56,19.43-8.56h21.6c15.08,0,22.48,7.4,22.48,22.33v53.8h-3.19v-53.8c0-13.19-6-19.43-19.29-19.43h-21.6c-13.34,0-19.43,6.38-19.43,18.27v55h-3.2ZM473,1021.17h21.31v73.23h16.25v2.9H473v-2.9h18.12v-70.33H473Zm19.43-23.92c2.61,0,2.9.58,2.9,3s-.29,3.05-2.9,3.05-2.9-.58-2.9-3.05S489.85,997.25,492.46,997.25Zm98.31,100v-53.8c0-13.19-5.8-19.43-19.43-19.43H549.88c-13.63,0-19.43,6.24-19.43,19.43v53.8h-3.19v-53.8c0-14.93,7.54-22.33,22.62-22.33h21.46c15.08,0,22.62,7.4,22.62,22.33v53.8Zm38.14,30.45h31c13.34,0,19.28-5.8,19.28-19.43v-19.58c-4.35,7.4-13.05,8.56-19.28,8.56H638.33c-15.08,0-22.62-7.4-22.62-22.33V1043.5c0-14.93,7.54-22.33,22.62-22.33h21.61c15.08,0,22.47,7.4,22.47,22.33v64.82c0,15.08-7.39,22.33-22.47,22.33h-31Zm50.31-84.25c0-13.19-5.94-19.43-19.28-19.43H638.33c-13.63,0-19.43,6.24-19.43,19.43V1075c0,13.19,5.8,19.43,19.43,19.43h21.61c12.47,0,19.28-5.37,19.28-19Zm167.91,53.8v-53.8c0-13.19-5.8-19.43-19.43-19.43h-9.86c-13.34,0-19.43,6-19.43,19.43v53.8h-3.19v-53.8c0-13.19-5.8-19.43-19.43-19.43h-9.86c-13.63,0-19.43,6.24-19.43,19.43v53.8h-3.19v-53.8c0-14.93,7.54-22.33,22.62-22.33h9.86c11,0,18.13,3.92,21,12,2.9-8.12,9.86-12,21-12h9.86c15.08,0,22.62,7.4,22.62,22.33v53.8Zm24.94-58.58c1.45-11.75,9.43-17.55,22.19-17.55h19.86c14.94,0,22.48,7.4,22.48,22.33V1075c0,14.93-7.54,22.33-22.48,22.33H892.37c-18,0-22.47-11.46-22.47-20,0-7.83,3.77-20,22.47-20h41V1043.5c0-13.19-6.24-19.43-19.29-19.43H894.26c-12.76,0-18,5.37-19.14,14.65ZM933.41,1075v-14.79h-41c-12.32,0-19.28,6.09-19.28,17.11s7,17.11,19.28,17.11h21.75C927.17,1094.4,933.41,1088.16,933.41,1075Zm86.71-36.11c-1.16-10-7.25-14.79-18.85-14.79H979.52c-13.63,0-19.43,6.24-19.43,19.43V1075c0,13.19,5.8,19.43,19.43,19.43h21.75c11.31,0,17.4-4.64,18.85-14.65h3.19c-1.6,11.46-8.85,17.55-22,17.55H979.52c-15.08,0-22.62-7.4-22.62-22.33V1043.5c0-14.93,7.54-22.33,22.62-22.33h21.75c13.34,0,20.59,5.66,22,17.69ZM1045.05,990h3.19v39.73c4.5-7.4,12.77-8.56,19.44-8.56h21.6c15.08,0,22.48,7.4,22.48,22.33v53.8h-3.19v-53.8c0-13.19-6-19.43-19.29-19.43h-21.6c-13.34,0-19.44,6.38-19.44,18.27v55h-3.19Zm84.83,31.17h21.31v73.23h16.24v2.9h-37.55v-2.9H1148v-70.33h-18.12Zm19.43-23.92c2.61,0,2.9.58,2.9,3s-.29,3.05-2.9,3.05-2.9-.58-2.9-3.05S1146.7,997.25,1149.31,997.25Zm98.31,100v-53.8c0-13.19-5.8-19.43-19.43-19.43h-21.46c-13.63,0-19.43,6.24-19.43,19.43v53.8h-3.19v-53.8c0-14.93,7.54-22.33,22.62-22.33h21.46c15.08,0,22.62,7.4,22.62,22.33v53.8Zm86.28,0h-38.72c-15.08,0-22.62-7.4-22.62-22.33V1043.5c0-14.93,7.54-22.33,22.62-22.33h21.61c18,0,22.47,10.88,22.47,19.58,0,7.83-3.77,19.43-22.47,19.43h-41V1075c0,13.19,5.8,19.43,19.43,19.43h38.72Zm-58.15-53.8v13.78h41c12,0,19.28-5.51,19.28-16.53s-7.25-16.68-19.28-16.68h-21.61C1281.55,1024.07,1275.75,1030.31,1275.75,1043.5Zm119.34-4.78c1.45-11.75,9.42-17.55,22.18-17.55h19.87c14.93,0,22.47,7.4,22.47,22.33V1075c0,14.93-7.54,22.33-22.47,22.33h-21.75c-18,0-22.48-11.46-22.48-20,0-7.83,3.77-20,22.48-20h41V1043.5c0-13.19-6.23-19.43-19.28-19.43h-19.87c-12.76,0-18,5.37-19.14,14.65Zm61.33,36.25v-14.79h-41c-12.33,0-19.29,6.09-19.29,17.11s7,17.11,19.29,17.11h21.75C1450.19,1094.4,1456.42,1088.16,1456.42,1075Zm30.6-53.8V997.25h3.19v23.92h49.3V997.25h3.19v23.92h30.45v2.9H1542.7V1075c0,13.19,6.09,19.43,19.14,19.43h13.34v2.9h-13.34c-14.79,0-22.33-7.4-22.33-22.33v-50.9h-49.3V1075c0,13.19,6.09,19.43,19.14,19.43h13.34v2.9h-13.34c-14.79,0-22.33-7.4-22.33-22.33v-50.9h-11.46v-2.9Zm104.11,17.55c1.45-11.75,9.42-17.55,22.18-17.55h19.87c14.93,0,22.47,7.4,22.47,22.33V1075c0,14.93-7.54,22.33-22.47,22.33h-21.75c-18,0-22.48-11.46-22.48-20,0-7.83,3.77-20,22.48-20h41V1043.5c0-13.19-6.23-19.43-19.28-19.43h-19.87c-12.76,0-18,5.37-19.14,14.65Zm61.33,36.25v-14.79h-41c-12.33,0-19.29,6.09-19.29,17.11s7,17.11,19.29,17.11h21.75C1646.23,1094.4,1652.46,1088.16,1652.46,1075Zm86.71-36.11c-1.16-10-7.25-14.79-18.85-14.79h-21.75c-13.63,0-19.43,6.24-19.43,19.43V1075c0,13.19,5.8,19.43,19.43,19.43h21.75c11.31,0,17.4-4.64,18.85-14.65h3.19c-1.59,11.46-8.84,17.55-22,17.55h-21.75c-15.08,0-22.62-7.4-22.62-22.33V1043.5c0-14.93,7.54-22.33,22.62-22.33h21.75c13.34,0,20.59,5.66,22,17.69Zm45.1,14.79-17,17.11v26.54h-3.19V990h3.19v76.27l45-45.1h4.64l-30.3,30.31,33.78,45.82h-3.91Z"/><path d="M139.53,153.47H124.86v37.47H108V100.55H148.7c15.72,0,24.36,8.78,24.36,24.37v4.32c0,12.18-5.89,20.3-15.45,23.32L175,190.94h-18.6Zm-14.67-36v19.26H148.7c5.37,0,7.47-2.1,7.47-7.47v-4.32c0-5.24-2.1-7.47-7.47-7.47Z"/><path d="M187.48,124.92c0-15.59,8.64-24.37,24.23-24.37h16.64c15.59,0,24.36,8.78,24.36,24.37v66h-16.9V160H204.37v30.92H187.48Zm48.33,0c0-5.24-2.22-7.47-7.46-7.47H211.71c-5.24,0-7.34,2.23-7.34,7.47v18.47h31.44Z"/><path d="M295.16,142.08h39.16V166.7c0,15.72-8.77,24.24-24.36,24.24H293.32c-15.59,0-24.23-8.52-24.23-24.24V124.92c0-15.59,8.64-24.37,24.23-24.37H310c15.59,0,24.36,8.78,24.36,24.37v7.73H317.43v-7.73c0-5.24-2.23-7.47-7.47-7.47H293.32c-5.24,0-7.33,2.23-7.33,7.47V166.7c0,5.24,2.09,7.34,7.33,7.34H310c5.24,0,7.47-2.1,7.47-7.34v-8H295.16Z"/><path d="M350.7,100.55h58.69v16.64H367.6v19.25h32.09v16.64H367.6V174.3h41.79v16.64H350.7Z"/><path d="M455.89,124.92c0-15.59,8.65-24.37,24.24-24.37h16.63c15.59,0,24.37,8.78,24.37,24.37v66h-16.9V160H472.79v30.92h-16.9Zm48.34,0c0-5.24-2.23-7.47-7.47-7.47H480.13c-5.24,0-7.34,2.23-7.34,7.47v18.47h31.44Z"/><path d="M563.57,142.08h39.17V166.7c0,15.72-8.78,24.24-24.36,24.24H561.74c-15.59,0-24.24-8.52-24.24-24.24V124.92c0-15.59,8.65-24.37,24.24-24.37h16.64c15.58,0,24.36,8.78,24.36,24.37v7.73h-16.9v-7.73c0-5.24-2.23-7.47-7.46-7.47H561.74c-5.24,0-7.34,2.23-7.34,7.47V166.7c0,5.24,2.1,7.34,7.34,7.34h16.64c5.23,0,7.46-2.1,7.46-7.34v-8H563.57Z"/><path d="M618.46,124.92c0-15.59,8.65-24.37,24.24-24.37h16.63c15.59,0,24.37,8.78,24.37,24.37v66H666.8V160H635.36v30.92h-16.9Zm48.34,0c0-5.24-2.23-7.47-7.47-7.47H642.7c-5.24,0-7.34,2.23-7.34,7.47v18.47H666.8Z"/><path d="M697.45,100.55h44.93v16.64H728.24V174.3h14.14v16.64H697.45V174.3h13.89V117.19H697.45Z"/><path d="M773.69,134.61v56.33h-16.9V100.55h18.08l30.26,57v-57H822v90.39H803.56Z"/><path d="M854.65,165.26v1.44c0,5.24,2.23,7.34,7.47,7.34h16.63c5.24,0,7.34-2.1,7.34-7.34V160c0-5.24-2.1-7.46-7.34-7.46H862.12c-15.85,0-24.37-8.52-24.37-24.24v-3.53c0-15.59,8.52-24.24,24.37-24.24h16.63c15.59,0,24.24,8.65,24.24,24.24v2.48h-16.9v-2.48c0-5.24-2.1-7.47-7.34-7.47H862.12c-5.24,0-7.47,2.23-7.47,7.47v3.53c0,5.24,2.23,7.34,7.47,7.34h16.63c15.59,0,24.24,8.64,24.24,24.36v6.68c0,15.72-8.65,24.24-24.24,24.24H862.12c-15.85,0-24.37-8.52-24.37-24.24v-1.44Z"/><path d="M912.16,100.55h65.1v16.64h-24.1v73.75h-16.9V117.19h-24.1Z"/><path d="M1015.25,100.55h65.11v16.64h-24.11v73.75h-16.89V117.19h-24.11Z"/><path d="M1140.49,153.08h-31.44v37.86h-16.9V100.55h16.9v35.89h31.44V100.55h16.89v90.39h-16.89Z"/><path d="M1175.72,100.55h58.69v16.64h-41.79v19.25h32.1v16.64h-32.1V174.3h41.79v16.64h-58.69Z"/><path d="M1298.47,143.78v47.16h-16.9V100.55H1300l17.29,45.33,17.3-45.33h18.6v90.39h-16.9V143.78l-11.4,29.47h-15.32Z"/><path d="M1370.91,124.92c0-15.59,8.65-24.37,24.24-24.37h16.63c15.59,0,24.37,8.78,24.37,24.37v66h-16.9V160h-31.44v30.92h-16.9Zm48.34,0c0-5.24-2.23-7.47-7.47-7.47h-16.63c-5.24,0-7.34,2.23-7.34,7.47v18.47h31.44Z"/><path d="M1517.76,158.84v7.86c0,15.72-8.78,24.24-24.36,24.24h-16.64c-15.59,0-24.24-8.52-24.24-24.24V124.92c0-15.59,8.65-24.37,24.24-24.37h16.64c15.58,0,24.36,8.78,24.36,24.37v7.73h-16.9v-7.73c0-5.24-2.22-7.47-7.46-7.47h-16.64c-5.24,0-7.34,2.23-7.34,7.47V166.7c0,5.24,2.1,7.34,7.34,7.34h16.64c5.24,0,7.46-2.1,7.46-7.34v-7.86Z"/><path d="M1582.47,153.08H1551v37.86h-16.9V100.55H1551v35.89h31.43V100.55h16.9v90.39h-16.9Z"/><path d="M1613.78,100.55h44.93v16.64h-14.14V174.3h14.14v16.64h-44.93V174.3h13.89V117.19h-13.89Z"/><path d="M1690,134.61v56.33h-16.9V100.55h18.08l30.26,57v-57h16.9v90.39h-18.47Z"/><path d="M1756.7,100.55h58.69v16.64H1773.6v19.25h32.09v16.64H1773.6V174.3h41.79v16.64H1756.7Z"/><path d="M144,864.27v3.26c0,11.84,5,16.57,16.87,16.57h37.59c11.84,0,16.58-4.73,16.58-16.57v-15.1c0-11.84-4.74-16.87-16.58-16.87H160.82c-35.82,0-55.06-19.24-55.06-54.76v-8c0-35.22,19.24-54.76,55.06-54.76h37.59c35.23,0,54.76,19.54,54.76,54.76v5.63H215V772.8c0-11.84-4.74-16.87-16.58-16.87H160.82C149,755.93,144,761,144,772.8v8c0,11.84,5,16.57,16.87,16.57h37.59c35.23,0,54.76,19.54,54.76,55.06v15.1c0,35.52-19.53,54.76-54.76,54.76H160.82c-35.82,0-55.06-19.24-55.06-54.76v-3.26Z"/><path d="M288.69,718H381c35.23,0,55.06,19.84,55.06,55.06v25.75c0,35.23-19.83,55.06-55.06,55.06H326.87v68.38H288.69Zm38.18,38.19v59.49H381c11.84,0,16.88-5,16.88-16.87V773.1c0-11.84-5-16.87-16.88-16.87Z"/><path d="M467.17,773.1c0-35.22,19.54-55.06,54.76-55.06h37.6c35.22,0,55.05,19.84,55.05,55.06V922.29H576.4V852.43h-71v69.86H467.17Zm109.23,0c0-11.84-5-16.87-16.87-16.87h-37.6c-11.84,0-16.57,5-16.57,16.87v41.74h71Z"/><path d="M799,849.76v17.77c0,35.52-19.83,54.76-55.06,54.76H706.34c-35.22,0-54.76-19.24-54.76-54.76V773.1c0-35.22,19.54-55.06,54.76-55.06h37.59C779.16,718,799,737.88,799,773.1v17.46H760.8V773.1c0-11.84-5-16.87-16.87-16.87H706.34c-11.84,0-16.58,5-16.58,16.87v94.43c0,11.84,4.74,16.57,16.58,16.57h37.59c11.84,0,16.87-4.73,16.87-16.57V849.76Z"/><path d="M836,718H968.59v37.59H874.17v43.52h72.52v37.59H874.17v48h94.42v37.6H836Z"/><path d="M1033.42,864.27v3.26c0,11.84,5,16.57,16.87,16.57h37.59c11.84,0,16.58-4.73,16.58-16.57v-15.1c0-11.84-4.74-16.87-16.58-16.87h-37.59c-35.82,0-55.06-19.24-55.06-54.76v-8c0-35.22,19.24-54.76,55.06-54.76h37.59c35.23,0,54.76,19.54,54.76,54.76v5.63h-38.18V772.8c0-11.84-4.74-16.87-16.58-16.87h-37.59c-11.84,0-16.87,5-16.87,16.87v8c0,11.84,5,16.57,16.87,16.57h37.59c35.23,0,54.76,19.54,54.76,55.06v15.1c0,35.52-19.53,54.76-54.76,54.76h-37.59c-35.82,0-55.06-19.24-55.06-54.76v-3.26Z"/><path d="M1287.38,836.74h-71v85.55h-38.18V718h38.18v81.11h71V718h38.19V922.29h-38.19Z"/><path d="M1358.12,718h101.53v37.59h-32V884.69h32v37.6H1358.12v-37.6h31.38V755.63h-31.38Z"/><path d="M1492.21,718h92.35c35.22,0,55.06,19.84,55.06,55.06v25.75c0,35.23-19.84,55.06-55.06,55.06h-54.17v68.38h-38.18Zm38.18,38.19v59.49h54.17c11.84,0,16.87-5,16.87-16.87V773.1c0-11.84-5-16.87-16.87-16.87Z"/><path d="M1704.43,864.27v3.26c0,11.84,5,16.57,16.88,16.57h37.59c11.84,0,16.58-4.73,16.58-16.57v-15.1c0-11.84-4.74-16.87-16.58-16.87h-37.59c-35.82,0-55.06-19.24-55.06-54.76v-8c0-35.22,19.24-54.76,55.06-54.76h37.59c35.22,0,54.76,19.54,54.76,54.76v5.63h-38.18V772.8c0-11.84-4.74-16.87-16.58-16.87h-37.59c-11.84,0-16.88,5-16.88,16.87v8c0,11.84,5,16.57,16.88,16.57h37.59c35.22,0,54.76,19.54,54.76,55.06v15.1c0,35.52-19.54,54.76-54.76,54.76h-37.59c-35.82,0-55.06-19.24-55.06-54.76v-3.26Z"/></svg>