<?xml version="1.0" encoding="UTF-8"?><svg id="Layer_1" xmlns="http://www.w3.org/2000/svg" xmlns:xlink="http://www.w3.org/1999/xlink" viewBox="0 0 1516 1036"><defs><style>.cls-1{fill:none;}.cls-2{clip-path:url(#clippath);}.cls-3{fill:#ededec;}.cls-4{clip-path:url(#clippath-1);}</style><clipPath id="clippath"><rect class="cls-1" width="1516" height="1036"/></clipPath><clipPath id="clippath-1"><rect class="cls-1" width="1516" height="1036"/></clipPath></defs><g class="cls-2"><rect class="cls-3" width="1516" height="1036"/><g class="cls-4"><path d="M1367.74,913.9h43.8l2.51-17.95-6.98-.46-2.05,3.53c-3.53,6.42-6.05,8.37-11.81,8.37h-3.44v-14.97h1.58c2.51,0,3.53,.93,4.93,3.63l.84,1.77h4.93c-.37-6.04-.37-10.79,0-17.11h-4.83l-.93,1.77c-1.3,2.7-2.14,4-4.93,4h-1.58v-14.97h2.79c5.77,0,8,1.58,11.44,7.44l1.21,2.05,6.79-1.02c-1.12-5.3-1.77-10.23-1.95-15.07h-41.76l-.28,5.67,1.02,.09c3.07,.37,4.09,1.67,4.09,4.93v27.44c0,3.44-.93,4.84-4,5.11l-.84,.09-.56,5.67Zm-25.48,0h21.3l.37-5.39-1.77-.37c-2.88-.74-5.95-2.7-8-5.39l-13.11-17.58,12.37-11.62c1.49-1.3,4.46-2.42,7.25-2.79l2.05-.28v-5.58h-23.9l-.46,5.67,2.79,.37c3.44,.46,4.09,1.67,1.95,3.63l-15.34,14.51c-.37,.46-.84,.65-1.3,.74v-13.76c0-3.81,1.39-5.3,4.56-5.39l.84-.09,.28-5.77h-27.53l-.28,5.77,.84,.09c3.26,.09,4.74,1.67,4.74,5.39v26.41c0,3.81-1.49,5.67-4.74,5.77h-.84l-.28,5.67h27.53l.28-5.67h-.84c-3.16-.09-4.56-1.86-4.56-5.77v-11.72c.37,.09,.65,.37,.93,.65l8.74,12.93c1.3,1.67,4.37,6.14,6.14,9.58m-71.61,0h27.81l.28-5.67-.93-.09c-3.53-.46-4.65-2.23-4.65-5.77v-26.32c0-3.44,1.12-5.3,4.84-5.39l.74-.09,.28-5.77h-27.81l-.28,5.77,.74,.09c3.63,.09,4.93,1.86,4.93,5.39v26.32c0,3.81-1.4,5.67-4.84,5.77l-.84,.09-.28,5.67Zm-33.48-6.42v-14.97c.84-.09,1.95-.09,2.98-.09,5.21,0,7.81,2.6,7.81,7.07,0,6.14-4,8-8.18,8h-2.6Zm0-21.3v-15.07h1.86c3.44,0,6.14,2.05,6.14,6.97,0,6.51-2.98,8.09-6.97,8.09h-1.02Zm-21.95,27.71h26.97c15.72,0,23.16-6.79,23.16-14.6,0-6.79-4.56-10.97-17.48-11.81v-.19c5.49-.46,13.58-3.25,13.58-11.25s-8-11.16-18.41-11.16h-27.43l-.47,5.67,1.21,.09c3.63,.37,4.19,2.79,4.19,5.3v26.6c0,3.16-.56,5.02-4.09,5.58l-.84,.09-.37,5.67Zm-65.38,0h27.62l.28-5.67h-.84c-3.26-.09-4.46-1.86-4.46-5.77v-5.67l13.21-20.18c2.33-3.53,3.72-5.58,6.51-5.86l1.4-.09,.46-5.77h-21.11l-.37,5.77,1.58,.28c4.37,.65,5.49,2.7,3.44,5.86l-8.46,13.39-8.46-12.83c-2.42-3.63-1.3-6.23,2.33-6.7l1.49-.19,.46-5.58h-30.78l-.46,5.77,1.12,.09c2.88,.37,4.28,2.51,6.23,5.39l14.79,21.3v5.02c0,3.53-1.3,5.21-4.84,5.67l-.74,.09-.37,5.67Zm-98.49,0h21.02l.37-5.67-1.86-.19c-4.09-.56-4.09-2.42-3.72-6.05l2.23-23.81,11.16,35.71h14.69l10.6-35.06,2.6,22.51c.56,4.65,0,6.23-2.79,6.7l-1.58,.19-.37,5.67h28.55l.37-5.67-1.21-.09c-3.07-.28-5.58-2.23-5.86-5.49l-3.16-26.6c-.37-3.16,.93-5.12,4.65-5.39l2.32-.09,.28-5.67h-26.88l-10.6,34.78-10.79-34.78h-23.62l-.28,5.67,1.02,.09c3.44,.19,4.09,1.95,4.09,4.74l-3.16,26.78c-.37,3.44-3.16,5.58-6.32,5.86l-1.3,.19-.47,5.67Zm-80.35,0h19.62l.37-6.04-.74-.09c-4.18-.56-6.04-1.77-6.04-4.84v-21.02l27.16,31.99h11.72v-37.57c0-3.44,1.39-5.02,4.93-5.3l.93-.09,.28-6.04h-20.09l-.47,6.04,1.49,.28c3.91,.74,5.49,1.86,5.49,5.3v18.6l-25.48-30.23h-18.79l-.37,5.58,.84,.19c3.35,.74,4.84,1.67,4.84,6.32v25.95c0,3.16-.93,4.46-4.46,4.93l-.84,.09-.37,5.95Zm-47.43-26.97c0-12,4.84-17.48,11.44-17.48,7.25,0,12.93,5.95,12.93,21.95,0,12.83-4.65,17.67-11.35,17.67-7.44,0-13.02-6.79-13.02-22.13m11.16,28.36c17.11,0,31.06-10.04,31.06-27.71,0-14.23-10.88-24.09-28.18-24.09-19.53,0-31.9,10.7-31.9,26.97,0,14.51,10.14,24.83,29.02,24.83m-98.39-1.4h43.8l2.51-17.95-6.98-.46-2.05,3.53c-3.53,6.42-6.05,8.37-11.81,8.37h-3.44v-14.97h1.58c2.51,0,3.53,.93,4.93,3.63l.84,1.77h4.93c-.37-6.04-.37-10.79,0-17.11h-4.84l-.93,1.77c-1.3,2.7-2.14,4-4.93,4h-1.58v-14.97h2.79c5.77,0,8,1.58,11.44,7.44l1.21,2.05,6.79-1.02c-1.12-5.3-1.77-10.23-1.95-15.07h-41.76l-.28,5.67,1.02,.09c3.07,.37,4.09,1.67,4.09,4.93v27.44c0,3.44-.93,4.84-4,5.11l-.84,.09-.56,5.67Zm-33.48-6.42v-14.97c.84-.09,1.95-.09,2.98-.09,5.21,0,7.81,2.6,7.81,7.07,0,6.14-4,8-8.18,8h-2.6Zm0-21.3v-15.07h1.86c3.44,0,6.14,2.05,6.14,6.97,0,6.51-2.98,8.09-6.97,8.09h-1.02Zm-21.95,27.71h26.97c15.72,0,23.16-6.79,23.16-14.6,0-6.79-4.56-10.97-17.48-11.81v-.19c5.49-.46,13.58-3.25,13.58-11.25s-8-11.16-18.41-11.16h-27.43l-.47,5.67,1.21,.09c3.63,.37,4.18,2.79,4.18,5.3v26.6c0,3.16-.56,5.02-4.09,5.58l-.84,.09-.37,5.67Zm-65.38-26.97c0-12,4.84-17.48,11.44-17.48,7.25,0,12.93,5.95,12.93,21.95,0,12.83-4.65,17.67-11.35,17.67-7.44,0-13.02-6.79-13.02-22.13m11.16,28.36c17.11,0,31.06-10.04,31.06-27.71,0-14.23-10.88-24.09-28.18-24.09-19.53,0-31.9,10.7-31.9,26.97,0,14.51,10.14,24.83,29.02,24.83m-75.98-1.4h29.2l.28-5.67-1.58-.09c-3.26-.28-4.65-1.77-4.65-5.67v-30.97h2.33c4.28,0,6.51,1.95,8.18,7.44l1.3,4.09,7.53-.93c-1.21-6.7-1.49-12.46-1.67-17.21h-51.8c-.28,6.98-.74,11.81-1.67,17.21l7.53,.93,1.21-4.09c1.58-5.3,4-7.44,8.37-7.44h2.14v30.97c0,3.81-1.49,5.39-4.74,5.67l-1.77,.09-.19,5.67Zm-77.09,0h29.2l.28-5.67-1.58-.09c-3.26-.28-4.65-1.77-4.65-5.67v-30.97h2.32c4.28,0,6.51,1.95,8.18,7.44l1.3,4.09,7.53-.93c-1.21-6.7-1.49-12.46-1.67-17.21h-51.8c-.28,6.98-.74,11.81-1.67,17.21l7.53,.93,1.21-4.09c1.58-5.3,4-7.44,8.37-7.44h2.14v30.97c0,3.81-1.49,5.39-4.74,5.67l-1.77,.09-.19,5.67Zm-75.42,0h19.62l.37-6.04-.74-.09c-4.18-.56-6.05-1.77-6.05-4.84v-21.02l27.16,31.99h11.72v-37.57c0-3.44,1.4-5.02,4.93-5.3l.93-.09,.28-6.04h-20.09l-.46,6.04,1.49,.28c3.91,.74,5.49,1.86,5.49,5.3v18.6l-25.48-30.23h-18.79l-.37,5.58,.84,.19c3.35,.74,4.84,1.67,4.84,6.32v25.95c0,3.16-.93,4.46-4.46,4.93l-.84,.09-.37,5.95Zm-45.85-19.9l7.35-18.97,6.42,18.97h-13.76Zm-19.44,19.9h21.95l.46-5.67-1.58-.28c-4.56-.65-5.95-2.23-4.28-6.6l.46-1.21h18.23l.74,2.14c1.12,3.72,0,5.3-3.07,5.77l-1.49,.28-.46,5.58h30.41l.37-5.67-1.3-.09c-2.98-.28-4.74-2.23-6.04-5.49l-14.88-37.76h-15.81l-15.07,36.55c-1.77,4.18-3.72,6.32-6.88,6.6l-1.3,.09-.46,5.77Zm-62.59,0h15.81l9.86-34.13,10.14,34.13h16.55l9.86-37.29c.93-3.63,3.44-5.58,6.32-5.86l1.3-.09,.37-5.77h-20.92l-.46,5.77,1.58,.28c4.09,.65,4.56,2.23,3.81,5.95l-5.39,24.83-10.88-36.83h-14.88l-10.51,36.36-5.67-23.9c-1.02-4.09-.28-6.32,2.79-6.7l1.58-.19,.37-5.58h-30.04l-.46,5.77,1.21,.09c2.79,.28,4.84,2.05,5.95,5.39l11.72,37.76Zm-81.74,0h29.2l.28-5.67-1.58-.09c-3.26-.28-4.65-1.77-4.65-5.67v-30.97h2.33c4.28,0,6.51,1.95,8.18,7.44l1.3,4.09,7.53-.93c-1.21-6.7-1.49-12.46-1.67-17.21h-51.8c-.28,6.98-.74,11.81-1.67,17.21l7.53,.93,1.21-4.09c1.58-5.3,4-7.44,8.37-7.44h2.14v30.97c0,3.81-1.49,5.39-4.74,5.67l-1.77,.09-.19,5.67Zm-35.81,1.12c11.35,0,20.55-6.32,20.55-16.93,0-17.39-27.9-13.67-27.9-22.6,0-3.07,2.79-5.12,6.6-5.12,5.77,0,9.11,4.46,11.81,10.42l6.42-.93c-.74-5.86-1.02-10.97-.65-16.65h-4.74c-.74,1.21-1.67,2.05-2.88,2.98-3.26-1.58-6.79-2.32-10.97-2.32-12.09,0-20.37,6.14-20.37,16.46,0,18.6,27.53,13.49,27.53,22.69,0,3.35-2.42,5.21-6.14,5.21-7.16,0-11.9-6.04-15.53-12.18l-6.32,.37c1.02,6.23,1.49,12,1.12,18.51h5.58c.65-1.3,1.49-2.42,2.51-3.53,3.35,2.05,7.91,3.63,13.39,3.63m-55.61,0c12.28,0,23.06-4,23.06-20.83v-18.13c0-3.53,1.12-5.39,4.56-5.49h.84l.28-5.77h-18.79l-.28,5.77h.84c3.44,.09,4.46,1.95,4.46,5.49v19.25c0,8-3.63,12.18-12.09,12.18-9.58,0-11.25-4.56-11.25-11.9v-19.53c0-3.44,1.02-5.39,4.46-5.49h.84l.28-5.77h-27.06l-.37,5.77,.84,.09c3.44,.46,4.37,1.86,4.37,5.39v18.41c0,13.58,7.53,20.55,25.02,20.55m-60.17,17.11c12.09-5.77,19.16-10.42,19.16-22.69v-33.39c0-3.53,.56-5.3,4.09-5.39l.74-.09,.37-5.77h-27.53l-.37,5.77,.84,.09c3.53,.09,5.3,1.86,5.3,5.39v35.53c0,6.42-1.4,11.53-5.95,15.53l3.35,5.02Zm-55.15-18.23h27.81l.28-5.67-.93-.09c-3.53-.46-4.65-2.23-4.65-5.77v-26.32c0-3.44,1.12-5.3,4.84-5.39l.74-.09,.28-5.77h-27.81l-.28,5.77,.74,.09c3.63,.09,4.93,1.86,4.93,5.39v26.32c0,3.81-1.39,5.67-4.84,5.77l-.84,.09-.28,5.67Z"/><path d="M1397.86,414.72h9.03l4.81-20.76c7.42-19.35,11.73-20.05,14.74-20.05,2.51,0,4.61,1.8,6.22,3.51,1.6-1.8,2.81-4.51,2.81-7.02,0-2.81-1.51-5.31-5.82-5.31-4.81,0-10.03,3.41-18.05,25.57l-.5-.1,3.41-12.53c2.41-8.82-.5-12.84-5.72-12.84s-8.52,5.01-11.73,14.04l-2.11,6.02,1.3,.3c4.91-14.04,7.22-15.64,9.12-15.64,2.1,0,2.51,2.41,1.4,7.02l-8.93,37.8Zm-36-23.16c1-9.83,6.52-25.37,16.15-25.37,2.61,0,4.81,1.5,4.81,6.52,0,6.22-2.91,16.45-20.96,18.85m6.32,24.67c10.03,0,17.35-7.62,20.76-17.95l-.6-.3c-3.61,6.02-8.22,10.73-15.34,10.73-9.12,0-11.83-7.82-11.23-15.94,17.55-2.91,29.78-7.92,29.78-18.45,0-4.91-3.61-9.23-11.83-9.23-13.54,0-26.97,13.54-26.97,32.89,0,11.93,6.22,18.25,15.44,18.25m-34.29,0c5.11,0,8.42-3.71,11.83-13.14l2.01-5.51-1.3-.3c-4.11,11.43-6.92,15.24-8.92,15.24s-2.81-2.01-1.8-5.82l7.82-28.68c2.41-8.82-.5-12.84-5.71-12.84s-8.52,5.01-11.73,14.04l-2.11,6.02,1.3,.3c4.91-14.04,7.22-15.64,9.12-15.64,2.11,0,2.71,2.41,1.4,7.02l-7.72,27.78c-1.8,6.52-.2,11.53,5.82,11.53m3.71-69.69c-.8,3.61,1.3,7.02,5.42,7.02s6.82-2.91,7.32-6.02c.6-3.41-1.4-6.62-5.31-6.62-4.11,0-6.72,2.41-7.42,5.61m-41.81,69.69c9.83,0,19.45-7.72,19.45-17.65,0-13.84-19.05-10.73-19.05-22.86,0-5.92,4.31-9.73,9.12-9.73,4.31,0,7.12,2.81,7.12,6.62,0,2.61-.9,5.61-2.21,8.72,1.6,.5,3.01,.7,4.21,.7,4.51,0,6.62-3.01,6.62-6.62,0-5.32-5.92-10.33-14.64-10.33s-18.15,5.62-18.15,15.34c0,13.44,19.45,10.43,19.45,22.86,0,6.72-4.41,11.93-11.43,11.93-4.31,0-7.12-2.81-7.12-6.62,0-2.81,.9-5.61,2.21-8.72-1.6-.5-3.11-.7-4.31-.7-4.51,0-6.52,3.01-6.52,6.62,0,5.32,6.52,10.43,15.24,10.43m-57.26-17.75c0-12.03,4.81-31.89,17.05-31.89,4.21,0,7.22,3.01,9.03,6.72l-3.71,15.34c-6.82,16.55-11.93,20.76-15.64,20.76-4.81,0-6.72-4.21-6.72-10.93m1.61,17.75c6.42,0,12.53-4.91,19.95-22.26l.3,.1-2.11,8.32c-2.61,10.23,1.2,13.84,6.42,13.84,4.41,0,8.52-2.81,12.03-12.94l2.01-5.71-1.3-.3c-4.71,14.34-7.42,15.14-9.23,15.14-2.21,0-3.71-2.01-2.01-9.13l8.82-37.3h-1.2l-5.51,2.61c-3.31-2.21-6.92-3.41-11.53-3.41-13.74,0-28.08,13.54-28.08,34.9,0,8.12,3.21,16.14,11.43,16.14m-44.32-24.67c1-9.83,6.52-25.37,16.14-25.37,2.61,0,4.81,1.5,4.81,6.52,0,6.22-2.91,16.45-20.96,18.85m6.32,24.67c10.03,0,17.35-7.62,20.76-17.95l-.6-.3c-3.61,6.02-8.22,10.73-15.34,10.73-9.12,0-11.83-7.82-11.23-15.94,17.55-2.91,29.78-7.92,29.78-18.45,0-4.91-3.61-9.23-11.83-9.23-13.54,0-26.97,13.54-26.97,32.89,0,11.93,6.22,18.25,15.44,18.25m-86.14,22.16c20.15,0,48.33-44.52,48.33-64.28,0-5.11-2.61-8.92-6.82-8.92-3.31,0-5.41,1.91-5.41,4.51,0,1.1,.3,2.31,1.1,3.61,.8-.4,1.6-.6,2.41-.6,2.81,0,5.41,2.11,5.41,6.32,0,7.52-6.32,21.76-14.94,33.39l-6.32-35c-1.1-6.32-2.31-12.23-8.72-12.23-5.62,0-8.62,4.31-12.43,14.84l-1.8,5.01,1.3,.5c4.41-12.74,6.82-15.04,8.72-15.04,2.1,0,2.91,1.71,4.11,8.02l8.02,42.22c-5.72,5.82-11.83,9.73-17.55,9.73-3.31,0-6.32-1.2-9.12-4.01-2.41,2.01-3.41,4.21-3.41,6.12,0,3.31,2.81,5.82,7.12,5.82m-11.93-22.16c5.11,0,8.42-3.71,11.83-13.14l2.01-5.51-1.3-.3c-4.11,11.43-6.92,15.24-8.92,15.24-2.1,0-2.91-2.21-1.7-6.62l6.12-23.36c2.21-8.42,.6-17.35-8.82-17.35-7.92,0-14.14,6.72-21.86,25.47l-.4-.1,3.31-12.53c2.31-8.82-.5-12.84-5.72-12.84s-8.52,5.01-11.73,14.04l-2.11,6.02,1.3,.3c4.91-14.04,7.22-15.64,9.12-15.64,2.11,0,2.51,2.41,1.4,7.02l-8.92,37.8h9.03l4.81-20.76c7.72-19.65,13.34-22.36,17.35-22.36,5.31,0,5.92,4.51,4.51,10.03l-5.62,21.96c-1.81,7.22,0,12.64,6.32,12.64m-81.83-17.75c0-12.03,4.81-31.89,17.05-31.89,4.21,0,7.22,3.01,9.03,6.72l-3.71,15.34c-6.82,16.55-11.93,20.76-15.64,20.76-4.81,0-6.72-4.21-6.72-10.93m1.6,17.75c6.42,0,12.53-4.91,19.96-22.26l.3,.1-2.11,8.32c-2.61,10.23,1.2,13.84,6.42,13.84,4.41,0,8.52-2.81,12.03-12.94l2.01-5.71-1.3-.3c-4.71,14.34-7.42,15.14-9.23,15.14-2.21,0-3.71-2.01-2.01-9.13l8.82-37.3h-1.2l-5.52,2.61c-3.31-2.21-6.92-3.41-11.53-3.41-13.74,0-28.08,13.54-28.08,34.9,0,8.12,3.21,16.14,11.43,16.14m-51.14,0c6.12,0,11.63-6.82,15.14-16.04l.8-2.11-1.1-.4c-3.91,8.82-6.82,12.53-10.53,12.53-5.21,0-5.21-4.81-4.11-9.83l7.32-32.39h14.54l.3-1.4h-14.54l4.91-21.86h-.8c-4.51,12.33-10.73,20.36-20.86,22.36l-.2,.9h7.82l-7.72,33.19c-2.11,9.02,1,15.04,9.03,15.04m-45.73-24.67c1-9.83,6.52-25.37,16.14-25.37,2.61,0,4.81,1.5,4.81,6.52,0,6.22-2.91,16.45-20.96,18.85m6.32,24.67c10.03,0,17.35-7.62,20.76-17.95l-.6-.3c-3.61,6.02-8.22,10.73-15.34,10.73-9.12,0-11.83-7.82-11.23-15.94,17.55-2.91,29.78-7.92,29.78-18.45,0-4.91-3.61-9.23-11.83-9.23-13.54,0-26.97,13.54-26.97,32.89,0,11.93,6.22,18.25,15.44,18.25m-60.57,10.13c0-4.01,1.4-8.42,6.42-11.53,.7,.3,1.5,.6,2.41,.9l9.43,3.41c6.02,2.21,8.52,3.91,8.52,7.82,0,5.41-4.41,9.73-13.14,9.73s-13.64-5.42-13.64-10.33m19.15-28.28c-4.81,0-7.32-4.91-7.32-12.03,0-8.12,3.31-19.76,12.23-19.76,4.71,0,7.02,3.81,7.02,11.63,0,6.92-2.41,20.15-11.93,20.15m-.7,1.2c12.94,0,22.56-8.72,22.56-20.46,0-6.32-4.71-11.03-10.73-12.84h5.82c7.52,0,12.93-2.01,12.93-7.02,0-3.01-2.31-4.81-5.72-4.81-1.2,0-2.61,.2-4.01,.8,.9,2.11,1.3,3.81,1.3,5.22,0,3.21-2.11,4.61-5.32,4.71l-10.63,.3c-12.93,0-22.86,8.32-22.86,20.06,0,5.62,2.71,9.83,7.32,12.13-8.42,2.81-11.33,5.92-11.33,9.53,0,3.21,2.11,5.11,7.22,7.32-9.12,4.41-13.64,7.52-13.64,13.14,0,6.42,6.72,10.93,19.05,10.93,14.24,0,25.17-7.42,25.17-15.74,0-4.91-2.61-7.82-12.13-11.43l-11.93-4.51c-7.12-2.71-6.12-5.82-1.2-8.72,2.31,.9,5.01,1.4,8.12,1.4m-79.62,.4c0-10.13,4.91-33.39,18.25-33.39,6.82,0,10.53,5.22,10.53,14.44s-5.52,34.3-18.55,34.3c-7.12,0-10.23-6.52-10.23-15.34m9.22,16.55c16.25,0,28.58-17.35,28.58-33.09,0-11.53-7.52-18.05-17.55-18.05-16.45,0-29.28,15.34-29.28,32.59,0,11.23,6.22,18.55,18.25,18.55m-39.71,0c6.12,0,11.63-6.82,15.14-16.04l.8-2.11-1.1-.4c-3.91,8.82-6.82,12.53-10.53,12.53-5.21,0-5.21-4.81-4.11-9.83l7.32-32.39h14.54l.3-1.4h-14.54l4.91-21.86h-.8c-4.51,12.33-10.73,20.36-20.86,22.36l-.2,.9h7.82l-7.72,33.19c-2.11,9.02,1,15.04,9.02,15.04m-51.54,0c6.12,0,11.63-6.82,15.14-16.04l.8-2.11-1.1-.4c-3.91,8.82-6.82,12.53-10.53,12.53-5.21,0-5.21-4.81-4.11-9.83l7.32-32.39h14.54l.3-1.4h-14.54l4.91-21.86h-.8c-4.51,12.33-10.73,20.36-20.86,22.36l-.2,.9h7.82l-7.72,33.19c-2.11,9.02,1,15.04,9.02,15.04m-29.28,0c5.11,0,8.42-3.71,11.83-13.14l2.01-5.51-1.3-.3c-4.11,11.43-6.92,15.24-8.92,15.24s-2.81-2.01-1.8-5.82l7.82-28.68c2.41-8.82-.5-12.84-5.72-12.84s-8.52,5.01-11.73,14.04l-2.11,6.02,1.3,.3c4.91-14.04,7.22-15.64,9.12-15.64,2.11,0,2.71,2.41,1.4,7.02l-7.72,27.78c-1.81,6.52-.2,11.53,5.82,11.53m3.71-69.69c-.8,3.61,1.3,7.02,5.41,7.02s6.82-2.91,7.32-6.02c.6-3.41-1.4-6.62-5.32-6.62-4.11,0-6.72,2.41-7.42,5.61m-53.05,69.69c6.12,0,11.63-6.82,15.14-16.04l.8-2.11-1.1-.4c-3.91,8.82-6.82,12.53-10.53,12.53-5.21,0-5.21-4.81-4.11-9.83l7.32-32.39h14.54l.3-1.4h-14.54l4.91-21.86h-.8c-4.51,12.33-10.73,20.36-20.86,22.36l-.2,.9h7.82l-7.72,33.19c-2.11,9.02,1,15.04,9.02,15.04m-40.01,0c11.73,0,17.25-10.63,19.65-18.05l-.5-.2c-4.01,6.62-9.03,10.73-15.44,10.73s-10.93-5.42-10.93-13.84c0-9.53,4.61-28.68,16.55-28.68,4.71,0,6.72,3.21,6.72,7.72,0,3.01-.9,6.52-2.31,10.13,1.7,.6,3.21,.8,4.51,.8,5.01,0,7.22-3.41,7.22-7.62,0-6.32-5.01-12.13-14.54-12.13-15.24,0-27.17,14.74-27.17,32.29,0,12.84,7.32,18.85,16.24,18.85m-50.14-24.67c1-9.83,6.52-25.37,16.15-25.37,2.61,0,4.81,1.5,4.81,6.52,0,6.22-2.91,16.45-20.96,18.85m6.32,24.67c10.03,0,17.35-7.62,20.76-17.95l-.6-.3c-3.61,6.02-8.22,10.73-15.34,10.73-9.12,0-11.83-7.82-11.23-15.94,17.55-2.91,29.78-7.92,29.78-18.45,0-4.91-3.61-9.23-11.83-9.23-13.54,0-26.97,13.54-26.97,32.89,0,11.93,6.22,18.25,15.44,18.25m-57.06-7.92l3.41-15.64c6.82-16.55,12.53-20.76,16.24-20.76,4.81,0,6.72,4.21,6.72,10.93,0,12.03-5.32,31.99-17.55,31.99-4.01,0-7.02-3.01-8.83-6.52m-21.96,28.48h24.47l.2-1-1-.1c-6.72-.7-7.72-1.4-6.62-6.22l3.61-15.44c3.01,1.4,6.32,2.21,9.93,2.21,12.73,0,27.58-13.64,27.58-35,0-8.12-3.21-16.14-11.43-16.14-6.42,0-13.14,4.91-20.56,22.26l-.5-.1,2.91-9.22c2.71-8.62-.3-12.84-5.52-12.84s-8.52,5.01-11.73,14.04l-2.11,6.02,1.3,.3c4.91-14.04,7.22-15.64,9.12-15.64,2.11,0,2.41,2.41,1.4,7.02l-11.73,52.04c-1.1,4.81-2.31,6.22-7.92,6.72l-1.2,.1-.2,1Zm-9.33-20.56c5.62,0,8.62-4.31,12.43-14.84l1.8-5.01-1.3-.5c-4.41,12.73-6.82,15.04-8.72,15.04-2.11,0-3.71-1.7-5.41-8.02l-4.11-15.04,7.82-9.33c2.51-3.11,5.42-5.01,8.62-5.01,2.01,0,4.01,.7,6.12,2.11,1.6-1.7,2.41-3.91,2.41-5.72,0-2.61-1.6-4.71-4.71-4.71-4.31,0-7.92,4.61-12.64,10.63l-8.02,10.33-2.41-8.82c-1.71-6.32-3.31-12.13-9.53-12.13-5.62,0-8.62,4.31-12.43,14.84l-1.81,5.01,1.3,.5c4.41-12.74,6.82-15.04,8.72-15.04,2.11,0,3.41,1.71,5.11,8.02l4.01,14.64-9.33,10.63c-2.51,2.81-5.11,4.31-8.02,4.31-2.01,0-4.21-.7-6.52-2.31-1.6,1.71-2.41,3.71-2.41,5.52,0,2.71,1.5,4.91,4.71,4.91,4.41,0,7.72-4.01,12.43-9.83l9.53-11.63,2.51,9.23c1.71,6.32,3.41,12.23,9.83,12.23m-66.48-24.67c1-9.83,6.52-25.37,16.14-25.37,2.61,0,4.81,1.5,4.81,6.52,0,6.22-2.91,16.45-20.96,18.85m6.32,24.67c10.03,0,17.35-7.62,20.76-17.95l-.6-.3c-3.61,6.02-8.22,10.73-15.34,10.73-9.12,0-11.83-7.82-11.23-15.94,17.55-2.91,29.78-7.92,29.78-18.45,0-4.91-3.61-9.23-11.83-9.23-13.54,0-26.97,13.54-26.97,32.89,0,11.93,6.22,18.25,15.44,18.25m-55.05,0c6.12,0,11.63-6.82,15.14-16.04l.8-2.11-1.1-.4c-3.91,8.82-6.82,12.53-10.53,12.53-5.21,0-5.21-4.81-4.11-9.83l7.32-32.39h14.54l.3-1.4h-14.54l4.91-21.86h-.8c-4.51,12.33-10.73,20.36-20.86,22.36l-.2,.9h7.82l-7.72,33.19c-2.1,9.02,1,15.04,9.03,15.04m-30.38-50.64c9.02-4.11,17.35-11.53,17.35-20.36,0-4.51-2.61-7.22-6.52-7.22-4.71,0-7.92,2.91-7.92,7.32,0,3.11,2.41,5.72,6.22,5.72,.5,0,1,0,1.5-.1-1.4,6.02-5.92,11.03-11.13,13.54l.5,1.1Zm-14.34,50.64c5.11,0,8.42-3.71,11.83-13.14l2-5.51-1.3-.3c-4.11,11.43-6.92,15.24-8.93,15.24-2.11,0-2.91-2.21-1.7-6.62l6.12-23.36c2.21-8.42,.6-17.35-8.82-17.35-7.92,0-14.14,6.72-21.86,25.47l-.4-.1,3.31-12.53c2.31-8.82-.5-12.84-5.72-12.84s-8.52,5.01-11.73,14.04l-2.11,6.02,1.3,.3c4.91-14.04,7.22-15.64,9.13-15.64,2.1,0,2.51,2.41,1.4,7.02l-8.92,37.8h9.02l4.81-20.76c7.72-19.65,13.34-22.36,17.35-22.36,5.31,0,5.92,4.51,4.51,10.03l-5.62,21.96c-1.8,7.22,0,12.64,6.32,12.64m-81.93-16.55c0-10.13,4.91-33.39,18.25-33.39,6.82,0,10.53,5.22,10.53,14.44s-5.52,34.3-18.55,34.3c-7.12,0-10.23-6.52-10.23-15.34m9.23,16.55c16.24,0,28.58-17.35,28.58-33.09,0-11.53-7.52-18.05-17.55-18.05-16.45,0-29.28,15.34-29.28,32.59,0,11.23,6.22,18.55,18.25,18.55m-80.82-2.61l14.84-65.48h9.43c15.04,0,23.87,5.52,23.87,23.77,0,24.57-14.64,41.72-38.31,41.72h-9.83Zm-18.35,1.1h29.48c30.89,0,47.43-19.85,47.43-41.01,0-17.45-12.93-26.67-32.99-26.67h-28.58l-.2,1.1,2.01,.2c5.42,.5,6.02,1.6,5.01,6.22l-11.83,52.65c-1,4.61-2.21,5.62-8.12,6.22l-1.9,.2-.3,1.1Zm-55.05-26.47h53.95l.6-2.21h-53.95l-.6,2.21Z"/><path d="M1370.92,756.8l14.71-66.01h4.1c14.36,0,21.72,5.3,21.72,22.23,0,26.16-14.88,43.78-34.2,43.78h-6.33Zm-49.93,47.54h53.69l.34-1.88-2.91-.34c-9.41-.68-10.6-3.42-9.06-10.94l7.35-32.49h6.84c37.62,0,60.7-15.22,60.7-41.38,0-17.27-16.07-28.39-42.07-28.39h-48.73l-.34,1.88,3.25,.34c7.01,.68,8.55,3.25,6.84,10.94l-20.01,89.09c-1.71,7.69-4.28,10.09-12.14,10.94l-3.25,.34-.51,1.88Zm-61.56,2.57c23.08,0,39.84-8.38,45.83-34.71l15.73-70.11c1.71-7.35,4.27-10.09,12.14-10.94l3.42-.34,.34-1.88h-28.9l-.34,1.88,3.25,.34c6.67,.85,8.72,3.25,7.01,10.94l-16.24,71.14c-4.62,20.18-18.64,29.93-36.08,29.93-20.69,0-27.02-9.58-22.06-31.63l15.73-69.77c1.71-7.7,4.1-9.58,11.97-10.6l3.42-.34,.51-1.88h-51.81l-.34,1.88,3.08,.34c6.84,.68,8.72,3.25,7.01,10.94l-14.02,62.59c-6.5,28.73,6.33,42.24,40.36,42.24m-177.1-2.57h51.64l.34-1.88-3.25-.34c-7.35-.85-8.72-3.25-7.01-10.6l9.06-40.01,37.28-48.74c5.64-7.35,8.38-10.43,15.9-11.46l3.76-.51,.51-1.88h-33.17l-.34,1.88,4.45,.34c10.09,1.03,11.46,4.27,5.47,11.97l-35.06,45.83-15.39-45.14c-2.91-8.55,1.54-11.8,11.11-12.65l3.93-.34,.34-1.88h-56.09l-.34,1.88,3.42,.68c5.13,.86,7.69,3.59,10.43,11.63l17.44,49.76-8.72,38.65c-1.88,7.52-4.45,9.75-11.46,10.43l-3.76,.51-.51,1.88Zm-89.94-41.55l32.83-55.92,7.01,55.92h-39.84Zm-38.82,41.55h33l.34-1.88-3.42-.34c-11.11-1.2-11.97-4.1-7.01-12.48l14.36-24.28h41.55l3.08,23.94c1.03,7.87-2.05,11.8-10.94,12.65l-4.45,.51-.34,1.88h54.55l.51-1.88-3.25-.51c-7.01-1.2-8.72-3.93-9.92-12.31l-14.54-101.4h-13.51l-60.71,102.26c-4.45,7.52-7.7,10.43-15.05,11.46l-3.93,.51-.34,1.88Zm-110.98,.68h13.68l50.45-92.34,6.67,92.34h13.85l53.18-102.26c3.93-7.52,7.7-10.43,15.22-11.46l3.76-.51,.51-1.88h-33.34l-.51,1.88,3.76,.34c10.94,1.03,11.11,3.93,6.67,12.48l-39.16,74.56-5.64-89.26h-15.73l-49.76,91.31-3.59-76.44c-.34-7.87,2.05-11.8,10.77-12.65l4.45-.34,.34-1.88h-54.38l-.51,1.88,3.42,.51c6.84,1.03,9.23,3.76,9.75,12.14l6.16,101.57Zm-168.89-.68h82.76l14.88-40.36-1.2-.17-5.47,8.38c-13.51,22.06-25.99,30.1-43.09,30.1h-8.38l12.65-56.26h7.01c10.26,0,13,3.59,14.19,16.42l.51,6.16h1.37c2.22-15.56,5.64-30.78,10.26-45.83h-1.2l-3.25,5.64c-7.35,13-11.29,15.73-21.38,15.73h-7.01l11.97-53.35h7.52c15.56,0,22.06,6.33,25.82,26.33l1.71,8.72,1.37-.34c.68-12.14,2.57-25.31,5.47-36.59h-80.37l-.34,1.88,3.25,.34c7.01,.68,8.55,3.25,6.84,10.94l-20.01,89.09c-1.71,7.69-4.45,10.09-12.14,10.94l-3.25,.34-.51,1.88Zm-139.53,0h52.33l.34-1.88-2.91-.34c-8.21-1.03-9.58-3.25-7.87-10.94l9.92-43.95h50.27l-9.06,40.36c-2.57,11.29-5.13,13.68-12.83,14.54l-3.25,.34-.34,1.88h51.47l.34-1.88-2.91-.34c-7.52-1.03-8.89-3.42-6.5-14.54l19.32-85.5c1.88-7.87,4.27-10.26,12.14-10.94l3.42-.34,.34-1.88h-52.33l-.51,1.88,3.25,.34c7.87,.85,9.4,3.25,7.7,10.94l-9.58,42.07h-50.27l9.41-42.41c1.71-7.52,4.1-9.92,11.8-10.6l3.42-.34,.51-1.88h-51.47l-.34,1.88,3.25,.34c7.01,.68,8.55,3.25,6.84,10.94l-20.01,89.09c-1.71,7.69-4.45,10.09-12.14,10.94l-3.25,.34-.51,1.88Zm-90.12,0h53.35l.34-1.88-4.1-.51c-7.52-.68-8.72-3.08-7.18-10.43l22.91-100.55h1.71c13.17,0,22.91,10.43,27.19,33.52l.85,4.79,1.54-.17c1.03-15.05,2.39-28.73,5.47-40.19h-100.72c-2.05,11.97-5.64,24.97-10.94,40.01l1.54,.68,4.45-7.01c11.46-18.47,26.33-31.81,40.7-31.81h2.05l-22.74,100.72c-1.71,7.52-4.27,9.58-11.46,10.43l-4.62,.51-.34,1.88Zm-154.86,0h83.45l16.42-45.49-1.2-.17-6.16,9.92c-12.83,22.23-28.21,33.69-44.8,33.69h-8.21l22.57-100.21c1.88-7.87,4.79-10.26,14.02-10.94l4.96-.34,.34-1.88h-55.23l-.34,1.88,3.25,.34c7.01,.68,8.55,3.25,6.84,10.94l-20.01,89.09c-1.71,7.69-4.45,10.09-12.14,10.94l-3.25,.34-.51,1.88Zm-99.01,0h83.45l16.42-45.49-1.2-.17-6.16,9.92c-12.83,22.23-28.21,33.69-44.8,33.69h-8.21l22.57-100.21c1.88-7.87,4.79-10.26,14.02-10.94l4.96-.34,.34-1.88h-55.23l-.34,1.88,3.25,.34c7.01,.68,8.55,3.25,6.84,10.94l-20.01,89.09c-1.71,7.69-4.45,10.09-12.14,10.94l-3.25,.34-.51,1.88Zm-85.84-41.55l32.83-55.92,7.01,55.92h-39.84Zm-38.82,41.55h33l.34-1.88-3.42-.34c-11.11-1.2-11.97-4.1-7.01-12.48l14.36-24.28h41.55l3.08,23.94c1.03,7.87-2.05,11.8-10.94,12.65l-4.45,.51-.34,1.88h54.55l.51-1.88-3.25-.51c-7.01-1.2-8.72-3.93-9.92-12.31l-14.54-101.4h-13.51l-60.7,102.26c-4.45,7.52-7.69,10.43-15.05,11.46l-3.93,.51-.34,1.88Z"/><path d="M1421.88,642.75c4.88,0,8.57-2.77,8.57-6.99,0-5.92-8.15-5.71-8.15-9.68,0-1.61,1.2-2.61,2.94-2.61s2.69,.99,2.69,2.57c0,.62-.12,1.32-.41,2.11,.62,.17,1.2,.25,1.7,.25,1.86,0,2.94-.99,2.94-2.69,0-2.44-2.57-4.3-6.42-4.3-4.51,0-7.95,2.44-7.95,6.75,0,5.79,8.07,5.34,8.07,9.44,0,1.78-1.37,3.06-3.64,3.06-1.9,0-2.81-1.08-2.81-2.81,0-.66,.12-1.45,.41-2.28-.66-.21-1.28-.29-1.82-.29-1.78,0-2.9,1.03-2.9,2.94,0,2.48,2.57,4.55,6.79,4.55m-19.16-11.63c.74-3.89,2.9-7.62,5.42-7.62,1.08,0,1.74,.74,1.74,2.07,0,2.98-2.11,4.76-7.16,5.55m1.45,11.63c3.97,0,7.08-2.61,8.86-7.49l-1.78-.66c-1.28,2.65-2.98,4.59-5.22,4.59-3.1,0-3.81-3.1-3.6-5.88,6.42-.79,11.71-3.15,11.71-7.49,0-2.48-1.9-4.43-5.5-4.43-7.53,0-11.51,7.04-11.51,13.45,0,5.05,2.9,7.9,7.04,7.9m-16.89,0c3.15,0,5.38-1.78,6.91-6.17l.58-1.57-1.78-.54c-1.37,3.64-2.73,4.97-4.1,4.97-1.24,0-1.9-1.16-1.37-3.48l2.65-11.46h5.63l.58-2.48h-5.63l1.53-6.54h-2.07c-1.78,3.85-3.1,6.08-7.57,7.16l-.41,1.86h3.06l-2.61,11.17c-.95,4.18,.62,7.08,4.59,7.08m-24.75,0c2.9,0,5.34-1.82,8.19-8.32l.25,.04-.66,2.4c-1.12,4.1,.74,5.88,3.15,5.88,2.07,0,4.06-1.08,5.63-5.21l.91-2.36-1.7-.58c-1.28,3.39-2.11,4.55-2.98,4.55-.74,0-.99-.66-.5-2.73l3.31-14.4-.5-.37-4.43,.37-1.99,8.61c-2.77,6.54-4.8,8.11-6.33,8.11-1.61,0-1.82-1.82-1.28-3.81l2.15-8.03c.91-3.35-.5-5.51-3.39-5.51-2.73,0-4.93,1.66-6.17,5.34l-.79,2.36,1.7,.5c1.28-3.6,2.15-4.93,3.19-4.93,.83,0,.95,.91,.5,2.57l-2.23,8.36c-1.08,3.97,.04,7.16,3.97,7.16m-13.66,0c2.32,0,4.22-1.28,5.71-5.21l.79-2.23-1.61-.5c-1.37,3.35-2.23,4.68-3.06,4.68-.87,0-.95-.91-.45-2.73l2.11-8.24c.95-3.6-.12-7.12-4.02-7.12-3.1,0-5.59,1.78-8.44,8.32l-.21-.04,.66-2.4c1.08-3.93-.58-5.88-2.98-5.88-2.53,0-4.51,1.37-5.92,5.42l-.83,2.4,1.66,.58c1.37-3.77,2.23-4.84,3.02-4.84,.83,0,.99,.91,.54,2.77l-3.31,14.4h4.93l1.94-8.61c2.77-6.29,4.72-8.11,6.42-8.11s2.07,1.61,1.49,3.77l-1.99,7.78c-.95,3.68,.66,5.79,3.56,5.79m-25.74,0c2.19,0,4.3-1.2,5.75-5.05l.91-2.4-1.61-.5c-1.37,3.27-2.23,4.68-3.1,4.68-.99,0-.91-1.2-.46-2.86l2.61-9.48c.87-3.02-.33-5.75-3.52-5.75-2.52,0-4.47,1.33-5.83,5.05l-.91,2.61,1.7,.54c1.41-3.93,2.23-4.97,3.06-4.97,1.04,0,.91,1.45,.5,2.9l-2.48,9.11c-.95,3.39,0,6.12,3.39,6.12m-.08-28.06c-.12,1.61,.74,2.81,2.61,2.81,2.15,0,3.64-1.49,3.81-3.56,.12-1.61-.83-2.73-2.57-2.73-2.19,0-3.68,1.41-3.85,3.48m-13.66,28.06c2.07,0,4.39-1.2,5.79-5.17l.83-2.28-1.66-.5c-1.32,3.52-2.19,4.68-3.06,4.68s-.99-.74-.41-2.86l2.11-8.11c.95-3.6,0-7.12-3.81-7.12-2.98,0-5.34,1.78-8.11,8.32l-.25-.04,.5-1.99c.87-3.56-.33-6.29-3.72-6.29-2.81,0-5.17,1.78-7.86,8.32l-.25-.04,.66-2.4c1.08-3.93-.54-5.88-2.94-5.88-2.57,0-4.55,1.33-6,5.38l-.83,2.44,1.7,.54c1.28-3.81,2.11-4.8,2.94-4.8,.87,0,.99,1.08,.62,2.77l-3.27,14.4h4.93l1.94-8.61c2.65-6.54,4.55-8.11,6.12-8.11s1.78,1.65,1.28,3.77l-3.02,12.95h4.97l1.94-8.61c2.69-6.54,4.55-8.11,6.21-8.11,1.53,0,1.7,1.78,1.16,3.77l-1.95,7.78c-.95,3.68,.54,5.79,3.44,5.79m-51.61-2.32c-2.69,0-4.35-1.82-4.35-5.42,0-5.05,1.94-13.04,7.45-13.04,2.52,0,3.97,1.82,3.97,5.42,0,6.66-3.02,13.04-7.08,13.04m-.58,2.32c8.28,0,12.91-6.58,12.91-14.15,0-5.75-3.06-8.9-8.86-8.9-7.99,0-13.08,6.25-13.08,14.07,0,5.01,2.69,8.98,9.02,8.98m-31.83,6.54c13.16-.25,20.45-5.5,20.45-12.66,0-4.35-3.27-7.08-7.66-7.08-2.69,0-4.84,1.03-6.37,2.36l2.03-8.44c3.48,.74,5.92,1.2,8.24,1.2,3.68,0,5.17-2.07,5.59-6.46l-1.82-.29c-.58,1.7-1.49,2.4-3.48,2.4h-10.55l-3.35,14.24,1.49,.87c2.19-2.03,4.18-2.77,6.08-2.77,2.69,0,4.39,1.66,4.39,4.43,0,5.01-4.51,9.39-15.11,10.01l.08,2.19Zm-15.73-6.54c3.15,0,5.38-1.78,6.91-6.17l.58-1.57-1.78-.54c-1.37,3.64-2.73,4.97-4.1,4.97-1.24,0-1.9-1.16-1.37-3.48l2.65-11.46h5.63l.58-2.48h-5.63l1.53-6.54h-2.07c-1.78,3.85-3.1,6.08-7.57,7.16l-.41,1.86h3.06l-2.61,11.17c-.95,4.18,.62,7.08,4.59,7.08m-19.37-11.63c.74-3.89,2.9-7.62,5.42-7.62,1.08,0,1.74,.74,1.74,2.07,0,2.98-2.11,4.76-7.16,5.55m1.45,11.63c3.97,0,7.08-2.61,8.86-7.49l-1.78-.66c-1.28,2.65-2.98,4.59-5.22,4.59-3.1,0-3.81-3.1-3.6-5.88,6.42-.79,11.71-3.15,11.71-7.49,0-2.48-1.9-4.43-5.5-4.43-7.53,0-11.51,7.04-11.51,13.45,0,5.05,2.9,7.9,7.04,7.9m-27.27,0c4.88,0,8.57-2.77,8.57-6.99,0-5.92-8.15-5.71-8.15-9.68,0-1.61,1.2-2.61,2.94-2.61s2.69,.99,2.69,2.57c0,.62-.12,1.32-.41,2.11,.62,.17,1.2,.25,1.7,.25,1.86,0,2.94-.99,2.94-2.69,0-2.44-2.57-4.3-6.42-4.3-4.51,0-7.95,2.44-7.95,6.75,0,5.79,8.07,5.34,8.07,9.44,0,1.78-1.37,3.06-3.64,3.06-1.9,0-2.81-1.08-2.81-2.81,0-.66,.12-1.45,.41-2.28-.66-.21-1.28-.29-1.82-.29-1.78,0-2.9,1.03-2.9,2.94,0,2.48,2.57,4.55,6.79,4.55m-19.16-11.63c.74-3.89,2.9-7.62,5.42-7.62,1.08,0,1.74,.74,1.74,2.07,0,2.98-2.11,4.76-7.16,5.55m1.45,11.63c3.97,0,7.08-2.61,8.86-7.49l-1.78-.66c-1.28,2.65-2.98,4.59-5.21,4.59-3.1,0-3.81-3.1-3.6-5.88,6.42-.79,11.71-3.15,11.71-7.49,0-2.48-1.9-4.43-5.51-4.43-7.53,0-11.51,7.04-11.51,13.45,0,5.05,2.9,7.9,7.04,7.9m-24.38-.62h4.93l1.94-8.4c2.86-6.5,4.43-7.12,6-7.12,.99,0,1.82,.33,2.73,.95,1.08-1.28,1.57-2.69,1.57-3.81,0-1.37-.79-2.36-2.44-2.36-2.03,0-4.51,1.53-7.37,8.53l-.25-.04,.7-2.94c.87-3.64-.7-5.55-3.15-5.55s-4.39,1.41-5.8,5.46l-.79,2.36,1.7,.58c1.41-3.85,2.23-4.84,3.02-4.84s.91,.95,.5,2.77l-3.31,14.4Zm-20.11,.62c2.9,0,5.34-1.82,8.2-8.32l.25,.04-.66,2.4c-1.12,4.1,.74,5.88,3.15,5.88,2.07,0,4.06-1.08,5.63-5.21l.91-2.36-1.7-.58c-1.28,3.39-2.11,4.55-2.98,4.55-.74,0-.99-.66-.5-2.73l3.31-14.4-.5-.37-4.43,.37-1.99,8.61c-2.77,6.54-4.8,8.11-6.33,8.11-1.61,0-1.82-1.82-1.28-3.81l2.15-8.03c.91-3.35-.5-5.51-3.39-5.51-2.73,0-4.92,1.66-6.17,5.34l-.79,2.36,1.7,.5c1.28-3.6,2.15-4.93,3.19-4.93,.83,0,.95,.91,.5,2.57l-2.23,8.36c-1.08,3.97,.04,7.16,3.97,7.16m-19.95-11.63c.74-3.89,2.9-7.62,5.42-7.62,1.08,0,1.74,.74,1.74,2.07,0,2.98-2.11,4.76-7.16,5.55m1.45,11.63c3.97,0,7.08-2.61,8.86-7.49l-1.78-.66c-1.28,2.65-2.98,4.59-5.21,4.59-3.1,0-3.81-3.1-3.6-5.88,6.42-.79,11.71-3.15,11.71-7.49,0-2.48-1.9-4.43-5.51-4.43-7.53,0-11.51,7.04-11.51,13.45,0,5.05,2.9,7.9,7.04,7.9m-15.52,0c2.53,0,4.39-1.32,5.88-5.17l.87-2.28-1.61-.5c-1.37,3.35-2.28,4.68-3.1,4.68-.87,0-.99-.79-.45-2.86l2.11-8.11c.95-3.6-.17-7.12-4.1-7.12-3.06,0-5.34,1.78-8.28,8.11l-.21-.08,2.07-6.37,3.02-12.91-.46-.33-8.15,1.16-.5,1.9,.79,.21c1.7,.46,2.36,1.24,1.86,3.35l-5.92,25.7h4.93l1.99-8.81c2.86-6.54,4.8-8.03,6.42-8.03,1.78,0,1.99,1.66,1.45,3.77l-1.99,7.9c-.99,3.85,.54,5.79,3.39,5.79m-39.07-2.32c-2.69,0-4.34-1.82-4.34-5.42,0-5.05,1.94-13.04,7.45-13.04,2.53,0,3.97,1.82,3.97,5.42,0,6.66-3.02,13.04-7.08,13.04m-.58,2.32c8.28,0,12.91-6.58,12.91-14.15,0-5.75-3.06-8.9-8.86-8.9-7.99,0-13.08,6.25-13.08,14.07,0,5.01,2.69,8.98,9.02,8.98m-27.69-.62h15.27l.58-2.03-1.66-.17c-2.77-.29-3.1-1.2-2.73-2.98l3.85-17.34h-3.06c-1.57,3.19-4.39,6-10.47,7.41l.58,2.24c2.07-.33,4.1-.87,6-1.57l-2.03,9.31c-.45,2.03-1.2,2.69-4.72,3.02l-.95,.04-.66,2.07Zm-22.1,7.78c5.63-2.19,9.56-5.67,9.56-10.31,0-2.48-1.37-3.72-3.31-3.72-2.4,0-4.1,1.49-4.1,3.85,0,1.57,1.16,2.86,3.15,2.86l.16-.04c-.79,2.11-2.77,3.89-6.25,5.34l.79,2.03Zm-9.56-7.16c4.88,0,8.57-2.77,8.57-6.99,0-5.92-8.15-5.71-8.15-9.68,0-1.61,1.2-2.61,2.94-2.61s2.69,.99,2.69,2.57c0,.62-.12,1.32-.41,2.11,.62,.17,1.2,.25,1.7,.25,1.86,0,2.94-.99,2.94-2.69,0-2.44-2.57-4.3-6.42-4.3-4.51,0-7.95,2.44-7.95,6.75,0,5.79,8.07,5.34,8.07,9.44,0,1.78-1.37,3.06-3.64,3.06-1.9,0-2.81-1.08-2.81-2.81,0-.66,.12-1.45,.41-2.28-.66-.21-1.28-.29-1.82-.29-1.78,0-2.9,1.03-2.9,2.94,0,2.48,2.57,4.55,6.79,4.55m-23.63-.62h4.92l1.95-8.4c2.86-6.5,4.43-7.12,6-7.12,.99,0,1.82,.33,2.73,.95,1.08-1.28,1.57-2.69,1.57-3.81,0-1.37-.79-2.36-2.44-2.36-2.03,0-4.51,1.53-7.37,8.53l-.25-.04,.7-2.94c.87-3.64-.7-5.55-3.15-5.55s-4.39,1.41-5.79,5.46l-.79,2.36,1.7,.58c1.41-3.85,2.24-4.84,3.02-4.84s.91,.95,.5,2.77l-3.31,14.4Zm-20.11,.62c2.9,0,5.34-1.82,8.19-8.32l.25,.04-.66,2.4c-1.12,4.1,.74,5.88,3.15,5.88,2.07,0,4.06-1.08,5.63-5.21l.91-2.36-1.7-.58c-1.28,3.39-2.11,4.55-2.98,4.55-.74,0-.99-.66-.5-2.73l3.31-14.4-.5-.37-4.43,.37-1.99,8.61c-2.77,6.54-4.8,8.11-6.33,8.11-1.61,0-1.82-1.82-1.28-3.81l2.15-8.03c.91-3.35-.5-5.51-3.39-5.51-2.73,0-4.93,1.66-6.17,5.34l-.79,2.36,1.7,.5c1.28-3.6,2.15-4.93,3.19-4.93,.83,0,.95,.91,.5,2.57l-2.24,8.36c-1.08,3.97,.04,7.16,3.97,7.16m-23.59-6.7c0-3.56,1.45-12.38,6.17-12.38,1.61,0,2.9,.95,2.9,4.43s-1.37,12.29-6,12.29c-1.99,0-3.06-1.16-3.06-4.35m2.69,6.7c7.49,0,11.59-6.75,11.59-13.16,0-4.35-2.36-8.2-7.74-8.2-7.74,0-11.67,6.58-11.67,13.24,0,4.47,2.15,8.11,7.82,8.11m-23.22,9.06c5.38-2.36,8.4-4.35,9.85-10.8l3.02-13.82c.7-3.23-.21-5.79-3.35-5.79-2.52,0-4.55,1.33-5.92,5.05l-.91,2.61,1.7,.54c1.41-3.97,2.15-4.97,3.02-4.97,.99,0,.87,1.33,.54,2.9l-3.23,14.32c-.99,4.3-2.77,6.46-5.54,8.15l.83,1.82Zm8.82-37.12c-.17,1.61,.74,2.81,2.57,2.81,2.15,0,3.68-1.49,3.81-3.56,.17-1.61-.83-2.73-2.57-2.73-2.19,0-3.68,1.41-3.81,3.48m-36.3,24.21l11.88-12.75-2.86,12.75h-9.02Zm2.36,10.14h13.78l.54-2.03-1.28-.17c-2.57-.29-2.94-1.2-2.52-2.98l.41-1.74h5.51l.87-3.23h-5.67l4.18-18.75h-3.81l-19.16,20.61,.41,1.37h12.66l-.37,1.74c-.46,2.03-1.16,2.77-4.06,3.06l-.83,.04-.66,2.07Zm-28.52-6.66c1.04-.79,1.99-1.28,3.35-1.28,3.31,0,6.29,1.66,10.76,1.66,3.97,0,5.5-2.32,6.25-7.78l-1.99-.25c-.62,2.77-1.86,3.56-4.55,3.56h-7.7l.7-.37c10.02-5.59,12.83-8.24,12.83-12.29,0-3.56-3.23-5.92-8.36-5.92-5.92,0-10.02,3.19-10.02,6.91,0,1.95,1.08,3.02,2.77,3.02,.74,0,1.65-.25,2.57-.7-.5-1.08-.79-2.11-.79-3.02,0-2.32,1.53-3.81,4.51-3.81,2.4,0,3.77,1.24,3.77,3.68,0,4.76-7.16,9.56-15.35,14.69l1.24,1.9Zm-18-.25h15.27l.58-2.03-1.65-.17c-2.77-.29-3.11-1.2-2.73-2.98l3.85-17.34h-3.06c-1.57,3.19-4.39,6-10.47,7.41l.58,2.24c2.07-.33,4.1-.87,6-1.57l-2.03,9.31c-.46,2.03-1.2,2.69-4.72,3.02l-.95,.04-.66,2.07Zm-17.01,.46c2.61,0,4.22-1.74,4.22-3.93,0-1.57-1.24-2.77-3.1-2.77-2.73,0-4.3,1.74-4.3,3.85,0,1.57,1.2,2.86,3.19,2.86m3.19-14.36c2.61,0,4.22-1.74,4.22-3.93,0-1.57-1.24-2.77-3.1-2.77-2.73,0-4.26,1.74-4.26,3.85,0,1.57,1.16,2.86,3.14,2.86m-28.23,7.82c0-3.56,1.45-12.38,6.17-12.38,1.61,0,2.9,.95,2.9,4.43s-1.37,12.29-6,12.29c-1.99,0-3.06-1.16-3.06-4.35m2.69,6.7c7.49,0,11.59-6.75,11.59-13.16,0-4.35-2.36-8.2-7.74-8.2-7.74,0-11.67,6.58-11.67,13.24,0,4.47,2.15,8.11,7.82,8.11m-16.26,0c2.32,0,4.14-1.2,5.63-5.09l.91-2.36-1.66-.54c-1.41,3.6-2.19,4.72-3.06,4.72-1.03,0-.87-1.2-.46-2.86l6.54-26.45-.46-.33-8.19,.95-.5,1.95,.74,.21c1.99,.5,2.57,1.41,2.03,3.48l-5.05,20.2c-.83,3.23,.04,6.12,3.52,6.12m-17.42-11.63c.74-3.89,2.9-7.62,5.42-7.62,1.08,0,1.74,.74,1.74,2.07,0,2.98-2.11,4.76-7.16,5.55m1.45,11.63c3.97,0,7.08-2.61,8.86-7.49l-1.78-.66c-1.28,2.65-2.98,4.59-5.22,4.59-3.1,0-3.81-3.1-3.6-5.88,6.41-.79,11.71-3.15,11.71-7.49,0-2.48-1.9-4.43-5.51-4.43-7.53,0-11.51,7.04-11.51,13.45,0,5.05,2.9,7.9,7.04,7.9m2.03-23.71l8.32-6.46,.04-1.12-3.43-2.28-6.17,8.69,1.24,1.16Zm-23.59,23.71c3.23,0,5.59-1.9,8.28-5.71,1.99-2.81,4.59-8.15,4.59-11.17s-1.61-4.47-4.01-4.47c-1.7,0-3.1,.95-3.1,2.65,0,.5,.12,1.12,.46,1.74,.54-.25,1.12-.41,1.61-.41,.99,0,1.7,.58,1.7,2.15,0,1.7-.62,3.97-1.66,6-1.7,3.35-3.43,5.67-5.67,5.67s-2.36-2.32-1.9-4.84l1.41-7.33c.66-3.23-.54-5.63-3.39-5.63-2.61,0-4.51,1.66-6.08,5.96l-.62,1.78,1.7,.62c1.53-4.3,2.4-5.05,3.02-5.05,.79,0,.75,.99,.41,2.73l-1.41,7.45c-.74,3.89,.04,7.86,4.68,7.86m-34.85-7.78c0-5.46,2.86-11.51,6.42-11.51,1.37,0,2.4,.87,3.1,1.99l-1.16,5.17c-2.77,6.54-4.51,8.24-6.25,8.24-1.49,0-2.11-1.28-2.11-3.89m-.54,7.78c2.94,0,5.46-1.86,8.24-7.74l.21,.04-.5,1.9c-1.04,4.26,.74,5.79,3.02,5.79,1.94,0,4.18-.99,5.71-5.38l.74-2.07-1.61-.5c-1.49,3.68-2.19,4.68-2.94,4.68-.87,0-.95-.99-.54-2.86l3.48-14.86h-2.07l-1.86,1.03c-1.32-.95-2.85-1.41-4.68-1.41-5.84,0-12,5.75-12,14.73,0,3.43,1.41,6.62,4.8,6.62m10.02-23.76l1.41-1.08-4.51-8.77-3.64,2.23-.17,1.2,6.91,6.42Zm-36.46,12.13c.74-3.89,2.9-7.62,5.42-7.62,1.08,0,1.74,.74,1.74,2.07,0,2.98-2.11,4.76-7.16,5.55m1.45,11.63c3.97,0,7.08-2.61,8.86-7.49l-1.78-.66c-1.28,2.65-2.98,4.59-5.22,4.59-3.1,0-3.81-3.1-3.6-5.88,6.41-.79,11.71-3.15,11.71-7.49,0-2.48-1.9-4.43-5.5-4.43-7.53,0-11.51,7.04-11.51,13.45,0,5.05,2.9,7.9,7.04,7.9m-19.16,0c3.97,0,6.95-2.77,8.65-7.49l-1.74-.66c-1.33,2.98-3.06,4.59-5.26,4.59-2.36,0-3.48-1.7-3.48-5.17,0-4.8,2.65-10.55,5.71-10.55,1.28,0,1.9,.87,1.9,2.36,0,1.03-.33,2.4-.87,3.85,.87,.37,1.66,.58,2.36,.58,1.82,0,3.02-1.16,3.02-3.27,0-3.1-2.4-5.59-6.25-5.59-6.66,0-11.13,6.12-11.13,13.45,0,5.09,2.98,7.9,7.08,7.9m-15.35,0c2.32,0,4.22-1.28,5.71-5.21l.79-2.23-1.61-.5c-1.37,3.35-2.23,4.68-3.06,4.68-.87,0-.95-.91-.46-2.73l2.11-8.24c.95-3.6-.12-7.12-4.02-7.12-3.1,0-5.59,1.78-8.44,8.32l-.21-.04,.66-2.4c1.08-3.93-.58-5.88-2.98-5.88-2.53,0-4.51,1.37-5.92,5.42l-.83,2.4,1.66,.58c1.37-3.77,2.23-4.84,3.02-4.84,.83,0,.99,.91,.54,2.77l-3.31,14.4h4.92l1.95-8.61c2.77-6.29,4.72-8.11,6.42-8.11s2.07,1.61,1.49,3.77l-1.99,7.78c-.95,3.68,.66,5.79,3.56,5.79m-36.38-7.78c0-5.46,2.86-11.51,6.42-11.51,1.37,0,2.4,.87,3.1,1.99l-1.16,5.17c-2.77,6.54-4.51,8.24-6.25,8.24-1.49,0-2.11-1.28-2.11-3.89m-.54,7.78c2.94,0,5.46-1.86,8.24-7.74l.21,.04-.5,1.9c-1.03,4.26,.74,5.79,3.02,5.79,1.95,0,4.18-.99,5.71-5.38l.74-2.07-1.61-.5c-1.49,3.68-2.19,4.68-2.94,4.68-.87,0-.95-.99-.54-2.86l3.48-14.86h-2.07l-1.86,1.03c-1.32-.95-2.86-1.41-4.68-1.41-5.84,0-12,5.75-12,14.73,0,3.43,1.41,6.62,4.8,6.62m-14.65,0c3.15,0,5.38-1.78,6.91-6.17l.58-1.57-1.78-.54c-1.37,3.64-2.73,4.97-4.1,4.97-1.24,0-1.9-1.16-1.37-3.48l2.65-11.46h5.63l.58-2.48h-5.63l1.53-6.54h-2.07c-1.78,3.85-3.1,6.08-7.57,7.16l-.41,1.86h3.06l-2.61,11.17c-.95,4.18,.62,7.08,4.59,7.08m-17.96,0c4.88,0,8.57-2.77,8.57-6.99,0-5.92-8.15-5.71-8.15-9.68,0-1.61,1.2-2.61,2.94-2.61s2.69,.99,2.69,2.57c0,.62-.12,1.32-.41,2.11,.62,.17,1.2,.25,1.7,.25,1.86,0,2.94-.99,2.94-2.69,0-2.44-2.57-4.3-6.41-4.3-4.51,0-7.95,2.44-7.95,6.75,0,5.79,8.07,5.34,8.07,9.44,0,1.78-1.37,3.06-3.64,3.06-1.9,0-2.81-1.08-2.81-2.81,0-.66,.12-1.45,.41-2.28-.66-.21-1.28-.29-1.82-.29-1.78,0-2.9,1.03-2.9,2.94,0,2.48,2.57,4.55,6.79,4.55m-14.57,0c2.19,0,4.31-1.2,5.75-5.05l.91-2.4-1.61-.5c-1.37,3.27-2.24,4.68-3.1,4.68-.99,0-.91-1.2-.46-2.86l2.61-9.48c.87-3.02-.33-5.75-3.52-5.75-2.52,0-4.47,1.33-5.84,5.05l-.91,2.61,1.7,.54c1.41-3.93,2.24-4.97,3.06-4.97,1.04,0,.91,1.45,.5,2.9l-2.48,9.11c-.95,3.39,0,6.12,3.39,6.12m-.08-28.06c-.12,1.61,.74,2.81,2.61,2.81,2.15,0,3.64-1.49,3.81-3.56,.12-1.61-.83-2.73-2.57-2.73-2.19,0-3.68,1.41-3.85,3.48m-17.51,28.06c4.88,0,8.57-2.77,8.57-6.99,0-5.92-8.15-5.71-8.15-9.68,0-1.61,1.2-2.61,2.94-2.61s2.69,.99,2.69,2.57c0,.62-.12,1.32-.41,2.11,.62,.17,1.2,.25,1.7,.25,1.86,0,2.94-.99,2.94-2.69,0-2.44-2.57-4.3-6.42-4.3-4.51,0-7.95,2.44-7.95,6.75,0,5.79,8.07,5.34,8.07,9.44,0,1.78-1.37,3.06-3.64,3.06-1.9,0-2.81-1.08-2.81-2.81,0-.66,.12-1.45,.41-2.28-.66-.21-1.28-.29-1.82-.29-1.78,0-2.9,1.03-2.9,2.94,0,2.48,2.57,4.55,6.79,4.55m-17.96,0c4.88,0,8.57-2.77,8.57-6.99,0-5.92-8.15-5.71-8.15-9.68,0-1.61,1.2-2.61,2.94-2.61s2.69,.99,2.69,2.57c0,.62-.12,1.32-.41,2.11,.62,.17,1.2,.25,1.7,.25,1.86,0,2.94-.99,2.94-2.69,0-2.44-2.57-4.3-6.42-4.3-4.51,0-7.95,2.44-7.95,6.75,0,5.79,8.07,5.34,8.07,9.44,0,1.78-1.37,3.06-3.64,3.06-1.9,0-2.81-1.08-2.81-2.81,0-.66,.12-1.45,.41-2.28-.66-.21-1.28-.29-1.82-.29-1.78,0-2.9,1.03-2.9,2.94,0,2.48,2.57,4.55,6.79,4.55m-24.79-7.78c0-5.46,2.86-11.51,6.41-11.51,1.37,0,2.4,.87,3.1,1.99l-1.16,5.17c-2.77,6.54-4.51,8.24-6.25,8.24-1.49,0-2.11-1.28-2.11-3.89m-.54,7.78c2.94,0,5.46-1.86,8.24-7.74l.21,.04-.5,1.9c-1.03,4.26,.74,5.79,3.02,5.79,1.95,0,4.18-.99,5.71-5.38l.74-2.07-1.61-.5c-1.49,3.68-2.19,4.68-2.94,4.68-.87,0-.95-.99-.54-2.86l3.48-14.86h-2.07l-1.86,1.03c-1.32-.95-2.86-1.41-4.68-1.41-5.84,0-12,5.75-12,14.73,0,3.43,1.41,6.62,4.8,6.62m-25.04,0c4.88,0,8.57-2.77,8.57-6.99,0-5.92-8.15-5.71-8.15-9.68,0-1.61,1.2-2.61,2.94-2.61s2.69,.99,2.69,2.57c0,.62-.12,1.32-.41,2.11,.62,.17,1.2,.25,1.7,.25,1.86,0,2.94-.99,2.94-2.69,0-2.44-2.57-4.3-6.42-4.3-4.51,0-7.95,2.44-7.95,6.75,0,5.79,8.07,5.34,8.07,9.44,0,1.78-1.37,3.06-3.64,3.06-1.9,0-2.81-1.08-2.81-2.81,0-.66,.12-1.45,.41-2.28-.66-.21-1.28-.29-1.82-.29-1.78,0-2.9,1.03-2.9,2.94,0,2.48,2.57,4.55,6.79,4.55m-14.4,0c2.32,0,4.22-1.28,5.71-5.21l.79-2.23-1.61-.5c-1.37,3.35-2.24,4.68-3.06,4.68-.87,0-.95-.91-.45-2.73l2.11-8.24c.95-3.6-.12-7.12-4.01-7.12-3.1,0-5.59,1.78-8.44,8.32l-.21-.04,.66-2.4c1.08-3.93-.58-5.88-2.98-5.88-2.52,0-4.51,1.37-5.92,5.42l-.83,2.4,1.65,.58c1.37-3.77,2.23-4.84,3.02-4.84,.83,0,.99,.91,.54,2.77l-3.31,14.4h4.93l1.94-8.61c2.77-6.29,4.72-8.11,6.42-8.11s2.07,1.61,1.49,3.77l-1.99,7.78c-.95,3.68,.66,5.79,3.56,5.79m-36.38-7.78c0-5.46,2.86-11.51,6.41-11.51,1.37,0,2.4,.87,3.1,1.99l-1.16,5.17c-2.77,6.54-4.51,8.24-6.25,8.24-1.49,0-2.11-1.28-2.11-3.89m-.54,7.78c2.94,0,5.46-1.86,8.24-7.74l.21,.04-.5,1.9c-1.04,4.26,.74,5.79,3.02,5.79,1.95,0,4.18-.99,5.71-5.38l.74-2.07-1.61-.5c-1.49,3.68-2.19,4.68-2.94,4.68-.87,0-.95-.99-.54-2.86l3.48-14.86h-2.07l-1.86,1.03c-1.32-.95-2.86-1.41-4.68-1.41-5.84,0-12,5.75-12,14.73,0,3.43,1.41,6.62,4.8,6.62m-16.68,0c4.88,0,8.57-2.77,8.57-6.99,0-5.92-8.15-5.71-8.15-9.68,0-1.61,1.2-2.61,2.94-2.61s2.69,.99,2.69,2.57c0,.62-.12,1.32-.41,2.11,.62,.17,1.2,.25,1.7,.25,1.86,0,2.94-.99,2.94-2.69,0-2.44-2.57-4.3-6.42-4.3-4.51,0-7.95,2.44-7.95,6.75,0,5.79,8.07,5.34,8.07,9.44,0,1.78-1.36,3.06-3.64,3.06-1.9,0-2.81-1.08-2.81-2.81,0-.66,.12-1.45,.41-2.28-.66-.21-1.28-.29-1.82-.29-1.78,0-2.9,1.03-2.9,2.94,0,2.48,2.57,4.55,6.79,4.55m-27.52-11.63c.74-3.89,2.9-7.62,5.42-7.62,1.08,0,1.74,.74,1.74,2.07,0,2.98-2.11,4.76-7.16,5.55m1.45,11.63c3.97,0,7.08-2.61,8.86-7.49l-1.78-.66c-1.28,2.65-2.98,4.59-5.21,4.59-3.1,0-3.81-3.1-3.6-5.88,6.42-.79,11.71-3.15,11.71-7.49,0-2.48-1.9-4.43-5.5-4.43-7.53,0-11.51,7.04-11.51,13.45,0,5.05,2.9,7.9,7.04,7.9m-25.62-7.78c0-5.46,2.86-11.51,6.42-11.51,1.37,0,2.4,.87,3.1,1.99l-1.16,5.17c-2.77,6.54-4.51,8.24-6.25,8.24-1.49,0-2.11-1.28-2.11-3.89m-.54,7.78c2.94,0,5.46-1.86,8.24-7.74l.21,.04-.5,1.9c-1.03,4.26,.75,5.79,3.02,5.79,1.95,0,4.18-.99,5.71-5.38l.74-2.07-1.61-.5c-1.49,3.68-2.19,4.68-2.94,4.68-.87,0-.95-.99-.54-2.86l6.17-26.45-.46-.33-8.11,.95-.5,1.95,.79,.21c1.95,.5,2.48,1.41,1.99,3.48l-1.32,5.75c-1.08-.5-2.28-.79-3.68-.79-5.84,0-12,5.75-12,14.73,0,3.43,1.41,6.62,4.8,6.62m-13.16,0c2.32,0,4.22-1.28,5.71-5.21l.79-2.23-1.61-.5c-1.37,3.35-2.23,4.68-3.06,4.68-.87,0-.95-.91-.46-2.73l2.11-8.24c.95-3.6-.12-7.12-4.02-7.12-3.1,0-5.59,1.78-8.44,8.32l-.21-.04,.66-2.4c1.08-3.93-.58-5.88-2.98-5.88-2.52,0-4.51,1.37-5.92,5.42l-.83,2.4,1.66,.58c1.37-3.77,2.24-4.84,3.02-4.84,.83,0,.99,.91,.54,2.77l-3.31,14.4h4.92l1.95-8.61c2.77-6.29,4.72-8.11,6.42-8.11s2.07,1.61,1.49,3.77l-1.99,7.78c-.95,3.68,.66,5.79,3.56,5.79m-34.6-6.7c0-3.56,1.45-12.38,6.17-12.38,1.61,0,2.9,.95,2.9,4.43s-1.37,12.29-6,12.29c-1.99,0-3.06-1.16-3.06-4.35m2.69,6.7c7.49,0,11.59-6.75,11.59-13.16,0-4.35-2.36-8.2-7.74-8.2-7.74,0-11.67,6.58-11.67,13.24,0,4.47,2.15,8.11,7.82,8.11m-16.26,0c2.07,0,4.39-1.2,5.79-5.17l.83-2.28-1.66-.5c-1.32,3.52-2.19,4.68-3.06,4.68s-.99-.74-.41-2.86l2.11-8.11c.95-3.6,0-7.12-3.81-7.12-2.98,0-5.34,1.78-8.11,8.32l-.25-.04,.5-1.99c.87-3.56-.33-6.29-3.73-6.29-2.81,0-5.17,1.78-7.86,8.32l-.25-.04,.66-2.4c1.08-3.93-.54-5.88-2.94-5.88-2.57,0-4.55,1.33-6,5.38l-.83,2.44,1.7,.54c1.28-3.81,2.11-4.8,2.94-4.8,.87,0,.99,1.08,.62,2.77l-3.27,14.4h4.93l1.94-8.61c2.65-6.54,4.55-8.11,6.13-8.11s1.78,1.65,1.28,3.77l-3.02,12.95h4.97l1.94-8.61c2.69-6.54,4.55-8.11,6.21-8.11,1.53,0,1.7,1.78,1.16,3.77l-1.94,7.78c-.95,3.68,.54,5.79,3.43,5.79m-56,0c2.9,0,5.34-1.82,8.19-8.32l.25,.04-.66,2.4c-1.12,4.1,.75,5.88,3.15,5.88,2.07,0,4.06-1.08,5.63-5.21l.91-2.36-1.7-.58c-1.28,3.39-2.11,4.55-2.98,4.55-.74,0-.99-.66-.5-2.73l3.31-14.4-.5-.37-4.43,.37-1.99,8.61c-2.77,6.54-4.8,8.11-6.33,8.11-1.61,0-1.82-1.82-1.28-3.81l2.15-8.03c.91-3.35-.5-5.51-3.39-5.51-2.73,0-4.93,1.66-6.17,5.34l-.79,2.36,1.7,.5c1.28-3.6,2.15-4.93,3.19-4.93,.83,0,.95,.91,.5,2.57l-2.24,8.36c-1.08,3.97,.04,7.16,3.97,7.16m-24.58-7.78c0-5.46,2.85-11.51,6.42-11.51,1.36,0,2.4,.87,3.1,1.99l-1.16,5.17c-2.77,6.54-4.51,8.24-6.25,8.24-1.49,0-2.11-1.28-2.11-3.89m-.54,7.78c2.94,0,5.46-1.86,8.24-7.74l.21,.04-.5,1.9c-1.04,4.26,.74,5.79,3.02,5.79,1.95,0,4.18-.99,5.71-5.38l.74-2.07-1.61-.5c-1.49,3.68-2.19,4.68-2.94,4.68-.87,0-.95-.99-.54-2.86l6.17-26.45-.46-.33-8.11,.95-.5,1.95,.79,.21c1.94,.5,2.48,1.41,1.99,3.48l-1.32,5.75c-1.08-.5-2.28-.79-3.68-.79-5.84,0-12,5.75-12,14.73,0,3.43,1.41,6.62,4.8,6.62m-31.12-.62h4.93l1.95-8.4c2.85-6.5,4.43-7.12,6-7.12,.99,0,1.82,.33,2.73,.95,1.08-1.28,1.57-2.69,1.57-3.81,0-1.37-.79-2.36-2.44-2.36-2.03,0-4.51,1.53-7.37,8.53l-.25-.04,.7-2.94c.87-3.64-.7-5.55-3.15-5.55s-4.39,1.41-5.79,5.46l-.79,2.36,1.7,.58c1.41-3.85,2.23-4.84,3.02-4.84s.91,.95,.5,2.77l-3.31,14.4Zm-20.11,.62c2.9,0,5.34-1.82,8.19-8.32l.25,.04-.66,2.4c-1.12,4.1,.74,5.88,3.15,5.88,2.07,0,4.06-1.08,5.63-5.21l.91-2.36-1.7-.58c-1.28,3.39-2.11,4.55-2.98,4.55-.75,0-.99-.66-.5-2.73l3.31-14.4-.5-.37-4.43,.37-1.99,8.61c-2.77,6.54-4.8,8.11-6.33,8.11-1.61,0-1.82-1.82-1.28-3.81l2.15-8.03c.91-3.35-.5-5.51-3.39-5.51-2.73,0-4.93,1.66-6.17,5.34l-.79,2.36,1.7,.5c1.28-3.6,2.15-4.93,3.19-4.93,.83,0,.95,.91,.5,2.57l-2.23,8.36c-1.08,3.97,.04,7.16,3.97,7.16m-23.59-6.7c0-3.56,1.45-12.38,6.17-12.38,1.61,0,2.9,.95,2.9,4.43s-1.37,12.29-6,12.29c-1.99,0-3.06-1.16-3.06-4.35m2.69,6.7c7.49,0,11.59-6.75,11.59-13.16,0-4.35-2.36-8.2-7.74-8.2-7.74,0-11.67,6.58-11.67,13.24,0,4.47,2.15,8.11,7.82,8.11m-30.63-.62h13.24l.58-2.07-.87-.08c-2.15-.25-2.98-1.04-2.57-2.94l4.59-20.4h2.36c2.61,0,3.56,.87,3.85,4.22l.29,2.94,2.52-.33c.25-2.77,.75-6.7,1.41-9.27h-25.12c-.58,2.57-1.78,6.5-2.81,9.23l2.77,.33,1.61-3.06c1.74-3.31,2.94-4.06,5.5-4.06h2.44l-4.55,20.28c-.46,1.95-1.53,2.73-3.81,2.98l-.87,.08-.58,2.15Z"/><path d="M1350.86,282.88h89.93v-2.83l-6.5-.85c-7.92-1.13-9.61-4.81-9.61-14.71V63.44l-1.13-1.13-71.26,15.27-.57,1.7,3.39,3.11c9.9,9.05,11.88,14.14,11.88,27.15v154.97c0,9.61-1.98,13.57-9.61,14.71l-6.5,.85v2.83Zm-90.21-89.93c0-32.8,6.5-50.62,19.79-50.62s14.14,18.38,12.16,50.34l-31.95,.28Zm19.51,94.17c34.5,0,55.99-24.89,63.06-54.86l-1.41-.85c-8.77,9.33-20.64,18.95-40.72,18.95-27.43,0-39.03-19.79-40.44-54.3h80.03c2.26-37.33-18.38-55.99-55.71-55.99s-74.94,27.71-74.94,76.64c0,41.01,27.71,70.41,70.13,70.41m-164.02-94.17c0-32.8,6.5-50.62,19.8-50.62s14.14,18.38,12.16,50.34l-31.96,.28Zm19.51,94.17c34.5,0,55.99-24.89,63.06-54.86l-1.41-.85c-8.77,9.33-20.64,18.95-40.72,18.95-27.43,0-39.02-19.79-40.44-54.3h80.03c2.26-37.33-18.38-55.99-55.71-55.99s-74.94,27.71-74.94,76.64c0,41.01,27.71,70.41,70.13,70.41m-164.86-4.24h85.69v-2.83l-3.68-.28c-9.61-.85-11.31-5.09-11.31-15.55v-76.35c0-31.11-14.99-47.51-41.57-47.51-17.82,0-33.65,7.35-48.08,28.28l.28-105.2-1.41-1.13-71.83,15.27-.28,1.98,3.96,3.39c9.9,8.48,11.03,13.01,11.03,26.02v155.25c0,9.9-1.41,14.14-10.75,15.27l-5.09,.57v2.83h86.82v-2.83l-2.55-.28c-9.33-1.13-10.18-5.66-10.18-15.55v-92.19c6.22-6.79,12.44-8.77,17.82-8.77,9.33,0,13.86,5.09,13.86,19.51v81.44c0,9.9-.85,14.7-9.61,15.55l-3.11,.28v2.83Zm-278.27,0h34.5l26.58-91.06,34.78,91.06h33.93l28.84-96.71c8.48-28,16.68-36.76,26.87-38.46l4.81-.85v-2.55h-59.1v2.55l7.92,.57c16.12,1.13,20.36,14.42,13.01,40.44l-14.42,51.18-33.09-94.74h-35.63l-28,94.17-16.4-54.86c-6.22-20.36-9.61-34.78,3.96-36.2l5.66-.57v-2.55h-93.32v2.55l3.11,.85c4.53,1.13,8.48,4.52,11.59,13.29l44.4,121.88Zm-138.85-89.93c0-32.8,6.5-50.62,19.79-50.62s14.14,18.38,12.16,50.34l-31.96,.28Zm19.51,94.17c34.5,0,55.99-24.89,63.06-54.86l-1.41-.85c-8.77,9.33-20.64,18.95-40.72,18.95-27.43,0-39.03-19.79-40.44-54.3h80.03c2.26-37.33-18.38-55.99-55.71-55.99s-74.94,27.71-74.94,76.64c0,41.01,27.71,70.41,70.13,70.41m-164.01-94.17c0-32.8,6.5-50.62,19.8-50.62s14.14,18.38,12.16,50.34l-31.96,.28Zm19.51,94.17c34.5,0,55.99-24.89,63.06-54.86l-1.41-.85c-8.77,9.33-20.64,18.95-40.72,18.95-27.43,0-39.02-19.79-40.44-54.3h80.03c2.26-37.33-18.38-55.99-55.71-55.99s-74.94,27.71-74.94,76.64c0,41.01,27.71,70.41,70.13,70.41m-198.8-4.24h102.09v-2.83l-7.92-.57c-16.68-1.13-20.08-5.09-20.08-16.12v-78.33c6.22-3.68,14.42-4.81,19.23-4.81,7.07,0,16.12,2.83,24.6,8.48l7.92-46.09c-4.52-1.7-7.64-2.55-12.16-2.55-15.27,0-30.54,7.92-42.14,39.59v-38.18l-1.41-1.13-69,15.27-.28,1.98,3.96,3.39c9.9,8.48,11.03,13.01,11.03,26.02v76.92c0,10.46-2.26,14.71-10.75,15.55l-5.09,.57v2.83Zm-161.19,0h103.5v-3.11l-6.22-.57c-14.14-1.41-18.1-5.94-18.1-17.53v-74.37h9.33c13.86,0,19.51,7.92,29.41,27.71l4.24,8.48h1.98c-2.26-26.3-2.26-52.03,0-77.2h-1.7l-4.52,9.05c-10.18,20.36-15.27,28.85-29.41,28.85h-9.33V95.11h7.07c22.34,0,35.07,11.59,52.03,44.11l9.61,18.38,1.98-.57c-2.83-21.78-4.52-43.55-3.68-65.04H68.42v2.83l4.53,.57c9.05,1.13,14.14,5.37,14.14,18.66v147.62c0,12.16-4.52,16.4-11.31,17.25l-7.07,.85v3.11Z"/><path d="M1410.57,559.53c15.08,0,26.39-10.01,26.39-24.62,0-30.16-40.41-18.5-40.41-39.23,0-7.19,4.48-11.66,11.43-11.66,8.36,0,12.25,4.48,19.09,19.32l6.48-1.06c-1.41-9.9-1.89-17.91-1.53-26.15h-4.59c-1.06,1.77-2.47,3.3-4.36,4.48-5.18-2.95-9.66-4.12-15.2-4.12-14.37,0-24.74,9.42-24.74,23.09,0,29.57,40.41,17.55,40.41,38.64,0,8.72-4.95,13.67-13.31,13.67-10.01,0-17.55-8.36-22.97-21.56l-6.13,.47c1.41,9.54,2,18.85,1.65,28.51h5.66c.94-2.59,1.89-4.48,3.18-6.24,5.89,4.24,12.02,6.48,18.97,6.48m-94.6-32.75l12.96-37.11,12.72,37.11h-25.68Zm-27.21,30.98h30.4l.35-5.77-2.71-.24c-7.31-.82-8.6-3.3-6.6-8.84l3.3-9.42h30.4l3.06,8.95c2.24,6.36,0,8.48-6.01,9.31l-2.59,.35-.47,5.65h36.05l.47-5.77-2.47-.35c-4.36-.83-6.48-2.71-8.48-8.37l-24.03-65.03h-13.78l-24.5,65.97c-1.89,4.95-4.95,6.6-9.66,7.42l-2.24,.47-.47,5.65Zm52.66-110.27l-21.21,20.38,3.06,4.01,25.45-12.25,.35-3.18-7.66-8.95Zm-102.26,70.1v-32.63h5.07c12.13,0,18.14,5.07,18.14,15.08,0,10.84-7.07,17.32-19.32,17.44l-3.89,.12Zm-25.09,40.17h33.22l.24-5.89-2.47-.35c-4.95-.82-5.89-2.83-5.89-8.48v-18.85h4.6l9.9,16.49c3.06,5.18,7.07,12.25,9.54,17.08h23.8l.35-5.77-2.47-.35c-6.13-1.06-11.9-6.13-17.67-15.67l-8.72-13.9c12.37-3.42,20.15-11.78,20.15-22.85,0-13.78-10.48-20.97-30.63-20.97h-33.34l-.47,5.89,2.59,.24c5.65,.47,7.3,2.36,7.3,8.13v50.66c0,6.01-1.65,7.89-7.42,8.6l-2,.12-.59,5.89Zm-66.44,0h38.17l.23-5.89-2.24-.23c-6.48-.71-9.42-2.95-9.42-8.37v-58.08h7.3c7.54,0,10.72,2.47,13.78,12.02l2.71,8.25,7.07-.94c-1.18-7.89-2.24-18.97-2.12-26.27h-72.81c.12,7.3-.94,18.5-2.12,26.27l7.07,.94,2.95-8.25c3.06-9.54,6.36-12.02,13.9-12.02h7.19v58.08c0,5.42-2.71,7.66-9.19,8.37l-2.12,.23-.35,5.89Zm-69.62-30.98l12.96-37.11,12.72,37.11h-25.68Zm-27.22,30.98h30.4l.35-5.77-2.71-.24c-7.3-.82-8.6-3.3-6.6-8.84l3.3-9.42h30.39l3.06,8.95c2.24,6.36,0,8.48-6.01,9.31l-2.59,.35-.47,5.65h36.05l.47-5.77-2.47-.35c-4.36-.83-6.48-2.71-8.48-8.37l-24.03-65.03h-13.78l-24.51,65.97c-1.88,4.95-4.95,6.6-9.66,7.42l-2.24,.47-.47,5.65Zm-90.48,0h59.38l4.12-25.56-6.01-.59-2.95,5.77c-5.07,10.13-8.95,13.31-18.03,13.31h-11.54v-30.16h7.3c4.48,0,6.13,1.53,8.36,7.42l.94,2.71h5.42c-.83-8.84-.83-17.32,0-26.15h-5.18l-.82,2.24c-1.77,5.54-3.77,7.42-8.72,7.42h-7.3v-28.98h10.6c8.13,0,11.54,2.95,15.9,12.02l1.89,3.77,6.24-.94c-1.18-7.3-2.36-14.49-2.24-21.8h-56.78l-.35,5.89,2.47,.24c6.01,.59,7.3,2.24,7.3,7.77v52.07c0,5.3-1.18,6.95-7.54,7.54l-1.88,.24-.59,5.77Zm-67.62-7.07v-65.74h10.96c15.91,0,30.51,7.66,30.51,30.28,0,24.86-12.49,35.46-28.27,35.46h-13.2Zm-24.86,7.07h36.4c29.57,0,46.18-17.08,46.18-42.76s-18.85-36.76-45.47-36.76h-36.64l-.59,5.89,2.59,.24c6.36,.59,7.42,2.95,7.42,8.13v50.66c0,5.3-1.06,7.89-7.54,8.6l-1.89,.12-.47,5.89Zm-36.64,1.77c15.08,0,26.39-10.01,26.39-24.62,0-30.16-40.41-18.5-40.41-39.23,0-7.19,4.48-11.66,11.43-11.66,8.36,0,12.25,4.48,19.08,19.32l6.48-1.06c-1.41-9.9-1.88-17.91-1.53-26.15h-4.59c-1.06,1.77-2.47,3.3-4.36,4.48-5.18-2.95-9.66-4.12-15.2-4.12-14.37,0-24.74,9.42-24.74,23.09,0,29.57,40.41,17.55,40.41,38.64,0,8.72-4.95,13.67-13.31,13.67-10.01,0-17.55-8.36-22.97-21.56l-6.13,.47c1.41,9.54,2,18.85,1.65,28.51h5.66c.94-2.59,1.88-4.48,3.18-6.24,5.89,4.24,12.02,6.48,18.97,6.48m-102.61-1.77h59.38l4.12-25.56-6.01-.59-2.95,5.77c-5.07,10.13-8.95,13.31-18.03,13.31h-11.54v-30.16h7.3c4.48,0,6.13,1.53,8.37,7.42l.94,2.71h5.42c-.83-8.84-.83-17.32,0-26.15h-5.18l-.83,2.24c-1.77,5.54-3.77,7.42-8.72,7.42h-7.3v-28.98h10.6c8.13,0,11.54,2.95,15.9,12.02l1.89,3.77,6.24-.94c-1.18-7.3-2.36-14.49-2.24-21.8h-56.78l-.35,5.89,2.47,.24c6.01,.59,7.3,2.24,7.3,7.77v52.07c0,5.3-1.18,6.95-7.54,7.54l-1.89,.24-.59,5.77Zm-67.62-7.07v-65.74h10.96c15.91,0,30.51,7.66,30.51,30.28,0,24.86-12.49,35.46-28.27,35.46h-13.2Zm-24.86,7.07h36.4c29.57,0,46.18-17.08,46.18-42.76s-18.85-36.76-45.48-36.76h-36.64l-.59,5.89,2.59,.24c6.36,.59,7.42,2.95,7.42,8.13v50.66c0,5.3-1.06,7.89-7.54,8.6l-1.89,.12-.47,5.89Zm-77.28-40.17v-32.63h5.07c12.14,0,18.14,5.07,18.14,15.08,0,10.84-7.07,17.32-19.32,17.44l-3.89,.12Zm-25.09,40.17h33.22l.24-5.89-2.47-.35c-4.95-.82-5.89-2.83-5.89-8.48v-18.85h4.6l9.9,16.49c3.06,5.18,7.07,12.25,9.54,17.08h23.8l.35-5.77-2.47-.35c-6.13-1.06-11.9-6.13-17.67-15.67l-8.72-13.9c12.37-3.42,20.15-11.78,20.15-22.85,0-13.78-10.49-20.97-30.63-20.97h-33.34l-.47,5.89,2.59,.24c5.65,.47,7.3,2.36,7.3,8.13v50.66c0,6.01-1.65,7.89-7.42,8.6l-2,.12-.59,5.89Zm-63.73-30.98l12.96-37.11,12.72,37.11h-25.68Zm-27.21,30.98h30.39l.35-5.77-2.71-.24c-7.31-.82-8.6-3.3-6.6-8.84l3.3-9.42h30.39l3.06,8.95c2.24,6.36,0,8.48-6.01,9.31l-2.59,.35-.47,5.65h36.05l.47-5.77-2.47-.35c-4.36-.83-6.48-2.71-8.48-8.37l-24.03-65.03h-13.78l-24.5,65.97c-1.89,4.95-4.95,6.6-9.66,7.42l-2.24,.47-.47,5.65Zm-50.77-40.17v-32.63h5.06c12.14,0,18.14,5.07,18.14,15.08,0,10.84-7.07,17.32-19.32,17.44l-3.89,.12Zm-25.09,40.17h33.22l.23-5.89-2.47-.35c-4.95-.82-5.89-2.83-5.89-8.48v-18.85h4.59l9.9,16.49c3.06,5.18,7.07,12.25,9.54,17.08h23.8l.35-5.77-2.47-.35c-6.13-1.06-11.9-6.13-17.67-15.67l-8.72-13.9c12.37-3.42,20.14-11.78,20.14-22.85,0-13.78-10.48-20.97-30.63-20.97h-33.34l-.47,5.89,2.59,.24c5.65,.47,7.3,2.36,7.3,8.13v50.66c0,6.01-1.65,7.89-7.42,8.6l-2,.12-.59,5.89Zm-71.74,0h59.38l4.12-25.56-6.01-.59-2.94,5.77c-5.07,10.13-8.95,13.31-18.03,13.31h-11.54v-30.16h7.3c4.48,0,6.13,1.53,8.36,7.42l.94,2.71h5.42c-.82-8.84-.82-17.32,0-26.15h-5.18l-.83,2.24c-1.77,5.54-3.77,7.42-8.72,7.42h-7.3v-28.98h10.6c8.13,0,11.54,2.95,15.9,12.02l1.89,3.77,6.24-.94c-1.18-7.3-2.36-14.49-2.24-21.8h-56.79l-.35,5.89,2.47,.24c6.01,.59,7.31,2.24,7.31,7.77v52.07c0,5.3-1.18,6.95-7.54,7.54l-1.89,.24-.59,5.77Zm-67.62-7.07v-65.74h10.96c15.9,0,30.51,7.66,30.51,30.28,0,24.86-12.49,35.46-28.27,35.46h-13.19Zm-24.86,7.07h36.4c29.57,0,46.18-17.08,46.18-42.76s-18.85-36.76-45.47-36.76h-36.64l-.59,5.89,2.59,.24c6.36,.59,7.42,2.95,7.42,8.13v50.66c0,5.3-1.06,7.89-7.54,8.6l-1.88,.12-.47,5.89Zm-45.59,0h35.82l.24-5.89-1.88-.12c-6.48-.82-8.6-3.06-8.6-8.48v-50.3c0-5.42,2-7.89,8.37-8.36l2.12-.23,.35-6.13h-35.7l-.35,6.13,2,.23c6.36,.59,8.13,2.95,8.13,8.36v50.3c0,5.42-1.77,7.66-8.25,8.48l-1.88,.12-.35,5.89Zm-71.27,0h58.67l4.12-28.16-6.01-.59-3.18,7.3c-4.12,9.54-8.01,14.37-17.79,14.37h-10.84v-57.73c0-5.42,2.12-7.89,8.48-8.36l2.71-.23,.47-6.13h-36.05l-.35,5.89,2.47,.24c6.24,.59,7.3,2.59,7.3,7.77v52.07c0,5.18-1.06,6.95-7.54,7.54l-1.89,.24-.59,5.77Z"/></g></g></svg>