<svg xmlns="http://www.w3.org/2000/svg" width="1440" height="720" viewBox="0 0 1440 720"><defs><style>.a{fill:#727346;}.b{fill:#7eaab4;}.c{fill:#981a1a;}.d{fill:#813320;}.e{fill:#d8dac0;}.f{fill:#6a210b;}.g{fill:#c5ad6c;}.h{fill:#ac533c;}.i{fill:#757769;}.j{fill:#eff0e6;}.k{fill:#fff;}.l{fill:#aa5827;}.m{fill:#737245;}</style></defs><title>mpf_images_poster_ode_02</title><rect class="a" x="-58.8" y="605.74" width="1607.04" height="166.48"/><rect class="b" x="-58.8" y="-60.2" width="1607.04" height="166.48"/><rect class="c" x="-58.8" y="106.28" width="1607.04" height="166.49"/><rect class="d" x="-58.8" y="439.25" width="1607.04" height="166.49"/><rect class="e" x="-58.8" y="272.77" width="1607.04" height="166.48"/><path class="f" d="M36.81,65.64C24.32,65.64,7,59.91,7,47.72,7,30.24,7.28,22.89,8,17,10.22,1.45,22-7.07,27.85-7.07c5.44,0,17.77,2.94,17.77,7.49,0,2.06-1.18,4.11-4.41,6.32C37.1,3.8,29.61,1.45,23.74.56,20.8,6,17.86,15.69,17.86,32l-.15,16.16c5,5.73,13.37,8.23,24.38,9.11C42,62,41.22,65.64,36.81,65.64Z"/><path class="f" d="M98.95,40.67C96.89,53,83.67,64.76,75.59,64.76c-11.75,0-25.27-7.64-25.27-21.15,0-15.13.15-20.71,1-26.59,1.91-12.34,15-24.09,23.21-24.09,11.9,0,25.71,7.64,25.71,21.15C100.27,29.21,100,35.09,98.95,40.67ZM80.29,56.39H81c4.26-5.58,8.08-14.69,8.08-29.53V11.58C85.87,5.41,78.38,1.3,70,1.3H69C64.72,7,61,16.14,61,31V46.1C64.28,52.27,71.92,56.39,80.29,56.39Z"/><path class="f" d="M151.69,48c0-16.6,0-32.17.15-44.66H127L126.57,41l-.15,8.67c2.64,4.11,7.34,6.32,15.13,6.9-.15,4.7-.88,8.23-5.29,8.23-10.14,0-20.42-5.88-20.42-16.75,0-16.6,0-32.17.29-44.66h-8.08A6.14,6.14,0,0,1,107,0c0-2.94,3.53-4.7,9.25-5.29.15-6.61.44-11.6.59-14.69.44-4.26,3.53-6.32,7.49-6.32a5.67,5.67,0,0,1,3.23.88c0,1.47-.29,9.25-.44,20H152c.15-6.46.44-11.46.73-14.54.44-4.26,3.53-6.32,7.34-6.32a6.83,6.83,0,0,1,3.53.88c0,1.47-.29,9.25-.59,20a106.54,106.54,0,0,0,15.28-.73,5.13,5.13,0,0,1,.88,3.08c0,4.26-4.41,6.46-16.31,6.46-.29,11.16-.44,24.24-.44,37.61l-.15,8.67c2.79,4.11,7.64,6.32,15.57,6.9-.15,4.7-1,8.23-5.44,8.23C162.26,64.76,151.69,58.88,151.69,48Z"/><path class="f" d="M185.92,42.43c0-8.37,17.92-13.81,30.7-14.54.15-11,.29-18.22.29-18.22C210.59,4.24,201.34,1.3,190.47.42c.15-4.7,1.18-8.23,5.44-8.23,12.78,0,32,6.32,32,17.92,0,25.41-.88,43.78-.88,43.78,1.32,1.32,5.58,3.08,7.79,3.67-1.18,5.73-3.38,7.2-4.55,7.2A18,18,0,0,1,217.94,59c-2.06,3.08-6.32,5.73-12.78,5.73C194,64.76,185.92,54.92,185.92,42.43Zm30.55-7.64c-7.64.88-16.75,3.23-20.57,6.17,1.32,10.43,5.58,15.42,13.51,15.42a13.16,13.16,0,0,0,7.05-1.62Z"/><path class="f" d="M354.85,32.15c-1.17,20.42-11.9,32.61-20.42,32.61a29.85,29.85,0,0,1-20.27-8.23,19.48,19.48,0,0,1-16,8.23c-12.49,0-26-8.08-26-21.89,0-25.71.44-38.93.44-38.93C271.26,2.62,267,.71,264.8.12c.59-5.29,3.08-7.2,4.26-7.2,6.17,0,14.54,5,14.54,9.84,0,25.41-.88,40.54-.88,40.54a19.39,19.39,0,0,0,18.66,12.63,18.68,18.68,0,0,0,9.84-2.79,19.45,19.45,0,0,1-3.08-10.58c0-25.71.29-39.52.29-39.52a21.22,21.22,0,0,0-6.32-3.23c1-5.73,3.23-6.9,4.26-6.9,5.58,0,13.22,4.41,13.22,9.84,0,25.41-.88,40.54-.88,40.54,2.64,7.34,11,12.63,19.1,12.63h1.76c2.2-4.85,4.85-12.49,4.85-35V3.06c-1-1-4.55-2.64-6.46-3.23,1.18-5.73,3.38-6.9,4.26-6.9,5.58,0,13.37,4.41,13.37,9.84C355.58,6.15,355.43,23,354.85,32.15Z"/><path class="f" d="M386.58,64.76c-5.58,0-14-4.41-14-9.84,0-25.56.44-51,.44-51-1.47-1.32-5.73-3.23-7.93-3.82.73-5.29,3.23-7.2,4.26-7.2,6.17,0,14.69,5,14.69,9.84,0,25.56-.73,51.56-.73,51.56,1.32,1.32,5.29,2.79,7.79,3.38C390,63.44,387.61,64.76,386.58,64.76Zm-6.32-80.65c-4.26,0-10.58-2.79-10.58-7.34,0-2.35,2.79-5.88,4.11-5.88,4.55,0,10.58,2.94,10.58,7.34C384.37-19.41,381.73-15.89,380.26-15.89Z"/><path class="f" d="M403.76,48c0-16.6,0-32.17.29-44.66H396A6.14,6.14,0,0,1,395,0c0-2.94,3.53-4.7,9.25-5.29.15-6.61.44-11.6.59-14.69.44-4.26,3.53-6.32,7.49-6.32a5.67,5.67,0,0,1,3.23.88c0,1.47-.29,9.25-.44,20a108.06,108.06,0,0,0,15.28-.73,4.3,4.3,0,0,1,.88,3.08c0,4.26-4.41,6.46-16.31,6.46L414.49,41l-.15,8.67c2.64,4.11,7.64,6.32,15.42,6.9-.15,4.7-.88,8.23-5.29,8.23C414.34,64.76,403.76,58.88,403.76,48Z"/><path class="f" d="M480.74,54.92c0-25.56.29-44.22.29-44.22-2.79-4.7-8.81-8.81-17.92-8.81a29.82,29.82,0,0,0-9.25,1.47l-.73,51.27c1,1.18,4.55,2.79,6.46,3.38-1.18,5.73-3.23,6.76-4.26,6.76-5.73,0-12.78-4.41-12.78-9.84,0-28.94.73-85.35.73-85.35-1.32-1.32-5.29-3.23-7.49-3.82,1-4.7,3.08-7.05,4.55-7.05,5.73,0,13.81,4.41,13.81,9.84,0,8.37-.15,19.1-.29,30a20.69,20.69,0,0,1,14-5.58c11.6,0,24.38,6.76,24.38,19.54,0,25.41-.88,41.87-.88,41.87,1.32,1.32,5.44,2.79,7.79,3.38-1,5.73-3.38,7.05-4.41,7.05C489,64.76,480.74,60.35,480.74,54.92Z"/><path class="f" d="M536.85,54.92c0-24.38,0-40.54.29-51.56h-8.08A6.14,6.14,0,0,1,528,0c0-3.08,3.53-4.7,9.25-5.29.29-6.17.44-9.7.73-11.9,2.2-15.42,13.22-24.09,20.27-24.09,6.17,0,12.78,3.67,12.78,6.76,0,2.06-1.91,4.41-5.14,6.61-4-3.38-6.9-5.14-11.9-6-3.82,6.61-5.58,13.07-6,28.5a110.64,110.64,0,0,0,15.42-.73,4.3,4.3,0,0,1,.88,3.08c0,4.26-4.55,6.46-16.6,6.46V8.64l-.15,45.68a23.34,23.34,0,0,0,7.49,3.38c-1,5.73-3.08,7.05-4.26,7.05C545.23,64.76,536.85,60.35,536.85,54.92Z"/><path class="f" d="M591.65,1.89a19.86,19.86,0,0,0-4.26.59v.29c0,25.56-.88,51.56-.88,51.56A23.33,23.33,0,0,0,594,57.71c-1,5.73-3.08,7.05-4.26,7.05-5.58,0-13.81-4.41-13.81-9.84,0-25.56.44-51,.44-51C575,2.62,570.79.71,568.58.12c.59-5.29,3.08-7.2,4.26-7.2a18.44,18.44,0,0,1,12.63,5.73c2.2-2.94,6.17-5.73,10.43-5.73,6.32,0,11,3.08,11,7.34,0,2.2-1.17,4.26-3.53,6C599.58,2.92,596.64,1.89,591.65,1.89Z"/><path class="f" d="M610.74,47.72c0-16.75,0-22,.88-30.55C613.24.42,627.49-7.07,632.34-7.07c8.23,0,20.86,11.16,20.86,23.36,0,9.25-18.36,13.22-31.73,13.66v1.91l-.15,16.31c6.32,5.73,15.57,8.37,26.44,9.25-.15,4.7-.88,8.23-5.29,8.23C629.55,65.64,610.74,59.18,610.74,47.72ZM626.61.56c-2.06,3.67-4.26,10.14-4.85,22.62,7.79-.73,17.33-2.2,21.3-5.29C642.47,8.2,633.07.56,627.2.56Z"/><path class="f" d="M664.51,47c4.85,6.46,10.72,9,19.68,9a20.7,20.7,0,0,0,5.88-13.81c-3.53-7.2-27.62-15.57-27.62-28.2a26.84,26.84,0,0,1,1-7.34c2.94-7.93,11.75-13.66,20-13.66s14.4,2.94,14.4,6.61a11.85,11.85,0,0,1-3.08,7.2c-5-4.11-9.4-5.44-16.89-5.88-3.38,3.08-6,7.2-6,12.63,2.94,6.46,28.06,15.57,28.06,28.35a26.79,26.79,0,0,1-1,7.34c-2.2,7.2-10.72,15.57-20.86,15.57s-17.33-5-17.33-10.58A8.38,8.38,0,0,1,664.51,47Z"/><path class="f" d="M749.71,54.92c0-25.56.29-44.22.29-44.22-2.79-4.7-8.81-8.81-17.92-8.81a29.82,29.82,0,0,0-9.25,1.47l-.73,51.27c1,1.18,4.55,2.79,6.46,3.38-1.18,5.73-3.23,6.76-4.26,6.76-5.73,0-12.78-4.41-12.78-9.84,0-28.94.73-85.35.73-85.35-1.32-1.32-5.29-3.23-7.49-3.82,1-4.7,3.08-7.05,4.55-7.05,5.73,0,13.81,4.41,13.81,9.84,0,8.37-.15,19.1-.29,30a20.69,20.69,0,0,1,14-5.58c11.6,0,24.38,6.76,24.38,19.54,0,25.41-.88,41.87-.88,41.87,1.32,1.32,5.44,2.79,7.79,3.38-1,5.73-3.38,7.05-4.41,7.05C757.94,64.76,749.71,60.35,749.71,54.92Z"/><path class="f" d="M825.07,55.5c0-23.94.29-65.81.44-79.91-4.41-.15-9.11-.15-13.81-.15a123.55,123.55,0,0,0-15.28.59,13.63,13.63,0,0,1-.44-3.53c0-3.08.88-5.14,3.53-5.88,3.08-.88,7.79-.88,13.51-.88h40.54a90.29,90.29,0,0,0,13.07-.59,9.78,9.78,0,0,1,.73,3.53c0,2.5-1,4.85-3.38,5.73-2.5,1.18-5.88,1.32-12.93,1.32H837.56C837.41,5,836.23,54,836.23,54c1.62,1.47,5.29,2.5,8.37,3.38-1,5.73-3.08,7.34-4.26,7.34C834.47,64.76,825.07,60.94,825.07,55.5Z"/><path class="f" d="M908.8,40.67C906.75,53,893.52,64.76,885.45,64.76c-11.75,0-25.27-7.64-25.27-21.15,0-15.13.15-20.71,1-26.59,1.91-12.34,15-24.09,23.21-24.09,11.9,0,25.71,7.64,25.71,21.15C910.12,29.21,909.83,35.09,908.8,40.67ZM890.15,56.39h.73C895.14,50.8,899,41.7,899,26.86V11.58C895.73,5.41,888.24,1.3,879.86,1.3h-1C874.57,7,870.9,16.14,870.9,31V46.1C874.13,52.27,881.77,56.39,890.15,56.39Z"/><path class="f" d="M974.91,64.76c-5.44,0-12.78-4.41-12.78-9.84,0-25.56.44-44.22.44-44.22-2.64-4.26-9.7-8.81-18.07-8.81a29.42,29.42,0,0,0-7.79,1c0,25.56-.88,51.71-.88,51.71,1,1.18,4.7,2.79,6.46,3.38-1.18,5.73-3.23,6.76-4.26,6.76-5.58,0-12.78-4.41-12.78-9.84,0-25.56.44-51,.44-51-1.32-1.32-5.58-3.23-7.79-3.82.59-5.29,3.08-7.2,4.26-7.2a19,19,0,0,1,12.34,5.44A21,21,0,0,1,948-7.07c7.34,0,15,2.35,19.83,6.9a23.63,23.63,0,0,1,17-6.9c12.34,0,25.71,6.61,25.71,19.54,0,25.41-.88,41.87-.88,41.87,1.17,1.32,5.29,2.79,7.79,3.38-1,5.73-3.53,7.05-4.55,7.05-5.58,0-14-4.41-14-9.84,0-25.56.44-44.22.44-44.22-2.64-4.26-9.69-8.81-18.07-8.81a19.12,19.12,0,0,0-9.7,2.5,17.29,17.29,0,0,1,2.06,8.08c0,25.41-.88,42.16-.88,42.16A16.9,16.9,0,0,0,979.31,58C978,63.73,975.94,64.76,974.91,64.76Z"/><path class="f" d="M1024.71,42.43c0-8.37,17.92-13.81,30.7-14.54.15-11,.29-18.22.29-18.22-6.32-5.44-15.57-8.37-26.44-9.25.15-4.7,1.18-8.23,5.44-8.23,12.78,0,32,6.32,32,17.92,0,25.41-.88,43.78-.88,43.78,1.32,1.32,5.58,3.08,7.79,3.67-1.18,5.73-3.38,7.2-4.55,7.2A18,18,0,0,1,1056.73,59c-2.06,3.08-6.32,5.73-12.78,5.73C1032.79,64.76,1024.71,54.92,1024.71,42.43Zm30.55-7.64c-7.64.88-16.75,3.23-20.57,6.17,1.32,10.43,5.58,15.42,13.51,15.42a13.17,13.17,0,0,0,7.05-1.62Z"/><path class="f" d="M1085.82,48c0-16.6,0-32.17.29-44.66H1078A6.14,6.14,0,0,1,1077,0c0-2.94,3.53-4.7,9.25-5.29.15-6.61.44-11.6.59-14.69.44-4.26,3.53-6.32,7.49-6.32a5.67,5.67,0,0,1,3.23.88c0,1.47-.29,9.25-.44,20a108.06,108.06,0,0,0,15.28-.73,4.3,4.3,0,0,1,.88,3.08c0,4.26-4.41,6.46-16.31,6.46L1096.54,41l-.15,8.67c2.64,4.11,7.64,6.32,15.42,6.9-.15,4.7-.88,8.23-5.29,8.23C1096.39,64.76,1085.82,58.88,1085.82,48Z"/><path class="f" d="M1166.9,40.67c-2.06,12.34-15.28,24.09-23.36,24.09-11.75,0-25.27-7.64-25.27-21.15,0-15.13.15-20.71,1-26.59,1.91-12.34,15-24.09,23.21-24.09,11.9,0,25.71,7.64,25.71,21.15C1168.23,29.21,1167.93,35.09,1166.9,40.67Zm-18.66,15.72h.73c4.26-5.58,8.08-14.69,8.08-29.53V11.58C1153.83,5.41,1146.34,1.3,1138,1.3h-1C1132.68,7,1129,16.14,1129,31V46.1C1132.24,52.27,1139.88,56.39,1148.25,56.39Z"/><path class="f" d="M1203.48,42.43c0-8.37,17.92-13.81,30.7-14.54.15-11,.29-18.22.29-18.22-6.32-5.44-15.57-8.37-26.44-9.25.15-4.7,1.18-8.23,5.44-8.23,12.78,0,32,6.32,32,17.92,0,25.41-.88,43.78-.88,43.78,1.32,1.32,5.58,3.08,7.79,3.67-1.18,5.73-3.38,7.2-4.55,7.2A18,18,0,0,1,1235.51,59c-2.06,3.08-6.32,5.73-12.78,5.73C1211.56,64.76,1203.48,54.92,1203.48,42.43ZM1234,34.79c-7.64.88-16.75,3.23-20.57,6.17,1.32,10.43,5.58,15.42,13.51,15.42a13.17,13.17,0,0,0,7.05-1.62Z"/><path class="f" d="M1303.37,54.92c0-25.56.29-44.22.29-44.22-2.79-4.7-8.81-8.81-18.07-8.81a28.86,28.86,0,0,0-9.11,1.47c0,25.41-.88,51.27-.88,51.27,1,1.18,4.7,2.79,6.46,3.38-1.17,5.73-3.23,6.76-4.26,6.76-5.58,0-12.78-4.41-12.78-9.84,0-25.56.44-51,.44-51-1.32-1.32-5.58-3.23-7.79-3.82.59-5.29,3.08-7.2,4.26-7.2,4.41,0,10.14,2.64,12.78,6,3.23-2.94,8.37-6,14.4-6,12.34,0,25.71,6.61,25.71,19.54,0,25.41-.88,41.87-.88,41.87,1.32,1.32,5.44,2.79,7.93,3.38-1.32,5.73-3.67,7.05-4.7,7.05C1311.6,64.76,1303.37,60.35,1303.37,54.92Z"/><path class="f" d="M1378.58-31.46c0,28.79-1,85.79-1,85.79,1.32,1.32,5.44,2.79,7.79,3.38-1.18,5.73-3.53,7.05-4.55,7.05a18.77,18.77,0,0,1-11.9-5,24.3,24.3,0,0,1-14.4,5c-12.34,0-25.12-6.61-25.12-20,0-15.42.29-22.62,1-27.91C1332.17,2,1343-7.07,1350.53-7.07a32.72,32.72,0,0,1,16.75,5.29c.15-16.31.44-28.64.44-28.64-1.32-1.32-5.44-3.23-7.49-3.82.88-4.7,2.94-7.05,4.55-7.05C1370.51-41.3,1378.58-36.89,1378.58-31.46Zm-11.75,86.82v-.44c0-12.93.15-31.14.29-47.59A50.31,50.31,0,0,0,1346,1.59c-4.26,7.05-5.73,15.87-5.73,30.7L1340.1,46c2.79,5.73,9.11,10.28,18.8,10.28A31.91,31.91,0,0,0,1366.83,55.36Z"/><path class="f" d="M1448.21,65.64c-12.49,0-29.82-5.73-29.82-17.92,0-17.48.29-24.83,1-30.7,2.2-15.57,14-24.09,19.83-24.09,5.44,0,17.77,2.94,17.77,7.49,0,2.06-1.18,4.11-4.41,6.32-4.11-2.94-11.6-5.29-17.48-6.17-2.94,5.44-5.88,15.13-5.88,31.44l-.15,16.16c5,5.73,13.37,8.23,24.38,9.11C1453.35,62,1452.62,65.64,1448.21,65.64Z"/><path class="g" d="M52.83,207.45c-2.06,11.46-17,23.8-25,23.8-10.28,0-26.59-6.17-26.59-21.15,0-13.22.15-20.12,1-26.74,1.62-11.6,16.6-23.94,24.53-23.94,10.28,0,27.47,6.17,27.47,21.15C54.3,193.64,54,200.84,52.83,207.45Zm-19.1,13.22a74.44,74.44,0,0,0,5.73-29.09V179.24c-3.67-5-10.72-9-18.36-9.25-2.94,6.46-5.58,16.6-5.58,29.23v12.34C19.19,216.55,26.1,220.37,33.74,220.67Z"/><path class="g" d="M99.84,222.58c-2.35-4.11-8.37-17.19-12.34-25.41A27.5,27.5,0,0,1,81,198c-.29,12-.59,20.86-.59,20.86a16.26,16.26,0,0,0,6.46,3.53c-1.62,7.49-4.26,8.81-5.73,8.81-5.58,0-15-4.7-15-11.9,0-30.7,1.18-80.35,1.18-80.35-1.32-1.91-4.55-4-6.9-5,1.17-5,3.82-8.81,6.32-8.81,6,0,15.42,4.7,15.42,11.9,0,14.84-.44,34.08-.88,50.39h5.58c5.73-4.7,14.69-13.66,16.89-18.07-1.91-.88-4.41-1.32-8.08-1.47a20.44,20.44,0,0,1-.59-4.7c0-2.64,3.23-3.82,8.37-3.82,7.79,0,14.1,2.79,14.1,8.08,0,6.32-10,16.75-19.83,24.09,5,8.08,13.81,22.48,17.48,27.76a39.34,39.34,0,0,0,6.61-.59,14.73,14.73,0,0,1,.88,4.7c0,4.11-5.44,7.34-14,7.34C104.54,230.8,102.63,228,99.84,222.58Z"/><path class="g" d="M126.72,212.59c0-14.84,0-20.42.88-28.2,1.62-15,20-25,25.12-25,7.49,0,18.8,11.9,18.8,23.21,0,9.55-17.92,14.1-30.55,14.54v15.28c6.17,5.44,15.57,8.23,25.27,9.4-.15,5-1.18,10.28-6.61,10.28C147.73,232.13,126.72,225.52,126.72,212.59Zm18.21-43.33c-1.47,3.82-3.08,10.28-3.67,20.13,6.17-.73,13.81-2.2,17.33-5C157.87,176.45,150.08,169.55,144.94,169.25Z"/><path class="g" d="M231.31,137.08c0,30.7-1.76,81.67-1.76,81.67,1.47,1.47,4.85,2.64,7.79,3.53-1.62,7.34-5,9-6.32,9-3.82,0-10-2.35-13.51-6.17A15.23,15.23,0,0,1,205,231.24c-10.58,0-27-5.88-27-20.42,0-14.25.29-21.89,1-27.62,1.62-12.93,15-23.8,22-23.8,4.7,0,10.58,2.06,14.84,4.85.29-14.54.59-25.27.59-25.27-1.32-1.91-4.55-4-6.76-5,1-5,3.53-8.81,6.32-8.81C221.91,125.19,231.31,129.89,231.31,137.08Zm-16.16,83.44v-1.18c0-12.78.15-28.79.44-43.19a45.22,45.22,0,0,0-18.8-5.58c-3.23,7.05-4.41,16.89-4.41,29.53l-.15,11.6a24.33,24.33,0,0,0,19.39,9.11A13.18,13.18,0,0,0,215.15,220.52Z"/><path class="g" d="M274.79,144c-2.94.15-5.58.29-7.79.59a36.11,36.11,0,0,1-.29-4c0-3.23,1-5.88,4-6.76,4-1.76,12.49-2.35,23.8-2.35,24.09,0,34.81,9.7,34.81,22.62A42,42,0,0,1,328,166.32c-1.62,5.44-5.58,9.55-10.28,12.63,8.52,3.38,14,8.52,14,14.4,0,6.46-.29,10.43-1.76,15.13-2.94,10.72-18.8,22.77-30.7,22.77-17.77,0-25.41-4.55-25.41-11.31C273.77,194.08,274.5,155.45,274.79,144Zm35.11,74.48a41,41,0,0,0,6-22.18v-2.35c-4.11-4.55-14.4-8.23-26.29-8.37-.29,16.31-.73,29.82-.73,29.82,4,2.2,8.67,3.38,15.42,3.38C306.23,218.76,308.14,218.61,309.9,218.46ZM290.51,143.4c-.15,9.4-.29,20.57-.59,31.14h2.35a90.68,90.68,0,0,1,14.54,1.32c4.85-5.44,7.05-12.78,7.05-20.71v-3.82C310.34,146.48,303.73,143.55,290.51,143.4Z"/><path class="g" d="M339,208.48c0-8.67,17.77-14.1,30-14.84.15-9.11.44-15.13.44-15.13-6.17-5-15.42-8.23-25.12-9.4.44-5.14,1.62-10.43,6.76-10.43,11.31,0,33.05,6.46,33.05,19.39,0,22.62-1.17,39.66-1.17,39.66,1.47,1.62,5.14,3.38,7.79,4.41-1.47,7.34-4.85,9.11-6.32,9.11-4.11,0-10.72-2.64-14-6.76a16,16,0,0,1-12.93,6.76C347.36,231.24,339,220.37,339,208.48Zm29.82-6.76c-6.17.73-13.51,2.79-16.89,5.44,1.47,9.11,6,13.81,12.93,13.81a13,13,0,0,0,3.82-.59v-1C368.66,213,368.66,207,368.81,201.72Z"/><path class="g" d="M452,179.83c0,15-.59,21-1.62,26.15-2.64,12.63-17.92,25.27-25.71,25.27-11.16,0-25.27-6.46-25.27-20.42,0-29.38,1.17-71.83,1.17-71.83-1.32-1.91-4.55-4-6.9-5,1.17-5,3.82-8.81,6.32-8.81,6,0,15.42,4.7,15.42,11.9,0,8.08-.15,17.48-.29,27a16.5,16.5,0,0,1,11.6-4.7C435.94,159.41,452,166.9,452,179.83Zm-20,40.25c2.5-5.44,5.14-14.4,5.14-28.64V179.24c-2.64-4.55-10-9.4-17.33-9.4a22.73,22.73,0,0,0-4.85.44c-.44,19.39-1,37.46-1.18,41.28,1.91,4.26,9.25,8.52,16.75,8.52Z"/><path class="g" d="M469.72,236.68c5.88,7.79,16.31,11.75,27.76,12.34,1.76-6,2.94-13.37,3.67-23.06-2.79,2.94-6.76,5.29-11.16,5.29-9.4,0-25-7.79-25-22.18,0-22.92.59-35.84.59-35.84a33,33,0,0,0-7.79-4.55c.44-6.46,4.11-9.25,5.58-9.25,7.05,0,17,5.88,17,11.9,0,22.48-1.18,37.61-1.18,37.61,2.35,6,10.14,10.72,17.92,10.72a19.41,19.41,0,0,0,4.26-.29l.29-4.55c.44-15,.59-43,.59-43a22.5,22.5,0,0,0-6.46-3.38c1.47-7.64,4.41-9,5.58-9,5.58,0,15.57,4.7,15.57,11.9,0,17.63-.59,45-1.91,55.23C512.62,245.79,501.89,260,492.2,260c-16.6,0-28.94-7.49-28.94-14.4C463.26,241.53,466.35,238.44,469.72,236.68Z"/><path class="g" d="M596.2,150.45c-5.88-5-12.93-7.79-22.77-7.79h-.29a29.85,29.85,0,0,0-5.44,17.19c5.88,11.6,38,20.13,38,37.9A49.89,49.89,0,0,1,604,209.94c-2.94,9.55-14.54,20.86-28.06,21.3-14.69,0-24.83-7.05-24.83-16,0-5.29,3.08-8.52,6.17-9.69,4.85,7.49,13.37,12.78,25.41,12.78h1.47a29.23,29.23,0,0,0,6-18.07c-6-12-37.16-20.86-37.16-39.37a34.52,34.52,0,0,1,2.06-12c3.08-9.25,15-18.22,25.27-18.22,13.22,0,22.18,4.26,22.18,9.55C602.52,143.84,599,148.39,596.2,150.45Z"/><path class="g" d="M637.77,251.22c-1.62,7.49-4.26,8.81-5.73,8.81-5.58,0-15-4.7-15-11.9,0-22.62,1-74.92,1-74.92a33,33,0,0,0-7.79-4.55c.44-6.46,4.11-9.25,5.58-9.25,4.7,0,10.72,2.79,14.25,6.32a16.27,16.27,0,0,1,12.63-6.32c10.72,0,27.32,5.88,27.32,20.42,0,14.25-.29,22-1,27.76-1.76,12.78-15,23.65-22.18,23.65a32.53,32.53,0,0,1-15-4.26c-.29,11.9-.59,20.71-.59,20.71A16.26,16.26,0,0,0,637.77,251.22Zm-5-81.09c0,.44.15.88.15,1.18,0,10.72-.29,27.76-.73,43.19a41.48,41.48,0,0,0,18.95,5.73c2.94-7.2,4.11-17,4.11-29.67V179.1c-3.53-5-10.58-9.25-18.95-9.25A26.31,26.31,0,0,0,632.78,170.14Z"/><path class="g" d="M700.35,231.24c-5.73,0-15.86-4.7-15.86-11.9,0-22.62.73-46.13.73-46.13a40.16,40.16,0,0,0-7.79-4.55c.44-6.46,4-9.25,5.58-9.25,7.05,0,17,5.88,17,11.9,0,22.77-1.32,47.45-1.32,47.45,1.62,1.47,5,2.64,7.93,3.53C705.05,229.63,701.67,231.24,700.35,231.24Zm-5.29-78.74c-4.85,0-12.78-3.67-12.78-8.81,0-2.5,3.08-6.76,4.85-6.76,5.14,0,12.78,3.53,12.78,8.67C699.91,148.25,696.83,152.51,695.06,152.51Z"/><path class="g" d="M755.29,219.35c0-22.62.59-40.84.59-40.84a22.69,22.69,0,0,0-17-7.49,20.25,20.25,0,0,0-5.44.73c0,22.62-1.18,47.15-1.18,47.15,1.18,1.32,4.55,2.94,6.46,3.53-1.62,7.49-4.26,8.81-5.73,8.81-5.44,0-15-4.7-15-11.9,0-22.62.59-46.13.59-46.13a33,33,0,0,0-7.79-4.55c.44-6.46,4.11-9.25,5.58-9.25,5.14,0,11.75,3.23,15,7.2,2.64-3.67,6.9-7.2,12.19-7.2,10.28,0,27.18,6,27.18,19.1,0,22.62-1,40.25-1,40.25,1.47,1.47,4.85,2.64,7.79,3.53-1.62,7.34-5.14,9-6.32,9C765.57,231.24,755.29,226.54,755.29,219.35Z"/><path class="g" d="M782.32,208.48c0-8.67,17.77-14.1,30-14.84.15-9.11.44-15.13.44-15.13-6.17-5-15.42-8.23-25.12-9.4.44-5.14,1.62-10.43,6.76-10.43,11.31,0,33.05,6.46,33.05,19.39,0,22.62-1.17,39.66-1.17,39.66,1.47,1.62,5.14,3.38,7.79,4.41-1.47,7.34-4.85,9.11-6.32,9.11-4.11,0-10.72-2.64-14-6.76a16,16,0,0,1-12.93,6.76C790.69,231.24,782.32,220.37,782.32,208.48Zm29.82-6.76c-6.17.73-13.51,2.79-16.89,5.44,1.47,9.11,6,13.81,12.93,13.81a13,13,0,0,0,3.82-.59v-1C812,213,812,207,812.14,201.72Z"/><path class="g" d="M870.9,232.13c-10.72,0-30.85-5-30.85-19.54s.29-22.62,1.17-29.23c1.76-13.66,16.6-23.94,23.21-23.94,4.85,0,16.75,2.94,16.75,7.49,0,2.79-2.06,5.73-7.64,8.67-3.53-2.94-9.55-5.29-14.84-6.46-2.06,6.17-4.26,17.48-4.26,30.7l-.15,12.93c5,5.14,13.66,7.64,23.36,8.81C877.21,226.54,876.33,232.13,870.9,232.13Z"/><path class="g" d="M926.72,219.35c0-22.62.73-41,.73-41-3.23-4-9.7-7.35-17.19-7.35a18.32,18.32,0,0,0-5.14.59c-.59,24.38-1.32,47.3-1.32,47.3,1.18,1.32,4.41,2.94,6.46,3.53-1.62,7.49-4.26,8.81-5.73,8.81-5.58,0-15-4.7-15-11.9,0-30.7,1.18-80.35,1.18-80.35-1.32-1.91-4.55-4-6.9-5,1.17-5,3.82-8.81,6.32-8.81,6,0,15.42,4.7,15.42,11.9,0,8.81-.15,19.1-.44,29.53a15.7,15.7,0,0,1,12.78-7.2c8.52,0,24.38,6.17,24.38,19.1,0,22.62-1.17,40.25-1.17,40.25,1.47,1.47,4.85,2.64,7.79,3.53-1.62,7.34-5,9-6.32,9C937,231.24,926.72,226.54,926.72,219.35Z"/><path class="g" d="M988.71,188.64c-4.85,0-12.78-3.53-12.78-8.81,0-2.5,3.82-8.08,5.58-8.08,4.85,0,12.63,3.67,12.63,8.81C994.15,183.06,990.47,188.64,988.71,188.64Z"/><path class="g" d="M1045.27,216.85a127.74,127.74,0,0,0,15,.73,116.66,116.66,0,0,0,18.66-1.32,14.42,14.42,0,0,1,.29,3.08c0,3.67-.73,7.49-3.67,8.81-3.82,1.76-12.49,2.35-20.42,2.35-15.57,0-25.12-.88-25.12-7.2,0-30.55,1-79.47,1-79.47-2.06-1.62-5-2.64-8.23-3.53,1.62-7.34,4.26-9.7,5.73-9.7,6.76,0,18.51,3.38,18.51,10.72C1047,169.25,1045.27,216.85,1045.27,216.85Z"/><path class="g" d="M1083.17,212.59c0-14.84,0-20.42.88-28.2,1.62-15,20-25,25.12-25,7.49,0,18.8,11.9,18.8,23.21,0,9.55-17.92,14.1-30.55,14.54v15.28c6.17,5.44,15.57,8.23,25.27,9.4-.15,5-1.18,10.28-6.61,10.28C1104.17,232.13,1083.17,225.52,1083.17,212.59Zm18.21-43.33c-1.47,3.82-3.08,10.28-3.67,20.13,6.17-.73,13.81-2.2,17.33-5C1114.31,176.45,1106.52,169.55,1101.38,169.25Z"/><path class="g" d="M1175.27,212.88c0-14.1.15-28.65.44-40.54h-21.15v2.35l-.15,44.07a23.5,23.5,0,0,0,7.2,3.53c-1.47,7.34-4.26,9-5.58,9-5.88,0-16.16-4.7-16.16-11.9,0-20.12.15-35.7.44-47h-7.64a8.38,8.38,0,0,1-1.32-4.7c0-3.38,4-5.44,9.25-6.17a122.8,122.8,0,0,1,.88-12.49c1.91-13.51,16.16-23.8,23.21-23.8,5.44,0,13.07,3.53,13.07,7.05,0,2.79-2.5,5.88-7.79,8.81-3.67-3.08-6.46-5.29-10.72-6.61-2.79,6-4,12.93-4.55,26.59H1176c.15-5.44.44-9.84.59-12.49.59-5.58,4.55-8.37,10.14-8.37a7.63,7.63,0,0,1,4.55,1.32c0,3.23-.15,10.43-.29,19.54a135.28,135.28,0,0,0,14.25-.59,8.53,8.53,0,0,1,.88,4.11c0,4.85-4.41,7.64-15.42,7.79-.29,10.43-.73,22-.88,33.2l-.29,8.67c2.94,4,8.08,6.17,15.42,6.76-.44,5.14-1.32,10.28-6.76,10.28C1188.93,231.24,1175.27,226.25,1175.27,212.88Z"/><path class="g" d="M1226.54,189.82h-18.07a7.54,7.54,0,0,1-1.18-4.55c0-4.7,2.94-6.76,12.63-6.76,8.81,0,16-.15,18.51-.73a10.2,10.2,0,0,1,1,4.41C1239.46,187.32,1237.41,189.82,1226.54,189.82Z"/><path class="g" d="M1299.4,207.45c-2.06,11.46-17,23.8-25,23.8-10.28,0-26.59-6.17-26.59-21.15,0-13.22.15-20.12,1-26.74,1.62-11.6,16.6-23.94,24.53-23.94,10.28,0,27.47,6.17,27.47,21.15C1300.86,193.64,1300.57,200.84,1299.4,207.45Zm-19.1,13.22a74.44,74.44,0,0,0,5.73-29.09V179.24c-3.67-5-10.72-9-18.36-9.25-2.94,6.46-5.58,16.6-5.58,29.23v12.34C1265.76,216.55,1272.66,220.37,1280.3,220.67Z"/><path class="g" d="M1364.62,201c-1.76,16.16-15.28,30.26-23.5,30.26-9.84,0-27.32-7.2-27.32-22.18,0-22.92.59-35.84.59-35.84a33,33,0,0,0-7.79-4.55c.44-6.46,4.11-9.25,5.58-9.25,7.05,0,17,5.88,17,11.9,0,22.48-1.18,37.61-1.18,37.61,2.2,5.73,11,11,18.66,11h.59c1.62-3.53,3.67-12.49,3.82-35V171.75a22.5,22.5,0,0,0-6.46-3.38c1.47-7.64,4.41-9,5.58-9,5.58,0,15.57,4.7,15.57,11.9C1365.79,179.24,1365.5,193.2,1364.62,201Z"/><path class="g" d="M1376.22,212.59c0-14.84,0-20.42.88-28.2,1.62-15,20-25,25.12-25,7.49,0,18.8,11.9,18.8,23.21,0,9.55-17.92,14.1-30.55,14.54v15.28c6.17,5.44,15.57,8.23,25.27,9.4-.15,5-1.18,10.28-6.61,10.28C1397.23,232.13,1376.22,225.52,1376.22,212.59Zm18.21-43.33c-1.47,3.82-3.08,10.28-3.67,20.13,6.17-.73,13.81-2.2,17.33-5C1407.36,176.45,1399.58,169.55,1394.44,169.25Z"/><path class="g" d="M1450.7,171a18.07,18.07,0,0,0-2.94.29c0,22.77-1.18,47.45-1.18,47.45,1.32,1.32,5,2.94,7.05,3.53-1.32,7.34-4.26,9-5.58,9-5.44,0-15.72-4.7-15.72-11.9,0-22.62.59-46.13.59-46.13a33,33,0,0,0-7.79-4.55c.44-6.46,4.11-9.25,5.58-9.25,4.85,0,11.31,3.08,14.69,6.76,1.76-3.38,5.14-6.76,9.55-6.76,6,0,12.49,3.08,12.49,7.93,0,3.23-1.76,6-4.85,8.52C1458.92,172.49,1455.69,171,1450.7,171Z"/><path class="h" d="M-7.7,377.75c0-12.93.15-18.95,1.18-26.15,1.62-13.07,24.24-25.71,29.38-25.71,6.9,0,16.6,12.78,16.6,23.06,0,9.84-17.48,15-29.23,15.28v12.49c6,5,15.86,8.08,24.38,9.55-.59,5.44-1.76,12.34-8.08,12.34C15.66,398.61-7.7,391.85-7.7,377.75Zm20.57-39.66a113,113,0,0,0-2.2,17.33c4.41-.73,10.14-2.2,13.22-4.7C22.86,344.7,17.13,338.82,12.87,338.09Z"/><path class="h" d="M40.49,374.52c0-9.25,17.33-14.4,28.94-14.84.29-7.49.59-12.19.59-12.19-6.17-4.55-15.42-8.08-23.8-9.55.44-5.73,2.06-12.78,7.93-12.78,10.14,0,34.37,6.61,34.37,20.71,0,20-1.62,35.55-1.62,35.55,1.62,2.06,4.85,3.82,7.79,5.14-1.91,9.11-6.32,11.16-8.08,11.16-4.11,0-11.9-2.64-15.57-7.93-2.35,3.67-7.05,7.93-13.22,7.93C49,397.73,40.49,386,40.49,374.52Zm28.65-5.88c-4.41.73-10.28,2.2-13.07,4.55,1.62,7.79,6.46,12.34,12.19,12.34h.88a7.75,7.75,0,0,1-.15-1.91C69,378.34,69,373.2,69.13,368.64Z"/><path class="h" d="M103.07,377.9c0-11.75.15-25.27.44-36.72h-7.2a10.48,10.48,0,0,1-1.62-5.73c0-4,4-6.17,9.11-7.2.15-4.85.44-9,.73-11.31.73-6.46,5.58-10.28,12.63-10.28,2.35,0,4.85.73,6,1.91,0,4.41-.15,11.16-.44,18.95a131.61,131.61,0,0,0,13.37-.44,10.85,10.85,0,0,1,1.18,5.14c0,5.58-4.41,8.67-15,9-.29,9.55-.59,19.68-1,28.79l-.44,8.81c3.08,3.67,8.67,5.88,15.13,6.61-.59,5.58-1.47,12.34-7.93,12.34C119.81,397.73,103.07,393.62,103.07,377.9Z"/><path class="h" d="M173.87,312.82c-3.08.29-5.58.44-7.64.73a31.37,31.37,0,0,1-.44-5c0-4.41,1.47-7.64,5.44-8.67,5.29-1.47,13.07-1.91,23.8-1.91,26.88,0,38.19,10.43,38.19,23.36a39.11,39.11,0,0,1-1.47,12.19c-1.62,5.29-5.73,9.11-10.58,11.9,8.23,3.23,13.51,7.79,13.51,12.63,0,7.49-.29,12.34-2.06,17.33-2.94,9.25-21.3,22.33-32.9,22.33-18.51,0-27.18-4.7-27.18-12.93C172.55,356.75,173.58,321.93,173.87,312.82Zm37,69.63a50.36,50.36,0,0,0,4.26-20.57v-1.62c-4.26-3.53-13.51-6.32-22.62-6.61-.59,14.4-1,25.27-1,25.27A28,28,0,0,0,206,382.6C207.66,382.6,209.42,382.6,210.89,382.45Zm-17.33-69.78c-.15,8.52-.29,18.36-.44,27.47a131.14,131.14,0,0,1,15.28,1.47c3.53-5.44,5.29-13.22,5.29-20.27v-3.23C209.57,314.88,203.69,312.82,193.56,312.68Z"/><path class="h" d="M240.42,374.52c0-9.25,17.33-14.4,28.94-14.84.29-7.49.59-12.19.59-12.19-6.17-4.55-15.42-8.08-23.8-9.55.44-5.73,2.06-12.78,7.93-12.78,10.14,0,34.37,6.61,34.37,20.71,0,20-1.62,35.55-1.62,35.55,1.62,2.06,4.85,3.82,7.79,5.14-1.91,9.11-6.32,11.16-8.08,11.16-4.11,0-11.9-2.64-15.57-7.93-2.35,3.67-7.05,7.93-13.22,7.93C248.94,397.73,240.42,386,240.42,374.52Zm28.65-5.88c-4.41.73-10.28,2.2-13.07,4.55,1.62,7.79,6.46,12.34,12.19,12.34h.88a7.75,7.75,0,0,1-.15-1.91C268.91,378.34,268.91,373.2,269.06,368.64Z"/><path class="h" d="M302.11,383.63c0-32.17,1.76-75.06,1.76-75.06a15.59,15.59,0,0,0-6.32-6c1.32-5.58,4.41-10.87,8.08-10.87,6.17,0,16.75,4.85,16.75,14.1C322.39,338.38,320,383,320,383c1.62,1.76,4.41,2.64,7.79,3.67-1.91,9.11-6.32,11-8.08,11C314.31,397.73,302.11,392.88,302.11,383.63Z"/><path class="h" d="M336,383.63c0-32.17,1.76-75.06,1.76-75.06a15.59,15.59,0,0,0-6.32-6c1.32-5.58,4.41-10.87,8.08-10.87,6.17,0,16.75,4.85,16.75,14.1C356.32,338.38,354,383,354,383c1.62,1.76,4.41,2.64,7.79,3.67-1.91,9.11-6.32,11-8.08,11C348.24,397.73,336,392.88,336,383.63Z"/><path class="h" d="M372.48,373.79c4,5.29,10.72,9.25,19.83,9.84a33.52,33.52,0,0,0,1.62-8.67c-2.94-5.88-25.56-12.19-25.56-24.09a37.78,37.78,0,0,1,1.47-10.28c2.5-7.2,14.25-14.69,22-14.69,9.4,0,17.19,3.38,17.19,7.79,0,3.67-3.82,9.11-7.05,11.31a30.11,30.11,0,0,0-16.6-6.9,27.71,27.71,0,0,0-1.91,9c2.79,4.7,26.59,11,26.59,23.36A40.87,40.87,0,0,1,408.61,381c-2.06,6.9-13.22,16.75-22.77,16.75-11,0-19.54-6-19.54-12.34C366.31,379.81,370,375.11,372.48,373.79Z"/><path class="h" d="M452.24,357.19c-5.44,0-14.84-4.26-14.84-10.14,0-2.64,4.41-9.69,6.61-9.69,5.44,0,14.69,4.26,14.69,10.14C458.71,350,454.3,357.19,452.24,357.19Z"/><path class="h" d="M562.12,364.53c-3.08,16-24.68,33.2-36,33.2-13.37,0-39.07-9.11-39.07-29.53,0-15.86.29-27.32,2.35-37.75,2.94-16,24.53-33.2,35.84-33.2,13.37,0,39.07,9.25,39.07,29.53C564.33,342.64,564.18,354,562.12,364.53Zm-29.67,19.1c7.05-8.37,11.16-20.57,11.16-46.57V325.31c-4.55-5.73-13.66-11.9-24.68-14.1-6.61,7.35-11.16,16.6-11.16,46.71v11.75C512.62,375.7,521.58,381.57,532.45,383.63Z"/><path class="h" d="M574.61,383.63c0-32.17,1.76-75.06,1.76-75.06a15.59,15.59,0,0,0-6.32-6c1.32-5.58,4.41-10.87,8.08-10.87,6.17,0,16.75,4.85,16.75,14.1,0,32.61-2.35,77.27-2.35,77.27,1.62,1.76,4.41,2.64,7.79,3.67-1.91,9.11-6.32,11-8.08,11C586.8,397.73,574.61,392.88,574.61,383.63Z"/><path class="h" d="M627.64,397.73c-5.44,0-17.63-4.85-17.63-14.1,0-19.39,1-40.84,1-40.84a45.62,45.62,0,0,0-7.93-5.73c.15-7.49,5.14-11.16,7.05-11.16,7.79,0,19.39,6.9,19.39,14.1,0,20-1.62,43-1.62,43,1.62,1.76,4.55,2.64,7.79,3.67C633.81,395.82,629.4,397.73,627.64,397.73Zm-4.26-77c-5.29,0-14.69-4.26-14.69-10.14,0-2.64,3.23-7.79,5.44-7.79,5.58,0,14.84,4.26,14.84,10.14C629,315.61,625.58,320.76,623.38,320.76Z"/><path class="h" d="M697.86,369.82c-2.5,12-18.66,27.91-26.44,27.91-8.67,0-27.32-6.61-27.32-22.33,0-20,.88-32.61.88-32.61a44.41,44.41,0,0,0-7.79-5.73c.15-7.49,5-11.16,7.05-11.16,7.64,0,19.39,6.9,19.39,14.1a328.35,328.35,0,0,1-1.76,34.52c1.91,4.26,9.69,9.11,16.45,9.25.88-2.35,2.5-12.34,2.79-34.67v-8.67a21.27,21.27,0,0,0-6.46-3.53c1.76-9.25,5.44-11,7.05-11,5.44,0,17.92,5,17.92,14.1C699.62,352.63,699.18,363.36,697.86,369.82Z"/><path class="h" d="M707.4,377.75c0-12.93.15-18.95,1.18-26.15,1.62-13.07,24.24-25.71,29.38-25.71,6.9,0,16.6,12.78,16.6,23.06,0,9.84-17.48,15-29.23,15.28v12.49c6,5,15.86,8.08,24.38,9.55-.59,5.44-1.76,12.34-8.08,12.34C730.76,398.61,707.4,391.85,707.4,377.75ZM728,338.09a113,113,0,0,0-2.2,17.33c4.41-.73,10.14-2.2,13.22-4.7C738,344.7,732.23,338.82,728,338.09Z"/><path class="h" d="M860.32,364.53c-3.08,16-24.68,33.2-36,33.2-13.37,0-39.07-9.11-39.07-29.53,0-15.86.29-27.32,2.35-37.75,2.94-16,24.53-33.2,35.84-33.2,13.37,0,39.07,9.25,39.07,29.53C862.53,342.64,862.38,354,860.32,364.53Zm-29.67,19.1c7.05-8.37,11.16-20.57,11.16-46.57V325.31c-4.55-5.73-13.66-11.9-24.68-14.1-6.61,7.35-11.16,16.6-11.16,46.71v11.75C810.82,375.7,819.78,381.57,830.65,383.63Z"/><path class="h" d="M892.49,397.73c-5.44,0-17.63-4.85-17.63-14.1,0-19.39,1-40.84,1-40.84a45.62,45.62,0,0,0-7.93-5.73c.15-7.49,5.14-11.16,7.05-11.16,7.79,0,19.39,6.9,19.39,14.1,0,20-1.62,43-1.62,43,1.62,1.76,4.55,2.64,7.79,3.67C898.66,395.82,894.26,397.73,892.49,397.73Zm-4.26-77c-5.29,0-14.69-4.26-14.69-10.14,0-2.64,3.23-7.79,5.44-7.79,5.58,0,14.84,4.26,14.84,10.14C893.81,315.61,890.44,320.76,888.23,320.76Z"/><path class="h" d="M908.8,383.63c0-32.17,1.76-75.06,1.76-75.06a15.59,15.59,0,0,0-6.32-6c1.32-5.58,4.41-10.87,8.08-10.87,6.17,0,16.75,4.85,16.75,14.1,0,32.61-2.35,77.27-2.35,77.27,1.62,1.76,4.41,2.64,7.79,3.67-1.91,9.11-6.32,11-8.08,11C921,397.73,908.8,392.88,908.8,383.63Z"/><path class="h" d="M963,374.52c0-9.25,17.33-14.4,28.94-14.84.29-7.49.59-12.19.59-12.19-6.17-4.55-15.42-8.08-23.8-9.55.44-5.73,2.06-12.78,7.93-12.78,10.14,0,34.37,6.61,34.37,20.71,0,20-1.62,35.55-1.62,35.55,1.62,2.06,4.85,3.82,7.79,5.14-1.91,9.11-6.32,11.16-8.08,11.16-4.11,0-11.9-2.64-15.57-7.93-2.35,3.67-7.05,7.93-13.22,7.93C971.52,397.73,963,386,963,374.52Zm28.65-5.88c-4.41.73-10.28,2.2-13.07,4.55,1.62,7.79,6.46,12.34,12.19,12.34h.88a7.75,7.75,0,0,1-.15-1.91C991.5,378.34,991.5,373.2,991.65,368.64Z"/><path class="h" d="M1061.57,383.63c0-19.39,1-37.46,1-37.46-4.26-3.23-10.58-5.88-16.31-5.88h-1.47c0,19.83-1.76,42.89-1.76,42.89a18.91,18.91,0,0,0,6.46,3.67c-1.76,9.11-5.29,10.87-6.9,10.87-5.58,0-17.33-4.85-17.33-14.1,0-19.39.88-40.84.88-40.84a44.41,44.41,0,0,0-7.79-5.73c.15-7.49,5-11.16,7.05-11.16,5.29,0,12.78,3.38,16.6,7.93,2.06-4.11,5.44-7.93,10.43-7.93,8.08,0,28.64,5.44,28.64,18.66,0,19.83-1.47,38.49-1.47,38.49,1.62,1.76,4.41,2.64,7.79,3.67-1.91,9.11-6.46,11-8.08,11C1073.76,397.73,1061.57,392.88,1061.57,383.63Z"/><path class="h" d="M1149.12,305.77c0,32.61-2.35,77.27-2.35,77.27,1.62,1.76,4.41,2.64,7.79,3.67-1.91,9.11-6.32,11-8.08,11-3.82,0-10.87-2.35-14.84-6.9-1.91,3.53-5.44,6.9-10.72,6.9-9,0-29.23-5.14-29.23-20.86,0-13.07.44-21.15,1.18-27.32,1.62-10.87,17.33-23.65,23.94-23.65,3.53,0,9,1.91,13.07,4.41.29-12.49.73-21.74.73-21.74a15.59,15.59,0,0,0-6.32-6c1.32-5.58,4.41-10.87,8.08-10.87C1138.55,291.67,1149.12,296.52,1149.12,305.77ZM1129,385.24a5.51,5.51,0,0,1-.15-1.62c0-12.34.15-26.29.59-38.78a47,47,0,0,0-16.6-5.44c-2.06,7.49-3.23,18.36-3.23,28.65v9.25A30.39,30.39,0,0,0,1129,385.24Z"/><path class="h" d="M1285.88,383.63c0-19.39.88-37.75.88-37.75-3.82-3.23-10.58-5.58-16.16-5.58h-1.47c-.73,23.06-1.76,42.89-1.76,42.89a17.64,17.64,0,0,0,6.46,3.67c-1.91,9.11-5.29,10.87-7.05,10.87-5.58,0-17.33-4.85-17.33-14.1,0-22.62.88-52.44,1.47-71.24a3.41,3.41,0,0,1-1.47.59c-4.11,1.62-9.4,1.91-17.19,1.91h-5c-.29,28.35-2.35,67.13-2.35,67.13,1.62,1.62,4.41,2.64,7.93,3.53-1.91,9.4-5.44,12.19-7.05,12.19-5.73,0-20.12-2.79-20.12-11.9,0-27.62,1-61.84,1.32-71.24-3.67-.15-7.49-.15-11.46-.15-6.61,0-11.16.44-15.13.73a18.59,18.59,0,0,1-.73-5.73c0-5.14,1.47-8.08,6.17-9.25,5-1.18,10.14-1.47,19.83-1.47h32.61c5.58,0,9.55-.15,13.22-.44.15-2.06.29-3.82.29-3.82,2.06-1.18,5.44-2.79,8.67-2.79,5.29,0,9.25,4.41,9.25,13.07,0,9.55-.29,20.13-.44,30.26,2.2-4.85,6.32-9.11,11.6-9.11,5.58,0,24.38,5.73,24.38,18.66,0,19.83-1.47,38.49-1.47,38.49,1.62,1.76,4.55,2.64,7.79,3.67-1.91,9.11-6.46,11-8.08,11C1298.08,397.73,1285.88,392.88,1285.88,383.63Z"/><path class="h" d="M1326.14,399.93c5.58,7.34,14.69,12,26.29,12.93,1.47-6,2.35-13.37,3.08-23.21-2.5,4.55-6.46,8.08-11.16,8.08-7.49,0-24.68-7.49-24.68-22.33,0-20,.88-32.61.88-32.61a44.41,44.41,0,0,0-7.79-5.73c.15-7.49,5-11.16,7.05-11.16,7.64,0,19.39,6.9,19.39,14.1a328.35,328.35,0,0,1-1.76,34.52c2.06,4.41,9.69,8.81,16.75,8.81h1.62a24.89,24.89,0,0,1,.15-3.23c.59-16,.73-39.66.73-39.66a21.27,21.27,0,0,0-6.46-3.53c1.76-9.25,5.44-11,7.05-11,5.44,0,17.92,5,17.92,14.1,0,16.75-1,49.5-2.64,57.14-2.94,14.4-16.6,29.23-27,29.23-16.31,0-27.76-7.49-27.76-15.13C1317.76,406.25,1321.88,402,1326.14,399.93Z"/><path class="h" d="M1440.86,397.73c-5.58,0-17.33-4.85-17.33-14.1,0-19.39,1-37.46,1-37.46-4.26-3.08-10.87-5.88-16.31-5.88h-.15c0,19.83-1.76,42.89-1.76,42.89a18.91,18.91,0,0,0,6.46,3.67c-1.76,9.11-5.29,10.87-6.9,10.87-5.58,0-17.33-4.85-17.33-14.1,0-19.39.88-40.84.88-40.84a44.41,44.41,0,0,0-7.79-5.73c.15-7.49,5-11.16,7.05-11.16,5,0,11.6,3.08,15.72,7.05,2.06-3.67,5.44-7.05,10-7.05,5.58,0,17,2.64,23.65,8.67,2.06-4.41,5.73-8.67,11.31-8.67,8.08,0,28.79,5.44,28.79,18.66,0,19.83-1.76,38.49-1.76,38.49,1.76,1.76,4.55,2.64,7.93,3.67-1.91,9.11-6.46,11-8.08,11-5.58,0-17.77-4.85-17.77-14.1,0-19.39,1-37.46,1-37.46-4.11-3.08-10.72-5.88-16.16-5.88h-1.17a10.54,10.54,0,0,1,.88,4.26c0,19.83-1.62,38.63-1.62,38.63a17.64,17.64,0,0,0,6.46,3.67C1446,396,1442.63,397.73,1440.86,397.73Z"/><path class="i" d="M27.48,564.22c-5.44,0-19.1-5.14-19.1-15.72,0-17.19,1.18-37,1.18-37A67.39,67.39,0,0,0,1.78,505c0-8.23,5.73-12.63,8.08-12.63C18.23,492.38,31,500,31,508.1c0,17.77-1.91,39.81-1.91,39.81,1.76,2.06,4.11,2.64,7.93,3.67C34.83,562.16,29.39,564.22,27.48,564.22Zm-3.38-75.65c-5.88,0-16.45-4.85-16.45-11.31,0-2.64,3.53-8.23,6-8.23,5.88,0,16.45,4.7,16.45,11.16C30.13,483,26.6,488.56,24.11,488.56Z"/><path class="i" d="M40.12,543.06c0-11.46.15-17.77,1-24.53,1.62-11.6,27.62-26.15,33.05-26.15,6.32,0,15,13.51,15,22.92,0,10-17.33,15.57-28.35,16v10.28c5.88,4.7,15.86,7.93,23.36,9.55-.73,5.73-1.76,14-9.11,14C65.09,565.1,40.12,558.19,40.12,543.06Zm22.33-36.72c-.59,3.82-1.18,9.25-1.47,15.28,3.23-.73,7.64-2.2,10.28-4.41C70.23,512.66,66,507.51,62.45,506.34Z"/><path class="i" d="M153.38,473.87c0,34.23-2.94,74-2.94,74,1.76,2.06,4.11,2.64,7.93,3.67-2.2,10.58-7.64,12.63-9.55,12.63-3.82,0-11.6-2.5-15.86-7.49-1.47,3.82-4.41,7.49-9.55,7.49-7.49,0-30.7-4.7-30.7-21.15,0-12.34.44-20.57,1.47-27.18,1.32-9.4,18.95-23.5,25.12-23.5,2.64,0,7.79,1.62,11.6,4,.59-11.46.88-19.1.88-19.1a15.67,15.67,0,0,0-5.73-6.9c1.32-5.73,5-12.19,9.55-12.19C141.92,458.16,153.38,463.3,153.38,473.87Zm-23.65,75.95V548.5c0-11.9.15-24.24.59-35.4a53.37,53.37,0,0,0-14.69-5.29,185,185,0,0,0-2.2,27.76v7.49A36.27,36.27,0,0,0,129.73,549.82Z"/><path class="i" d="M260,553.2c-2.94,7.93-7.2,9.4-19.83,9.4H209.05a116.59,116.59,0,0,0-17,1c-1.47-1.32-5.58-6.17-5.58-10.72,0-7.34,11.75-26.74,22.92-42.89l18.95-27.18H207.88a74.46,74.46,0,0,0-2.94,14.1,28.38,28.38,0,0,1-6.17.59c-7.2,0-10.58-3.53-10.58-10.43,0-4.85.44-9.4,1.62-12.34,2.79-7.93,7.05-9.55,19.68-9.55h32.17a144.26,144.26,0,0,0,17-.88,16.88,16.88,0,0,1,1.17,6.46c0,3.67-.73,6.32-4,8.23L231.23,517.5A170.23,170.23,0,0,0,217,545c4.85-.29,9.7-.59,14-.59h11c1.47-4.11,2.35-12.93,2.94-17.92,14.84,0,17.48,1.32,17.48,7.64C262.37,538.95,261.2,549.38,260,553.2Z"/><path class="i" d="M325,564.22c-3.82,0-11.6-2.5-16-7.64-1.32,4.26-3.53,7.64-7.79,7.64-6.46,0-30.85-4.85-30.85-18.36,0-17.63,1-34.37,1-34.37a67.34,67.34,0,0,0-7.79-6.46c0-8.23,5.73-12.63,8.08-12.63,8.37,0,21.3,7.64,21.3,15.72,0,17.19-2.06,35-2.06,35a39.44,39.44,0,0,0,15,4.7c0-17.48,1.17-39.07,1.17-39.07a18.91,18.91,0,0,0-6.46-3.67c2.2-10.58,6.17-12.63,8.08-12.63,5.44,0,19.83,5.29,19.83,15.72,0,17.19-1.91,39.81-1.91,39.81,1.76,2.06,4.11,2.64,7.79,3.67C332.15,562.16,326.86,564.22,325,564.22Z"/><path class="i" d="M370.05,565.1c-7.49,0-32.9-3.53-32.9-22a219.91,219.91,0,0,1,1.62-27.18c1.18-10.14,21.59-23.5,29.09-23.5,4,0,14.69,3.23,14.69,7.79,0,4-3.38,7.93-12.63,12.63a28.25,28.25,0,0,0-10.14-6.61c-.88,7.79-1.91,20.42-1.91,28.94V542c5,4.26,14,6.9,21.45,8.37C378.57,556.14,377.54,565.1,370.05,565.1Z"/><path class="i" d="M415.3,565.1c-7.49,0-32.9-3.53-32.9-22A219.91,219.91,0,0,1,384,515.89c1.18-10.14,21.59-23.5,29.09-23.5,4,0,14.69,3.23,14.69,7.79,0,4-3.38,7.93-12.63,12.63A28.25,28.25,0,0,0,405,506.19c-.88,7.79-1.91,20.42-1.91,28.94V542c5,4.26,14,6.9,21.45,8.37C423.82,556.14,422.79,565.1,415.3,565.1Z"/><path class="i" d="M467.88,548.5c0-17.19,1-35.11,1-35.11A31.77,31.77,0,0,0,455,509c-.88,21.59-2.06,38.93-2.06,38.93a15.78,15.78,0,0,0,6.46,3.67c-2.2,10.58-6.17,12.63-8.08,12.63-5.58,0-19.1-5.14-19.1-15.72,0-33.64,2.06-71.25,2.06-71.25a16.69,16.69,0,0,0-5.73-6.9c1.18-5.73,4.85-12.19,9.4-12.19,6.32,0,17.77,5.14,17.77,15.72,0,9.55-.15,19.54-.44,28.79h.29c1.91-5.58,5.58-10.28,10.28-10.28,3.38,0,24.68,5.44,24.68,18.36,0,17.77-2.06,37.17-2.06,37.17,1.91,2.06,4.11,2.64,7.93,3.67-2.2,10.58-7.64,12.63-9.55,12.63C481.4,564.22,467.88,559.07,467.88,548.5Z"/><path class="i" d="M522.09,564.22c-5.44,0-19.1-5.14-19.1-15.72,0-17.19,1.18-37,1.18-37a67.39,67.39,0,0,0-7.79-6.46c0-8.23,5.73-12.63,8.08-12.63,8.37,0,21.15,7.64,21.15,15.72,0,17.77-1.91,39.81-1.91,39.81,1.76,2.06,4.11,2.64,7.93,3.67C529.44,562.16,524,564.22,522.09,564.22Zm-3.38-75.65c-5.88,0-16.45-4.85-16.45-11.31,0-2.64,3.53-8.23,6-8.23,5.88,0,16.45,4.7,16.45,11.16C524.73,483,521.21,488.56,518.71,488.56Z"/><path class="i" d="M574.24,548.5c0-17.19,1.17-34.81,1.17-34.81a40.33,40.33,0,0,0-14.1-4.85c-.15,17.63-2.06,39.07-2.06,39.07a16.78,16.78,0,0,0,6.46,3.67c-2.2,10.58-6.17,12.63-8.08,12.63-5.44,0-18.95-5.14-18.95-15.72,0-17.19,1-37,1-37a67.34,67.34,0,0,0-7.79-6.46c0-8.23,5.73-12.63,8.08-12.63,5.58,0,13.37,3.53,17.77,8.37,1.62-4.41,4.55-8.37,9.11-8.37,6.61,0,30,5,30,18.36,0,17.77-1.91,37.17-1.91,37.17,1.76,2.06,4.11,2.64,7.79,3.67-2.2,10.58-7.49,12.63-9.4,12.63C587.9,564.22,574.24,559.07,574.24,548.5Z"/><path class="i" d="M628.45,564.22c-5.44,0-19.1-5.14-19.1-15.72,0-17.19,1.18-37,1.18-37a67.39,67.39,0,0,0-7.79-6.46c0-8.23,5.73-12.63,8.08-12.63,8.37,0,21.15,7.64,21.15,15.72,0,17.77-1.91,39.81-1.91,39.81,1.76,2.06,4.11,2.64,7.93,3.67C635.79,562.16,630.35,564.22,628.45,564.22Zm-3.38-75.65c-5.88,0-16.45-4.85-16.45-11.31,0-2.64,3.53-8.23,6-8.23,5.88,0,16.45,4.7,16.45,11.16C631.09,483,627.56,488.56,625.07,488.56Z"/><path class="i" d="M664.58,540.71c0-9.55,17.33-14.54,28.5-15.13.15-5.88.44-9.84.44-9.84-5.88-4.11-15.13-7.93-22.77-9.55.73-6.17,2.5-14.54,9.11-14.54,9.11,0,35.26,6.76,35.26,21.89a280.4,280.4,0,0,1-1.91,32.32,18.12,18.12,0,0,0,7.79,5.44c-2.2,10.58-7.49,12.93-9.4,12.93-4.11,0-12.93-2.79-17-8.81-2.35,4-7.2,8.81-13.22,8.81C673.4,564.22,664.58,551.73,664.58,540.71Zm28.06-5.29c-3.23.73-7.79,2.06-10.14,4,1.47,6.17,5.73,10.28,10.14,11a7.75,7.75,0,0,1-.15-1.91C692.49,543.94,692.49,539.54,692.64,535.42Z"/><path class="i" d="M763,548.5c0-17.19,1.17-34.81,1.17-34.81a40.33,40.33,0,0,0-14.1-4.85c-.15,17.63-2.06,39.07-2.06,39.07a16.78,16.78,0,0,0,6.46,3.67c-2.2,10.58-6.17,12.63-8.08,12.63-5.44,0-18.95-5.14-18.95-15.72,0-17.19,1-37,1-37A67.34,67.34,0,0,0,720.7,505c0-8.23,5.73-12.63,8.08-12.63,5.58,0,13.37,3.53,17.77,8.37,1.62-4.41,4.55-8.37,9.11-8.37,6.61,0,30,5,30,18.36,0,17.77-1.91,37.17-1.91,37.17,1.76,2.06,4.11,2.64,7.79,3.67-2.2,10.58-7.49,12.63-9.4,12.63C776.66,564.22,763,559.07,763,548.5Z"/><path class="i" d="M855,473.87c0,34.23-2.94,74-2.94,74,1.76,2.06,4.11,2.64,7.93,3.67-2.2,10.58-7.64,12.63-9.55,12.63-3.82,0-11.6-2.5-15.86-7.49-1.47,3.82-4.41,7.49-9.55,7.49-7.49,0-30.7-4.7-30.7-21.15,0-12.34.44-20.57,1.47-27.18,1.32-9.4,18.95-23.5,25.12-23.5,2.64,0,7.79,1.62,11.6,4,.59-11.46.88-19.1.88-19.1a15.67,15.67,0,0,0-5.73-6.9c1.32-5.73,5-12.19,9.55-12.19C843.5,458.16,855,463.3,855,473.87Zm-23.65,75.95V548.5c0-11.9.15-24.24.59-35.4a53.37,53.37,0,0,0-14.69-5.29,185,185,0,0,0-2.2,27.76v7.49A36.27,36.27,0,0,0,831.31,549.82Z"/><path class="i" d="M930.91,552.61c-5.73-20.86-11-42.16-17.19-62h-.29c0,33.2-.15,56-.15,56,1.62,1.76,3.08,2.5,6.46,3.23-2.2,10.58-6.32,14.4-8.23,14.4-5.44,0-18.66-2.5-18.66-12.93,0-33.64,1.62-69.92,1.62-69.92a20.49,20.49,0,0,0-7.79-2.94c0-9,.29-14,16.45-14,12,0,20.13.73,21.89,2.5,4.26,4.26,12.63,30.11,18.95,55.09h.29c7.49-25,17.19-53.18,18.95-55.09s9.84-2.5,21.89-2.5c16.16,0,16.45,5,16.45,14a21.48,21.48,0,0,0-7.79,2.94c-.29,32.61-3.08,65.22-3.08,65.22,1.91,1.62,4.11,2.64,7.93,3.67-2.2,10.58-6.32,14-8.23,14-5.58,0-21.59-2.5-21.59-12.93,0-18.66,1.18-41.87,2.06-57.44h-.29c-10.28,32.32-18.22,63.46-19.1,64.34-1.32,1.32-10.72,2.79-14,2.79S932.67,559.22,930.91,552.61Z"/><path class="i" d="M1063.7,564.22c-3.82,0-11.6-2.5-16-7.64-1.32,4.26-3.53,7.64-7.79,7.64-6.46,0-30.85-4.85-30.85-18.36,0-17.63,1-34.37,1-34.37a67.34,67.34,0,0,0-7.79-6.46c0-8.23,5.73-12.63,8.08-12.63,8.37,0,21.3,7.64,21.3,15.72,0,17.19-2.06,35-2.06,35a39.44,39.44,0,0,0,15,4.7c0-17.48,1.17-39.07,1.17-39.07a18.91,18.91,0,0,0-6.46-3.67c2.2-10.58,6.17-12.63,8.08-12.63,5.44,0,19.83,5.29,19.83,15.72,0,17.19-1.91,39.81-1.91,39.81,1.76,2.06,4.11,2.64,7.79,3.67C1070.9,562.16,1065.61,564.22,1063.7,564.22Z"/><path class="i" d="M1082.36,537.92c3.67,4.85,10.28,9.11,19.1,10a52.4,52.4,0,0,0,.88-6.46c-2.64-5.43-25-10.72-25-22.47a45.69,45.69,0,0,1,1.76-11.46c2.2-7.2,15.28-15.13,22.92-15.13,10,0,18.07,3.53,18.07,8.23,0,4-4.85,10.43-8.52,12.78a32.94,32.94,0,0,0-15.72-7.2,41.65,41.65,0,0,0-1,7.64c2.64,3.82,26,9,26,21.45a52.82,52.82,0,0,1-1.62,11.9c-1.91,6.61-14.25,17-23.5,17-11.31,0-20.57-6.46-20.57-12.93S1079.71,539.24,1082.36,537.92Z"/><path class="i" d="M1162.85,548.5c0-17.19,1-35.11,1-35.11a31.77,31.77,0,0,0-14-4.41c-.88,21.59-2.06,38.93-2.06,38.93a15.78,15.78,0,0,0,6.46,3.67c-2.2,10.58-6.17,12.63-8.08,12.63-5.58,0-19.1-5.14-19.1-15.72,0-33.64,2.06-71.25,2.06-71.25a16.69,16.69,0,0,0-5.73-6.9c1.18-5.73,4.85-12.19,9.4-12.19,6.32,0,17.77,5.14,17.77,15.72,0,9.55-.15,19.54-.44,28.79h.29c1.91-5.58,5.58-10.28,10.28-10.28,3.38,0,24.68,5.44,24.68,18.36,0,17.77-2.06,37.17-2.06,37.17,1.91,2.06,4.11,2.64,7.93,3.67-2.2,10.58-7.64,12.63-9.55,12.63C1176.37,564.22,1162.85,559.07,1162.85,548.5Z"/><path class="i" d="M1220.44,508.84c-.15,17.63-2.06,39.07-2.06,39.07a16.78,16.78,0,0,0,6.46,3.67c-2.2,10.58-6.17,12.63-8.08,12.63-5.44,0-18.95-5.14-18.95-15.72,0-17.19,1-37,1-37a67.34,67.34,0,0,0-7.79-6.46c0-8.23,5.73-12.63,8.08-12.63,5.58,0,13.07,3.38,17.63,8.23,1.32-4.41,3.53-8.23,7.79-8.23,6,0,15.42,3.38,15.42,9.25,0,4.41-2.5,9.11-7.2,12.78C1229.84,510.6,1226,508.84,1220.44,508.84Z"/><path class="i" d="M1295.21,540.86c-2.06,10.14-20,23.36-27.62,23.36s-29.23-3.38-29.23-21.15a224.58,224.58,0,0,1,1.17-27.18c1.18-10.14,19.54-23.5,27.18-23.5s30.41,3.38,30.41,21.15C1297.12,523.23,1296.83,532.63,1295.21,540.86Zm-21,8.52c.73-7.64,1.32-19.83,1.32-27.91V514a34.91,34.91,0,0,0-15.13-6.61c-.73,7.64-1.32,19.68-1.32,27.76v7.64A35.7,35.7,0,0,0,1274.21,549.38Z"/><path class="i" d="M1360.43,540.86c-2.06,10.14-20,23.36-27.62,23.36s-29.23-3.38-29.23-21.15a224.58,224.58,0,0,1,1.17-27.18c1.18-10.14,19.54-23.5,27.18-23.5s30.41,3.38,30.41,21.15C1362.34,523.23,1362,532.63,1360.43,540.86Zm-21,8.52c.73-7.64,1.32-19.83,1.32-27.91V514a34.91,34.91,0,0,0-15.13-6.61c-.73,7.64-1.32,19.68-1.32,27.76v7.64A35.7,35.7,0,0,0,1339.43,549.38Z"/><path class="i" d="M1425.36,564.22c-5.58,0-19.1-5.14-19.1-15.72,0-17.19,1-34.81,1-34.81a38.56,38.56,0,0,0-12.63-4.55c-.15,17.48-2.06,38.78-2.06,38.78a16.78,16.78,0,0,0,6.46,3.67c-2.2,10.58-6.17,12.63-8.08,12.63-5.44,0-18.95-5.14-18.95-15.72,0-17.19,1-37,1-37a67.34,67.34,0,0,0-7.79-6.46c0-8.23,5.73-12.63,8.08-12.63,5.14,0,12.34,3.23,16.89,7.49,1.62-4.11,4.41-7.49,8.52-7.49,4.7,0,17.92,2.5,25.12,8.81,1.62-4.55,4.55-8.81,9.25-8.81,6.61,0,30,5,30,18.36,0,17.77-1.91,37.17-1.91,37.17,1.76,2.06,4.11,2.64,7.79,3.67-2.2,10.58-7.49,12.63-9.4,12.63-5.44,0-19.1-5.14-19.1-15.72,0-17.19,1.17-34.81,1.17-34.81a41.33,41.33,0,0,0-12.93-4.55c0,.59.15,1,.15,1.62,0,17.77-1.91,37.17-1.91,37.17a15.77,15.77,0,0,0,6.46,3.67C1431.24,562.16,1427.27,564.22,1425.36,564.22Z"/><path class="g" d="M94.32,702.79C92,714.84,75.81,730.7,68,730.7c-6,0-16.31-3.23-22-10.28-1.62,5-4.55,10.28-10.58,10.28-8.52,0-29.09-7.05-29.09-21.3,0-20,.88-33.64.88-33.64A44.43,44.43,0,0,0-.57,670c.15-7.49,5-11.16,7.05-11.16,7.64,0,19.39,6.9,19.39,14.1a328.35,328.35,0,0,1-1.76,34.52c2.79,4.55,10.28,8.81,16.31,8.81a9.22,9.22,0,0,0,2.79-.44,17.05,17.05,0,0,1-1.62-7.49c0-20,.88-35,.88-35A19.68,19.68,0,0,0,36,669.89c1.91-9.25,5.29-11,7.05-11,5.58,0,18.07,5,18.07,14.1a328.35,328.35,0,0,1-1.76,34.52c1.76,4.85,9.11,9,15.72,9.25.59-2.2,2.5-12.19,2.5-34.67v-8.67a17.63,17.63,0,0,0-6.32-3.53c1.91-9.25,5.29-11,7.05-11,5.44,0,17.92,5,17.92,14.1C96.23,685.6,95.94,696.33,94.32,702.79Z"/><path class="g" d="M126.2,730.7c-5.44,0-17.63-4.85-17.63-14.1,0-19.39,1-40.84,1-40.84a45.65,45.65,0,0,0-7.93-5.73c.15-7.49,5.14-11.16,7.05-11.16,7.79,0,19.39,6.9,19.39,14.1,0,20-1.62,43-1.62,43,1.62,1.76,4.55,2.64,7.79,3.67C132.37,728.79,128,730.7,126.2,730.7Zm-4.26-77c-5.29,0-14.69-4.26-14.69-10.14,0-2.64,3.23-7.79,5.44-7.79,5.58,0,14.84,4.26,14.84,10.14C127.52,648.59,124.14,653.73,121.94,653.73Z"/><path class="g" d="M143.39,710.87c0-11.75.15-25.27.44-36.72h-7.2a10.48,10.48,0,0,1-1.62-5.73c0-4,4-6.17,9.11-7.2.15-4.85.44-9,.73-11.31.73-6.46,5.58-10.28,12.63-10.28,2.35,0,4.85.73,6,1.91,0,4.41-.15,11.16-.44,18.95a131.65,131.65,0,0,0,13.37-.44,10.84,10.84,0,0,1,1.18,5.14c0,5.58-4.41,8.67-15,9-.29,9.55-.59,19.68-1,28.79l-.44,8.81c3.08,3.67,8.67,5.88,15.13,6.61-.59,5.58-1.47,12.34-7.93,12.34C160.13,730.7,143.39,726.59,143.39,710.87Z"/><path class="g" d="M220.95,716.6c0-19.39.73-37.75.73-37.75-3.82-3.23-10.43-5.58-16.16-5.58H204.2c-.73,23.06-1.76,42.89-1.76,42.89a15.93,15.93,0,0,0,6.32,3.67c-1.91,9.11-5.29,10.87-6.9,10.87-5.58,0-17.48-4.85-17.48-14.1,0-32.17,1.76-75.06,1.76-75.06a16.18,16.18,0,0,0-6.17-6c1.18-5.58,4.26-10.87,8.08-10.87,6.17,0,16.6,4.85,16.6,14.1s0,19.39-.29,29.23c2.06-4.85,6.32-9.11,11.46-9.11,5.58,0,24.53,5.73,24.53,18.66,0,19.83-1.62,38.49-1.62,38.49,1.62,1.76,4.55,2.64,7.79,3.67-1.91,9.11-6.46,11-8.08,11C233,730.7,220.95,725.85,220.95,716.6Z"/><path class="g" d="M351.1,697.5c-3.08,16-24.68,33.2-36,33.2-13.37,0-39.07-9.11-39.07-29.53,0-15.87.29-27.32,2.35-37.75,2.94-16,24.53-33.2,35.84-33.2,13.37,0,39.07,9.25,39.07,29.53C353.3,675.61,353.15,686.93,351.1,697.5Zm-29.67,19.1c7.05-8.37,11.16-20.57,11.16-46.57V658.28c-4.55-5.73-13.66-11.9-24.68-14.1-6.61,7.34-11.16,16.6-11.16,46.71v11.75C301.59,708.67,310.55,714.54,321.42,716.6Z"/><path class="g" d="M386.06,673.26a2.87,2.87,0,0,0-1.18.15c0,19.68-1.76,42.6-1.76,42.6a20.87,20.87,0,0,0,6.9,3.67c-1.91,9.11-5.29,11-7.05,11-5.58,0-17.63-4.85-17.63-14.1,0-19.39.88-40.84.88-40.84a44.43,44.43,0,0,0-7.79-5.73c.15-7.49,5-11.16,7.05-11.16,5.29,0,12.34,3.38,16.31,7.64,1.47-4.11,4.11-7.64,8.52-7.64,6,0,14.1,3.23,14.1,8.67,0,3.82-2.06,7.79-6.17,11C395,674.73,391.35,673.26,386.06,673.26Z"/><path class="g" d="M404,710.72c0-12.93.15-18.95,1.18-26.15,1.62-13.07,24.24-25.71,29.38-25.71,6.9,0,16.6,12.78,16.6,23.06,0,9.84-17.48,15-29.23,15.28v12.49c6,5,15.86,8.08,24.38,9.55-.59,5.43-1.76,12.34-8.08,12.34C427.34,731.58,404,724.83,404,710.72Zm20.57-39.66a113.07,113.07,0,0,0-2.2,17.33c4.41-.73,10.14-2.2,13.22-4.7C434.54,677.67,428.81,671.79,424.55,671.06Z"/><path class="g" d="M463.33,735.11c5.73,6.17,14.69,9.84,26.44,10.72a138.31,138.31,0,0,0,2.79-20.12,13.24,13.24,0,0,1-10.43,5c-6.46,0-26-7.79-26-20.86s.29-21,1-27.32c1.62-10.87,17.48-23.65,24.09-23.65,4.41,0,10.14,2.79,14.1,5.88a14.46,14.46,0,0,1,11.75-5.88,7.4,7.4,0,0,1,5.58,2.06c0,16.75-1.17,61.7-2.79,69.33-3.08,14.25-16.75,29.09-27.18,29.09-16,0-27.62-6.46-27.62-13.07C455.1,741.42,459.22,737.16,463.33,735.11Zm29.09-16.89H493c0-1.62.15-3.38.29-5.14.29-9.7.73-24.24.88-34.37a42.7,42.7,0,0,0-16.75-6.32c-2.06,7.2-3.38,18.21-3.38,28.64v8.81C477,713.66,485.8,718.21,492.41,718.21Z"/><path class="g" d="M520.62,707.49c0-9.25,17.33-14.4,28.94-14.84.29-7.49.59-12.19.59-12.19-6.17-4.55-15.42-8.08-23.8-9.55.44-5.73,2.06-12.78,7.93-12.78,10.14,0,34.37,6.61,34.37,20.71,0,20-1.62,35.55-1.62,35.55,1.62,2.06,4.85,3.82,7.79,5.14-1.91,9.11-6.32,11.16-8.08,11.16-4.11,0-11.9-2.64-15.57-7.93-2.35,3.67-7.05,7.93-13.22,7.93C529.14,730.7,520.62,718.95,520.62,707.49Zm28.65-5.88c-4.41.73-10.28,2.2-13.07,4.55,1.62,7.79,6.46,12.34,12.19,12.34h.88a7.76,7.76,0,0,1-.15-1.91C549.12,711.31,549.12,706.17,549.26,701.62Z"/><path class="g" d="M619.19,716.6c0-19.39,1-37.46,1-37.46-4.26-3.23-10.58-5.88-16.31-5.88h-1.47c0,19.83-1.76,42.89-1.76,42.89a18.89,18.89,0,0,0,6.46,3.67c-1.76,9.11-5.29,10.87-6.9,10.87-5.58,0-17.33-4.85-17.33-14.1,0-19.39.88-40.84.88-40.84A44.43,44.43,0,0,0,576,670c.15-7.49,5-11.16,7.05-11.16,5.29,0,12.78,3.38,16.6,7.93,2.06-4.11,5.44-7.93,10.43-7.93,8.08,0,28.64,5.44,28.64,18.66,0,19.83-1.47,38.49-1.47,38.49,1.62,1.76,4.41,2.64,7.79,3.67-1.91,9.11-6.46,11-8.08,11C631.38,730.7,619.19,725.85,619.19,716.6Z"/><path class="g" d="M703.95,707.2c-2.06,10.58-18.8,23.5-26.59,23.5-8.67,0-28.06-4.7-28.06-21.15,0-11.46.15-19.24,1.18-27,1.32-10.72,18.36-23.65,26-23.65,8.81,0,29.09,4.7,29.09,21.15C705.56,691.19,705.27,699.56,703.95,707.2Zm-20.42,10.58a121.68,121.68,0,0,0,3.53-28.5v-9.7a29.2,29.2,0,0,0-16.6-7.64,139.68,139.68,0,0,0-3.23,28.35V710A28.89,28.89,0,0,0,683.53,717.77Z"/><path class="g" d="M748.75,690.16c-5.44,0-14.84-4.26-14.84-10.14,0-2.64,4.41-9.7,6.61-9.7,5.44,0,14.69,4.26,14.69,10.14C755.22,683,750.81,690.16,748.75,690.16Z"/><path class="g" d="M788.71,718.8c0-27.91,1-63.75,1.32-73-3.08.29-5.58.44-7.64.73a31.36,31.36,0,0,1-.44-5c0-4.41,1.47-7.64,5.44-8.67C792.82,631.4,800,631,810,631c25.27,0,39.51,9,39.51,23.06a47.64,47.64,0,0,1-1.47,13.51c-2.06,6.9-7.93,12.34-16.16,16.31l16.45,31.29a25.41,25.41,0,0,0,6.9-.88,37.32,37.32,0,0,1,1,6.9c0,5.29-4.11,9-17.48,9-4.55,0-6.46-1.76-8.37-6L815.3,689l-6.17.73C808.54,704.11,808,715,808,715c1.62,1.76,3.38,2.5,6.61,3.23-1.91,9.25-5.44,12.49-7.2,12.49C801.93,730.7,788.71,727.91,788.71,718.8Zm21.59-73.15c-.15,9.7-.44,20.71-.88,31.29,5.44-.15,10.28-.29,14.69-.59,3.38-5.58,5.29-14.1,5.29-21.45v-3.53C825,648,819.12,646.09,810.3,645.65Z"/><path class="g" d="M883.46,730.7c-5.44,0-17.63-4.85-17.63-14.1,0-19.39,1-40.84,1-40.84a45.65,45.65,0,0,0-7.93-5.73c.15-7.49,5.14-11.16,7.05-11.16,7.79,0,19.39,6.9,19.39,14.1,0,20-1.62,43-1.62,43,1.62,1.76,4.55,2.64,7.79,3.67C889.63,728.79,885.22,730.7,883.46,730.7Zm-4.26-77c-5.29,0-14.69-4.26-14.69-10.14,0-2.64,3.23-7.79,5.44-7.79,5.58,0,14.84,4.26,14.84,10.14C884.78,648.59,881.4,653.73,879.2,653.73Z"/><path class="g" d="M928.56,731.58c-8.81,0-32-4.11-32-20.86a279.13,279.13,0,0,1,1.32-28.2c1.62-11.75,19.54-23.65,26.59-23.65,4.41,0,15.72,3.08,15.72,7.64,0,3.53-2.94,7.05-10.43,11-3.08-2.94-7.79-5.29-12.34-6.76a164.71,164.71,0,0,0-2.94,29.82v9.55c5,4.55,13.81,7.2,22.33,8.52C936.2,724.09,935.17,731.58,928.56,731.58Z"/><path class="g" d="M996,707.2c-2.06,10.58-18.8,23.5-26.59,23.5-8.67,0-28.06-4.7-28.06-21.15,0-11.46.15-19.24,1.18-27,1.32-10.72,18.36-23.65,26-23.65,8.81,0,29.09,4.7,29.09,21.15C997.6,691.19,997.31,699.56,996,707.2Zm-20.42,10.58a121.68,121.68,0,0,0,3.53-28.5v-9.7a29.2,29.2,0,0,0-16.6-7.64,139.68,139.68,0,0,0-3.23,28.35V710A28.89,28.89,0,0,0,975.56,717.77Z"/><path class="g" d="M1048.43,710.87c0-11.75.15-25.27.44-36.72h-19.54c-.29,9.55-.59,19.68-1,28.79l-.44,8.81c3.08,3.67,7.64,5.88,14.1,6.61-.59,5.58-1.47,12.34-8.08,12.34-8.23,0-23.8-4.11-23.8-19.83,0-11.75.15-25.27.44-36.72h-7.2a10.48,10.48,0,0,1-1.62-5.73c0-4,4-6.17,9.11-7.2.15-4.85.44-9,.73-11.31.73-6.46,5.58-10.28,12.63-10.28,2.35,0,4.85.73,6,1.91,0,4.41-.15,11.16-.44,18.95h19.54c.29-4.41.29-8.23.59-10.58.73-6.46,5.73-10.28,12.63-10.28,2.35,0,5,.73,6,1.91,0,4.41-.15,11.16-.44,18.95a131.67,131.67,0,0,0,13.37-.44c.59.88,1,2.5,1,5.14,0,5.58-4.26,8.67-14.69,9-.44,9.55-.88,19.68-1.18,28.79l-.44,8.81c3.08,3.67,8.67,5.88,15.13,6.61-.59,5.58-1.32,12.34-7.93,12.34C1065,730.7,1048.43,726.59,1048.43,710.87Z"/><path class="g" d="M1085.15,707.49c0-9.25,17.33-14.4,28.94-14.84.29-7.49.59-12.19.59-12.19-6.17-4.55-15.42-8.08-23.8-9.55.44-5.73,2.06-12.78,7.93-12.78,10.14,0,34.37,6.61,34.37,20.71,0,20-1.62,35.55-1.62,35.55,1.62,2.06,4.85,3.82,7.79,5.14-1.91,9.11-6.32,11.16-8.08,11.16-4.11,0-11.9-2.64-15.57-7.93-2.35,3.67-7.05,7.93-13.22,7.93C1093.67,730.7,1085.15,718.95,1085.15,707.49Zm28.64-5.88c-4.41.73-10.28,2.2-13.07,4.55,1.62,7.79,6.46,12.34,12.19,12.34h.88a7.76,7.76,0,0,1-.15-1.91C1113.65,711.31,1113.65,706.17,1113.8,701.62Z"/><path class="g" d="M1260.7,702.79c-2.35,12-18.51,27.91-26.29,27.91-6,0-16.31-3.23-22-10.28-1.62,5-4.55,10.28-10.58,10.28-8.52,0-29.09-7.05-29.09-21.3,0-20,.88-33.64.88-33.64a44.43,44.43,0,0,0-7.79-5.73c.15-7.49,5-11.16,7.05-11.16,7.64,0,19.39,6.9,19.39,14.1a328.35,328.35,0,0,1-1.76,34.52c2.79,4.55,10.28,8.81,16.31,8.81a9.22,9.22,0,0,0,2.79-.44,17.05,17.05,0,0,1-1.62-7.49c0-20,.88-35,.88-35a19.68,19.68,0,0,0-6.46-3.53c1.91-9.25,5.29-11,7.05-11,5.58,0,18.07,5,18.07,14.1a328.35,328.35,0,0,1-1.76,34.52c1.76,4.85,9.11,9,15.72,9.25.59-2.2,2.5-12.19,2.5-34.67v-8.67a17.63,17.63,0,0,0-6.32-3.53c1.91-9.25,5.29-11,7.05-11,5.44,0,17.92,5,17.92,14.1C1262.6,685.6,1262.31,696.33,1260.7,702.79Z"/><path class="g" d="M1292.57,730.7c-5.44,0-17.63-4.85-17.63-14.1,0-19.39,1-40.84,1-40.84A45.65,45.65,0,0,0,1268,670c.15-7.49,5.14-11.16,7.05-11.16,7.79,0,19.39,6.9,19.39,14.1,0,20-1.62,43-1.62,43,1.62,1.76,4.55,2.64,7.79,3.67C1298.74,728.79,1294.33,730.7,1292.57,730.7Zm-4.26-77c-5.29,0-14.69-4.26-14.69-10.14,0-2.64,3.23-7.79,5.44-7.79,5.58,0,14.84,4.26,14.84,10.14C1293.89,648.59,1290.52,653.73,1288.31,653.73Z"/><path class="g" d="M1309.76,710.87c0-11.75.15-25.27.44-36.72H1303a10.48,10.48,0,0,1-1.62-5.73c0-4,4-6.17,9.11-7.2.15-4.85.44-9,.73-11.31.73-6.46,5.58-10.28,12.63-10.28,2.35,0,4.85.73,6,1.91,0,4.41-.15,11.16-.44,18.95a131.65,131.65,0,0,0,13.37-.44,10.84,10.84,0,0,1,1.18,5.14c0,5.58-4.41,8.67-15,9-.29,9.55-.59,19.68-1,28.79l-.44,8.81c3.08,3.67,8.67,5.88,15.13,6.61-.59,5.58-1.47,12.34-7.93,12.34C1326.51,730.7,1309.76,726.59,1309.76,710.87Z"/><path class="g" d="M1387.32,716.6c0-19.39.73-37.75.73-37.75-3.82-3.23-10.43-5.58-16.16-5.58h-1.32c-.73,23.06-1.76,42.89-1.76,42.89a15.93,15.93,0,0,0,6.32,3.67c-1.91,9.11-5.29,10.87-6.9,10.87-5.58,0-17.48-4.85-17.48-14.1,0-32.17,1.76-75.06,1.76-75.06a16.18,16.18,0,0,0-6.17-6c1.18-5.58,4.26-10.87,8.08-10.87,6.17,0,16.6,4.85,16.6,14.1s0,19.39-.29,29.23c2.06-4.85,6.32-9.11,11.46-9.11,5.58,0,24.53,5.73,24.53,18.66,0,19.83-1.62,38.49-1.62,38.49,1.62,1.76,4.55,2.64,7.79,3.67-1.91,9.11-6.46,11-8.08,11C1399.37,730.7,1387.32,725.85,1387.32,716.6Z"/><path class="j" d="M661.23,258.75c0,127.93-103.69,231.61-231.61,231.61S198,386.68,198,258.75,301.7,27.14,429.62,27.14,661.23,130.82,661.23,258.75Z"/><path class="k" d="M615.67,258.75c0,102.76-83.3,186-186,186s-186-83.29-186-186,83.3-186,186-186S615.67,156,615.67,258.75Z"/><path class="l" d="M645.24,258.75A6.74,6.74,0,1,1,638.5,252,6.73,6.73,0,0,1,645.24,258.75ZM220.74,252a6.74,6.74,0,1,0,6.74,6.74A6.74,6.74,0,0,0,220.74,252ZM626.2,187.8a6.74,6.74,0,1,0,8.49,4.33A6.75,6.75,0,0,0,626.2,187.8ZM228.88,316.89a6.74,6.74,0,1,0,8.49,4.33A6.74,6.74,0,0,0,228.88,316.89ZM594.65,130.52a6.74,6.74,0,1,0,9.41,1.49A6.74,6.74,0,0,0,594.65,130.52Zm-338,245.56a6.74,6.74,0,1,0,9.41,1.49A6.73,6.73,0,0,0,256.67,376.08ZM547,85.8a6.74,6.74,0,1,0,9.41-1.49A6.74,6.74,0,0,0,547,85.8Zm-245.56,338a6.74,6.74,0,1,0,9.41-1.49A6.74,6.74,0,0,0,301.39,423.78ZM487.76,58a6.74,6.74,0,1,0,8.49-4.32A6.75,6.75,0,0,0,487.76,58ZM358.66,455.32a6.74,6.74,0,1,0,8.49-4.32A6.74,6.74,0,0,0,358.66,455.32ZM422.88,49.86a6.74,6.74,0,1,0,6.74-6.74A6.75,6.75,0,0,0,422.88,49.86Zm0,417.77a6.74,6.74,0,1,0,6.74-6.74A6.74,6.74,0,0,0,422.88,467.63ZM358.66,62.17A6.74,6.74,0,1,0,363,53.68,6.75,6.75,0,0,0,358.66,62.17Zm129.1,397.32a6.74,6.74,0,1,0,4.33-8.48A6.74,6.74,0,0,0,487.76,459.48ZM301.38,93.72a6.74,6.74,0,1,0,1.49-9.41A6.75,6.75,0,0,0,301.38,93.72Zm245.57,338a6.74,6.74,0,1,0,1.49-9.4A6.73,6.73,0,0,0,546.95,431.7ZM256.66,141.42a6.74,6.74,0,1,0-1.49-9.41A6.75,6.75,0,0,0,256.66,141.42ZM594.64,387a6.74,6.74,0,1,0-1.49-9.41A6.74,6.74,0,0,0,594.64,387ZM228.87,200.61a6.74,6.74,0,1,0-4.32-8.5A6.75,6.75,0,0,0,228.87,200.61ZM626.19,329.7a6.74,6.74,0,1,0-4.32-8.49A6.73,6.73,0,0,0,626.19,329.7Z"/><path class="m" d="M642.59,225a6.74,6.74,0,1,1-7.71-5.6A6.74,6.74,0,0,1,642.59,225ZM222.25,284.77a6.74,6.74,0,1,0,7.71,5.6A6.74,6.74,0,0,0,222.25,284.77ZM612.68,157.92a6.74,6.74,0,1,0,9.06,2.94A6.74,6.74,0,0,0,612.68,157.92ZM240.45,347.58a6.74,6.74,0,1,0,9.06,2.94A6.73,6.73,0,0,0,240.45,347.58Zm332.12-241.3a6.74,6.74,0,1,0,9.53,0A6.74,6.74,0,0,0,572.56,106.28ZM277.15,401.69a6.74,6.74,0,1,0,9.53,0A6.74,6.74,0,0,0,277.15,401.69ZM518.45,69.57a6.74,6.74,0,1,0,9.06-2.95A6.73,6.73,0,0,0,518.45,69.57ZM328.79,441.81a6.74,6.74,0,1,0,9.06-2.94A6.74,6.74,0,0,0,328.79,441.81ZM455.64,51.38a6.74,6.74,0,1,0,7.71-5.6A6.74,6.74,0,0,0,455.64,51.38ZM390.29,464a6.74,6.74,0,1,0,7.7-5.6A6.73,6.73,0,0,0,390.29,464Zm0-410.52a6.74,6.74,0,1,0,5.6-7.7A6.75,6.75,0,0,0,390.28,53.49Zm65.36,412.63a6.74,6.74,0,1,0,5.6-7.7A6.73,6.73,0,0,0,455.64,466.11ZM328.78,75.69a6.74,6.74,0,1,0,2.95-9.06A6.75,6.75,0,0,0,328.78,75.69ZM518.44,447.92a6.74,6.74,0,1,0,3-9.06A6.74,6.74,0,0,0,518.44,447.92ZM277.14,115.81a6.74,6.74,0,1,0,0-9.53A6.76,6.76,0,0,0,277.14,115.81Zm295.41,295.4a6.74,6.74,0,1,0,0-9.52A6.73,6.73,0,0,0,572.55,411.21ZM240.44,169.92a6.74,6.74,0,1,0-2.94-9.06A6.75,6.75,0,0,0,240.44,169.92ZM612.67,359.58a6.74,6.74,0,1,0-2.94-9.06A6.73,6.73,0,0,0,612.67,359.58ZM222.24,232.73a6.74,6.74,0,1,0-5.6-7.72A6.76,6.76,0,0,0,222.24,232.73Zm412.63,65.35a6.74,6.74,0,1,0-5.6-7.7A6.74,6.74,0,0,0,634.87,298.08Z"/><path class="m" d="M395.4,267.6c-4.25,25.52-32.53,48.48-48.69,48.48-23.18,0-56.13-15.73-56.13-43,0-26.58,0-40.83,2.55-54,4.25-25.52,32.75-48.69,48.91-48.69,23,0,55.92,15.73,55.92,43.16C397.95,240.38,397.95,254.2,395.4,267.6Zm-41.25,31.68c11.69-10.42,20.2-27.64,20.2-64.85l.21-23.6c-6.59-10.84-21.69-21.05-40.4-23.6-10.84,9.36-19.77,23.81-20,65.28v23.39C320.76,286.95,335.43,296.94,354.15,299.28Z"/><path class="m" d="M489.8,179.78c0,44.44-2.55,118.22-2.55,118.22,2.13,2.13,7,3.83,11.27,5.1-2.34,10.63-7.23,13-9.14,13-5.53,0-14.46-3.4-19.56-8.93a22,22,0,0,1-18.07,8.93c-15.31,0-39.12-8.51-39.12-29.56,0-20.62.43-31.68,1.49-40,2.34-18.71,21.69-34.45,31.9-34.45,6.8,0,15.31,3,21.48,7,.43-21.05.85-36.57.85-36.57-1.91-2.76-6.59-5.74-9.78-7.23,1.49-7.23,5.1-12.76,9.14-12.76C476.19,162.56,489.8,169.36,489.8,179.78ZM466.41,300.56v-1.7c0-18.5.21-41.68.64-62.51a65.46,65.46,0,0,0-27.22-8.08c-4.68,10.21-6.38,24.45-6.38,42.74l-.21,16.8c5.32,7,15.31,13.18,28.07,13.18A19.07,19.07,0,0,0,466.41,300.56Z"/><path class="m" d="M507.87,289.07c0-21.48,0-29.56,1.28-40.83,2.34-21.69,28.92-36.15,36.36-36.15,10.84,0,27.22,17.22,27.22,33.6,0,13.82-25.94,20.41-44.23,21.05v22.11c8.93,7.87,22.54,11.91,36.57,13.61-.21,7.23-1.7,14.88-9.57,14.88C538.28,317.35,507.87,307.79,507.87,289.07Zm26.37-62.73c-2.13,5.53-4.47,14.88-5.32,29.13,8.93-1.06,20-3.19,25.09-7.23C552.95,236.77,541.68,226.77,534.24,226.35Z"/></svg>