<svg id="Layer_1" data-name="Layer 1" xmlns="http://www.w3.org/2000/svg" xmlns:xlink="http://www.w3.org/1999/xlink" viewBox="0 0 1516 1036"><defs><style>.cls-1{fill:none;}.cls-2{fill:#ededed;}.cls-3{clip-path:url(#clip-path);}</style><clipPath id="clip-path"><rect class="cls-1" width="1516" height="1036"/></clipPath></defs><title>Artboard 1a</title><rect class="cls-2" width="1514" height="1036"/><g class="cls-3"><path d="M1258.5,489.72h9.31c18.63,0,24,8,24,23.95v16.41c0,17.29-6.65,28.38-25.72,28.38h-7.54Zm-103.34-81.17V767.8H1258.5V637.85h10.64c15.08,0,21.74,8.87,23.07,35.93l4,94h105.11l-5.76-100.68c-3.11-54.55-23.51-75.39-75.4-78.06v-.88c48.34-8.87,75.84-37.7,75.84-81.61V491.49c0-56.32-40.8-82.94-106.89-82.94Zm-169,214.22,13.31-141h1.33l16,141Zm46.57,145H1139.2l-64.76-359.25H930.3L866,767.8H971.55l6.21-63.42h47.9Zm-267-83.38V408.55H662.42V767.8h196V684.42Zm-261.23,6.65c-15.08,0-25.28-8.42-25.28-30.16V516.77c0-21.73,9.76-31.49,24.84-31.49,15.52,0,26.17,8.43,26.17,30.16V659.58c0,21.74-9.76,31.49-25.73,31.49m-.88,83.83c82.93,0,130.83-46.57,130.83-146.81V545.6c0-104.23-45.68-144.14-128.62-144.14C422.48,401.46,375,445.81,375,547.82v82.94c0,102,45.68,144.14,128.62,144.14m-290.95-110V626.32l14.64,4.88c16.85,5.76,23.95,14.63,23.95,28.83v14.63c0,12.42-7.1,18.63-17.74,18.63-13.75,0-20.85-8.87-20.85-28.38M234,774.9c69.63,0,121.52-31.49,121.52-105.12v-16c0-51-29.27-76.73-78.94-94.91l77.61-18.63-4.88-39c-8.42-66.53-42.13-99.79-117.53-99.79-66.52,0-118.86,30.6-118.86,100.23v15.08c0,46.13,27.5,83.83,76.73,101.57l-78.06,14.19,1.78,42.58C116,741.63,157.71,774.9,234,774.9m4.88-229.3c-14.64-5.32-21.73-14.19-21.73-28.83V500.36c0-10.64,5.32-17.3,15.52-17.3,13.3,0,17.3,9.76,18.18,26.62l1.78,40.8Z"/><path d="M1356.79,978.19c-5.92,0-8.76-3.55-8.76-11.84V948.6c0-10.42,3.55-15.63,11.6-19.42l8.29-3.79a19.32,19.32,0,0,0,5.92-4h.23v13.49c0,26.52-6.63,43.33-17.28,43.33M1346.13,999c17.76,0,24.86-13,28.65-38.6h.48l1.18,36h22.49V891.77c0-30.78-9.47-44.28-35.51-44.28-26.28,0-36.23,14.45-37.89,42.15l-.71,12.31,23.44,5.21.71-19.65c.48-13.26,3.79-19.89,13.26-19.89,8.53,0,11.84,5.45,11.84,19.65v11.6c0,6.87-2.13,8.53-10.89,12.32l-14.44,6.15c-18.23,7.82-25.57,16.1-25.57,35.28v18c0,20.36,7.81,28.41,23,28.41M1281.5,834.47h24.86V804.64H1281.5Zm0,161.95h24.86V850.57H1281.5Zm-19.42-147.74c-15.62,0-21.31,16.81-23.67,47.35h-.48l-1.18-45.46h-23V996.42h24.86V932.26c0-32.91,4-58.25,22.5-58.25a34.68,34.68,0,0,1,7.1.71V849.39a23.34,23.34,0,0,0-6.16-.71M1166,833.76H1187v-27.7H1166Zm-37.17,0h21.07v-27.7h-21.07Zm29.12,34.81c9.47,0,14,6.86,14,22.73v19.89h-28.65V891.77c0-16.34,5-23.2,14.68-23.2m.48-21.08c-25.81,0-40,15.39-40,49.25V951c0,34.57,12.31,48.54,38.12,48.54,23.44,0,36.7-13,38.36-38.83l.71-10.89-23.44-5.68-.71,14.2c-.71,13.26-4.5,20.13-14,20.13s-14.21-6.16-14.21-23V931.31h53v-35c0-34.81-12.55-48.78-37.88-48.78m-80.74.71c-17.29,0-25.57,10.19-29.12,36.7H1048v-6.39c0-21.78-6.86-30.31-22.73-30.31-18,0-26.52,10.9-29.6,37.89h-.47l-1.18-35.52h-23V996.42H996V919.24c0-31.73,4.74-50,18.23-50,7.11,0,9.24,4,9.24,15.86V996.42h24.86V919.71c0-30.54,4.73-50.43,18.23-50.43,7.1,0,9.23,4,9.23,15.86V996.42h24.87V878.75c0-21.78-7.11-30.55-23-30.55M927.53,848c-18.24,0-26,10.89-29.6,36.22h-.47V804.64H872.59V996.42h24.87V919.71c0-31.49,4.73-50.67,19.17-50.67,7.11,0,10,4,10,15.86V996.42h24.86V878.51c0-22-7.81-30.54-23.91-30.54M819.79,999.5c23,0,36.47-12.31,36.47-35.75v-11.6c0-16.34-6.63-27.47-22-35.28l-14.92-7.58c-8.05-4-10.65-10.42-10.65-19.89v-6.63c0-9.94,3.55-14.68,11.12-14.68,8.05,0,11.84,5.69,12.32,16.81l.71,16.11,23.2-4-.95-14.21c-1.42-23-11.12-35.28-35-35.28-22.49,0-36.22,11.13-36.22,34.81v9c0,17,5.44,28.41,21.54,36.46L820,935.1c8.29,4.26,11.37,10.42,11.37,20.13V964c0,10.18-4,14.91-11.84,14.91-8.53,0-13.26-5.68-13.26-18v-18l-23.68,3.79v14.92c0,24.86,12.31,37.88,37.17,37.88M730.53,868.57c9.47,0,14,6.86,14,22.73v19.89H715.85V891.77c0-16.34,5-23.2,14.68-23.2m.48-21.08c-25.81,0-40,15.39-40,49.25V951c0,34.57,12.31,48.54,38.12,48.54,23.44,0,36.7-13,38.36-38.83l.71-10.89-23.44-5.68L744,958.3c-.71,13.26-4.5,20.13-14,20.13s-14.21-6.16-14.21-23V931.31h53v-35c0-34.81-12.55-48.78-37.88-48.78m-136.38,3.08v117c0,22.25,6.86,31.25,23.91,31.25,18,0,26.28-11.84,29.36-39.07h.47l1.19,36.7h23V850.57H647.66v76.72c0,31.72-5,50.43-18.7,50.43-7.1,0-9.47-4.26-9.47-16.34V850.57Zm-19.18-1.89c-15.63,0-21.31,16.81-23.68,47.35h-.47l-1.18-45.46h-23V996.42H552V932.26c0-32.91,4-58.25,22.49-58.25a34.7,34.7,0,0,1,7.11.71V849.39a23.34,23.34,0,0,0-6.16-.71M461.8,978.19c-8.52,0-12.07-6.15-12.07-18.7V888c0-14,4.26-19.18,12.31-19.18,14.2,0,19.65,19.42,19.65,46.65v16.1c0,28.88-5,46.64-19.89,46.64m19.89-173.55V883h-.47c-3.56-23.68-12.08-35-29.36-35-17.76,0-27,11.6-27,40v72c0,26,8.29,39.07,26.29,39.07,18.94,0,27.46-11.13,30.78-38.12h.47l1.18,35.51h23V804.64Zm-99,43.33c-18.47,0-27.23,11.36-30.3,38.12h-.48l-1.18-35.52h-23V996.42h24.86V919c0-31.49,4.74-50,18.94-50,7.34,0,10.19,4.26,10.19,16.34v111h24.86V878.51c0-22-7.82-30.54-23.92-30.54M280,833.76H301v-27.7H280Zm-37.17,0h21.07v-27.7H242.79Zm29.12,34.81c9.47,0,14,6.86,14,22.73v19.89H257.23V891.77c0-16.34,5-23.2,14.68-23.2m.47-21.08c-25.8,0-40,15.39-40,49.25V951c0,34.57,12.31,48.54,38.12,48.54,23.44,0,36.7-13,38.36-38.83l.71-10.89-23.44-5.68-.71,14.2c-.71,13.26-4.5,20.13-14,20.13s-14.21-6.16-14.21-23V931.31h53v-35c0-34.81-12.55-48.78-37.89-48.78M167.5,976.77c-14.21,0-21.31-9.71-21.31-29.83V854.36c0-20.12,6.86-30.07,21.07-30.07s21.31,9.71,21.31,29.83v92.35c0,6.63-.71,12.31-2.37,16.81l-13-17.29-16.81,13.73,12.78,17ZM167,999.5a55.41,55.41,0,0,0,17.29-2.37l16.34,21.55L217.93,1005l-15.39-20.13c7.81-9.47,11.84-23.91,11.84-43.09V858.62c0-40-15.87-57.06-46.65-57.06s-47.35,18.23-47.35,57.77v83.11c0,40,15.86,57.06,46.64,57.06"/><path d="M1376.19,275.14h18.15V247.2h-18.15Zm-42.92,3.17c19.3,0,28.52-10.66,28.52-35.72V218.67c0-16.7-3.17-29.38-16.42-38l-11.81-7.49c-7.78-4.9-8.94-13.83-8.94-26.79V127.64c0-13.25,2.31-18.44,9.8-18.44,7.78,0,9.22,6.34,9.51,21.61l.28,27.94,17-3.17-.57-24.48c-.58-23.63-5.77-36.59-25.64-36.59-19,0-28.52,10.37-28.52,34.86v19.3c0,17.57,3.45,29.38,16.7,38.6l11.82,7.78c8.06,5.19,8.93,13.83,8.93,26.79v23c0,14.12-2.88,18.73-10.37,18.73-8.07,0-10.66-7.21-10.66-21.32V208.59l-17.29,2.88v30.25c0,23.91,7.78,36.59,27.66,36.59m-71.16-168.82c9.8,0,10.37,7.78,10.37,25.35V176.9h-21.89V134.55c0-17.28,1.15-25.06,11.52-25.06m.29-15c-21.32,0-30,12.68-30,43.5v97.37c0,31.41,7.2,42.93,28.23,42.93,21.61,0,28.52-13.83,29.1-42.06l.57-21-17.57-3.75v25.64c-.29,16.42-1.44,26.22-11.52,26.22-9.51,0-10.66-8.07-10.66-25.35V191h39.75V138.59c0-32-6.33-44.08-27.94-44.08M1195,94.8c-15.27,0-21.89,10.37-24.2,37.74h-.29l-.86-34.86h-16.71V275.14h18.15V175.75c0-43.21,3.74-64.24,17-64.24,5.47,0,7.49,3.45,7.49,17V275.14h18.15v-151c0-22.18-5.19-29.38-18.73-29.38m-81-19.3h18.15V41.79H1114Zm0,199.64h18.15V97.68H1114Zm-46.38-15.56,30.54-150.67V97.68h-51.57v15.56h32L1048.36,263.9v11.24h52.43V259.58Zm-66.55,2.88c-4.9,0-6.62-3.74-6.62-12.38V215.79c0-17,3.45-20.45,10.37-25.64l5.47-4q4.32-3.45,5.19-5.18h.28V201.1c0,35.44-5.18,61.36-14.69,61.36M993.91,278c14.4,0,18.73-11.81,22.18-39.47h.58l.58,36.59H1034V138.59c0-31.4-5.47-44.08-25.92-44.08-21,0-27.95,13.83-29.1,43.79l-1.15,23.62,17.28,3.75.58-31.12c.57-17.28,2.3-24.77,11-24.77,8.06,0,9.21,6.91,9.21,25.93v21.6c0,9.22-1.44,11.53-8.64,16.14l-9.79,6.62c-14.12,8.93-21,15.27-21,38.6V253c0,17.86,5.76,25.06,17.57,25.06M923.62,111.51c13,0,17.28,21.32,17.28,66.26v10.94c0,43.79-4,66.55-17,66.55-5.77,0-8.07-3.46-8.07-15.55V127.64c0-12.39,2.3-16.13,7.78-16.13m18.44-13.83-.58,36h-.29C938.31,105.17,932,94.8,917.57,94.8c-13.25,0-19.88,8.64-19.88,30V242.87c0,20.46,6,28.81,18.73,28.81,14.69,0,21-10.08,24.19-36.58h.29v39.75c0,11.24-1.73,19-12.1,19-8.35,0-12.38-4.9-13.25-16.71l-17.28,5.18c2,17.58,12.38,26.51,30.53,26.51,22.47,0,30.25-13.54,30.25-39.18v-172ZM846.7,262.46c-4.9,0-6.63-3.74-6.63-12.38V215.79c0-17,3.46-20.45,10.37-25.64l5.48-4q4.32-3.45,5.18-5.18h.29V201.1c0,35.44-5.18,61.36-14.69,61.36M839.5,278c14.4,0,18.72-11.81,22.18-39.47h.58l.57,36.59h16.71V138.59c0-31.4-5.47-44.08-25.93-44.08-21,0-27.94,13.83-29.09,43.79l-1.16,23.62,17.29,3.75.58-31.12c.57-17.28,2.3-24.77,10.94-24.77,8.07,0,9.22,6.91,9.22,25.93v21.6c0,9.22-1.44,11.53-8.64,16.14l-9.8,6.62c-14.11,8.93-21,15.27-21,38.6V253c0,17.86,5.77,25.06,17.58,25.06M787.35,94.8c-14.4,0-21,9.51-23.33,36.3h-.29v-6.63c0-21.89-4.9-29.67-18.15-29.67-15,0-21.32,10.08-23.62,37.45h-.29l-.86-34.57H704.1V275.14h18.15V176c0-42.93,3.17-64.53,16.13-64.53,6,0,7.2,3.74,7.2,17.28V275.14h18.15V176c0-42.93,3.46-64.53,16.42-64.53,6.05,0,6.92,3.74,6.92,17.28V275.14h18.15V124.47c0-21.89-4.61-29.67-17.87-29.67m-123,.86c-12.1,0-15.85,15.56-17.86,47.25h-.29l-.86-45.23H628.63V275.14h18.15v-79.8c0-42.64,1.44-79.8,18.43-79.8a14.53,14.53,0,0,1,3.75.58V96.53a16.33,16.33,0,0,0-4.61-.87M578.5,109.78c10.09,0,13,6.91,13,23.62V239.13c0,17.28-2.88,23.91-13,23.91s-12.67-6.91-12.67-23.62V133.69c0-17.29,2.88-23.91,12.67-23.91m.58-15.27c-21.61,0-31.4,12.39-31.4,42.06v99.68c0,30.82,8.06,42.06,30.25,42.06,21.89,0,31.69-12.39,31.69-42.06V136.57c0-30.54-8.36-42.06-30.54-42.06M531,55.62a42.17,42.17,0,0,1,9.22,1.15v-15a45,45,0,0,0-12.68-2c-17.57,0-25.06,10.37-25.06,32.85V97.68h-12.1v15.56h12.1v161.9H520.6V113.24h17.86V97.68H520.6V73.77c0-12.39,1.73-18.15,10.37-18.15M427.26,109.49c9.8,0,10.38,7.78,10.38,25.35V176.9h-21.9V134.55c0-17.28,1.15-25.06,11.52-25.06m.29-15c-21.32,0-30,12.68-30,43.5v97.37c0,31.41,7.2,42.93,28.23,42.93,21.61,0,28.52-13.83,29.1-42.06l.58-21-17.58-3.75v25.64c-.28,16.42-1.44,26.22-11.52,26.22-9.51,0-10.66-8.07-10.66-25.35V191H455.5V138.59c0-32-6.34-44.08-27.95-44.08m-84.69,166.8c-5.76,0-7.78-3.74-7.78-14.4V126.49c0-10.95,2.3-15.27,8.07-15.27,13.25,0,17,23.05,17,66.83v17c0,45.23-4,66.26-17.28,66.26M360.14,41.79v89h-.29c-2.88-25.06-9.5-36-23.91-36-12.67,0-19,8.64-19,28.81V250.08c0,19.3,6.05,27.94,19,27.94,15,0,21.61-9.51,24.2-39.18h.58l.58,36.3h17V41.79Zm-94.2,220.67c-4.9,0-6.63-3.74-6.63-12.38V215.79c0-17,3.46-20.45,10.38-25.64l5.47-4q4.32-3.45,5.18-5.18h.29V201.1c0,35.44-5.18,61.36-14.69,61.36M258.74,278c14.4,0,18.72-11.81,22.18-39.47h.58l.57,36.59h16.71V138.59c0-31.4-5.47-44.08-25.93-44.08-21,0-27.94,13.83-29.09,43.79l-1.15,23.62,17.28,3.75.58-31.12c.57-17.28,2.3-24.77,10.94-24.77,8.07,0,9.22,6.91,9.22,25.93v21.6c0,9.22-1.44,11.53-8.64,16.14l-9.8,6.62c-14.11,8.93-21,15.27-21,38.6V253c0,17.86,5.77,25.06,17.58,25.06M223,41.79h-24.2L174.33,242.3h-.57L149.27,41.79h-24.2V275.14h17V83.27h.57L165.4,275.14h17L204.87,83.27h.58V275.14H223Z"/><path d="M1381,367.42l8.57-44.11h-4.71l-8.58,44.11Zm-12.56-44.11-1.23,6.31h5.21l1.23-6.31Zm-2.27,12.93-6.06,31.18h4.71l6.07-31.18Zm-32.47,12.68c1.72-5.76,4.9-9,9.93-9,5.39,0,7.35,3.74,6.24,9Zm5,19.11a16.41,16.41,0,0,0,13.67-6.92l-3.19-3c-2.14,2.75-5,5.63-9.44,5.63-4.71,0-7.16-2.32-7.16-7.41a24.69,24.69,0,0,1,.3-3.68h21.26a41.43,41.43,0,0,0,.68-6.43c0-5.88-2.88-10.6-10.48-10.6-10,0-16.73,8.89-16.73,21.38,0,7,3.93,11,11.09,11m-22.73-.61,8.58-44.11h-4.72l-8.57,44.11Zm-27.32-3.74c-5,0-7.6-2.57-7.6-7.84,0-9.07,5.21-15.87,12.07-15.87,5,0,7.66,2.58,7.66,7.78,0,9.13-5.21,15.93-12.13,15.93M1288,368c10.23,0,17.64-8.94,17.64-20.89,0-7.78-4.9-11.52-11.88-11.52-10.23,0-17.65,8.95-17.65,20.83,0,7.84,4.9,11.58,11.89,11.58m-34.43,0c9.31,0,15.44-5.21,15.44-13,0-5.69-4.11-8.57-8.89-10.23l-4.71-1.65c-3.25-1.17-5.64-2.64-5.64-6.25,0-4.11,3.92-7.23,9.49-7.23,4.48,0,7.36,1.59,8.64,5.88l4.9-2.14c-2.14-6.31-7.16-8.4-13.29-8.4-9,0-15,5.21-15,12.62,0,5.27,3.62,8.21,8,9.81l4.35,1.59c4,1.47,6.92,2.76,6.92,6.68,0,4.47-4.17,7.66-10.29,7.66-4.48,0-8-2.15-9.5-7.29l-4.78,2c2.08,7.1,7.9,9.92,14.34,9.92m-54.71-19.11c1.71-5.76,4.9-9,9.92-9,5.39,0,7.36,3.74,6.25,9Zm5,19.11a16.38,16.38,0,0,0,13.66-6.92l-3.18-3c-2.15,2.75-5,5.63-9.44,5.63-4.71,0-7.17-2.32-7.17-7.41a24.69,24.69,0,0,1,.31-3.68h21.26a41.35,41.35,0,0,0,.67-6.43c0-5.88-2.88-10.6-10.47-10.6-10,0-16.73,8.89-16.73,21.38,0,7,3.92,11,11.09,11m-22.73-.61,8.58-44.11h-4.72l-8.58,44.11Zm-47.91-3.8c-3.86,0-6.43-2.27-6.43-6.06,0-4.17,2.76-7.66,8.21-9.75l7.6,11.83c-2.94,2.39-6,4-9.38,4m9.5-34.19c3.43,0,5.08,1.41,5.08,4.17,0,4.35-5.75,8-10.1,9.56-1.35-2.21-2.58-4.47-2.58-6.92,0-3.74,3.37-6.81,7.6-6.81m15,18-3.86-2.33a46,46,0,0,1-7.6,11.27l-6.55-10.11c9.86-3.86,13.17-8.51,13.17-13.6,0-4.35-3.74-7.6-9.86-7.6-7.54,0-12.87,5-12.87,11.46,0,2.88,1.23,5.51,2.82,8.21-7.54,2.82-11.34,7.78-11.34,13.78,0,5.82,4.11,9.56,10.6,9.56,5.09,0,8.76-2,12.62-5l2.76,4.35h5.88l-4.9-7.48a51.88,51.88,0,0,0,9.13-12.55m-76.27,1.53c1.71-5.76,4.9-9,9.92-9,5.39,0,7.35,3.74,6.25,9Zm5,19.11a16.38,16.38,0,0,0,13.66-6.92l-3.19-3c-2.14,2.75-5,5.63-9.43,5.63-4.72,0-7.17-2.32-7.17-7.41a23.42,23.42,0,0,1,.31-3.68h21.26a42.6,42.6,0,0,0,.67-6.43c0-5.88-2.88-10.6-10.48-10.6-10,0-16.72,8.89-16.72,21.38,0,7,3.92,11,11.09,11m-47.36-.61h4.72l3.31-16.91c1.22-6.13,6.49-10.54,11.88-10.54,4.17,0,5.45,1.72,4.47,6.86l-4,20.59h4.72l4.1-21.26c1.54-7.9-2.2-10.54-7.41-10.54a13.12,13.12,0,0,0-12.25,7.6h-.43l1.1-7h-4.16Zm-9.74-31.18-3.25,16.9c-1,5.33-6.61,10.54-11.64,10.54-4.16,0-5.45-1.71-4.47-6.8l4-20.64h-4.72l-4.1,21.32c-1.53,8,2.21,10.47,7.35,10.47s9.31-3,12-7.66h.43l-1,7.05H1028l6-31.18Zm-52.69,26.65,7.23-37.25H979l-8.09,41.78h24.88l.86-4.53Zm-45.58.85c-2.45,0-3.86-1.16-3.86-3.24,0-4.6,3.37-6.07,7.48-6.93l4.84-1a10.61,10.61,0,0,0,3.3-1h.13l-.25,1.35c-1.16,6.49-6.92,10.9-11.64,10.9M929.1,368a13.26,13.26,0,0,0,11.83-7.66h.43l-.25,1.72c-.49,3.61,1.53,5.76,4.53,5.76a14.31,14.31,0,0,0,4.05-.68l.73-3.92a11.9,11.9,0,0,1-2.51.31c-1.78,0-2.39-.8-2-3.19l2.63-13.72c1.23-6.49-1.4-11-9.37-11-6.25,0-11,2-13.35,8.4l4,1.89c1.41-3.73,3.55-6,8.33-6,4.35,0,5.94,1.66,5.94,4.23,0,3.49-1.59,4.23-4.22,4.78l-5.52,1.16c-5.88,1.23-12.31,3.49-12.31,11.4,0,4.1,2.69,6.55,7,6.55m-17.21-.61,8.57-44.11h-4.71l-8.58,44.11Zm-34.43-6.62-1.23,6.62h2.7c-.74,3.61-2.39,6.19-5.15,9l2,1.89A20.5,20.5,0,0,0,882.91,366l1-5.15Zm-9.93-24.56-3.24,16.9c-1,5.33-6.62,10.54-11.64,10.54-4.17,0-5.46-1.71-4.48-6.8l4-20.64h-4.72l-4.11,21.32c-1.53,8,2.21,10.47,7.36,10.47s9.31-3,12-7.66h.43l-1,7.05h4.17l6-31.18Zm-50.91,27.5c-2.45,0-3.86-1.16-3.86-3.24,0-4.6,3.37-6.07,7.48-6.93l4.84-1a10.81,10.81,0,0,0,3.31-1h.12l-.25,1.35c-1.16,6.49-6.92,10.9-11.64,10.9m-1.9,4.29a13.26,13.26,0,0,0,11.83-7.66H827l-.25,1.72c-.49,3.61,1.53,5.76,4.53,5.76a14.31,14.31,0,0,0,4-.68l.73-3.92a11.83,11.83,0,0,1-2.51.31c-1.78,0-2.39-.8-2-3.19l2.64-13.72c1.22-6.49-1.41-11-9.38-11-6.25,0-11,2-13.35,8.4l4,1.89c1.41-3.73,3.55-6,8.33-6,4.35,0,5.94,1.66,5.94,4.23,0,3.49-1.59,4.23-4.22,4.78l-5.52,1.16c-5.88,1.23-12.31,3.49-12.31,11.4,0,4.1,2.69,6.55,7,6.55m-34.12-5.14,2.88-14.71h17.7l.86-4.53h-17.7L787,330.17h20.28l.86-4.53H783l-8.09,41.78h25.67l.86-4.53Zm-13.72-39.58-1.23,6.49h2.7a15.16,15.16,0,0,1-4.35,7.91l2,1.59a18.18,18.18,0,0,0,6.43-11l.92-5Zm-18.26,44.11,8.58-44.11h-4.72l-8.58,44.11Zm-49.13-6.62-1.23,6.62h6.43l1.23-6.62ZM704,337.34,702.79,344h6.44l1.22-6.61Zm-30.63,11.58c1.71-5.76,4.9-9,9.92-9,5.39,0,7.35,3.74,6.25,9Zm5,19.11A16.38,16.38,0,0,0,692,361.11l-3.18-3c-2.15,2.75-5,5.63-9.44,5.63-4.72,0-7.17-2.32-7.17-7.41a24.69,24.69,0,0,1,.31-3.68h21.26a41.35,41.35,0,0,0,.67-6.43c0-5.88-2.88-10.6-10.47-10.6-10,0-16.73,8.89-16.73,21.38,0,7,3.92,11,11.09,11M652,335.62c-10,0-16.55,9.25-16.55,21.38,0,6.8,3.8,11,10.72,11,5.89,0,10.85-2.94,14-8.58l-3.79-2.57c-2.21,3.68-5.4,6.8-9.44,6.8-4.29,0-6.49-2.82-6.49-7.66,0-8.76,4.71-16,11.09-16,3.92,0,5.88,2.27,6.61,6.07l4.54-2c-1.29-5.64-5.09-8.46-10.72-8.46m-24.63-12.31-1.23,6.31h5.21l1.22-6.31Zm-2.27,12.93L619,367.42h4.72l6.07-31.18Zm-9.37-.5c-5,0-8.76,3.25-11.09,8.34h-.43l1.29-7.84h-4.17l-6.07,31.18H600l2.88-14.83c1.47-7.53,6.74-12.37,12.38-12.37h2l.92-4.23a12.85,12.85,0,0,0-2.45-.25m-22.67,4.66.8-4.16h-9.26l1.72-8.7h-3.92l-2.45,8.7h-6.07l-.79,4.16h6l-3.74,19.24c-1.1,5.51,1.47,8.27,6,8.27a20.36,20.36,0,0,0,6.55-1.16l.86-4.23a19.57,19.57,0,0,1-5.57,1c-2.52,0-3.68-1.35-3-5l3.56-18.14Zm-42.89,23.28c-5,0-7.59-2.57-7.59-7.84,0-9.07,5.2-15.87,12.07-15.87,5,0,7.65,2.58,7.65,7.78,0,9.13-5.2,15.93-12.13,15.93m-.61,4.35c10.23,0,17.64-8.94,17.64-20.89,0-7.78-4.9-11.52-11.88-11.52-10.23,0-17.64,8.95-17.64,20.83,0,7.84,4.9,11.58,11.88,11.58m-25.91-32.41a13.33,13.33,0,0,0-12.26,7.6H511c0-6-3.43-7.6-7.23-7.6-5.08,0-9.43,2.51-12.25,7.6h-.43l1-7h-4.16l-6.07,31.18h4.72l3.31-16.91c1.16-5.82,6.8-10.54,11.64-10.54,3.55,0,5.21,1.78,4.23,6.93l-4,20.52h4.72l3.31-16.91c1.16-5.82,6.8-10.54,11.64-10.54,4.1,0,5.15,2.39,4.29,6.93l-4,20.52h4.71L530.64,346c1.53-8-2.7-10.42-7-10.42M470.6,320.86l-6.06,9.92,2.94.8,9.68-10.72Zm-15,28.06c1.72-5.76,4.9-9,9.93-9,5.39,0,7.35,3.74,6.25,9Zm5,19.11a16.39,16.39,0,0,0,13.67-6.92l-3.19-3c-2.14,2.75-5,5.63-9.43,5.63-4.72,0-7.17-2.32-7.17-7.41a24.69,24.69,0,0,1,.3-3.68h21.26a41.43,41.43,0,0,0,.68-6.43c0-5.88-2.88-10.6-10.48-10.6-10.05,0-16.72,8.89-16.72,21.38,0,7,3.92,11,11.08,11M446.4,335.74c-5,0-8.76,3.25-11.09,8.34h-.43l1.29-7.84H432l-6.06,31.18h4.72l2.87-14.83c1.48-7.53,6.74-12.37,12.38-12.37h2l.92-4.23a12.76,12.76,0,0,0-2.45-.25m-45.27,28c-2.45,0-3.86-1.16-3.86-3.24,0-4.6,3.37-6.07,7.47-6.93l4.84-1a10.71,10.71,0,0,0,3.31-1H413l-.24,1.35c-1.17,6.49-6.93,10.9-11.64,10.9m-1.9,4.29a13.25,13.25,0,0,0,11.82-7.66h.43l-.25,1.72c-.49,3.61,1.54,5.76,4.54,5.76a14.18,14.18,0,0,0,4-.68l.74-3.92a12,12,0,0,1-2.51.31c-1.78,0-2.39-.8-2-3.19l2.64-13.72c1.22-6.49-1.41-11-9.37-11-6.25,0-11,2-13.36,8.4l4,1.89c1.41-3.73,3.56-6,8.34-6,4.34,0,5.94,1.66,5.94,4.23,0,3.49-1.6,4.23-4.23,4.78l-5.51,1.16c-5.88,1.23-12.32,3.49-12.32,11.4,0,4.1,2.7,6.55,7,6.55m-19.61-32.41a13.31,13.31,0,0,0-12.25,7.6h-.43c0-6-3.43-7.6-7.23-7.6-5.08,0-9.43,2.51-12.25,7.6H347l1-7H343.9l-6.06,31.18h4.72l3.31-16.91c1.16-5.82,6.8-10.54,11.64-10.54,3.55,0,5.2,1.78,4.22,6.93l-4,20.52h4.72l3.31-16.91c1.16-5.82,6.8-10.54,11.64-10.54,4.1,0,5.14,2.39,4.29,6.93l-4,20.52h4.72L386.61,346c1.53-8-2.7-10.42-7-10.42m-82.7,13.3c1.71-5.76,4.9-9,9.92-9,5.39,0,7.35,3.74,6.25,9Zm5,19.11a16.38,16.38,0,0,0,13.66-6.92l-3.19-3c-2.14,2.75-5,5.63-9.43,5.63-4.72,0-7.17-2.32-7.17-7.41a23.42,23.42,0,0,1,.31-3.68h21.26a42.6,42.6,0,0,0,.67-6.43c0-5.88-2.88-10.6-10.48-10.6-10,0-16.72,8.89-16.72,21.38,0,7,3.92,11,11.09,11m-19.24-44.72-1.22,6.31h5.2l1.23-6.31Zm-2.27,12.93-6.06,31.18H279l6.06-31.18Zm-25,17.09c-3.43,0-5.82-1.41-5.82-4.9,0-5.15,3.37-8.64,8.33-8.64,3.55,0,5.82,1.47,5.82,4.84,0,5.21-3.37,8.7-8.33,8.7m-4.29,23.16c-6.07,0-7.84-1.11-7.84-3.56,0-3,3.8-5.51,7.9-5.51h7.17c2.69,0,4.1.8,4.1,3.31,0,4.1-4.16,5.76-11.33,5.76m-.55,3.79c12.07,0,16.85-3.79,16.85-10.72,0-4-2.64-6.49-8.09-6.49h-9.25c-2.39,0-3.62-.67-3.62-2.21,0-1.71,2.09-2.94,4.41-3.79a16.79,16.79,0,0,0,3.93.42c7.84,0,13.6-5.57,13.6-13a6.39,6.39,0,0,0-3.13-5.76l.12-.43a14.24,14.24,0,0,0,2.64.3,5.57,5.57,0,0,0,5.7-5l-4.35-1.47c-.86,2.76-1.84,4.29-4,4.29-1.65,0-3.55-.8-6.86-.8-8,0-13.6,5.7-13.6,13.42a7.79,7.79,0,0,0,3.19,6.8l-.12.43c-4.42,1.41-6.19,3.8-6.19,6.43,0,2.21,1.28,3.62,3.43,4.35l-.12.43c-5,1.23-6.93,3.74-6.93,6.8,0,3.55,3.19,6,12.38,6m-10.72-44.54c-5,0-8.76,3.25-11.09,8.34h-.43l1.29-7.84h-4.17l-6.07,31.18h4.72L227,352.59c1.47-7.53,6.74-12.37,12.38-12.37h2l.92-4.23a12.76,12.76,0,0,0-2.45-.25m-46.69,13.18c1.72-5.76,4.91-9,9.93-9,5.39,0,7.35,3.74,6.25,9Zm5,19.11a16.39,16.39,0,0,0,13.66-6.92l-3.19-3c-2.14,2.75-5,5.63-9.43,5.63-4.72,0-7.17-2.32-7.17-7.41a23.42,23.42,0,0,1,.31-3.68h21.26a42.6,42.6,0,0,0,.67-6.43c0-5.88-2.88-10.6-10.48-10.6-10,0-16.72,8.89-16.72,21.38,0,7,3.92,11,11.09,11m-47.36-.61h4.72l3.3-16.91c1.23-6.13,6.5-10.54,11.89-10.54,4.17,0,5.45,1.72,4.47,6.86l-4,20.59h4.72l4.1-21.26c1.53-7.9-2.2-10.54-7.41-10.54a13.12,13.12,0,0,0-12.25,7.6h-.43l1.1-7H156.8ZM135.91,321l3.13.86,9.49-9.74H142Zm-13.6,41.85,2.88-14.71H142.9l.86-4.53H126.05l2.63-13.48H149l.86-4.53H124.7l-8.09,41.78h25.67l.86-4.53Z"/></g></svg>