<?xml version="1.0" encoding="utf-8"?>
<!-- Generator: Adobe Illustrator 18.1.1, SVG Export Plug-In . SVG Version: 6.00 Build 0)  -->
<svg version="1.1" xmlns="http://www.w3.org/2000/svg" xmlns:xlink="http://www.w3.org/1999/xlink" x="0px" y="0px"
	 viewBox="-337.1 -220.4 1516 1036" enable-background="new -337.1 -220.4 1516 1036" xml:space="preserve">
<g id="Layer_3">
	<rect x="-337.1" y="-220.4" fill="#E6E6E6" width="1516" height="1036"/>
</g>
<g id="Layer_2">
	<title>quickview_pollen</title>
	<g>
		<rect x="1259.2" y="169.9" fill="none" width="1398" height="90"/>
		<path d="M1278.9,212.4c-2.7,0-4.8,0.1-7.4,0.1v-2.2c1.4-0.3,2.4-0.6,3.5-1.3c0.5-2,0.6-3.7,0.8-6.8v-21.1c-0.1-1.6-0.2-3-0.5-4.5
			c-1.3-0.8-2.4-1.3-4.1-1.7v-2.2c2.3,0.1,4.9,0.2,7.3,0.2h8.3c6.8,0,11.6,2.3,11.6,9.3c0,5.5-3.8,8.4-8.7,9.3v0.4
			c5.6,0.2,10.6,3.7,10.6,9.5c0,7.3-5.2,10.9-13.4,10.9H1278.9z M1284.4,190.4c5.5,0,8.1-2,8.1-7.3c0-4.7-2.5-7.1-7.3-7.1h-3.8v14.5
			H1284.4z M1286.1,209.3c5.5,0,8.1-3.2,8.1-7.2c0-5.8-3.6-8.6-9.5-8.6h-3.4v10.7c0.1,1.7,0.4,3.9,0.7,5.1H1286.1z"/>
		<path d="M1327.4,208.2c-1.6,1.3-4.9,3.6-5.9,4.1c-1.6,0.6-3.1,0.8-5.1,0.8c-7.1,0-12.7-5.4-12.7-14.6c0-9,5.4-15.4,13.5-15.4
			c7.1,0,10.2,5.1,10.2,11.8l-1.8,1.3l-16.4,0.5c0,7,2.8,12,9.5,12c3.1,0,4.6-0.7,7.6-2.5L1327.4,208.2z M1322,193.5
			c-0.1-4.1-1.4-7.7-5.4-7.7c-4,0-6.8,3.1-7.2,8.7L1322,193.5z"/>
		<path d="M1335.2,192.9c0-1.8-0.2-3.4-0.5-4.6c-0.9-0.6-2.2-1-3.7-1.2l-0.2-1.8c3.2-0.5,5-1.2,7.6-2.3l1.2,0.7
			c-0.2,1-0.1,2.3,0,3.4l0.3,0.1c1.5-1.5,2.6-2.6,4-3.7c0.9-0.4,1.8-0.5,2.8-0.5c2.9,0,4.6,1.6,5.4,2.9l-3.5,4.6h-1
			c-0.7-2-1.8-2.8-3.4-2.8c-1.5,0-2.6,0.8-3.9,1.9v16c0.1,1,0.2,2,0.6,3.2c1.6,0.8,3.2,1.3,5.4,1.6v2.1c-2.4-0.1-4.7-0.2-7-0.2
			c-2.4,0-4.8,0.1-7.3,0.2v-2c0.9-0.2,2-0.6,2.6-1.1c0.4-1.6,0.6-2.7,0.7-5V192.9z"/>
		<path d="M1376.3,208.2c-1.6,1.3-4.9,3.6-5.9,4.1c-1.6,0.6-3.1,0.8-5.1,0.8c-7.1,0-12.7-5.4-12.7-14.6c0-9,5.4-15.4,13.5-15.4
			c7.1,0,10.2,5.1,10.2,11.8l-1.8,1.3l-16.4,0.5c0,7,2.8,12,9.5,12c3,0,4.6-0.7,7.6-2.5L1376.3,208.2z M1370.9,193.5
			c-0.1-4.1-1.4-7.7-5.4-7.7c-4,0-6.8,3.1-7.2,8.7L1370.9,193.5z"/>
		<path d="M1389,205.9c0.1,1,0.2,2,0.6,3.2c1.5,0.7,2.6,1,4.2,1.4v2.1c-2.5-0.1-4.7-0.2-7-0.2c-2.1,0-4.2,0.1-6.4,0.2v-2
			c0.9-0.2,2.4-0.6,2.9-1.1c0.4-1.6,0.6-2.7,0.7-5v-11.6c0-1.8-0.2-3.3-0.5-4.6c-0.9-0.6-1.8-0.9-3.4-1.2l-0.3-1.7
			c3.3-0.5,6.1-1.2,8.7-2.3l1.2,0.6c-0.4,1.2-0.8,4.6-0.8,5.8V205.9z M1382.7,174.3c0,1.9,1.6,3.5,3.5,3.5c2,0,3.6-1.6,3.6-3.5
			c0-2-1.6-3.6-3.6-3.6C1384.3,170.7,1382.7,172.3,1382.7,174.3z"/>
		<path d="M1414.7,209.3c-1.5,1.1-3.8,2.6-5.2,3.3c-1,0.4-2.1,0.5-3.3,0.5c-4.2,0-6.8-2.2-6.8-6.5V187h-3.5v-2.6
			c2.6-1.3,4.5-2.9,6-5.1l2.9-0.4c-0.3,1.5-0.4,3.1-0.5,4.9c2.3-0.1,5.1-0.2,7.4-0.5c-0.2,1-0.4,2.9-0.4,3.8h-7v18.1
			c0,3.4,2,4.3,4.5,4.3c1.5,0,3.2-0.8,4.9-1.9L1414.7,209.3z"/>
		<path d="M1435.4,192h-1l-2.4-0.5c0.1-1.7,0-3.2-0.5-4.6c-0.8-0.7-2.4-1.3-4.6-1.3c-3.2,0-4.6,1.7-4.6,3.9c0,2.5,2.3,3.6,5.1,4.8
			c4.1,1.7,9.3,3.4,9.3,9.5c0,6.2-4.3,9.5-10.9,9.5c-2.9,0-6.3-0.5-8.7-1.7c0.5-2.1,0.7-5.9,0.8-8.2l3.2,0.5c0.1,2,0.1,3.3,0.4,5.1
			c1.4,1,3.2,1.6,5.4,1.6c3.4,0,5.2-1.7,5.2-4.7c0-3.8-3.6-4.9-7.1-6.3c-3.5-1.4-7.1-3.1-7.1-7.9c0-6.1,5.7-8.4,10.3-8.4
			c2.3,0,5.9,0.8,7.9,1.8C1435.6,187,1435.5,189.5,1435.4,192z"/>
		<path d="M1472.8,192.2c-0.1-1.7-0.2-2.8-0.4-4.1c-1-0.6-1.9-0.9-3-1.1l-0.4-1.6c3.2-0.6,5.6-1.2,8.1-2.3l1.2,0.7
			c-0.3,1.2-0.5,2-0.6,3.4v16.7c0,1.7,0.5,4,0.9,5.1c1.4,0.8,2.6,1.2,4.2,1.6v2.1c-1.5-0.1-3-0.2-4.6-0.2c-1.4,0-2.7,0.1-4.1,0.2
			c-0.1-1.3-0.2-2.2-0.7-3.4l-0.4-0.1c-1.5,1.1-2.9,2.2-4.5,3.4c-1.2,0.5-2.6,0.7-4,0.7c-5.8,0-8.8-3.2-8.8-9.3v-11.6
			c-0.1-1.7-0.2-2.8-0.5-4.1c-0.9-0.6-1.8-0.9-2.9-1.1l-0.4-1.6c3.1-0.6,5.6-1.2,8.1-2.3l1.2,0.7c-0.3,1.2-0.5,2-0.6,3.4v15.6
			c0,4.3,1.4,6.6,5.7,6.6c3.1,0,6.6-2.7,6.6-2.7V192.2z"/>
		<path d="M1489.4,192.6c0-1.8-0.2-3-0.5-4.3c-1-0.5-2.5-0.9-3.7-1.1l-0.2-1.8c3.3-0.6,5.3-1.2,7.5-2.3l1.2,0.5
			c-0.1,1.1,0,2.1,0.2,3.2l0.3,0.1l4-3c1.3-0.5,2.9-0.9,4.4-0.9c3.1,0,5.7,1.2,7.2,4.2l4.9-3.3c1.3-0.7,3.1-0.9,4.5-0.9
			c5.2,0,8.2,3.5,8.2,9.3v13.5c0.1,1,0.3,2,0.7,3.2c1.5,0.7,2.6,1.1,4.2,1.4v2.1c-2.3-0.1-4.4-0.2-6.6-0.2c-2.3,0-4.4,0.1-6.7,0.2
			v-2c1-0.2,2.3-0.6,2.9-1.1c0.4-1.6,0.5-2.7,0.7-5v-11c0-4.3-1.5-6.6-5.4-6.6c-3.3,0-6.5,2.6-6.5,2.6c0.2,1,0.3,2.1,0.3,3.2v12.1
			c0.1,1.6,0.3,3.2,0.7,4.4c1.2,0.7,2.5,1.1,4,1.4v2c-2.1-0.1-4-0.1-6.1-0.1c-2.2,0-4.4,0.1-6.6,0.1v-2c0.9-0.2,2-0.6,2.6-1.1
			c0.3-1.6,0.5-2.7,0.6-5v-11c0-4.3-1.6-6.6-5.5-6.6c-3.5,0-6.1,2.7-6.1,2.7v16.4c0.1,1,0.2,2,0.6,3.2c1.4,0.7,2.6,1.1,4.2,1.4v2.1
			c-2.2-0.1-4.3-0.2-6.5-0.2c-2.2,0-4.3,0.1-6.5,0.2v-2c0.9-0.2,2-0.6,2.6-1.1c0.4-1.6,0.5-2.7,0.7-5V192.6z"/>
		<path d="M1556.6,197.6c-2.3,0-4.6,0.4-7.3,1.6l-0.6-0.5l1-17.4h20.2l-0.2,3.1l-1.3,1.3h-15.3l-1,9.4l0.4,0.4
			c2.7-1.1,5.2-1.4,7.4-1.4c6,0,11.2,3.2,11.2,10.6c0,8-6.3,13.9-15.3,13.9c-3,0-5.5-0.2-8.5-1c0.4-2.3,0.8-6,0.9-8.4l3.4,0.4
			c-0.1,1.8,0.1,3.9,0.7,5.6c1.1,0.4,2.4,0.5,3.5,0.5c4.4,0,9.1-2.8,9.1-9.5C1564.8,200.6,1562.1,197.6,1556.6,197.6z"/>
		<path d="M1582.7,192l0.1,0.2c3.3-2.6,5.3-3.3,8.4-3.3c7.1,0,10.2,5.5,10.2,11.3c0,7.9-5.8,12.9-12.9,12.9c-8,0-12.1-6-12.1-15.4
			c0-10.1,6.9-19.9,21.2-23.8l0.9,1.8C1589.3,179.3,1584.4,184.6,1582.7,192z M1595.6,200.9c0-4.9-1.8-8.7-6.7-8.7
			c-2.3,0-4.3,0.9-6.3,2.6c-0.1,1.1-0.1,2.2-0.1,3.4c0,6.9,2.3,12.1,6.8,12.1C1593,210.2,1595.6,206.8,1595.6,200.9z"/>
		<path d="M1615.1,197.6c-2.3,0-4.6,0.4-7.3,1.6l-0.6-0.5l1-17.4h20.2l-0.2,3.1l-1.3,1.3h-15.3l-1,9.4l0.4,0.4
			c2.7-1.1,5.2-1.4,7.4-1.4c6,0,11.2,3.2,11.2,10.6c0,8-6.3,13.9-15.3,13.9c-3,0-5.5-0.2-8.5-1c0.4-2.3,0.8-6,0.9-8.4l3.4,0.4
			c-0.1,1.8,0.1,3.9,0.7,5.6c1.1,0.4,2.4,0.5,3.5,0.5c4.4,0,9.1-2.8,9.1-9.5C1623.3,200.6,1620.6,197.6,1615.1,197.6z"/>
		<path d="M1680.5,186.5c-0.5-0.2-3-0.4-3.7-0.4v-2.4h10.6v2.1c-0.7,0.2-2.1,0.9-2.6,1.4l-8.2,25.9h-3.9l-6.5-18.5l-6.5,18.5h-3.9
			l-8.5-26.3c-0.4-0.3-1.8-0.6-2.4-0.7v-2.4h11.8v2.4c-1.1,0-2.7,0.2-3.4,0.5l-0.2,0.7l5.7,18.9h0.5l5.2-16.1l-1.2-3.2
			c-0.5-0.3-1.8-0.6-2.4-0.7v-2.4h11.5v2.4c-1.2,0-2.4,0.2-3.2,0.5l-0.2,0.7l6.3,18.9h0.5l4.9-19L1680.5,186.5z"/>
		<path d="M1709.5,192.2c-0.1-1.7-0.2-2.8-0.4-4.1c-1-0.6-1.9-0.9-3-1.1l-0.4-1.6c3.2-0.6,5.6-1.2,8.1-2.3l1.2,0.7
			c-0.3,1.2-0.5,2-0.6,3.4v16.7c0,1.7,0.5,4,0.9,5.1c1.4,0.8,2.6,1.2,4.2,1.6v2.1c-1.5-0.1-3-0.2-4.6-0.2c-1.4,0-2.7,0.1-4.1,0.2
			c-0.1-1.3-0.2-2.2-0.7-3.4l-0.4-0.1c-1.5,1.1-2.9,2.2-4.5,3.4c-1.2,0.5-2.6,0.7-4,0.7c-5.8,0-8.8-3.2-8.8-9.3v-11.6
			c-0.1-1.7-0.2-2.8-0.5-4.1c-0.9-0.6-1.8-0.9-2.9-1.1l-0.4-1.6c3.1-0.6,5.6-1.2,8.1-2.3l1.2,0.7c-0.3,1.2-0.5,2-0.6,3.4v15.6
			c0,4.3,1.4,6.6,5.7,6.6c3.1,0,6.6-2.7,6.6-2.7V192.2z"/>
		<path d="M1726.1,192.9c0-1.8-0.2-3.4-0.5-4.6c-0.9-0.6-2.2-1-3.7-1.2l-0.2-1.8c3.2-0.5,5-1.2,7.6-2.3l1.2,0.7
			c-0.2,1-0.1,2.3,0,3.4l0.3,0.1c1.5-1.5,2.6-2.6,4-3.7c0.9-0.4,1.8-0.5,2.8-0.5c2.9,0,4.6,1.6,5.4,2.9l-3.5,4.6h-1
			c-0.7-2-1.8-2.8-3.4-2.8c-1.5,0-2.6,0.8-3.9,1.9v16c0.1,1,0.2,2,0.6,3.2c1.6,0.8,3.2,1.3,5.4,1.6v2.1c-2.4-0.1-4.7-0.2-7-0.2
			c-2.4,0-4.8,0.1-7.3,0.2v-2c0.9-0.2,2-0.6,2.6-1.1c0.4-1.6,0.6-2.7,0.7-5V192.9z"/>
		<path d="M1762.9,208.8c-1.3,1.2-2.8,2.5-4.2,3.5c-1.6,0.6-2.4,0.8-4.4,0.8c-7.2,0-11-5.7-11-14.4c0-10,7.2-15.6,13.5-15.6
			c2.4,0,4.3,0.4,5.9,1v-4.3c0-1.8-0.2-3.4-0.5-4.7c-1-0.6-2.4-1-4.2-1.2l-0.3-1.8c3.5-0.5,6.6-1.2,9.2-2.3l1.2,0.7
			c-0.2,1.5-0.5,2.9-0.5,4.8v28c0,2.1,0.6,4.4,1,5.5c1.5,0.8,2.4,1.2,4.1,1.6v2.1c-1.5-0.1-3-0.1-4.5-0.1c-1.5,0-3,0-4.4,0.1
			c-0.1-1.3-0.3-2.6-0.7-3.8H1762.9z M1762.8,189c-1.3-1.7-3.5-3.2-6.3-3.2c-4.3,0-7.5,3.8-7.5,11.5c0,6,1.8,12,7.2,12
			c2.4,0,4.8-0.9,6.6-2.7V189z"/>
		<path d="M1799.1,208.2c-1.6,1.3-4.9,3.6-5.9,4.1c-1.6,0.6-3.1,0.8-5.1,0.8c-7.1,0-12.7-5.4-12.7-14.6c0-9,5.4-15.4,13.5-15.4
			c7.1,0,10.2,5.1,10.2,11.8l-1.8,1.3l-16.4,0.5c0,7,2.8,12,9.5,12c3.1,0,4.6-0.7,7.6-2.5L1799.1,208.2z M1793.6,193.5
			c-0.1-4.1-1.4-7.7-5.4-7.7c-4,0-6.8,3.1-7.2,8.7L1793.6,193.5z"/>
		<path d="M1839,208.2c-1.6,1.3-4.9,3.6-5.9,4.1c-1.6,0.6-3.1,0.8-5.1,0.8c-7.1,0-12.7-5.4-12.7-14.6c0-9,5.4-15.4,13.5-15.4
			c7.1,0,10.2,5.1,10.2,11.8l-1.8,1.3l-16.4,0.5c0,7,2.8,12,9.5,12c3.1,0,4.6-0.7,7.6-2.5L1839,208.2z M1833.5,193.5
			c-0.1-4.1-1.4-7.7-5.4-7.7c-4,0-6.8,3.1-7.2,8.7L1833.5,193.5z"/>
		<path d="M1861.4,192h-1l-2.4-0.5c0.1-1.7,0-3.2-0.5-4.6c-0.8-0.7-2.4-1.3-4.6-1.3c-3.2,0-4.6,1.7-4.6,3.9c0,2.5,2.3,3.6,5.1,4.8
			c4.1,1.7,9.3,3.4,9.3,9.5c0,6.2-4.3,9.5-10.9,9.5c-2.9,0-6.3-0.5-8.7-1.7c0.5-2.1,0.7-5.9,0.8-8.2l3.2,0.5c0.1,2,0.1,3.3,0.4,5.1
			c1.4,1,3.2,1.6,5.4,1.6c3.4,0,5.2-1.7,5.2-4.7c0-3.8-3.6-4.9-7.1-6.3c-3.5-1.4-7.1-3.1-7.1-7.9c0-6.1,5.7-8.4,10.3-8.4
			c2.3,0,5.9,0.8,7.9,1.8C1861.5,187,1861.4,189.5,1861.4,192z"/>
		<path d="M1902.8,208.2c-1.6,1.3-4.9,3.6-5.9,4.1c-1.6,0.6-3.1,0.8-5.1,0.8c-7.1,0-12.7-5.4-12.7-14.6c0-9,5.4-15.4,13.5-15.4
			c7.1,0,10.2,5.1,10.2,11.8l-1.8,1.3l-16.4,0.5c0,7,2.8,12,9.5,12c3,0,4.6-0.7,7.6-2.5L1902.8,208.2z M1897.3,193.5
			c-0.1-4.1-1.4-7.7-5.4-7.7c-4,0-6.8,3.1-7.2,8.7L1897.3,193.5z"/>
		<path d="M1910.6,192.9c0-1.8-0.2-3.4-0.5-4.6c-0.9-0.6-2.2-1-3.7-1.2l-0.2-1.8c3.2-0.5,5-1.2,7.6-2.3l1.2,0.7
			c-0.2,1-0.1,2.3,0,3.4l0.3,0.1c1.5-1.5,2.6-2.6,4-3.7c0.9-0.4,1.8-0.5,2.8-0.5c2.9,0,4.6,1.6,5.4,2.9l-3.5,4.6h-1
			c-0.7-2-1.8-2.8-3.4-2.8c-1.5,0-2.6,0.8-3.9,1.9v16c0.1,1,0.2,2,0.6,3.2c1.6,0.8,3.2,1.3,5.4,1.6v2.1c-2.4-0.1-4.7-0.2-7-0.2
			c-2.4,0-4.8,0.1-7.3,0.2v-2c0.9-0.2,2-0.6,2.6-1.1c0.4-1.6,0.6-2.7,0.7-5V192.9z"/>
		<path d="M1947,192h-1l-2.4-0.5c0.1-1.7,0-3.2-0.5-4.6c-0.8-0.7-2.4-1.3-4.6-1.3c-3.2,0-4.6,1.7-4.6,3.9c0,2.5,2.3,3.6,5.1,4.8
			c4.1,1.7,9.3,3.4,9.3,9.5c0,6.2-4.3,9.5-10.9,9.5c-2.9,0-6.3-0.5-8.7-1.7c0.5-2.1,0.7-5.9,0.8-8.2l3.2,0.5c0.1,2,0.1,3.3,0.4,5.1
			c1.4,1,3.2,1.6,5.4,1.6c3.4,0,5.2-1.7,5.2-4.7c0-3.8-3.6-4.9-7.1-6.3c-3.5-1.4-7.1-3.1-7.1-7.9c0-6.1,5.7-8.4,10.3-8.4
			c2.3,0,5.9,0.8,7.9,1.8C1947.2,187,1947.1,189.5,1947,192z"/>
		<path d="M1970.2,209.3c-1.5,1.1-3.8,2.6-5.2,3.3c-1,0.4-2.1,0.5-3.3,0.5c-4.2,0-6.8-2.2-6.8-6.5V187h-3.5v-2.6
			c2.6-1.3,4.5-2.9,6-5.1l2.9-0.4c-0.3,1.5-0.4,3.1-0.5,4.9c2.3-0.1,5.1-0.2,7.4-0.5c-0.2,1-0.4,2.9-0.4,3.8h-7v18.1
			c0,3.4,2,4.3,4.5,4.3c1.5,0,3.2-0.8,4.9-1.9L1970.2,209.3z"/>
		<path d="M1975.7,192.6c0-1.8-0.2-3-0.5-4.3c-1-0.5-2.5-0.9-3.7-1.1l-0.2-1.8c3.3-0.6,5.3-1.2,7.5-2.3l1.2,0.5
			c-0.1,1.1,0,2.1,0.2,3.2l0.3,0.1l4-3c1.3-0.5,2.9-0.9,4.4-0.9c3.1,0,5.7,1.2,7.2,4.2l4.9-3.3c1.3-0.7,3.1-0.9,4.5-0.9
			c5.2,0,8.2,3.5,8.2,9.3v13.5c0.1,1,0.3,2,0.7,3.2c1.5,0.7,2.6,1.1,4.2,1.4v2.1c-2.3-0.1-4.4-0.2-6.6-0.2c-2.3,0-4.4,0.1-6.7,0.2
			v-2c1-0.2,2.3-0.6,2.9-1.1c0.4-1.6,0.5-2.7,0.7-5v-11c0-4.3-1.5-6.6-5.4-6.6c-3.3,0-6.5,2.6-6.5,2.6c0.2,1,0.3,2.1,0.3,3.2v12.1
			c0.1,1.6,0.3,3.2,0.7,4.4c1.2,0.7,2.5,1.1,4,1.4v2c-2.1-0.1-4-0.1-6.1-0.1c-2.2,0-4.4,0.1-6.6,0.1v-2c0.9-0.2,2-0.6,2.6-1.1
			c0.3-1.6,0.5-2.7,0.6-5v-11c0-4.3-1.6-6.6-5.5-6.6c-3.5,0-6.1,2.7-6.1,2.7v16.4c0.1,1,0.2,2,0.6,3.2c1.4,0.7,2.6,1.1,4.2,1.4v2.1
			c-2.2-0.1-4.3-0.2-6.5-0.2c-2.2,0-4.3,0.1-6.5,0.2v-2c0.9-0.2,2-0.6,2.6-1.1c0.4-1.6,0.5-2.7,0.7-5V192.6z"/>
		<path d="M2037.1,208.9c-1.2,1.2-2.6,2.3-3.7,3.1c-0.9,0.5-2.1,1.1-4.5,1.1c-3.1,0-7.2-1.7-7.2-7.6c0-2.7,0.9-4.4,2-5.6
			c2.5-1.3,7.1-2.8,13.3-4.3v-3c0-4.1-0.9-6.2-5.4-6.2c-2.1,0-3.4,0.4-3.4,0.4c-0.7,1.6-0.7,3.5-0.5,5.3l-2.6,0.7h-1.1
			c-0.2-2.2-0.5-4.4-0.8-6.4c3-1.8,8.3-3.3,11-3.3c5.6,0,7.6,2.9,7.6,8.2v12.6c0,1.7,0.5,4,0.9,5.1c1.4,0.8,2.5,1.2,4.2,1.6v2
			c-1.5-0.1-3-0.1-4.5-0.1c-1.4,0-2.8,0-4.3,0.1c-0.1-1.2-0.3-2.4-0.7-3.5L2037.1,208.9z M2037,197.9c-3.9,0.9-6.8,1.8-8.3,3.1
			c-1.2,1-1.5,2.5-1.5,3.8c0,2.8,1.3,4.4,3.9,4.4c2.5,0,4.4-1.4,5.9-2.8V197.9z"/>
		<path d="M2058,205.9c0.1,1,0.2,2,0.6,3.2c1.4,0.7,2.6,1.1,4.2,1.4v2.1c-2.2-0.1-4.3-0.2-6.5-0.2c-2.2,0-4.3,0.1-6.5,0.2v-2
			c0.9-0.2,2-0.6,2.6-1.1c0.4-1.6,0.6-2.7,0.7-5v-24.7c0-1.7-0.2-3.2-0.5-4.6c-1-0.6-2.4-1-4.2-1.2l-0.3-1.8
			c3.5-0.5,6.6-1.2,9.2-2.3l1.2,0.7c-0.2,1.5-0.5,2.9-0.5,4.8V205.9z"/>
		<path d="M2084.4,192h-1l-2.4-0.5c0.1-1.7,0-3.2-0.5-4.6c-0.8-0.7-2.4-1.3-4.6-1.3c-3.2,0-4.6,1.7-4.6,3.9c0,2.5,2.3,3.6,5.1,4.8
			c4.1,1.7,9.3,3.4,9.3,9.5c0,6.2-4.3,9.5-10.9,9.5c-2.9,0-6.3-0.5-8.7-1.7c0.5-2.1,0.7-5.9,0.8-8.2l3.2,0.5c0.1,2,0.1,3.3,0.4,5.1
			c1.4,1,3.2,1.6,5.4,1.6c3.4,0,5.2-1.7,5.2-4.7c0-3.8-3.6-4.9-7.1-6.3c-3.5-1.4-7.1-3.1-7.1-7.9c0-6.1,5.7-8.4,10.3-8.4
			c2.3,0,5.9,0.8,7.9,1.8C2084.5,187,2084.4,189.5,2084.4,192z"/>
		<path d="M2123.1,188.5v1.6h-1.8l-2.7-0.4c0-1.3-0.3-3.9-0.7-5c-0.5-0.5-2.4-1-4-1c-2.6,0-4.1,2-4.1,4c0,3.1,2.3,4.5,5.2,5.7
			c4.4,1.8,9.3,3.8,9.3,9.5c0,6.6-4.7,10.1-12.4,10.1c-3.2,0-6.9-0.7-10.1-2.2c0.6-3,1-6.1,1-9.1l4.6,0.5c0.1,2.4,0.2,4.4,0.7,5.9
			c0.7,0.7,2.7,1.5,4.7,1.5c3.2,0,4.9-2.1,4.9-5c0-3.8-3.1-4.9-6-6c-4.5-1.6-8.5-3.9-8.5-9c0-6.2,5.3-9,10.9-9c2.8,0,6.5,0.7,9.3,2
			C2123.3,184,2123.1,186.6,2123.1,188.5z"/>
		<path d="M2154.5,187.4v2.4h-1.5l-2.7-0.3c-0.1-1.3-0.4-3.8-0.7-4.9c-1.3-0.5-3.5-1-5.5-1c-5.1,0-8.7,4.8-8.7,12.2
			c0,7,2.4,14,9.8,14c1.6,0,3.5-0.4,3.9-0.7c0.6-1.1,1.7-4.7,2.1-6.6l4.1,0.7c-0.2,1.9-0.6,5.9-0.6,8.1c-2.6,1.2-6.8,1.8-10.1,1.8
			c-11.5,0-16.3-7.3-16.3-16.5c0-9.5,7-16.2,16.3-16.2c3.4,0,6.9,0.4,10.2,1.5C2154.7,183.4,2154.5,185.6,2154.5,187.4z"/>
		<path d="M2181.3,188.1c-0.1-1.3-0.2-2.4-0.4-3.4c-0.4-0.4-1.5-0.8-3.2-1.3v-2.2c1.7,0.1,5,0.2,6.8,0.2c2.1,0,5-0.1,7-0.2v2.3
			c-1.5,0.4-2.6,0.9-2.9,1.2c-0.3,1.5-0.4,2.7-0.5,5v15.9c0.1,1.2,0.2,2.3,0.5,3.4c0.5,0.5,1.8,1,3.5,1.3v2.3
			c-2-0.1-5.2-0.2-7.2-0.2c-3.1,0-4.9,0.1-6.8,0.2v-2.3c1.5-0.2,2.4-0.6,2.7-0.9c0.4-1.3,0.5-2.6,0.6-5.1v-6.5h-12v7.9
			c0.1,1.2,0.2,2.2,0.6,3.2c0.5,0.5,1.8,1,3.5,1.3v2.3c-2.4-0.1-4.6-0.2-6.9-0.2c-1.8,0-4.5,0.1-7.1,0.2v-2.3
			c1.5-0.3,2.4-0.6,2.7-0.9c0.4-1.3,0.4-2.6,0.5-5.1v-16.2c-0.1-1.2-0.2-2.2-0.5-3.2c-0.4-0.4-1.8-1-3.4-1.3v-2.3
			c1.8,0.1,5.2,0.2,7,0.2c2.1,0,4.9-0.1,6.9-0.2v2.3c-1.5,0.4-2.3,0.7-2.7,1c-0.4,1.3-0.5,2.6-0.6,5.1v4.9h12V188.1z"/>
		<path d="M2206.4,205.7c0.1,1.2,0.2,2.2,0.5,3.2c0.5,0.5,1.8,1,3.5,1.3v2.3c-2.4-0.1-4.6-0.2-6.8-0.2c-2,0-4.4,0-7.4,0.2v-2.3
			c1.3-0.3,2.2-0.5,2.8-0.9c0.4-1.3,0.4-2.6,0.5-5.1v-16.2c-0.1-1.3-0.2-2.3-0.4-3.4c-0.6-0.4-1.5-0.7-3.3-1.2v-2.3
			c2.5,0.2,4.9,0.2,7.3,0.2h7.1c5.7,0,10.5,1.8,10.5,8.3c0,4.2-3.1,6.9-7,8.4l6.8,10.1l2.9,2.4v1.8h-7.9c-0.9-1.9-1.2-2.4-2-3.5
			l-6.5-10.1h-0.8V205.7z M2209.2,195.5c2.7,0,4.6-1.5,4.6-5.6c0-3.5-1.6-5.4-4.5-5.4h-2.6c-0.2,1.2-0.3,2.3-0.3,3.4v7.6H2209.2z"/>
		<path d="M2237,205.7c0.1,1.2,0.2,2.2,0.6,3.2c0.5,0.5,2,0.9,3.7,1.3v2.3c-2.5-0.1-4.8-0.2-7.1-0.2c-1.8,0-4.5,0.1-7.1,0.2v-2.3
			c1.5-0.3,2.4-0.6,2.7-0.9c0.4-1.3,0.4-2.6,0.5-5.1v-16.2c-0.1-1.2-0.2-2.2-0.4-3.2c-0.5-0.5-1.6-1-3.3-1.3v-2.3
			c1.9,0.1,4.9,0.2,6.8,0.2c2.1,0,5.1-0.1,7.1-0.2v2.3c-1.5,0.4-2.5,0.7-2.9,1c-0.4,1.3-0.5,2.6-0.6,5.1V205.7z"/>
		<path d="M2255.7,184.6c-0.1,1-0.2,2.5-0.2,3.2v7.2h4.8c0.7-0.1,1.6-0.2,1.8-0.4c0.6-0.9,0.9-1.8,1.2-3.2h2.8
			c-0.1,1.4-0.2,3.1-0.2,4.7c0,1.9,0.1,3.8,0.2,5.6h-3c-0.2-1.4-0.5-2.6-0.9-3.2c-0.3-0.1-2-0.2-2.7-0.2h-4.1v6.5
			c0,1.3,0.1,2.9,0.4,4.3c1.1,0.5,3,0.9,4.6,1.2v2.3c-2.4-0.1-4.8-0.2-7.7-0.2c-2.4,0-4.4,0-7.3,0.1v-2.3c1.6-0.4,2.5-0.7,2.7-1
			c0.4-1.3,0.4-2.6,0.5-5.1v-16.3c-0.1-1.2-0.2-2.2-0.4-3.4c-0.6-0.4-1.6-0.8-3.2-1.2v-2.2c2.2,0.1,4.3,0.2,7.1,0.2h16.3
			c-0.1,1.3-0.2,3.8-0.2,5.9v1.9h-2l-2.2-0.5c0-1.2-0.2-2.9-0.5-4H2255.7z"/>
		<path d="M2298.8,181.3c-0.2,1.9-0.4,5.8-0.4,8.4v1.3h-1.8l-2.6-0.3c0-1.2-0.5-4.7-1-6.2h-4.7c-0.2,1.3-0.3,2.6-0.3,4v16.5
			c0.1,1.5,0.3,2.7,0.6,3.8c0.5,0.4,2.4,1,4.1,1.3v2.3c-3.2-0.2-5.9-0.2-7.4-0.2c-2.1,0-6.8,0.1-8.8,0.2v-2.3
			c1.6-0.3,3.5-0.9,4.3-1.3c0.4-1.3,0.5-2.3,0.6-4.6v-16.1c-0.1-1.2-0.2-2.4-0.4-3.5h-4.6c-0.5,1.6-1,5-1,6.2l-2.6,0.3h-1.8v-1.3
			c0-2.5-0.1-6.2-0.2-8.4H2298.8z"/>
		<path d="M2319.9,209.1c0.7-1.2,1.6-4.2,2.4-7.3l4.5,0.5c-0.5,2.8-1.2,7.7-1.2,10.1h-15.4c-2.7,0-5.9,0.1-7.9,0.1v-2.3
			c1.1-0.2,2.2-0.5,2.8-0.9c0.3-1.3,0.4-2.7,0.5-5.1v-16.2c-0.1-1.3-0.2-2.3-0.4-3.4c-0.4-0.4-1.5-0.7-3.2-1.3v-2.2
			c3.1,0.2,5.6,0.2,7.2,0.2c2.9,0,5.7-0.1,8.1-0.2v2.3c-1.7,0.3-3.9,1-4.5,1.4c-0.3,1-0.4,2.3-0.5,3.7v16.3c0.1,1.4,0.1,2.8,0.3,4.3
			H2319.9z"/>
		<path d="M2340.5,205.7c0.1,1.2,0.2,2.2,0.6,3.2c0.5,0.5,2,0.9,3.7,1.3v2.3c-2.5-0.1-4.8-0.2-7.1-0.2c-1.8,0-4.5,0.1-7.1,0.2v-2.3
			c1.5-0.3,2.4-0.6,2.7-0.9c0.4-1.3,0.4-2.6,0.5-5.1v-16.2c-0.1-1.2-0.2-2.2-0.4-3.2c-0.5-0.5-1.6-1-3.3-1.3v-2.3
			c1.9,0.1,4.9,0.2,6.8,0.2c2.1,0,5.1-0.1,7.1-0.2v2.3c-1.5,0.4-2.5,0.7-2.9,1c-0.4,1.3-0.5,2.6-0.6,5.1V205.7z"/>
		<path d="M2374.6,187.4v2.4h-1.5l-2.7-0.3c-0.1-1.3-0.4-3.8-0.7-4.9c-1.3-0.5-3.5-1-5.5-1c-5.1,0-8.7,4.8-8.7,12.2
			c0,7,2.4,14,9.8,14c1.6,0,3.5-0.4,3.9-0.7c0.6-1.1,1.7-4.7,2.1-6.6l4.1,0.7c-0.2,1.9-0.6,5.9-0.6,8.1c-2.6,1.2-6.8,1.8-10.1,1.8
			c-11.5,0-16.3-7.3-16.3-16.5c0-9.5,7-16.2,16.3-16.2c3.4,0,6.9,0.4,10.2,1.5C2374.8,183.4,2374.6,185.6,2374.6,187.4z"/>
		<path d="M2401.4,188.1c-0.1-1.3-0.2-2.4-0.4-3.4c-0.4-0.4-1.5-0.8-3.2-1.3v-2.2c1.7,0.1,5,0.2,6.8,0.2c2.1,0,5-0.1,7-0.2v2.3
			c-1.5,0.4-2.6,0.9-2.9,1.2c-0.3,1.5-0.4,2.7-0.5,5v15.9c0.1,1.2,0.2,2.3,0.5,3.4c0.5,0.5,1.8,1,3.5,1.3v2.3
			c-2-0.1-5.2-0.2-7.2-0.2c-3.1,0-4.9,0.1-6.8,0.2v-2.3c1.5-0.2,2.4-0.6,2.7-0.9c0.4-1.3,0.5-2.6,0.6-5.1v-6.5h-12v7.9
			c0.1,1.2,0.2,2.2,0.6,3.2c0.5,0.5,1.8,1,3.5,1.3v2.3c-2.4-0.1-4.6-0.2-6.9-0.2c-1.8,0-4.5,0.1-7.1,0.2v-2.3
			c1.5-0.3,2.4-0.6,2.7-0.9c0.4-1.3,0.4-2.6,0.5-5.1v-16.2c-0.1-1.2-0.2-2.2-0.5-3.2c-0.4-0.4-1.8-1-3.4-1.3v-2.3
			c1.8,0.1,5.2,0.2,7,0.2c2.1,0,4.9-0.1,6.9-0.2v2.3c-1.5,0.4-2.3,0.7-2.7,1c-0.4,1.3-0.5,2.6-0.6,5.1v4.9h12V188.1z"/>
		<path d="M2450.7,208.2c-1.6,1.3-4.9,3.6-5.9,4.1c-1.6,0.6-3.1,0.8-5.1,0.8c-7.1,0-12.7-5.4-12.7-14.6c0-9,5.4-15.4,13.5-15.4
			c7.1,0,10.2,5.1,10.2,11.8l-1.8,1.3l-16.4,0.5c0,7,2.8,12,9.5,12c3,0,4.6-0.7,7.6-2.5L2450.7,208.2z M2445.2,193.5
			c-0.1-4.1-1.4-7.7-5.4-7.7c-4,0-6.8,3.1-7.2,8.7L2445.2,193.5z"/>
		<path d="M2458.5,192.9c0-1.8-0.2-3.4-0.5-4.6c-0.9-0.6-2.2-1-3.7-1.2l-0.2-1.8c3.2-0.5,5-1.2,7.6-2.3l1.2,0.7
			c-0.2,1-0.1,2.3,0,3.4l0.3,0.1c1.5-1.5,2.6-2.6,4-3.7c0.9-0.4,1.8-0.5,2.8-0.5c2.9,0,4.6,1.6,5.4,2.9l-3.5,4.6h-1
			c-0.7-2-1.8-2.8-3.4-2.8c-1.5,0-2.6,0.8-3.9,1.9v16c0.1,1,0.2,2,0.6,3.2c1.6,0.8,3.2,1.3,5.4,1.6v2.1c-2.4-0.1-4.7-0.2-7-0.2
			c-2.4,0-4.8,0.1-7.3,0.2v-2c0.9-0.2,2-0.6,2.6-1.1c0.4-1.6,0.6-2.7,0.7-5V192.9z"/>
		<path d="M2512.7,186.5c-0.5-0.2-3-0.4-3.7-0.4v-2.4h10.6v2.1c-0.7,0.2-2.1,0.9-2.6,1.4l-8.2,25.9h-3.9l-6.5-18.5l-6.5,18.5h-3.9
			l-8.5-26.3c-0.4-0.3-1.8-0.6-2.4-0.7v-2.4h11.8v2.4c-1.1,0-2.7,0.2-3.4,0.5l-0.2,0.7l5.7,18.9h0.5l5.2-16.1l-1.2-3.2
			c-0.5-0.3-1.8-0.6-2.4-0.7v-2.4h11.5v2.4c-1.2,0-2.4,0.2-3.2,0.5l-0.2,0.7l6.3,18.9h0.5l4.9-19L2512.7,186.5z"/>
		<path d="M2536.6,208.9c-1.2,1.2-2.6,2.3-3.7,3.1c-0.9,0.5-2.1,1.1-4.5,1.1c-3.1,0-7.2-1.7-7.2-7.6c0-2.7,0.9-4.4,2-5.6
			c2.5-1.3,7.1-2.8,13.3-4.3v-3c0-4.1-0.9-6.2-5.4-6.2c-2.1,0-3.4,0.4-3.4,0.4c-0.7,1.6-0.7,3.5-0.5,5.3l-2.6,0.7h-1.1
			c-0.2-2.2-0.5-4.4-0.8-6.4c3-1.8,8.3-3.3,11-3.3c5.6,0,7.6,2.9,7.6,8.2v12.6c0,1.7,0.5,4,0.9,5.1c1.4,0.8,2.5,1.2,4.2,1.6v2
			c-1.5-0.1-3-0.1-4.5-0.1c-1.4,0-2.8,0-4.3,0.1c-0.1-1.2-0.3-2.4-0.7-3.5L2536.6,208.9z M2525.8,171.6c1.8,0,3.2,1.5,3.2,3.2
			c0,1.7-1.5,3.2-3.2,3.2c-1.7,0-3.2-1.5-3.2-3.2C2522.6,173.1,2524.1,171.6,2525.8,171.6z M2536.5,197.9c-3.9,0.9-6.8,1.8-8.3,3.1
			c-1.2,1-1.5,2.5-1.5,3.8c0,2.8,1.3,4.4,3.9,4.4c2.5,0,4.4-1.4,5.9-2.8V197.9z M2538,171.6c1.8,0,3.2,1.5,3.2,3.2
			c0,1.7-1.5,3.2-3.2,3.2c-1.7,0-3.2-1.5-3.2-3.2C2534.8,173.1,2536.2,171.6,2538,171.6z"/>
		<path d="M2557.5,183.9c0,1-0.2,3.1-0.2,3.2l0.2,0.2c1.3-1.3,2.7-2.5,4.2-3.4c1.3-0.5,2.8-0.7,4.3-0.7c6.1,0,9.3,3.2,9.3,9v13.8
			c0.1,1,0.2,2,0.6,3.2c1.5,0.7,2.6,1.1,4.2,1.4v2.1c-1.9-0.1-3.9-0.2-6-0.2c-2.3,0-4.7,0.1-7,0.2v-2c0.9-0.2,2-0.6,2.6-1.1
			c0.4-1.6,0.6-2.7,0.7-5v-11.4c0-4.3-1.9-6.3-5.7-6.3c-4,0-7.1,2.7-7.1,2.7v16.4c0.1,1,0.2,2,0.6,3.2c1.5,0.7,2.6,1.1,4.2,1.4v2.1
			c-2.1-0.1-4.2-0.2-6.3-0.2c-2.3,0-4.5,0.1-6.7,0.2v-2c0.9-0.2,2-0.6,2.6-1.1c0.4-1.6,0.6-2.7,0.7-5v-24.7c0-1.7-0.2-3.2-0.5-4.6
			c-1-0.6-2.4-1-4.2-1.2l-0.3-1.8c3.5-0.5,6.6-1.2,9.2-2.3l1.2,0.7c-0.2,1.5-0.4,2.7-0.5,4.6V183.9z"/>
		<path d="M2586.1,192.9c-0.1-1.8-0.2-3.3-0.5-4.6c-0.9-0.6-2.2-1-3.7-1.2l-0.2-1.8c3.2-0.5,5-1.1,7.6-2.3l1.2,0.6
			c-0.1,1,0.1,2.4,0.2,3.2l0.3,0.1c1.5-1.2,2.9-2.3,4.5-3.2c1.3-0.5,3-0.7,4.4-0.7c6.2,0,9,3.5,9,9.1v13.7c0.1,1,0.2,2,0.6,3.2
			c1.5,0.7,2.6,1.1,4.2,1.4v2.1c-2.2-0.1-4.3-0.2-6.4-0.2c-2.2,0-4.3,0.1-6.6,0.2v-2c0.9-0.3,2-0.6,2.6-1.1c0.4-1.6,0.6-2.7,0.7-5
			v-11.3c0-4.4-1.7-6.3-5.8-6.3c-2.8,0-5.5,1.5-7.1,2.8v16.3c0.1,1,0.2,2,0.6,3.2c1.5,0.7,2.6,1.1,4.2,1.4v2.1
			c-2.3-0.1-4.4-0.2-6.5-0.2s-4.3,0.1-6.5,0.2v-2c0.9-0.2,2-0.6,2.6-1.1c0.4-1.6,0.6-2.7,0.7-5V192.9z"/>
		<path d="M2633.5,209.3c-1.5,1.1-3.8,2.6-5.2,3.3c-1,0.4-2.1,0.5-3.3,0.5c-4.2,0-6.8-2.2-6.8-6.5V187h-3.5v-2.6
			c2.6-1.3,4.5-2.9,6-5.1l2.9-0.4c-0.3,1.5-0.4,3.1-0.5,4.9c2.3-0.1,5.1-0.2,7.4-0.5c-0.2,1-0.4,2.9-0.4,3.8h-7v18.1
			c0,3.4,2,4.3,4.5,4.3c1.5,0,3.2-0.8,4.9-1.9L2633.5,209.3z"/>
		<path d="M2640.7,205.8c2.4,0,3.8,1.5,3.8,3.5c0,1.9-1.2,3.5-3.7,3.5c-2.6,0-3.8-1.5-3.8-3.5S2638.5,205.8,2640.7,205.8z"/>
	</g>
	<g>
		<rect x="-341.6" y="288.6" fill="none" width="1515.5" height="69.1"/>
		<path d="M-264.2,321.5h-1.4c-5.7,0-8.4-2.3-8.4-8.5v-21.3c0-3.1,0.6-3.1,4.6-3.1h5.6c5.8,0,11.7,2.1,11.7,8.4c0,4.1-2.2,6.6-5.7,8
			c3.4,1,5.8,3,5.8,7.1C-252,318.4-258.1,321.5-264.2,321.5z M-264.4,292.8h-4.9v10.7h3.7c5.8,0,8.7-2.1,8.7-5.7
			C-257,294.1-260.5,292.8-264.4,292.8z M-265.1,307.3h-4.3v5.6c0,2.8,1.1,4.3,4,4.3h1c3.4,0,7.5-1.3,7.5-5.3
			C-256.9,308.1-260.9,307.3-265.1,307.3z"/>
		<path d="M-234.5,321.5v-22.3c0-2.4,0.6-2.4,4.3-2.4v11.1h13V297h4.3v22.3c0,2.4-0.5,2.4-4.3,2.4v-10.1h-13v9.9H-234.5z"/>
		<path d="M-198.8,307.6l7-0.8v-0.1c-0.3-4.6-3.1-6.2-7.1-6.2c-2.1,0-4.2,0.7-6.1,1.4v-1.5c0-2.5,4.5-3.9,7.9-3.9
			c3.9,0,9.2,1.3,9.7,9.7l0.9,13.2c0.2,2.3-0.8,2.3-4.5,2.3l-0.3-4.9c-1.8,3.3-4.6,5.2-8.7,5.2c-5.3,0-7.4-3.9-7.4-7.4
			C-207.4,310.8-204.7,308.3-198.8,307.6z M-198.3,318.5c4,0,6.3-4.4,6.5-8.5l-6.5,0.8c-2.4,0.3-3.9,1.6-3.9,3.6
			C-202.3,316.7-201,318.5-198.3,318.5z"/>
		<path d="M-164.4,321.7v-11.4c-2.2,3.3-5.3,5-8.8,5c-4.8,0-7.9-3.3-7.9-8.5v-7.6c0-2.4,0.6-2.4,4.3-2.4v7.8c0,4.3,1.7,6.8,5.4,6.8
			c3.6,0,7-2.9,7-8.2V297h4.3v22.3C-160.1,321.7-160.6,321.7-164.4,321.7z"/>
		<path d="M-146.1,307.6l7-0.8v-0.1c-0.3-4.6-3.1-6.2-7.1-6.2c-2.1,0-4.2,0.7-6.1,1.4v-1.5c0-2.5,4.5-3.9,7.9-3.9
			c3.9,0,9.2,1.3,9.7,9.7l0.9,13.2c0.2,2.3-0.8,2.3-4.5,2.3l-0.3-4.9c-1.8,3.3-4.6,5.2-8.7,5.2c-5.3,0-7.4-3.9-7.4-7.4
			C-154.6,310.8-152,308.3-146.1,307.6z M-145.6,318.5c4,0,6.3-4.4,6.5-8.5l-6.5,0.8c-2.4,0.3-3.9,1.6-3.9,3.6
			C-149.5,316.7-148.2,318.5-145.6,318.5z"/>
		<path d="M-110.4,321.7v-17c0-2.5-1-3.8-3.5-3.8h-5.4l-1.7,15c-0.5,4.1-2.5,6.1-5.7,6.1c-1.6,0-3.4-0.6-3.4-2.5v-1.5
			c0.6,0.2,1.2,0.3,1.9,0.3c1.8,0,2.7-1.3,2.9-3.1l2.2-14.1h-2.3c0-2.8,0-4,1.6-4h10.4c5.4,0,7.1,1.8,7.1,7v15.3
			C-106.1,321.7-106.6,321.7-110.4,321.7z"/>
		<path d="M-80.2,318.3c0,2.7-4.1,3.7-7.9,3.7c-7,0-12-4.5-12-13.6c0-6.9,4.7-12,11.5-12c6.5,0,10.4,4.5,10.4,11.1
			c0,2.8-2.1,3.5-4.2,3.5h-12.9c0.8,4.5,3.7,6.8,9.3,6.8c2,0,4-0.5,5.9-1.2V318.3z M-95.6,307.6h11c1.2,0,1.6-1,1.6-1.7
			c0-3.8-2.5-5.7-5.8-5.7C-93.4,300.2-95.4,303.5-95.6,307.6z"/>
		<path d="M-43.7,321.7V304l-14.4,17.9c-1.2-0.1-2.4-0.5-3.5-1.2v-21.6c0-2.4,0.6-2.4,4.3-2.4v17.6l14.4-17.7
			c1.3,0.1,2.3,0.5,3.5,1.2v21.4C-39.4,321.7-39.9,321.7-43.7,321.7z"/>
		<path d="M-32.4,321.5v-22.3c0-2.4,0.6-2.4,4.3-2.4v11.1h5.8c0.3-7.3,4.7-11.4,11.3-11.4c6.7,0,11.3,4.3,11.3,12.1
			C0.4,316.2-4,322-11,322c-6.1,0-10.1-4.3-11.1-10.5h-6v9.9H-32.4z M-11,300.4c-4.3,0-6.5,3.1-6.5,8.2c0,4.9,2.2,9.4,6.5,9.4
			s6.6-4.5,6.6-9.4C-4.4,303.5-6.6,300.4-11,300.4z"/>
		<path d="M22.5,321.7v-17c0-2.5-1-3.8-3.5-3.8h-5.4l-1.7,15c-0.5,4.1-2.5,6.1-5.7,6.1c-1.6,0-3.4-0.6-3.4-2.5v-1.5
			c0.6,0.2,1.2,0.3,1.9,0.3c1.8,0,2.7-1.3,2.9-3.1l2.2-14.1H7.6c0-2.8,0-4,1.6-4h10.4c5.4,0,7.1,1.8,7.1,7v15.3
			C26.8,321.7,26.3,321.7,22.5,321.7z"/>
		<path d="M48.6,321.7v-8.5h-4.7l-4,5.6c-1.8,2.5-3.4,3.2-5.4,3.2c-1.4,0-3-0.6-3-2v-1.2H32c1.5,0,2.9-0.9,4-2.2l3.7-4.4
			c-4-1.1-6.1-3.6-6.1-7.4c0-4.9,4.6-7.8,10.2-7.8h2c5.4,0,7.1,1.9,7.1,7v15.3C52.9,321.7,52.4,321.7,48.6,321.7z M43.7,309.8h4.9
			v-5.2c0-2.5-0.9-3.8-3.5-3.8H44c-3.2,0-5.7,1.7-5.7,4.6C38.3,308.3,40.8,309.8,43.7,309.8z"/>
		<path d="M61.5,329.2c-0.5,0-1.2-0.3-2.3-0.7c1.1-4.3,1.5-8.3,1.7-12.8h5.3c-0.3,4.8-1.7,9.1-3.4,12.3
			C62.4,328.8,62.1,329.2,61.5,329.2z"/>
		<path d="M91.6,321.5h-1.3c-4.7,0-7.3-1.8-7.3-6.6v-15.5c0-2.4,0.6-2.4,4.3-2.4h4.8c5.3,0,9,2,9,6.4c0,2.8-1.6,4.7-4.3,5.8
			c2.9,0.8,4.4,2.3,4.4,5.3C101.1,319,96.7,321.5,91.6,321.5z M91.5,300.6h-4.2v7.3h3c3.6,0,6.2-1.1,6.2-3.9
			C96.4,301.3,94.1,300.6,91.5,300.6z M90.7,311.1h-3.4v3.3c0,2.4,1.1,3.6,3.5,3.6h0.5c3.2,0,5.3-1.3,5.3-3.6
			C96.5,311.7,94,311.1,90.7,311.1z"/>
		<path d="M129.5,321.7c0.6-3.9,1.2-7.5,2-11.1c-2.4,3-5.1,4.5-8.3,4.5c-3.4,0-5.5-2.4-5.5-5.6c0-3.1,1.2-7.5,2.4-10.5
			c0.9-2.1,2.2-2.2,5.1-2.2c-2.2,5.9-3.1,9-3.1,11.6c0,2.3,1.3,3,2.6,3c3.6,0,6.8-3.8,8.8-9.2c0.5-1.7,1-3.5,1.5-5.2h4
			c-2.2,7.3-3.6,13.2-5.1,22.4C133.6,321.7,132.5,321.7,129.5,321.7z"/>
		<path d="M150.8,322c-2.9,0-5.1-1.7-6.1-4.8c-0.9,4.1-1.7,8.4-2.4,12.7h-4c2.1-12.4,4.2-21.6,7.1-30.8c0.7-2.2,1.6-2.3,4.8-2.3
			c-0.9,2.8-1.8,5.8-2.7,8.9c2.9-4.9,6.8-9.2,11.2-9.2c3.4,0,5.6,2.8,5.6,7.4C164.2,312.6,158.3,322,150.8,322z M157.1,300.2
			c-4.1,0-9.3,8.2-10.9,13.7c0.2,2.4,1.6,4.3,4.4,4.3c5.4,0,9.4-7.4,9.4-13.7C160,302.1,159.4,300.2,157.1,300.2z"/>
		<path d="M167.3,311.5c0-7.7,4.2-15.1,12.2-15.1c4.4,0,7.9,2.4,7.9,7c0,6.4-6.4,8.3-15.9,8.6c0.4,3.2,2,6,6.5,6
			c2.2,0,3.7-0.5,5.2-1.2l0.3,0.2l-0.2,1.1c-0.6,2.7-3.5,3.8-6.7,3.8C170.4,322,167.3,317.8,167.3,311.5z M171.6,308.8
			c5.9-0.3,11.6-0.9,11.6-5.3c0-2.1-1.5-3.5-4.2-3.5C174.9,300,172.2,304.2,171.6,308.8z"/>
		<path d="M195.9,322c-3.6,0-6.6-1.3-5.9-4.1l0.3-1.1c1.3,0.8,3.4,1.3,5.5,1.3c2.7,0,5.7-1.1,5.7-3.7s-2.5-3.1-6.6-3.1l-0.3-0.2
			c0.2-1,0.6-2,1.1-2.9c4.8-0.4,8.2-2.2,8.2-4.9c0-2.2-1.6-3.3-4.1-3.3c-2.9,0-4.4,1.8-4.4,3.5v0.7h-1.2c-1.6,0-2.5-0.9-2.5-2.2
			c0-3.4,4.1-5.6,8.4-5.6c4.7,0,8.1,2.3,8.1,6.4c0,3.2-2.2,5.4-6,6.8c2.6,1,3.6,2.8,3.6,4.9C205.6,318.9,201.5,322,195.9,322z"/>
		<path d="M217.2,322c-4.9,0-7.4-2.6-7.4-6.6c0-3,1.2-7.4,2.3-11.2c1.7-5.4,4.8-7.8,10.1-7.8c4.5,0,7.5,2.2,7.5,6.3
			c0,3.3-2,5.4-5.2,6.9c1.6,0.8,2.8,2.2,2.8,4.5C227.4,318.9,222.6,322,217.2,322z M219.5,311.3c-1.7,0.5-3.6,0.8-5.5,1.1
			c-0.2,0.8-0.2,1.6-0.2,2.2c0,2.1,1.3,3.5,3.8,3.5c2.8,0,5.6-1.5,5.6-4C223.2,312.2,221.4,311.3,219.5,311.3z M214.7,309
			c6.5-1,10.8-2.4,10.8-5.9c0-2.1-1.8-3.1-3.7-3.1c-2.8,0-4.6,1.3-5.9,4.8C215.5,306.1,215.1,307.6,214.7,309z"/>
		<path d="M238,322c-4.1,0-5.9-2.3-5.9-5.4c0-3.3,1.5-11.1,4.2-18c0.7-1.9,2.4-1.9,4.9-1.9c-1.9,5.3-3.2,9.6-4,13
			c1.9-2,4.3-3.6,7.3-3.6c2.9,0,4.8,1.7,4.8,5C249.4,317.5,243.5,322,238,322z M242.7,309.7c-2.8,0-6.3,3.1-6.3,6.1
			c0,0.9,0.7,2.2,2.7,2.2c3.5,0,6.2-3,6.2-6C245.2,310.4,244.2,309.7,242.7,309.7z M251.6,319c0-4,2.5-14.2,4.3-19.9
			c0.7-2.2,1.5-2.3,4.7-2.3c-2.3,7.4-4.8,18-4.8,20.3c0,1.4,0.8,1.9,1.9,1.9h0.4l-0.2,0.9c-0.3,1.6-1.9,2.1-3.5,2.1
			C252.6,322,251.6,320.9,251.6,319z"/>
		<path d="M275.7,321.7c0.6-3.9,1.2-7.5,2-11.1c-2.4,3-5.1,4.5-8.3,4.5c-3.4,0-5.5-2.4-5.5-5.6c0-3.1,1.2-7.5,2.4-10.5
			c0.9-2.1,2.2-2.2,5.1-2.2c-2.2,5.9-3.1,9-3.1,11.6c0,2.3,1.3,3,2.6,3c3.6,0,6.8-3.8,8.8-9.2c0.5-1.7,1-3.5,1.5-5.2h4
			c-2.2,7.3-3.6,13.2-5.1,22.4C279.8,321.7,278.7,321.7,275.7,321.7z"/>
		<path d="M300.4,296.4c2.5,0,4.4,1.3,5.5,3.7l0.8-3.2h4c-2.1,8.4-3.1,14.3-4.1,22.4c-0.3,2.3-1.6,2.3-4.5,2.3c0.3-3,0.7-5.6,1.1-8
			c-2.8,4.5-6.4,8.3-10.6,8.3c-3.4,0-5.6-2.8-5.6-7.4C287,305.9,292.9,296.4,300.4,296.4z M294.1,318.3c4.1,0,9.1-8.2,10.8-13.7
			c-0.2-2.4-1.5-4.3-4.3-4.3c-5.4,0-9.4,7.5-9.4,13.8C291.2,316.4,291.8,318.3,294.1,318.3z"/>
		<path d="M327.1,321.7c0.5-2.8,0.9-5.4,1.4-8c-4.2,6.4-7.9,8.3-11.2,8.3c-2.8,0-4.4-1.5-4.4-5.5c0-4.9,2.7-14.6,4.2-17.6
			c1-2.1,1.9-2.2,5.2-2.2c-2.7,6.3-5.2,15-5.2,18.8c0,1.5,0.5,2.7,2.1,2.7c4.2,0,9-7.3,11.8-15.5c0.5-1.9,1.1-3.8,1.6-5.7h4
			c-2.2,7.3-3.6,13.2-5.1,22.4C331.2,321.7,330.1,321.7,327.1,321.7z M328.3,292.4c-3.5,0-5.5-2.5-5.5-5.4c0-1.2,0.6-2.2,2.3-2.2
			c0.1,2.5,1.3,3.6,3.2,3.6c3.3,0,5.3-2.8,5.3-6.1c1.8-0.3,2.5,0.3,2.5,2.2C336.1,288.9,332.8,292.4,328.3,292.4z"/>
		<path d="M337.3,321.5c1.6-9.2,2.9-15.8,5.2-22.8c0.6-1.8,1.6-1.9,4.6-1.9c-1.1,3.3-2.1,7.1-3.1,11.1h11.4
			c0.9-3.9,1.9-7.4,3.1-10.9h4.1c-2.1,6.8-3.8,13.7-5.3,22.9c-0.3,1.8-1.4,1.8-4.3,1.8c0.5-3.5,1.1-6.9,1.7-10.1h-11.5
			c-0.7,3.2-1.3,6.5-1.9,9.9H337.3z"/>
		<path d="M372.8,322c-5.3,0-8.4-4.3-8.4-9.7c0-8.1,3.3-15.8,12.5-15.8c5.6,0,9.4,3.2,9.4,9C386.3,312.5,381.8,322,372.8,322z
			 M376.6,300.2c-6.1,0-8,6.5-8,11.9c0,3,1.3,6.1,4.6,6.1c5.9,0,8.9-7.6,8.9-12.5C382.1,302.6,380.3,300.2,376.6,300.2z"/>
		<path d="M426.1,318.8l-4.5-7.2h-1h-1.4v9.9H415v-9.9h-1.3h-1l-4.5,7.2c-1.6,2.8-2.9,3.2-4.9,3.2c-1.3,0-3.2-0.6-3.2-2v-1.2h0.5
			c1.5,0,2.6-0.8,3.6-2.2l4.3-6.2c-5-3-2.8-10.7-8-10.7h-0.5v-1c0-1.5,1.5-2.2,3-2.2c7.1,0,3.2,11.4,9.9,11.4h1.9v-8.7
			c0-2.4,0.6-2.4,4.3-2.4v11.1h2c6.7,0,2.9-11.4,10.1-11.4c1.5,0,2.9,0.7,2.9,2.2v1h-0.5c-5.2,0-3,7.7-8,10.7l4.4,6.2
			c1,1.5,2,2.2,3.6,2.2h0.5v1.2c0,1.4-2,2-3.3,2C428.7,322,427.7,321.5,426.1,318.8z"/>
		<path d="M446.5,307.6l7-0.8v-0.1c-0.3-4.6-3.1-6.2-7.1-6.2c-2.1,0-4.2,0.7-6.1,1.4v-1.5c0-2.5,4.5-3.9,7.9-3.9
			c3.9,0,9.2,1.3,9.7,9.7l0.9,13.2c0.2,2.3-0.8,2.3-4.5,2.3l-0.3-4.9c-1.8,3.3-4.6,5.2-8.7,5.2c-5.3,0-7.4-3.9-7.4-7.4
			C437.9,310.8,440.6,308.3,446.5,307.6z M447,318.5c4,0,6.3-4.4,6.5-8.5l-6.5,0.8c-2.4,0.3-3.9,1.6-3.9,3.6
			C443,316.7,444.3,318.5,447,318.5z"/>
		<path d="M465.4,329.9v-30.7c0-2.4,0.6-2.4,4.3-2.4v5.6c1.8-3.7,5-5.9,9.2-5.9c6.2,0,9.7,4.9,9.7,11.7c0,7.4-4.7,13.8-11.4,13.8
			c-3.1,0-5.8-1.3-7.5-3.9v11.8H465.4z M477.7,300.4c-4.6,0-7.4,4.4-7.4,10.6c0,3.3,2.4,7,6.2,7c5,0,7.6-4.9,7.6-9.8
			C484,304.1,482.2,300.4,477.7,300.4z"/>
		<path d="M507.4,318.7l-5.2-7.2h-1h-2.3v9.9h-4.3v-22.3c0-2.4,0.6-2.4,4.3-2.4v11.1h3.1c6.7,0,3.7-11.4,11.2-11.4
			c1.5,0,3,0.7,3,2.2v1h-0.5c-5.6,0-3.9,7.5-9,10.6l5,6.3c1.1,1.4,2.3,2.3,3.9,2.3h0.5v1.2c0,1.4-2.2,2-3.7,2
			C510.1,322,509.2,321.4,507.4,318.7z"/>
		<path d="M531,322c-7.1,0-11.8-5.5-11.8-13.3c0-7.8,4.4-12.3,11.8-12.3c7.3,0,11.8,4.5,11.8,12.3C542.8,316.5,538.1,322,531,322z
			 M531,300.4c-5,0-7.2,3.5-7.2,8.4c0,4.8,2.4,9.2,7.2,9.2c4.8,0,7.2-4.4,7.2-9.2C538.2,303.8,536,300.4,531,300.4z"/>
		<path d="M566.9,318.3c0,2.7-4.1,3.7-7.9,3.7c-7,0-12-4.5-12-13.6c0-6.9,4.7-12,11.5-12c6.5,0,10.4,4.5,10.4,11.1
			c0,2.8-2.1,3.5-4.2,3.5h-12.9c0.8,4.5,3.7,6.8,9.3,6.8c2,0,4-0.5,5.9-1.2V318.3z M551.5,307.6h11c1.2,0,1.6-1,1.6-1.7
			c0-3.8-2.5-5.7-5.8-5.7C553.7,300.2,551.7,303.5,551.5,307.6z"/>
		<path d="M594.2,321.5h-1.3c-4.7,0-7.3-1.8-7.3-6.6v-15.5c0-2.4,0.6-2.4,4.3-2.4h4.8c5.3,0,9,2,9,6.4c0,2.8-1.6,4.7-4.3,5.8
			c2.9,0.8,4.4,2.3,4.4,5.3C603.7,319,599.2,321.5,594.2,321.5z M594,300.6h-4.2v7.3h3c3.6,0,6.2-1.1,6.2-3.9
			C599,301.3,596.6,300.6,594,300.6z M593.2,311.1h-3.4v3.3c0,2.4,1.1,3.6,3.5,3.6h0.5c3.2,0,5.3-1.3,5.3-3.6
			C599.1,311.7,596.6,311.1,593.2,311.1z"/>
		<path d="M609.7,329.9v-30.7c0-2.4,0.6-2.4,4.3-2.4v5.6c1.8-3.7,5-5.9,9.2-5.9c6.2,0,9.7,4.9,9.7,11.7c0,7.4-4.7,13.8-11.4,13.8
			c-3.1,0-5.8-1.3-7.5-3.9v11.8H609.7z M621.9,300.4c-4.6,0-7.4,4.4-7.4,10.6c0,3.3,2.4,7,6.2,7c5,0,7.6-4.9,7.6-9.8
			C628.3,304.1,626.5,300.4,621.9,300.4z"/>
		<path d="M657,318.3c0,2.7-4.1,3.7-7.9,3.7c-7,0-12-4.5-12-13.6c0-6.9,4.7-12,11.5-12c6.5,0,10.4,4.5,10.4,11.1
			c0,2.8-2.1,3.5-4.2,3.5h-12.9c0.8,4.5,3.7,6.8,9.3,6.8c2,0,4-0.5,5.9-1.2V318.3z M641.7,307.6h11c1.2,0,1.6-1,1.6-1.7
			c0-3.8-2.5-5.7-5.8-5.7C643.8,300.2,641.9,303.5,641.7,307.6z"/>
		<path d="M687,321.7v-17.8c-2.2,4.9-4.4,9.4-7.1,14.1c-1.2,0.6-2.7,0.8-4.1,0.9c-2.4-4.5-5-9.7-7.2-14.8v17.5h-4.1v-23.2
			c1.6-1,3.5-1.5,5.4-1.6c1.8,4.9,5.1,11.7,8,17.1c2.8-5,6.4-12.4,7.8-15.7c1.6-1,3.6-1.3,5.4-1.4v22.7
			C691,321.7,690.3,321.7,687,321.7z"/>
		<path d="M712.9,321.7v-8.5h-4.7l-4,5.6c-1.8,2.5-3.4,3.2-5.4,3.2c-1.4,0-3-0.6-3-2v-1.2h0.5c1.5,0,2.9-0.9,4-2.2l3.7-4.4
			c-4-1.1-6.1-3.6-6.1-7.4c0-4.9,4.6-7.8,10.2-7.8h2c5.4,0,7.1,1.9,7.1,7v15.3C717.2,321.7,716.7,321.7,712.9,321.7z M707.9,309.8
			h4.9v-5.2c0-2.5-0.9-3.8-3.5-3.8h-1.2c-3.2,0-5.7,1.7-5.7,4.6C702.6,308.3,705.1,309.8,707.9,309.8z"/>
		<path d="M725.7,329.2c-0.5,0-1.2-0.3-2.3-0.7c1.1-4.3,1.5-8.3,1.7-12.8h5.3c-0.3,4.8-1.7,9.1-3.4,12.3
			C726.6,328.8,726.3,329.2,725.7,329.2z"/>
		<path d="M764.5,321.7v-17c0-2.5-1-3.8-3.5-3.8h-9.4v20.6h-4.3v-22.1c0-2.4,0.6-2.4,4.3-2.4h10c5.4,0,7.2,1.8,7.2,7v15.3
			C768.8,321.7,768.3,321.7,764.5,321.7z"/>
		<path d="M786.5,322c-7.1,0-11.8-5.5-11.8-13.3c0-7.8,4.4-12.3,11.8-12.3c7.3,0,11.8,4.5,11.8,12.3
			C798.3,316.5,793.6,322,786.5,322z M786.5,300.4c-5,0-7.2,3.5-7.2,8.4c0,4.8,2.4,9.2,7.2,9.2c4.8,0,7.2-4.4,7.2-9.2
			C793.7,303.8,791.5,300.4,786.5,300.4z"/>
		<path d="M823.3,330.8c-0.6,0-1.4-0.3-2.6-0.7c0.8-2.5,1.7-6,1.9-8.6h-16.9l-1.6,7.2c-0.3,1.6-1.2,1.6-4,1.6v-11.2l4.1-0.8
			l3.9-17.4h-2.3c0-2.8,0-4,1.6-4h9.9c5.4,0,7.2,1.8,7.2,7v14.4l3.8,0.8v0.6c-0.7,3.4-1.8,7.5-3.1,9.5
			C824.6,330.3,824.2,330.8,823.3,330.8z M820.2,304.7c0-2.5-1-3.8-3.5-3.8H812l-2.9,16.6h11.2V304.7z"/>
		<path d="M852.6,321.5h-1.3c-4.7,0-7.3-1.8-7.3-6.6v-15.5c0-2.4,0.6-2.4,4.3-2.4h4.8c5.3,0,9,2,9,6.4c0,2.8-1.6,4.7-4.3,5.8
			c2.9,0.8,4.4,2.3,4.4,5.3C862.1,319,857.7,321.5,852.6,321.5z M852.5,300.6h-4.2v7.3h3c3.6,0,6.2-1.1,6.2-3.9
			C857.4,301.3,855.1,300.6,852.5,300.6z M851.6,311.1h-3.4v3.3c0,2.4,1.1,3.6,3.5,3.6h0.5c3.2,0,5.3-1.3,5.3-3.6
			C857.5,311.7,855,311.1,851.6,311.1z"/>
		<path d="M886.8,318.3c0,2.7-4.1,3.7-7.9,3.7c-7,0-12-4.5-12-13.6c0-6.9,4.7-12,11.5-12c6.5,0,10.4,4.5,10.4,11.1
			c0,2.8-2.1,3.5-4.2,3.5h-12.9c0.8,4.5,3.7,6.8,9.3,6.8c2,0,4-0.5,5.9-1.2V318.3z M871.5,307.6h11c1.2,0,1.6-1,1.6-1.7
			c0-3.8-2.5-5.7-5.8-5.7C873.6,300.2,871.7,303.5,871.5,307.6z"/>
		<path d="M910.3,321.7v-11.4c-2.2,3.3-5.3,5-8.8,5c-4.8,0-7.9-3.3-7.9-8.5v-7.6c0-2.4,0.6-2.4,4.3-2.4v7.8c0,4.3,1.7,6.8,5.4,6.8
			c3.6,0,7-2.9,7-8.2V297h4.3v22.3C914.6,321.7,914.1,321.7,910.3,321.7z"/>
		<path d="M940.4,318.3c0,2.7-4.1,3.7-7.9,3.7c-7,0-12-4.5-12-13.6c0-6.9,4.7-12,11.5-12c6.5,0,10.4,4.5,10.4,11.1
			c0,2.8-2.1,3.5-4.2,3.5h-12.9c0.8,4.5,3.7,6.8,9.3,6.8c2,0,4-0.5,5.9-1.2V318.3z M925,307.6h11c1.2,0,1.6-1,1.6-1.7
			c0-3.8-2.5-5.7-5.8-5.7C927.2,300.2,925.2,303.5,925,307.6z"/>
		<path d="M947.8,329.9v-30.7c0-2.4,0.6-2.4,4.3-2.4v5.6c1.8-3.7,5-5.9,9.2-5.9c6.2,0,9.7,4.9,9.7,11.7c0,7.4-4.7,13.8-11.4,13.8
			c-3.1,0-5.8-1.3-7.5-3.9v11.8H947.8z M960.1,300.4c-4.6,0-7.4,4.4-7.4,10.6c0,3.3,2.4,7,6.2,7c5,0,7.6-4.9,7.6-9.8
			C966.5,304.1,964.7,300.4,960.1,300.4z"/>
		<path d="M977.7,329.2c-0.5,0-1.2-0.3-2.3-0.7c1.1-4.3,1.5-8.3,1.7-12.8h5.3c-0.3,4.8-1.7,9.1-3.4,12.3
			C978.6,328.8,978.3,329.2,977.7,329.2z"/>
		<path d="M1009.8,322c-7.1,0-11.8-5.5-11.8-13.3c0-7.8,4.4-12.3,11.8-12.3c7.3,0,11.8,4.5,11.8,12.3
			C1021.6,316.5,1016.9,322,1009.8,322z M1009.8,300.4c-5,0-7.2,3.5-7.2,8.4c0,4.8,2.4,9.2,7.2,9.2c4.8,0,7.2-4.4,7.2-9.2
			C1017,303.8,1014.8,300.4,1009.8,300.4z"/>
		<path d="M1046.6,330.8c-0.6,0-1.4-0.3-2.6-0.7c0.8-2.5,1.7-6,1.9-8.6h-16.9l-1.6,7.2c-0.3,1.6-1.2,1.6-4,1.6v-11.2l4.1-0.8
			l3.9-17.4h-2.3c0-2.8,0-4,1.6-4h9.9c5.4,0,7.2,1.8,7.2,7v14.4l3.8,0.8v0.6c-0.7,3.4-1.8,7.5-3.1,9.5
			C1047.9,330.3,1047.5,330.8,1046.6,330.8z M1043.6,304.7c0-2.5-1-3.8-3.5-3.8h-4.7l-2.9,16.6h11.2V304.7z"/>
		<path d="M1073.9,321.7V304l-14.4,17.9c-1.2-0.1-2.4-0.5-3.5-1.2v-21.6c0-2.4,0.6-2.4,4.3-2.4v17.6l14.4-17.7
			c1.3,0.1,2.3,0.5,3.5,1.2v21.4C1078.2,321.7,1077.7,321.7,1073.9,321.7z"/>
		<path d="M1085.2,321.5v-22.3c0-2.4,0.6-2.4,4.3-2.4v11.1h13V297h4.3v22.3c0,2.4-0.5,2.4-4.3,2.4v-10.1h-13v9.9H1085.2z"/>
	</g>
	<g>
		<rect x="-341.6" y="708.6" fill="none" width="1515.5" height="69.1"/>
		<path d="M-234.8,758.9V726c-4.4,9.4-8.8,16.6-15.4,26.3c-0.7,0.3-1.7,0.5-2.5,0.5c-6.6-9.6-11.1-17.3-15.5-26.8v32.8h-2.2v-36.1
			c0.8-0.5,1.8-0.9,2.7-0.9c4.5,10,9.3,18.6,16.1,28.5c6.7-9.8,11.8-18.5,16.1-27.8c0.8-0.5,1.9-0.7,2.7-0.7v35.8
			C-232.7,758.9-233.1,758.9-234.8,758.9z"/>
		<path d="M-205.8,759.6c-9.4,0-16.5-8.6-16.5-20.2c0-11.9,6.2-18.3,16.5-18.3c10.2,0,16.4,6.4,16.4,18.3
			C-189.4,751.1-196.5,759.6-205.8,759.6z M-205.8,723.3c-9,0-14.1,5.9-14.1,16.1c0,10.1,5.9,18,14.1,18c8.1,0,14-7.9,14-18
			C-191.8,729.1-196.8,723.3-205.8,723.3z"/>
		<path d="M-153.7,758.9v-28.5c0-4.3-1.7-6.2-6.2-6.2h-11.5l-3.9,28.8c-0.6,4.8-3,6.7-6.4,6.7c-1.7,0-3.5-0.5-3.5-1.9v-0.9
			c0.9,0.4,1.8,0.6,3,0.6c2.4,0,4.2-1.5,4.8-5.1l4.1-28.3h-3.7c0-1.6,0-2.2,0.9-2.2h16.5c6,0,8.3,2.3,8.3,8.2v27.5
			C-151.4,758.9-151.8,758.9-153.7,758.9z"/>
		<path d="M-124.6,759.6c-9.4,0-16.5-8.6-16.5-20.2c0-11.9,6.2-18.3,16.5-18.3c10.2,0,16.4,6.4,16.4,18.3
			C-108.2,751.1-115.3,759.6-124.6,759.6z M-124.6,723.3c-9,0-14.1,5.9-14.1,16.1c0,10.1,5.9,18,14.1,18c8.1,0,14-7.9,14-18
			C-110.6,729.1-115.6,723.3-124.6,723.3z"/>
		<path d="M-69.8,772.7c-0.4,0-0.9-0.2-1.4-0.4c1.8-4.1,3.1-8.8,3.7-13.4h-34.6l-0.6,12.5c-0.2,0.9-0.6,1-2.1,1v-15l6.5-0.3
			l7.3-32.9H-95c0-1.6,0.1-2.2,0.9-2.2h15.3c6.1,0,8.3,2.3,8.3,8.2v26.9l5.9,0.3v0.5c-0.8,5.3-2.3,10.1-4,13.9
			C-69,772.3-69.2,772.7-69.8,772.7z M-72.7,730.4c0-4.3-1.8-6.2-6.3-6.2H-89l-6.8,32.6h23.2V730.4z"/>
		<path d="M-43.2,759.6c-9.4,0-16.5-8.6-16.5-20.2c0-11.9,6.2-18.3,16.5-18.3c10.2,0,16.4,6.4,16.4,18.3
			C-26.8,751.1-33.8,759.6-43.2,759.6z M-43.2,723.3c-9,0-14.1,5.9-14.1,16.1c0,10.1,5.9,18,14.1,18c8.1,0,14-7.9,14-18
			C-29.1,729.1-34.2,723.3-43.2,723.3z"/>
		<path d="M12.1,758.9v-33.3L-14.5,759c-0.6,0-1.4-0.3-2-0.7v-35.1c0-1.2,0.3-1.3,2.3-1.3v33.3l26.5-33.3c0.7,0,1.4,0.2,2,0.6v35.2
			C14.3,758.9,14,758.9,12.1,758.9z M-11,704.4c0-1,0.5-1.2,1.6-1.2c0,5.7,4.7,8.2,9,8.2c4.4,0,9-2.5,9-8.2c1.1,0,1.6,0.2,1.6,1.2
			c0,5.1-4.4,9.2-10.7,9.2C-6.7,713.6-11,709.6-11,704.4z"/>
		<path d="M68.1,758.9v-21.2c-2.3,6.2-7.9,9.8-14,9.8c-7.8,0-12.7-5.1-12.7-14.4v-9.9c0-1.2,0.3-1.3,2.3-1.3v10.4
			c0,8.6,4.1,13,11.2,13c6.8,0,13.3-5.4,13.3-14.4v-9h2.2v35.7C70.3,758.9,70,758.9,68.1,758.9z"/>
		<path d="M108.7,756.1c0,1.9-5.3,3.5-10.8,3.5c-10.8,0-17.1-7.5-17.1-20.1c0-10.1,6.2-18.3,15.5-18.3c9.7,0,14.4,7.6,14.4,16.4
			c0,2.9-1.4,3.9-3.9,3.9H83.1c0.6,10,5.9,16,15.5,16c3.4,0,6.8-0.7,10.1-2.3V756.1z M83.1,739.4H106c1.7,0,2.3-0.9,2.3-2.5
			c0-7.3-4-13.7-12-13.7C87.9,723.3,83.1,730.8,83.1,739.4z"/>
		<path d="M147.4,758.9v-28.5c0-4.3-1.7-6.2-6.2-6.2h-11.5l-3.9,28.8c-0.6,4.8-3,6.7-6.4,6.7c-1.7,0-3.5-0.5-3.5-1.9v-0.9
			c0.9,0.4,1.8,0.6,3,0.6c2.4,0,4.2-1.5,4.8-5.1l4.1-28.3h-3.7c0-1.6,0-2.2,0.9-2.2h16.5c6,0,8.3,2.3,8.3,8.2v27.5
			C149.6,758.9,149.3,758.9,147.4,758.9z"/>
		<path d="M176.5,759.6c-9.4,0-16.5-8.6-16.5-20.2c0-11.9,6.2-18.3,16.5-18.3c10.2,0,16.4,6.4,16.4,18.3
			C192.8,751.1,185.8,759.6,176.5,759.6z M176.5,723.3c-9,0-14.1,5.9-14.1,16.1c0,10.1,5.9,18,14.1,18c8.1,0,14-7.9,14-18
			C190.5,729.1,185.4,723.3,176.5,723.3z"/>
		<path d="M213.7,758.9h-2.2c-5.8,0-8.3-2.3-8.3-8v-27.3c0-1.4,0.3-1.6,2-1.6h8.6c6.9,0,13.4,2,13.4,9c0,5.3-3.6,8.3-8.4,9.6
			c4.5,0.7,8.2,2.9,8.2,8.2C227,756,220.5,758.9,213.7,758.9z M213.7,724h-8.2v15.9h7.3c6.5,0,12.2-2.5,12.2-8.6
			C225,725.4,219.3,724,213.7,724z M213,741.7h-7.6v9c0,4.3,1.8,6.2,6.2,6.2h1.9c5.6,0,11-2.3,11-8.2
			C224.7,742.6,218.7,741.8,213,741.7z"/>
		<path d="M263.8,756.1c0,1.9-5.3,3.5-10.8,3.5c-10.8,0-17.1-7.5-17.1-20.1c0-10.1,6.2-18.3,15.5-18.3c9.7,0,14.4,7.6,14.4,16.4
			c0,2.9-1.4,3.9-3.9,3.9h-23.6c0.6,10,5.9,16,15.5,16c3.4,0,6.8-0.7,10.1-2.3V756.1z M238.2,739.4h22.9c1.7,0,2.3-0.9,2.3-2.5
			c0-7.3-4-13.7-12-13.7C243,723.3,238.2,730.8,238.2,739.4z"/>
		<path d="M296.4,755.5L285.8,742c-0.5,0.1-1.1,0.1-1.7,0.1h-6v16.8h-2.3v-35.6c0-1.2,0.3-1.3,2.3-1.3v18.2h6.3
			c11.2,0,6.8-18.3,18.3-18.3c0.9,0,1.6,0.4,1.6,1.3v0.5h-0.6c-9.5,0-6.9,14.4-15.4,17.8l10.3,12.9c1.6,2,3,3,5.4,3h0.6v0.7
			c0,0.9-0.9,1.2-1.9,1.2C299.8,759.1,298.5,758.3,296.4,755.5z"/>
		<path d="M339.4,758.9h-2.2c-5.8,0-8.3-2.3-8.3-8v-27.3c0-1.4,0.3-1.6,2-1.6h8.6c6.9,0,13.4,2,13.4,9c0,5.3-3.6,8.3-8.4,9.6
			c4.5,0.7,8.2,2.9,8.2,8.2C352.7,756,346.1,758.9,339.4,758.9z M339.3,724h-8.2v15.9h7.3c6.5,0,12.2-2.5,12.2-8.6
			C350.6,725.4,344.9,724,339.3,724z M338.7,741.7h-7.6v9c0,4.3,1.8,6.2,6.2,6.2h2c5.6,0,11-2.3,11-8.2
			C350.3,742.6,344.4,741.8,338.7,741.7z"/>
		<path d="M375,758.9h-3c-5.8,0-8.3-2.3-8.3-8V723c0-1,0.5-1.1,2.3-1.1v16.8h9.5c6.5,0,12,2.5,12,9.4
			C387.4,755.3,381.8,758.9,375,758.9z M365.9,740.7v10c0,4.3,1.8,6.2,6.2,6.2h2.8c5.5,0,10.2-2.7,10.2-8.6c0-5.6-4.9-7.6-9.9-7.6
			H365.9z M395,758.9v-35.6c0-1.2,0.3-1.3,2.2-1.3v37H395z"/>
		<path d="M458.5,758.9H418c-6,0-8.3-2.3-8.3-8.2v-27.5c0-1.2,0.3-1.3,2.3-1.3v28.5c0,4.3,1.8,6.3,6.2,6.3H434V722h2.3v34.8h21.8
			V722h2.2v35.6C460.3,758.7,460,758.9,458.5,758.9z"/>
		<path d="M498.6,756.1c0,1.9-5.3,3.5-10.8,3.5c-10.8,0-17.1-7.5-17.1-20.1c0-10.1,6.2-18.3,15.5-18.3c9.7,0,14.4,7.6,14.4,16.4
			c0,2.9-1.4,3.9-3.9,3.9H473c0.6,10,5.8,16,15.5,16c3.4,0,6.8-0.7,10.1-2.3V756.1z M473,739.4h22.9c1.7,0,2.3-0.9,2.3-2.5
			c0-7.3-4-13.7-12-13.7C477.8,723.3,473,730.8,473,739.4z"/>
		<path d="M537.3,758.9v-28.5c0-4.3-1.7-6.2-6.2-6.2h-11.5l-3.9,28.8c-0.6,4.8-3,6.7-6.4,6.7c-1.7,0-3.5-0.5-3.5-1.9v-0.9
			c0.9,0.4,1.8,0.6,3,0.6c2.4,0,4.2-1.5,4.8-5.1l4.1-28.3h-3.7c0-1.6,0-2.2,0.9-2.2h16.5c6,0,8.3,2.3,8.3,8.2v27.5
			C539.5,758.9,539.2,758.9,537.3,758.9z"/>
		<path d="M596.1,758.9v-33.3L569.5,759c-0.6,0-1.4-0.3-2-0.7v-35.1c0-1.2,0.3-1.3,2.3-1.3v33.3l26.5-33.3c0.7,0,1.4,0.2,2,0.6v35.2
			C598.3,758.9,598,758.9,596.1,758.9z"/>
		<path d="M619,759.6c-5.5,0-9-1.6-9-3.4v-0.8c2.8,1.3,5.5,1.9,8.8,1.9c6.2,0,10.6-3.1,10.6-7.7c0-5.1-4.6-7.3-13.9-7.3
			c-0.1-0.5,0-1.3,0.2-1.9c9.7-0.6,14.7-4,14.7-9.5c0-5-4.5-7.6-9.9-7.6c-6.4,0-10,3.8-10,7.4v0.9h-0.6c-0.9,0-1.4-0.5-1.4-1.6
			c0-4.6,4.7-9,12.1-9c6.9,0,12.2,3.5,12.2,9.6c0,5.5-4.2,8.8-10.9,10.4c7.2,1,9.9,4.3,9.9,8.7C631.7,755.8,626,759.6,619,759.6z"/>
		<path d="M655.9,743.6c0-11.3,5.6-22.5,18.3-22.5c5.5,0,10,2.7,10,8.3c0,1.6-0.6,3.7-2.3,3.7h-0.4c0.3-1.2,0.5-2.3,0.5-3.1
			c0-4.7-3.6-6.9-8-6.9c-10.8,0-15.8,10-15.8,20.1c0,8,3.7,14.2,11.6,14.2c2.9,0,5.8-0.6,8.1-1.9l0.2,0.1l-0.2,0.6
			c-0.5,1.7-3.6,3.3-8.7,3.3C660.5,759.6,655.9,753,655.9,743.6z"/>
		<path d="M698.3,759.6c-6.5,0-9.8-3.9-9.8-9.2c0-5.9,2.1-13.1,3.9-18.3c2.6-7.5,6.6-10.9,13.7-10.9c6,0,9.8,3.2,9.8,8.4
			c0,5.3-3.3,8.7-9.7,11.2c3.5,1,5.9,3.4,5.9,7.6C712.1,755.2,705.5,759.6,698.3,759.6z M702.8,741.9c-3.3,0.9-7,1.8-11.5,2.5
			c-0.3,2-0.5,4-0.5,5.7c0,4.2,2.5,7.4,7.7,7.4c5.9,0,11.4-3.6,11.4-9C709.9,744.4,707.1,742.3,702.8,741.9z M691.7,742.4
			c15-2.5,22-5.9,22-12.6c0-4.1-3.1-6.6-7.6-6.6c-5.7,0-9.2,3-11.5,9.4C693.6,735.4,692.5,738.9,691.7,742.4z"/>
		<path d="M732.6,759.6c-7.7,0-11.1-8.1-11.1-16.1c0-11.5,4.4-22.3,17.6-22.3c8.2,0,12.9,5,12.9,13.3
			C751.9,744.5,745,759.6,732.6,759.6z M738.9,723.2c-11.4,0-15.2,10.1-15.2,20.2c0,6.9,2.5,14.1,9,14.1c10.9,0,17.1-14,17.1-22.9
			C749.8,727.7,746.1,723.2,738.9,723.2z"/>
		<path d="M758.3,743.6c0-11.5,6.5-22.5,17.6-22.5c5.9,0,10.7,3.5,10.7,9.9c0,8.7-8.9,12.2-26,12.9c0.2,7.7,3.7,13.6,11.4,13.6
			c2.5,0,5.3-0.5,7.6-1.9l0.2,0.2l-0.1,0.6c-0.5,1.8-3.6,3.2-8.3,3.2C762.8,759.6,758.3,753.1,758.3,743.6z M760.5,742.1
			c15.3-0.8,23.8-3.4,23.8-11c0-5.1-3.7-7.9-8.7-7.9C766.5,723.2,761,732.4,760.5,742.1z"/>
		<path d="M814.7,758.9c1.2-7.8,2.3-13.3,3.5-19.3c-5.7,12.9-13.2,20-20.1,20c-4.2,0-6.1-2.7-6.1-7.6c0-7,2.9-18.1,7.2-28.9
			c0.5-1.2,1.1-1.2,2.9-1.2c-5,12.4-7.8,23.4-7.8,29.8c0,3.6,1.2,5.9,4.6,5.9c7.9,0,16.8-11.9,21.7-28c0.7-2.8,1.4-5.3,2-7.6h2.1
			c-3.3,12.1-5.3,21.2-7.6,35.7C816.9,758.9,816.3,758.9,814.7,758.9z M813.6,713.6c-4.2,0-7.3-2.8-7.3-7.6c0-0.9,0.4-1.3,1.5-1.3
			c0.1,4.9,2.7,6.7,5.8,6.7c5.4,0,9.2-4.8,9.2-11.2c1.2-0.2,1.6,0.2,1.6,1.2C824.3,708.1,819.7,713.6,813.6,713.6z"/>
		<path d="M848.3,742.1c-1.2,5.3-2.3,10.9-3.3,16.8h-2.1c2.4-13.8,4.8-24.3,8.2-35.9c0.4-1,0.9-1.1,2.5-1.1
			c-1.8,5.8-3.4,11.8-4.8,18.2h6.6c9.9,0,8.8-18.3,20.7-18.3c1,0,1.8,0.5,1.6,1.3l-0.2,0.5h-0.6c-9.7,0-9.6,14.7-18.4,17.9l6.6,12.7
			c0.9,1.8,2.2,3,4.2,3h0.9l-0.2,0.7c-0.2,0.9-1.2,1.2-2,1.2c-2.7,0-3.8-1.3-4.9-3.7l-6.9-13.4c-0.4,0.1-0.8,0.1-1.2,0.1H848.3z"/>
		<path d="M897.7,721.2c5.3,0,8.7,3.5,10.1,8c0.5-2.3,1-4.7,1.6-7.3h2.1c-2.8,12.2-4.4,21.2-6.2,35.7c-0.2,1.2-0.8,1.2-2.3,1.2
			c0.9-7.9,1.8-14.2,2.9-20.1c-4.9,10.8-12.6,20.8-20.3,20.8c-5.6,0-8-4.6-8-10.7C877.6,735.8,886.5,721.2,897.7,721.2z
			 M886.2,757.6c7.9,0,16.8-13.8,20.9-25.4c-0.7-4.6-3.7-9-9.4-9c-10.1,0-18.1,13.5-18.1,25.4C879.7,753.5,881.5,757.6,886.2,757.6z
			"/>
		<path d="M947.5,758.9c2-12.5,4.2-22.2,7.1-32.4c-6.1,9.4-12,17-19.8,26.1c-0.6,0.2-1.5,0.4-2.2,0.4c-3.3-9.8-5.2-17.6-6.9-27.1
			c-3,10.5-5.2,20.2-7.4,33.1h-2.1c2.3-14,4.8-24.6,8.3-36.5c0.8-0.3,1.7-0.5,2.5-0.5c1.8,9.9,3.8,18.6,7,28.5
			c8.2-9.8,14.8-18.6,21-28.1c0.9-0.4,2-0.5,2.9-0.5c-3.4,11.5-6,22.1-8,35.8C949.7,758.9,949.1,758.9,947.5,758.9z"/>
		<path d="M974.2,759.6c-7.7,0-11.1-8.1-11.1-16.1c0-11.5,4.4-22.3,17.6-22.3c8.2,0,12.9,5,12.9,13.3
			C993.5,744.5,986.6,759.6,974.2,759.6z M980.5,723.2c-11.4,0-15.2,10.1-15.2,20.2c0,6.9,2.5,14.1,9,14.1c10.9,0,17.1-14,17.1-22.9
			C991.3,727.7,987.6,723.2,980.5,723.2z"/>
		<path d="M1012.4,759.6c-5.6,0-9-3.7-10.3-8.6c-1.5,6.5-2.9,13.3-4.1,20.7h-2.2c3.1-19.2,6.8-33.2,11.7-48.5
			c0.4-1.3,0.9-1.3,2.6-1.3c-2.1,6.4-4,12.9-5.7,19.6c4.9-10.6,12.5-20.3,20-20.3c5.7,0,8.1,4.7,8.1,10.7
			C1032.6,745,1023.7,759.6,1012.4,759.6z M1023.9,723.2c-7.9,0-16.8,13.8-21,25.4c0.8,4.5,3.7,8.9,9.4,8.9c10.1,0,18-13.5,18-25.4
			C1030.4,727.3,1028.7,723.2,1023.9,723.2z"/>
		<path d="M1042.9,742.1c-1.2,5.3-2.3,10.9-3.3,16.8h-2.1c2.4-13.8,4.8-24.3,8.2-35.9c0.4-1,0.9-1.1,2.5-1.1
			c-1.8,5.8-3.4,11.8-4.8,18.2h6.6c9.9,0,8.8-18.3,20.7-18.3c1,0,1.8,0.5,1.6,1.3l-0.2,0.5h-0.6c-9.7,0-9.6,14.7-18.4,17.9l6.6,12.7
			c0.9,1.8,2.2,3,4.2,3h0.9l-0.2,0.7c-0.2,0.9-1.2,1.2-2,1.2c-2.7,0-3.8-1.3-4.9-3.7l-6.9-13.4c-0.4,0.1-0.8,0.1-1.2,0.1H1042.9z"/>
		<path d="M1097,758.9c1.2-7.8,2.3-13.3,3.5-19.3c-5.7,12.9-13.2,20-20.1,20c-4.2,0-6.1-2.7-6.1-7.6c0-7,2.9-18.1,7.2-28.9
			c0.5-1.2,1.1-1.2,2.9-1.2c-5,12.4-7.8,23.4-7.8,29.8c0,3.6,1.2,5.9,4.6,5.9c7.9,0,16.8-11.9,21.7-28c0.7-2.8,1.4-5.3,2-7.6h2.1
			c-3.3,12.1-5.3,21.2-7.6,35.7C1099.2,758.9,1098.6,758.9,1097,758.9z"/>
	</g>
	<g>
		<rect x="-341.6" y="372.6" fill="none" width="1515.5" height="117.1"/>
		<path d="M-234.6,445.2v-47.5c0-5-2.2-7.2-7.4-7.2h-19v54.2h-20.4v-61.7c0-10.4,2.9-10.4,20.4-10.4h24.6c16.7,0,22.2,5.5,22.2,21.6
			v40.7C-214.3,445.2-216.7,445.2-234.6,445.2z"/>
		<path d="M-203.8,463.2v-63.5c0-10.3,2.4-10.3,19.3-10.3v9.2c4.4-6.3,10.9-9.9,18.8-9.9c14.6,0,20.8,11,20.8,26.2
			c0,16.7-10.1,30.9-25.3,30.9c-5.9,0-10.9-1.7-14.3-5.4v22.7H-203.8z M-173,404.1c-6.5,0-11,6.6-11,15.7c0,4.9,1.9,10.4,8.4,10.4
			c7.1,0,10.8-7.3,10.8-14.4C-164.9,409.7-166.9,404.1-173,404.1z"/>
		<path d="M-88,433.6c0,9.3-12.9,12.3-23.2,12.3c-17.2,0-29-10.4-29-30.4c0-15.2,11-26.8,28.7-26.8c17.6,0,27,10.9,27,27.4
			c0,5.7-4.8,6.8-8.8,6.8h-25.5c2.2,5.8,7.2,8.7,15.7,8.7c5.5,0,10.2-0.9,15.2-2.6V433.6z M-120.3,412.1h13.7c1.5,0,2-1.2,2-2.1
			c0-4.8-2.2-8.7-7.3-8.7C-117.3,401.2-119.8,404.8-120.3,412.1z"/>
		<path d="M-28.9,433c0,10-9.7,12.9-22,12.9c-18.4,0-28.8-11.2-28.8-30.5c0-16.2,11.5-26.7,29.8-26.7c13.2,0,23,5.5,23,15.7
			c0,6.8-5.2,9.2-11.4,9.2h-5v-2.1c0-6-2.9-8.3-6.9-8.3c-5.6,0-9.4,4.7-9.4,12.2c0,11.8,6.8,15.9,17.1,15.9c4.6,0,9.5-0.7,13.7-2.4
			V433z"/>
		<path d="M-5.4,444.8V407h-17.2v-17.1H26c5.5,0,5.9,4.5,5.9,17.1h-18v37.7H-5.4z"/>
		<path d="M97.2,390.9l-20.3,54.4c-2.4,12.3-10,19-21.5,19c-6.4,0-13.4-2-13.4-9.1v-6.2c1.9,0.7,4.6,1.1,7.3,1.1
			c4.5,0,7.2-1.2,8.7-4.5c-10.2-18.5-18.3-37.4-24.3-55.9h23.2c2.4,11.2,5.7,24.1,10.2,34.7l9.4-34.7h20.7V390.9z"/>
		<path d="M137.8,445.2v-32.9c0-4.6-1.9-6.4-5.7-6.4H121v38.9h-19.3v-44.6c0-10.3,2.4-10.3,19.3-10.3h16.1c15,0,19.9,4.6,19.9,18.4
			v26.7C157,445.2,154.7,445.2,137.8,445.2z"/>
		<path d="M203.6,445.2v-32.9c0-4.6-1.9-6.4-5.7-6.4h-3.4l-2.5,23.5c-1.3,12.2-8.5,16.5-17.2,16.5c-7.7,0-11.8-3.7-11.8-8.8v-4.6
			c1.3,0.4,2,0.6,3.6,0.6c4,0,6.2-2.4,6.8-6.8l3-20.3H171c0-11.6,0.4-16,5.4-16h26.5c15,0,19.9,4.6,19.9,18.4v26.7
			C222.9,445.2,220.5,445.2,203.6,445.2z"/>
		<path d="M282.9,433.6c0,9.3-12.9,12.3-23.2,12.3c-17.2,0-29-10.4-29-30.4c0-15.2,11-26.8,28.7-26.8c17.6,0,27,10.9,27,27.4
			c0,5.7-4.8,6.8-8.8,6.8H252c2.2,5.8,7.2,8.7,15.7,8.7c5.5,0,10.2-0.9,15.2-2.6V433.6z M250.7,412.1h13.7c1.5,0,2-1.2,2-2.1
			c0-4.8-2.2-8.7-7.3-8.7C253.7,401.2,251.1,404.8,250.7,412.1z"/>
		<path d="M293.5,444.8v-45c0-10.3,2.4-10.3,19.3-10.3v21.3h16.9v-20.8H349v45c0,10.3-2.4,10.3-19.3,10.3V426h-16.9v18.8H293.5z"/>
		<path d="M396.7,445.2v-28.6l-20.2,29.6c-5.7-0.4-11.9-1.3-17.2-3.8v-42.7c0-10.3,2.4-10.3,18.4-10.3V418l20.2-29.1
			c5.9,0.2,11.9,1.3,17.2,3.8v42.2C415.1,445.2,412.7,445.2,396.7,445.2z"/>
		<path d="M475.3,433.6c0,9.3-12.9,12.3-23.2,12.3c-17.2,0-29-10.4-29-30.4c0-15.2,11-26.8,28.7-26.8c17.6,0,27,10.9,27,27.4
			c0,5.7-4.8,6.8-8.8,6.8h-25.5c2.2,5.8,7.2,8.7,15.7,8.7c5.5,0,10.2-0.9,15.2-2.6V433.6z M443.1,412.1h13.7c1.5,0,2-1.2,2-2.1
			c0-4.8-2.2-8.7-7.3-8.7C446.1,401.2,443.5,404.8,443.1,412.1z"/>
		<path d="M553.3,445.2v-38.8l-31.6,39.3c-2.7-0.2-5.3-1.1-7.6-2.6v-47.4c0-5.4,1.2-5.4,9.4-5.4v38.8l31.6-38.9
			c2.8,0.2,5.2,1.1,7.6,2.7V440C562.7,445.2,561.6,445.2,553.3,445.2z"/>
		<path d="M602.8,444.8v-48.9c0-5.4,1.2-5.4,9.5-5.4v24.3h28.4v-23.9h9.4V440c0,5.3-1.1,5.3-9.4,5.3v-22.3h-28.4v21.8H602.8z"/>
		<path d="M681.2,414.2l15.3-1.8v-0.2c-0.6-10.2-6.8-13.7-15.7-13.7c-4.7,0-9.2,1.5-13.3,3.1v-3.4c0-5.5,10-8.5,17.4-8.5
			c8.5,0,20.2,2.9,21.4,21.4l2,29c0.3,5-1.7,5-9.9,5l-0.7-10.8c-3.9,7.2-10.1,11.4-19,11.4c-11.5,0-16.4-8.5-16.4-16.4
			C662.4,421.4,668.2,415.8,681.2,414.2z M682.2,438.3c8.7,0,13.9-9.7,14.3-18.7l-14.3,1.8c-5.3,0.7-8.6,3.5-8.6,7.8
			C673.6,434.4,676.4,438.3,682.2,438.3z"/>
		<path d="M751,438.7l-11.4-15.8h-2.2h-5.2v21.8h-9.5v-48.9c0-5.4,1.2-5.4,9.5-5.4v24.4h6.8c14.8,0,8.1-25.1,24.6-25.1
			c3.2,0,6.5,1.5,6.5,4.8v2.2h-1c-12.3,0-8.6,16.6-19.8,23.3l11.1,13.8c2.5,3.1,5.2,5,8.6,5h1v2.6c0,3.1-4.8,4.4-8.1,4.4
			C756.8,445.9,754.9,444.5,751,438.7z"/>
		<path d="M797.7,414.2l15.3-1.8v-0.2c-0.6-10.2-6.8-13.7-15.7-13.7c-4.7,0-9.2,1.5-13.3,3.1v-3.4c0-5.5,10-8.5,17.4-8.5
			c8.5,0,20.2,2.9,21.4,21.4l2,29c0.3,5-1.7,5-9.9,5l-0.7-10.8c-3.9,7.2-10.1,11.4-19,11.4c-11.5,0-16.4-8.5-16.4-16.4
			C778.8,421.4,784.7,415.8,797.7,414.2z M798.7,438.3c8.7,0,13.9-9.7,14.3-18.7l-14.3,1.8c-5.3,0.7-8.6,3.5-8.6,7.8
			C790,434.4,792.8,438.3,798.7,438.3z"/>
		<path d="M851.9,445.9c-8.8,0-14.1-2.8-14.1-8.6v-3.1c3.8,1.7,7.7,2.7,12.7,2.7c6.8,0,11.6-3.1,11.6-7.4c0-5.6-5.5-6.5-15.8-6.5
			c-0.3-2.7,0-5.5,0.9-7.3c9.1,0,15.6-4.5,15.6-9.9c0-5-4.1-7.4-9.2-7.4c-6.2,0-9.5,3.6-9.5,7.6v1.9h-2.9c-2.8,0-5.5-1.7-5.5-5.4
			c0-8,8.5-12.8,18.6-12.8c11.2,0,18.6,5.5,18.6,14.8c0,6-4.4,10.8-11.5,13.7c6.7,1.7,10.9,5.4,10.9,12
			C872.1,440.3,861.6,445.9,851.9,445.9z"/>
		<path d="M901.4,414.2l15.3-1.8v-0.2c-0.6-10.2-6.8-13.7-15.7-13.7c-4.7,0-9.2,1.5-13.3,3.1v-3.4c0-5.5,10-8.5,17.4-8.5
			c8.5,0,20.2,2.9,21.4,21.4l2,29c0.3,5-1.7,5-9.9,5l-0.7-10.8c-3.9,7.2-10.1,11.4-19,11.4c-11.5,0-16.4-8.5-16.4-16.4
			C882.6,421.4,888.4,415.8,901.4,414.2z M902.4,438.3c8.7,0,13.9-9.7,14.3-18.7l-14.3,1.8c-5.3,0.7-8.6,3.5-8.6,7.8
			C893.8,434.4,896.6,438.3,902.4,438.3z"/>
		<path d="M942.8,444.8v-48.9c0-5.4,1.2-5.4,9.5-5.4v24.3h28.4v-23.9h9.4V440c0,5.3-1.1,5.3-9.4,5.3v-22.3h-28.4v21.8H942.8z"/>
		<path d="M1044.9,445.2v-38.8l-31.6,39.3c-2.7-0.2-5.3-1.1-7.6-2.6v-47.4c0-5.4,1.2-5.4,9.4-5.4v38.8l31.6-38.9
			c2.8,0.2,5.2,1.1,7.6,2.7V440C1054.4,445.2,1053.2,445.2,1044.9,445.2z"/>
		<path d="M1111,437.8c0,5.8-9,8.1-17.4,8.1c-15.3,0-26.4-9.9-26.4-29.8c0-15.2,10.4-26.3,25.2-26.3c14.3,0,22.7,9.9,22.7,24.4
			c0,6-4.6,7.7-9.2,7.7h-28.2c1.7,9.9,8.1,15,20.4,15c4.5,0,8.8-1,12.9-2.6V437.8z M1077.3,414.3h24.1c2.7,0,3.6-2.2,3.6-3.7
			c0-8.3-5.5-12.5-12.8-12.5C1082,398.1,1077.8,405.2,1077.3,414.3z"/>
	</g>
	<g>
		<path d="M-195.4-74.8v-70.7c0-10.9-4.5-15.6-15.7-15.6h-49.5v86.2h-1.9v-87c0-0.9,0.4-1.1,1.9-1.1h49.5c12.7,0,17.6,5.1,17.6,17.4
			v69.6C-193.5-75-193.9-74.8-195.4-74.8z"/>
		<path d="M-137.6-122l30-3.6l-0.8-12.4c-1.3-18.7-13.5-24.9-27.4-24.9c-10.1,0-18,2.4-25.9,6.7v-0.8c0-2.6,13.1-7.9,25.9-7.9
			c15.2,0,27.9,6.7,29.2,26.6l4.3,62.2c0,0.9-0.4,1.1-1.9,1.1l-2.8-40.7c-4.5,27.6-20.1,42.6-37.9,42.6c-15.2,0-23.6-10.7-23.6-24
			C-168.4-111.7-158.4-119.6-137.6-122z M-144.8-74.8c18.9,0,34.9-18,37.3-48.9l-29.8,3.6c-20.4,2.4-29.2,9.9-29.2,23.2
			C-166.5-84.7-158.8-74.8-144.8-74.8z"/>
		<path d="M-2.6-42C-3-42-3.6-42.1-4-42.3c4.9-10.3,8.1-21,9.4-32.4h-90.2v31.3c0,0.9-0.4,1.1-1.9,1.1v-34.3h15.9l18.4-84.4h-9.7
			c0-1.5,0.2-1.9,1.1-1.9H-24c12.7,0,17.6,5.1,17.6,17.4v68.8H7.7v0.6c-1.5,13.1-4.9,23.4-9,33C-1.7-42.3-2.1-42-2.6-42z
			 M-8.3-145.4c0-10.9-4.5-15.6-15.7-15.6h-26.4l-18.2,84.4h60.4V-145.4z"/>
		<path d="M52.5-122l30-3.6L81.7-138c-1.3-18.7-13.5-24.9-27.4-24.9c-10.1,0-18,2.4-25.9,6.7v-0.8c0-2.6,13.1-7.9,25.9-7.9
			c15.2,0,27.9,6.7,29.2,26.6l4.3,62.2c0,0.9-0.4,1.1-1.9,1.1l-2.8-40.7c-4.5,27.6-20.1,42.6-37.9,42.6c-15.2,0-23.6-10.7-23.6-24
			C21.7-111.7,31.7-119.6,52.5-122z M45.3-74.8c18.9,0,34.9-18,37.3-48.9l-29.8,3.6c-20.4,2.4-29.2,9.9-29.2,23.2
			C23.6-84.7,31.3-74.8,45.3-74.8z"/>
		<path d="M117.3-74.8v-87c0-0.9,0.4-1.1,1.9-1.1v45.2h30.6v-3.4c0-28.1,15.2-43.7,38.2-43.7c22.9,0,38.2,15.6,38.2,43.7
			c0,27.4-14.8,48.2-38.2,48.2c-22.1,0-36.4-18.2-38.1-42.9h-30.7v41.1H117.3z M188-162.9c-21.9,0-36.4,14.8-36.4,41.8
			c0,26.2,13.9,46.3,36.4,46.3c22.3,0,36.4-20.1,36.4-46.3C224.4-148.1,209.8-162.9,188-162.9z"/>
		<path d="M372.1-76.6h14.1v0.6c-1.5,13.1-4.9,23.4-9,33c-0.4,0.7-0.7,1.1-1.3,1.1c-0.4,0-0.9-0.2-1.3-0.4c4.9-10.3,8.1-21,9.4-32.4
			H270.1c-12.7,0-17.6-5.1-17.6-17.4v-69.6c0-0.9,0.4-1.1,1.9-1.1v70.7c0,10.9,4.5,15.6,15.7,15.6h41.2v-86.2h1.9v86.2h57v-86.2h1.9
			V-76.6z"/>
		<path d="M477.9-74.8v-85.3l-67.5,85.3c-0.6,0-1.7-0.4-2.1-0.8v-86.2c0-0.9,0.4-1.1,1.9-1.1v85.3l67.5-85.3c0.6,0,1.5,0.2,2.1,0.6
			v86.4C479.7-75,479.4-74.8,477.9-74.8z"/>
		<path d="M570.9-79.6c0,2.6-12,6.7-24.9,6.7c-26.1,0-39.9-18.6-39.9-47.8c0-23.8,13.7-44.1,35.6-44.1c22.9,0,33.4,18.9,33.4,39
			c0,5.6-2.1,7.7-7.5,7.7h-59.6c0.7,26.6,13.9,43.3,38.1,43.3c8.2,0,16.9-1.5,24.9-5.6V-79.6z M507.9-120h59.6
			c3.9,0,5.6-1.7,5.6-5.8c0-18.9-9.7-37.1-31.5-37.1c-20.8,0-33.7,19.5-33.7,42.2V-120z"/>
	</g>
	<g>
		<path d="M646.4-72.9c-12.2,0-20.1-3.6-19.3-5.4l0.2-0.6c5.8,3,12.2,4.1,19.1,4.1c13.3,0,28.1-6.9,28.1-21.7
			c0-12.9-10.5-18.6-28.7-18.6l-0.4-0.2c0-0.4,0.2-1.3,0.4-1.7c22.7-2.4,40.1-10.1,40.1-26.4c0-12.6-10.3-19.5-24.4-19.5
			c-15.9,0-26.4,10.1-26.4,19.9v1.9h-0.4c-1.1,0-1.5-0.4-1.5-1.9c0-10.5,11.2-21.7,28.3-21.7c15.2,0,26.2,7.7,26.2,21.4
			c0,15-12.7,23.1-32.8,27c15.4,1.9,21.4,9.6,21.4,19.9C676.4-80.6,660.5-72.9,646.4-72.9z"/>
		<path d="M722.3-72.9c-14.8,0-22.1-9.4-22.1-21.4c0-15.4,5.2-33,9.6-45c6.4-17.4,15.4-25.5,31.5-25.5c13.5,0,21.9,7.5,21.9,19.1
			c0,12.7-7.9,21.4-25.7,27.6c10.3,2.2,16.3,8.4,16.3,19.1C753.8-83.4,738.7-72.9,722.3-72.9z M733.6-116.8
			c-8.1,2.6-18.2,4.7-30,6.7c-0.9,5.4-1.5,10.9-1.5,15.7c0,10.9,6.6,19.5,20.2,19.5c15.2,0,29.6-9.7,29.6-24.2
			C752-109.6,745-115.5,733.6-116.8z M704-112.1c40.3-6.9,57.4-15.9,57.4-33.6c0-10.5-7.7-17.2-20.1-17.2
			c-14.8,0-23.6,8.1-29.6,24.4C709-131.2,706-121.6,704-112.1z"/>
		<path d="M777.7-111.3c0-27.4,15.4-53.4,41.2-53.4c13.5,0,24.4,8.2,24.4,23.1c0,19.9-20.4,28.5-63.7,30.7
			c0,21.2,9.7,36.2,28.7,36.2c5.3,0,12.4-0.9,18.2-4.3l0.2,0.2l-0.2,0.6c-0.9,2.2-7.1,5.4-18.2,5.4
			C788.2-72.9,777.7-88.8,777.7-111.3z M779.5-112.8c42.2-2.2,61.9-10.3,61.9-28.9c0-13.7-10.1-21.2-22.5-21.2
			C794.5-162.9,780.1-138.5,779.5-112.8z"/>
		<path d="M875.5-72.9c-12.2,0-20.1-3.6-19.3-5.4l0.2-0.6c5.8,3,12.2,4.1,19.1,4.1c13.3,0,28.1-6.9,28.1-21.7
			c0-12.9-10.5-18.6-28.7-18.6l-0.4-0.2c0-0.4,0.2-1.3,0.4-1.7c22.7-2.4,40.1-10.1,40.1-26.4c0-12.6-10.3-19.5-24.4-19.5
			c-15.9,0-26.4,10.1-26.4,19.9v1.9h-0.4c-1.1,0-1.5-0.4-1.5-1.9c0-10.5,11.2-21.7,28.3-21.7c15.2,0,26.2,7.7,26.2,21.4
			c0,15-12.7,23.1-32.8,27c15.4,1.9,21.4,9.6,21.4,19.9C905.5-80.6,889.6-72.9,875.5-72.9z"/>
		<path d="M976.6-164.8c13.7,0,22.1,9.2,25.7,20.1c1.7-5.8,3.4-11.8,5.4-18.2h1.9c-12,38.4-16.7,62.1-21.9,90
			C983.9-52.5,969.3-42,947.9-42c-16.7,0-27.4-7.5-27.4-19.1c0-13.3,12.2-19.3,24.7-23.1c-11.2-1.7-15.2-13.5-15.2-24.6
			C930.1-136.5,949.2-164.8,976.6-164.8z M999.3-133.8c-11.6,24-29.2,46.3-46.7,49.5c-13.5,3.4-30.2,8.8-30.2,23.2
			c0,10.5,10.3,17.2,25.5,17.2c21.4,0,34.3-10.9,37.9-29.4C989.1-91.6,993.1-111,999.3-133.8z M948.4-85.8
			c19.7,0,40.7-28.9,52.9-56.2c-3-11.1-10.9-20.8-24.7-20.8c-26.2,0-44.6,27.2-44.6,54.2C931.9-97.5,936.3-85.8,948.4-85.8z"/>
		<path d="M1035.2-72.9c-9.4,0-14.6-5.1-14.6-12.9c0-18.6,8.6-50.8,18.4-75.9c0.4-1.1,0.9-1.1,2.6-1.1c-8.1,20.1-15.4,45-18,63.6
			c5.8-13.3,19.5-24.4,32.4-24.4c9.4,0,15.4,4.9,15.4,15.6C1071.4-88.8,1053.2-72.9,1035.2-72.9z M1056.1-121.8
			c-16.3,0-33.6,18.2-33.6,36c0,6.7,4.5,11.1,12.7,11.1c17.1,0,34.3-15.2,34.3-33.4C1069.6-117.7,1064.3-121.8,1056.1-121.8z
			 M1084.2-80.4c0-12,9.6-52.5,18.2-81.4c0.4-1.1,0.8-1.1,2.2-1.1c-8.6,29.1-18.6,70.9-18.6,82.5c0,4.5,2.8,5.6,5.6,5.6
			c1.1,0,3.2-0.2,5.1-1.1l-0.2,0.7c-0.4,1.5-2.8,2.2-4.9,2.2C1087.6-72.9,1084.2-74.4,1084.2-80.4z"/>
	</g>
	<g>
		<path d="M-280.5,158.6c0-37,22.9-73.9,67.8-73.9c22.1,0,40.3,9.8,40.3,29.3c0,10.8-8.2,19.3-22.6,19.3h-5.1
			c1.5-4.6,1.8-8.7,1.8-10.8c0-11.3-8-15.7-18-15.7c-22.6,0-36.2,23.9-36.2,48.3c0,18.7,7.4,35.9,32.9,35.9c11.6,0,21.1-2.6,29-5.9
			l1.3,1l-1.3,6.4c-2.6,13.9-17.5,21.3-40.1,21.3C-264.6,213.8-280.5,191-280.5,158.6z"/>
		<path d="M-119,213.8c-28.8,0-45.2-23.4-45.2-51.4c0-41.3,19-77.8,65.7-77.8c30.6,0,49.3,17.2,49.3,46.7
			C-49.2,167.1-73.1,213.8-119,213.8z M-101.3,107.5c-27,0-35.4,29-35.4,54.7c0,14.4,5.6,28,20.3,28c25.9,0,39.8-34.7,39.8-57.3
			C-76.7,118.1-85.1,107.5-101.3,107.5z"/>
		<path d="M0.9,213.8c-25.4,0-40.1-13.1-40.1-34.7c0-13.4,5.1-35.2,11.3-54.7c9-28,26.4-39.8,54.2-39.8c22.6,0,39.8,11,39.8,32.1
			c0,15.9-10,26.7-25.4,34.4c7.7,3.9,13.6,10.5,13.6,22.1C54.3,197.9,29.4,213.8,0.9,213.8z M14,160.2c-8.2,2.1-16.7,3.6-25.7,4.9
			c-0.8,3.9-1,7.4-1,10c0,9.8,5.1,16.4,16.4,16.4c12.6,0,24.4-7.2,24.4-18.5C28.1,164.8,21.7,160.7,14,160.2z M-7.8,146.6
			c28.8-4.4,47-11,47-26.4c0-9.8-8-14.1-16.2-14.1c-12.8,0-20.5,6.4-25.7,22.3C-4.5,134-6.3,140.1-7.8,146.6z"/>
		<path d="M131.6,213.8c-15.9,0-26.7-9.2-31.8-24.6c-4.4,20.8-8.5,42.1-11.8,64.4H62C72,191,83.3,141.4,96.7,99.1
			c3.9-12.3,10.5-12.8,30.6-12.8c-4.4,12.8-8.7,26.7-12.6,41.6c13.9-23.6,32.9-43.1,54.9-43.1c18,0,29,13.9,29,38.5
			C198.6,167.9,168.3,213.8,131.6,213.8z M157.8,108c-18.7,0-41.9,37.7-49.3,62.9c1,11,8,20,20.3,20c24.1,0,42.6-33.9,42.6-63.2
			C171.4,117,168.3,108,157.8,108z"/>
		<path d="M211.4,160.4c0-39.5,22.6-75.7,64.7-75.7c23.1,0,42.4,12.3,42.4,37c0,30.8-32.4,41.1-79.1,43.1
			c2.3,14.9,11.3,26.7,32.4,26.7c10.8,0,19-2.6,26.4-6.2l1.3,1l-1,5.9c-3.3,15.4-18.2,21.6-37.5,21.6
			C228.9,213.8,211.4,192,211.4,160.4z M239.2,146.3c28.2-1.3,52.6-5.1,52.6-24.9c0-9.8-6.7-16.2-18.7-16.2
			C253.6,105.2,241.7,125.2,239.2,146.3z"/>
		<path d="M425.6,212.3c5.1-32.6,10.5-58,16.9-82.7c-13.1,22.6-26.7,43.4-41.9,64.7c-6.7,2.6-15.4,3.9-23.4,3.9
			c-4.9-21.1-9.8-45.4-12.6-69.3c-6.4,24.1-11.8,49.8-16.9,82.4h-24.1c7.7-46,16.4-84.5,27.5-120.4c9.8-4.1,21.8-5.4,31.6-5.4
			c1.5,23.9,5.9,56,11.6,82.7c16.9-24.9,37.5-58.5,47.2-77.5c10.8-4.4,25.2-5.1,35.9-5.1c-10,37.7-19.3,76-25.2,114.3
			C450.5,212,443.6,212.3,425.6,212.3z"/>
		<path d="M485.4,160.4c0-39.5,22.6-75.7,64.7-75.7c23.1,0,42.4,12.3,42.4,37c0,30.8-32.4,41.1-79.1,43.1
			c2.3,14.9,11.3,26.7,32.4,26.7c10.8,0,19-2.6,26.4-6.2l1.3,1l-1,5.9c-3.3,15.4-18.2,21.6-37.5,21.6
			C502.9,213.8,485.4,192,485.4,160.4z M513.1,146.3c28.2-1.3,52.6-5.1,52.6-24.9c0-9.8-6.7-16.2-18.7-16.2
			C527.5,105.2,515.7,125.2,513.1,146.3z"/>
		<path d="M597.6,211.3c8.2-47,14.6-78.6,25.7-113.2c3.3-11,10.5-11.8,29.5-11.8c-5.6,17.2-10.5,35.2-15.1,54.2H689
			c4.4-18.5,9.2-35.9,14.9-53.1h26.7c-11.8,37.2-19,68.3-26.4,113.7c-1.8,11-9.2,11.3-28.2,11.3c2.6-17.7,5.1-33.9,8.2-49.6h-51.4
			c-3.1,15.7-6.2,31.6-9,48.5H597.6z"/>
		<path d="M729.6,211.3c8.2-47,14.6-78.6,25.7-113.2c3.3-11,10.5-11.8,29.5-11.8c-5.6,17.2-10.5,35.2-15.1,54.2H821
			c4.4-18.5,9.2-35.9,14.9-53.1h26.7c-11.8,37.2-19,68.3-26.4,113.7c-1.8,11-9.2,11.3-28.2,11.3c2.6-17.7,5.1-33.9,8.2-49.6h-51.4
			c-3.1,15.7-6.2,31.6-9,48.5H729.6z"/>
		<path d="M933.2,84.7c13.6,0,23.1,6.9,28.5,18.7l4.1-16.2h25.9c-10.8,42.4-16.2,72.4-20.8,111.9c-1.8,12.8-10.3,13.1-28.5,13.1
			c1.5-14.1,3.1-26.7,4.9-38.3c-13.6,22.1-31.6,39.8-52.4,39.8c-16.9,0-28.2-13.1-28.2-37.7C866.7,130.9,896.5,84.7,933.2,84.7z
			 M906.8,190.2c18.5,0,40.8-37.7,48.5-62.6c-1-11-7.4-20.3-19.3-20.3c-24.1,0-41.9,34.9-41.9,64.2
			C894.2,182.2,897.5,190.2,906.8,190.2z"/>
		<path d="M1063.9,212.3c3.1-17.5,5.6-30.8,8-41.6h-20.5l-18.7,27.2c-8.5,12.3-16.9,15.9-28.2,15.9c-10,0-18.2-5.4-16.4-13.4l1-4.9
			h2.1c7.4,0,13.6-3.9,19.5-11l17.7-22.1c-11.3-6.4-17.5-17.2-17.5-30.8c0-29.5,25.4-45.2,52.9-45.2h5.1c22.9,0,39.8,8,39.8,31.8
			c0,12.8-6.4,28.5-15.9,82.7C1090.6,212,1082.4,212.3,1063.9,212.3z M1056.2,151.9h19.5c3.6-14.9,5.4-20.8,5.4-28.5
			c0-10-5.9-15.4-16.4-15.4h-1.5c-13.9,0-24.1,9.5-24.1,24.6C1039,143.2,1045.2,151.9,1056.2,151.9z"/>
	</g>
	<g>
		<g>
			<path d="M-261.2,24.5V16h-4.8l-5,6.4c-1.4,1.9-2.3,2.2-3.7,2.2c-0.9,0-1.7-0.4-1.7-1.5v-0.5h0.5c1.3,0,2.2-0.4,3.2-1.6l4.7-5.5
				c-3.4-0.8-6.1-2.9-6.1-7c0-4.6,4-7.1,8.7-7.1h1.9c3.4,0,4.6,1.2,4.6,4.6v17.4C-259.1,24.5-259.4,24.5-261.2,24.5z M-265.9,14h4.7
				V6.1c0-1.9-0.8-2.7-2.8-2.7h-1.2c-3.6,0-6.8,1.6-6.8,5.5C-272.1,12.3-269,14-265.9,14z"/>
			<path d="M-241,24.5V12c0-1.9-0.7-2.8-2.7-2.8h-7.7v15.2h-2V8.5c0-1.1,0.3-1.1,2-1.1h8c3.2,0,4.4,1.2,4.4,4.4v11.7
				C-239.1,24.5-239.3,24.5-241,24.5z"/>
			<path d="M-226.8,24.8c-4.6,0-7.8-3.9-7.8-9.2c0-5.5,3-8.5,7.8-8.5s7.8,3,7.8,8.5C-218.9,20.9-222.2,24.8-226.8,24.8z M-226.8,8.9
				c-3.8,0-5.8,2.6-5.8,6.7c0,4,2.2,7.3,5.8,7.3c3.6,0,5.8-3.3,5.8-7.3C-221,11.4-222.9,8.9-226.8,8.9z"/>
			<path d="M-214.5,24.4v-16c0-1.1,0.3-1.1,2-1.1v8.1h10.3v-8h2v16c0,1.1-0.3,1.1-2,1.1v-7.4h-10.3v7.3H-214.5z"/>
			<path d="M-182.7,22.6c0,1.5-2.8,2.1-5,2.1c-5,0-8.1-3.5-8.1-9.4c0-4.8,3.6-8.3,8.2-8.3c2.9,0,5.5,1.4,5.5,4.4
				c0,1-0.5,1.5-1.1,1.5h-0.7v-0.6c0-2.5-1.7-3.5-3.9-3.5c-3.6,0-6,3.1-6,6.5c0,4.4,2,7.5,6.7,7.5c1.5,0,3-0.3,4.3-0.9V22.6z"/>
			<path d="M-168.6,22.7l-4.2-5.7c-0.2,0-0.5,0-0.8,0h-2.2v7.3h-2v-16c0-1.1,0.3-1.1,2-1.1v8h2.6c4.9,0,2.8-8.2,8.1-8.2
				c0.7,0,1.4,0.3,1.4,1v0.5h-0.3c-4.1,0-3,5.9-6.7,7.8l4.2,5.2c0.7,1,1.5,1.5,2.6,1.5h0.3v0.6c0,0.7-1,1-1.7,1
				C-166.9,24.7-167.5,24.3-168.6,22.7z"/>
			<path d="M-147,24.5V10.7l-11.2,13.9c-0.6,0-1.1-0.3-1.6-0.6V8.4c0-1.1,0.3-1.1,2-1.1v13.8l11.2-13.8c0.6,0,1.1,0.2,1.6,0.6v15.5
				C-145.1,24.5-145.3,24.5-147,24.5z"/>
			<path d="M-127,24.5V10.7l-11.2,13.9c-0.6,0-1.1-0.3-1.6-0.6V8.4c0-1.1,0.3-1.1,2-1.1v13.8l11.2-13.8c0.6,0,1.1,0.2,1.6,0.6v15.5
				C-125,24.5-125.3,24.5-127,24.5z M-137.2-0.5c0-0.8,0.5-1,1.2-1c0,2.4,2,3.4,3.9,3.4c1.9,0,3.9-1,3.9-3.4c0.7,0,1.3,0.2,1.3,1
				c0,2.3-1.9,4.4-5.1,4.4C-135.3,3.9-137.2,1.8-137.2-0.5z"/>
			<path d="M-99.5,24.5V10.7l-11.2,13.9c-0.6,0-1.1-0.3-1.6-0.6V8.4c0-1.1,0.3-1.1,2-1.1v13.8l11.2-13.8c0.6,0,1.1,0.2,1.6,0.6v15.5
				C-97.5,24.5-97.7,24.5-99.5,24.5z"/>
			<path d="M-80.2,24.5V12c0-1.9-0.7-2.8-2.6-2.8h-4.5l-1.5,11.9c-0.3,2.5-1.5,3.6-3.4,3.6c-0.9,0-2-0.3-2-1.3v-0.7
				c0.4,0.1,0.9,0.2,1.4,0.2c1.2,0,1.9-0.8,2.1-2.2l1.7-11.4h-1.7c0-1.3,0-1.9,0.7-1.9h7.4c3.2,0,4.4,1.2,4.4,4.4v11.7
				C-78.2,24.5-78.5,24.5-80.2,24.5z"/>
			<path d="M-60.9,24.5V12c0-1.9-0.7-2.8-2.6-2.8h-4.5l-1.5,11.9c-0.3,2.5-1.5,3.6-3.4,3.6c-0.9,0-2-0.3-2-1.3v-0.7
				c0.4,0.1,0.9,0.2,1.4,0.2c1.2,0,1.9-0.8,2.1-2.2l1.7-11.4h-1.7c0-1.3,0-1.9,0.7-1.9h7.4c3.2,0,4.4,1.2,4.4,4.4v11.7
				C-58.9,24.5-59.2,24.5-60.9,24.5z"/>
			<path d="M-53.6,24.4v-16c0-1.1,0.3-1.1,2-1.1v8.1h4.8c0-5.4,3-8.3,7.6-8.3c4.6,0,7.7,3,7.7,8.4c0,5.3-3,9.3-7.7,9.3
				c-4.2,0-7-3.2-7.5-7.6h-4.9v7.3H-53.6z M-39.2,8.9c-3.5,0-5.5,2.5-5.5,6.6c0,4,2,7.4,5.5,7.4c3.5,0,5.5-3.4,5.5-7.4
				C-33.7,11.3-35.7,8.9-39.2,8.9z"/>
			<path d="M-15.2,22.6c0,1.5-2.8,2.1-5,2.1c-5,0-8.1-3.5-8.1-9.4c0-4.8,3.6-8.3,8.2-8.3c2.9,0,5.5,1.4,5.5,4.4c0,1-0.5,1.5-1.1,1.5
				h-0.7v-0.6c0-2.5-1.7-3.5-3.9-3.5c-3.6,0-6,3.1-6,6.5c0,4.4,2,7.5,6.7,7.5c1.5,0,3-0.3,4.3-0.9V22.6z"/>
			<path d="M-5.8,24.4V9.2H-12V7.4H1.8c0.7,0,0.8,0.6,0.8,1.9h-6.5v15.2H-5.8z"/>
			<path d="M6.3,30.3V8.4c0-1.1,0.3-1.1,2-1.1v4.8C9.5,9,12,7,15.2,7c4.2,0,6.6,3.4,6.6,8c0,5.1-3.1,9.7-8,9.7
				c-2.5,0-4.5-1.2-5.5-3.3v8.8H6.3z M14.7,8.9c-3.7,0-6.2,3.6-6.2,8.3c0,2.8,1.8,5.7,5,5.7c4.1,0,6.2-3.9,6.2-7.8
				C19.7,11.7,18.1,8.9,14.7,8.9z"/>
			<path d="M30.7,15l5.2-0.6l0-0.8c-0.2-3.4-2.4-4.6-5.1-4.6c-1.7,0-3.1,0.5-4.5,1.1V9.3C26.2,8,29.1,7,31.5,7c2.8,0,6,1,6.3,6.2
				l0.7,10.2c0.1,1.1-0.4,1.1-2,1.1l-0.3-4.8c-1.2,3.1-3.4,5-6.6,5c-3.4,0-5-2.5-5-5C24.7,17.1,26.6,15.4,30.7,15z M30.3,23.1
				c3.1,0,5.3-3.3,5.6-7.2l-5,0.6c-2.5,0.3-3.8,1.4-3.8,3.2C27,21.6,28.1,23.1,30.3,23.1z"/>
			<path d="M47.3,24.4V9.2h-6.2V7.4h13.8c0.7,0,0.8,0.6,0.8,1.9h-6.5v15.2H47.3z"/>
			<path d="M65.4,24.8c-4.6,0-7.8-3.9-7.8-9.2c0-5.5,3-8.5,7.8-8.5s7.8,3,7.8,8.5C73.3,20.9,70,24.8,65.4,24.8z M65.4,8.9
				c-3.8,0-5.8,2.6-5.8,6.7c0,4,2.2,7.3,5.8,7.3c3.6,0,5.8-3.3,5.8-7.3C71.2,11.4,69.3,8.9,65.4,8.9z"/>
			<path d="M77.7,30.3V8.4c0-1.1,0.3-1.1,2-1.1v4.8C80.9,9,83.4,7,86.6,7c4.2,0,6.6,3.4,6.6,8c0,5.1-3.1,9.7-8,9.7
				c-2.5,0-4.5-1.2-5.5-3.3v8.8H77.7z M86.1,8.9c-3.7,0-6.2,3.6-6.2,8.3c0,2.8,1.8,5.7,5,5.7c4.1,0,6.2-3.9,6.2-7.8
				C91.1,11.7,89.5,8.9,86.1,8.9z"/>
			<path d="M111.4,24.4V3.5h-7.7V1.4h16.8c0.8,0,0.8,0.7,0.8,2.1h-7.8v20.9H111.4z"/>
			<path d="M126.8,15l5.2-0.6l0-0.8c-0.2-3.4-2.4-4.6-5.1-4.6c-1.7,0-3.1,0.5-4.5,1.1V9.3c0-1.3,2.9-2.3,5.3-2.3c2.8,0,6,1,6.3,6.2
				l0.7,10.2c0.1,1.1-0.4,1.1-2,1.1l-0.3-4.8c-1.2,3.1-3.4,5-6.6,5c-3.4,0-5-2.5-5-5C120.8,17.1,122.7,15.4,126.8,15z M126.4,23.1
				c3.1,0,5.3-3.3,5.6-7.2l-5,0.6c-2.5,0.3-3.8,1.4-3.8,3.2C123.2,21.6,124.3,23.1,126.4,23.1z"/>
			<path d="M153.2,30.8c-0.3,0-0.7-0.1-1.2-0.3c0.7-1.8,1.3-4.1,1.5-6.1h-13.9l-0.7,5.4c-0.1,0.7-0.5,0.8-1.8,0.8v-7.2l2.9-0.4
				l3-13.7h-1.7c0-1.3,0-1.9,0.7-1.9h7c3.2,0,4.4,1.2,4.4,4.4v11.2l2.6,0.4v0.3c-0.4,2.4-1.1,4.9-2,6.5
				C153.8,30.5,153.6,30.8,153.2,30.8z M151.5,12c0-1.9-0.7-2.8-2.7-2.8h-4l-2.6,13.3h9.3V12z"/>
			<path d="M164.3,15l5.2-0.6l0-0.8c-0.2-3.4-2.4-4.6-5.1-4.6c-1.7,0-3.1,0.5-4.5,1.1V9.3c0-1.3,2.9-2.3,5.3-2.3c2.8,0,6,1,6.3,6.2
				l0.7,10.2c0.1,1.1-0.4,1.1-2,1.1l-0.3-4.8c-1.2,3.1-3.4,5-6.6,5c-3.4,0-5-2.5-5-5C158.3,17.1,160.2,15.4,164.3,15z M163.9,23.1
				c3.1,0,5.3-3.3,5.6-7.2l-5,0.6c-2.5,0.3-3.8,1.4-3.8,3.2C160.7,21.6,161.8,23.1,163.9,23.1z"/>
			<path d="M188.6,24.4l-5.5-7.2c-2,2.1-3.6,4.2-5.1,7.2h-2.3c1.9-3.5,3.8-6.1,6.4-8.6l-6.1-8.1V7.4h2.3l5.5,7.1
				c2-2.3,3.6-4.7,4.8-7.1h2.2c-1.7,3.3-3.7,6.2-6,8.7l6.2,8v0.3H188.6z"/>
			<path d="M207.4,24.5V10.7l-11.2,13.9c-0.6,0-1.1-0.3-1.6-0.6V8.4c0-1.1,0.3-1.1,2-1.1v13.8l11.2-13.8c0.6,0,1.1,0.2,1.6,0.6v15.5
				C209.4,24.5,209.1,24.5,207.4,24.5z"/>
			<path d="M214.7,30.3V8.4c0-1.1,0.3-1.1,2-1.1v4.8c1.2-3.1,3.7-5.1,6.9-5.1c4.2,0,6.6,3.4,6.6,8c0,5.1-3.1,9.7-8,9.7
				c-2.5,0-4.5-1.2-5.5-3.3v8.8H214.7z M223.1,8.9c-3.7,0-6.2,3.6-6.2,8.3c0,2.8,1.8,5.7,5,5.7c4.1,0,6.2-3.9,6.2-7.8
				C228.1,11.7,226.6,8.9,223.1,8.9z"/>
			<path d="M241.2,24.8c-4.6,0-7.8-3.9-7.8-9.2c0-5.5,3-8.5,7.8-8.5c4.9,0,7.8,3,7.8,8.5C249.1,20.9,245.9,24.8,241.2,24.8z
				 M241.2,8.9c-3.8,0-5.8,2.6-5.8,6.7c0,4,2.2,7.3,5.8,7.3c3.6,0,5.8-3.3,5.8-7.3C247,11.4,245.1,8.9,241.2,8.9z"/>
			<path d="M272,17c-0.7,5.7-3.1,7.8-6.1,7.8c-1.6,0-3-0.5-3-1.6v-0.8c0.6,0.3,1.6,0.4,2.3,0.4c2.5,0,4-1.5,4.4-4.7
				c-4.2-5.4-7.5-10.7-9.9-16.5V1.4h2.5c2,4.8,5,9.7,8.3,14l5.5-14h2.5L272,17z"/>
			<path d="M291.6,22.7c0,1.3-2.6,2.1-5.2,2.1c-4.9,0-8.1-3.3-8.1-9.3c0-4.7,3-8.4,7.5-8.4c4.5,0,6.9,3.3,6.9,7.6
				c0,1.6-1,2.1-2.4,2.1h-9.9c0.4,3.9,2.6,6.1,6.8,6.1c1.5,0,3-0.3,4.4-0.9V22.7z M280.4,15.1h9.1c0.8,0,1.1-0.6,1.1-1.2
				c0-3-1.8-5.1-4.8-5.1C282.3,8.9,280.5,11.7,280.4,15.1z"/>
			<path d="M309.1,22.6c0,1.5-2.8,2.1-5,2.1c-5,0-8.1-3.5-8.1-9.4c0-4.8,3.6-8.3,8.2-8.3c2.9,0,5.5,1.4,5.5,4.4c0,1-0.5,1.5-1.1,1.5
				h-0.7v-0.6c0-2.5-1.7-3.5-3.9-3.5c-3.6,0-6,3.1-6,6.5c0,4.4,2,7.5,6.7,7.5c1.5,0,3-0.3,4.3-0.9V22.6z"/>
			<path d="M328.2,7.7L322,24.2c-0.4,4.6-2.3,6.5-5,6.5c-1.2,0-2.4-0.4-2.4-1.5v-0.7c0.6,0.1,1.1,0.2,1.7,0.2c2,0,3.3-1.3,3.6-4.2
				c-3.2-5.6-5.9-11.4-7.7-17h2.4c1.5,5,3.9,10.1,6.3,14.5l5.2-14.5h2.1V7.7z"/>
			<path d="M333.8,9.2v15.2h-2V8.5c0-1.1,0.3-1.1,2-1.1h9.3c0.7,0,0.7,0.6,0.7,1.9H333.8z"/>
			<path d="M360.5,24.5V10.7l-11.2,13.9c-0.6,0-1.1-0.3-1.6-0.6V8.4c0-1.1,0.3-1.1,2-1.1v13.8l11.2-13.8c0.6,0,1.1,0.2,1.6,0.6v15.5
				C362.4,24.5,362.2,24.5,360.5,24.5z"/>
		</g>
		<g>
			<path d="M378,29c-1.6-3.1-3-8-3-12.4c0-7.7,3.5-12.9,8.5-18.1c0.3-0.4,0.5-0.5,0.8-0.5c0.3,0,0.6,0.3,1.1,0.7
				c-5.3,5.6-8.6,11.3-8.6,17.9c0,4.2,1.2,9,2.6,11.7L378,29z"/>
			<path d="M395.7,3.6c-1.9,6.1-3.4,12.9-4.7,20.8h-2c1.4-8.3,2.8-14.5,4.8-20.9c-1.1-0.1-2.3-0.2-3.4-0.2c-1.4,0-2.8,0.2-3.7,0.8
				l-0.2-0.1c0.1-0.6,0.4-1.3,0.6-1.8c0.9-0.6,2.1-0.8,3.2-0.8c2.5,0,5.8,0.3,8,0.3c2,0,3.5-0.1,4.7-0.5l0.2,0.1l-0.1,0.5
				c-0.4,1.7-2.5,2-4.9,2C397.4,3.8,396.6,3.7,395.7,3.6z"/>
			<path d="M408.2,7c2,0,3.5,1.2,4.2,3.1c0.2-0.9,0.4-1.8,0.6-2.7h1.8c-1.4,5.7-2.1,9.8-2.9,16c-0.1,1.1-0.7,1.1-2.1,1.1
				c0.3-2.8,0.6-5.1,1-7.3c-2.1,4-5.1,7.6-8.3,7.6c-2.5,0-3.8-2-3.8-5C398.8,13.7,402.9,7,408.2,7z M403.3,23
				c3.3,0,7.1-6.1,8.6-10.6c-0.2-1.9-1.4-3.6-3.7-3.6c-4.2,0-7.5,5.7-7.5,10.7C400.7,21.4,401.4,23,403.3,23z"/>
			<path d="M427.5,24.5c0.4-2.5,0.9-5,1.3-7.3c-2.1,4-5.2,7.6-8.4,7.6c-2.5,0-3.8-2-3.8-5c0-6,4.1-12.7,9.3-12.7
				c2.1,0,3.7,1.3,4.4,3.3c0.8-3.1,1.6-6.1,2.5-8.9h1.9c-2.1,6.6-3.8,13.2-5.2,22C429.4,24.5,428.9,24.5,427.5,24.5z M418.5,19.5
				c0,1.9,0.6,3.5,2.5,3.5c3.3,0,7.1-6.1,8.7-10.6c-0.3-1.9-1.4-3.6-3.7-3.6C421.8,8.9,418.5,14.6,418.5,19.5z"/>
			<path d="M444,7c2,0,3.5,1.2,4.2,3.1c0.2-0.9,0.4-1.8,0.6-2.7h1.8c-1.4,5.7-2.1,9.8-2.9,16c-0.1,1.1-0.7,1.1-2.1,1.1
				c0.3-2.8,0.6-5.1,1-7.3c-2.1,4-5.1,7.6-8.3,7.6c-2.5,0-3.8-2-3.8-5C434.7,13.7,438.8,7,444,7z M439.1,23c3.3,0,7.1-6.1,8.6-10.6
				c-0.2-1.9-1.4-3.6-3.7-3.6c-4.2,0-7.5,5.7-7.5,10.7C436.5,21.4,437.2,23,439.1,23z"/>
			<path d="M465.1,23.4c-0.5,1-0.9,1.1-2.4,1.1c2.1-5,3.6-10.7,3.6-13.4c0-1.4-0.5-2.3-1.9-2.3c-3.8,0-8.1,7-10,14.7l-0.1,0.9h-1.8
				c1.4-8.7,3-15.2,5.2-22c0.3-1.1,0.7-1.1,2.2-1.1c-1.5,4.5-2.9,9.4-4.1,14.9c3-6.3,6.4-9.2,9.4-9.2c1.9,0,2.9,1.2,2.9,3.7
				C468.2,14,466.6,20,465.1,23.4z"/>
			<path d="M470.9,22.9c0-2.7,1.8-10.1,3.2-14.5c0.3-1.1,0.7-1.1,2.2-1.1c-1.6,5.2-3.5,12.9-3.5,14.8c0,0.9,0.6,1.2,1.2,1.2
				c0.1,0,0.3,0,0.5-0.1l-0.1,0.4c-0.2,0.8-1,1.1-1.9,1.1C471.6,24.8,470.9,24.2,470.9,22.9z M476.6,2.9c-1,0-1.4-0.5-1.4-1.5
				c0-0.9,0.4-1.5,1.4-1.5c1,0,1.5,0.6,1.5,1.5C478.1,2.4,477.6,2.9,476.6,2.9z"/>
			<path d="M477.7,24.4c1.1-6.4,2.2-11.2,3.7-16c0.3-1.1,0.6-1.1,2.1-1.1c-1.1,3.4-1.9,6.4-2.6,9.8C484,10,486.5,7,489.1,7
				c1,0,1,1,0.5,2.4c-3.4-0.8-7.6,6.1-10,14.2l-0.1,0.8H477.7z"/>
			<path d="M495.7,24.8c-3.6,0-5.4-3.3-5.4-7.1c0-5.4,2.1-10.7,8.4-10.7c3.8,0,6.2,2.2,6.2,6.2C504.9,18,501.7,24.8,495.7,24.8z
				 M498.5,8.8c-4.8,0-6.3,4.7-6.3,8.8c0,2.6,1,5.3,3.7,5.3c4.6,0,7.1-5.9,7.1-9.7C503,10.7,501.5,8.8,498.5,8.8z"/>
			<path d="M515.6,17.7c0-3,2-10.2,3.6-15.2c0.3-1.1,0.8-1.1,2.4-1.1c-2.4,7.8-4,13.7-4,16.2c0,3.4,2,5.4,5,5.4c4,0,6.1-2.4,7-7
				c1-4.7,2.1-9.4,3.8-14.4h2c-1.6,5-2.9,10-3.8,14.8c-1.3,6.4-4.5,8.6-9.1,8.6C518.5,24.8,515.6,22.3,515.6,17.7z"/>
			<path d="M535.6,17.5c0-5.3,2.9-10.4,8.3-10.4c2.9,0,5.2,1.6,5.2,4.7c0,4.3-4.2,5.7-11.5,6c0.2,2.9,1.6,5.2,4.9,5.2
				c1.3,0,2.5-0.3,3.5-0.8l0.1,0.1l-0.1,0.5c-0.3,1.3-2,2-4.2,2C537.7,24.8,535.6,21.8,535.6,17.5z M537.6,16.2
				c5.6-0.3,9.6-1,9.6-4.4c0-1.9-1.4-3-3.4-3C540.2,8.7,537.9,12.3,537.6,16.2z"/>
			<path d="M554.9,24.8c-2.3,0-4.1-0.9-3.9-2.1l0.2-0.7c1,0.7,2.3,1,3.5,1c1.9,0,3.8-0.8,3.8-2.7c0-3-6.2-3.8-6.2-8
				c0-3.4,2.6-5.2,5.9-5.2c2.8,0,4.7,1.4,4.7,3.5c0,1-0.5,2-1.5,2h-0.5c0.1-0.5,0.2-0.8,0.2-1.1c0-1.5-1.1-2.5-3.2-2.5
				c-2.2,0-3.8,1.1-3.8,3c0,3.5,6.3,4,6.3,8.1C560.4,23.2,557.8,24.8,554.9,24.8z"/>
			<path d="M575.1,24.5c0.5-2.7,0.9-4.9,1.3-7.2c-2.8,5.2-5.8,7.4-8.5,7.4c-2,0-3-1.1-3-3.7c0-3.3,1.6-9.3,3.1-12.7
				c0.5-1,0.9-1.1,2.4-1.1c-2.1,5-3.6,10.6-3.6,13.4c0,1.4,0.5,2.3,1.8,2.3c3.3,0,7-5.3,9.1-11.9l1-3.7h1.9c-1.5,5.2-2.5,9.4-3.5,16
				C577,24.5,576.5,24.5,575.1,24.5z"/>
			<path d="M591.1,7c2.2,0,4,1.4,4.7,3.5l1-3.1h1.9c-2,6.5-3.1,10.8-4.2,16.8c-0.8,4.3-3.8,6.5-8.3,6.5c-3.4,0-5.5-1.6-5.5-4
				c0-2.3,1.8-3.6,3.9-4.4c-1.4-0.7-2.1-2.6-2.1-4.8C582.5,12.6,586.2,7,591.1,7z M594.2,16.4c-1.7,2.9-4,5.2-6.5,6
				c-2.6,0.6-5.1,1.8-5.1,3.8c0,1.6,1.5,2.6,3.7,2.6c3.3,0,5.7-1.8,6.3-5.2C593.1,21.1,593.6,18.8,594.2,16.4z M586.9,20.9
				c3.2,0,6.7-4.6,8.3-8.7c-0.3-1.9-1.6-3.4-3.8-3.4c-4.1,0-7,4.5-7,8.5C584.4,19.3,585.1,20.9,586.9,20.9z"/>
			<path d="M600.2,22.9c0-2.7,1.8-10.1,3.2-14.5c0.3-1.1,0.7-1.1,2.2-1.1c-1.6,5.2-3.5,12.9-3.5,14.8c0,0.9,0.6,1.2,1.2,1.2
				c0.1,0,0.3,0,0.5-0.1l-0.1,0.4c-0.2,0.8-1,1.1-1.9,1.1C600.9,24.8,600.2,24.2,600.2,22.9z M605.9,2.9c-1,0-1.4-0.5-1.4-1.5
				c0-0.9,0.4-1.5,1.4-1.5c1,0,1.5,0.6,1.5,1.5C607.4,2.4,606.9,2.9,605.9,2.9z"/>
			<path d="M607.2,28.2c-0.3,0.3-0.6,0.5-0.8,0.5c-0.3,0-0.6-0.3-1-0.7c5.5-5.8,8.5-13,8.5-20c0-3.9-1.3-7-2.6-9.6l1.3-0.7
				c1.6,3,3.1,6.2,3.1,10.3C615.6,15.7,612.4,22.7,607.2,28.2z"/>
		</g>
		<g>
			<path d="M626.6,30.3V8.4c0-1.1,0.3-1.1,2-1.1v4.8c1.2-3.1,3.7-5.1,6.9-5.1c4.2,0,6.6,3.4,6.6,8c0,5.1-3.1,9.7-8,9.7
				c-2.5,0-4.5-1.2-5.5-3.3v8.8H626.6z M635,8.9c-3.7,0-6.2,3.6-6.2,8.3c0,2.8,1.8,5.7,5,5.7c4.1,0,6.2-3.9,6.2-7.8
				C640,11.7,638.4,8.9,635,8.9z"/>
			<path d="M659.2,24.5V10.7l-11.2,13.9c-0.6,0-1.1-0.3-1.6-0.6V8.4c0-1.1,0.3-1.1,2-1.1v13.8l11.2-13.8c0.6,0,1.1,0.2,1.6,0.6v15.5
				C661.2,24.5,661,24.5,659.2,24.5z"/>
			<path d="M678.8,22.6c0,1.5-2.8,2.1-5,2.1c-5,0-8.1-3.5-8.1-9.4c0-4.8,3.6-8.3,8.2-8.3c2.9,0,5.5,1.4,5.5,4.4c0,1-0.5,1.5-1.1,1.5
				h-0.7v-0.6c0-2.5-1.7-3.5-3.9-3.5c-3.6,0-6,3.1-6,6.5c0,4.4,2,7.5,6.7,7.5c1.5,0,3-0.3,4.3-0.9V22.6z"/>
			<path d="M697.9,7.7l-6.2,16.5c-0.4,4.6-2.3,6.5-5,6.5c-1.2,0-2.4-0.4-2.4-1.5v-0.7c0.6,0.1,1.1,0.2,1.7,0.2c2,0,3.3-1.3,3.6-4.2
				c-3.2-5.6-5.9-11.4-7.7-17h2.4c1.5,5,3.9,10.1,6.3,14.5l5.2-14.5h2.1V7.7z"/>
			<path d="M713.4,22.7c0,1.3-2.6,2.1-5.2,2.1c-4.9,0-8.1-3.3-8.1-9.3c0-4.7,3-8.4,7.5-8.4c4.5,0,6.9,3.3,6.9,7.6
				c0,1.6-1,2.1-2.4,2.1h-9.9c0.4,3.9,2.6,6.1,6.8,6.1c1.5,0,3-0.3,4.4-0.9V22.7z M702.2,15.1h9.1c0.8,0,1.1-0.6,1.1-1.2
				c0-3-1.8-5.1-4.8-5.1C704,8.9,702.2,11.7,702.2,15.1z"/>
			<path d="M723,24.4V9.2h-6.2V7.4h13.8c0.7,0,0.8,0.6,0.8,1.9H725v15.2H723z"/>
			<path d="M747.4,15l5.2-0.6l0-0.8c-0.2-3.4-2.4-4.6-5.1-4.6c-1.7,0-3.1,0.5-4.5,1.1V9.3c0-1.3,2.9-2.3,5.3-2.3c2.8,0,6,1,6.3,6.2
				l0.7,10.2c0.1,1.1-0.4,1.1-2,1.1l-0.3-4.8c-1.2,3.1-3.4,5-6.6,5c-3.4,0-5-2.5-5-5C741.4,17.1,743.3,15.4,747.4,15z M747,23.1
				c3.1,0,5.3-3.3,5.6-7.2l-5,0.6c-2.5,0.3-3.8,1.4-3.8,3.2C743.8,21.6,744.9,23.1,747,23.1z"/>
			<path d="M764,24.4V9.2h-6.2V7.4h13.8c0.8,0,0.8,0.6,0.8,1.9H766v15.2H764z"/>
			<path d="M792.1,24.5V10.7c-1.8,3.9-3.6,7.1-6.1,10.9c-0.6,0.3-1.3,0.4-2,0.4c-2.4-3.8-4.3-7.4-6.1-11.3v13.7h-1.9V8
				c0.7-0.5,1.6-0.7,2.4-0.8c1.6,4,3.9,8.4,6.5,12.6c2.5-4,5-8.7,6.5-11.9c0.7-0.5,1.6-0.6,2.4-0.7v16.2
				C794,24.5,793.7,24.5,792.1,24.5z"/>
			<path d="M806.3,24.8c-4.6,0-7.8-3.9-7.8-9.2c0-5.5,3-8.5,7.8-8.5c4.9,0,7.8,3,7.8,8.5C814.2,20.9,811,24.8,806.3,24.8z
				 M806.3,8.9c-3.8,0-5.8,2.6-5.8,6.7c0,4,2.2,7.3,5.8,7.3c3.6,0,5.8-3.3,5.8-7.3C812.1,11.4,810.2,8.9,806.3,8.9z"/>
			<path d="M830.5,22.6c0,1.5-2.8,2.1-5,2.1c-5,0-8.1-3.5-8.1-9.4c0-4.8,3.6-8.3,8.2-8.3c2.9,0,5.5,1.4,5.5,4.4c0,1-0.5,1.5-1.1,1.5
				h-0.7v-0.6c0-2.5-1.7-3.5-3.9-3.5c-3.6,0-6,3.1-6,6.5c0,4.4,2,7.5,6.7,7.5c1.5,0,3-0.3,4.3-0.9V22.6z"/>
			<path d="M841,7c1.9,0,3.4,1,4.3,2.9V1.3c0-1.1,0.2-1.1,1.9-1.1v12.4c1-3.2,3.1-5.5,6-5.5c3.3,0,5.3,3,5.3,7.6
				c0,5-2.7,9.7-6.9,9.7c-2,0-3.5-1-4.3-3v8.9h-1.9V18.9c-1.1,3.1-3.1,5.4-6,5.4c-3.3,0-5.2-2.9-5.2-7.6C834.1,11.7,836.8,7,841,7z
				 M840.1,22.5c3.1,0,5-4.1,5-8.1c0-3.4-1.5-5.5-3.9-5.5c-3.3,0-5.1,4-5.1,7.8C836.2,20.4,837.6,22.5,840.1,22.5z M852.4,8.9
				c-3.1,0-5,4.1-5,8.1c0,3.4,1.5,5.5,3.9,5.5c3.3,0,5.1-4,5.1-7.8C856.3,11,854.9,8.9,852.4,8.9z"/>
			<path d="M874.9,22.7c0,1.3-2.6,2.1-5.2,2.1c-4.9,0-8.1-3.3-8.1-9.3c0-4.7,3-8.4,7.5-8.4s6.9,3.3,6.9,7.6c0,1.6-1,2.1-2.4,2.1
				h-9.9c0.4,3.9,2.6,6.1,6.8,6.1c1.5,0,3-0.3,4.4-0.9V22.7z M863.7,15.1h9.1c0.8,0,1.1-0.6,1.1-1.2c0-3-1.8-5.1-4.8-5.1
				C865.6,8.9,863.8,11.7,863.7,15.1z"/>
			<path d="M880.3,30.3V8.4c0-1.1,0.3-1.1,2-1.1v4.8C883.5,9,886,7,889.2,7c4.2,0,6.6,3.4,6.6,8c0,5.1-3.1,9.7-8,9.7
				c-2.5,0-4.5-1.2-5.5-3.3v8.8H880.3z M888.7,8.9c-3.7,0-6.2,3.6-6.2,8.3c0,2.8,1.8,5.7,5,5.7c4.1,0,6.2-3.9,6.2-7.8
				C893.7,11.7,892.2,8.9,888.7,8.9z"/>
			<path d="M900.2,24.4v-16c0-1.1,0.3-1.1,2-1.1v8.1h10.3v-8h2v16c0,1.1-0.2,1.1-2,1.1v-7.4h-10.3v7.3H900.2z"/>
			<path d="M925.3,24.4h-1c-3,0-4.5-1.2-4.5-4.1V8.2c0-0.9,0.4-0.9,2-0.9v7.2h3.5c3.4,0,6.1,1.2,6.1,4.6
				C931.4,22.8,928.5,24.4,925.3,24.4z M921.8,16.2v3.9c0,1.8,0.8,2.6,2.7,2.6h0.7c2.2,0,4.1-1,4.1-3.4c0-2.4-2.1-3.1-4.1-3.1H921.8
				z M934.5,24.4v-16c0-1.1,0.3-1.1,1.9-1.1v17.1H934.5z"/>
			<path d="M954.2,22.7c0,1.3-2.6,2.1-5.2,2.1c-4.9,0-8.1-3.3-8.1-9.3c0-4.7,3-8.4,7.5-8.4s6.9,3.3,6.9,7.6c0,1.6-1,2.1-2.4,2.1H943
				c0.4,3.9,2.6,6.1,6.8,6.1c1.5,0,3-0.3,4.4-0.9V22.7z M943,15.1h9.1c0.8,0,1.1-0.6,1.1-1.2c0-3-1.8-5.1-4.8-5.1
				C944.8,8.9,943,11.7,943,15.1z"/>
			<path d="M976.2,22.7L972,17c-0.3,0-0.5,0-0.8,0H969v7.3h-2v-16c0-1.1,0.3-1.1,2-1.1v8h2.6c4.9,0,2.8-8.2,8.1-8.2
				c0.7,0,1.4,0.3,1.4,1v0.5h-0.3c-4.1,0-3,5.9-6.7,7.8l4.2,5.2c0.8,1,1.5,1.5,2.6,1.5h0.3v0.6c0,0.7-1,1-1.7,1
				C977.9,24.7,977.3,24.3,976.2,22.7z"/>
			<path d="M989.8,15l5.2-0.6l0-0.8c-0.2-3.4-2.4-4.6-5.1-4.6c-1.7,0-3.1,0.5-4.5,1.1V9.3c0-1.3,2.9-2.3,5.3-2.3c2.8,0,6,1,6.3,6.2
				l0.7,10.2c0.1,1.1-0.4,1.1-2,1.1l-0.3-4.8c-1.2,3.1-3.4,5-6.6,5c-3.4,0-5-2.5-5-5C983.9,17.1,985.8,15.4,989.8,15z M989.5,23.1
				c3.1,0,5.3-3.3,5.6-7.2l-5,0.6c-2.5,0.3-3.8,1.4-3.8,3.2C986.2,21.6,987.3,23.1,989.5,23.1z"/>
			<path d="M1002.7,30.3V8.4c0-1.1,0.3-1.1,2-1.1v4.8c1.2-3.1,3.7-5.1,6.9-5.1c4.2,0,6.6,3.4,6.6,8c0,5.1-3.1,9.7-8,9.7
				c-2.5,0-4.5-1.2-5.5-3.3v8.8H1002.7z M1011,8.9c-3.7,0-6.2,3.6-6.2,8.3c0,2.8,1.8,5.7,5,5.7c4.1,0,6.2-3.9,6.2-7.8
				C1016,11.7,1014.5,8.9,1011,8.9z"/>
			<path d="M1026.4,24.4V9.2h-6.2V7.4h13.8c0.8,0,0.8,0.6,0.8,1.9h-6.5v15.2H1026.4z"/>
			<path d="M1051.3,24.5V10.7l-11.2,13.9c-0.6,0-1.1-0.3-1.6-0.6V8.4c0-1.1,0.3-1.1,2-1.1v13.8l11.2-13.8c0.6,0,1.1,0.2,1.6,0.6
				v15.5C1053.3,24.5,1053,24.5,1051.3,24.5z"/>
			<path d="M1058.6,24.4v-16c0-1.1,0.3-1.1,2-1.1v8.1h10.3v-8h2v16c0,1.1-0.2,1.1-2,1.1v-7.4h-10.3v7.3H1058.6z"/>
			<path d="M1087.4,22.7l-4.2-5.7c-0.3,0-0.5,0-0.8,0h-2.2v7.3h-2v-16c0-1.1,0.3-1.1,2-1.1v8h2.6c4.9,0,2.8-8.2,8.1-8.2
				c0.7,0,1.4,0.3,1.4,1v0.5h-0.3c-4.1,0-3,5.9-6.7,7.8l4.2,5.2c0.8,1,1.5,1.5,2.6,1.5h0.3v0.6c0,0.7-1,1-1.7,1
				C1089.1,24.7,1088.5,24.3,1087.4,22.7z"/>
			<path d="M1109,24.5V10.7l-11.2,13.9c-0.6,0-1.1-0.3-1.6-0.6V8.4c0-1.1,0.3-1.1,2-1.1v13.8l11.2-13.8c0.6,0,1.1,0.2,1.6,0.6v15.5
				C1110.9,24.5,1110.7,24.5,1109,24.5z"/>
			<path d="M1116.2,22.8c0-1.1,0.6-1.8,1.7-1.8s1.7,0.7,1.7,1.8c0,1.2-0.6,1.8-1.7,1.8S1116.2,24,1116.2,22.8z"/>
		</g>
	</g>
	<g>
		<path fill="#231F20" d="M-214.3,665.9c-49.7,0-74.6-26.6-74.6-74.6c0-45.7,24.9-74.6,74.6-74.6s74.6,28.9,74.6,74.6
			C-139.8,639.3-164.7,665.9-214.3,665.9z M-165.6,579.5h-49.9l22.4-19.3c-11.3-13.4-18.1-17.6-25.9-10.8l-49.4,41.9l49.4,41.9
			c8.5,7.3,14.6,3.1,25.9-10.6l-21.9-19.3h49.4V579.5z M-35,665.9c-49.7,0-74.6-26.6-74.6-74.6c0-45.7,24.9-74.6,74.6-74.6
			s74.6,28.9,74.6,74.6C39.6,639.3,14.6,665.9-35,665.9z M-23,590.1L-4,612C9.7,601,13.9,594.6,6.9,586.1L-35,537l-42.1,49.2
			c-6.6,7.8-2.6,14.8,11.1,25.9l19.3-22.1v49.7H-23V590.1z M144.3,665.9c-49.7,0-74.6-26.6-74.6-74.6c0-45.7,24.9-74.6,74.6-74.6
			s74.6,28.9,74.6,74.6C218.9,639.3,194,665.9,144.3,665.9z M149,549.4c-7.8-6.8-14.6-2.6-25.9,10.8l22.4,19.3H95.6v23.8H145
			l-21.9,19.3c11.3,13.6,17.4,17.9,25.9,10.6l49.4-41.9L149,549.4z M323.7,665.9c-49.7,0-74.6-26.6-74.6-74.6
			c0-45.7,24.9-74.6,74.6-74.6s74.6,28.9,74.6,74.6C398.2,639.3,373.3,665.9,323.7,665.9z M365.5,596.3c7.1-8.2,2.8-14.6-10.8-25.9
			l-19.1,22.1v-49.7h-23.8v49.9l-19.3-22.4c-13.6,11.3-17.6,18.1-11.1,25.9l42.1,49.4L365.5,596.3z M503,665.9
			c-49.7,0-74.6-26.6-74.6-74.6c0-45.7,24.9-74.6,74.6-74.6s74.6,28.9,74.6,74.6C577.6,639.3,552.6,665.9,503,665.9z M507.7,577.7
			l32.7,2.8c1.4-17.6,0.9-23.3-9.6-24l-67.5-5.4l5.9,67.1c0.7,9.9,6.4,11.1,23.8,9.6l-3.1-32l38.8,38.6l17.9-17.9L507.7,577.7z
			 M682.3,665.9c-49.7,0-74.6-26.6-74.6-74.6c0-45.7,24.9-74.6,74.6-74.6s74.6,28.9,74.6,74.6C756.9,639.3,732,665.9,682.3,665.9z
			 M722.1,551.1l-67.5,5.4c-10.6,0.7-11.1,6.4-9.6,24l32.7-2.8l-38.8,38.8l17.9,17.9l38.8-38.6l-3.1,32c17.4,1.4,23.1,0.2,23.8-9.6
			L722.1,551.1z M861.7,665.9c-49.7,0-74.6-26.6-74.6-74.6c0-45.7,24.9-74.6,74.6-74.6s74.6,28.9,74.6,74.6
			C936.3,639.3,911.3,665.9,861.7,665.9z M895.5,564.5c-0.7-9.6-6.4-10.8-23.8-9.6l3.1,32.2L836,548.5l-17.9,17.9l38.8,38.8
			l-32.7-2.8c-1.4,17.6-0.9,23.1,9.6,24l67.5,5.4L895.5,564.5z M1041,665.9c-49.7,0-74.6-26.6-74.6-74.6c0-45.7,24.9-74.6,74.6-74.6
			c49.7,0,74.6,28.9,74.6,74.6C1115.6,639.3,1090.6,665.9,1041,665.9z M1078.4,602.4l-32.7,2.8l38.8-38.8l-17.9-17.9l-38.8,38.6
			l3.1-32.2c-17.4-1.2-23.1,0-23.8,9.6l-5.9,67.3l67.5-5.4C1079.3,625.4,1079.8,620,1078.4,602.4z"/>
	</g>
</g>
</svg>
