<svg id="Layer_1" data-name="Layer 1" xmlns="http://www.w3.org/2000/svg" xmlns:xlink="http://www.w3.org/1999/xlink" viewBox="0 0 1516 1036"><defs><style>.cls-1{fill:none;}.cls-2{fill:#ededed;}.cls-3{clip-path:url(#clip-path);}</style><clipPath id="clip-path"><rect class="cls-1" width="1516" height="1036"/></clipPath></defs><title>Artboard 1</title><rect class="cls-2" width="1514" height="1036"/><g class="cls-3"><path d="M1397.32,369h-28.83l13.7-48.46h1Zm-33.94-81.18-44.58,136h34.36l9.4-29h40.69l9.41,29h37l-47-136Zm-156,0v136h35V390l12.07-16.77,24.74,50.51h39.67l-41.1-78.52,38.64-57.46h-38.44l-35.17,53h-.41v-53Zm-90.79,83.83v52.15h35.17V371.41l45.19-83.63h-36.6l-25.15,50.91h-.62l-23.31-50.91h-38.44Zm-111.24-83.83-44.57,136h34.35l29-103.26h1l29.44,103.26h37l-47-136Zm-122.68,0v136h35.17V318.45h58.68V287.78Zm-99.17,136h35.17v-136H783.49ZM718.06,369H689.22l13.7-48.46h1Zm-33.95-81.18-44.57,136h34.35l9.4-29H724l9.4,29h37l-47-136Zm-156,0v136h35V390l12.07-16.77,24.74,50.51h39.67l-41.1-78.52,38.64-57.46H598.64l-35.17,53h-.41v-53Zm-162.56,0v136h35V390l12.06-16.77,24.74,50.51H477l-41.1-78.52,38.65-57.46H436.08l-35.17,53h-.4v-53ZM302,278.17c9.61,0,15.95-6.34,15.95-14.72,0-8.18-6.34-14.93-15.75-14.93-9.81,0-15.74,6.75-15.74,14.93,0,8.38,5.93,14.72,15.54,14.72m45,0c9.41,0,15.75-6.34,15.75-14.72,0-8.18-6.14-14.93-15.75-14.93s-15.74,6.75-15.74,14.93c0,8.38,6.13,14.72,15.74,14.72M306.65,423.76h35.17v-136H306.65Zm-108.58-136v136h90.38V393.09H233.24V369.57h46V339.31h-46V318.45H287V287.78Zm-122.27,0v136h35V390l12.07-16.77,24.74,50.51h39.67l-41.1-78.52,38.64-57.46H146.34l-35.17,53h-.41v-53Z"/><path d="M1400.81,929.35c0,9.77,1.61,18.4,16.9,18.4a25.69,25.69,0,0,0,13.91-4l-3.11-7.47a15.49,15.49,0,0,1-8,2.53c-5,0-8-2.07-8-9.54V888.55h-11.61ZM1336.67,946h11.38l18-43.79L1382.53,946h11.27l-24.49-64c-4.71-12.18-8-18.5-19.42-18.5a20.83,20.83,0,0,0-12.07,3.79l2.87,7.82c3-2.07,5.17-3,8.16-3,5.63,0,7.36,3.45,11,13.45l1.38,3.68Zm-37.82-89.89-8.62,23.57,4.37,2.18a158.48,158.48,0,0,0,11.15-15.63,9.4,9.4,0,0,0,2-5.06c0-3.79-5.17-4.83-8.85-5.06m-18.74,62.65c.12-15.17,5.29-22.76,13.11-22.76,6.89,0,11.38,4.6,15.51,25.86-4.25,11.38-10.45,16.78-16.32,16.78-7.47,0-12.41-6.55-12.3-19.88m-10.69.8c-.11,19.77,8.85,28.17,22,28.17,8.16,0,15.86-5.29,21.15-13.8l.46,1.61c2.76,8.85,4.83,11.84,12.41,11.84a20.85,20.85,0,0,0,9-2.41l-1.73-7a10.06,10.06,0,0,1-5.51,1.38c-3.34,0-4-.8-6.21-7.47l-2.53-8c3.68-8.05,7.59-20.46,10.35-35.29l-10-1.73a181.88,181.88,0,0,1-5,22c-2.87-14.49-9.54-22-20.69-22-12.07,0-23.56,8.28-23.68,32.76M1213.67,946h11.27l.11-3.33,12.19-21.15,17,24.48h11.38l-23.34-33.22c10-16.09,11.27-17.24,16.21-17.24a9.76,9.76,0,0,1,4.48,1.15l2.07-7.59a15.62,15.62,0,0,0-8.39-2.3c-7.35,0-10.92,2-20.23,18l-11.26,19.43V888.55h-11.5Zm-38.05-7c-11.49,0-13.44-12.3-13.44-23.34,0-11.72,4.36-20.11,13.79-20.11,9.88,0,13.33,8.74,13.33,22,0,12.3-4,21.5-13.68,21.5m-.8,8.74c14.83,0,26.21-9.89,26.21-32.19,0-26.21-16.1-28.74-24.26-28.74-11.72,0-26.32,6.32-26.32,30.23,0,20.81,9.31,30.7,24.37,30.7m-80.12-49.43h18c-.92,10.69-1.73,21.95-1.73,29.54,0,11.26,2.19,19.89,17.48,19.89,4.94,0,10.46-1.61,13.79-4l-3.1-7.47a14.74,14.74,0,0,1-7.93,2.53c-5.06,0-8.63-2.07-8.63-11.38,0-7.7.69-18.51,1.38-29.08h20.81v-9.77H1094.7Zm-41.38,36.21V913.72c0-14.14,6.67-18.05,12.87-18.05,12.07,0,13.8,10.23,13.8,22.19,0,14.94-6.44,21.38-14.37,21.38a19.81,19.81,0,0,1-12.3-4.71m-11.5,35.63h11.5V944a25.94,25.94,0,0,0,13.22,3.8c14.83,0,25.06-10.92,25.06-31,0-19.66-8.17-29.89-25.41-29.89-12.07,0-24.37,6.21-24.37,29ZM1005,939c-11.49,0-13.45-12.3-13.45-23.34,0-11.72,4.37-20.11,13.8-20.11,9.88,0,13.33,8.74,13.33,22,0,12.3-4,21.5-13.68,21.5m-.8,8.74c14.83,0,26.2-9.89,26.2-32.19,0-26.21-16.09-28.74-24.25-28.74-11.72,0-26.32,6.32-26.32,30.23,0,20.81,9.31,30.7,24.37,30.7M916.65,946h10.92l3.1-48.16h19l.91,36c.23,8.85,3.22,13.68,12.42,13.68a20.48,20.48,0,0,0,9.88-2.53l-2-6.9a11.89,11.89,0,0,1-4.83,1.15c-3.33,0-4.48-1.61-4.6-6.67l-.92-34.71h11.61v-9.31H908.25v9.31h11.5ZM855,856.13l-8.62,23.57,4.37,2.18a155.18,155.18,0,0,0,11.15-15.63,9.4,9.4,0,0,0,2-5.06c0-3.79-5.17-4.83-8.85-5.06m-26.44,69.43c0,16.32,9.2,22.07,22.88,22.07,14.6,0,24.94-9.2,24.94-30.58a70.07,70.07,0,0,0-5.63-28.5H859.29a76.92,76.92,0,0,1,5.63,30c0,8.85-2,20.11-13.22,20.11-8.74,0-11.61-6-11.61-12.87V888.55h-11.5ZM790.66,939c-11.49,0-13.45-12.3-13.45-23.34,0-11.72,4.37-20.11,13.8-20.11,9.88,0,13.33,8.74,13.33,22,0,12.3-4,21.5-13.68,21.5m-.8,8.74c14.83,0,26.21-9.89,26.21-32.19,0-26.21-16.1-28.74-24.26-28.74-11.72,0-26.32,6.32-26.32,30.23,0,20.81,9.31,30.7,24.37,30.7m-58.4-18.4c0,9.77,1.61,18.4,16.9,18.4a25.69,25.69,0,0,0,13.91-4l-3.1-7.47a15.53,15.53,0,0,1-8,2.53c-4.94,0-8-2.07-8-9.54V888.55H731.46ZM667.32,946H678.7l18-43.79L713.19,946h11.26L700,882c-4.72-12.18-8.05-18.5-19.43-18.5a20.85,20.85,0,0,0-12.07,3.79l2.87,7.82c3-2.07,5.18-3,8.17-3,5.63,0,7.35,3.45,11,13.45l1.38,3.68Zm-56.55-27.24c.11-15.17,5.28-22.76,13.1-22.76,6.9,0,11.38,4.6,15.52,25.86-4.25,11.38-10.46,16.78-16.32,16.78-7.48,0-12.42-6.55-12.3-19.88m-10.69.8c-.12,19.77,8.85,28.17,21.95,28.17,8.16,0,15.87-5.29,21.15-13.8l.46,1.61c2.76,8.85,4.83,11.84,12.42,11.84a20.8,20.8,0,0,0,9-2.41l-1.72-7a10.09,10.09,0,0,1-5.52,1.38c-3.33,0-4-.8-6.21-7.47l-2.53-8c3.68-8.05,7.59-20.46,10.35-35.29l-10-1.73a180.23,180.23,0,0,1-4.94,22c-2.88-14.49-9.54-22-20.69-22-12.07,0-23.57,8.28-23.68,32.76m-55.75-21.26h18c-.92,10.69-1.72,21.95-1.72,29.54,0,11.26,2.18,19.89,17.47,19.89,5,0,10.46-1.61,13.8-4l-3.11-7.47a14.71,14.71,0,0,1-7.93,2.53c-5.06,0-8.62-2.07-8.62-11.38,0-7.7.69-18.51,1.38-29.08h20.81v-9.77H544.33ZM492.6,925.56c0,16.32,9.19,22.07,22.87,22.07,14.6,0,24.95-9.2,24.95-30.58a70.23,70.23,0,0,0-5.63-28.5h-11.5a76.92,76.92,0,0,1,5.63,30c0,8.85-1.95,20.11-13.22,20.11-8.73,0-11.61-6-11.61-12.87V888.55H492.6ZM454.67,939c-11.5,0-13.45-12.3-13.45-23.34,0-11.72,4.37-20.11,13.79-20.11,9.89,0,13.34,8.74,13.34,22,0,12.3-4,21.5-13.68,21.5m-.81,8.74c14.83,0,26.21-9.89,26.21-32.19,0-26.21-16.09-28.74-24.25-28.74-11.73,0-26.33,6.32-26.33,30.23,0,20.81,9.31,30.7,24.37,30.7M373.74,946H385l.11-3.33,12.19-21.15,17,24.48H425.7L402.36,912.8c10-16.09,11.27-17.24,16.21-17.24a9.76,9.76,0,0,1,4.48,1.15l2.07-7.59a15.62,15.62,0,0,0-8.39-2.3c-7.35,0-10.92,2-20.23,18L385.24,924.3V888.55h-11.5Zm-56.09-89.89L309,879.7l4.37,2.18a158.48,158.48,0,0,0,11.15-15.63,9.4,9.4,0,0,0,1.95-5.06c0-3.79-5.17-4.83-8.85-5.06m-6,82.88c-11.49,0-13.45-12.3-13.45-23.34,0-11.72,4.37-20.11,13.8-20.11,9.88,0,13.33,8.74,13.33,22,0,12.3-4,21.5-13.68,21.5m-.8,8.74c14.83,0,26.21-9.89,26.21-32.19,0-26.21-16.1-28.74-24.26-28.74-11.72,0-26.32,6.32-26.32,30.23,0,20.81,9.31,30.7,24.37,30.7M230.75,946H242l.12-3.33,12.18-21.15,17,24.48H282.7L259.37,912.8c10-16.09,11.26-17.24,16.21-17.24a9.79,9.79,0,0,1,4.48,1.15l2.07-7.59a15.67,15.67,0,0,0-8.39-2.3c-7.36,0-10.92,2-20.23,18L242.24,924.3V888.55H230.75Zm-61-20.46c0,16.32,9.19,22.07,22.87,22.07,14.6,0,24.95-9.2,24.95-30.58a70.23,70.23,0,0,0-5.63-28.5H200.4a76.92,76.92,0,0,1,5.63,30c0,8.85-1.95,20.11-13.22,20.11-8.73,0-11.61-6-11.61-12.87V888.55H169.71ZM108.44,946h11.38l18.05-43.79L154.31,946h11.26l-24.48-64c-4.71-12.18-8.05-18.5-19.43-18.5a20.85,20.85,0,0,0-12.07,3.79l2.87,7.82c3-2.07,5.18-3,8.17-3,5.63,0,7.35,3.45,11,13.45l1.38,3.68ZM59.82,869.58V946H71.66V879.81h35.75V869.58Z"/><path d="M1427.75,505.09c.1-7.09,2.74-10.42,6.31-10.42,3.23,0,5.53,2.25,7.19,11.55-1.76,5.28-4.74,8-7.53,8-3.52,0-6-3-6-9.15m-3.62.2c-.09,8.46,3.92,12,9.3,12,3.66,0,7.14-2.59,9.24-6.75l.34,1.32c1.13,4,1.91,5.33,5.14,5.33a8.21,8.21,0,0,0,3.57-1l-.73-2.49a4.46,4.46,0,0,1-2.45.68c-1.47,0-1.81-.24-2.74-3.37l-1.27-4.26a73.2,73.2,0,0,0,4-14.62l-3.37-.54a77.81,77.81,0,0,1-2.11,9.78c-1.27-6.75-4.25-9.78-8.9-9.78s-9.83,3.23-10,13.7m-13.89,4.64c0,4.06.74,7.34,6.7,7.34a10.28,10.28,0,0,0,5.53-1.61l-1.12-2.6a6.67,6.67,0,0,1-3.67,1.23c-2.25,0-3.62-.93-3.62-4.26V492.28h-3.82Zm-26,6.65h3.67l0-.83,5.92-10.51,7.73,11.34h3.76l-9.73-14.28c4.5-7.28,5-7.68,7-7.68a4.45,4.45,0,0,1,2.1.59l.79-2.64a5.91,5.91,0,0,0-3.33-1c-3.23,0-4.55.83-8.71,8.12l-5.47,9.69V492.28h-3.82ZM1365,478.78l-3.72,9.68,1.62.78c2.1-2.83,3.67-5.08,4.6-6.6a4.2,4.2,0,0,0,.73-2c0-1.42-1.76-1.77-3.23-1.86m-8.7,26.31c.09-7.09,2.73-10.42,6.31-10.42,3.22,0,5.52,2.25,7.19,11.55-1.77,5.28-4.75,8-7.54,8-3.52,0-6-3-6-9.15m-3.62.2c-.1,8.46,3.91,12,9.29,12,3.67,0,7.14-2.59,9.24-6.75l.35,1.32c1.12,4,1.9,5.33,5.13,5.33a8.21,8.21,0,0,0,3.57-1l-.73-2.49a4.42,4.42,0,0,1-2.45.68c-1.46,0-1.81-.24-2.74-3.37l-1.27-4.26a72.52,72.52,0,0,0,4-14.62l-3.37-.54a79.94,79.94,0,0,1-2.1,9.78c-1.28-6.75-4.26-9.78-8.91-9.78s-9.83,3.23-10,13.7m-23.58-9.69H1337c-.35,4.84-.69,9.83-.69,13.55,0,4.84,1,8.12,7,8.12a10,10,0,0,0,5.52-1.61l-1.12-2.55a7.07,7.07,0,0,1-3.67,1.18c-2.3,0-3.86-.93-3.86-5.14,0-3.77.29-8.66.58-13.55h9v-3.27H1329.1Zm-23.67,9.49c.1-7.09,2.74-10.42,6.31-10.42,3.23,0,5.53,2.25,7.19,11.55-1.76,5.28-4.74,8-7.53,8-3.52,0-6-3-6-9.15m-3.62.2c-.1,8.46,3.91,12,9.29,12,3.67,0,7.14-2.59,9.25-6.75l.34,1.32c1.13,4,1.91,5.33,5.14,5.33a8.21,8.21,0,0,0,3.57-1l-.74-2.49a4.41,4.41,0,0,1-2.44.68c-1.47,0-1.81-.24-2.74-3.37l-1.27-4.26a73.2,73.2,0,0,0,4-14.62l-3.38-.54a76.32,76.32,0,0,1-2.1,9.78c-1.27-6.75-4.25-9.78-8.9-9.78s-9.83,3.23-10,13.7m-24.94,11.29h3.86l8.22-19.71,7.43,19.71h3.82l-10.57-27.68c-1.81-4.69-3.18-7.14-7.58-7.14a8.08,8.08,0,0,0-4.89,1.57l1.08,2.73a5.32,5.32,0,0,1,3.52-1.32c2.49,0,3.27,1.62,4.79,5.78l.73,1.9Zm-11.55-2.25c-5.57,0-6.5-5.72-6.5-10.56,0-5.28,2.1-9.15,6.7-9.15s6.46,4.06,6.46,9.93c0,5.33-2.06,9.78-6.66,9.78m-.34,2.94c6.16,0,10.86-4,10.86-13.55,0-11.05-6.65-12.13-10-12.13-4.84,0-10.86,2.55-10.86,12.67,0,8.8,3.82,13,10,13m-33.26-.69h3.67l0-.83,5.92-10.51,7.73,11.34h3.76l-9.73-14.28c4.5-7.28,5-7.68,7-7.68a4.45,4.45,0,0,1,2.1.59l.79-2.64a5.91,5.91,0,0,0-3.33-1c-3.23,0-4.55.83-8.7,8.12l-5.48,9.69V492.28h-3.82Zm-16.43-2.25c-5.58,0-6.51-5.72-6.51-10.56,0-5.28,2.11-9.15,6.7-9.15,4.75,0,6.46,4.06,6.46,9.93,0,5.33-2,9.78-6.65,9.78m-.34,2.94c6.16,0,10.85-4,10.85-13.55,0-11.05-6.65-12.13-10-12.13-4.84,0-10.86,2.55-10.86,12.67,0,8.8,3.81,13,10,13m-32.68-12.13c0-5.82,2.55-9.83,7-9.83,4.21,0,6.21,3.57,6.21,9.59,0,5.08-2,9.43-6.75,9.43s-6.41-3.81-6.41-9.19m-3.91.05c0,8.07,3.82,12.08,10.22,12.08,5.48,0,10.62-3.52,10.62-13,0-4.5-1.52-7-3.13-8.66h6.36v-3.32l-12.82.05c-6.36-.05-11.25,4-11.25,12.86m-28.51-26.41-3.72,9.68,1.61.78c2.11-2.83,3.67-5.08,4.6-6.6a4.23,4.23,0,0,0,.74-2c0-1.42-1.76-1.77-3.23-1.86m-8.71,26.31c.1-7.09,2.74-10.42,6.31-10.42,3.23,0,5.53,2.25,7.19,11.55-1.76,5.28-4.74,8-7.53,8-3.52,0-6-3-6-9.15m-3.62.2c-.1,8.46,3.92,12,9.3,12,3.66,0,7.14-2.59,9.24-6.75l.34,1.32c1.13,4,1.91,5.33,5.14,5.33a8.21,8.21,0,0,0,3.57-1l-.74-2.49a4.41,4.41,0,0,1-2.44.68c-1.47,0-1.81-.24-2.74-3.37l-1.27-4.26a73.2,73.2,0,0,0,4-14.62l-3.38-.54a76.32,76.32,0,0,1-2.1,9.78c-1.27-6.75-4.25-9.78-8.9-9.78s-9.83,3.23-10,13.7m-23.23,11.29H1118l0-.83,5.92-10.51,7.72,11.34h3.77l-9.73-14.28c4.5-7.28,5-7.68,7-7.68a4.48,4.48,0,0,1,2.1.59l.78-2.64a5.88,5.88,0,0,0-3.32-1c-3.23,0-4.55.83-8.71,8.12l-5.48,9.69V492.28h-3.81Zm-16.43-6.65c0,4.06.73,7.34,6.7,7.34a10.27,10.27,0,0,0,5.52-1.61l-1.12-2.6a6.64,6.64,0,0,1-3.67,1.23c-2.25,0-3.62-.93-3.62-4.26V492.28h-3.81Zm-26.22-14.33h7.88c-.35,4.84-.69,9.83-.69,13.55,0,4.84,1,8.12,7,8.12a10,10,0,0,0,5.52-1.61l-1.12-2.55a7.07,7.07,0,0,1-3.67,1.18c-2.3,0-3.87-.93-3.87-5.14,0-3.77.3-8.66.59-13.55h9v-3.27h-20.69Zm-25.92,21h3.67l1.42-21.08H1060l.44,16.1c.1,3.86,1.37,5.67,4.94,5.67a7.39,7.39,0,0,0,3.82-1l-.79-2.39a4.68,4.68,0,0,1-2.15.53c-1.56,0-2.1-.73-2.15-3l-.44-15.9h5.23v-3.17h-27v3.17h5.19Zm-25.43-6.35c0,4.3,3.37,7,10.36,7a16.3,16.3,0,0,0,9.35-2.69l-1.52-2.59a13.86,13.86,0,0,1-7.53,2.25c-5.68,0-7-2.25-7-4.26,0-3.47,3.17-4.3,8.75-4.3h1.66v-2.84h-1.46c-6.66,0-8.22-1.52-8.22-4.21,0-2.29,2-4,6.06-4a10.45,10.45,0,0,1,6.9,2.25l1.91-2.49c-1.62-1.66-4.45-2.79-8.9-2.79-7.54,0-9.54,4-9.54,6.95a5.65,5.65,0,0,0,4.25,5.57c-3.08.83-5,3-5,6.07M999.6,512v-8.66c0-6.85,3.13-8.71,6.31-8.71,5.62,0,6.5,4.75,6.5,10.08,0,7-3.23,9.68-6.8,9.68a9.6,9.6,0,0,1-6-2.39m-3.82,14.87h3.82V515.41a11.23,11.23,0,0,0,6.26,1.86c6.11,0,10.37-4.6,10.37-13.11,0-8.26-3.28-12.57-10.37-12.57-5,0-10.08,2.59-10.08,12.23Zm-23.57-28.67c.29-10.36,2.74-13.4,6.94-13.4s6.75,2.74,6.9,13.4Zm0,3.23H986c-.29,10.18-3,12.87-6.9,12.87-4.15,0-6.65-2.94-6.89-12.87m-3.92-1.95c0,12.86,2.94,17.65,10.67,17.65s10.95-5.08,10.95-17.95c0-12.71-3.08-17.41-10.51-17.41-7.83,0-11.11,5.53-11.11,17.71m-26.16,10.46c0,4.06.73,7.34,6.7,7.34a10.28,10.28,0,0,0,5.53-1.61l-1.13-2.6a6.61,6.61,0,0,1-3.67,1.23c-2.25,0-3.62-.93-3.62-4.26V492.28h-3.81Zm-27.93-4.84c.1-7.09,2.74-10.42,6.31-10.42,3.23,0,5.53,2.25,7.19,11.55-1.76,5.28-4.74,8-7.53,8-3.52,0-6-3-6-9.15m-3.62.2c-.1,8.46,3.91,12,9.29,12,3.67,0,7.15-2.59,9.25-6.75l.34,1.32c1.13,4,1.91,5.33,5.14,5.33a8.21,8.21,0,0,0,3.57-1l-.74-2.49a4.41,4.41,0,0,1-2.44.68c-1.47,0-1.81-.24-2.74-3.37L931,506.75a73.2,73.2,0,0,0,4-14.62l-3.38-.54a76.32,76.32,0,0,1-2.1,9.78c-1.27-6.75-4.25-9.78-8.9-9.78s-9.83,3.23-10,13.7m-23.23,11.29H891l.05-.83L897,505.24l7.73,11.34h3.77l-9.73-14.28c4.5-7.28,5-7.68,7-7.68a4.48,4.48,0,0,1,2.1.59l.78-2.64a5.88,5.88,0,0,0-3.32-1c-3.23,0-4.55.83-8.71,8.12l-5.48,9.69V492.28h-3.81Zm-29.74-37.8-3.71,9.68,1.61.78c2.1-2.83,3.67-5.08,4.6-6.6a4.2,4.2,0,0,0,.73-2c0-1.42-1.76-1.77-3.23-1.86m-8.7,26.31c.09-7.09,2.74-10.42,6.31-10.42,3.22,0,5.52,2.25,7.19,11.55-1.76,5.28-4.75,8-7.54,8-3.52,0-6-3-6-9.15m-3.62.2c-.1,8.46,3.91,12,9.29,12,3.67,0,7.14-2.59,9.24-6.75l.35,1.32c1.12,4,1.9,5.33,5.13,5.33a8.18,8.18,0,0,0,3.57-1l-.73-2.49a4.42,4.42,0,0,1-2.45.68c-1.46,0-1.81-.24-2.74-3.37l-1.27-4.26a72.52,72.52,0,0,0,4-14.62l-3.37-.54a79.94,79.94,0,0,1-2.1,9.78c-1.27-6.75-4.26-9.78-8.9-9.78s-9.84,3.23-10,13.7m-24.75-13,8.36,24.3h4c6.07-8.31,8.81-15.3,8.56-24.25h-3.86c.39,7.38-1.66,13.69-6.31,20.54h-.15l-6.5-20.59Zm-11.1,17.65c0,4.06.73,7.34,6.7,7.34a10.24,10.24,0,0,0,5.52-1.61l-1.12-2.6a6.61,6.61,0,0,1-3.67,1.23c-2.25,0-3.62-.93-3.62-4.26V492.28h-3.81ZM783.22,495.6h7.88c-.35,4.84-.69,9.83-.69,13.55,0,4.84,1,8.12,7,8.12a10,10,0,0,0,5.52-1.61l-1.12-2.55a7.07,7.07,0,0,1-3.67,1.18c-2.3,0-3.86-.93-3.86-5.14,0-3.77.29-8.66.58-13.55h9v-3.27H783.22ZM765.56,512v-8.66c0-6.85,3.13-8.71,6.31-8.71,5.63,0,6.51,4.75,6.51,10.08,0,7-3.23,9.68-6.8,9.68a9.65,9.65,0,0,1-6-2.39m-3.81,14.87h3.81V515.41a11.29,11.29,0,0,0,6.27,1.86c6.11,0,10.36-4.6,10.36-13.11,0-8.26-3.27-12.57-10.36-12.57-5,0-10.08,2.59-10.08,12.23Zm-15.9-12.53c-5.57,0-6.5-5.72-6.5-10.56,0-5.28,2.1-9.15,6.7-9.15s6.46,4.06,6.46,9.93c0,5.33-2.06,9.78-6.66,9.78m-.34,2.94c6.16,0,10.86-4,10.86-13.55,0-11.05-6.65-12.13-10-12.13-4.84,0-10.85,2.55-10.85,12.67,0,8.8,3.81,13,10,13m-23.92-7.34c0,4.06.74,7.34,6.71,7.34a10.27,10.27,0,0,0,5.52-1.61l-1.12-2.6a6.64,6.64,0,0,1-3.67,1.23c-2.25,0-3.62-.93-3.62-4.26V492.28h-3.82Zm-29.78-14.77a6.62,6.62,0,0,1,1.12-.1c3.82,0,5.19,2.55,6.8,8.81a65.68,65.68,0,0,1,2.06,13.64,73.68,73.68,0,0,1-.54,8.91h3.67a63,63,0,0,0,.39-8.71v-.15c7.53-8.95,9.14-16.48,10.17-25.23h-4c-.54,7.67-2.1,13.59-6.65,20.39-.39-3.18-1-7-1.67-10-2.15-9.29-5.13-11.15-9.44-11.15a8.06,8.06,0,0,0-2,.25Zm-31.74,9.2c0,7.33,3.37,11.25,10.76,12.86,3.13.69,4.15,1.91,4.15,4s-1,3-2.64,4.31l1.71,2.1c2.25-1.37,4.46-3.28,4.46-6.9,0-3.37-1.86-5.38-6.31-6.45-6.7-1.37-8.32-4.26-8.32-9.93,0-6.26,2.84-9.64,6.8-9.64a7,7,0,0,1,5.92,3.18l2.54-2a9.77,9.77,0,0,0-8.56-4.31c-4.94,0-10.51,3.67-10.51,12.77m-25.39.73c.1-7.09,2.74-10.42,6.31-10.42,3.23,0,5.53,2.25,7.19,11.55-1.76,5.28-4.74,8-7.53,8-3.52,0-6-3-6-9.15m-3.62.2c-.09,8.46,3.92,12,9.3,12,3.66,0,7.14-2.59,9.24-6.75l.34,1.32c1.13,4,1.91,5.33,5.14,5.33a8.21,8.21,0,0,0,3.57-1l-.73-2.49a4.46,4.46,0,0,1-2.45.68c-1.47,0-1.81-.24-2.74-3.37l-1.27-4.26a73.2,73.2,0,0,0,4-14.62l-3.37-.54a77.81,77.81,0,0,1-2.11,9.78c-1.27-6.75-4.25-9.78-8.9-9.78s-9.83,3.23-10,13.7m-22.64-.15c0-5.82,2.54-9.83,6.94-9.83,4.21,0,6.21,3.57,6.21,9.59,0,5.08-2.05,9.43-6.74,9.43-4.85,0-6.41-3.81-6.41-9.19m-3.91.05c0,8.07,3.81,12.08,10.22,12.08,5.48,0,10.61-3.52,10.61-13,0-4.5-1.52-7-3.13-8.66h6.36v-3.32l-12.82.05c-6.35-.05-11.24,4-11.24,12.86M576,478.78l-3.72,9.68,1.62.78c2.1-2.83,3.67-5.08,4.6-6.6a4.2,4.2,0,0,0,.73-2c0-1.42-1.76-1.77-3.23-1.86m-8.7,26.31c.09-7.09,2.73-10.42,6.31-10.42,3.22,0,5.52,2.25,7.18,11.55-1.76,5.28-4.74,8-7.53,8-3.52,0-6-3-6-9.15m-3.62.2c-.1,8.46,3.91,12,9.29,12,3.67,0,7.14-2.59,9.24-6.75l.35,1.32c1.12,4,1.9,5.33,5.13,5.33a8.21,8.21,0,0,0,3.57-1l-.73-2.49a4.42,4.42,0,0,1-2.45.68c-1.46,0-1.81-.24-2.74-3.37l-1.27-4.26a72.52,72.52,0,0,0,4-14.62l-3.37-.54a79.94,79.94,0,0,1-2.1,9.78c-1.28-6.75-4.26-9.78-8.91-9.78s-9.83,3.23-10,13.7m-23.24,11.29h3.67l0-.83,5.92-10.51,7.73,11.34h3.76l-9.73-14.28c4.5-7.28,5-7.68,7-7.68a4.49,4.49,0,0,1,2.11.59l.78-2.64a5.91,5.91,0,0,0-3.33-1c-3.23,0-4.55.83-8.7,8.12l-5.48,9.69V492.28h-3.82ZM524,509.93c0,4.06.73,7.34,6.7,7.34a10.28,10.28,0,0,0,5.53-1.61l-1.13-2.6a6.61,6.61,0,0,1-3.67,1.23c-2.25,0-3.61-.93-3.61-4.26V492.28H524Zm-23.08-3.67c0-4.59,1.95-8.31,7.23-9.88,4.11,1.86,6.22,4.9,6.22,10,0,3.38-1.81,8-7,8-4.84,0-6.45-4.05-6.45-8.07m-3.87.3c0,6.26,3.33,10.71,10.17,10.71,7.1,0,10.91-5.09,10.91-11.2,0-4.75-1.42-9.05-8.12-12.42-3.62-1.81-5.23-2.94-5.23-5.14,0-2.4,1.71-3.67,4.94-3.67a11.22,11.22,0,0,1,6.11,1.76l1.37-3a14,14,0,0,0-7.38-1.91c-5.77,0-8.71,3.08-8.71,7,0,2.78,1.32,4.55,4.06,6.21-4.65,1.61-8.12,5.38-8.12,11.69m-37.22-1.47c.1-7.09,2.74-10.42,6.31-10.42,3.23,0,5.53,2.25,7.19,11.55-1.76,5.28-4.74,8-7.53,8-3.52,0-6-3-6-9.15m-3.62.2c-.1,8.46,3.92,12,9.3,12,3.66,0,7.14-2.59,9.24-6.75l.34,1.32c1.13,4,1.91,5.33,5.14,5.33a8.21,8.21,0,0,0,3.57-1l-.74-2.49a4.41,4.41,0,0,1-2.44.68c-1.47,0-1.81-.24-2.74-3.37l-1.27-4.26a73.2,73.2,0,0,0,4-14.62l-3.38-.54a76.32,76.32,0,0,1-2.1,9.78c-1.27-6.75-4.25-9.78-8.9-9.78s-9.83,3.23-10,13.7m-23.57-9.69h7.87c-.34,4.84-.68,9.83-.68,13.55,0,4.84,1,8.12,7,8.12a10,10,0,0,0,5.53-1.61l-1.13-2.55a7,7,0,0,1-3.66,1.18c-2.3,0-3.87-.93-3.87-5.14,0-3.77.3-8.66.59-13.55h9.05v-3.27H432.64Zm-32.09,14.63c0,4.3,3.38,7,10.37,7,3.77,0,7.39-1.17,9.34-2.69L418.75,512a13.88,13.88,0,0,1-7.53,2.25c-5.68,0-7.05-2.25-7.05-4.26,0-3.47,3.18-4.3,8.76-4.3h1.66v-2.84h-1.47c-6.65,0-8.21-1.52-8.21-4.21,0-2.29,1.95-4,6.06-4a10.47,10.47,0,0,1,6.9,2.25l1.91-2.49c-1.62-1.66-4.45-2.79-8.91-2.79-7.53,0-9.53,4-9.53,6.95a5.65,5.65,0,0,0,4.25,5.57c-3.08.83-5,3-5,6.07M376.44,495.6h7.88c-.35,4.84-.69,9.83-.69,13.55,0,4.84,1,8.12,7,8.12a10,10,0,0,0,5.52-1.61L395,513.11a7.07,7.07,0,0,1-3.67,1.18c-2.3,0-3.86-.93-3.86-5.14,0-3.77.29-8.66.58-13.55h9.05v-3.27H376.44Zm-21.62,14.63c0,4.3,3.38,7,10.37,7,3.77,0,7.39-1.17,9.34-2.69L373,512a13.88,13.88,0,0,1-7.53,2.25c-5.68,0-7.05-2.25-7.05-4.26,0-3.47,3.18-4.3,8.76-4.3h1.66v-2.84h-1.47c-6.65,0-8.21-1.52-8.21-4.21,0-2.29,1.95-4,6.06-4a10.47,10.47,0,0,1,6.9,2.25l1.91-2.49c-1.62-1.66-4.46-2.79-8.91-2.79-7.53,0-9.53,4-9.53,6.95a5.65,5.65,0,0,0,4.25,5.57c-3.08.83-5,3-5,6.07m-11.64,12.71c0-1.66.83-4,4.06-5.18,3.28,1.66,3.92,3.52,3.92,5.33a4,4,0,0,1-3.87,4.35c-3,0-4.11-2.39-4.11-4.5m-7.48-16.09c0,4.4,2.44,6.85,8.66,9.69a7.26,7.26,0,0,0-4.45,6.79c0,3.33,2.25,6.66,7.14,6.66,4,0,7.33-2.55,7.33-7.29,0-3.13-1.17-5.77-6.21-8.17-6.41-2.89-8.61-4.74-8.61-8,0-3.77,3-6.56,12.48-6.56v-3c-9.88,0-12-2.59-12-5.28,0-3.87,2.89-5.53,14-6l-.24-3.13c-2.45.2-4.75.29-7,.29a97.54,97.54,0,0,1-10.61-.63l-.49,3.23c2.44.24,4.79.39,7.19.39-4.65.58-6.51,3.32-6.51,6.26,0,3.18,1.47,5.72,6.56,6.65-4.65,1-7.24,3.77-7.24,8m-17.07-28.07-3.72,9.68,1.62.78c2.1-2.83,3.66-5.08,4.59-6.6a4.23,4.23,0,0,0,.74-2c0-1.42-1.76-1.77-3.23-1.86m-8.71,26.31c.1-7.09,2.74-10.42,6.31-10.42,3.23,0,5.53,2.25,7.19,11.55-1.76,5.28-4.74,8-7.53,8-3.52,0-6-3-6-9.15m-3.62.2c-.09,8.46,3.92,12,9.3,12,3.67,0,7.14-2.59,9.24-6.75l.34,1.32c1.13,4,1.91,5.33,5.14,5.33a8.21,8.21,0,0,0,3.57-1l-.73-2.49a4.46,4.46,0,0,1-2.45.68c-1.47,0-1.81-.24-2.74-3.37l-1.27-4.26a72.52,72.52,0,0,0,4-14.62l-3.37-.54a77.81,77.81,0,0,1-2.11,9.78c-1.27-6.75-4.25-9.78-8.9-9.78s-9.83,3.23-10,13.7m-13.89,4.64c0,4.06.74,7.34,6.7,7.34a10.28,10.28,0,0,0,5.53-1.61l-1.12-2.6a6.64,6.64,0,0,1-3.67,1.23c-2.25,0-3.62-.93-3.62-4.26V492.28h-3.82ZM266.2,495.6h7.87c-.34,4.84-.68,9.83-.68,13.55,0,4.84,1,8.12,7,8.12a10,10,0,0,0,5.53-1.61l-1.13-2.55a7,7,0,0,1-3.66,1.18c-2.3,0-3.87-.93-3.87-5.14,0-3.77.3-8.66.59-13.55h9.05v-3.27H266.2Zm-14.43,18.73V494.62c6.6.2,9.64,4.31,9.64,9.79s-2.94,9.68-9.64,9.92m-13.16-9.92c0-5.48,3-9.59,9.59-9.79v19.71c-6.65-.24-9.59-4.49-9.59-9.92m-3.81,0c0,9.73,7.33,12.81,13.35,13v9.49h3.72v-9.49c6.06-.15,13.3-3.23,13.3-13s-7.48-12.67-13.3-12.82v-7.53h-3.72v7.53c-5.87.15-13.35,3.08-13.35,12.82m-37.22.68c.1-7.09,2.74-10.42,6.31-10.42,3.23,0,5.52,2.25,7.19,11.55-1.76,5.28-4.75,8-7.53,8-3.53,0-6-3-6-9.15m-3.62.2c-.1,8.46,3.91,12,9.29,12,3.67,0,7.14-2.59,9.25-6.75l.34,1.32c1.12,4,1.91,5.33,5.13,5.33a8.18,8.18,0,0,0,3.57-1l-.73-2.49a4.41,4.41,0,0,1-2.44.68c-1.47,0-1.81-.24-2.74-3.37l-1.28-4.26a72.42,72.42,0,0,0,4-14.62l-3.38-.54a78.08,78.08,0,0,1-2.1,9.78c-1.27-6.75-4.26-9.78-8.9-9.78s-9.83,3.23-10,13.7m-24.75-13,8.36,24.3h4c6.06-8.31,8.8-15.3,8.55-24.25h-3.86c.39,7.38-1.66,13.69-6.31,20.54h-.15l-6.5-20.59Zm-31,12.08c0,7.33,3.38,11.25,10.76,12.86,3.13.69,4.16,1.91,4.16,4s-1,3-2.64,4.31l1.71,2.1c2.25-1.37,4.45-3.28,4.45-6.9,0-3.37-1.86-5.38-6.31-6.45-6.7-1.37-8.31-4.26-8.31-9.93,0-6.26,2.83-9.64,6.8-9.64a7,7,0,0,1,5.91,3.18l2.55-2a9.78,9.78,0,0,0-8.56-4.31c-4.94,0-10.52,3.67-10.52,12.77m-19.12-25.58-3.72,9.68,1.62.78c2.1-2.83,3.66-5.08,4.59-6.6a4.23,4.23,0,0,0,.74-2c0-1.42-1.76-1.77-3.23-1.86m-17.41,27c0,7.38,2.93,11.54,8.41,11.54a7.27,7.27,0,0,0,7.29-5.77,7.17,7.17,0,0,0,7.24,5.77c5.47,0,8.41-4.16,8.41-11.54,0-5.92-1.91-10.52-4.8-13.4h-4.1c2.83,2.88,5,7.23,5,13.69,0,3.77-.78,8.22-4.84,8.22-3.62,0-5-3.48-5-6.41v-7.58h-3.81v7.58c0,2.93-1.37,6.41-5,6.41-4.06,0-4.84-4.45-4.84-8.22,0-6.46,2.15-10.81,5-13.69h-4.16c-2.89,2.88-4.79,7.48-4.79,13.4m-31.6-21.67v32.52H74V487.43H90.91v29.15h3.91V484.06Z"/><path d="M1409.88,706.53c12.13,0,18.49-8.75,18.49-17.5,0-9.94-6.56-17.49-18.89-17.49-11.53,0-18.69,8.35-18.69,17.3,0,9.54,6.37,17.69,19.09,17.69M1393.18,598l5.57,65.61h23.06l5.37-65.61V565h-34Zm-56.27-58.65L1322.2,587l12.73,6.36c4.37-4.18,15.5-17.3,22.06-27.64,4-6.56,4.58-9.14,4.58-12.72,0-10.14-16.9-13.52-24.66-13.72m-6.36,138.18c-7.56,0-8.35-12.72-8.35-28.83,0-14.51,2.39-23.06,8.15-23.06,6.56,0,8.55,7.75,8.55,26.64,0,18.69-2.19,25.25-8.35,25.25M1329,706.33c28.43,0,51.3-20.08,51.3-56.86,0-47.32-32-52.29-48.52-52.29-22.46,0-50.7,13.92-50.7,55.87,0,36.18,18.49,53.28,47.92,53.28m-156.27-3.18h33.2V690l11.93-19.29,24.25,32.41h32.21l-42-56.27C1246.05,625,1248.64,622,1258,622a18.47,18.47,0,0,1,5.57,1l4.37-20.67c-5-2.79-10.93-4-17.3-4-11.33,0-19.88,3.18-33.8,25.85l-10.73,17.49V601.55h-33.4Zm-74.56-34.79c0,18.69,2.38,38,35.19,38,10.93,0,22.07-3.18,28.23-7.35l-7.36-21.08c-3.18,1.79-6.76,3.38-10.73,3.38-6.76,0-11.93-3.38-11.93-14.32V601.55h-33.4ZM989.57,625.61h29.62c-2,16.5-3.18,34.2-3.18,43.74,0,19.49,3.18,36.78,33.21,36.78,10.14,0,20.68-2.78,26.64-7l-6.56-17.89a22.34,22.34,0,0,1-11.93,3.78c-7.56,0-13.32-3.38-13.32-17.7,0-9.94,1.19-25.84,2.38-41.75h34V602.55H989.57Zm-86.49,29.23c0-17.9,6-32.21,17.9-32.21s17.29,11.33,17.29,33.2c0,18.49-5.56,30-17.69,30-14.71,0-17.5-13.91-17.5-31m-28.43.59c0,35.59,17.1,50.7,44.93,50.7,25.06,0,45.93-15.31,45.93-52.88,0-12.73-3.18-21.48-7.55-27.64h22.27V602.35l-56.07.2c-25.85-.2-49.51,15.11-49.51,52.88m-101.4.2c0-23.86,7.56-36.78,20.08-36.78,11.14,0,17.5,7.16,24.46,42.95-7.16,17.69-16.7,25.84-25.85,25.84-11.53,0-18.69-10.34-18.69-32m-21.67,2c0,34,14.91,48.51,38.17,48.51,13.32,0,26.25-8.15,35.59-21.27l.4,1.19c4.77,14.52,8.75,19.49,22.07,19.49a37.89,37.89,0,0,0,16.1-4.18l-3-13.92a18.11,18.11,0,0,1-9.14,2c-5.57,0-6.76-1.79-10.34-12.33l-3.58-10.93c7-14.51,14.31-36.58,19.28-62.63l-20.47-3.38a327.41,327.41,0,0,1-8.35,36.19c-5-23.07-16.11-36.19-35.59-36.19-22.07,0-41.16,15.11-41.16,57.46m-80.72,2.58c0-15.3,6.36-29,23.86-34.19C707.84,634.16,713,643.3,713,660.2c0,11.74-4.77,28.44-21.87,28.44-15.11,0-20.28-13.32-20.28-28.44m-24.06,3.38c0,22.67,13.92,42.35,43.14,42.35,28.44,0,46.73-20.28,46.73-46.72,0-21.27-6.36-38.37-37.18-53.48-10.94-5.37-16.11-9.55-16.11-16.31.2-7.55,6.37-11.53,17.5-11.53a47.71,47.71,0,0,1,23.46,6.36l8.15-18.09c-6.76-3.58-18.49-7-31.61-7-27.24,0-40.16,12.93-40.16,31.42,0,11.93,6.76,19.28,17.69,26.24-17.89,6.56-31.61,21.67-31.61,46.72M553.35,677.3c0,16.9,13.13,28.83,42.95,28.83,15.91,0,31-4.57,39.57-11.13l-7.16-13.32a58.35,58.35,0,0,1-30.42,9.14c-21.28,0-26.45-8.15-26.45-15.5,0-12.33,11.34-15.12,30.82-15.12h9.74V645.69h-8.15c-23.66,0-29.62-5.37-29.62-15.11,0-8.15,6.76-14.32,22.27-14.32,13.32,0,22.07,3.58,28.63,9.15l9.14-12.92C627.91,605.73,616.18,601,596.5,601c-30.82,0-40,15.5-40,28.63,0,10.33,5.57,18.49,16.9,22.66-11.73,3.38-20.08,12.13-20.08,25m-100,25.85h19.49l.2-5.77L494.1,660.8l29.43,42.35h19.68l-40.36-57.46c17.3-27.83,19.49-29.82,28-29.82a17,17,0,0,1,7.75,2l3.58-13.13a27.13,27.13,0,0,0-14.52-4c-12.72,0-18.88,3.38-35,31.21l-19.48,33.6V603.74H453.34Zm-101.4-46.52c0-23.66,10.34-40,28.24-40,17.1,0,25.25,14.52,25.25,39,0,20.68-8.35,38.37-27.44,38.37-19.68,0-26.05-15.5-26.05-37.37m-15.9.19c0,32.81,15.51,49.11,41.55,49.11,22.27,0,43.15-14.31,43.15-52.88,0-18.29-6.17-28.63-12.73-35.19h25.85V604.34l-52.09.19c-25.85-.19-45.73,16.31-45.73,52.29m-103.19-.39c.4-28.83,11.13-42.35,25.65-42.35,13.12,0,22.47,9.14,29.23,46.92-7.16,21.47-19.29,32.61-30.62,32.61-14.32,0-24.46-12.33-24.26-37.18m-14.71.79c-.4,34.4,15.9,48.71,37.77,48.71,14.92,0,29-10.53,37.58-27.43l1.39,5.36c4.58,16.31,7.76,21.68,20.88,21.68a33.34,33.34,0,0,0,14.51-4l-3-10.14a18,18,0,0,1-9.94,2.78c-6,0-7.36-1-11.13-13.72l-5.17-17.29c5.37-13.32,11.73-33.8,16.1-59.45l-13.72-2.19a317.55,317.55,0,0,1-8.55,39.77c-5.17-27.44-17.29-39.77-36.18-39.77-19.29,0-40,13.12-40.56,55.67M158.89,678.7c0,15.7,3.18,27.23,24.85,27.23,7,0,15.11-2.38,20.68-6.56l-3.78-7c-3.38,2.19-8.75,5.37-16.3,5.37-9.94,0-15.51-4-15.51-18.29V605.33h-9.94ZM59.28,662c0-20.87,9-37,32.8-44.33l4.38,2c16.3,6.76,26.05,21.08,26.05,42.75,0,15.31-9,35.39-32.81,35.39-22.87,0-30.42-18.69-30.42-35.79m-9.74-.39c0,27.24,13.12,44.33,40,44.33,29,0,42.75-21.07,42.75-44.73,0-17.9-5.57-35.79-30.22-48.51-17.3-8.75-24.86-13.52-24.86-23.86,0-11.34,7.56-17.3,22.07-17.3,9.94,0,17.3,2.58,25.65,7.55l3.78-8c-8.55-5.37-17.3-8.15-29-8.15-20.68,0-32,12.13-32,26,0,10.53,4.37,17.69,15.91,24.45-19.69,6.56-34,21.87-34,48.12"/><path d="M1396,90.05v33.31h11.13V97.15a7,7,0,0,1,6.94-7.18c4.36,0,5.08,3.23,5.08,7.66v25.73h11.21v-28c0-9.59-4.84-14.11-12.82-14.11a14.3,14.3,0,0,0-12.18,6l-.81-4.84h-9.35Zm-31.69-15,3.31,2.82c3.14-2.66,7.74-6.37,10.48-9.19,1.61-1.7,2.42-3,2.42-4.28,0-3.14-4-4.67-6.53-5.4Zm5.64,41.29c-6.12,0-7.09-7.34-7.09-14.6s2.26-12.25,7.18-12.25c5.32,0,7.09,5,7.09,13.63,0,8.22-2.09,13.22-7.18,13.22m-.64,8.23c10.89,0,19.36-7.34,19.36-22.74,0-18.72-11.94-20.57-18.07-20.57-8.55,0-19.28,4.92-19.28,21.77,0,14.6,6.94,21.54,18,21.54m-44.84-35v33.79h11.29V98c.16-4.27,2.74-7.17,6.69-7.17a13.66,13.66,0,0,1,5.81,1.45l1.77-9.44a13.9,13.9,0,0,0-6.53-1.53c-3.71,0-7.74,2.26-9.68,7l-1-5.81h-9.19Zm-30.57,0v33.79h11.29V98c.16-4.27,2.74-7.17,6.7-7.17a13.65,13.65,0,0,1,5.8,1.45l1.78-9.44a14,14,0,0,0-6.54-1.53,10.58,10.58,0,0,0-9.67,7l-1-5.81h-9.2Zm-30.65,34.84a13.09,13.09,0,0,0,11.21-5.49h.33l.64,4.44h9.52l-.73-7.26V82.47h-11.29v26.61a7,7,0,0,1-6.61,6.78c-4.52,0-5.24-3.15-5.24-7.58V82.47h-11.29v27.58c0,9.6,4.51,14.36,13.46,14.36m-28.38.16a21.39,21.39,0,0,0,10.8-2.82l-2.66-7.26a9.4,9.4,0,0,1-4.92,1.53c-3,0-5.16-1.37-5.16-6.13V91.26h10.56V82.47h-10.56V67.31h-11.29v42.9c0,7.34,1,14.36,13.23,14.36m-67-3.47c-9.36,0-13.88-5.56-13.88-13.23a14.85,14.85,0,0,1,8.8-14c4.83,7.1,12.42,14.2,19.84,20.41a18.37,18.37,0,0,1-14.76,6.85m27.9,3.47,2.18-2.82c-2.18-1.62-6-4.52-10.41-8.15,3.23-4.92,4.12-10.4,4.12-16V96.1h-3.55c.16,6.05-.65,11.05-3.23,15.32-7.17-6-14.92-13.47-19.43-20.32A19,19,0,0,1,1162,80.94c0-5.41,3.31-8.55,9.35-8.55,4.28,0,7.59,2.82,9.52,5.32l3-2.34a14.9,14.9,0,0,0-12.59-6.53c-8.46,0-13.14,5.32-13.14,12.58a19.6,19.6,0,0,0,2.74,9.44c-6.69,3.71-11,9.59-11,17.34,0,8.3,5.08,16.29,17.26,16.29,8,0,14-3.07,18.15-8,4,3.23,7.58,6,10.4,8.07m-107.1-34.52v33.31h11.13V97.15A6.94,6.94,0,0,1,1106.7,90c4.36,0,5.09,3.23,5.09,7.66v25.73H1123v-28c0-9.59-4.84-14.11-12.83-14.11a14.32,14.32,0,0,0-12.18,6l-.8-4.84h-9.36Zm-31.45-15,3.3,2.82c3.15-2.66,7.75-6.37,10.49-9.19,1.61-1.7,2.42-3,2.42-4.28,0-3.14-4-4.67-6.54-5.4Zm4.11,41.37c-5.81,0-7.26-5.88-7.26-12.34,0-7.9,2.26-14.76,8.87-14.76a13.75,13.75,0,0,1,5.08.89v20.24c0,3-2.42,6-6.69,6m-2.58,8.23a12.2,12.2,0,0,0,10.64-5.49l.33.09.64,4.11h9.6l-.81-8.15v-31a47.75,47.75,0,0,0-14.84-3c-14.11,0-21.37,9.27-21.37,23.47,0,10.48,3.55,19.92,15.81,19.92m-39.92-8.87c-2.18,0-4.76-.49-6.21-1.62V90.94a19,19,0,0,1,5.24-.81c6.45,0,8.31,5.65,8.31,13.15,0,8-2.34,12.5-7.34,12.5m-17.42-31.7V140.3h11.21V122.79a17,17,0,0,0,7.42,1.78c10.8,0,17.5-7.66,17.5-21.94,0-14.11-6.29-21.37-19.2-21.37a60,60,0,0,0-16.93,2.82m-27.1,32.34c-5.81,0-7.26-5.88-7.26-12.34,0-7.9,2.26-14.76,8.87-14.76a13.75,13.75,0,0,1,5.08.89v20.24c0,3-2.42,6-6.69,6m-2.58,8.23a12.2,12.2,0,0,0,10.64-5.49l.33.09.64,4.11h9.6l-.81-8.15v-31a47.75,47.75,0,0,0-14.84-3c-14.11,0-21.37,9.27-21.37,23.47,0,10.48,3.55,19.92,15.81,19.92m-35.41,11.69c-3.79,0-5.32-2.58-5.32-5.8,0-4.36,3.15-8.87,8.39-11.78,2.58,1.86,3.87,4.6,3.87,8.31,0,5.16-2.34,9.27-6.94,9.27m-.72,8.39c10.16,0,18.14-7.26,18.14-18.31,0-8-3.79-13.47-12.82-17.9l-4.43-2.26,16.93-17.1V82.47H922.1v8.71h17.18l-13.71,13.71v6.21c2.34,1,5.08,2.1,7.5,3.39-7.91,4.27-12.1,10.24-12.1,17.42,0,7.82,4.76,12.82,14.6,12.82m-37.5-28.31c-5.81,0-7.26-5.88-7.26-12.34,0-7.9,2.26-14.76,8.87-14.76a13.75,13.75,0,0,1,5.08.89v20.24c0,3-2.42,6-6.69,6m-2.58,8.23a12.22,12.22,0,0,0,10.64-5.49l.32.09.65,4.11h9.6l-.81-8.15v-31a47.8,47.8,0,0,0-14.84-3c-14.11,0-21.37,9.27-21.37,23.47,0,10.48,3.55,19.92,15.81,19.92m-78.88-34.6v33.31h11.21V97.23c0-4,2.1-7.26,6.13-7.26,4.6,0,5,3.63,5,7.66v25.73h11.29V97c0-3.88,2.18-7,6-7,4.44,0,5.08,3.39,5.08,7.66v25.73h11.29V95.53c0-9.59-4.76-14.27-12.82-14.27-5.16,0-9,2.18-11.45,6-2.26-4.12-6-6-11-6a13.23,13.23,0,0,0-11.45,6l-.89-4.76H815.8ZM762.74,121.1c-9.36,0-13.88-5.56-13.88-13.23a14.85,14.85,0,0,1,8.8-14c4.83,7.1,12.42,14.2,19.84,20.41a18.37,18.37,0,0,1-14.76,6.85m27.9,3.47,2.18-2.82c-2.18-1.62-6-4.52-10.4-8.15,3.22-4.92,4.11-10.4,4.11-16V96.1H783c.16,6.05-.65,11.05-3.23,15.32-7.17-6-14.92-13.47-19.43-20.32a19,19,0,0,1-3.39-10.16c0-5.41,3.31-8.55,9.36-8.55,4.27,0,7.58,2.82,9.51,5.32l3-2.34a14.9,14.9,0,0,0-12.59-6.53c-8.46,0-13.14,5.32-13.14,12.58a19.6,19.6,0,0,0,2.74,9.44c-6.69,3.71-11,9.59-11,17.34,0,8.3,5.08,16.29,17.26,16.29,8,0,13.95-3.07,18.15-8,4,3.23,7.58,6,10.4,8.07m-86,0c9.35,0,15.73-4.6,15.73-13.31,0-8.31-6.62-10.48-12.5-12.42-3.71-1.21-6.46-2.34-6.46-5.32,0-2.74,2.18-4.12,4.84-4.12,3,0,6.29,1.62,9.6,4.28L721,87.15a22.29,22.29,0,0,0-15.32-5.89c-8.15,0-15.33,4.76-15.33,13.39,0,8.47,6.7,10.48,12.67,12.26,3.38,1,6.13,2,6.13,5.16,0,2.9-2.26,4.27-5,4.27-4.12,0-9.12-2.26-11.94-4l-3.06,8c2.25,1.7,8.22,4.28,15.4,4.28m-37.91-8.23c-6.13,0-7.09-7.34-7.09-14.6s2.25-12.25,7.17-12.25c5.33,0,7.1,5,7.1,13.63,0,8.22-2.1,13.22-7.18,13.22m-.64,8.23c10.89,0,19.35-7.34,19.35-22.74,0-18.72-11.93-20.57-18.06-20.57-8.55,0-19.28,4.92-19.28,21.77,0,14.6,6.94,21.54,18,21.54m-29.68,0c3.55,0,7.82-.81,10.32-2.66l-2.42-7.5a12.75,12.75,0,0,1-4.92,1.37c-3,0-4-1.86-4-6.29V67.31H624.1v42.26c0,7.5.65,15,12.26,15m-41.54-24.52c.25-5.81,3.07-10.81,8.47-10.81a3.82,3.82,0,0,1,4.12,4.12c0,5.24-8.23,6.61-12.59,6.69M603,124.57c8.23,0,13.87-3.71,14.76-4.52l-3.23-7.42a17.74,17.74,0,0,1-10.08,3.47c-6,0-8.71-4.11-9.19-8.47,8.71-.32,22.1-2.42,22.1-14.52,0-7.74-5.25-11.85-13.39-11.85-13.23,0-20.16,10.81-20.16,22.66,0,12.1,5.56,20.65,19.19,20.65m-47.74-.16a13.12,13.12,0,0,0,11.21-5.49h.32l.64,4.44h9.52l-.73-7.26V82.47H564.9v26.61a7,7,0,0,1-6.61,6.78c-4.52,0-5.24-3.15-5.24-7.58V82.47H541.76v27.58c0,9.6,4.51,14.36,13.47,14.36M522.16,75.29a10.27,10.27,0,0,0,5.56-1.69l-.72-7a10.55,10.55,0,0,1-5.08,1.69c-3.79,0-6.86-2.5-11.13-2.5a11.91,11.91,0,0,0-6.86,2.59l.81,6.61a12.34,12.34,0,0,1,6.13-1.86c3.22,0,7.66,2.18,11.29,2.18M498.45,90.05v33.31h11.13V97.15A6.94,6.94,0,0,1,516.51,90c4.36,0,5.08,3.23,5.08,7.66v25.73h11.22v-28c0-9.59-4.84-14.11-12.83-14.11a14.32,14.32,0,0,0-12.18,6l-.8-4.84h-9.36ZM467.8,124.41A13.09,13.09,0,0,0,479,118.92h.32l.65,4.44h9.52l-.73-7.26V82.47H477.48v26.61a7,7,0,0,1-6.61,6.78c-4.52,0-5.25-3.15-5.25-7.58V82.47H454.33v27.58c0,9.6,4.52,14.36,13.47,14.36m-40.08-7.75a13.22,13.22,0,0,1-5.65-1.29V94.49c0-3.07,2.75-5.17,5.89-5.17,6.53,0,7.82,6.78,7.82,13.15,0,9.84-2.9,14.19-8.06,14.19m-.48,7.91c12.66,0,19.75-7.82,19.75-23.55,0-13-6.12-19.76-15.8-19.76a14.06,14.06,0,0,0-9.12,3V67.31H410.78v53.87c3.55,1.86,10.65,3.39,16.46,3.39m-70.09-3.47c-9.35,0-13.87-5.56-13.87-13.23a14.86,14.86,0,0,1,8.79-14c4.84,7.1,12.42,14.2,19.84,20.41a18.37,18.37,0,0,1-14.76,6.85m27.91,3.47,2.17-2.82c-2.17-1.62-6-4.52-10.4-8.15,3.23-4.92,4.11-10.4,4.11-16V96.1h-3.55c.17,6.05-.64,11.05-3.22,15.32-7.18-6-14.92-13.47-19.44-20.32a19,19,0,0,1-3.39-10.16c0-5.41,3.31-8.55,9.36-8.55,4.27,0,7.58,2.82,9.52,5.32l3-2.34a14.88,14.88,0,0,0-12.58-6.53c-8.47,0-13.15,5.32-13.15,12.58a19.51,19.51,0,0,0,2.75,9.44c-6.7,3.71-11,9.59-11,17.34,0,8.3,5.08,16.29,17.26,16.29,8,0,13.95-3.07,18.14-8,4,3.23,7.58,6,10.41,8.07m-86.06,0c9.36,0,15.73-4.6,15.73-13.31,0-8.31-6.61-10.48-12.5-12.42-3.71-1.21-6.45-2.34-6.45-5.32,0-2.74,2.18-4.12,4.84-4.12,3,0,6.29,1.62,9.59,4.28l5.25-6.53a22.31,22.31,0,0,0-15.33-5.89c-8.14,0-15.32,4.76-15.32,13.39,0,8.47,6.69,10.48,12.66,12.26,3.39,1,6.13,2,6.13,5.16,0,2.9-2.26,4.27-5,4.27-4.11,0-9.11-2.26-11.94-4l-3.06,8c2.26,1.7,8.23,4.28,15.4,4.28m-39.19-8.15c-5.81,0-7.26-5.88-7.26-12.34,0-7.9,2.26-14.76,8.87-14.76a13.75,13.75,0,0,1,5.08.89v20.24c0,3-2.42,6-6.69,6m-2.58,8.23a12.2,12.2,0,0,0,10.64-5.49l.33.09.64,4.11h9.6l-.81-8.15v-31a47.75,47.75,0,0,0-14.84-3c-14.11,0-21.37,9.27-21.37,23.47,0,10.48,3.55,19.92,15.81,19.92M228.92,76.74c3.71,0,6.29-2.5,6.29-6a6,6,0,0,0-6.21-6,5.93,5.93,0,0,0-6.29,6c0,3.47,2.42,6,6.21,6m-7.34,64.68c12,0,12.74-7.9,12.74-15.64V82.47H223.11v43.15c0,5-1.61,6.61-4.43,6.61A13.76,13.76,0,0,1,213,130.7l-2.9,7.74a24.62,24.62,0,0,0,11.45,3M208.19,76.74a6,6,0,1,0,0-11.93,5.91,5.91,0,0,0-6.21,6c0,3.47,2.42,6,6.21,6m-5.64,46.62h11.37V82.47H202.55ZM172.47,89.57v33.79h11.29V98c.16-4.27,2.74-7.17,6.69-7.17a13.7,13.7,0,0,1,5.81,1.45L198,82.79a13.9,13.9,0,0,0-6.53-1.53c-3.71,0-7.74,2.26-9.68,7l-1-5.81h-9.19Zm-30.57,0v33.79h11.29V98c.16-4.27,2.74-7.17,6.69-7.17a13.66,13.66,0,0,1,5.81,1.45l1.78-9.44a14,14,0,0,0-6.54-1.53,10.58,10.58,0,0,0-9.67,7l-1-5.81h-9.2Zm-26.05,26.77c-6.13,0-7.1-7.34-7.1-14.6s2.26-12.25,7.18-12.25c5.32,0,7.1,5,7.1,13.63,0,8.22-2.1,13.22-7.18,13.22m-.65,8.23c10.89,0,19.36-7.34,19.36-22.74,0-18.72-11.94-20.57-18.07-20.57-8.54,0-19.27,4.92-19.27,21.77,0,14.6,6.94,21.54,18,21.54m-30.72,0a21.39,21.39,0,0,0,10.8-2.82l-2.66-7.26A9.4,9.4,0,0,1,87.7,116c-3,0-5.16-1.37-5.16-6.13V91.26H93.11V82.47H82.54V67.31H71.25v42.9c0,7.34,1,14.36,13.23,14.36"/><path d="M1426.47,213.78c0-1.89,1.09-3.61,3.82-4.78,1.72,1,2.48,1.89,2.48,3.27a3.83,3.83,0,0,1-3.78,4,2.29,2.29,0,0,1-2.52-2.52m-4.67-15.24c0,4.74,2.15,7.1,5.76,9-2.69,1.3-4.5,3.4-4.5,6.55,0,3,2.19,4.91,5.63,4.91a7.47,7.47,0,0,0,7.6-7.6c0-2.73-1.47-4.62-4.7-6.3-4.07-2.1-5.54-3.78-5.54-7.14,0-4.45,2.39-8.69,6.76-8.69a4.62,4.62,0,0,1,4.32,2.64l2.9-1.84a7.38,7.38,0,0,0-7-4.2c-6.77,0-11.18,5.58-11.18,12.64m-23.73-11.76.17,2.6a3.53,3.53,0,0,1,1.6-.46,1.36,1.36,0,0,1,1.55,1.55,7.34,7.34,0,0,1-.08.89l-2.86,16.17h4.2l2.44-13.7a6.06,6.06,0,0,1,5.79-4.66c2.23,0,2.9,1.18,2.9,2.9a10,10,0,0,1-.25,2.14l-3.86,22.14h4.2l4.07-22.94a15.55,15.55,0,0,0,.21-2.22c0-3.61-2-5.29-5.59-5.29a9.43,9.43,0,0,0-7.43,3.69,2.11,2.11,0,0,0,0-.71c-.17-1.93-1.26-3-3.65-3a7,7,0,0,0-3.41.88m-17.55,16.63,1.47-8.53c.8-4.32,3-5.75,5.54-5.75,2.9,0,3.82,2,3.82,4.62a18.13,18.13,0,0,1-.37,3.49c-1,5.46-3.7,7.85-6.64,7.85a6.24,6.24,0,0,1-3.82-1.68m-6.47,12.94h4.2l1.72-9.62a8.55,8.55,0,0,0,4.45,1.43c5.55,0,9.58-4,10.88-11.34a18,18,0,0,0,.34-3.15c0-5-2.65-7.77-7.65-7.77-4.57,0-9,2.26-10.33,9.74Zm-19.19-16.43c0-4.41,1.89-10.66,5.88-10.66,2.64,0,4.28,1.68,4.41,9.15-2.1,4.24-4.5,6.43-6.72,6.43s-3.57-1.51-3.57-4.92m-3.91.59c0,5.46,2.6,7.65,6.68,7.65,3,0,5.79-1.94,8.06-5.13l.09.72c.37,3.23,1.09,4.36,3.78,4.36a8.56,8.56,0,0,0,3.4-.88l-.13-2.6a4.47,4.47,0,0,1-2.14.54c-1.47,0-1.6-.79-1.89-3.4l-.34-2.56a71.09,71.09,0,0,0,5.88-12.64l-3.52-.59c-1.14,3.23-2.23,5.75-3.15,7.81-.42-5.42-2.69-7.89-6.77-7.89-6.42,0-10,7.14-10,14.61m-24.07,15.84h4.29l7.26-11.3,3.78,11.3h4.16l-4.95-15,10.2-14.86h-4.37l-7,11.13-2.4-7.19c-1.3-3.9-2.6-4.57-4.83-4.57a6.67,6.67,0,0,0-3.23.92l.17,2.52a3.59,3.59,0,0,1,1.64-.42c1.21,0,1.68.59,2.31,2.44l3.31,9.95Zm-9.57-41.67-3.15,8.61,1.64.8c1.63-2.14,3.15-4.2,4.07-5.71a3.73,3.73,0,0,0,.67-1.85c0-1.39-1.89-1.76-3.23-1.85m-8.65,25.24c0-4.41,1.89-10.66,5.88-10.66,2.64,0,4.28,1.68,4.41,9.15-2.1,4.24-4.5,6.43-6.72,6.43s-3.57-1.51-3.57-4.92m-3.91.59c0,5.46,2.6,7.65,6.68,7.65,3,0,5.79-1.94,8.06-5.13l.09.72c.37,3.23,1.09,4.36,3.78,4.36a8.56,8.56,0,0,0,3.4-.88l-.13-2.6a4.47,4.47,0,0,1-2.14.54c-1.47,0-1.6-.79-1.89-3.4l-.34-2.56a71.09,71.09,0,0,0,5.88-12.64l-3.52-.59c-1.14,3.23-2.23,5.75-3.15,7.81-.42-5.42-2.69-7.89-6.77-7.89-6.42,0-10,7.14-10,14.61M1293,213.78c0-2,1.26-3.82,4.24-4.95a3.69,3.69,0,0,1,2.23,3.27,3.94,3.94,0,0,1-3.86,4.2,2.36,2.36,0,0,1-2.61-2.52m-5.12-13.86c0,3.2,1.76,5.76,6.3,7.61-2.73,1.3-4.58,3.44-4.58,6.63,0,2.94,2.06,4.87,5.54,4.87a7.56,7.56,0,0,0,7.86-7.6c0-3.15-2.14-5-5-6.26-3.74-1.63-5.8-3.15-5.8-6,0-6.09,6.81-12.69,14.45-17.85l.17-3c-2.23.16-4.83.33-7.31.33a46.73,46.73,0,0,1-8.61-.71l-1.13,3.44a30.12,30.12,0,0,0,6.72.67,42.64,42.64,0,0,0,4.32-.21c-6.76,4.62-12.89,11.13-12.89,18.06m-23.81,13.86c0-1.89,1.09-3.61,3.82-4.78,1.72,1,2.48,1.89,2.48,3.27a3.83,3.83,0,0,1-3.78,4,2.29,2.29,0,0,1-2.52-2.52m-4.67-15.24c0,4.74,2.15,7.1,5.76,9-2.69,1.3-4.5,3.4-4.5,6.55,0,3,2.19,4.91,5.63,4.91a7.47,7.47,0,0,0,7.6-7.6c0-2.73-1.47-4.62-4.7-6.3-4.07-2.1-5.54-3.78-5.54-7.14,0-4.45,2.39-8.69,6.76-8.69a4.62,4.62,0,0,1,4.32,2.64l2.9-1.84a7.38,7.38,0,0,0-7.05-4.2c-6.77,0-11.18,5.58-11.18,12.64m-23.73-11.76.17,2.6a3.53,3.53,0,0,1,1.6-.46,1.36,1.36,0,0,1,1.55,1.55,7.34,7.34,0,0,1-.08.89l-2.86,16.17h4.2l2.44-13.7a6.06,6.06,0,0,1,5.79-4.66c2.23,0,2.9,1.18,2.9,2.9a10,10,0,0,1-.25,2.14l-3.86,22.14h4.2l4.07-22.94a15.55,15.55,0,0,0,.21-2.22c0-3.61-2-5.29-5.59-5.29a9.43,9.43,0,0,0-7.43,3.69,2.11,2.11,0,0,0,0-.71c-.17-1.93-1.26-3-3.65-3a7,7,0,0,0-3.41.88m-21.67-.25,3.49,21H1222c6.3-6.89,10.12-13.28,11.3-21h-4.58c-.71,6.21-3.36,11.5-7.85,17.05l-2.19-17.05Zm-6.51-11.85-3.15,8.61,1.64.8c1.64-2.14,3.15-4.2,4.07-5.71a3.67,3.67,0,0,0,.68-1.85c0-1.39-1.89-1.76-3.24-1.85m-14.74,28.23c0,3.1,2.35,5.25,8,5.25a15.88,15.88,0,0,0,8.82-2.31l-1.13-3a12.69,12.69,0,0,1-6.81,1.93c-3.48,0-4.57-1.13-4.57-2.6,0-2.69,2.56-3.78,6.46-3.78h2.61l.54-3.07h-2.26c-3.91,0-5.17-1.05-5.17-2.73,0-2.43,2.06-3.27,5-3.27s4.66.84,5.54,1.8l2.31-2.68c-1.17-1.43-3.57-2.48-7.52-2.48-7.14,0-9.4,3.61-9.4,6.47a4.26,4.26,0,0,0,3.31,4.32c-3.23.76-5.75,2.77-5.75,6.18m-24.4,13.6h4.16l1.84-10.58a4,4,0,0,0,4,2.23c2.4,0,4.5-1.39,6.09-3.83a3.8,3.8,0,0,0-.08,1.26c0,1.68,1.13,2.52,3.07,2.52a7.17,7.17,0,0,0,3.36-.88l-.21-2.48a4.55,4.55,0,0,1-1.68.42c-.89,0-1.22-.42-1.22-1.17a3.4,3.4,0,0,1,.08-.63l2.94-16.84h-4.2L1184.38,199c-.59,3.32-3.23,5.84-5.54,5.84s-3.49-1.39-3.49-3.61a8,8,0,0,1,.21-1.68l2.27-13h-4.2Zm-20-16.59c0-4.41,1.89-10.66,5.88-10.66,2.64,0,4.28,1.68,4.41,9.15-2.1,4.24-4.5,6.43-6.72,6.43s-3.57-1.51-3.57-4.92m-3.91.59c0,5.46,2.6,7.65,6.68,7.65,3,0,5.79-1.94,8.06-5.13l.09.72c.37,3.23,1.09,4.36,3.78,4.36a8.56,8.56,0,0,0,3.4-.88l-.13-2.6a4.47,4.47,0,0,1-2.14.54c-1.47,0-1.6-.79-1.89-3.4l-.34-2.56a71.09,71.09,0,0,0,5.88-12.64l-3.52-.59c-1.14,3.23-2.23,5.75-3.15,7.81-.42-5.42-2.69-7.89-6.77-7.89-6.42,0-10,7.14-10,14.61m-21.55,7h4l.29-1.52,5.88-7.35,4.45,8.87h4.24l-6.25-11.93.5-.59c4.28-5.42,5.17-5.92,6.38-5.92a3.14,3.14,0,0,1,1.6.46l1.18-2.77a5.2,5.2,0,0,0-3-.88c-2.64,0-4.2,1.21-8.65,7l-5.21,6.76,2.36-13.14h-4.16Zm-22.84,6.25c0-1.89,1.09-3.61,3.82-4.78,1.72,1,2.48,1.89,2.48,3.27a3.83,3.83,0,0,1-3.78,4,2.29,2.29,0,0,1-2.52-2.52m-4.67-15.24c0,4.74,2.15,7.1,5.76,9-2.69,1.3-4.5,3.4-4.5,6.55,0,3,2.19,4.91,5.63,4.91a7.47,7.47,0,0,0,7.6-7.6c0-2.73-1.47-4.62-4.7-6.3-4.07-2.1-5.54-3.78-5.54-7.14,0-4.45,2.39-8.69,6.76-8.69a4.62,4.62,0,0,1,4.32,2.64l2.9-1.84a7.38,7.38,0,0,0-7.05-4.2c-6.77,0-11.18,5.58-11.18,12.64m-23.73-11.76.17,2.6a3.53,3.53,0,0,1,1.6-.46,1.36,1.36,0,0,1,1.55,1.55,7.34,7.34,0,0,1-.08.89l-2.86,16.17h4.2l2.44-13.7a6.06,6.06,0,0,1,5.79-4.66c2.23,0,2.9,1.18,2.9,2.9a10,10,0,0,1-.25,2.14l-3.86,22.14h4.2l4.07-22.94a15.55,15.55,0,0,0,.21-2.22c0-3.61-2-5.29-5.59-5.29a9.43,9.43,0,0,0-7.43,3.69,2.11,2.11,0,0,0,0-.71c-.17-1.93-1.26-3-3.65-3a7,7,0,0,0-3.41.88m-20.2,3.32h6.6c-1.26,4.57-2.77,10.71-2.77,13.35,0,2.86,1.3,4.71,5.33,4.71a10.82,10.82,0,0,0,5.46-1.47l-.76-2.78a6.59,6.59,0,0,1-3.15,1c-1.47,0-2.56-.5-2.56-2.56s1.43-7.56,2.56-12.22h7.61l.58-3.57h-18.31Zm-30.82,9.82c0-4.41,1.89-10.66,5.88-10.66,2.64,0,4.28,1.68,4.41,9.15-2.1,4.24-4.5,6.43-6.72,6.43s-3.57-1.51-3.57-4.92m-3.91.59c0,5.46,2.6,7.65,6.68,7.65,3,0,5.79-1.94,8.06-5.13l.09.72c.37,3.23,1.09,4.36,3.78,4.36a8.56,8.56,0,0,0,3.4-.88l-.13-2.6a4.47,4.47,0,0,1-2.14.54c-1.47,0-1.6-.79-1.89-3.4l-.34-2.56a71.09,71.09,0,0,0,5.88-12.64l-3.52-.59c-1.14,3.23-2.23,5.75-3.15,7.81-.42-5.42-2.69-7.89-6.77-7.89-6.42,0-10,7.14-10,14.61m-25.16,16h4.16l1.85-10.58a4,4,0,0,0,4,2.23c2.39,0,4.49-1.39,6.09-3.83a3.64,3.64,0,0,0-.09,1.26c0,1.68,1.14,2.52,3.07,2.52a7.17,7.17,0,0,0,3.36-.88l-.21-2.48a4.47,4.47,0,0,1-1.68.42c-.88,0-1.22-.42-1.22-1.17a2.74,2.74,0,0,1,.09-.63l2.94-16.84h-4.2L1007.6,199c-.58,3.32-3.23,5.84-5.54,5.84s-3.49-1.39-3.49-3.61a8.66,8.66,0,0,1,.21-1.68l2.27-13h-4.2Zm-29.94-15.45c0,4.91,2.35,7.05,6.09,7.05a8,8,0,0,0,7.26-5,5.11,5.11,0,0,0,5.46,5c6.76,0,9.66-6.67,9.66-13.94a12.27,12.27,0,0,0-2.22-7.64h-4.5a12.64,12.64,0,0,1,2.31,7.81c0,5.08-1.51,10.5-5.12,10.5-2.27,0-3-1.77-3-3.61a11.67,11.67,0,0,1,.13-1.64l1.18-6.39h-4.25l-1.13,6.39c-.42,2.48-1.89,5.25-4.66,5.25-2.19,0-2.86-1.68-2.86-3.91a20.2,20.2,0,0,1,6.47-14.4h-4.54c-3.9,3.06-6.25,9.24-6.25,14.53m-17.81,2.35,1.47-8.53c.8-4.32,3-5.75,5.54-5.75,2.9,0,3.82,2,3.82,4.62a18.13,18.13,0,0,1-.37,3.49c-1,5.46-3.7,7.85-6.64,7.85a6.24,6.24,0,0,1-3.82-1.68m-6.47,12.94h4.2l1.72-9.62a8.55,8.55,0,0,0,4.45,1.43c5.55,0,9.58-4,10.88-11.34a18,18,0,0,0,.34-3.15c0-5-2.65-7.77-7.65-7.77-4.57,0-9,2.26-10.33,9.74Zm-10.54-41.67-3.15,8.61,1.64.8c1.63-2.14,3.15-4.2,4.07-5.71a3.73,3.73,0,0,0,.67-1.85c0-1.39-1.89-1.76-3.23-1.85m-8.65,25.24c0-4.41,1.89-10.66,5.88-10.66,2.64,0,4.28,1.68,4.41,9.15-2.1,4.24-4.5,6.43-6.72,6.43s-3.57-1.51-3.57-4.92m-3.91.59c0,5.46,2.6,7.65,6.68,7.65,3,0,5.79-1.94,8.06-5.13l.09.72c.37,3.23,1.09,4.36,3.78,4.36a8.56,8.56,0,0,0,3.4-.88l-.13-2.6a4.47,4.47,0,0,1-2.14.54c-1.47,0-1.6-.79-1.89-3.4l-.34-2.56a71.09,71.09,0,0,0,5.88-12.64l-3.52-.59c-1.14,3.23-2.23,5.75-3.15,7.81-.42-5.42-2.69-7.89-6.77-7.89-6.42,0-10,7.14-10,14.61M891.39,205c-3,0-3.74-2.14-3.74-4.78a25.69,25.69,0,0,1,.38-3.83c.8-4.28,2.94-7.26,6.39-7.26,2.77,0,3.78,1.8,3.78,4.66a22,22,0,0,1-.34,3.44c-.8,4.5-3,7.77-6.47,7.77m-.59,3.2c5.3,0,10-3,11.47-11.39a20.52,20.52,0,0,0,.29-3.4c0-6.05-4.45-7.47-7.56-7.47-4.15,0-9.87,2-11.34,10.83a19.06,19.06,0,0,0-.33,3.61c0,5.13,2.69,7.82,7.47,7.82M864.85,190.1h6.59c-1.26,4.57-2.77,10.71-2.77,13.35,0,2.86,1.3,4.71,5.33,4.71a10.76,10.76,0,0,0,5.46-1.47l-.75-2.78a6.66,6.66,0,0,1-3.15,1c-1.47,0-2.56-.5-2.56-2.56s1.42-7.56,2.56-12.22h7.6l.59-3.57H865.44Zm-22.93,13.48c0,3.11,1.8,4.58,5.2,4.58a10.56,10.56,0,0,0,5.3-1.47l-.63-2.73a6.33,6.33,0,0,1-3.07.92c-1.51,0-2.48-.5-2.48-2.31a5.33,5.33,0,0,1,.17-1.34l2.56-14.7h-4.24l-2.6,14.86a13.78,13.78,0,0,0-.21,2.19m-22.14-3.66c0-4.41,1.89-10.66,5.88-10.66,2.65,0,4.29,1.68,4.41,9.15-2.1,4.24-4.49,6.43-6.72,6.43s-3.57-1.51-3.57-4.92m-3.9.59c0,5.46,2.6,7.65,6.67,7.65,3,0,5.8-1.94,8.07-5.13l.08.72c.38,3.23,1.09,4.36,3.78,4.36a8.47,8.47,0,0,0,3.4-.88l-.12-2.6a4.47,4.47,0,0,1-2.14.54c-1.47,0-1.6-.79-1.89-3.4l-.34-2.56a71.8,71.8,0,0,0,5.88-12.64l-3.53-.59c-1.13,3.23-2.22,5.75-3.15,7.81-.42-5.42-2.69-7.89-6.76-7.89-6.43,0-10,7.14-10,14.61m-21.55,7h4l.3-1.52,5.88-7.35,4.45,8.87h4.24L807,195.6l.51-.59c4.28-5.42,5.16-5.92,6.38-5.92a3.14,3.14,0,0,1,1.6.46l1.17-2.77a5.15,5.15,0,0,0-3-.88c-2.64,0-4.2,1.21-8.65,7l-5.21,6.76,2.35-13.14H798Zm-22.85,6.25c0-1.89,1.1-3.61,3.83-4.78,1.72,1,2.47,1.89,2.47,3.27a3.82,3.82,0,0,1-3.78,4,2.3,2.3,0,0,1-2.52-2.52m-4.66-15.24c0,4.74,2.14,7.1,5.76,9-2.69,1.3-4.5,3.4-4.5,6.55,0,3,2.19,4.91,5.63,4.91a7.47,7.47,0,0,0,7.6-7.6c0-2.73-1.47-4.62-4.7-6.3-4.08-2.1-5.55-3.78-5.55-7.14,0-4.45,2.4-8.69,6.77-8.69a4.62,4.62,0,0,1,4.32,2.64l2.9-1.84a7.39,7.39,0,0,0-7.06-4.2c-6.76,0-11.17,5.58-11.17,12.64M752.54,205c-3,0-3.74-2.14-3.74-4.78a25.69,25.69,0,0,1,.38-3.83c.8-4.28,2.94-7.26,6.39-7.26,2.77,0,3.78,1.8,3.78,4.66a22,22,0,0,1-.34,3.44c-.8,4.5-3,7.77-6.47,7.77m-.59,3.2c5.3,0,10-3,11.47-11.39a20.52,20.52,0,0,0,.29-3.4c0-6.05-4.45-7.47-7.56-7.47-4.15,0-9.87,2-11.34,10.83a19.06,19.06,0,0,0-.33,3.61c0,5.13,2.69,7.82,7.47,7.82M726,190.1h6.59c-1.26,4.57-2.77,10.71-2.77,13.35,0,2.86,1.3,4.71,5.34,4.71a10.82,10.82,0,0,0,5.46-1.47l-.76-2.78a6.66,6.66,0,0,1-3.15,1c-1.47,0-2.56-.5-2.56-2.56s1.43-7.56,2.56-12.22h7.6l.59-3.57H726.59Zm-8-15.42-3.15,8.61,1.63.8c1.64-2.14,3.15-4.2,4.08-5.71a3.73,3.73,0,0,0,.67-1.85c0-1.39-1.89-1.76-3.23-1.85m-12.65,27.09c0,4.16,2.52,6.34,7,6.34,5.37,0,9.74-3.36,11.13-11.17a31.29,31.29,0,0,0,.42-4.7,25.21,25.21,0,0,0-.67-5.71H719a25.89,25.89,0,0,1,.58,5.62,32.71,32.71,0,0,1-.42,5.34c-.58,3.23-2,7.35-6.13,7.35-2.64,0-3.48-1.35-3.48-3.36a11,11,0,0,1,.21-2l2.26-13h-4.24l-2.27,13a11.21,11.21,0,0,0-.21,2.22M690.47,205c-3,0-3.74-2.14-3.74-4.78a25.69,25.69,0,0,1,.38-3.83c.8-4.28,2.94-7.26,6.38-7.26,2.77,0,3.78,1.8,3.78,4.66a21.89,21.89,0,0,1-.33,3.44c-.8,4.5-3,7.77-6.47,7.77m-.59,3.2c5.29,0,10-3,11.47-11.39a20.52,20.52,0,0,0,.29-3.4c0-6.05-4.45-7.47-7.56-7.47-4.16,0-9.87,2-11.34,10.83a19.12,19.12,0,0,0-.34,3.61c0,5.13,2.69,7.82,7.48,7.82m-30.83-.63h4.37l9.28-15.88,3.11,15.88h4L675,184.13c-1-4.91-2.39-6.76-6.05-6.76a8,8,0,0,0-4.49,1.39l.54,2.85a5.46,5.46,0,0,1,3.15-1.09c2.06,0,2.61,1.22,3.36,4.91l.26,1.31Zm-22.13,0h4l4.53-17.6h6.39l-1.72,13.14a9.36,9.36,0,0,0-.13,1.52c0,2.26,1,3.48,3.74,3.48a8.93,8.93,0,0,0,3.86-.92l-.29-2.52a5.13,5.13,0,0,1-1.81.42c-1,0-1.43-.34-1.43-1.39,0-.29.05-.67.09-1l1.68-12.68h4.45l.63-3.4H638l-.63,3.4h4.11ZM613.65,205c-3,0-3.74-2.14-3.74-4.78a25.69,25.69,0,0,1,.38-3.83c.8-4.28,2.94-7.26,6.38-7.26,2.78,0,3.78,1.8,3.78,4.66a21.89,21.89,0,0,1-.33,3.44c-.8,4.5-3,7.77-6.47,7.77m-.59,3.2c5.29,0,10-3,11.47-11.39a20.52,20.52,0,0,0,.29-3.4c0-6.05-4.45-7.47-7.56-7.47-4.16,0-9.87,2-11.34,10.83a19.06,19.06,0,0,0-.33,3.61c0,5.13,2.68,7.82,7.47,7.82m-27-21.63,3.48,21H594c6.3-6.89,10.12-13.28,11.29-21h-4.57c-.72,6.21-3.36,11.5-7.86,17.05l-2.18-17.05Zm-6.51-11.85-3.15,8.61,1.64.8c1.63-2.14,3.15-4.2,4.07-5.71a3.73,3.73,0,0,0,.67-1.85c0-1.39-1.89-1.76-3.23-1.85m-14.74,28.23c0,3.1,2.35,5.25,8,5.25a15.93,15.93,0,0,0,8.82-2.31l-1.14-3a12.63,12.63,0,0,1-6.8,1.93c-3.49,0-4.58-1.13-4.58-2.6,0-2.69,2.56-3.78,6.47-3.78h2.6l.55-3.07h-2.27c-3.9,0-5.16-1.05-5.16-2.73,0-2.43,2-3.27,5-3.27s4.67.84,5.55,1.8l2.31-2.68c-1.18-1.43-3.57-2.48-7.52-2.48-7.14,0-9.41,3.61-9.41,6.47a4.27,4.27,0,0,0,3.32,4.32c-3.23.76-5.75,2.77-5.75,6.18m-24.41,13.6h4.16l1.85-10.58a4,4,0,0,0,4,2.23c2.39,0,4.49-1.39,6.09-3.83a3.3,3.3,0,0,0-.08,1.26c0,1.68,1.13,2.52,3.06,2.52a7.17,7.17,0,0,0,3.36-.88l-.21-2.48a4.47,4.47,0,0,1-1.68.42c-.88,0-1.22-.42-1.22-1.17a3.42,3.42,0,0,1,.09-.63l2.94-16.84h-4.2L556.45,199c-.59,3.32-3.24,5.84-5.55,5.84s-3.48-1.39-3.48-3.61a8,8,0,0,1,.21-1.68l2.26-13h-4.2ZM510.5,201.06c0,4.91,2.35,7.05,6.09,7.05a8,8,0,0,0,7.26-5,5.12,5.12,0,0,0,5.46,5c6.77,0,9.66-6.67,9.66-13.94a12.27,12.27,0,0,0-2.22-7.64h-4.5a12.64,12.64,0,0,1,2.31,7.81c0,5.08-1.51,10.5-5.12,10.5-2.27,0-3-1.77-3-3.61a11.63,11.63,0,0,1,.12-1.64l1.18-6.39h-4.24l-1.14,6.39c-.42,2.48-1.89,5.25-4.66,5.25-2.18,0-2.86-1.68-2.86-3.91a20.2,20.2,0,0,1,6.47-14.4h-4.53c-3.91,3.06-6.26,9.24-6.26,14.53m-23.23,6.47h4.37l9.28-15.88L504,207.53h4l-4.83-23.4c-1-4.91-2.39-6.76-6.05-6.76a8,8,0,0,0-4.49,1.39l.54,2.85a5.46,5.46,0,0,1,3.15-1.09c2.06,0,2.61,1.22,3.36,4.91l.26,1.31Zm-17.85-4.62c0,3.1,2.35,5.25,8,5.25a15.88,15.88,0,0,0,8.82-2.31l-1.13-3a12.68,12.68,0,0,1-6.8,1.93c-3.49,0-4.58-1.13-4.58-2.6,0-2.69,2.56-3.78,6.47-3.78h2.6l.55-3.07H481.1c-3.91,0-5.17-1.05-5.17-2.73,0-2.43,2.06-3.27,5-3.27s4.66.84,5.54,1.8l2.31-2.68c-1.17-1.43-3.57-2.48-7.51-2.48-7.14,0-9.41,3.61-9.41,6.47a4.26,4.26,0,0,0,3.32,4.32c-3.24.76-5.76,2.77-5.76,6.18M445,216.51h4.16L451,205.93a4,4,0,0,0,4,2.23c2.39,0,4.49-1.39,6.09-3.83a3.64,3.64,0,0,0-.09,1.26c0,1.68,1.14,2.52,3.07,2.52a7.17,7.17,0,0,0,3.36-.88l-.21-2.48a4.47,4.47,0,0,1-1.68.42c-.88,0-1.22-.42-1.22-1.17a3.4,3.4,0,0,1,.08-.63l2.94-16.84h-4.2L461,199c-.59,3.32-3.23,5.84-5.54,5.84s-3.49-1.39-3.49-3.61a8.66,8.66,0,0,1,.21-1.68l2.27-13h-4.2Zm-20-16.59c0-4.41,1.89-10.66,5.88-10.66,2.64,0,4.28,1.68,4.41,9.15-2.1,4.24-4.5,6.43-6.72,6.43s-3.57-1.51-3.57-4.92m-3.91.59c0,5.46,2.61,7.65,6.68,7.65,3,0,5.8-1.94,8.06-5.13l.09.72c.38,3.23,1.09,4.36,3.78,4.36a8.56,8.56,0,0,0,3.4-.88l-.13-2.6a4.45,4.45,0,0,1-2.14.54c-1.47,0-1.59-.79-1.89-3.4l-.33-2.56a72.53,72.53,0,0,0,5.88-12.64L441,186c-1.14,3.23-2.23,5.75-3.15,7.81-.42-5.42-2.69-7.89-6.76-7.89-6.43,0-10,7.14-10,14.61m-18,2.9,1.47-8.53c.79-4.32,3-5.75,5.54-5.75,2.9,0,3.82,2,3.82,4.62a17.43,17.43,0,0,1-.38,3.49c-1,5.46-3.69,7.85-6.63,7.85a6.24,6.24,0,0,1-3.82-1.68m-6.47,12.94h4.2l1.72-9.62a8.55,8.55,0,0,0,4.45,1.43c5.55,0,9.58-4,10.88-11.34a18,18,0,0,0,.34-3.15c0-5-2.65-7.77-7.65-7.77-4.58,0-9,2.26-10.33,9.74Zm-19.19-16.43c0-4.41,1.89-10.66,5.88-10.66,2.64,0,4.28,1.68,4.41,9.15-2.1,4.24-4.5,6.43-6.72,6.43s-3.57-1.51-3.57-4.92m-3.91.59c0,5.46,2.6,7.65,6.68,7.65,3,0,5.79-1.94,8.06-5.13l.09.72c.37,3.23,1.09,4.36,3.78,4.36a8.56,8.56,0,0,0,3.4-.88l-.13-2.6a4.47,4.47,0,0,1-2.14.54c-1.47,0-1.6-.79-1.89-3.4l-.34-2.56A71.09,71.09,0,0,0,397,186.57l-3.52-.59c-1.14,3.23-2.23,5.75-3.15,7.81-.42-5.42-2.69-7.89-6.77-7.89-6.42,0-9.95,7.14-9.95,14.61m-21.55,7h4l.29-1.52,5.88-7.35,4.45,8.87h4.24l-6.25-11.93.5-.59c4.28-5.42,5.17-5.92,6.38-5.92a3.14,3.14,0,0,1,1.6.46l1.18-2.77a5.2,5.2,0,0,0-3-.88c-2.64,0-4.2,1.21-8.65,7l-5.21,6.76,2.36-13.14h-4.16Zm-20.45,5.2,2.14.72,5.59-9a4.3,4.3,0,0,0-2.86-1.56c-1.09,0-1.76.72-2.35,2.19-.63,1.72-1.43,4-2.52,7.68m-11.89,1.05c0-1.89,1.1-3.61,3.83-4.78,1.72,1,2.47,1.89,2.47,3.27a3.82,3.82,0,0,1-3.78,4,2.3,2.3,0,0,1-2.52-2.52M315,198.54c0,4.74,2.14,7.1,5.76,9-2.69,1.3-4.5,3.4-4.5,6.55,0,3,2.19,4.91,5.63,4.91a7.47,7.47,0,0,0,7.6-7.6c0-2.73-1.47-4.62-4.7-6.3-4.08-2.1-5.55-3.78-5.55-7.14,0-4.45,2.4-8.69,6.77-8.69a4.62,4.62,0,0,1,4.32,2.64l2.9-1.84a7.39,7.39,0,0,0-7.06-4.2c-6.76,0-11.17,5.58-11.17,12.64M300.75,205c-3,0-3.74-2.14-3.74-4.78a25.69,25.69,0,0,1,.38-3.83c.8-4.28,2.94-7.26,6.39-7.26,2.77,0,3.78,1.8,3.78,4.66a22,22,0,0,1-.34,3.44c-.8,4.5-3,7.77-6.47,7.77m-.59,3.2c5.3,0,10-3,11.47-11.39a20.52,20.52,0,0,0,.29-3.4c0-6.05-4.45-7.47-7.56-7.47-4.15,0-9.87,2-11.34,10.83a19.06,19.06,0,0,0-.33,3.61c0,5.13,2.69,7.82,7.47,7.82m-31.5,8.19H273l7.26-11.3,3.78,11.3h4.16l-4.95-15,10.2-14.86H289l-7,11.13-2.4-7.19c-1.3-3.9-2.6-4.57-4.83-4.57a6.67,6.67,0,0,0-3.23.92l.17,2.52a3.59,3.59,0,0,1,1.64-.42c1.21,0,1.68.59,2.31,2.44l3.31,9.95ZM258.29,205c-3,0-3.74-2.14-3.74-4.78a25.69,25.69,0,0,1,.38-3.83c.8-4.28,2.94-7.26,6.39-7.26,2.77,0,3.78,1.8,3.78,4.66a22,22,0,0,1-.34,3.44c-.8,4.5-3,7.77-6.47,7.77m-.59,3.2c5.3,0,10-3,11.47-11.39a20.52,20.52,0,0,0,.29-3.4c0-6.05-4.45-7.47-7.56-7.47-4.15,0-9.87,2-11.34,10.83a19.06,19.06,0,0,0-.33,3.61c0,5.13,2.69,7.82,7.47,7.82m-25.41-4.75,1.47-8.53c.8-4.32,3-5.75,5.55-5.75,2.9,0,3.82,2,3.82,4.62a18.19,18.19,0,0,1-.38,3.49c-1,5.46-3.69,7.85-6.63,7.85a6.26,6.26,0,0,1-3.83-1.68m-6.46,12.94H230l1.72-9.62a8.55,8.55,0,0,0,4.45,1.43c5.54,0,9.58-4,10.88-11.34a18,18,0,0,0,.33-3.15c0-5-2.64-7.77-7.64-7.77-4.58,0-9,2.26-10.33,9.74Zm-2.65-41.67L220,183.29l1.64.8c1.64-2.14,3.15-4.2,4.07-5.71a3.73,3.73,0,0,0,.67-1.85c0-1.39-1.89-1.76-3.23-1.85m-14.74,28.23c0,3.1,2.35,5.25,8,5.25a15.9,15.9,0,0,0,8.82-2.31l-1.13-3a12.69,12.69,0,0,1-6.81,1.93c-3.48,0-4.58-1.13-4.58-2.6,0-2.69,2.57-3.78,6.47-3.78h2.61l.54-3.07h-2.27c-3.9,0-5.16-1.05-5.16-2.73,0-2.43,2.06-3.27,5-3.27s4.66.84,5.54,1.8l2.31-2.68c-1.18-1.43-3.57-2.48-7.52-2.48-7.14,0-9.41,3.61-9.41,6.47a4.27,4.27,0,0,0,3.32,4.32c-3.23.76-5.75,2.77-5.75,6.18m-22.89,4.62h4l4.53-17.6h6.39l-1.72,13.14a9.36,9.36,0,0,0-.13,1.52c0,2.26,1,3.48,3.74,3.48a8.93,8.93,0,0,0,3.86-.92l-.29-2.52a5.13,5.13,0,0,1-1.81.42c-1,0-1.43-.34-1.43-1.39,0-.29,0-.67.09-1l1.68-12.68h4.45l.63-3.4H186.6l-.63,3.4h4.11Zm-21.13-5.76c0,4.16,2.52,6.34,7,6.34,5.37,0,9.74-3.36,11.13-11.17a31.29,31.29,0,0,0,.42-4.7,24.61,24.61,0,0,0-.68-5.71h-4.2a25.25,25.25,0,0,1,.59,5.62,32.71,32.71,0,0,1-.42,5.34c-.59,3.23-2,7.35-6.13,7.35-2.65,0-3.49-1.35-3.49-3.36a12,12,0,0,1,.21-2l2.27-13H166.9l-2.27,13a10.5,10.5,0,0,0-.21,2.22m-24.32,12c0-1.89,1.1-3.61,3.83-4.78,1.72,1,2.47,1.89,2.47,3.27a3.82,3.82,0,0,1-3.78,4,2.3,2.3,0,0,1-2.52-2.52m-4.66-15.24c0,4.74,2.14,7.1,5.76,9-2.69,1.3-4.5,3.4-4.5,6.55,0,3,2.19,4.91,5.63,4.91a7.47,7.47,0,0,0,7.6-7.6c0-2.73-1.47-4.62-4.7-6.3-4.08-2.1-5.55-3.78-5.55-7.14,0-4.45,2.4-8.69,6.77-8.69a4.62,4.62,0,0,1,4.32,2.64l2.9-1.84a7.39,7.39,0,0,0-7.06-4.2c-6.76,0-11.17,5.58-11.17,12.64m-20.66,1.38c0-4.41,1.89-10.66,5.88-10.66,2.64,0,4.28,1.68,4.41,9.15-2.1,4.24-4.5,6.43-6.72,6.43s-3.57-1.51-3.57-4.92m-3.91.59c0,5.46,2.61,7.65,6.68,7.65,3,0,5.8-1.94,8.06-5.13l.09.72c.38,3.23,1.09,4.36,3.78,4.36a8.56,8.56,0,0,0,3.4-.88l-.13-2.6a4.45,4.45,0,0,1-2.14.54c-1.47,0-1.59-.79-1.89-3.4l-.33-2.56a72.53,72.53,0,0,0,5.88-12.64l-3.53-.59c-1.14,3.23-2.23,5.75-3.15,7.81-.42-5.42-2.69-7.89-6.76-7.89-6.43,0-10,7.14-10,14.61m-19.53-14,3.49,21h4.45c6.3-6.89,10.12-13.28,11.3-21H106c-.71,6.21-3.36,11.5-7.85,17.05L96,186.53Zm-6.51-11.85-3.15,8.61,1.64.8c1.64-2.14,3.15-4.2,4.07-5.71a3.67,3.67,0,0,0,.68-1.85c0-1.39-1.89-1.76-3.24-1.85M70.09,202.91c0,3.1,2.35,5.25,8,5.25a15.88,15.88,0,0,0,8.82-2.31l-1.13-3A12.69,12.69,0,0,1,79,204.75c-3.48,0-4.57-1.13-4.57-2.6,0-2.69,2.56-3.78,6.46-3.78h2.61L84,195.3H81.77c-3.91,0-5.17-1.05-5.17-2.73,0-2.43,2.06-3.27,5-3.27s4.66.84,5.54,1.8l2.31-2.68c-1.17-1.43-3.57-2.48-7.52-2.48-7.14,0-9.4,3.61-9.4,6.47a4.26,4.26,0,0,0,3.31,4.32c-3.23.76-5.75,2.77-5.75,6.18"/><path d="M1451.19,811.35c.07-2.4,1.11-5.78,6-7.34l.2.06c4.94,1.82,5.52,5.2,5.52,7.54,0,4.75-3.57,6.44-6.17,6.37-4-.13-5.59-3.51-5.53-6.63M1442,786.46c0,8.12,3,12.41,12.22,16.38a9.44,9.44,0,0,0-6.18,9.1c-.06,3.83,2.41,8.38,8.52,8.58,4.68.13,9.17-2.73,9.3-8.91.06-3.44-.79-7.28-7.87-10.2-11.12-4.62-12.74-7.74-12.74-15,0-9.75,4.48-13.84,10.27-13.84a10.12,10.12,0,0,1,8.51,4.35l2.34-1.75a12.53,12.53,0,0,0-10.79-5.4c-5.59,0-13.58,3.45-13.58,16.71m-29.77,7.8c0,5.91,4.68,9.29,13.39,9.29,4.81,0,9.49-1.69,11.83-3.64l-1.63-2.21a18,18,0,0,1-10.07,3.06c-8.32,0-10.27-3.45-10.27-6.44,0-5.39,4.81-6.69,13.52-6.69h1V785h-.91c-10.27,0-12.54-2.34-12.54-6.37,0-3.51,3-6.11,9-6.11a13.67,13.67,0,0,1,8.9,3.05l2-2.14c-2-2.28-5.72-3.64-10.92-3.64-10,0-12.22,5.46-12.22,9,0,3.38,2,6.18,5.91,7.41-4.55,1-7,4.23-7,8m-30-5.07c0-6.83,2.93-12.09,10.73-14.5l1.43.65c5.33,2.21,8.51,6.89,8.51,14,0,5-2.92,11.57-10.72,11.57-7.48,0-10-6.11-10-11.7m-3.18-.13c0,8.9,4.29,14.49,13.06,14.49,9.49,0,14-6.89,14-14.62,0-5.85-1.82-11.7-9.88-15.86-5.66-2.86-8.13-4.42-8.13-7.8,0-3.71,2.47-5.66,7.22-5.66a15.28,15.28,0,0,1,8.38,2.47l1.24-2.6a16.84,16.84,0,0,0-9.49-2.66c-6.76,0-10.47,4-10.47,8.51,0,3.45,1.43,5.79,5.2,8-6.43,2.14-11.11,7.15-11.11,15.73m-12.42-35.88-4.94,12.22,1.69.78c3.12-4.29,4.81-7,5.85-8.71a4.91,4.91,0,0,0,.85-2.28c0-1.56-1.63-1.88-3.45-2m-17.35,41.08c0,5.91,4.68,9.29,13.39,9.29,4.81,0,9.49-1.69,11.83-3.64l-1.63-2.21a18,18,0,0,1-10.07,3.06c-8.32,0-10.27-3.45-10.27-6.44,0-5.39,4.81-6.69,13.52-6.69h1V785h-.91c-10.27,0-12.54-2.34-12.54-6.37,0-3.51,3-6.11,9-6.11a13.67,13.67,0,0,1,8.9,3.05l2-2.14c-2-2.28-5.72-3.64-10.92-3.64-9.95,0-12.22,5.46-12.22,9,0,3.38,1.95,6.18,5.91,7.41-4.55,1-7,4.23-7,8m-18.46.39c0,5.13,1,8.9,8.12,8.9a11.94,11.94,0,0,0,6.76-2.14l-1.23-2.28a9.49,9.49,0,0,1-5.33,1.76c-3.25,0-5.07-1.3-5.07-6V770.66h-3.25Zm-37.57,8h3.25l2-29h14.17l.65,22.81c.13,5.2,1.75,7.15,6.05,7.15a7.94,7.94,0,0,0,4.35-1.23l-1-2.28a6.19,6.19,0,0,1-3.06.85c-2.34,0-3.06-1-3.12-4.29l-.65-23h7.41v-2.93h-35.56v2.93h7.48Zm-36.27,14h3.18V799.07c1.56,2.4,3.9,4.48,8.58,4.48,3.45,0,7.48-2.47,9.69-6.63v1.37c0,3.44,2,5.26,5.27,5.26a7.36,7.36,0,0,0,4-1.23l-1-2.28a5.81,5.81,0,0,1-2.86.85c-2,0-2.6-1.11-2.6-3.19v-27h-3.25v18.27c0,6.69-4.55,12-9.36,12-6.37,0-8.45-4.75-8.45-10.66V770.66H1257Zm-38.55-29.18c.2-10.47,4.36-15,9.56-15,4.74,0,8.38,3.32,10.66,15.93-2,7.93-6.89,12.48-11,12.48-5.4,0-9.36-4.55-9.17-13.39m-3.25,0c-.26,11.37,5.33,16,12.16,16,5.46,0,10.4-4.35,12.61-11.11l.84,3.38c1.43,5.72,2.28,7.6,6.57,7.6a9.53,9.53,0,0,0,4.42-1.3l-1-2.47a5.87,5.87,0,0,1-3.44,1.11c-2,0-2.53-.13-3.84-4.75l-2-7.28a112.43,112.43,0,0,0,4.55-18.52l-3-.46a109.17,109.17,0,0,1-2.86,13.72c-1.82-10-6-13.72-12-13.72-5.72,0-12.8,3.84-13.07,17.75m-29.83,9.55V785.81c0-10.4,4.68-13.26,9.88-13.26,8.26,0,9.62,7,9.62,14.43,0,10.4-5.07,13.84-10.07,13.84a15,15,0,0,1-9.43-3.77m-3.25,19.24h3.25V800.56a16.43,16.43,0,0,0,9.43,3c7.86,0,13.32-6.11,13.32-17.29,0-10.85-4.09-16.51-13-16.51-6.43,0-13,3.38-13,16.06Zm-33-24.24c0,8.58,4.81,11.5,11.77,11.5,7.34,0,12.93-4.74,12.93-17a36.29,36.29,0,0,0-3.31-15.93h-3.25a36.09,36.09,0,0,1,3.31,16.19c0,5.72-1.49,14-9.68,14-6.63,0-8.52-4.23-8.52-8.84V770.66h-3.25ZM1127,800.89c-8.52,0-10-8.39-10-15.08,0-7.54,3.25-13.26,10.33-13.26,7.28,0,9.88,6.11,9.88,14.23,0,7.35-3.12,14.11-10.2,14.11m-.46,2.66c7.93,0,13.91-5.07,13.91-17.94,0-14.49-8.45-15.86-12.74-15.86-6.24,0-14,3.12-14,16.51,0,11.7,4.87,17.29,12.8,17.29m-43.22-.91h3l9.29-16.64,10.92,16.64h3.32l-12.68-19.17c6.44-10.47,7-10.86,9.62-10.86a6,6,0,0,1,3.12.91l.91-2.47a6.89,6.89,0,0,0-4-1.3c-4.48,0-5.91,1.17-11.7,11.51l-8.51,15.21V770.66h-3.25ZM1043.84,813l.85,2.67c9-2.47,13.19-6.57,13.19-17.29v-39h-5.72c-7.93,0-14.43,3.64-14.43,15.4,0,8.32,5.27,13,11.9,13.46V762.15h5v37.63c0,7.15-2.86,10.92-10.79,13.26m-41.27-18.39c0,5.13,1,8.9,8.12,8.9a11.94,11.94,0,0,0,6.76-2.14l-1.23-2.28a9.49,9.49,0,0,1-5.33,1.76c-3.25,0-5.07-1.3-5.07-6V770.66h-3.25Zm-26.72,6.24v-20c0-7,3.32-8.39,6.31-8.39,5.46,0,8.45,5,8.45,11.64,0,10.46-5.33,16.64-14.76,16.77m-21-14.56c0,13.19,9.68,17,17.74,17.35v12.61h3.25V803.68c6.89-.06,18-3.64,18-19.56,0-10.79-6.44-14.37-11.7-14.37-5.66,0-9.56,3-9.56,11.12v20c-10-.52-14.49-6.5-14.49-14.69,0-7,3.44-12,9.1-14.43l-1.63-2.08c-6,2.15-10.72,8.45-10.72,16.71m-7.8-25.16a2.75,2.75,0,0,0,2.79,3,2.84,2.84,0,0,0,2.86-3,2.83,2.83,0,1,0-5.65,0m-5.66-8-3,12.8,1.82.52c2.41-4.74,3.64-7.6,4.42-9.55a5.5,5.5,0,0,0,.52-2c0-1.5-1.1-1.89-2.53-1.89a7.79,7.79,0,0,0-1.24.07m-11.11,8a2.75,2.75,0,0,0,2.79,3,2.84,2.84,0,0,0,2.86-3,2.83,2.83,0,1,0-5.65,0M938,794.65c0,5.13,1,8.9,8.13,8.9a12,12,0,0,0,6.76-2.14l-1.24-2.28a9.46,9.46,0,0,1-5.33,1.76c-3.25,0-5.07-1.3-5.07-6V770.66H938Zm-38.54-7.15c.19-10.47,4.35-15,9.55-15,4.75,0,8.39,3.32,10.66,15.93-2,7.93-6.89,12.48-11.05,12.48-5.39,0-9.36-4.55-9.16-13.39m-3.25,0c-.26,11.37,5.33,16,12.15,16,5.46,0,10.4-4.35,12.61-11.11l.85,3.38c1.43,5.72,2.27,7.6,6.56,7.6a9.53,9.53,0,0,0,4.42-1.3l-1-2.47a5.9,5.9,0,0,1-3.45,1.11c-2,0-2.53-.13-3.83-4.75l-2-7.28a112.43,112.43,0,0,0,4.55-18.52l-3-.46a107.4,107.4,0,0,1-2.86,13.72c-1.82-10-6-13.72-12-13.72-5.72,0-12.8,3.84-13.06,17.75m-31.07-13.91H876c-.45,7-.78,14-.78,19.76,0,6.43,1.43,10.2,8.52,10.2a12,12,0,0,0,6.76-2.14l-1.24-2.28a9.46,9.46,0,0,1-5.33,1.76c-3.25,0-5.46-1.3-5.46-7.28s.33-12.94.78-20h12.48v-2.93H865.16Zm-32,13.91c.19-10.47,4.35-15,9.55-15,4.75,0,8.39,3.32,10.66,15.93-2,7.93-6.89,12.48-11.05,12.48-5.39,0-9.36-4.55-9.16-13.39m-3.25,0c-.26,11.37,5.33,16,12.15,16,5.46,0,10.4-4.35,12.61-11.11l.85,3.38c1.43,5.72,2.27,7.6,6.56,7.6a9.53,9.53,0,0,0,4.42-1.3l-1-2.47a5.9,5.9,0,0,1-3.45,1.11c-2,0-2.53-.13-3.83-4.75l-2-7.28a112.43,112.43,0,0,0,4.55-18.52l-3-.46a107.4,107.4,0,0,1-2.86,13.72c-1.82-10-6-13.72-12-13.72-5.72,0-12.8,3.84-13.06,17.75m-30.43,15.14h3l9.3-16.64,10.92,16.64H826l-12.67-19.17c6.43-10.47,7-10.86,9.62-10.86a6,6,0,0,1,3.12.91l.91-2.47a6.91,6.91,0,0,0-4-1.3c-4.49,0-5.92,1.17-11.7,11.51l-8.52,15.21V770.66h-3.25ZM760,813l.85,2.67c9-2.47,13.19-6.57,13.19-17.29v-39h-5.72c-7.93,0-14.43,3.64-14.43,15.4,0,8.32,5.27,13,11.9,13.46V762.15h5v37.63c0,7.15-2.86,10.92-10.79,13.26M701.56,787.5c.19-10.47,4.35-15,9.55-15,4.75,0,8.39,3.32,10.66,15.93-2,7.93-6.89,12.48-11,12.48-5.39,0-9.36-4.55-9.16-13.39m-3.25,0c-.26,11.37,5.33,16,12.15,16,5.46,0,10.4-4.35,12.61-11.11l.85,3.38c1.43,5.72,2.27,7.6,6.56,7.6a9.53,9.53,0,0,0,4.42-1.3l-1-2.47a5.9,5.9,0,0,1-3.45,1.11c-2,0-2.53-.13-3.83-4.75l-2-7.28a112.43,112.43,0,0,0,4.55-18.52l-3-.46a107.4,107.4,0,0,1-2.86,13.72c-1.82-10-6-13.72-12-13.72-5.72,0-12.8,3.84-13.06,17.75m-31.85-16.84,11.11,32h3.32c8.32-11.57,12-20.15,11.63-31.91h-3.31c.58,10.07-2.47,18.78-9.62,28.66h-.13l-9.62-28.73Zm-16.32,30.23c-8.51,0-10-8.39-10-15.08,0-7.54,3.25-13.26,10.34-13.26,7.28,0,9.88,6.11,9.88,14.23,0,7.35-3.12,14.11-10.21,14.11m-.45,2.66c7.93,0,13.91-5.07,13.91-17.94,0-14.49-8.45-15.86-12.74-15.86-6.24,0-14,3.12-14,16.51,0,11.7,4.88,17.29,12.81,17.29m-42.64-6.5V785.81c0-10.4,4.68-13.26,9.88-13.26,8.25,0,9.62,7,9.62,14.43,0,10.4-5.07,13.84-10.08,13.84a14.94,14.94,0,0,1-9.42-3.77m-3.25,19.24h3.25V800.56a16.42,16.42,0,0,0,9.42,3c7.87,0,13.33-6.11,13.33-17.29,0-10.85-4.1-16.51-13-16.51-6.44,0-13,3.38-13,16.06Zm-25.16-63.11L573.7,765.4l1.69.78c3.12-4.29,4.81-7,5.85-8.71a4.91,4.91,0,0,0,.85-2.28c0-1.56-1.63-1.88-3.45-2M565.9,787.5c.2-10.47,4.36-15,9.56-15,4.74,0,8.38,3.32,10.66,15.93-2,7.93-6.89,12.48-11,12.48-5.4,0-9.36-4.55-9.17-13.39m-3.25,0c-.26,11.37,5.33,16,12.16,16,5.46,0,10.4-4.35,12.61-11.11l.84,3.38c1.43,5.72,2.28,7.6,6.57,7.6a9.53,9.53,0,0,0,4.42-1.3l-1-2.47a5.87,5.87,0,0,1-3.44,1.11c-2,0-2.54-.13-3.84-4.75l-2-7.28a112.43,112.43,0,0,0,4.55-18.52l-3-.46a109.17,109.17,0,0,1-2.86,13.72c-1.82-10-6-13.72-12-13.72-5.72,0-12.81,3.84-13.07,17.75m-30.42,15.14h3l9.3-16.64,10.92,16.64h3.31l-12.67-19.17c6.43-10.47,7-10.86,9.62-10.86a6,6,0,0,1,3.12.91l.91-2.47a6.91,6.91,0,0,0-4-1.3c-4.49,0-5.92,1.17-11.7,11.51l-8.52,15.21V770.66h-3.25ZM493.62,787.5c.2-10.47,4.36-15,9.56-15,4.74,0,8.38,3.32,10.66,15.93-2,7.93-6.89,12.48-11.05,12.48-5.4,0-9.36-4.55-9.17-13.39m-3.25,0c-.26,11.37,5.33,16,12.16,16,5.46,0,10.4-4.35,12.61-11.11l.84,3.38c1.43,5.72,2.28,7.6,6.57,7.6a9.53,9.53,0,0,0,4.42-1.3l-1-2.47a5.87,5.87,0,0,1-3.44,1.11c-2,0-2.54-.13-3.84-4.75l-2-7.28a112.43,112.43,0,0,0,4.55-18.52l-3-.46a109.17,109.17,0,0,1-2.86,13.72c-1.82-10-6-13.72-12-13.72-5.72,0-12.81,3.84-13.07,17.75M458,816.68h3.19V799.07c1.56,2.4,3.9,4.48,8.58,4.48,3.44,0,7.47-2.47,9.68-6.63v1.37c0,3.44,1.95,5.26,5.27,5.26a7.39,7.39,0,0,0,4-1.23l-1-2.28a5.75,5.75,0,0,1-2.86.85c-2,0-2.6-1.11-2.6-3.19v-27h-3.25v18.27c0,6.69-4.55,12-9.36,12-6.37,0-8.45-4.75-8.45-10.66V770.66H458Zm-22.16-15.79c-8.52,0-10-8.39-10-15.08,0-7.54,3.25-13.26,10.33-13.26,7.28,0,9.88,6.11,9.88,14.23,0,7.35-3.12,14.11-10.2,14.11m-.46,2.66c7.93,0,13.91-5.07,13.91-17.94,0-14.49-8.45-15.86-12.74-15.86-6.24,0-14,3.12-14,16.51,0,11.7,4.87,17.29,12.8,17.29m-45.11-.91h3.45l11.89-28.14,10.66,28.14h3.38l-14.36-37.5c-2.08-5.4-3.71-8.32-9-8.32a9.49,9.49,0,0,0-6,2l1.1,2.6a7.46,7.46,0,0,1,4.81-1.82c3.51,0,4.62,2.41,6.63,7.74l1.24,3.25Zm-27.49-8.38c0,5.91,4.68,9.29,13.39,9.29,4.81,0,9.49-1.69,11.83-3.64l-1.62-2.21a18,18,0,0,1-10.08,3.06c-8.32,0-10.27-3.45-10.27-6.44,0-5.39,4.81-6.69,13.52-6.69h1V785h-.91c-10.27,0-12.55-2.34-12.55-6.37,0-3.51,3-6.11,9-6.11A13.7,13.7,0,0,1,385,775.6l2-2.14c-2-2.28-5.72-3.64-10.92-3.64-9.94,0-12.22,5.46-12.22,9,0,3.38,1.95,6.18,5.92,7.41-4.55,1-7,4.23-7,8m-33.34,22.42h3.18V799.07c1.56,2.4,3.9,4.48,8.58,4.48,3.45,0,7.48-2.47,9.69-6.63v1.37c0,3.44,1.95,5.26,5.26,5.26a7.37,7.37,0,0,0,4-1.23l-1-2.28a5.81,5.81,0,0,1-2.86.85c-2,0-2.6-1.11-2.6-3.19v-27H350.5v18.27c0,6.69-4.55,12-9.36,12-6.37,0-8.45-4.75-8.45-10.66V770.66h-3.25ZM290.05,813l.84,2.67c9-2.47,13.2-6.57,13.2-17.29v-39h-5.72c-7.93,0-14.43,3.64-14.43,15.4,0,8.32,5.26,13,11.89,13.46V762.15h5v37.63c0,7.15-2.86,10.92-10.79,13.26m-41.86-1.69c.06-2.4,1.1-5.78,6-7.34l.19.06c4.94,1.82,5.53,5.2,5.53,7.54a5.94,5.94,0,0,1-6.18,6.37c-4-.13-5.59-3.51-5.52-6.63M239,786.46c0,8.12,3.06,12.41,12.22,16.38a9.42,9.42,0,0,0-6.17,9.1c-.07,3.83,2.4,8.38,8.51,8.58,4.68.13,9.17-2.73,9.3-8.91.06-3.44-.78-7.28-7.87-10.2-11.11-4.62-12.74-7.74-12.74-15,0-9.75,4.49-13.84,10.27-13.84a10.14,10.14,0,0,1,8.52,4.35l2.34-1.75a12.54,12.54,0,0,0-10.79-5.4c-5.59,0-13.59,3.45-13.59,16.71m-22.23-33.28-4.94,12.22,1.69.78c3.12-4.29,4.81-7,5.85-8.71a4.91,4.91,0,0,0,.85-2.28c0-1.56-1.63-1.88-3.45-2M204.05,787.5c.2-10.47,4.36-15,9.56-15,4.74,0,8.38,3.32,10.66,15.93-2,7.93-6.89,12.48-11.05,12.48-5.4,0-9.36-4.55-9.17-13.39m-3.25,0c-.26,11.37,5.33,16,12.16,16,5.46,0,10.4-4.35,12.61-11.11l.84,3.38c1.43,5.72,2.28,7.6,6.57,7.6a9.53,9.53,0,0,0,4.42-1.3l-1-2.47a5.87,5.87,0,0,1-3.44,1.11c-2,0-2.54-.13-3.84-4.75l-2-7.28a112.43,112.43,0,0,0,4.55-18.52l-3-.46a109.17,109.17,0,0,1-2.86,13.72c-1.82-10-6-13.72-12-13.72-5.72,0-12.81,3.84-13.07,17.75m-31.46-6.76c.85-14.17,6.11-21.13,13.33-21.13,4.94,0,7.28,3.12,7.28,7.15,0,9.17-8.78,13.13-20.61,14m-.06,2.47c4.48-.33,10.53-1.43,13.84-2.8,3.64,1,7.35,3.38,7.35,9.49,0,5.79-3.9,11-9.75,11-6.63,0-11.64-4.81-11.44-17.68m-3.25,1.1c0,10.6,3.83,19.24,14.56,19.24,8.26,0,13.13-6.17,13.13-13.45a11.61,11.61,0,0,0-7.41-11.05,14.57,14.57,0,0,0,6.89-12.42c0-6-3.64-9.81-10.21-9.81-12,0-17,12.67-17,27.49m-32.31,18.33h3.45l11.89-28.14,10.66,28.14h3.38l-14.36-37.5c-2.08-5.4-3.71-8.32-9-8.32a9.49,9.49,0,0,0-6,2l1.1,2.6a7.46,7.46,0,0,1,4.81-1.82c3.51,0,4.62,2.41,6.63,7.74l1.24,3.25Zm-34-15.14c.19-10.47,4.35-15,9.55-15,4.75,0,8.39,3.32,10.66,15.93-2,7.93-6.88,12.48-11,12.48-5.39,0-9.36-4.55-9.16-13.39m-3.25,0c-.26,11.37,5.33,16,12.16,16,5.46,0,10.39-4.35,12.6-11.11l.85,3.38c1.43,5.72,2.27,7.6,6.56,7.6a9.53,9.53,0,0,0,4.42-1.3l-1-2.47a5.9,5.9,0,0,1-3.45,1.11c-2,0-2.53-.13-3.83-4.75l-2-7.28a111.58,111.58,0,0,0,4.54-18.52l-3-.46a105.68,105.68,0,0,1-2.86,13.72c-1.82-10-6-13.72-12-13.72-5.72,0-12.8,3.84-13.06,17.75M60,771.05l.91,2.47a4.61,4.61,0,0,1,2.79-.91c1.89,0,2.8,1,4.36,4l8.06,15.86L62.35,816.29h3.39l11.82-20.8,10.54,20.8h3.11l-12-23.66,12.35-22H88.22l-10.46,19-7.09-14.1c-2.14-4.29-3-5.79-6.76-5.79a7,7,0,0,0-4,1.3"/></g></svg>