<svg xmlns="http://www.w3.org/2000/svg" viewBox="0 0 1920 1200"><title>ts_rioja 1</title><rect width="1920" height="1200" style="fill:#fff4e0"/><path d="M159.28,263.11H128.16l-5.54,16.06H103l28.13-77.52h25.14l28.13,77.52h-19.6Zm-5.43-16.06-9.3-27.13h-1.66l-9.31,27.13Z"/><path d="M276.89,218h-22.7v61.13H235.36V218H212.65V201.65h64.24Z"/><path d="M354.74,201.65l-27.35,46.73v30.79H308.56V248.38l-27.35-46.73h20.93L318,232l15.84-30.34Z"/><path d="M425.62,227c0,15.72-9.75,25.58-27.69,25.58H380.21v26.58H361.39V201.65h36.54C415.87,201.65,425.62,211.72,425.62,227Zm-45.41-9V236.2h17.17c6.31,0,9.41-3,9.41-9.19,0-6-3.1-9-9.41-9Z"/><path d="M495.06,218H455.52v13.84h36.33v16.17H455.52v14.73h40.87v16.39h-59.7V201.65h58.37Z"/><path d="M526.73,201.65H547l13.52,59.91h.77l12.29-59.91h18.28L604,261.56h.78l13.51-59.91h20.26l-20.49,77.52H592l-9.3-45.85-9.31,45.85H547.22Z"/><path d="M665.16,279.17H646.33V201.65h18.83Z"/><path d="M739.36,218h-22.7v61.13H697.83V218h-22.7V201.65h64.23Z"/><path d="M817.55,279.17H798.72V247.38H768.15v31.79H749.33V201.65h18.82v29.12h30.57V201.65h18.83Z"/><path d="M907.58,263.11H876.46l-5.54,16.06h-19.6l28.13-77.52h25.14l28.13,77.52h-19.6Zm-5.42-16.06-9.31-27.13h-1.66l-9.3,27.13Z"/><path d="M1025.19,218h-22.7v61.13H983.66V218H961V201.65h64.23Z"/><path d="M1075.91,263.11h-31.12l-5.53,16.06h-19.61l28.13-77.52h25.14l28.13,77.52h-19.6Zm-5.42-16.06-9.31-27.13h-1.66l-9.3,27.13Z"/><path d="M1162.18,205.85l-5.53,15.4a69.47,69.47,0,0,0-20.6-3.66c-7.09,0-10.86,1.66-10.86,5.43,0,3.21,2.55,4.54,6.65,5.87l13.84,4.43c14.18,4.54,18.5,11.74,18.5,21.71,0,15.06-9.75,25.25-31.34,25.25-11.52,0-21.93-2.88-27.91-6.2l4.09-15.73a64.86,64.86,0,0,0,23.37,4.65c9.08,0,12.74-2.55,12.74-7,0-3.65-2.44-5.42-8.75-7.42l-13-4.09c-8.64-2.77-17.16-8.31-17.16-20.49,0-12.74,9.52-23.48,28.79-23.48A74.43,74.43,0,0,1,1162.18,205.85Z"/><path d="M1234.5,218h-22.7v61.13H1193V218h-22.7V201.65h64.23Z"/><path d="M1302.83,218h-39.54v13.84h36.33v16.17h-36.33v14.73h40.87v16.39h-59.69V201.65h58.36Z"/><path d="M1418.67,240.41c0,21.59-16.06,39.87-39.87,39.87s-39.87-18.28-39.87-39.87,16.06-39.87,39.87-39.87S1418.67,218.81,1418.67,240.41Zm-60.36,0c0,12.07,7.31,22.7,20.49,22.7s20.49-10.63,20.49-22.7S1392,217.7,1378.8,217.7,1358.31,228.34,1358.31,240.41Z"/><path d="M1488.11,218h-38.43v13.84h35.21v16.17h-35.21v31.12h-18.83V201.65h57.26Z"/><path d="M1517.89,201.65h20.27l13.51,59.91h.78l12.29-59.91H1583l12.19,59.91h.77l13.51-59.91h20.27l-20.49,77.52h-26.14l-9.3-45.85-9.3,45.85h-26.14Z"/><path d="M1656.33,279.17H1637.5V201.65h18.83Z"/><path d="M1740.16,279.17h-18.6l-30.9-45.63v45.63h-18.83V201.65h18.61l30.89,45.85V201.65h18.83Z"/><path d="M1814,218h-39.54v13.84h36.33v16.17h-36.33v14.73h40.87v16.39h-59.7V201.65H1814Z"/><path d="M355.22,782.88,291.61,634.45H225V782.88H108.64V358.79H312.81c95.12,0,150.86,52.71,150.86,136.92,0,53.92-22.42,93.3-61.19,115.72l75.73,171.45ZM225,533.88h84.21c23.63,0,39.38-8.48,39.38-38.17,0-24.84-13.94-35.74-39.38-35.74H225Z" style="fill:#8a1024"/><path d="M649.06,782.88H532.73V358.79H649.06Z" style="fill:#8a1024"/><path d="M714.48,570.84c0-117.54,86.63-218.11,219.32-218.11s219.31,100.57,219.31,218.11-86.63,218.1-219.31,218.1S714.48,688.37,714.48,570.84Zm319.28,0c0-58.77-32.71-112.09-100-112.09s-100,53.32-100,112.09,32.72,112.08,100,112.08S1033.76,629.6,1033.76,570.84Z" style="fill:#8a1024"/><path d="M1337.89,724.12c0,89.06-49.68,152.67-141.17,204.17l-63-86c54.52-34.54,87.84-74.52,87.84-136.92V358.79h116.33Z" style="fill:#8a1024"/><path d="M1685.64,704.12H1526.3l-25.44,78.76H1380.29l149-424.09h153.28l149,424.09H1711.08Zm-31.5-98.75-43-132.68h-10.3l-43,132.68Z" style="fill:#8a1024"/><path d="M165.2,898.64c0,20.6-14.27,33.35-34.2,33.35H108V865.86H131.1C150.93,865.86,165.2,879.09,165.2,898.64Zm-50.64-26.92v54.41h16.72c14.17,0,27.3-9.63,27.3-27.49,0-14.36-10-26.92-27.3-26.92Z" style="fill:#ef4135"/><path d="M210,925l2,4.91a38.49,38.49,0,0,1-15,3c-15.58,0-23.24-10.67-23.24-23.9s8.13-23.33,21.54-23.33c11.72,0,20,6.33,20,25.6h-35c.38,7.18,4.73,16,17.1,16A38.75,38.75,0,0,0,210,925Zm-29.76-19.18h28.25c-.47-9.26-4.91-14.45-13.51-14.45C185.41,891.37,180.68,898.55,180.21,905.82Z" style="fill:#ef4135"/><path d="M262.3,902.33V932h-6.42V903.08c0-8.59-4.82-11.71-11.43-11.71a17.91,17.91,0,0,0-13.32,5.48V932H224.7V886.64h4.35l1.89,4.73a20,20,0,0,1,14.54-5.67C257.67,885.7,262.3,893.35,262.3,902.33Z" style="fill:#ef4135"/><path d="M317.56,909.32c0,13.51-9.45,23.61-23.15,23.61s-23.14-10.1-23.14-23.61,9.45-23.62,23.14-23.62S317.56,895.81,317.56,909.32Zm-39.87,0c0,9.73,6.43,17.95,16.72,17.95s16.72-8.22,16.72-17.95-6.42-18-16.72-18S277.69,899.59,277.69,909.32Z" style="fill:#ef4135"/><path d="M392,902.33V932h-6.42V903.08c0-8.59-4.54-11.71-10.2-11.71a18.15,18.15,0,0,0-13.13,6.14,26.35,26.35,0,0,1,.47,4.82V932h-6.43V903.08c0-8.59-4.44-11.71-10.39-11.71a17.17,17.17,0,0,0-12.47,5.57v35H327V886.64h4.35l1.88,4.73a20,20,0,0,1,14.08-5.67c6.33,0,10.77,2.55,13.13,6.9a22.06,22.06,0,0,1,16.06-6.9C387.55,885.7,392,893.35,392,902.33Z" style="fill:#ef4135"/><path d="M411.35,869.83a5,5,0,1,1-4.91-4.91A4.87,4.87,0,0,1,411.35,869.83ZM409.65,932h-6.42V886.64h6.42Z" style="fill:#ef4135"/><path d="M458.87,902.33V932h-6.43V903.08c0-8.59-4.81-11.71-11.43-11.71a17.91,17.91,0,0,0-13.32,5.48V932h-6.42V886.64h4.34l1.89,4.73a20,20,0,0,1,14.55-5.67C454.24,885.7,458.87,893.35,458.87,902.33Z" style="fill:#ef4135"/><path d="M505.62,901.19V932h-4.91l-1.13-4.72c-3.4,3.68-8.69,5.66-15.4,5.66-10.58,0-17.29-5.1-17.29-14.35,0-13.23,14-15.88,27.87-15.88h4.44c-.1-8.12-2-11.43-11.71-11.43a43.83,43.83,0,0,0-14.84,2.65l-1.6-5.1a46.37,46.37,0,0,1,17.19-3.12C499.48,885.7,505.62,889.1,505.62,901.19Zm-6.42,16.53v-9.54h-4.35c-14.83,0-21.53,3-21.53,10.21,0,5.85,4.53,9.07,11.8,9.07C494.85,927.46,499.2,922.07,499.2,917.72Z" style="fill:#ef4135"/><path d="M552.38,889.76l-2.64,5c-2.56-1.42-7.56-3.4-11.91-3.4-11.33,0-16.81,9.26-16.81,18,0,9.82,6.33,17.95,16.81,17.95a24.38,24.38,0,0,0,11.72-3.4l2.83,5a28.12,28.12,0,0,1-15,4.06c-12.94,0-22.77-10-22.77-23.61s9.83-23.62,22.77-23.62A28.21,28.21,0,0,1,552.38,889.76Z" style="fill:#ef4135"/><path d="M569.38,869.83a5,5,0,1,1-4.91-4.91A4.87,4.87,0,0,1,569.38,869.83ZM567.68,932h-6.42V886.64h6.42Z" style="fill:#ef4135"/><path d="M623.7,909.32c0,13.51-9.45,23.61-23.15,23.61s-23.14-10.1-23.14-23.61,9.44-23.62,23.14-23.62S623.7,895.81,623.7,909.32Zm-39.87,0c0,9.73,6.42,17.95,16.72,17.95s16.72-8.22,16.72-17.95-6.42-18-16.72-18S583.83,899.59,583.83,909.32Zm18.14-32h-4.35l7.09-15.21h8.22Z" style="fill:#ef4135"/><path d="M702.1,871.72H678V932H671.4V871.72H647.31v-5.86H702.1Z" style="fill:#ef4135"/><path d="M717.21,869.83a5,5,0,1,1-4.92-4.91A4.88,4.88,0,0,1,717.21,869.83ZM715.51,932h-6.43V886.64h6.43Z" style="fill:#ef4135"/><path d="M768.41,908.94c0,12.75-7,24-21.45,24a23.13,23.13,0,0,1-13.41-4.06v24.85h-6.43V886.64h4.35l1.89,4.73a21.58,21.58,0,0,1,14.55-5.67C758.49,885.7,768.41,893.82,768.41,908.94Zm-6.43.66c0-10-5.67-18.23-15.21-18.23A19.16,19.16,0,0,0,733.55,897v20.59c0,5.1,5.29,9.64,12.66,9.64C755,927.27,762,920.75,762,909.6Z" style="fill:#ef4135"/><path d="M822.25,909.32c0,13.51-9.45,23.61-23.15,23.61S776,922.83,776,909.32s9.45-23.62,23.14-23.62S822.25,895.81,822.25,909.32Zm-39.87,0c0,9.73,6.43,17.95,16.72,17.95s16.72-8.22,16.72-17.95-6.42-18-16.72-18S782.38,899.59,782.38,909.32Z" style="fill:#ef4135"/><path d="M864.85,890l1.89-3.31h4.34v48.09c0,13.89-7.65,19.93-21.06,19.93-10.21,0-16.54-3.68-16.54-3.68l1.8-5A39.38,39.38,0,0,0,850,949c10,0,14.64-4.63,14.64-13.79v-6.61a21.73,21.73,0,0,1-13.42,4.34c-11.9,0-21.44-8.59-21.44-23.42,0-13.7,8-23.81,21.73-23.81A21.94,21.94,0,0,1,864.85,890Zm-28.63,18.89c0,9.83,5.48,18.43,16,18.43,5.95,0,10.77-2.84,12.47-4.73V902.23c0-6.8-4.91-10.86-12.47-10.86C842,891.37,836.22,898.74,836.22,908.84Z" style="fill:#ef4135"/><path d="M905.08,886.46l-1,5.57a14.68,14.68,0,0,0-4.63-.66c-7.47,0-10.58,4.34-10.58,11.43V932h-6.43V886.64h4.35l1.89,4.82c1.6-2.74,5-5.76,10.86-5.76A22,22,0,0,1,905.08,886.46Z" style="fill:#ef4135"/><path d="M944.76,901.19V932h-4.91l-1.14-4.72c-3.4,3.68-8.69,5.66-15.4,5.66-10.58,0-17.28-5.1-17.28-14.35,0-13.23,14-15.88,27.86-15.88h4.44c-.09-8.12-2-11.43-11.71-11.43a43.77,43.77,0,0,0-14.83,2.65l-1.61-5.1a46.38,46.38,0,0,1,17.2-3.12C938.62,885.7,944.76,889.1,944.76,901.19Zm-6.43,16.53v-9.54H934c-14.83,0-21.54,3-21.54,10.21,0,5.85,4.53,9.07,11.81,9.07C934,927.46,938.33,922.07,938.33,917.72Zm-13.6-40.43-11-15.21H922l7.09,15.21Z" style="fill:#ef4135"/><path d="M991.23,932h-6.42V892.12H964V932H957.6V892.12h-6.71l.48-5.48h6.23v-7c0-8.69,3.12-14.73,13.79-14.73a43,43,0,0,1,14.36,2.93l-1.7,4.81a41.44,41.44,0,0,0-11.81-2.07c-5.85,0-8.21,1.88-8.21,9.73v6.32h27.2Z" style="fill:#ef4135"/><path d="M1038.75,889.76l-2.65,5c-2.55-1.42-7.56-3.4-11.9-3.4-11.34,0-16.82,9.26-16.82,18,0,9.82,6.33,17.95,16.82,17.95a24.37,24.37,0,0,0,11.71-3.4l2.84,5a28.2,28.2,0,0,1-15,4.06c-12.94,0-22.76-10-22.76-23.61s9.82-23.62,22.76-23.62A28.29,28.29,0,0,1,1038.75,889.76Z" style="fill:#ef4135"/><path d="M1082.29,901.19V932h-4.91l-1.14-4.72c-3.4,3.68-8.69,5.66-15.39,5.66-10.58,0-17.29-5.1-17.29-14.35,0-13.23,14-15.88,27.87-15.88h4.44c-.1-8.12-2-11.43-11.72-11.43a43.82,43.82,0,0,0-14.83,2.65l-1.61-5.1a46.38,46.38,0,0,1,17.2-3.12C1076.15,885.7,1082.29,889.1,1082.29,901.19Zm-6.42,16.53v-9.54h-4.35c-14.83,0-21.54,3-21.54,10.21,0,5.85,4.54,9.07,11.81,9.07C1071.52,927.46,1075.87,922.07,1075.87,917.72Z" style="fill:#ef4135"/><path d="M1433,928.21l9.73,15.49-6.81,4.07-9.35-16.54a32.06,32.06,0,0,1-10.58,1.7c-18.8,0-33.16-15.3-33.16-34s14.36-34,33.16-34,33.16,15.3,33.16,34A33.92,33.92,0,0,1,1433,928.21Zm-17-1.13c14.83,0,26.36-12.76,26.36-28.15s-11.53-28.16-26.36-28.16-26.35,12.76-26.35,28.16S1401.17,927.08,1416,927.08Z" style="fill:#ef4135"/><path d="M1496.2,886.64V932h-4.91l-1.14-4.72c-3.68,3.21-7.65,5.66-14.45,5.66-12,0-16.63-7.65-16.63-16.62V886.64h6.43v28.91c0,8.6,4.81,11.72,11.14,11.72a17.82,17.82,0,0,0,13.13-5.58V886.64Z" style="fill:#ef4135"/><path d="M1543.43,901.19V932h-4.92l-1.13-4.72c-3.4,3.68-8.69,5.66-15.4,5.66-10.58,0-17.28-5.1-17.28-14.35,0-13.23,14-15.88,27.86-15.88H1537c-.09-8.12-2-11.43-11.71-11.43a43.77,43.77,0,0,0-14.83,2.65l-1.61-5.1A46.37,46.37,0,0,1,1526,885.7C1537.29,885.7,1543.43,889.1,1543.43,901.19ZM1537,917.72v-9.54h-4.34c-14.83,0-21.54,3-21.54,10.21,0,5.85,4.53,9.07,11.81,9.07C1532.66,927.46,1537,922.07,1537,917.72Z" style="fill:#ef4135"/><path d="M1560.71,932h-6.42V865.86h6.42Z" style="fill:#ef4135"/><path d="M1580.55,869.83a5,5,0,1,1-4.92-4.91A4.88,4.88,0,0,1,1580.55,869.83Zm-1.7,62.16h-6.43V886.64h6.43Z" style="fill:#ef4135"/><path d="M1626.08,932h-6.43V892.12h-20.78V932h-6.42V892.12h-6.71l.47-5.48h6.24v-7c0-8.69,3.11-14.73,13.79-14.73a43.07,43.07,0,0,1,14.36,2.93l-1.7,4.81a41.44,41.44,0,0,0-11.81-2.07c-5.86,0-8.22,1.88-8.22,9.73v6.32h27.21Z" style="fill:#ef4135"/><path d="M1673.59,889.76l-2.64,5c-2.56-1.42-7.56-3.4-11.91-3.4-11.33,0-16.81,9.26-16.81,18,0,9.82,6.33,17.95,16.81,17.95a24.38,24.38,0,0,0,11.72-3.4l2.83,5a28.12,28.12,0,0,1-15,4.06c-12.94,0-22.77-10-22.77-23.61s9.83-23.62,22.77-23.62A28.21,28.21,0,0,1,1673.59,889.76Z" style="fill:#ef4135"/><path d="M1717,901.19V932h-4.91l-1.14-4.72c-3.4,3.68-8.69,5.66-15.39,5.66-10.58,0-17.29-5.1-17.29-14.35,0-13.23,14-15.88,27.87-15.88h4.44c-.1-8.12-2-11.43-11.72-11.43a43.82,43.82,0,0,0-14.83,2.65l-1.61-5.1a46.38,46.38,0,0,1,17.2-3.12C1710.9,885.7,1717,889.1,1717,901.19Zm-6.42,16.53v-9.54h-4.35c-14.83,0-21.54,3-21.54,10.21,0,5.85,4.54,9.07,11.81,9.07C1706.27,927.46,1710.62,922.07,1710.62,917.72Z" style="fill:#ef4135"/><path d="M1726,909.6c0-13.13,7.65-23.9,21.44-23.9a22.13,22.13,0,0,1,13.42,4.16v-24h6.42V932h-4.91l-1.13-4.53a20.71,20.71,0,0,1-14.08,5.47C1736.59,932.93,1726,925,1726,909.6Zm34.86,12.19V902.23c0-6.8-5.2-10.86-12.57-10.86-9.91,0-15.87,7.27-15.87,17.57s6,18.33,15.69,18.33A17.88,17.88,0,0,0,1760.87,921.79Z" style="fill:#ef4135"/><path d="M1814.52,901.19V932h-4.91l-1.13-4.72c-3.4,3.68-8.69,5.66-15.4,5.66-10.58,0-17.29-5.1-17.29-14.35,0-13.23,14-15.88,27.87-15.88h4.44c-.1-8.12-2-11.43-11.72-11.43a43.82,43.82,0,0,0-14.83,2.65l-1.6-5.1a46.33,46.33,0,0,1,17.19-3.12C1808.38,885.7,1814.52,889.1,1814.52,901.19Zm-6.42,16.53v-9.54h-4.35c-14.83,0-21.54,3-21.54,10.21,0,5.85,4.54,9.07,11.81,9.07C1803.75,927.46,1808.1,922.07,1808.1,917.72Z" style="fill:#ef4135"/><line x1="120.02" y1="1000" x2="1811.21" y2="1000" style="fill:none;stroke:#8a1024;stroke-linecap:round;stroke-linejoin:round;stroke-width:8.503999710083008px;stroke-dasharray:0,16.996999740600586"/><path d="M1819.71,1000h0M103,1000h0" style="fill:none;stroke:#8a1024;stroke-linecap:round;stroke-linejoin:round;stroke-width:8.503999710083008px"/></svg>