<svg width="66" height="66" viewBox="0 0 66 66" fill="none" xmlns="http://www.w3.org/2000/svg">
<path d="M33 0C14.7795 0 0 14.7795 0 33C0 51.2205 14.7795 66 33 66C51.2205 66 66 51.2205 66 33C66 14.7795 51.2205 0 33 0ZM37.6821 31.1385L46.4821 22.2256H47.3282V27.1897H51.9538V31.7026H37.6821V31.1385ZM24.5949 44.1692H18.2205V27.1897H24.5949V44.1692V44.1692ZM21.4359 25.2718C19.2359 25.2718 17.8821 24.3692 17.8821 22.3385C17.8821 20.3077 19.2923 19.4051 21.4359 19.4051C23.5795 19.4051 24.9897 20.3077 24.9897 22.3385C24.9897 24.3692 23.5795 25.2718 21.4359 25.2718ZM35.5385 44.1692H34.9744C30.8564 44.1692 28.4872 42.5333 28.4872 37.6821V19.8H34.8615V36.6667C34.8615 38.7538 35.5949 39.1487 37.6821 39.1487H38.1333L35.5385 44.1692ZM49.5846 44.1692H47.7231C43.4359 44.1692 40.9538 42.4205 40.9538 37.2872V35.1436L47.3282 32.1538V36.2718C47.3282 38.4718 48.118 39.1487 50.3744 39.1487H52.0667L49.5846 44.1692Z" fill="#DD4E39"/>
</svg>
