<svg xmlns="http://www.w3.org/2000/svg" xml:space="preserve" viewBox="0 0 981.09 969.68">
  <path fill="#FF1919" d="m389.45 966.59 20.66 3.09 61.72-223.69-11.12 7.71h61.71L510.4 746l63.25 223.68 20.05-3.1-66.02-231.38h-73.43Zm28.07-70.34H565l-3.4-18.51h-141Zm301.4 25.62 23.72-14.97-97.78-205.34-3.24 12.02 45.32-38.03-13.09 1.67L860.27 808.2l18.74-20.65-197.77-136.12-63.31 53.13zm-18.1-74.27L808 757.7l-16.86-14.01-101.58 85.23zm243.16-170.96 10.46-33.63-204.23-89.26 4.83 10.31 9.83-55.77-8.22 8.89 222.71-15.55 1.73-35.45-238.65 20.85-15.96 90.48zM885.17 626l22.97-130.32-25 .08-21.57 122.32zm75.17-282.16-16.58-39-208.46 65.13 9.39 4.33-27.05-46.86-.54 11 159.86-149.3-25.84-34.48L680.7 322.3l50.55 87.54zm-78.93-6.92-62.38-108.04-21.49 18.1 57.9 100.3zM760 77.15l-44.23-22.3-112.27 182.14 8.93-2.47-48.45-17.64 5.99 7.9 29.63-212.22L550.28.81l-24.7 237.26 103.66 37.74zm-69.74 41.74L580.15 78.8l-5.38 30.73 100.92 36.74zM435.08 0l-55.15 13.15 34.23 206.8 4.6-6.79-46.06 16.77 8.6 1.97L273.15 52.02l-52.22 25.93L352.6 276.28l112.33-40.89zm-32.64 77.08-103 37.5 17.16 29.68 93.03-33.87zm-266.87 71.44-37.96 51.35L256 330.52l-.78-7.1L232 363.67l6.9-3.5-193.12-70.53-26.52 60.33 227.35 69.04 64.38-111.52zm20.07 84.14-51.02 88.35 35.13 12.8 45.3-78.47ZM0 454.53l4.5 70.88 201.03-5.69-4.43-4.16 7.63 43.28 2.62-6.1-190.59 64.94 20.45 70.6 218.88-91.26-23.95-135.88zm68.67 57.58 16.4 93.01 38.05-13.8-14.27-80.97Zm20.96 263.27L148.68 837 287.4 702.9l-3.95-.09 29.78 24.98-1.25-4.26-106.82 160.9 73.55 49.62 112.11-208L271 625.47Zm96.16 10.2 60.74 50.98 23.4-40.38-50.1-42.04-34.04 31.45"/>
</svg>