<svg id="Layer_1" data-name="Layer 1" xmlns="http://www.w3.org/2000/svg" viewBox="0 0 1080 750"><defs><style>.cls-1{fill:#001c24;}.cls-2{fill:#00909e;}.cls-3{fill:#fd0;}</style></defs><title>OCC Web Article Graphics Remake</title><rect class="cls-1" width="1080" height="750"/><path class="cls-2" d="M144.51,142.81h-43.2l4.59-25.11h70.2l-32.67,186H115.89Z"/><path class="cls-2" d="M210.12,303.73H196.35l5.94-33.48h31.32l-5.67,32.67-20.52,34.56h-16.2Z"/><path class="cls-2" d="M320.82,286.18c7.29-40,22.68-56.7,77.49-82.08,35.91-17,41-24.84,41-43.47,0-13-9.72-19.44-32.13-19.44-18.63,0-30,7.83-36.45,24l-28.08-3.78c9.72-27.81,32.94-45.09,66.42-45.09,39.15,0,58.86,14.31,58.86,40.23,0,36.45-16.74,49.14-59.94,69.66-47,22.41-52.38,33.21-57.51,52.92h96.12l-4.32,24.57H317.58Z"/><path class="cls-2" d="M492,303.73H478.23l5.94-33.48h31.32l-5.67,32.67L489.3,337.48H473.1Z"/><path class="cls-2" d="M607.56,253.51l29.16-3.78c-1.08,24,9.45,30.78,38.61,30.78,18.9,0,31.59-5.4,36.18-34,3.78-22.68-8.91-31.05-37.8-31.05h-18.9l3.78-22.14h30.24c18.9,0,27.81-4.59,31.86-25.11,3.51-15.93-4.05-27-32.4-27-20.79,0-30,9.45-35.91,22.68l-27.27-5.67c10.26-24.84,32.67-41.85,66.42-41.85,48.33,0,62.64,22.14,57.78,51.3-3.51,19.44-14,31.59-30.78,37.26,13,4.05,24.84,18.63,20.79,44.55-5.67,39.15-27.81,55.89-66.15,55.35C625.11,304.81,607,285.37,607.56,253.51Z"/><path class="cls-2" d="M794.4,270.25H826l-5.94,33.48H788.46Zm81.54,0h31l-5.94,33.48H870ZM951,303.73l5.94-33.48h31.32l-5.94,33.48Z"/><path class="cls-3" d="M92.81,615.73v-186h86.13c32.94,0,69.39,7.29,69.39,59.13,0,29.43-14.31,45.36-31.86,53.46l34.83,73.44H200.54L169,549.58H140.33v66.15Zm78.3-104.22c20.25,0,29.7-4.59,29.7-22.14,0-16.47-9.45-21.6-29.7-21.6H140.33v43.74Z"/><path class="cls-3" d="M293.42,429.7H427.61v41H340.94v25.11H418.7v40.23H340.94V575h86.67v40.77H293.42Z"/><path class="cls-3" d="M577.73,585.49h-62.1l-9.18,30.24H459.74L517,429.7h59.67l58.05,186H587.18Zm-31.32-99.9-20,65.34h40.5Z"/><path class="cls-3" d="M671.14,429.7h69.39c66.69,0,85.59,30.78,85.59,87.21v11.61c0,50.49-21.87,87.21-85.32,87.21H671.14ZM740.8,577.12c32.4,0,37.53-20.25,37.53-49.14V516.91c0-34.29-8.91-47.52-37.8-47.52H718.66V577.12Z"/><path class="cls-3" d="M904.69,615.73V534.19L839.62,429.7h51.84l37.8,64,38.62-64h49.68L952.21,534.19v81.54Z"/></svg>