<svg width="994" height="89" viewBox="0 0 994 89" fill="none" xmlns="http://www.w3.org/2000/svg">
<g clip-path="url(#clip0_1_2)">
<path d="M871.058 54.05C869.222 67.616 859.328 78.53 817.508 78.53H804.452C759.164 78.53 757.022 60.68 758.042 51.194H802.412C802.412 51.31 802.414 55.5664 802.414 55.5664C802.454 61.149 805.2 66.354 813.53 66.354C822.424 66.354 825.26 62.396 825.26 56.948C825.26 50.99 823.73 49.052 811.388 48.338L798.842 47.624C770.894 45.992 764.264 35.894 764.264 24.164C764.264 22.634 764.57 20.492 764.876 19.166C767.936 5.804 781.502 -0.214005 815.162 -0.214005H827.81C871.262 -0.214005 874.424 13.862 873.404 24.164H829.85C829.85 24.0373 829.85 20.5588 829.85 20.5588C829.85 16 828.578 11.044 819.14 11.044C810.266 11.044 807.818 14.268 807.818 19.022C807.818 24.776 810.164 26.102 821.792 26.714L834.236 27.326C861.98 28.652 871.364 34.976 871.364 48.746C871.364 50.684 871.262 52.622 871.058 54.05Z" fill="#005F82" fill-opacity="0.08"/>
<path d="M716.415 77L712.865 62.922H668.568L660.637 77H642.489L688.695 1.112L732.837 1.112L758.541 77H716.415ZM675.589 50.482H709.233L697.625 10.266L675.589 50.482Z" fill="#005F82" fill-opacity="0.08"/>
<path d="M649.231 51.806C649.231 64.148 642.601 77 614.041 77H531.625L543.661 1.112H624.343C644.029 1.112 650.149 8.04799 650.149 17.738C650.149 27.836 640.051 32.732 632.911 33.854C640.051 35.486 649.231 40.076 649.231 51.806ZM576.219 31.142H593.568C605.872 31.142 609.708 27.4933 610.568 21C611.429 14.5067 608.82 11.798 597.453 11.798H579.568L576.219 31.142ZM570.731 63.6H589.068C602.56 63.6 608.192 60.5 609.068 51.806C609.805 44.5 606.568 42.216 594.568 42.216H574.568L570.731 63.6Z" fill="#005F82" fill-opacity="0.08"/>
<path d="M437.848 88.768L439.398 79.142H529.26L527.608 88.768H437.848Z" fill="#005F82" fill-opacity="0.08"/>
<path d="M361.177 1.112H450.121L447.755 14.328H395.755L393.225 31.244H444.327L441.961 45.052H390.859L387.961 63.58H440.961L438.595 77H349.141L361.177 1.112Z" fill="#005F82" fill-opacity="0.08"/>
<path d="M885.104 1.112H974.048L971.682 14.328H919.682L917.152 31.244H968.254L965.888 45.052H914.786L911.888 63.58H964.888L962.522 77H873.068L885.104 1.112Z" fill="#005F82" fill-opacity="0.08"/>
<path d="M275.895 56.294L272.631 77H234.789L246.825 1.112H318.837C345.663 1.112 353.313 11.618 353.313 24.776C353.313 41.402 345.765 56.294 314.757 56.294H275.895ZM277.567 45.344H290.291C306.901 45.344 312.839 39.896 313.839 27.734C314.638 18.0128 313.207 11.348 298.719 11.348H283.199L277.567 45.344Z" fill="#005F82" fill-opacity="0.08"/>
<path d="M196.312 50.582L192.232 77H154.39L158.572 50.072L124.096 1.112H166.12L190.522 36.062L225.472 1.112H245.986L196.312 50.582Z" fill="#005F82" fill-opacity="0.08"/>
<path d="M20 14.224L22.182 1.112H123.876L121.694 14.224H89.768L79.914 77H42.072L51.926 14.224H20Z" fill="#005F82" fill-opacity="0.08"/>
</g>
<defs>
<clipPath id="clip0_1_2">
<rect width="994" height="89" fill="white"/>
</clipPath>
</defs>
</svg>
