<svg xmlns="http://www.w3.org/2000/svg" xmlns:xlink="http://www.w3.org/1999/xlink" viewBox="0 0 1920 1200"><defs><clipPath id="a"><rect width="1920" height="1200" style="fill:none"/></clipPath></defs><title>ts_tubqal 1</title><rect width="1920" height="1200" style="fill:#fff4e0"/><path d="M520.65,702.1c0-40.2,18.9-71.4,41.7-92.4,8.7.9,16.5,7.5,18.3,16.2C565.35,646,560,669.7,560,692.2c0,36.9,15.3,64.8,66,64.8,42.9,0,66.3-20.7,70.2-25.5.3-5.4.6-13.2.3-27.9l-2.4-163.2c-6.3-10.2-11.4-18.6-11.4-22.5,0-6.3,12.3-15.9,28.5-15.9,18.6,0,28.2,12.9,28.2,27,0,8.7-3.6,129.6-5.1,179.7-.6,21-.9,27.3-9.9,46.5-14.1,24-50.7,46.8-99.61,46.8C556.05,802,520.65,759.1,520.65,702.1Z" style="fill:#ef4135"/><path d="M866.85,683.5v45h-2.7a69.28,69.28,0,0,1-39.9-12.3c0,23.1-9.6,34.8-26.1,34.8-15.9,0-24.6-9.6-24.6-17.4,0-4.2,12.6-21.9,12.6-25.2l-2.4-168c-6.9-11.1-11.4-18.6-11.4-22.2,0-6.3,12-16.2,28.5-16.2,21,0,28.2,16.5,28.2,25.5,0,5.7-2.4,96.3-3.9,150,9,3.9,21.6,6,39,6Z" style="fill:#ef4135"/><path d="M1028.85,683.5v45H1013A153.89,153.89,0,0,1,944,712c-20.1,10.2-45.3,16.5-75.3,16.5h-4.8v-45h5.4a255.21,255.21,0,0,0,36-2.4c-12-15-19.2-33-19.2-53.4,0-29.4,17.4-55.2,60.3-55.2,39.3,0,57.9,20.4,57.9,55.5,0,16.5-6.6,35.1-19.8,51.9a225,225,0,0,0,41.7,3.6ZM901.65,530.8c0-7.8,12.9-20.7,21-20.7s21,12.9,21,20.7-12.9,20.7-21,20.7S901.65,538.6,901.65,530.8Zm44.4,136.8c15.9-9.9,22.2-24,22.2-39.6,0-14.4-7.5-22.5-22.5-22.5-18,0-23.4,10.2-23.4,24.9,0,14.1,3,21.6,5.4,26.4A112.7,112.7,0,0,0,946.05,667.6Zm4.8-136.8c0-7.8,12.9-20.7,21-20.7s21,12.9,21,20.7-12.9,20.7-21,20.7S950.85,538.6,950.85,530.8Z" style="fill:#ef4135"/><path d="M1025.85,683.5h2.7c18.3,0,37.5-3.3,45.6-10.8.6-6,.9-12.3.9-18.6,0-6.9-.3-13.2-1.5-18.6-5.7-3.9-27.9-13.8-27.9-18,0-8.1,6.6-22.5,29.4-22.5,27.3,0,39.3,24.9,39.3,52.2,0,20.7-6,42.9-16.2,58.2-12.3,13.2-35.1,23.1-68.1,23.1h-4.2Zm48.9,61.5c-10.5,0-25.5,15.3-25.5,24s15,24,25.5,24,25.5-15.3,25.5-24S1085.25,745,1074.75,745Z" style="fill:#ef4135"/><path d="M1313.85,728.5h-31.2c-14.7,45-50.4,73.5-93.9,73.5-30.6,0-61.8-17.7-68.4-31.8,0-6,5.1-17.1,9.6-20.1,2.7,1.2,21.9,8.1,47.1,8.1,35.1,0,54.3-11.1,66-31.5-51.9-5.1-78-24-78-69,0-41.1,20.1-62.7,60.6-62.7,44.7,0,64.2,27.3,64.2,85.8v2.7h24ZM1202,678.7c2.1,1.2,24.9,2.4,48.9,3.6V673c0-24.6-3-42-26.7-42-19.2,0-25.5,8.4-25.5,26.7C1198.65,666.7,1200.75,676.3,1202,678.7Z" style="fill:#ef4135"/><path d="M1310.85,683.5h2.7c18.3,0,37.5-3.3,45.6-10.8.6-6,.9-12.3.9-18.6,0-6.9-.3-13.2-1.5-18.6-5.7-3.9-27.9-13.8-27.9-18,0-8.1,6.6-22.5,29.4-22.5,27.3,0,39.3,24.9,39.3,52.2,0,20.7-6,42.9-16.2,58.2-12.3,13.2-35.1,23.1-68.1,23.1h-4.2Zm23.4-158.4c-8.1,0-21,12.9-21,20.7s12.9,20.7,21,20.7,21-12.9,21-20.7S1342.35,525.1,1334.25,525.1Zm49.2,0c-8.1,0-21,12.9-21,20.7s12.9,20.7,21,20.7,21-12.9,21-20.7S1391.55,525.1,1383.45,525.1Z" style="fill:#ef4135"/><g style="clip-path:url(#a)"><path d="M548.56,151h-60V325h-45V151h-60V112h165Z"/><path d="M575,243.1V112h45V245.5c0,35.1,15,43.5,39.6,43.5a127.36,127.36,0,0,0,33-4.2c3.9-9.9,6.9-20.7,6.9-39.3V112h45V243.1c0,53.1-24.3,84.9-87,84.9S575,296.2,575,243.1Z"/><path d="M948.45,261.4c0,42-33.6,63.6-86.4,63.6H785V112h75.6c60.9,0,83.4,23.4,83.4,55.8,0,21.6-9.9,36.9-25.5,47.1C937.05,223,948.45,237.4,948.45,261.4ZM830,151v48h31.5c15,0,23.7-1.2,30.9-3.3a58.22,58.22,0,0,0,4.2-21c0-18.6-11.4-23.7-36.6-23.7Zm71.1,109.2c0-19.5-12.9-24.3-34.5-24.3H830V286h33a121.5,121.5,0,0,0,32.4-3.9C898.65,275.5,901.05,268.6,901.05,260.2Z"/><path d="M1135.65,378.7c-3,1.8-17.7,6.3-37.8,6.3-37.5,0-54.9-18.6-54.9-48V326.8c-49.5-6-68.7-37.2-68.7-108.3,0-80.1,29.7-109.5,94.2-109.5s88.8,29.4,88.8,109.5c0,69.6-22.5,101.1-70.8,108v8.1c0,12.9,4.2,18.3,18.3,18.3a113.6,113.6,0,0,0,23.7-3C1130.25,350.8,1135.65,361.9,1135.65,378.7Zm-70.2-89.7a99.87,99.87,0,0,0,36.9-6.9c4.2-15,7.5-33.3,7.5-63.6,0-55.2-9.3-70.5-44.4-70.5a109.81,109.81,0,0,0-33,4.8c-6.9,12.3-10.8,32.4-10.8,65.7C1021.65,273.7,1031.85,289,1065.45,289Z"/><path d="M1313.55,284.5h-84.9l-14.1,40.5h-46.5l78.3-213h49.5l78.3,213h-46.5Zm-13.5-38.4-28.8-82.5-29.1,82.5Z"/><path d="M1535.85,286v39H1402V112h45V286Z"/><path d="M558.46,1009.3H507.75V1099h-45v-89.7h-50.7v-39h50.7V886h45v84.3h50.71Z"/><path d="M589.05,1052.8c0-37.5,18.6-52.2,55.5-52.2,39.3,0,52.8,16.8,52.8,48.3,0,37.8-19.2,53.1-55.5,53.1C602.25,1102,589.05,1084.3,589.05,1052.8Zm1.2-117.3c0-36.9,18-51.6,54.3-51.6,38.7,0,51.6,16.8,51.6,47.7,0,36.9-18.6,51.9-54.3,51.9C602.85,983.5,590.25,965.8,590.25,935.5Zm65.4,135.9c2.1-3.9,3.9-11.4,3.9-20.4,0-15-4.8-22.2-18.3-22.2-5.4,0-9,.9-11.1,1.8-2.4,4.5-3.3,11.7-3.3,19.2,0,17.1,4.5,24,16.8,24C648.75,1073.8,653,1072.9,655.65,1071.4Zm.3-117.9c2.1-3.9,3.3-11.4,3.3-19.8,0-15-4.5-22.2-17.7-22.2-5.4,0-9,.9-11.1,2.1-2.1,4.2-3,11.4-3,18.9,0,16.5,4.2,23.1,16.5,23.1C649.05,955.6,653.25,955,656,953.5Z"/><path d="M842.25,1099l-32.7-60.9-33,60.9h-52.5l62.1-94.8-57.9-87.9V886h162v30.3l-57.6,87.6,62.4,95.1Zm-3.6-177h-57.9l28.8,50.4Z"/><path d="M1034.25,1099l-32.7-60.9-33,60.9h-52.5l62.1-94.8-57.9-87.9V886h162v30.3l-57.6,87.6,62.4,95.1Zm-3.6-177h-57.9l28.8,50.4Z"/><path d="M1309.65,1099l-33.3-61.5-39,61.5h-39V886h155.1v30.3l-54.6,86.1,63.3,96.6Zm-66.9-111.3c0,9.9-1.2,27-2.7,43.5,8.4-16.8,16.2-31.8,19.8-37.8l41.4-71.4h-58.5Z"/><path d="M1382.55,1043.2c0-45.6,21.3-63.6,63.9-63.6,44.4,0,59.7,20.1,59.7,58.2,0,46.2-21.6,64.5-63.6,64.5C1397.55,1102.3,1382.55,1081,1382.55,1043.2Zm77.4,24.9c2.4-4.5,4.5-15,4.5-27.3,0-20.7-5.7-29.7-22.2-29.7-6.9,0-11.1,1.2-13.8,2.7-2.7,5.1-3.9,15-3.9,25.2,0,23.1,5.1,31.8,21,31.8A35,35,0,0,0,1460,1068.1Z"/></g><path d="M130,424.42h-7.45V445.5h-3.16V424.42H112V421.6h18Z" style="fill:#8a1024"/><path d="M128.46,437.48c0-6.29,2.07-8.91,7.92-8.91,5.13,0,7.14,2.14,7.14,8.19,0,6.33-2.07,8.91-7.92,8.91C130.5,445.67,128.46,443.56,128.46,437.48Zm10.88,5.27c.64-.72,1-2.18,1-5.17,0-5.2-1-6.6-4.62-6.6a7.84,7.84,0,0,0-3.13.51c-.68.72-1,2.28-1,5.17,0,5.17,1,6.6,4.52,6.6A9,9,0,0,0,139.34,442.75Z" style="fill:#8a1024"/><path d="M159,445.67a10.19,10.19,0,0,1-.51-1.94,8.72,8.72,0,0,1-5.61,1.94c-5.41,0-5.41-4.35-5.41-6.49V428.74h3.13v9.45c0,2.86,0,5,3.33,5a8.74,8.74,0,0,0,4.39-1.29V428.74h3.12V441.9l.58,3Z" style="fill:#8a1024"/><path d="M180.82,436.73c0,6.29-2.15,8.94-7.48,8.94a23.36,23.36,0,0,1-6.9-1.16V420.17h3.12v9.35a12.14,12.14,0,0,1,4.8-.95C178.88,428.57,180.82,430.71,180.82,436.73Zm-3.13.37c0-4.35-.82-6.12-4.25-6.12a11.12,11.12,0,0,0-3.88.72V443a15.58,15.58,0,0,0,3.54.37,8.2,8.2,0,0,0,3.57-.57C177.38,442,177.69,439.86,177.69,437.1Z" style="fill:#8a1024"/><path d="M189.49,437.41h-1.43v8.09h-3.13V420.17h3.13v14.76h1.56l5.51-6.19h3.6l-6.62,7.38,6.83,9.38h-3.5Z" style="fill:#8a1024"/><path d="M211.42,445.74a9.73,9.73,0,0,1-.55-2.28,7.39,7.39,0,0,1-5.3,2.28c-2.65,0-5.61-1.29-5.61-5.07a6.68,6.68,0,0,1,2-4.89,30,30,0,0,1,5.64-.55c1,0,2,0,3.13.14v-.82c0-1.46-.24-3.5-3.47-3.5a19.37,19.37,0,0,0-5.06.92,2.39,2.39,0,0,1-.68-1.67,14.34,14.34,0,0,1,6.63-1.66c4.93,0,5.71,3.36,5.71,5.57v7.86l.54,2.92Zm-.65-4.35v-4c-.88-.07-1.77-.14-2.65-.14a19.86,19.86,0,0,0-4.15.41,4.67,4.67,0,0,0-.88,2.72c0,1.87,1.22,3,3.3,3A5.92,5.92,0,0,0,210.77,441.39Z" style="fill:#8a1024"/><path d="M218.59,441.32V420.17h3.13v21c0,1.49.61,2,1.8,2a6.33,6.33,0,0,0,2.07-.37,2.51,2.51,0,0,1,.68,1.84,5.93,5.93,0,0,1-3.6,1.05C220,445.67,218.59,444.17,218.59,441.32Z" style="fill:#8a1024"/><path d="M237.6,437.48c0-6.29,2.07-8.91,7.92-8.91,5.13,0,7.14,2.14,7.14,8.19,0,6.33-2.08,8.91-7.92,8.91C239.64,445.67,237.6,443.56,237.6,437.48Zm10.88,5.27c.64-.72,1.05-2.18,1.05-5.17,0-5.2-1-6.6-4.62-6.6a7.84,7.84,0,0,0-3.13.51c-.68.72-1.06,2.28-1.06,5.17,0,5.17,1,6.6,4.53,6.6A9,9,0,0,0,248.48,442.75Z" style="fill:#8a1024"/><path d="M267.11,428.88a4.48,4.48,0,0,1-.61,2.34,7.87,7.87,0,0,0-1.64-.17,6.2,6.2,0,0,0-4.79,2.14V445.5h-3.13V432.34l-.68-3,2.89-.75a13.35,13.35,0,0,1,.75,2.38,6.38,6.38,0,0,1,5.07-2.38A6.84,6.84,0,0,1,267.11,428.88Z" style="fill:#8a1024"/><path d="M296.79,424.32h-7l-3.13,21.18H283.6l3.13-21.18h-7l.41-2.72h17.13Z" style="fill:#8a1024"/><path d="M307.77,441.9l.1,3-3,.75a6.85,6.85,0,0,1-.24-1.87v-.14a9.23,9.23,0,0,1-5.61,2c-3.67,0-4.55-2.35-4.55-4.56a26.1,26.1,0,0,1,.3-3.12l1.4-9.25h3L297.84,438a24.46,24.46,0,0,0-.27,2.65c0,1.56.55,2.58,2.62,2.58a8.84,8.84,0,0,0,4.62-1.49.2.2,0,0,0,0-.14l1.87-12.85h3Z" style="fill:#8a1024"/><path d="M327.35,435.78c0,5.88-2.85,9.89-8.66,9.89a20.63,20.63,0,0,1-6.4-1.16l3.61-24.34h3l-1.36,9.25a8.77,8.77,0,0,1,3.81-.85C325,428.57,327.35,430.54,327.35,435.78Zm-3-.41c0-2.89-1.06-4.39-4-4.39a8.43,8.43,0,0,0-3.13.58l-1.66,11.25a17.68,17.68,0,0,0,3.7.45,7.29,7.29,0,0,0,3.06-.51C323.48,441.73,324.33,438.19,324.33,435.37Z" style="fill:#8a1024"/><path d="M338,436.29l5.31,9.21h-3.2l-4.66-8.06h-1.22L333,445.5h-3l3.74-25.33h3l-2.14,14.42H336l5.61-5.85h3.53Z" style="fill:#8a1024"/><path d="M358.4,442l.1,2.92-3,.75a7.66,7.66,0,0,1-.24-1.56,6.31,6.31,0,0,1-4.29,1.56c-3.94,0-5.77-2.79-5.77-7.21,0-5.5,2.71-9.89,7.92-9.89a9.18,9.18,0,0,1,4.11,1l.1-.82h3Zm-6.46,1.26a5.11,5.11,0,0,0,3.5-1.43l1.46-10.13a9.88,9.88,0,0,0-3.71-.72,8.55,8.55,0,0,0-2.92.48c-1.29,1.26-2,4.49-2,7.14C348.23,442,349.66,443.26,351.94,443.26Z" style="fill:#8a1024"/><path d="M363.23,441.39l3.16-21.22h3l-3.1,21c-.2,1.36.21,2,1.47,2a5.84,5.84,0,0,0,2-.37,2.86,2.86,0,0,1,.34,2,6.58,6.58,0,0,1-3.5.92C363.84,445.67,362.82,444.11,363.23,441.39Z" style="fill:#8a1024"/><path d="M389.74,419a2.26,2.26,0,0,1,1.16,1.9c-2.82,1.56-4.52,5.27-4.52,12.61s1.7,11.05,4.52,12.65a2.32,2.32,0,0,1-1.16,1.9c-4.48-1.8-6.49-6.18-6.49-14.55S385.26,420.82,389.74,419Z" style="fill:#8a1024"/><path d="M412.76,438.53c0,4.76-3,7-8.87,7h-8.54V421.6h8.33c6,0,8.43,2.14,8.43,6.12a6,6,0,0,1-2.78,5.44C411.47,434,412.76,435.61,412.76,438.53Zm-14.28-14.11V432h5a17.51,17.51,0,0,0,4.25-.44,5.25,5.25,0,0,0,1.09-3.33c0-2.55-1.26-3.78-5.2-3.78Zm11,14.08c0-2.38-1.12-3.78-4.76-3.78h-6.22v7.92h5.44a15.08,15.08,0,0,0,4.66-.64A6.94,6.94,0,0,0,409.46,438.5Z" style="fill:#8a1024"/><path d="M430.1,437.92H419.19c.17,4.52,1.53,5.3,4.38,5.3a14.39,14.39,0,0,0,5-.92,2.24,2.24,0,0,1,.79,1.67,10.47,10.47,0,0,1-6.33,1.7c-5,0-7-2.11-7-8.19,0-6.29,2.17-8.91,7.3-8.91,6,0,6.77,3.57,6.77,6.46Zm-10-6.46c-.62.88-.89,2-1,4.32h7.92v-1.09c0-1.63,0-3.67-3.94-3.67A9.38,9.38,0,0,0,420.11,431.46Z" style="fill:#8a1024"/><path d="M444.45,428.88a4.48,4.48,0,0,1-.61,2.34,7.87,7.87,0,0,0-1.64-.17,6.2,6.2,0,0,0-4.79,2.14V445.5h-3.13V432.34l-.68-3,2.89-.75a12.58,12.58,0,0,1,.75,2.38,6.38,6.38,0,0,1,5.07-2.38A6.79,6.79,0,0,1,444.45,428.88Z" style="fill:#8a1024"/><path d="M461.65,436.73c0,6.29-2.14,8.94-7.48,8.94a23.48,23.48,0,0,1-6.9-1.16V420.17h3.13v9.35a12.13,12.13,0,0,1,4.79-.95C459.71,428.57,461.65,430.71,461.65,436.73Zm-3.13.37c0-4.35-.81-6.12-4.25-6.12a11.05,11.05,0,0,0-3.87.72V443a15.55,15.55,0,0,0,3.53.37,8.17,8.17,0,0,0,3.57-.57C458.22,442,458.52,439.86,458.52,437.1Z" style="fill:#8a1024"/><path d="M479.06,437.92H468.15c.17,4.52,1.53,5.3,4.38,5.3a14.39,14.39,0,0,0,5-.92,2.24,2.24,0,0,1,.79,1.67,10.47,10.47,0,0,1-6.33,1.7c-5,0-7-2.11-7-8.19,0-6.29,2.17-8.91,7.3-8.91,6,0,6.77,3.57,6.77,6.46Zm-10-6.46c-.61.88-.88,2-.95,4.32H476v-1.09c0-1.63,0-3.67-3.94-3.67A9.49,9.49,0,0,0,469.06,431.46Z" style="fill:#8a1024"/><path d="M493.41,428.88a4.48,4.48,0,0,1-.61,2.34,7.87,7.87,0,0,0-1.64-.17,6.2,6.2,0,0,0-4.79,2.14V445.5h-3.13V432.34l-.68-3,2.89-.75a13.35,13.35,0,0,1,.75,2.38,6.38,6.38,0,0,1,5.07-2.38A6.79,6.79,0,0,1,493.41,428.88Z" style="fill:#8a1024"/><path d="M501.67,432a2.48,2.48,0,1,1-2.48-2.34A3.23,3.23,0,0,1,501.67,432Zm0,11.49a2.48,2.48,0,1,1-2.48-2.38A3.25,3.25,0,0,1,501.67,443.49Z" style="fill:#8a1024"/><path d="M529.31,434.79h-5.88V445.5h-3.16V434.79h-5.85V432h5.85V421.6h3.16V432h5.88Z" style="fill:#8a1024"/><path d="M533.22,440.43c0-3.87,1.8-5.74,5.92-5.74s5.54,1.83,5.54,5.34c0,3.87-1.8,5.81-5.88,5.81S533.22,443.94,533.22,440.43Zm.07-13.42c0-3.81,1.8-5.72,5.88-5.72s5.51,1.84,5.51,5.34c0,3.81-1.8,5.75-5.85,5.75S533.29,430.51,533.29,427Zm8,16.18a6.28,6.28,0,0,0,.61-2.93c0-2.17-.81-3.36-3.16-3.36a6.44,6.44,0,0,0-2.24.37,6.16,6.16,0,0,0-.54,2.86c0,2.34.74,3.47,3,3.47A6.38,6.38,0,0,0,541.31,443.19Zm0-13.43a6.22,6.22,0,0,0,.61-2.89c0-2.21-.85-3.4-3.13-3.4a6.08,6.08,0,0,0-2.24.41,6.22,6.22,0,0,0-.55,2.85c0,2.32.75,3.4,3,3.4A6.31,6.31,0,0,0,541.35,429.76Z" style="fill:#8a1024"/><path d="M562.6,445.5l-5.34-9-5.34,9h-3.7l7.41-11.25-6.84-10.34V421.6h17v2.31L559,434.21l7.44,11.29Zm-.55-21.18h-9.38l4.66,7.68Z" style="fill:#8a1024"/><path d="M583.3,445.5l-5.34-9-5.33,9h-3.71l7.41-11.25-6.83-10.34V421.6h17v2.31l-6.84,10.3,7.45,11.29Zm-.54-21.18h-9.39L578,432Z" style="fill:#8a1024"/><path d="M615.09,445.5l-5.64-9.31-5.85,9.31h-2.82V421.6h16.35v2.31l-6.08,9.73,7.71,11.86ZM606.35,436l7-11.66h-9.45v10.85c0,1.59-.11,3.6-.21,5.47C604.65,438.87,605.64,437.17,606.35,436Z" style="fill:#8a1024"/><path d="M621.28,439.18c0-4.76,2.07-7.18,6.77-7.18s6.35,2.35,6.35,6.63c0,4.76-2,7.21-6.69,7.21S621.28,443.46,621.28,439.18Zm9.35,3.74a9,9,0,0,0,.78-4c0-2.89-.92-4.52-3.77-4.52a6.67,6.67,0,0,0-2.65.47,8.5,8.5,0,0,0-.72,3.91c0,3.1.78,4.63,3.61,4.63A8.32,8.32,0,0,0,630.63,442.92Z" style="fill:#8a1024"/><path d="M651.61,421.6v23.9h-3.13V431.15l-6,9.32v5h-3.17V421.6h3.17v14.24l6-9.45V421.6Z" style="fill:#8a1024"/><path d="M683.94,424.32h-7l-3.13,21.18h-3.06l3.13-21.18h-7l.41-2.72h17.13Z" style="fill:#8a1024"/><path d="M695,441.9l.1,3-3,.75a6.85,6.85,0,0,1-.24-1.87v-.14a9.26,9.26,0,0,1-5.61,2c-3.67,0-4.56-2.35-4.56-4.56A24.23,24.23,0,0,1,682,438l1.39-9.25h3L685,438a22.16,22.16,0,0,0-.27,2.65c0,1.56.54,2.58,2.62,2.58a8.87,8.87,0,0,0,4.62-1.49.25.25,0,0,0,0-.14l1.87-12.85h3Z" style="fill:#8a1024"/><path d="M715.15,431.22l-2.45-.2a5.67,5.67,0,0,1,.55,2.65c0,4.21-2.79,7.07-7.72,7.07a7.45,7.45,0,0,1-3.06-.54,3.46,3.46,0,0,0-.44,1.63c0,1.12.78,1.8,2.48,1.8h2c4.32,0,6.19,1.46,6.19,4.49,0,4-3.26,5.88-8.6,5.88-5.07,0-6.73-1.73-6.73-4.28a5.31,5.31,0,0,1,3.16-4.83,2.89,2.89,0,0,1-1.09-2.35,4.31,4.31,0,0,1,1.74-3.3,5.38,5.38,0,0,1-1.09-3.6c0-4.15,2.75-7.07,7.65-7.07a7.66,7.66,0,0,1,2.44.34l5.55-.07a2.38,2.38,0,0,1,.06.51A3.35,3.35,0,0,1,715.15,431.22ZM704.65,446a10.46,10.46,0,0,0-3.47.31,4.78,4.78,0,0,0-1,2.92c0,1.81,1.22,2.38,4.93,2.38a13,13,0,0,0,3.57-.3,4.59,4.59,0,0,0,1.12-3C709.78,446.62,708.62,446,704.65,446Zm5.61-12.4c0-2.21-1.16-2.83-3.1-2.83a7.46,7.46,0,0,0-2.72.48c-.88.85-1.36,3.13-1.36,4.45,0,2,1.13,2.72,3.2,2.72a6.43,6.43,0,0,0,2.58-.44C709.78,437.17,710.26,435,710.26,433.64Z" style="fill:#8a1024"/><path d="M732.29,431.22l-2.45-.2a5.8,5.8,0,0,1,.54,2.65c0,4.21-2.78,7.07-7.71,7.07a7.39,7.39,0,0,1-3.06-.54,3.35,3.35,0,0,0-.44,1.63c0,1.12.78,1.8,2.48,1.8h2c4.32,0,6.19,1.46,6.19,4.49,0,4-3.27,5.88-8.6,5.88-5.07,0-6.74-1.73-6.74-4.28a5.32,5.32,0,0,1,3.17-4.83,2.89,2.89,0,0,1-1.09-2.35,4.34,4.34,0,0,1,1.73-3.3,5.43,5.43,0,0,1-1.09-3.6c0-4.15,2.76-7.07,7.65-7.07a7.68,7.68,0,0,1,2.45.34l5.54-.07a1.85,1.85,0,0,1,.07.51A3.43,3.43,0,0,1,732.29,431.22ZM721.78,446a10.43,10.43,0,0,0-3.46.31,4.71,4.71,0,0,0-1,2.92c0,1.81,1.22,2.38,4.92,2.38a12.9,12.9,0,0,0,3.57-.3,4.53,4.53,0,0,0,1.13-3C726.92,446.62,725.76,446,721.78,446Zm5.61-12.4c0-2.21-1.15-2.83-3.09-2.83a7.37,7.37,0,0,0-2.72.48c-.89.85-1.36,3.13-1.36,4.45,0,2,1.12,2.72,3.19,2.72A6.45,6.45,0,0,0,726,438C726.92,437.17,727.39,435,727.39,433.64Z" style="fill:#8a1024"/><path d="M751,436.29l5.31,9.21h-3.2l-4.66-8.06h-1.22L746,445.5h-3l3.74-25.33h3l-2.14,14.42H749l5.61-5.85h3.53Z" style="fill:#8a1024"/><path d="M771.39,442l.1,2.92-3,.75a7.66,7.66,0,0,1-.24-1.56,6.3,6.3,0,0,1-4.28,1.56c-4,0-5.78-2.79-5.78-7.21,0-5.5,2.72-9.89,7.92-9.89a9.18,9.18,0,0,1,4.11,1l.1-.82h3Zm-6.46,1.26a5.11,5.11,0,0,0,3.5-1.43l1.46-10.13a9.86,9.86,0,0,0-3.7-.72,8.57,8.57,0,0,0-2.93.48c-1.29,1.26-2,4.49-2,7.14C761.22,442,762.65,443.26,764.93,443.26Z" style="fill:#8a1024"/><path d="M776.22,441.39l3.16-21.22h3l-3.1,21c-.2,1.36.21,2,1.47,2a5.84,5.84,0,0,0,2-.37,2.86,2.86,0,0,1,.34,2,6.58,6.58,0,0,1-3.5.92C776.83,445.67,775.81,444.11,776.22,441.39Z" style="fill:#8a1024"/><path d="M785.77,451.45a15.1,15.1,0,0,0,2.72-5.78,2.91,2.91,0,0,1-1.74-2.24c0-.85,1.57-2.28,2.59-2.28a2.73,2.73,0,0,1,2.21,3c-.17,2.18-2.69,6.39-4.86,8C786.25,452.13,785.74,451.69,785.77,451.45Zm5.2-21.79a3.17,3.17,0,0,0-2.55,2.24c0,.92,1.33,2.45,2.21,2.45s2.58-1.39,2.58-2.24A3.13,3.13,0,0,0,791,429.66Z" style="fill:#8a1024"/><path d="M820.75,439.48H810.38l-2.24,6h-3.3L814,421.6h3.27l9.07,23.9H823Zm-1-2.82-4.11-11.08-4.15,11.08Z" style="fill:#8a1024"/><path d="M839.9,428.88a4.4,4.4,0,0,1-.62,2.34,7.72,7.72,0,0,0-1.63-.17,6.2,6.2,0,0,0-4.79,2.14V445.5h-3.13V432.34l-.68-3,2.89-.75a13.35,13.35,0,0,1,.75,2.38,6.38,6.38,0,0,1,5.06-2.38A6.91,6.91,0,0,1,839.9,428.88Z" style="fill:#8a1024"/><path d="M851.79,445.74a10.24,10.24,0,0,1-.54-2.28,7.39,7.39,0,0,1-5.3,2.28c-2.65,0-5.61-1.29-5.61-5.07a6.68,6.68,0,0,1,2-4.89,29.89,29.89,0,0,1,5.64-.55c1,0,2,0,3.13.14v-.82c0-1.46-.24-3.5-3.47-3.5a19.37,19.37,0,0,0-5.06.92,2.39,2.39,0,0,1-.68-1.67,14.31,14.31,0,0,1,6.63-1.66c4.93,0,5.71,3.36,5.71,5.57v7.86l.54,2.92Zm-.64-4.35v-4c-.88-.07-1.77-.14-2.65-.14a19.86,19.86,0,0,0-4.15.41,4.67,4.67,0,0,0-.88,2.72c0,1.87,1.22,3,3.29,3A5.93,5.93,0,0,0,851.15,441.39Z" style="fill:#8a1024"/><path d="M873.35,436.73c0,6.29-2.14,8.94-7.48,8.94a23.42,23.42,0,0,1-6.9-1.16V420.17h3.13v9.35a12.13,12.13,0,0,1,4.79-.95C871.41,428.57,873.35,430.71,873.35,436.73Zm-3.13.37c0-4.35-.81-6.12-4.25-6.12a11.05,11.05,0,0,0-3.87.72V443a15.55,15.55,0,0,0,3.53.37,8.17,8.17,0,0,0,3.57-.57C869.92,442,870.22,439.86,870.22,437.1Z" style="fill:#8a1024"/><path d="M876.89,422.82a2.19,2.19,0,1,1,2.21,2.11A2.89,2.89,0,0,1,876.89,422.82Zm.61,5.92h3.13V445.5H877.5Z" style="fill:#8a1024"/><path d="M884.78,437.24c0-6.12,2.34-8.67,7.1-8.67a9.2,9.2,0,0,1,5.07,1.29,2.58,2.58,0,0,1-.82,1.87,11.31,11.31,0,0,0-4-.75,9.18,9.18,0,0,0-3.19.51c-.61.85-1,2.15-1,5.24,0,5,.89,6.49,4.39,6.49a11.51,11.51,0,0,0,4.21-.75,2.41,2.41,0,0,1,.72,1.74,8.71,8.71,0,0,1-5.48,1.46C886.34,445.67,884.78,443.09,884.78,437.24Z" style="fill:#8a1024"/><path d="M904.94,432a2.49,2.49,0,1,1-2.48-2.34A3.23,3.23,0,0,1,904.94,432Zm0,11.49a2.49,2.49,0,1,1-2.48-2.38A3.25,3.25,0,0,1,904.94,443.49Z" style="fill:#8a1024"/><path d="M919.32,443a12.4,12.4,0,0,1,3.36-8.57,1.63,1.63,0,0,1,1.5,1.23,10.86,10.86,0,0,0-2.07,6.63c0,4.82,2.75,7.48,7.85,7.48,4,0,6.63-1.67,7.38-2.66a16.92,16.92,0,0,0,.37-4.21l-.17-18.67a21.62,21.62,0,0,1-1.39-2.89,2.09,2.09,0,0,1,2.14-1.29,2.67,2.67,0,0,1,2.58,2.89c0,.95-.37,16.35-.41,19.48,0,2.28-.3,4.9-1.19,6.29-1.39,2.14-4.58,4.18-9.48,4.18C923.36,452.84,919.32,449.24,919.32,443Z" style="fill:#8a1024"/><path d="M955.32,442.54v3.13H955a7.8,7.8,0,0,1-5-1.43c0,2.11-.78,3.3-2.28,3.3-1.32,0-1.93-.85-1.93-1.33a13.64,13.64,0,0,1,1.56-2.78l-.2-19.25a18.1,18.1,0,0,1-1.4-2.89,2,2,0,0,1,2.11-1.29,2.68,2.68,0,0,1,2.62,2.76c0,.71-.31,13.32-.45,18.8a10,10,0,0,0,5,1Z" style="fill:#8a1024"/><path d="M973.21,442.54v3.13h-.68a22.26,22.26,0,0,1-8.57-1.53,23.23,23.23,0,0,1-8.7,1.53H955v-3.13h.34a32.42,32.42,0,0,0,5.43-.41,8.21,8.21,0,0,1-2.75-6.32c0-3.7,2-6.08,6.12-6.08s6,2.38,6,6.11a8,8,0,0,1-2.82,6.26,30,30,0,0,0,5.68.44Zm-13.5-17.47a2,2,0,1,1,2,2A2.73,2.73,0,0,1,959.71,425.07Zm4.35,16a5.44,5.44,0,0,0,3.37-5.23c0-2.31-1.09-3.5-3.33-3.5-2.42,0-3.4,1.32-3.4,3.67a8.08,8.08,0,0,0,.68,3.43A12.3,12.3,0,0,0,964.06,441.11Zm.68-16a2.69,2.69,0,0,1,2-2,2,2,0,1,1,0,4A2.68,2.68,0,0,1,964.74,425.07Z" style="fill:#8a1024"/><path d="M972.87,442.54h.3c2.18,0,3.81-.3,4.83-1.05a9.58,9.58,0,0,0,.48-3.06,6.83,6.83,0,0,0-.17-1.74c-.58-.57-2.52-1.66-2.52-2.07a2.16,2.16,0,0,1,2.31-1.77c2.35,0,3.17,2.65,3.17,4.93,0,2-.62,4.56-1.81,5.85a9,9,0,0,1-6.22,2h-.37Zm5,4.83a3,3,0,0,0-2.32,2.21,2.32,2.32,0,0,0,4.63,0A3,3,0,0,0,977.87,447.37Z" style="fill:#8a1024"/><path d="M1002,445.67h-3.29c-1.53,5-5.31,8.33-10.2,8.33a8.19,8.19,0,0,1-5.85-2.18,2.07,2.07,0,0,1,.78-1.56,14.32,14.32,0,0,0,4.32.65c4.45,0,6.7-2.08,8.4-5.27-6.6-.21-9.15-1.53-9.15-6.29,0-4.49,2.25-6.5,6.12-6.5,5,0,6.29,3.44,6.29,7.75a17.87,17.87,0,0,1-.1,1.94H1002Zm-12-3.77a28.93,28.93,0,0,0,6.6.61c0-.55,0-1.09,0-1.7,0-2.93-.27-5.14-3.46-5.14-2.45,0-3.54,1.19-3.54,3.54A9.29,9.29,0,0,0,990,441.9Z" style="fill:#8a1024"/><path d="M1001.67,442.54h.3c2.18,0,3.81-.3,4.83-1.05a9.58,9.58,0,0,0,.48-3.06,6.83,6.83,0,0,0-.17-1.74c-.58-.57-2.52-1.66-2.52-2.07a2.16,2.16,0,0,1,2.31-1.77c2.35,0,3.16,2.65,3.16,4.93,0,2-.61,4.56-1.8,5.85a9,9,0,0,1-6.22,2h-.37Zm2.51-16.62a2,2,0,1,0,2,2A2.73,2.73,0,0,0,1004.18,425.92Zm5,0a2,2,0,1,0,0,4,2,2,0,1,0,0-4Z" style="fill:#8a1024"/><path d="M1042.36,424.32h-7l-3.13,21.18h-3.06l3.13-21.18h-7l.41-2.72h17.13Z" style="fill:#8a1024"/><path d="M1053.38,441.9l.1,3-3,.75a6.85,6.85,0,0,1-.24-1.87v-.14a9.26,9.26,0,0,1-5.61,2c-3.67,0-4.55-2.35-4.55-4.56a26.1,26.1,0,0,1,.3-3.12l1.4-9.25h3l-1.36,9.25a24.46,24.46,0,0,0-.27,2.65c0,1.56.54,2.58,2.62,2.58a8.84,8.84,0,0,0,4.62-1.49.2.2,0,0,0,0-.14l1.86-12.85h3Zm.34-17.51h-9.08l.31-2h9.11Z" style="fill:#8a1024"/><path d="M1073,435.78c0,5.88-2.85,9.89-8.67,9.89a20.62,20.62,0,0,1-6.39-1.16l3.61-24.34h3l-1.36,9.25a8.77,8.77,0,0,1,3.81-.85C1070.58,428.57,1073,430.54,1073,435.78Zm-3-.41c0-2.89-1.06-4.39-4-4.39a8.38,8.38,0,0,0-3.13.58l-1.66,11.25a17.59,17.59,0,0,0,3.7.45,7.29,7.29,0,0,0,3.06-.51C1069.09,441.73,1069.94,438.19,1069.94,435.37Z" style="fill:#8a1024"/><path d="M1091,428.57l-3.7,25.26h-3l1.4-9.49a6.47,6.47,0,0,1-4.08,1.33c-3.94,0-5.78-2.75-5.78-7.24,0-5.85,2.92-9.86,8.53-9.86a13.6,13.6,0,0,1,4.49.78Zm-5,13.36,1.53-10.37a13.25,13.25,0,0,0-3.71-.58,9,9,0,0,0-3,.48c-1.25,1.29-2,4.25-2,7.07,0,3.43,1.36,4.73,3.64,4.73A5.24,5.24,0,0,0,1086,441.93Z" style="fill:#8a1024"/><path d="M1106.69,442l.1,2.92-3,.75a8.42,8.42,0,0,1-.24-1.56,6.3,6.3,0,0,1-4.28,1.56c-4,0-5.78-2.79-5.78-7.21,0-5.5,2.72-9.89,7.92-9.89a9.18,9.18,0,0,1,4.11,1l.11-.82h3Zm-6.46,1.26a5.1,5.1,0,0,0,3.5-1.43l1.46-10.13a9.86,9.86,0,0,0-3.7-.72,8.57,8.57,0,0,0-2.93.48c-1.29,1.26-2,4.49-2,7.14C1096.52,442,1098,443.26,1100.23,443.26Zm6.9-18.87h-9.08l.31-2h9.11Z" style="fill:#8a1024"/><path d="M1111.52,441.39l3.16-21.22h3l-3.09,21c-.21,1.36.2,2,1.46,2a5.9,5.9,0,0,0,2-.37,2.92,2.92,0,0,1,.34,2,6.62,6.62,0,0,1-3.51.92C1112.13,445.67,1111.11,444.11,1111.52,441.39Z" style="fill:#8a1024"/><path d="M1122.87,448.08a2.37,2.37,0,0,1-1.19-1.9c2.83-1.6,4.53-5.27,4.53-12.65s-1.7-11-4.53-12.61a2.31,2.31,0,0,1,1.19-1.9c4.46,1.8,6.46,6.15,6.46,14.51S1127.33,446.28,1122.87,448.08Z" style="fill:#8a1024"/><path d="M1142.76,422.82a2.2,2.2,0,1,1,2.21,2.11A2.91,2.91,0,0,1,1142.76,422.82Zm.62,5.92h3.12V445.5h-3.12Z" style="fill:#8a1024"/><path d="M1150.48,444.21a2.74,2.74,0,0,1,.78-1.84,18.32,18.32,0,0,0,5.51.85,7.8,7.8,0,0,0,3.2-.51,4.87,4.87,0,0,0,.4-2.11c0-2.17-1.32-2.31-3.16-2.44l-1.73-.14c-2.24-.17-5.13-.81-5.13-4.35,0-3.13,2.31-5.1,6.39-5.1a11.28,11.28,0,0,1,5.88,1.46,2.62,2.62,0,0,1-.78,1.8,18.51,18.51,0,0,0-5-.85,8.13,8.13,0,0,0-3,.48,4.26,4.26,0,0,0-.4,1.84c0,1.83,1,2.14,3,2.27l1.77.1c2.38.21,5.24.79,5.24,4.66,0,3.44-2.31,5.34-6.8,5.34A11.83,11.83,0,0,1,1150.48,444.21Z" style="fill:#8a1024"/><path d="M1186.52,445.74a10.84,10.84,0,0,1-.55-2.28,7.39,7.39,0,0,1-5.3,2.28c-2.65,0-5.61-1.29-5.61-5.07a6.72,6.72,0,0,1,2-4.89,30.08,30.08,0,0,1,5.65-.55c1,0,2,0,3.12.14v-.82c0-1.46-.24-3.5-3.46-3.5a19.45,19.45,0,0,0-5.07.92,2.44,2.44,0,0,1-.68-1.67,14.38,14.38,0,0,1,6.63-1.66c4.93,0,5.71,3.36,5.71,5.57v7.86l.54,2.92Zm-.65-4.35v-4c-.88-.07-1.76-.14-2.65-.14a19.93,19.93,0,0,0-4.15.41,4.67,4.67,0,0,0-.88,2.72c0,1.87,1.22,3,3.3,3A5.92,5.92,0,0,0,1185.87,441.39Z" style="fill:#8a1024"/><path d="M1226.81,435.06V445.5h-3.13v-9.69c0-2.55,0-4.83-3.3-4.83a7,7,0,0,0-4.08,1.53,14.12,14.12,0,0,1,.17,2.55V445.5h-3.13v-9.69c0-2.51,0-4.83-3.26-4.83a7,7,0,0,0-3.91,1.4V445.5H1203V432.34l-.68-3,2.89-.75c.24.65.48,1.39.68,2.11a8,8,0,0,1,5.34-2.11c2.62,0,3.91,1.09,4.56,2.48a7.85,7.85,0,0,1,5.71-2.48C1226.81,428.57,1226.81,432.92,1226.81,435.06Z" style="fill:#8a1024"/><path d="M1230.72,437.48c0-6.29,2.07-8.91,7.92-8.91,5.13,0,7.14,2.14,7.14,8.19,0,6.33-2.07,8.91-7.92,8.91C1232.76,445.67,1230.72,443.56,1230.72,437.48Zm10.88,5.27c.64-.72,1.05-2.18,1.05-5.17,0-5.2-1-6.6-4.62-6.6a7.84,7.84,0,0,0-3.13.51c-.68.72-1.05,2.28-1.05,5.17,0,5.17,1,6.6,4.52,6.6A9,9,0,0,0,1241.6,442.75Z" style="fill:#8a1024"/><path d="M1261.22,445.67a10.19,10.19,0,0,1-.51-1.94,8.72,8.72,0,0,1-5.61,1.94c-5.41,0-5.41-4.35-5.41-6.49V428.74h3.13v9.45c0,2.86,0,5,3.33,5a8.74,8.74,0,0,0,4.39-1.29V428.74h3.12V441.9l.58,3Z" style="fill:#8a1024"/><path d="M1283.11,435.06V445.5H1280V436c0-2.86,0-5-3.36-5a8.84,8.84,0,0,0-4.63,1.43V445.5h-3.12V432.34l-.68-3,2.89-.75a15,15,0,0,1,.68,2.11,9.54,9.54,0,0,1,6-2.11C1283.11,428.57,1283.11,432.92,1283.11,435.06Z" style="fill:#8a1024"/><path d="M1296.81,444.55a7,7,0,0,1-4.08,1.12c-3.06,0-4.31-1.53-4.31-4.39V431.05h-2.28v-2.31h2.28v-4.32h3.12v4.32h4.76v2.31h-4.76v10.13c0,1.53.75,2,2,2a8.5,8.5,0,0,0,2.52-.44A2.53,2.53,0,0,1,1296.81,444.55Z" style="fill:#8a1024"/><path d="M1309.7,445.74a10.24,10.24,0,0,1-.54-2.28,7.44,7.44,0,0,1-5.31,2.28c-2.65,0-5.61-1.29-5.61-5.07a6.72,6.72,0,0,1,2-4.89,30.08,30.08,0,0,1,5.65-.55c1,0,2,0,3.12.14v-.82c0-1.46-.23-3.5-3.46-3.5a19.45,19.45,0,0,0-5.07.92,2.44,2.44,0,0,1-.68-1.67,14.38,14.38,0,0,1,6.63-1.66c4.93,0,5.71,3.36,5.71,5.57v7.86l.55,2.92Zm-.65-4.35v-4c-.88-.07-1.76-.14-2.65-.14a19.93,19.93,0,0,0-4.15.41,4.67,4.67,0,0,0-.88,2.72c0,1.87,1.22,3,3.3,3A5.92,5.92,0,0,0,1309.05,441.39Z" style="fill:#8a1024"/><path d="M1316.3,422.82a2.19,2.19,0,1,1,2.21,2.11A2.89,2.89,0,0,1,1316.3,422.82Zm.61,5.92H1320V445.5h-3.13Z" style="fill:#8a1024"/><path d="M1339.38,435.06V445.5h-3.13V436c0-2.86,0-5-3.36-5a8.84,8.84,0,0,0-4.63,1.43V445.5h-3.12V432.34l-.68-3,2.88-.75a13.75,13.75,0,0,1,.69,2.11,9.5,9.5,0,0,1,6-2.11C1339.38,428.57,1339.38,432.92,1339.38,435.06Z" style="fill:#8a1024"/><path d="M1367.77,436.73c0,6-2,8.94-6.94,8.94a12.81,12.81,0,0,1-4.31-.82v9h-3.13V432.34l-.68-3,2.89-.75a15.72,15.72,0,0,1,.61,1.94,8.27,8.27,0,0,1,5.54-1.94C1365.9,428.57,1367.77,431,1367.77,436.73Zm-3.13.2c0-4.25-1-6-3.81-6a8.07,8.07,0,0,0-4.31,1.43v10.3a13.18,13.18,0,0,0,3.84.58,8.44,8.44,0,0,0,3.26-.51C1364.34,441.9,1364.64,439,1364.64,436.93Z" style="fill:#8a1024"/><path d="M1385.18,437.92h-10.92c.17,4.52,1.53,5.3,4.39,5.3a14.45,14.45,0,0,0,5-.92,2.24,2.24,0,0,1,.78,1.67,10.41,10.41,0,0,1-6.32,1.7c-5,0-7-2.11-7-8.19,0-6.29,2.18-8.91,7.31-8.91,6,0,6.77,3.57,6.77,6.46Zm-10-6.46c-.61.88-.88,2-1,4.32h7.92v-1.09c0-1.63,0-3.67-3.94-3.67A9.49,9.49,0,0,0,1375.18,431.46Z" style="fill:#8a1024"/><path d="M1399.39,445.74a10.84,10.84,0,0,1-.55-2.28,7.39,7.39,0,0,1-5.3,2.28c-2.65,0-5.61-1.29-5.61-5.07a6.72,6.72,0,0,1,2-4.89,30.08,30.08,0,0,1,5.65-.55c1,0,2,0,3.12.14v-.82c0-1.46-.24-3.5-3.46-3.5a19.45,19.45,0,0,0-5.07.92,2.44,2.44,0,0,1-.68-1.67,14.38,14.38,0,0,1,6.63-1.66c4.93,0,5.71,3.36,5.71,5.57v7.86l.55,2.92Zm-.65-4.35v-4c-.88-.07-1.76-.14-2.65-.14a19.93,19.93,0,0,0-4.15.41,4.67,4.67,0,0,0-.88,2.72c0,1.87,1.22,3,3.3,3A5.92,5.92,0,0,0,1398.74,441.39Z" style="fill:#8a1024"/><path d="M1411.12,437.41h-1.43v8.09h-3.13V420.17h3.13v14.76h1.57l5.5-6.19h3.61l-6.63,7.38,6.83,9.38h-3.5Z" style="fill:#8a1024"/><path d="M1432.13,422.82a2.2,2.2,0,1,1,2.21,2.11A2.91,2.91,0,0,1,1432.13,422.82Zm.61,5.92h3.13V445.5h-3.13Z" style="fill:#8a1024"/><path d="M1455.22,435.06V445.5h-3.13V436c0-2.86,0-5-3.37-5a8.8,8.8,0,0,0-4.62,1.43V445.5H1441V432.34l-.68-3,2.89-.75a13.78,13.78,0,0,1,.68,2.11,9.54,9.54,0,0,1,6-2.11C1455.22,428.57,1455.22,432.92,1455.22,435.06Z" style="fill:#8a1024"/><path d="M1468.14,444.21a2.7,2.7,0,0,1,.78-1.84,18.25,18.25,0,0,0,5.51.85,7.73,7.73,0,0,0,3.19-.51,4.87,4.87,0,0,0,.41-2.11c0-2.17-1.33-2.31-3.16-2.44l-1.74-.14c-2.24-.17-5.13-.81-5.13-4.35,0-3.13,2.31-5.1,6.39-5.1a11.25,11.25,0,0,1,5.88,1.46,2.58,2.58,0,0,1-.78,1.8,18.4,18.4,0,0,0-5-.85,8.13,8.13,0,0,0-3,.48,4.11,4.11,0,0,0-.41,1.84c0,1.83,1,2.14,3.06,2.27l1.77.1c2.38.21,5.23.79,5.23,4.66,0,3.44-2.31,5.34-6.8,5.34A11.76,11.76,0,0,1,1468.14,444.21Z" style="fill:#8a1024"/><path d="M1484,437.48c0-6.29,2.08-8.91,7.93-8.91,5.13,0,7.14,2.14,7.14,8.19,0,6.33-2.08,8.91-7.93,8.91C1486.05,445.67,1484,443.56,1484,437.48Zm10.88,5.27c.65-.72,1.06-2.18,1.06-5.17,0-5.2-1-6.6-4.63-6.6a7.78,7.78,0,0,0-3.12.51c-.68.72-1.06,2.28-1.06,5.17,0,5.17,1,6.6,4.52,6.6A8.94,8.94,0,0,0,1494.89,442.75Z" style="fill:#8a1024"/><path d="M1514.51,445.67a11,11,0,0,1-.51-1.94,8.7,8.7,0,0,1-5.61,1.94c-5.4,0-5.4-4.35-5.4-6.49V428.74h3.12v9.45c0,2.86,0,5,3.34,5a8.7,8.7,0,0,0,4.38-1.29V428.74H1517V441.9l.58,3Z" style="fill:#8a1024"/><path d="M1531,444.55a7,7,0,0,1-4.08,1.12c-3.06,0-4.32-1.53-4.32-4.39V431.05h-2.27v-2.31h2.27v-4.32h3.13v4.32h4.76v2.31h-4.76v10.13c0,1.53.75,2,2,2a8.57,8.57,0,0,0,2.52-.44A2.53,2.53,0,0,1,1531,444.55Z" style="fill:#8a1024"/><path d="M1548.61,435.06V445.5h-3.13V436c0-2.86,0-5-3.36-5a8.77,8.77,0,0,0-4.62,1.43V445.5h-3.13V420.17h3.13v10.34a9.48,9.48,0,0,1,5.74-1.94C1548.61,428.57,1548.61,432.92,1548.61,435.06Z" style="fill:#8a1024"/><path d="M1574.69,428.74l-4.9,16.76h-3.43l-3.43-12.34-3.4,12.34h-3.44l-4.89-16.76h3.06l3.57,13.56,3.6-13.56h3l3.6,13.56,3.54-13.56Z" style="fill:#8a1024"/><path d="M1590.8,437.92h-10.91c.17,4.52,1.53,5.3,4.39,5.3a14.45,14.45,0,0,0,5-.92,2.24,2.24,0,0,1,.78,1.67,10.43,10.43,0,0,1-6.32,1.7c-5,0-7-2.11-7-8.19,0-6.29,2.18-8.91,7.31-8.91,6,0,6.76,3.57,6.76,6.46Zm-10-6.46c-.61.88-.88,2-1,4.32h7.92v-1.09c0-1.63,0-3.67-3.94-3.67A9.49,9.49,0,0,0,1580.81,431.46Z" style="fill:#8a1024"/><path d="M1593.87,444.21a2.7,2.7,0,0,1,.78-1.84,18.25,18.25,0,0,0,5.51.85,7.73,7.73,0,0,0,3.19-.51,4.87,4.87,0,0,0,.41-2.11c0-2.17-1.33-2.31-3.16-2.44l-1.74-.14c-2.24-.17-5.13-.81-5.13-4.35,0-3.13,2.31-5.1,6.39-5.1A11.25,11.25,0,0,1,1606,430a2.58,2.58,0,0,1-.78,1.8,18.4,18.4,0,0,0-5-.85,8.13,8.13,0,0,0-3,.48,4.11,4.11,0,0,0-.41,1.84c0,1.83,1,2.14,3.06,2.27l1.77.1c2.38.21,5.23.79,5.23,4.66,0,3.44-2.31,5.34-6.8,5.34A11.76,11.76,0,0,1,1593.87,444.21Z" style="fill:#8a1024"/><path d="M1619.54,444.55a7,7,0,0,1-4.08,1.12c-3.06,0-4.32-1.53-4.32-4.39V431.05h-2.28v-2.31h2.28v-4.32h3.13v4.32H1619v2.31h-4.76v10.13c0,1.53.74,2,2,2a8.42,8.42,0,0,0,2.51-.44A2.53,2.53,0,0,1,1619.54,444.55Z" style="fill:#8a1024"/><path d="M1635.79,437.92h-10.92c.17,4.52,1.53,5.3,4.39,5.3a14.45,14.45,0,0,0,5-.92,2.24,2.24,0,0,1,.78,1.67,10.43,10.43,0,0,1-6.32,1.7c-5,0-7-2.11-7-8.19,0-6.29,2.18-8.91,7.31-8.91,6,0,6.77,3.57,6.77,6.46Zm-10-6.46c-.61.88-.88,2-1,4.32h7.92v-1.09c0-1.63,0-3.67-3.94-3.67A9.49,9.49,0,0,0,1625.79,431.46Z" style="fill:#8a1024"/><path d="M1650.13,428.88a4.48,4.48,0,0,1-.61,2.34,7.72,7.72,0,0,0-1.63-.17,6.18,6.18,0,0,0-4.79,2.14V445.5H1640V432.34l-.68-3,2.89-.75a13.35,13.35,0,0,1,.75,2.38,6.36,6.36,0,0,1,5.06-2.38A6.79,6.79,0,0,1,1650.13,428.88Z" style="fill:#8a1024"/><path d="M1667.61,435.06V445.5h-3.13V436c0-2.86,0-5-3.36-5a8.84,8.84,0,0,0-4.63,1.43V445.5h-3.12V432.34l-.68-3,2.89-.75a15,15,0,0,1,.68,2.11,9.54,9.54,0,0,1,6-2.11C1667.61,428.57,1667.61,432.92,1667.61,435.06Z" style="fill:#8a1024"/><path d="M1701.92,421.6v23.9h-3.1v-18l-5.68,11.79h-2.61l-5.68-11.79v18h-3.06V421.6H1685l6.87,14.35,6.84-14.35Z" style="fill:#8a1024"/><path d="M1706.3,437.48c0-6.29,2.08-8.91,7.92-8.91,5.14,0,7.14,2.14,7.14,8.19,0,6.33-2.07,8.91-7.92,8.91C1708.34,445.67,1706.3,443.56,1706.3,437.48Zm10.88,5.27c.65-.72,1.06-2.18,1.06-5.17,0-5.2-1-6.6-4.63-6.6a7.87,7.87,0,0,0-3.13.51c-.68.72-1,2.28-1,5.17,0,5.17,1,6.6,4.52,6.6A9,9,0,0,0,1717.18,442.75Z" style="fill:#8a1024"/><path d="M1735.81,428.88a4.48,4.48,0,0,1-.61,2.34,7.78,7.78,0,0,0-1.63-.17,6.18,6.18,0,0,0-4.79,2.14V445.5h-3.13V432.34l-.68-3,2.89-.75a13.35,13.35,0,0,1,.75,2.38,6.36,6.36,0,0,1,5.06-2.38A6.79,6.79,0,0,1,1735.81,428.88Z" style="fill:#8a1024"/><path d="M1736.73,437.48c0-6.29,2.08-8.91,7.92-8.91,5.14,0,7.14,2.14,7.14,8.19,0,6.33-2.07,8.91-7.92,8.91C1738.77,445.67,1736.73,443.56,1736.73,437.48Zm10.88,5.27c.65-.72,1.06-2.18,1.06-5.17,0-5.2-1-6.6-4.63-6.6a7.87,7.87,0,0,0-3.13.51c-.68.72-1.05,2.28-1.05,5.17,0,5.17,1,6.6,4.52,6.6A9,9,0,0,0,1747.61,442.75Z" style="fill:#8a1024"/><path d="M1755.13,437.24c0-6.12,2.34-8.67,7.1-8.67a9.2,9.2,0,0,1,5.07,1.29,2.58,2.58,0,0,1-.82,1.87,11.29,11.29,0,0,0-4-.75,9.29,9.29,0,0,0-3.2.51c-.61.85-1,2.15-1,5.24,0,5,.89,6.49,4.39,6.49a11.51,11.51,0,0,0,4.21-.75,2.41,2.41,0,0,1,.72,1.74,8.71,8.71,0,0,1-5.48,1.46C1756.69,445.67,1755.13,443.09,1755.13,437.24Z" style="fill:#8a1024"/><path d="M1769.88,437.24c0-6.12,2.35-8.67,7.11-8.67a9.16,9.16,0,0,1,5.06,1.29,2.62,2.62,0,0,1-.81,1.87,11.31,11.31,0,0,0-4-.75,9.18,9.18,0,0,0-3.19.51c-.62.85-1,2.15-1,5.24,0,5,.88,6.49,4.38,6.49a11.57,11.57,0,0,0,4.22-.75,2.4,2.4,0,0,1,.71,1.74c-1,.88-2.92,1.46-5.47,1.46C1771.45,445.67,1769.88,443.09,1769.88,437.24Z" style="fill:#8a1024"/><path d="M1784.64,437.48c0-6.29,2.07-8.91,7.92-8.91,5.13,0,7.14,2.14,7.14,8.19,0,6.33-2.08,8.91-7.92,8.91C1786.68,445.67,1784.64,443.56,1784.64,437.48Zm10.88,5.27c.64-.72,1-2.18,1-5.17,0-5.2-1-6.6-4.62-6.6a7.84,7.84,0,0,0-3.13.51c-.68.72-1.06,2.28-1.06,5.17,0,5.17,1,6.6,4.53,6.6A9,9,0,0,0,1795.52,442.75Z" style="fill:#8a1024"/><path d="M1807.21,443.49a2.48,2.48,0,1,1-2.48-2.38A3.24,3.24,0,0,1,1807.21,443.49Z" style="fill:#8a1024"/></svg>