<?xml version="1.0" encoding="utf-8"?>
<!-- Generator: Adobe Illustrator 15.1.0, SVG Export Plug-In . SVG Version: 6.00 Build 0)  -->
<!DOCTYPE svg PUBLIC "-//W3C//DTD SVG 1.1//EN" "http://www.w3.org/Graphics/SVG/1.1/DTD/svg11.dtd">
<svg version="1.1" id="Layer_1_copy" xmlns="http://www.w3.org/2000/svg" xmlns:xlink="http://www.w3.org/1999/xlink" x="0px"
	 y="0px" width="2000px" height="1000px" viewBox="0 0 2000 1000" enable-background="new 0 0 2000 1000" xml:space="preserve">
<g>
	<path fill="#998F86" d="M87.475,158.964c1.104,0,2.024,0.92,2.024,2.024v10.304c0,1.104-0.92,2.024-2.024,2.024H71.098v116.66
		c0,1.104-0.92,2.024-2.024,2.024H52.698c-1.104,0-2.024-0.92-2.024-2.024v-116.66H34.297c-1.104,0-2.024-0.92-2.024-2.024v-10.304
		c0-1.104,0.92-2.024,2.024-2.024H87.475z"/>
	<path fill="#998F86" d="M139.363,281.88c0,5.52-4.6,10.12-10.305,10.12H96.306c-5.52,0-10.12-4.6-10.12-10.12v-57.41
		c0-5.704,4.6-10.304,10.12-10.304h32.753c5.705,0,10.305,4.6,10.305,10.304V281.88z M104.586,228.518v49.129h16.376v-49.129
		H104.586z"/>
	<path fill="#998F86" d="M275.889,289.976c0,1.104-0.92,2.024-2.024,2.024h-16.376c-1.104,0-2.024-0.92-2.024-2.024v-94.027h-0.552
		c0,0,0,3.68-0.368,6.072L234.12,290.16c-0.184,1.288-1.104,1.84-2.392,1.84h-12.144c-1.288,0-2.208-0.552-2.392-1.84
		l-19.873-85.931c-0.92-3.312-0.736-8.28-0.736-8.28h-0.552v94.027c0,1.104-0.92,2.024-2.024,2.024h-10.12
		c-1.288,0-2.208-0.92-2.208-2.024V160.988c0-1.104,0.92-2.024,2.208-2.024h21.896c1.288,0,2.208,0.552,2.392,1.84l23.737,102.491
		l23.737-102.491c0.184-1.288,1.104-1.84,2.392-1.84h15.824c1.104,0,2.024,0.92,2.024,2.024V289.976z"/>
	<path fill="#998F86" d="M343.784,261.271c0,1.104-0.92,2.024-2.024,2.024h-32.753v14.353h20.425c1.104,0,2.024,0.92,2.024,2.024
		v10.305c0,1.104-0.92,2.024-2.024,2.024h-28.705c-5.704,0-10.304-4.6-10.304-10.304V224.47c0-5.704,4.6-10.304,10.304-10.304
		h32.753c5.704,0,10.304,4.6,10.304,10.304V261.271z M325.384,248.943v-20.425h-16.376v20.425H325.384z"/>
	<path fill="#998F86" d="M409.836,261.271c0,1.104-0.92,2.024-2.024,2.024H375.06v14.353h20.425c1.104,0,2.024,0.92,2.024,2.024
		v10.305c0,1.104-0.92,2.024-2.024,2.024h-28.705c-5.704,0-10.304-4.6-10.304-10.304V224.47c0-5.704,4.6-10.304,10.304-10.304
		h32.753c5.704,0,10.304,4.6,10.304,10.304V261.271z M391.436,248.943v-20.425H375.06v20.425H391.436z"/>
	<path fill="#998F86" d="M460.8,214.166c1.104,0,2.024,0.92,2.024,2.024v10.305c0,1.104-0.92,2.024-2.024,2.024h-12.329v49.129
		H460.8c1.104,0,2.024,0.92,2.024,2.024v10.305c0,1.104-0.92,2.024-2.024,2.024h-20.425c-5.704,0-10.304-4.6-10.304-10.304v-53.178
		h-8.28c-1.104,0-2.024-0.92-2.024-2.024v-10.305c0-1.104,0.92-2.024,2.024-2.024h8.28v-34.777c0-1.104,0.92-2.024,2.024-2.024
		h14.353c1.104,0,2.024,0.92,2.024,2.024v34.777H460.8z"/>
	<path fill="#998F86" d="M540.654,214.166c1.104,0,2.024,0.92,2.024,2.024v10.305c0,1.104-0.92,2.024-2.024,2.024h-12.329v49.129
		h12.329c1.104,0,2.024,0.92,2.024,2.024v10.305c0,1.104-0.92,2.024-2.024,2.024h-20.425c-5.704,0-10.304-4.6-10.304-10.304v-53.178
		h-8.28c-1.104,0-2.024-0.92-2.024-2.024v-10.305c0-1.104,0.92-2.024,2.024-2.024h8.28v-34.777c0-1.104,0.92-2.024,2.024-2.024
		h14.353c1.104,0,2.024,0.92,2.024,2.024v34.777H540.654z"/>
	<path fill="#998F86" d="M608.367,289.976c0,1.104-0.92,2.024-2.024,2.024h-14.352c-1.104,0-2.024-0.92-2.024-2.024v-61.274H573.59
		v61.274c0,1.104-0.92,2.024-2.024,2.024h-14.353c-1.104,0-2.024-0.92-2.024-2.024V146.819c0-1.104,0.92-2.024,2.024-2.024h14.353
		c1.104,0,2.024,0.92,2.024,2.024v75.442c4.6-5.888,5.888-7.912,10.672-7.912h13.8c5.705,0,10.305,4.6,10.305,10.12V289.976z"/>
	<path fill="#998F86" d="M676.262,261.271c0,1.104-0.92,2.024-2.024,2.024h-32.753v14.353h20.425c1.104,0,2.024,0.92,2.024,2.024
		v10.305c0,1.104-0.92,2.024-2.024,2.024h-28.705c-5.704,0-10.304-4.6-10.304-10.304V224.47c0-5.704,4.6-10.304,10.304-10.304
		h32.753c5.704,0,10.304,4.6,10.304,10.304V261.271z M657.862,248.943v-20.425h-16.376v20.425H657.862z"/>
	<path fill="#998F86" d="M762.003,158.964c1.104,0,2.024,0.92,2.024,2.024v10.304c0,1.104-0.92,2.024-2.024,2.024h-26.681v104.331
		h26.681c1.104,0,2.024,0.92,2.024,2.024v10.305c0,1.104-0.92,2.024-2.024,2.024h-36.801c-5.704,0-10.304-4.6-10.304-10.304V169.268
		c0-5.704,4.6-10.304,10.304-10.304H762.003z"/>
	<path fill="#998F86" d="M831.739,289.976c0,1.104-0.92,2.024-2.024,2.024h-14.353c-1.104,0-2.024-0.92-2.024-2.024v-61.274h-16.376
		v61.274c0,1.104-0.92,2.024-2.024,2.024h-14.353c-1.104,0-2.024-0.92-2.024-2.024V146.819c0-1.104,0.92-2.024,2.024-2.024h14.353
		c1.104,0,2.024,0.92,2.024,2.024v75.442c4.6-5.888,5.888-7.912,10.672-7.912h13.8c5.704,0,10.305,4.6,10.305,10.12V289.976z"/>
	<path fill="#998F86" d="M897.606,289.976c0,1.104-0.92,2.024-2.024,2.024h-14.352c-1.104,0-2.024-0.92-2.024-2.024v-5.888
		c-4.6,5.888-5.888,7.912-10.672,7.912h-13.984c-5.52,0-10.12-4.6-10.12-10.304v-28.705c0-5.52,4.6-10.12,10.12-10.12h13.984
		c4.784,0,6.072,2.024,10.672,7.912v-22.265h-20.424c-1.104,0-2.024-0.92-2.024-2.024v-10.305c0-1.104,0.736-2.024,2.024-2.024
		h28.521c5.705,0,10.305,4.6,10.305,10.304V289.976z M879.205,257.223h-16.376v20.424h16.376V257.223z"/>
	<path fill="#998F86" d="M930.542,289.976c0,1.104-0.92,2.024-2.024,2.024h-14.353c-1.104,0-2.024-0.92-2.024-2.024V146.819
		c0-1.104,0.92-2.024,2.024-2.024h14.353c1.104,0,2.024,0.92,2.024,2.024V289.976z"/>
	<path fill="#998F86" d="M965.132,289.976c0,1.104-0.92,2.024-2.024,2.024h-14.353c-1.104,0-2.024-0.92-2.024-2.024V146.819
		c0-1.104,0.92-2.024,2.024-2.024h14.353c1.104,0,2.024,0.92,2.024,2.024V289.976z"/>
	<path fill="#998F86" d="M1034.314,261.271c0,1.104-0.92,2.024-2.023,2.024h-32.753v14.353h20.425c1.104,0,2.023,0.92,2.023,2.024
		v10.305c0,1.104-0.92,2.024-2.023,2.024h-28.705c-5.704,0-10.304-4.6-10.304-10.304V224.47c0-5.704,4.6-10.304,10.304-10.304
		h32.753c5.704,0,10.304,4.6,10.304,10.304V261.271z M1015.914,248.943v-20.425h-16.376v20.425H1015.914z"/>
	<path fill="#998F86" d="M1100.184,289.976c0,1.104-0.92,2.024-2.025,2.024h-14.352c-1.104,0-2.023-0.92-2.023-2.024v-61.458
		h-16.377v61.458c0,1.104-0.92,2.024-2.025,2.024h-14.352c-1.104,0-2.023-0.92-2.023-2.024v-73.787c0-1.104,0.92-2.024,2.023-2.024
		h14.352c1.105,0,2.025,0.92,2.025,2.024v5.888c4.6-5.888,5.889-7.912,10.672-7.912h13.984c5.52,0,10.121,4.6,10.121,10.304V289.976
		z"/>
	<path fill="#998F86" d="M1168.078,314.633c0,5.704-4.6,10.304-10.303,10.304h-20.426c-1.104,0-2.023-0.92-2.023-2.024v-10.305
		c0-1.104,0.92-2.024,2.023-2.024h12.328v-26.681c-4.783,6.072-5.887,8.096-10.672,8.096h-13.984c-5.705,0-10.305-4.6-10.305-10.304
		V224.47c0-5.704,4.6-10.304,10.305-10.304h13.984c4.785,0,5.889,2.024,10.672,7.912v-5.888c0-1.104,0.92-2.024,2.025-2.024h14.352
		c1.104,0,2.023,0.92,2.023,2.024V314.633z M1149.678,228.518h-16.377v49.129h16.377V228.518z"/>
	<path fill="#998F86" d="M1235.975,261.271c0,1.104-0.92,2.024-2.023,2.024h-32.754v14.353h20.426c1.104,0,2.023,0.92,2.023,2.024
		v10.305c0,1.104-0.92,2.024-2.023,2.024h-28.705c-5.705,0-10.305-4.6-10.305-10.304V224.47c0-5.704,4.6-10.304,10.305-10.304
		h32.754c5.703,0,10.303,4.6,10.303,10.304V261.271z M1217.574,248.943v-20.425h-16.377v20.425H1217.574z"/>
	<path fill="#998F86" d="M1327.789,281.88c0,5.52-4.602,10.12-10.305,10.12h-32.754c-5.52,0-10.119-4.6-10.119-10.12v-57.41
		c0-5.704,4.6-10.304,10.119-10.304h32.754c5.703,0,10.305,4.6,10.305,10.304V281.88z M1293.012,228.518v49.129h16.377v-49.129
		H1293.012z"/>
	<path fill="#998F86" d="M1378.02,144.795c1.105,0,2.025,0.92,2.025,2.024v10.305c0,1.104-0.92,2.024-2.025,2.024h-12.328v55.202
		h12.328c1.105,0,2.025,0.92,2.025,2.024v10.121c0,1.288-0.92,2.208-2.025,2.208h-12.328v61.274c0,1.104-0.92,2.024-2.023,2.024
		H1349.5c-1.289,0-2.209-0.92-2.209-2.024v-61.274h-8.096c-1.104,0-2.025-0.92-2.025-2.208v-10.121c0-1.104,0.922-2.024,2.025-2.024
		h8.096V155.1c0-5.704,4.6-10.304,10.305-10.304H1378.02z"/>
	<path fill="#998F86" d="M1454.193,214.166c1.104,0,2.023,0.92,2.023,2.024v10.305c0,1.104-0.92,2.024-2.023,2.024h-12.328v49.129
		h12.328c1.104,0,2.023,0.92,2.023,2.024v10.305c0,1.104-0.92,2.024-2.023,2.024h-20.426c-5.703,0-10.303-4.6-10.303-10.304v-53.178
		h-8.281c-1.104,0-2.023-0.92-2.023-2.024v-10.305c0-1.104,0.92-2.024,2.023-2.024h8.281v-34.777c0-1.104,0.92-2.024,2.023-2.024
		h14.352c1.105,0,2.025,0.92,2.025,2.024v34.777H1454.193z"/>
	<path fill="#998F86" d="M1521.906,289.976c0,1.104-0.92,2.024-2.023,2.024h-14.354c-1.104,0-2.023-0.92-2.023-2.024v-61.274
		h-16.377v61.274c0,1.104-0.92,2.024-2.023,2.024h-14.352c-1.105,0-2.025-0.92-2.025-2.024V146.819c0-1.104,0.92-2.024,2.025-2.024
		h14.352c1.104,0,2.023,0.92,2.023,2.024v75.442c4.602-5.888,5.889-7.912,10.674-7.912h13.799c5.705,0,10.305,4.6,10.305,10.12
		V289.976z"/>
	<path fill="#998F86" d="M1589.803,261.271c0,1.104-0.92,2.024-2.023,2.024h-32.754v14.353h20.424c1.105,0,2.025,0.92,2.025,2.024
		v10.305c0,1.104-0.92,2.024-2.025,2.024h-28.703c-5.705,0-10.305-4.6-10.305-10.304V224.47c0-5.704,4.6-10.304,10.305-10.304
		h32.752c5.705,0,10.305,4.6,10.305,10.304V261.271z M1571.402,248.943v-20.425h-16.377v20.425H1571.402z"/>
	<path fill="#998F86" d="M1678.119,158.964c1.104,0,2.023,0.92,2.023,2.024v10.304c0,1.104-0.92,2.024-2.023,2.024h-16.377v116.66
		c0,1.104-0.92,2.024-2.023,2.024h-16.377c-1.104,0-2.023-0.92-2.023-2.024v-116.66h-16.377c-1.104,0-2.023-0.92-2.023-2.024
		v-10.304c0-1.104,0.92-2.024,2.023-2.024H1678.119z"/>
	<path fill="#998F86" d="M1700.383,195.765c0,1.104-0.92,2.024-2.025,2.024h-14.352c-1.104,0-2.023-0.92-2.023-2.024V185.46
		c0-1.104,0.92-2.024,2.023-2.024h14.352c1.105,0,2.025,0.92,2.025,2.024V195.765z M1700.383,289.976
		c0,1.104-0.92,2.024-2.025,2.024h-14.352c-1.104,0-2.023-0.92-2.023-2.024v-73.787c0-1.104,0.92-2.024,2.023-2.024h14.352
		c1.105,0,2.025,0.92,2.025,2.024V289.976z"/>
	<path fill="#998F86" d="M1802.504,289.976c0,1.104-0.92,2.024-2.209,2.024h-14.168c-1.289,0-2.209-0.92-2.209-2.024v-61.458
		h-16.375v61.458c0,1.104-0.92,2.024-2.025,2.024h-14.352c-1.104,0-2.023-0.92-2.023-2.024v-61.458h-16.377v61.458
		c0,1.104-0.92,2.024-2.025,2.024h-14.352c-1.104,0-2.023-0.92-2.023-2.024v-73.787c0-1.104,0.92-2.024,2.023-2.024h14.352
		c1.105,0,2.025,0.92,2.025,2.024v5.888c4.783-5.888,5.889-7.912,10.672-7.912h13.984c4.969,0,9.016,3.496,9.936,8.28
		c4.969-6.256,6.072-8.28,10.857-8.28h13.984c5.703,0,10.305,4.6,10.305,10.304V289.976z"/>
	<path fill="#998F86" d="M1870.398,261.271c0,1.104-0.92,2.024-2.023,2.024h-32.754v14.353h20.424c1.105,0,2.025,0.92,2.025,2.024
		v10.305c0,1.104-0.92,2.024-2.025,2.024h-28.703c-5.705,0-10.305-4.6-10.305-10.304V224.47c0-5.704,4.6-10.304,10.305-10.304
		h32.752c5.705,0,10.305,4.6,10.305,10.304V261.271z M1851.998,248.943v-20.425h-16.377v20.425H1851.998z"/>
	<path fill="#998F86" d="M1931.299,281.696c0,5.704-4.6,10.304-10.305,10.304h-34.777c-1.104,0-2.023-0.92-2.023-2.024v-10.305
		c0-1.104,0.92-2.024,2.023-2.024h26.682v-16.376h-20.426c-5.703,0-10.303-4.6-10.303-10.304V224.47
		c0-5.704,4.6-10.304,10.303-10.304h32.754c1.104,0,2.023,0.92,2.023,2.024v10.305c0,1.104-0.92,2.024-2.023,2.024h-24.656v18.4
		h20.424c5.705,0,10.305,4.6,10.305,10.305V281.696z"/>
	<path fill="#998F86" d="M1960.186,158.964c1.104,0,2.023,0.92,2.023,2.024v92.187c0,1.104-0.92,2.024-2.023,2.024h-14.352
		c-1.105,0-2.025-0.92-2.025-2.024v-92.187c0-1.104,0.92-2.024,2.025-2.024H1960.186z M1962.209,289.976
		c0,1.104-0.92,2.024-2.023,2.024h-14.352c-1.105,0-2.025-0.92-2.025-2.024v-14.353c0-1.104,0.92-2.024,2.025-2.024h14.352
		c1.104,0,2.023,0.92,2.023,2.024V289.976z"/>
</g>
<g>
	<path fill="#E0DED9" d="M79.994,105.785c0,3.44-2.664,6.215-6.105,6.215H44.254c-0.666,0-1.221-0.555-1.221-1.221V32.973
		c0-0.666,0.555-1.221,1.221-1.221h9.878c0.666,0,1.221,0.555,1.221,1.221v3.552c2.775-3.552,3.552-4.772,6.438-4.772h12.098
		c3.441,0,6.105,2.775,6.105,6.216v30.522c0,2.886-1.221,3.663-4.773,6.438c3.552,2.886,4.773,3.552,4.773,6.438V105.785z
		 M55.353,73.708h12.32V40.41h-12.32V73.708z M55.353,82.365v20.978h12.32V82.365H55.353z"/>
	<path fill="#E0DED9" d="M120.953,110.779c0,0.666-0.555,1.221-1.221,1.221h-8.658c-0.666,0-1.221-0.555-1.221-1.221v-3.552
		c-2.886,3.552-3.552,4.772-6.438,4.772h-8.436c-3.441,0-6.215-2.775-6.215-6.215V66.271c0-0.666,0.555-1.221,1.221-1.221h8.657
		c0.777,0,1.332,0.555,1.332,1.221v37.072h9.878V66.271c0-0.666,0.555-1.221,1.221-1.221h8.658c0.666,0,1.221,0.555,1.221,1.221
		V110.779z"/>
	<path fill="#E0DED9" d="M158.804,105.785c0,3.44-2.775,6.215-6.216,6.215H131.61c-0.666,0-1.221-0.555-1.221-1.221v-6.216
		c0-0.666,0.555-1.221,1.221-1.221h16.094v-9.878h-12.32c-3.441,0-6.216-2.775-6.216-6.216V71.266c0-3.44,2.775-6.215,6.216-6.215
		h19.756c0.666,0,1.221,0.555,1.221,1.221v6.216c0,0.666-0.555,1.221-1.221,1.221h-14.873v11.099h12.32
		c3.441,0,6.216,2.775,6.216,6.216V105.785z"/>
	<path fill="#E0DED9" d="M178.118,53.951c0,0.666-0.555,1.221-1.221,1.221h-8.657c-0.666,0-1.221-0.555-1.221-1.221v-6.216
		c0-0.666,0.555-1.221,1.221-1.221h8.657c0.666,0,1.221,0.555,1.221,1.221V53.951z M178.118,110.779
		c0,0.666-0.555,1.221-1.221,1.221h-8.657c-0.666,0-1.221-0.555-1.221-1.221V66.271c0-0.666,0.555-1.221,1.221-1.221h8.657
		c0.666,0,1.221,0.555,1.221,1.221V110.779z"/>
	<path fill="#E0DED9" d="M218.631,110.779c0,0.666-0.555,1.221-1.221,1.221h-8.657c-0.666,0-1.221-0.555-1.221-1.221V73.708h-9.878
		v37.072c0,0.666-0.555,1.221-1.221,1.221h-8.657c-0.666,0-1.221-0.555-1.221-1.221V66.271c0-0.666,0.555-1.221,1.221-1.221h8.657
		c0.666,0,1.221,0.555,1.221,1.221v3.552c2.775-3.552,3.552-4.772,6.438-4.772h8.436c3.33,0,6.104,2.775,6.104,6.215V110.779z"/>
	<path fill="#E0DED9" d="M259.589,93.464c0,0.666-0.555,1.221-1.221,1.221h-19.757v8.658h12.32c0.666,0,1.221,0.555,1.221,1.221
		v6.216c0,0.666-0.555,1.221-1.221,1.221h-17.315c-3.441,0-6.216-2.775-6.216-6.215V71.266c0-3.44,2.775-6.215,6.216-6.215h19.757
		c3.44,0,6.215,2.775,6.215,6.215V93.464z M248.49,86.028v-12.32h-9.878v12.32H248.49z"/>
	<path fill="#E0DED9" d="M296.329,105.785c0,3.44-2.775,6.215-6.216,6.215h-20.978c-0.666,0-1.221-0.555-1.221-1.221v-6.216
		c0-0.666,0.555-1.221,1.221-1.221h16.094v-9.878h-12.32c-3.441,0-6.216-2.775-6.216-6.216V71.266c0-3.44,2.775-6.215,6.216-6.215
		h19.756c0.666,0,1.221,0.555,1.221,1.221v6.216c0,0.666-0.555,1.221-1.221,1.221h-14.873v11.099h12.32
		c3.441,0,6.216,2.775,6.216,6.216V105.785z"/>
	<path fill="#E0DED9" d="M331.96,105.785c0,3.44-2.775,6.215-6.216,6.215h-20.978c-0.666,0-1.221-0.555-1.221-1.221v-6.216
		c0-0.666,0.555-1.221,1.221-1.221h16.094v-9.878h-12.32c-3.441,0-6.216-2.775-6.216-6.216V71.266c0-3.44,2.775-6.215,6.216-6.215
		h19.756c0.666,0,1.221,0.555,1.221,1.221v6.216c0,0.666-0.555,1.221-1.221,1.221h-14.873v11.099h12.32
		c3.441,0,6.216,2.775,6.216,6.216V105.785z"/>
	<path fill="#E0DED9" d="M409.546,110.779c0,0.666-0.555,1.221-1.332,1.221h-8.546c-0.777,0-1.332-0.555-1.332-1.221V73.708h-9.878
		v37.072c0,0.666-0.555,1.221-1.221,1.221h-8.657c-0.666,0-1.221-0.555-1.221-1.221V73.708h-9.878v37.072
		c0,0.666-0.555,1.221-1.221,1.221h-8.657c-0.666,0-1.221-0.555-1.221-1.221V66.271c0-0.666,0.555-1.221,1.221-1.221h8.657
		c0.666,0,1.221,0.555,1.221,1.221v3.552c2.886-3.552,3.552-4.772,6.438-4.772h8.436c2.997,0,5.438,2.109,5.994,4.995
		c2.997-3.774,3.663-4.995,6.548-4.995h8.436c3.44,0,6.215,2.775,6.215,6.215V110.779z"/>
	<path fill="#E0DED9" d="M450.506,110.779c0,0.666-0.555,1.221-1.221,1.221h-8.658c-0.666,0-1.221-0.555-1.221-1.221v-3.552
		c-2.886,3.552-3.552,4.772-6.438,4.772h-8.436c-3.441,0-6.216-2.775-6.216-6.215V66.271c0-0.666,0.555-1.221,1.221-1.221h8.657
		c0.777,0,1.332,0.555,1.332,1.221v37.072h9.878V66.271c0-0.666,0.555-1.221,1.221-1.221h8.658c0.666,0,1.221,0.555,1.221,1.221
		V110.779z"/>
	<path fill="#E0DED9" d="M488.357,105.785c0,3.44-2.775,6.215-6.216,6.215h-20.978c-0.666,0-1.221-0.555-1.221-1.221v-6.216
		c0-0.666,0.555-1.221,1.221-1.221h16.094v-9.878h-12.32c-3.441,0-6.216-2.775-6.216-6.216V71.266c0-3.44,2.775-6.215,6.216-6.215
		h19.757c0.666,0,1.221,0.555,1.221,1.221v6.216c0,0.666-0.555,1.221-1.221,1.221h-14.873v11.099h12.32
		c3.441,0,6.216,2.775,6.216,6.216V105.785z"/>
	<path fill="#E0DED9" d="M515.997,65.05c0.666,0,1.221,0.555,1.221,1.221v6.216c0,0.666-0.555,1.221-1.221,1.221h-7.437v29.635
		h7.437c0.666,0,1.221,0.555,1.221,1.221v6.216c0,0.666-0.555,1.221-1.221,1.221h-12.32c-3.441,0-6.215-2.775-6.215-6.215V73.708
		h-4.995c-0.666,0-1.221-0.555-1.221-1.221v-6.216c0-0.666,0.555-1.221,1.221-1.221h4.995V44.073c0-0.666,0.555-1.221,1.221-1.221
		h8.657c0.666,0,1.221,0.555,1.221,1.221V65.05H515.997z"/>
	<path fill="#E0DED9" d="M574.936,93.464c0,0.666-0.555,1.221-1.221,1.221h-19.757v8.658h12.32c0.666,0,1.221,0.555,1.221,1.221
		v6.216c0,0.666-0.555,1.221-1.221,1.221h-17.315c-3.441,0-6.216-2.775-6.216-6.215V71.266c0-3.44,2.775-6.215,6.216-6.215h19.757
		c3.44,0,6.215,2.775,6.215,6.215V93.464z M563.837,86.028v-12.32h-9.878v12.32H563.837z"/>
	<path fill="#E0DED9" d="M593.362,110.779c0,0.666-0.555,1.221-1.221,1.221h-8.657c-0.666,0-1.221-0.555-1.221-1.221V24.427
		c0-0.666,0.555-1.221,1.221-1.221h8.657c0.666,0,1.221,0.555,1.221,1.221V110.779z"/>
	<path fill="#E0DED9" d="M614.007,53.951c0,0.666-0.555,1.221-1.221,1.221h-8.657c-0.666,0-1.221-0.555-1.221-1.221v-6.216
		c0-0.666,0.555-1.221,1.221-1.221h8.657c0.666,0,1.221,0.555,1.221,1.221V53.951z M614.007,110.779
		c0,0.666-0.555,1.221-1.221,1.221h-8.657c-0.666,0-1.221-0.555-1.221-1.221V66.271c0-0.666,0.555-1.221,1.221-1.221h8.657
		c0.666,0,1.221,0.555,1.221,1.221V110.779z"/>
	<path fill="#E0DED9" d="M675.608,110.779c0,0.666-0.555,1.221-1.332,1.221h-8.546c-0.777,0-1.332-0.555-1.332-1.221V73.708h-9.878
		v37.072c0,0.666-0.555,1.221-1.221,1.221h-8.657c-0.666,0-1.221-0.555-1.221-1.221V73.708h-9.878v37.072
		c0,0.666-0.555,1.221-1.221,1.221h-8.657c-0.666,0-1.221-0.555-1.221-1.221V66.271c0-0.666,0.555-1.221,1.221-1.221h8.657
		c0.666,0,1.221,0.555,1.221,1.221v3.552c2.886-3.552,3.552-4.772,6.438-4.772h8.436c2.997,0,5.438,2.109,5.994,4.995
		c2.997-3.774,3.663-4.995,6.548-4.995h8.436c3.44,0,6.215,2.775,6.215,6.215V110.779z"/>
	<path fill="#E0DED9" d="M695.48,53.951c0,0.666-0.555,1.221-1.221,1.221h-8.657c-0.666,0-1.221-0.555-1.221-1.221v-6.216
		c0-0.666,0.555-1.221,1.221-1.221h8.657c0.666,0,1.221,0.555,1.221,1.221V53.951z M695.48,110.779c0,0.666-0.555,1.221-1.221,1.221
		h-8.657c-0.666,0-1.221-0.555-1.221-1.221V66.271c0-0.666,0.555-1.221,1.221-1.221h8.657c0.666,0,1.221,0.555,1.221,1.221V110.779z
		"/>
	<path fill="#E0DED9" d="M735.993,110.779c0,0.666-0.555,1.221-1.221,1.221h-8.657c-0.666,0-1.221-0.555-1.221-1.221V73.708h-9.878
		v37.072c0,0.666-0.555,1.221-1.221,1.221h-8.657c-0.666,0-1.221-0.555-1.221-1.221V66.271c0-0.666,0.555-1.221,1.221-1.221h8.657
		c0.666,0,1.221,0.555,1.221,1.221v3.552c2.775-3.552,3.552-4.772,6.438-4.772h8.436c3.33,0,6.104,2.775,6.104,6.215V110.779z"/>
	<path fill="#E0DED9" d="M774.953,110.779c0,0.666-0.555,1.221-1.221,1.221h-8.657c-0.666,0-1.221-0.555-1.221-1.221v-3.552
		c-2.774,3.552-3.552,4.772-6.438,4.772h-8.436c-3.33,0-6.104-2.775-6.104-6.215V88.47c0-3.33,2.775-6.104,6.104-6.104h8.436
		c2.886,0,3.663,1.221,6.438,4.772v-13.43h-12.32c-0.666,0-1.221-0.555-1.221-1.221v-6.216c0-0.666,0.444-1.221,1.221-1.221h17.204
		c3.441,0,6.216,2.775,6.216,6.215V110.779z M763.854,91.022h-9.878v12.32h9.878V91.022z"/>
	<path fill="#E0DED9" d="M805.479,65.05c0.666,0,1.221,0.555,1.221,1.221v6.216c0,0.666-0.555,1.221-1.221,1.221h-7.437v29.635
		h7.437c0.666,0,1.221,0.555,1.221,1.221v6.216c0,0.666-0.555,1.221-1.221,1.221h-12.32c-3.441,0-6.215-2.775-6.215-6.215V73.708
		h-4.995c-0.666,0-1.221-0.555-1.221-1.221v-6.216c0-0.666,0.555-1.221,1.221-1.221h4.995V44.073c0-0.666,0.555-1.221,1.221-1.221
		h8.657c0.666,0,1.221,0.555,1.221,1.221V65.05H805.479z"/>
	<path fill="#E0DED9" d="M846.215,93.464c0,0.666-0.555,1.221-1.221,1.221h-19.757v8.658h12.32c0.666,0,1.221,0.555,1.221,1.221
		v6.216c0,0.666-0.555,1.221-1.221,1.221h-17.315c-3.441,0-6.215-2.775-6.215-6.215V71.266c0-3.44,2.774-6.215,6.215-6.215H840
		c3.44,0,6.215,2.775,6.215,6.215V93.464z M835.116,86.028v-12.32h-9.878v12.32H835.116z"/>
	<path fill="#E0DED9" d="M900.381,23.206c0.666,0,1.221,0.555,1.221,1.221v86.353c0,0.666-0.555,1.221-1.221,1.221h-8.657
		c-0.666,0-1.221-0.555-1.221-1.221v-3.552c-2.775,3.552-3.552,4.772-6.438,4.772h-8.324c-3.441,0-6.216-2.775-6.216-6.215V71.266
		c0-3.33,2.775-6.104,6.216-6.104h8.324c2.886,0,3.663,1.221,6.438,4.773V24.427c0-0.666,0.555-1.221,1.221-1.221H900.381z
		 M890.503,73.819h-9.878v29.524h9.878V73.819z"/>
	<path fill="#E0DED9" d="M942.561,93.464c0,0.666-0.555,1.221-1.221,1.221h-19.757v8.658h12.32c0.666,0,1.221,0.555,1.221,1.221
		v6.216c0,0.666-0.555,1.221-1.221,1.221h-17.315c-3.441,0-6.216-2.775-6.216-6.215V71.266c0-3.44,2.775-6.215,6.216-6.215h19.757
		c3.44,0,6.215,2.775,6.215,6.215V93.464z M931.462,86.028v-12.32h-9.878v12.32H931.462z"/>
	<path fill="#E0DED9" d="M960.987,110.779c0,0.666-0.555,1.221-1.221,1.221h-8.657c-0.666,0-1.221-0.555-1.221-1.221V24.427
		c0-0.666,0.555-1.221,1.221-1.221h8.657c0.666,0,1.221,0.555,1.221,1.221V110.779z"/>
	<path fill="#E0DED9" d="M1000.611,110.779c0,0.666-0.556,1.221-1.221,1.221h-8.658c-0.666,0-1.221-0.555-1.221-1.221v-3.552
		c-2.774,3.552-3.552,4.772-6.438,4.772h-8.436c-3.33,0-6.104-2.775-6.104-6.215V88.47c0-3.33,2.775-6.104,6.104-6.104h8.436
		c2.886,0,3.663,1.221,6.438,4.772v-13.43h-12.32c-0.666,0-1.221-0.555-1.221-1.221v-6.216c0-0.666,0.444-1.221,1.221-1.221h17.204
		c3.44,0,6.216,2.775,6.216,6.215V110.779z M989.512,91.022h-9.878v12.32h9.878V91.022z"/>
	<path fill="#E0DED9" d="M1041.571,125.652c0,3.441-2.775,6.216-6.216,6.216h-12.432c-0.666,0-1.221-0.555-1.221-1.221v-6.216
		c0-0.666,0.555-1.221,1.221-1.221h7.437v-15.983c-2.774,3.663-3.552,4.883-6.438,4.883h-8.324c-3.44,0-6.216-2.774-6.216-6.215
		V66.271c0-0.666,0.556-1.221,1.221-1.221h8.658c0.666,0,1.221,0.555,1.221,1.221v37.183h9.878V66.271
		c0-0.666,0.556-1.221,1.221-1.221h8.769c0.666,0,1.222,0.555,1.222,1.221V125.652z"/>
	<path fill="#E0DED9" d="M1079.422,105.785c0,3.44-2.774,6.215-6.216,6.215h-20.978c-0.666,0-1.221-0.555-1.221-1.221v-6.216
		c0-0.666,0.555-1.221,1.221-1.221h16.094v-9.878h-12.32c-3.44,0-6.215-2.775-6.215-6.216V71.266c0-3.44,2.774-6.215,6.215-6.215
		h19.757c0.666,0,1.221,0.555,1.221,1.221v6.216c0,0.666-0.555,1.221-1.221,1.221h-14.873v11.099h12.32
		c3.441,0,6.216,2.775,6.216,6.216V105.785z"/>
	<path fill="#E0DED9" d="M1092.409,124.431c-0.333,0.777-0.998,1.11-1.887,1.11h-1.998c-0.998,0-1.442-0.555-1.109-1.443
		l3.219-12.098h-2.442c-0.665,0-1.221-0.555-1.221-1.332v-8.546c0-0.666,0.556-1.221,1.221-1.221h8.658
		c0.666,0,1.221,0.555,1.221,1.221V112L1092.409,124.431z"/>
	<path fill="#E0DED9" d="M1155.788,93.464c0,0.666-0.556,1.221-1.222,1.221h-19.756v8.658h12.319c0.666,0,1.222,0.555,1.222,1.221
		v6.216c0,0.666-0.556,1.221-1.222,1.221h-17.314c-3.44,0-6.216-2.775-6.216-6.215V71.266c0-3.44,2.775-6.215,6.216-6.215h19.757
		c3.44,0,6.216,2.775,6.216,6.215V93.464z M1144.688,86.028v-12.32h-9.878v12.32H1144.688z"/>
	<path fill="#E0DED9" d="M1186.644,65.05c3.44,0,6.215,2.775,6.215,6.215v6.105c0,0.666-0.555,1.221-1.221,1.221h-6.215
		c-0.666,0-1.222-0.555-1.222-1.221v-3.663h-9.878v37.072c0,0.666-0.555,1.221-1.221,1.221h-8.658c-0.665,0-1.221-0.555-1.221-1.221
		V66.271c0-0.666,0.556-1.221,1.221-1.221h8.658c0.666,0,1.221,0.555,1.221,1.221v3.552c2.774-3.552,3.552-4.772,6.438-4.772
		H1186.644z"/>
	<path fill="#E0DED9" d="M1221.164,65.05c3.44,0,6.215,2.775,6.215,6.215v6.105c0,0.666-0.555,1.221-1.221,1.221h-6.216
		c-0.665,0-1.221-0.555-1.221-1.221v-3.663h-9.878v37.072c0,0.666-0.555,1.221-1.221,1.221h-8.658c-0.665,0-1.221-0.555-1.221-1.221
		V66.271c0-0.666,0.556-1.221,1.221-1.221h8.658c0.666,0,1.221,0.555,1.221,1.221v3.552c2.774-3.552,3.552-4.772,6.438-4.772
		H1221.164z"/>
	<path fill="#E0DED9" d="M1264.341,105.896c0,3.33-2.775,6.104-6.216,6.104h-19.757c-3.329,0-6.104-2.775-6.104-6.104v-34.63
		c0-3.44,2.775-6.215,6.104-6.215h19.757c3.44,0,6.216,2.775,6.216,6.215V105.896z M1243.363,73.708v29.635h9.878V73.708H1243.363z"
		/>
	<path fill="#E0DED9" d="M1296.531,65.05c3.44,0,6.215,2.775,6.215,6.215v6.105c0,0.666-0.555,1.221-1.221,1.221h-6.216
		c-0.665,0-1.221-0.555-1.221-1.221v-3.663h-9.878v37.072c0,0.666-0.555,1.221-1.221,1.221h-8.658c-0.665,0-1.221-0.555-1.221-1.221
		V66.271c0-0.666,0.556-1.221,1.221-1.221h8.658c0.666,0,1.221,0.555,1.221,1.221v3.552c2.774-3.552,3.552-4.772,6.438-4.772
		H1296.531z"/>
	<path fill="#E0DED9" d="M1337.598,105.785c0,3.44-2.774,6.215-6.216,6.215h-20.978c-0.666,0-1.221-0.555-1.221-1.221v-6.216
		c0-0.666,0.555-1.221,1.221-1.221h16.094v-9.878h-12.32c-3.44,0-6.215-2.775-6.215-6.216V71.266c0-3.44,2.774-6.215,6.215-6.215
		h19.757c0.666,0,1.221,0.555,1.221,1.221v6.216c0,0.666-0.555,1.221-1.221,1.221h-14.873v11.099h12.32
		c3.441,0,6.216,2.775,6.216,6.216V105.785z"/>
	<path fill="#E0DED9" d="M1350.586,124.431c-0.333,0.777-0.999,1.11-1.887,1.11h-1.998c-0.998,0-1.442-0.555-1.109-1.443
		l3.219-12.098h-2.442c-0.665,0-1.221-0.555-1.221-1.332v-8.546c0-0.666,0.556-1.221,1.221-1.221h8.658
		c0.666,0,1.221,0.555,1.221,1.221V112L1350.586,124.431z"/>
	<path fill="#E0DED9" d="M1392.875,110.779c0,0.666-0.555,1.221-1.221,1.221h-8.658c-0.665,0-1.221-0.555-1.221-1.221V24.427
		c0-0.666,0.556-1.221,1.221-1.221h8.658c0.666,0,1.221,0.555,1.221,1.221V110.779z"/>
	<path fill="#E0DED9" d="M1434.497,105.896c0,3.33-2.775,6.104-6.216,6.104h-19.757c-3.329,0-6.104-2.775-6.104-6.104v-34.63
		c0-3.44,2.775-6.215,6.104-6.215h19.757c3.44,0,6.216,2.775,6.216,6.215V105.896z M1413.52,73.708v29.635h9.878V73.708H1413.52z"/>
	<path fill="#E0DED9" d="M1472.347,105.785c0,3.44-2.775,6.215-6.216,6.215h-20.978c-0.666,0-1.221-0.555-1.221-1.221v-6.216
		c0-0.666,0.555-1.221,1.221-1.221h16.094v-9.878h-12.32c-3.44,0-6.215-2.775-6.215-6.216V71.266c0-3.44,2.774-6.215,6.215-6.215
		h19.757c0.666,0,1.221,0.555,1.221,1.221v6.216c0,0.666-0.555,1.221-1.221,1.221h-14.873v11.099h12.32
		c3.44,0,6.216,2.775,6.216,6.216V105.785z"/>
	<path fill="#E0DED9" d="M1507.978,105.785c0,3.44-2.775,6.215-6.216,6.215h-20.978c-0.666,0-1.221-0.555-1.221-1.221v-6.216
		c0-0.666,0.555-1.221,1.221-1.221h16.094v-9.878h-12.32c-3.44,0-6.215-2.775-6.215-6.216V71.266c0-3.44,2.774-6.215,6.215-6.215
		h19.757c0.666,0,1.221,0.555,1.221,1.221v6.216c0,0.666-0.555,1.221-1.221,1.221h-14.873v11.099h12.32
		c3.44,0,6.216,2.775,6.216,6.216V105.785z"/>
	<path fill="#E0DED9" d="M1548.381,93.464c0,0.666-0.556,1.221-1.222,1.221h-19.756v8.658h12.319c0.666,0,1.222,0.555,1.222,1.221
		v6.216c0,0.666-0.556,1.221-1.222,1.221h-17.314c-3.44,0-6.216-2.775-6.216-6.215V71.266c0-3.44,2.775-6.215,6.216-6.215h19.757
		c3.44,0,6.216,2.775,6.216,6.215V93.464z M1537.281,86.028v-12.32h-9.878v12.32H1537.281z"/>
	<path fill="#E0DED9" d="M1585.12,105.785c0,3.44-2.775,6.215-6.216,6.215h-20.978c-0.666,0-1.221-0.555-1.221-1.221v-6.216
		c0-0.666,0.555-1.221,1.221-1.221h16.094v-9.878h-12.32c-3.44,0-6.215-2.775-6.215-6.216V71.266c0-3.44,2.774-6.215,6.215-6.215
		h19.757c0.666,0,1.221,0.555,1.221,1.221v6.216c0,0.666-0.555,1.221-1.221,1.221h-14.873v11.099h12.32
		c3.44,0,6.216,2.775,6.216,6.216V105.785z"/>
	<path fill="#E0DED9" d="M1598.107,124.431c-0.333,0.777-0.999,1.11-1.887,1.11h-1.998c-0.998,0-1.442-0.555-1.109-1.443
		l3.219-12.098h-2.442c-0.665,0-1.221-0.555-1.221-1.332v-8.546c0-0.666,0.556-1.221,1.221-1.221h8.658
		c0.666,0,1.221,0.555,1.221,1.221V112L1598.107,124.431z"/>
	<path fill="#E0DED9" d="M1659.155,110.779c0,0.666-0.555,1.221-1.221,1.221h-8.658c-0.666,0-1.221-0.555-1.221-1.221v-3.552
		c-2.774,3.552-3.552,4.772-6.438,4.772h-8.436c-3.329,0-6.104-2.775-6.104-6.215V88.47c0-3.33,2.775-6.104,6.104-6.104h8.436
		c2.886,0,3.663,1.221,6.438,4.772v-13.43h-12.32c-0.666,0-1.221-0.555-1.221-1.221v-6.216c0-0.666,0.444-1.221,1.221-1.221h17.204
		c3.44,0,6.216,2.775,6.216,6.215V110.779z M1648.056,91.022h-9.878v12.32h9.878V91.022z"/>
	<path fill="#E0DED9" d="M1700.004,110.779c0,0.666-0.555,1.221-1.221,1.221h-8.657c-0.666,0-1.222-0.555-1.222-1.221V73.708h-9.878
		v37.072c0,0.666-0.555,1.221-1.221,1.221h-8.658c-0.665,0-1.221-0.555-1.221-1.221V66.271c0-0.666,0.556-1.221,1.221-1.221h8.658
		c0.666,0,1.221,0.555,1.221,1.221v3.552c2.774-3.552,3.552-4.772,6.438-4.772h8.436c3.33,0,6.104,2.775,6.104,6.215V110.779z"/>
	<path fill="#E0DED9" d="M1739.631,23.206c0.666,0,1.221,0.555,1.221,1.221v86.353c0,0.666-0.555,1.221-1.221,1.221h-8.657
		c-0.666,0-1.222-0.555-1.222-1.221v-3.552c-2.774,3.552-3.552,4.772-6.438,4.772h-8.324c-3.44,0-6.216-2.775-6.216-6.215V71.266
		c0-3.33,2.775-6.104,6.216-6.104h8.324c2.886,0,3.663,1.221,6.438,4.773V24.427c0-0.666,0.556-1.221,1.222-1.221H1739.631z
		 M1729.752,73.819h-9.878v29.524h9.878V73.819z"/>
	<path fill="#E0DED9" d="M1771.709,65.05c0.999,0,1.554,0.444,1.887,1.332l7.658,27.082l7.881-27.082
		c0.333-0.888,0.888-1.332,1.775-1.332h3.552c0.889,0,1.443,0.444,1.776,1.332l7.77,27.082l7.77-27.082
		c0.333-0.888,0.888-1.332,1.775-1.332h4.884c0.999,0,1.443,0.555,1.221,1.443l-12.875,44.397c-0.111,0.777-0.666,1.11-1.442,1.11
		h-4.995c-0.888,0-1.442-0.444-1.775-1.332l-7.215-24.862l-7.215,24.862c-0.11,0.888-0.776,1.332-1.665,1.332h-4.994
		c-0.777,0-1.221-0.333-1.443-1.11l-12.875-44.397c-0.222-0.888,0.223-1.443,1.221-1.443H1771.709z"/>
	<path fill="#E0DED9" d="M1852.958,110.779c0,0.666-0.555,1.221-1.221,1.221h-8.658c-0.666,0-1.221-0.555-1.221-1.221v-3.552
		c-2.774,3.552-3.552,4.772-6.438,4.772h-8.436c-3.329,0-6.104-2.775-6.104-6.215V88.47c0-3.33,2.775-6.104,6.104-6.104h8.436
		c2.886,0,3.663,1.221,6.438,4.772v-13.43h-12.32c-0.666,0-1.221-0.555-1.221-1.221v-6.216c0-0.666,0.444-1.221,1.221-1.221h17.204
		c3.44,0,6.216,2.775,6.216,6.215V110.779z M1841.858,91.022h-9.878v12.32h9.878V91.022z"/>
	<path fill="#E0DED9" d="M1890.809,105.785c0,3.44-2.774,6.215-6.216,6.215h-20.978c-0.666,0-1.221-0.555-1.221-1.221v-6.216
		c0-0.666,0.555-1.221,1.221-1.221h16.094v-9.878h-12.32c-3.44,0-6.215-2.775-6.215-6.216V71.266c0-3.44,2.774-6.215,6.215-6.215
		h19.757c0.666,0,1.221,0.555,1.221,1.221v6.216c0,0.666-0.555,1.221-1.221,1.221h-14.873v11.099h12.32
		c3.441,0,6.216,2.775,6.216,6.216V105.785z"/>
	<path fill="#E0DED9" d="M1918.448,65.05c0.666,0,1.221,0.555,1.221,1.221v6.216c0,0.666-0.555,1.221-1.221,1.221h-7.437v29.635
		h7.437c0.666,0,1.221,0.555,1.221,1.221v6.216c0,0.666-0.555,1.221-1.221,1.221h-12.32c-3.44,0-6.216-2.775-6.216-6.215V73.708
		h-4.994c-0.666,0-1.221-0.555-1.221-1.221v-6.216c0-0.666,0.555-1.221,1.221-1.221h4.994V44.073c0-0.666,0.556-1.221,1.222-1.221
		h8.657c0.666,0,1.221,0.555,1.221,1.221V65.05H1918.448z"/>
	<path fill="#E0DED9" d="M1959.186,93.464c0,0.666-0.556,1.221-1.222,1.221h-19.756v8.658h12.319c0.666,0,1.222,0.555,1.222,1.221
		v6.216c0,0.666-0.556,1.221-1.222,1.221h-17.314c-3.44,0-6.216-2.775-6.216-6.215V71.266c0-3.44,2.775-6.215,6.216-6.215h19.757
		c3.44,0,6.216,2.775,6.216,6.215V93.464z M1948.086,86.028v-12.32h-9.878v12.32H1948.086z"/>
</g>
<g>
	<path fill="#E0DED9" d="M77.835,588.872c0.972,0,1.782,0.81,1.782,1.782v9.072c0,0.972-0.81,1.781-1.782,1.781H63.417v102.71
		c0,0.972-0.81,1.782-1.782,1.782H47.217c-0.972,0-1.782-0.811-1.782-1.782v-102.71H31.016c-0.972,0-1.782-0.81-1.782-1.781v-9.072
		c0-0.973,0.81-1.782,1.782-1.782H77.835z"/>
	<path fill="#E0DED9" d="M123.519,697.09c0,4.859-4.05,8.91-9.072,8.91H85.61c-4.86,0-8.91-4.051-8.91-8.91v-50.545
		c0-5.021,4.05-9.072,8.91-9.072h28.836c5.022,0,9.072,4.051,9.072,9.072V697.09z M92.9,650.109v43.254h14.418v-43.254H92.9z"/>
	<path fill="#E0DED9" d="M176.976,621.272c0,0.972-0.81,1.782-1.782,1.782h-12.636c-0.972,0-1.782-0.811-1.782-1.782v-9.071
		c0-0.973,0.81-1.783,1.782-1.783h12.636c0.972,0,1.782,0.811,1.782,1.783V621.272z M176.976,704.218
		c0,0.972-0.81,1.782-1.782,1.782h-12.636c-0.972,0-1.782-0.811-1.782-1.782v-64.963c0-0.972,0.81-1.782,1.782-1.782h12.636
		c0.972,0,1.782,0.811,1.782,1.782V704.218z"/>
	<path fill="#E0DED9" d="M236.268,725.926c0,5.022-4.05,9.072-9.072,9.072h-17.982c-0.972,0-1.782-0.81-1.782-1.781v-9.072
		c0-0.973,0.81-1.782,1.782-1.782h10.854v-23.49c-4.212,5.346-5.184,7.128-9.396,7.128h-12.312c-5.022,0-9.072-4.051-9.072-9.072
		v-50.383c0-5.021,4.05-9.072,9.072-9.072h12.312c4.212,0,5.184,1.782,9.396,6.967v-5.185c0-0.972,0.81-1.782,1.782-1.782h12.636
		c0.972,0,1.782,0.811,1.782,1.782V725.926z M220.067,650.109h-14.418v43.254h14.418V650.109z"/>
	<path fill="#E0DED9" d="M295.884,704.218c0,0.972-0.81,1.782-1.782,1.782h-12.636c-0.972,0-1.782-0.811-1.782-1.782v-54.108
		h-14.418v54.108c0,0.972-0.81,1.782-1.782,1.782h-12.636c-0.972,0-1.782-0.811-1.782-1.782v-64.963c0-0.972,0.81-1.782,1.782-1.782
		h12.636c0.972,0,1.782,0.811,1.782,1.782v5.185c4.05-5.185,5.184-6.967,9.396-6.967h12.312c4.86,0,8.91,4.051,8.91,9.072V704.218z"
		/>
	<path fill="#E0DED9" d="M355.5,697.09c0,4.859-4.05,8.91-9.072,8.91h-28.836c-4.86,0-8.91-4.051-8.91-8.91v-50.545
		c0-5.021,4.05-9.072,8.91-9.072h28.836c5.022,0,9.072,4.051,9.072,9.072V697.09z M324.881,650.109v43.254h14.418v-43.254H324.881z"
		/>
	<path fill="#E0DED9" d="M402.479,637.473c5.022,0,9.072,4.051,9.072,9.072v8.91c0,0.973-0.81,1.782-1.782,1.782h-9.072
		c-0.972,0-1.782-0.81-1.782-1.782v-5.346h-14.418v54.108c0,0.972-0.81,1.782-1.782,1.782h-12.636c-0.972,0-1.782-0.811-1.782-1.782
		v-64.963c0-0.972,0.81-1.782,1.782-1.782h12.636c0.972,0,1.782,0.811,1.782,1.782v5.185c4.05-5.185,5.184-6.967,9.396-6.967
		H402.479z"/>
	<path fill="#E0DED9" d="M465.657,678.945c0,0.973-0.81,1.782-1.782,1.782h-28.836v12.636h17.982c0.972,0,1.782,0.811,1.782,1.783
		v9.071c0,0.972-0.81,1.782-1.782,1.782h-25.272c-5.022,0-9.072-4.051-9.072-9.072v-50.383c0-5.021,4.05-9.072,9.072-9.072h28.836
		c5.022,0,9.072,4.051,9.072,9.072V678.945z M449.457,668.092v-17.982h-14.418v17.982H449.457z"/>
	<path fill="#E0DED9" d="M577.273,704.218c0,0.972-0.81,1.782-1.944,1.782h-12.474c-1.134,0-1.944-0.811-1.944-1.782v-54.108
		h-14.418v54.108c0,0.972-0.81,1.782-1.782,1.782h-12.636c-0.972,0-1.782-0.811-1.782-1.782v-54.108h-14.418v54.108
		c0,0.972-0.81,1.782-1.782,1.782h-12.636c-0.972,0-1.782-0.811-1.782-1.782v-64.963c0-0.972,0.81-1.782,1.782-1.782h12.636
		c0.972,0,1.782,0.811,1.782,1.782v5.185c4.212-5.185,5.184-6.967,9.396-6.967h12.312c4.374,0,7.938,3.078,8.748,7.291
		c4.374-5.509,5.346-7.291,9.558-7.291h12.312c5.022,0,9.072,4.051,9.072,9.072V704.218z"/>
	<path fill="#E0DED9" d="M636.888,697.09c0,4.859-4.05,8.91-9.072,8.91h-28.836c-4.86,0-8.91-4.051-8.91-8.91v-50.545
		c0-5.021,4.05-9.072,8.91-9.072h28.836c5.022,0,9.072,4.051,9.072,9.072V697.09z M606.27,650.109v43.254h14.418v-43.254H606.27z"/>
	<path fill="#E0DED9" d="M694.722,576.398c0.972,0,1.782,0.81,1.782,1.781v126.038c0,0.972-0.81,1.782-1.782,1.782h-12.636
		c-0.972,0-1.782-0.811-1.782-1.782v-5.185c-4.05,5.185-5.184,6.967-9.396,6.967h-12.15c-5.022,0-9.072-4.051-9.072-9.072v-50.383
		c0-4.859,4.05-8.91,9.072-8.91h12.15c4.212,0,5.346,1.782,9.396,6.967V578.18c0-0.972,0.81-1.781,1.782-1.781H694.722z
		 M680.304,650.271h-14.418v43.092h14.418V650.271z"/>
	<path fill="#E0DED9" d="M756.281,678.945c0,0.973-0.81,1.782-1.782,1.782h-28.836v12.636h17.982c0.972,0,1.782,0.811,1.782,1.783
		v9.071c0,0.972-0.81,1.782-1.782,1.782h-25.272c-5.022,0-9.072-4.051-9.072-9.072v-50.383c0-5.021,4.05-9.072,9.072-9.072h28.836
		c5.022,0,9.072,4.051,9.072,9.072V678.945z M740.081,668.092v-17.982h-14.418v17.982H740.081z"/>
	<path fill="#E0DED9" d="M801.313,637.473c5.022,0,9.072,4.051,9.072,9.072v8.91c0,0.973-0.81,1.782-1.782,1.782h-9.072
		c-0.972,0-1.782-0.81-1.782-1.782v-5.346h-14.418v54.108c0,0.972-0.81,1.782-1.782,1.782h-12.636c-0.972,0-1.782-0.811-1.782-1.782
		v-64.963c0-0.972,0.81-1.782,1.782-1.782h12.636c0.972,0,1.782,0.811,1.782,1.782v5.185c4.05-5.185,5.184-6.967,9.396-6.967
		H801.313z"/>
	<path fill="#E0DED9" d="M864.33,704.218c0,0.972-0.81,1.782-1.782,1.782h-12.636c-0.972,0-1.782-0.811-1.782-1.782v-54.108h-14.418
		v54.108c0,0.972-0.81,1.782-1.782,1.782h-12.636c-0.972,0-1.782-0.811-1.782-1.782v-64.963c0-0.972,0.81-1.782,1.782-1.782h12.636
		c0.972,0,1.782,0.811,1.782,1.782v5.185c4.05-5.185,5.184-6.967,9.396-6.967h12.312c4.86,0,8.91,4.051,8.91,9.072V704.218z"/>
	<path fill="#E0DED9" d="M979.186,704.218c0,0.972-0.81,1.782-1.944,1.782h-12.474c-1.134,0-1.944-0.811-1.944-1.782v-54.108
		h-14.418v54.108c0,0.972-0.81,1.782-1.782,1.782h-12.636c-0.972,0-1.782-0.811-1.782-1.782v-54.108h-14.418v54.108
		c0,0.972-0.81,1.782-1.782,1.782h-12.636c-0.972,0-1.782-0.811-1.782-1.782v-64.963c0-0.972,0.81-1.782,1.782-1.782h12.636
		c0.972,0,1.782,0.811,1.782,1.782v5.185c4.212-5.185,5.184-6.967,9.396-6.967h12.312c4.374,0,7.938,3.078,8.748,7.291
		c4.374-5.509,5.346-7.291,9.558-7.291h12.312c5.022,0,9.072,4.051,9.072,9.072V704.218z"/>
	<path fill="#E0DED9" d="M1038.963,678.945c0,0.973-0.811,1.782-1.782,1.782h-28.836v12.636h17.981c0.973,0,1.782,0.811,1.782,1.783
		v9.071c0,0.972-0.81,1.782-1.782,1.782h-25.272c-5.021,0-9.071-4.051-9.071-9.072v-50.383c0-5.021,4.05-9.072,9.071-9.072h28.837
		c5.022,0,9.072,4.051,9.072,9.072V678.945z M1022.763,668.092v-17.982h-14.418v17.982H1022.763z"/>
	<path fill="#E0DED9" d="M1083.833,637.473c0.972,0,1.781,0.811,1.781,1.782v9.072c0,0.972-0.81,1.782-1.781,1.782h-10.854v43.254
		h10.854c0.972,0,1.781,0.811,1.781,1.783v9.071c0,0.972-0.81,1.782-1.781,1.782h-17.982c-5.022,0-9.072-4.051-9.072-9.072v-46.818
		h-7.29c-0.973,0-1.782-0.811-1.782-1.782v-9.072c0-0.972,0.81-1.782,1.782-1.782h7.29v-30.618c0-0.972,0.81-1.782,1.782-1.782
		h12.636c0.972,0,1.782,0.811,1.782,1.782v30.618H1083.833z"/>
	<path fill="#E0DED9" d="M1143.45,704.218c0,0.972-0.81,1.782-1.782,1.782h-12.636c-0.973,0-1.782-0.811-1.782-1.782v-53.946
		h-14.418v53.946c0,0.972-0.811,1.782-1.782,1.782h-12.637c-0.972,0-1.781-0.811-1.781-1.782V578.18c0-0.972,0.81-1.781,1.781-1.781
		h12.637c0.972,0,1.782,0.81,1.782,1.781v66.422c4.05-5.185,5.184-6.967,9.396-6.967h12.15c5.022,0,9.072,4.051,9.072,8.91V704.218z
		"/>
	<path fill="#E0DED9" d="M1203.065,697.09c0,4.859-4.05,8.91-9.072,8.91h-28.836c-4.86,0-8.91-4.051-8.91-8.91v-50.545
		c0-5.021,4.05-9.072,8.91-9.072h28.836c5.022,0,9.072,4.051,9.072,9.072V697.09z M1172.447,650.109v43.254h14.418v-43.254H1172.447
		z"/>
	<path fill="#E0DED9" d="M1260.898,576.398c0.973,0,1.782,0.81,1.782,1.781v126.038c0,0.972-0.81,1.782-1.782,1.782h-12.636
		c-0.973,0-1.782-0.811-1.782-1.782v-5.185c-4.05,5.185-5.185,6.967-9.396,6.967h-12.149c-5.022,0-9.072-4.051-9.072-9.072v-50.383
		c0-4.859,4.05-8.91,9.072-8.91h12.149c4.212,0,5.347,1.782,9.396,6.967V578.18c0-0.972,0.81-1.781,1.782-1.781H1260.898z
		 M1246.48,650.271h-14.418v43.092h14.418V650.271z"/>
	<path fill="#E0DED9" d="M1317.921,696.928c0,5.021-4.051,9.072-9.072,9.072h-30.619c-0.972,0-1.781-0.811-1.781-1.782v-9.071
		c0-0.973,0.81-1.783,1.781-1.783h23.49v-14.418h-17.981c-5.022,0-9.072-4.05-9.072-9.072v-23.328c0-5.021,4.05-9.072,9.072-9.072
		h28.836c0.972,0,1.782,0.811,1.782,1.782v9.072c0,0.972-0.811,1.782-1.782,1.782h-21.708v16.2h17.982
		c5.021,0,9.072,4.05,9.072,9.071V696.928z"/>
	<path fill="#E0DED9" d="M1397.137,704.218c0,0.972-0.81,1.782-1.782,1.782h-12.636c-0.972,0-1.782-0.811-1.782-1.782v-5.185
		c-4.05,5.185-5.184,6.967-9.396,6.967h-12.312c-4.86,0-8.91-4.051-8.91-9.072v-25.272c0-4.86,4.05-8.91,8.91-8.91h12.312
		c4.213,0,5.347,1.782,9.396,6.966v-19.602h-17.982c-0.972,0-1.782-0.811-1.782-1.782v-9.072c0-0.972,0.648-1.782,1.782-1.782h25.11
		c5.022,0,9.072,4.051,9.072,9.072V704.218z M1380.937,675.381h-14.418v17.982h14.418V675.381z"/>
	<path fill="#E0DED9" d="M1456.754,704.218c0,0.972-0.81,1.782-1.782,1.782h-12.636c-0.973,0-1.782-0.811-1.782-1.782v-54.108
		h-14.418v54.108c0,0.972-0.811,1.782-1.782,1.782h-12.637c-0.972,0-1.781-0.811-1.781-1.782v-64.963
		c0-0.972,0.81-1.782,1.781-1.782h12.637c0.972,0,1.782,0.811,1.782,1.782v5.185c4.05-5.185,5.184-6.967,9.396-6.967h12.312
		c4.86,0,8.91,4.051,8.91,9.072V704.218z"/>
	<path fill="#E0DED9" d="M1516.531,725.926c0,5.022-4.05,9.072-9.072,9.072h-18.145c-0.972,0-1.782-0.81-1.782-1.781v-9.072
		c0-0.973,0.811-1.782,1.782-1.782h10.854v-23.329c-4.05,5.347-5.185,7.129-9.396,7.129h-12.15c-5.021,0-9.071-4.051-9.071-9.072
		v-57.835c0-0.972,0.81-1.782,1.781-1.782h12.637c0.972,0,1.782,0.811,1.782,1.782v54.271h14.418v-54.271
		c0-0.972,0.81-1.782,1.782-1.782h12.798c0.972,0,1.782,0.811,1.782,1.782V725.926z"/>
	<path fill="#E0DED9" d="M1569.989,704.218c0,0.972-0.811,1.782-1.782,1.782h-12.637c-0.972,0-1.781-0.811-1.781-1.782V578.18
		c0-0.972,0.81-1.781,1.781-1.781h12.637c0.972,0,1.782,0.81,1.782,1.781V704.218z"/>
	<path fill="#E0DED9" d="M1630.738,697.09c0,4.859-4.05,8.91-9.072,8.91h-28.836c-4.86,0-8.91-4.051-8.91-8.91v-50.545
		c0-5.021,4.05-9.072,8.91-9.072h28.836c5.022,0,9.072,4.051,9.072,9.072V697.09z M1600.12,650.109v43.254h14.418v-43.254H1600.12z"
		/>
	<path fill="#E0DED9" d="M1690.354,704.218c0,0.972-0.81,1.782-1.782,1.782h-12.636c-0.973,0-1.782-0.811-1.782-1.782v-54.108
		h-14.418v54.108c0,0.972-0.811,1.782-1.782,1.782h-12.637c-0.972,0-1.781-0.811-1.781-1.782v-64.963
		c0-0.972,0.81-1.782,1.781-1.782h12.637c0.972,0,1.782,0.811,1.782,1.782v5.185c4.05-5.185,5.184-6.967,9.396-6.967h12.312
		c4.86,0,8.91,4.051,8.91,9.072V704.218z"/>
	<path fill="#E0DED9" d="M1750.131,725.926c0,5.022-4.05,9.072-9.072,9.072h-17.982c-0.972,0-1.782-0.81-1.782-1.781v-9.072
		c0-0.973,0.811-1.782,1.782-1.782h10.854v-23.49c-4.212,5.346-5.185,7.128-9.396,7.128h-12.312c-5.021,0-9.071-4.051-9.071-9.072
		v-50.383c0-5.021,4.05-9.072,9.071-9.072h12.312c4.212,0,5.185,1.782,9.396,6.967v-5.185c0-0.972,0.81-1.782,1.782-1.782h12.636
		c0.972,0,1.782,0.811,1.782,1.782V725.926z M1733.931,650.109h-14.418v43.254h14.418V650.109z"/>
	<path fill="#E0DED9" d="M1809.909,678.945c0,0.973-0.811,1.782-1.782,1.782h-28.836v12.636h17.981c0.973,0,1.782,0.811,1.782,1.783
		v9.071c0,0.972-0.81,1.782-1.782,1.782h-25.271c-5.022,0-9.072-4.051-9.072-9.072v-50.383c0-5.021,4.05-9.072,9.072-9.072h28.836
		c5.022,0,9.072,4.051,9.072,9.072V678.945z M1793.709,668.092v-17.982h-14.418v17.982H1793.709z"/>
	<path fill="#E0DED9" d="M1854.942,637.473c5.021,0,9.071,4.051,9.071,9.072v8.91c0,0.973-0.81,1.782-1.781,1.782h-9.072
		c-0.973,0-1.782-0.81-1.782-1.782v-5.346h-14.418v54.108c0,0.972-0.811,1.782-1.782,1.782h-12.637
		c-0.972,0-1.781-0.811-1.781-1.782v-64.963c0-0.972,0.81-1.782,1.781-1.782h12.637c0.972,0,1.782,0.811,1.782,1.782v5.185
		c4.05-5.185,5.184-6.967,9.396-6.967H1854.942z"/>
	<path fill="#E0DED9" d="M1912.61,621.272c0,0.972-0.811,1.782-1.782,1.782h-12.637c-0.972,0-1.781-0.811-1.781-1.782v-9.071
		c0-0.973,0.81-1.783,1.781-1.783h12.637c0.972,0,1.782,0.811,1.782,1.783V621.272z M1912.61,704.218
		c0,0.972-0.811,1.782-1.782,1.782h-12.637c-0.972,0-1.781-0.811-1.781-1.782v-64.963c0-0.972,0.81-1.782,1.781-1.782h12.637
		c0.972,0,1.782,0.811,1.782,1.782V704.218z"/>
	<path fill="#E0DED9" d="M1967.527,696.928c0,5.021-4.051,9.072-9.072,9.072h-30.619c-0.972,0-1.781-0.811-1.781-1.782v-9.071
		c0-0.973,0.81-1.783,1.781-1.783h23.49v-14.418h-17.981c-5.022,0-9.072-4.05-9.072-9.072v-23.328c0-5.021,4.05-9.072,9.072-9.072
		h28.836c0.972,0,1.782,0.811,1.782,1.782v9.072c0,0.972-0.811,1.782-1.782,1.782h-21.708v16.2h17.982
		c5.021,0,9.072,4.05,9.072,9.071V696.928z"/>
</g>
<g>
	<path fill="#E56525" d="M118.132,757.607c9.021,0,16.005,7.274,16.005,16.295v177.802c0,9.021-6.984,16.296-16.005,16.296H40.435
		c-1.746,0-3.201-1.455-3.201-3.201V760.808c0-1.746,1.455-3.2,3.201-3.2h25.899c1.746,0,3.201,1.454,3.201,3.2v9.312
		c7.275-9.312,9.312-12.512,16.878-12.512H118.132z M69.535,945.302h32.301V780.305H69.535V945.302z"/>
	<path fill="#E56525" d="M238.025,757.607c9.021,0,16.005,7.274,16.005,16.295v190.896c0,1.746-1.455,3.201-3.201,3.201H224.93
		c-1.746,0-3.201-1.455-3.201-3.201v-74.496h-32.301v74.496c0,1.746-1.455,3.201-3.201,3.201h-25.899
		c-1.746,0-3.201-1.455-3.201-3.201V760.808c0-1.746,1.455-3.2,3.201-3.2h25.899c1.746,0,3.201,1.454,3.201,3.2v9.312
		c7.275-9.312,9.312-12.512,16.878-12.512H238.025z M221.729,780.305h-32.301v87.301h32.301V780.305z"/>
	<path fill="#E56525" d="M374.214,964.799c0,1.746-1.455,3.201-3.201,3.201h-34.047c-2.037,0-3.492-0.873-3.783-2.91
		l-30.555-131.823c-2.037-8.438-2.328-23.28-2.328-23.28h-0.582v154.812c0,1.746-1.455,3.201-3.201,3.201h-16.005
		c-2.037,0-3.492-1.455-3.492-3.201V760.808c0-1.746,1.455-3.2,3.492-3.2h34.629c2.037,0,3.492,0.873,3.783,2.909l29.682,128.331
		c1.455,6.111,2.328,25.608,2.328,25.608h0.582V760.808c0-1.746,1.455-3.2,3.201-3.2h16.296c1.746,0,3.201,1.454,3.201,3.2V964.799z
		"/>
	<path fill="#E56525" d="M490.903,854.801c1.746,0,3.201,1.455,3.201,3.201v106.797c0,1.746-1.455,3.201-3.201,3.201h-25.899
		c-1.746,0-3.201-1.455-3.201-3.201v-9.312c-7.275,9.312-9.312,12.514-16.878,12.514h-31.719c-8.73,0-16.005-7.275-16.005-16.296
		V773.902c0-9.021,7.275-16.295,16.005-16.295h71.295c1.746,0,3.201,1.454,3.201,3.2v16.296c0,1.746-1.455,3.201-3.201,3.201
		h-54.999v164.997h32.301v-67.803h-12.804c-1.746,0-3.201-1.455-3.201-3.492v-16.005c0-1.746,1.455-3.201,3.201-3.201H490.903z"/>
	<path fill="#E56525" d="M549.395,867.605h22.698c1.746,0,3.201,1.455,3.201,3.2v16.296c0,1.746-1.455,3.201-3.201,3.201h-22.698
		v54.999h41.904c2.037,0,3.492,1.455,3.492,3.201v16.296c0,1.746-1.455,3.201-3.492,3.201h-71.004c-1.746,0-3.201-1.455-3.201-3.201
		V760.808c0-1.746,1.455-3.2,3.201-3.2h71.004c2.037,0,3.492,1.454,3.492,3.2v16.296c0,1.746-1.455,3.201-3.492,3.201h-41.904
		V867.605z"/>
	<path fill="#E56525" d="M647.166,964.799c0,1.746-1.455,3.201-3.201,3.201h-25.899c-1.746,0-3.201-1.455-3.201-3.201V760.808
		c0-1.746,1.455-3.2,3.201-3.2h25.899c1.746,0,3.201,1.454,3.201,3.2v9.312c7.566-9.312,9.312-12.512,16.878-12.512h31.719
		c9.021,0,16.296,7.274,16.296,16.295v100.104c0,9.021-7.275,16.296-16.296,16.296h-5.238l23.571,73.623
		c0.582,2.619-0.582,4.074-2.91,4.074h-25.317c-2.619,0-4.074-1.164-4.947-3.492l-23.571-74.205h-10.185V964.799z M647.166,867.605
		h32.301v-87.301h-32.301V867.605z"/>
	<path fill="#E56525" d="M833.697,951.704c0,9.021-7.275,16.296-16.296,16.296h-64.602c-9.021,0-16.296-7.275-16.296-16.296V773.902
		c0-9.021,7.275-16.295,16.296-16.295h64.602c9.021,0,16.296,7.274,16.296,16.295V951.704z M768.804,780.305v164.997h32.301V780.305
		H768.804z"/>
	<path fill="#E56525" d="M953.587,951.704c0,9.021-6.984,16.296-16.005,16.296h-64.893c-8.73,0-16.005-7.275-16.005-16.296V760.808
		c0-1.746,1.455-3.2,3.201-3.2h25.899c1.746,0,3.201,1.454,3.201,3.2v184.494h32.301V760.808c0-1.746,1.455-3.2,3.201-3.2h25.899
		c1.746,0,3.201,1.454,3.201,3.2V951.704z"/>
	<path fill="#E56525" d="M1067.078,951.704c0,9.021-7.275,16.296-16.005,16.296h-68.094c-1.746,0-3.201-1.455-3.201-3.201v-16.296
		c0-1.746,1.455-3.201,3.201-3.201h51.798V877.79h-42.195c-8.73,0-16.005-7.275-16.005-16.296v-87.592
		c0-9.021,7.275-16.295,16.005-16.295h68.094c1.746,0,3.201,1.454,3.201,3.2v16.296c0,1.746-1.455,3.201-3.201,3.201h-51.798v68.094
		l42.195-0.291c8.729,0,16.005,7.275,16.005,16.297V951.704z"/>
	<path fill="#E56525" d="M1230.906,951.704c0,9.021-6.982,16.296-16.004,16.296h-77.697c-1.746,0-3.201-1.455-3.201-3.201V760.808
		c0-1.746,1.455-3.2,3.201-3.2h25.898c1.746,0,3.201,1.454,3.201,3.2v9.312c7.275-9.312,9.312-12.512,16.879-12.512h31.719
		c9.021,0,16.004,7.274,16.004,16.295v80.025c0,7.566-3.201,9.604-12.512,16.878c9.311,7.566,12.512,9.312,12.512,16.878V951.704z
		 M1166.305,867.605h32.301v-87.301h-32.301V867.605z M1166.305,890.303v54.999h32.301v-54.999H1166.305z"/>
	<path fill="#E56525" d="M1350.799,951.704c0,9.021-6.982,16.296-16.004,16.296h-64.893c-8.73,0-16.006-7.275-16.006-16.296V760.808
		c0-1.746,1.455-3.2,3.201-3.2h25.898c1.746,0,3.201,1.454,3.201,3.2v184.494h32.301V760.808c0-1.746,1.455-3.2,3.201-3.2h25.898
		c1.746,0,3.201,1.454,3.201,3.2V951.704z"/>
	<path fill="#E56525" d="M1464.291,951.704c0,9.021-7.275,16.296-16.006,16.296h-68.094c-1.746,0-3.201-1.455-3.201-3.201v-16.296
		c0-1.746,1.455-3.201,3.201-3.201h51.797V877.79h-42.193c-8.73,0-16.006-7.275-16.006-16.296v-87.592
		c0-9.021,7.275-16.295,16.006-16.295h68.094c1.746,0,3.201,1.454,3.201,3.2v16.296c0,1.746-1.455,3.201-3.201,3.201h-51.799v68.094
		l42.195-0.291c8.73,0,16.006,7.275,16.006,16.297V951.704z"/>
	<path fill="#E56525" d="M1517.832,757.607c1.746,0,3.201,1.454,3.201,3.2v203.991c0,1.746-1.455,3.201-3.201,3.201h-25.898
		c-1.746,0-3.201-1.455-3.201-3.201V760.808c0-1.746,1.455-3.2,3.201-3.2H1517.832z"/>
	<path fill="#E56525" d="M1642.383,964.799c0,1.746-1.455,3.201-3.201,3.201h-34.047c-2.037,0-3.492-0.873-3.783-2.91
		l-30.555-131.823c-2.037-8.438-2.328-23.28-2.328-23.28h-0.582v154.812c0,1.746-1.455,3.201-3.201,3.201h-16.004
		c-2.037,0-3.492-1.455-3.492-3.201V760.808c0-1.746,1.455-3.2,3.492-3.2h34.629c2.037,0,3.492,0.873,3.783,2.909l29.682,128.331
		c1.455,6.111,2.328,25.608,2.328,25.608h0.582V760.808c0-1.746,1.455-3.2,3.201-3.2h16.295c1.746,0,3.201,1.454,3.201,3.2V964.799z
		"/>
	<path fill="#E56525" d="M1697.672,867.605h22.697c1.746,0,3.201,1.455,3.201,3.2v16.296c0,1.746-1.455,3.201-3.201,3.201h-22.697
		v54.999h41.904c2.037,0,3.492,1.455,3.492,3.201v16.296c0,1.746-1.455,3.201-3.492,3.201h-71.004c-1.746,0-3.201-1.455-3.201-3.201
		V760.808c0-1.746,1.455-3.2,3.201-3.2h71.004c2.037,0,3.492,1.454,3.492,3.2v16.296c0,1.746-1.455,3.201-3.492,3.201h-41.904
		V867.605z"/>
	<path fill="#E56525" d="M1853.643,951.704c0,9.021-7.275,16.296-16.006,16.296h-68.094c-1.746,0-3.201-1.455-3.201-3.201v-16.296
		c0-1.746,1.455-3.201,3.201-3.201h51.799V877.79h-42.195c-8.73,0-16.006-7.275-16.006-16.296v-87.592
		c0-9.021,7.275-16.295,16.006-16.295h68.094c1.746,0,3.201,1.454,3.201,3.2v16.296c0,1.746-1.455,3.201-3.201,3.201h-51.797v68.094
		l42.193-0.291c8.73,0,16.006,7.275,16.006,16.297V951.704z"/>
	<path fill="#E56525" d="M1962.768,951.704c0,9.021-7.275,16.296-16.006,16.296h-68.094c-1.746,0-3.201-1.455-3.201-3.201v-16.296
		c0-1.746,1.455-3.201,3.201-3.201h51.799V877.79h-42.195c-8.73,0-16.006-7.275-16.006-16.296v-87.592
		c0-9.021,7.275-16.295,16.006-16.295h68.094c1.746,0,3.201,1.454,3.201,3.2v16.296c0,1.746-1.455,3.201-3.201,3.201h-51.797v68.094
		l42.193-0.291c8.73,0,16.006,7.275,16.006,16.297V951.704z"/>
</g>
<g>
	<path fill="#E56525" d="M99.449,349.321c6.976,0,12.375,5.625,12.375,12.6v147.604c0,1.35-1.125,2.475-2.475,2.475H89.324
		c-1.35,0-2.475-1.125-2.475-2.475v-57.602H61.873v57.602c0,1.35-1.125,2.475-2.475,2.475H39.372c-1.35,0-2.475-1.125-2.475-2.475
		V351.796c0-1.35,1.125-2.475,2.475-2.475h20.026c1.35,0,2.475,1.125,2.475,2.475v7.2c5.625-7.2,7.2-9.675,13.05-9.675H99.449z
		 M86.849,366.871H61.873v67.502h24.976V366.871z"/>
	<path fill="#E56525" d="M192.149,331.995c1.35,0,2.475,1.125,2.475,2.475v175.055c0,1.35-1.125,2.475-2.475,2.475h-17.55
		c-1.35,0-2.475-1.125-2.475-2.475v-7.201c-5.625,7.201-7.2,9.676-13.05,9.676h-16.875c-6.975,0-12.6-5.625-12.6-12.601v-69.977
		c0-6.75,5.625-12.375,12.6-12.375h16.875c5.85,0,7.425,2.475,13.05,9.675V334.47c0-1.35,1.125-2.475,2.475-2.475H192.149z
		 M172.124,434.598h-20.025v59.852h20.025V434.598z"/>
	<path fill="#E56525" d="M274.948,331.995c1.35,0,2.475,1.125,2.475,2.475v175.055c0,1.35-1.125,2.475-2.475,2.475h-17.55
		c-1.35,0-2.475-1.125-2.475-2.475v-7.201c-5.625,7.201-7.2,9.676-13.05,9.676h-16.875c-6.975,0-12.6-5.625-12.6-12.601v-69.977
		c0-6.75,5.625-12.375,12.6-12.375h16.875c5.85,0,7.425,2.475,13.05,9.675V334.47c0-1.35,1.125-2.475,2.475-2.475H274.948z
		 M254.923,434.598h-20.025v59.852h20.025V434.598z"/>
	<path fill="#E56525" d="M342.672,416.822c6.975,0,12.6,5.625,12.6,12.601v12.375c0,1.35-1.125,2.475-2.475,2.475h-12.6
		c-1.35,0-2.475-1.125-2.475-2.475v-7.425h-20.025v75.152c0,1.35-1.125,2.475-2.475,2.475h-17.551c-1.35,0-2.475-1.125-2.475-2.475
		v-90.228c0-1.35,1.125-2.475,2.475-2.475h17.551c1.35,0,2.475,1.125,2.475,2.475v7.2c5.625-7.2,7.2-9.675,13.05-9.675H342.672z"/>
	<path fill="#E56525" d="M430.42,474.424c0,1.35-1.125,2.475-2.475,2.475h-40.051v17.551h24.976c1.35,0,2.475,1.125,2.475,2.475
		v12.601c0,1.35-1.125,2.475-2.475,2.475h-35.101c-6.975,0-12.601-5.625-12.601-12.601v-69.977c0-6.975,5.625-12.601,12.601-12.601
		h40.051c6.975,0,12.6,5.625,12.6,12.601V474.424z M407.92,459.349v-24.976h-20.025v24.976H407.92z"/>
	<path fill="#E56525" d="M504.891,499.399c0,6.976-5.625,12.601-12.6,12.601h-42.526c-1.35,0-2.475-1.125-2.475-2.475v-12.601
		c0-1.35,1.125-2.475,2.475-2.475h32.626v-20.026h-24.976c-6.975,0-12.601-5.625-12.601-12.6v-32.401
		c0-6.975,5.625-12.601,12.601-12.601h40.051c1.35,0,2.475,1.125,2.475,2.475v12.601c0,1.35-1.125,2.475-2.475,2.475h-30.151v22.5
		h24.976c6.975,0,12.6,5.625,12.6,12.6V499.399z"/>
	<path fill="#E56525" d="M577.116,499.399c0,6.976-5.625,12.601-12.6,12.601H521.99c-1.35,0-2.475-1.125-2.475-2.475v-12.601
		c0-1.35,1.125-2.475,2.475-2.475h32.626v-20.026H529.64c-6.975,0-12.601-5.625-12.601-12.6v-32.401
		c0-6.975,5.625-12.601,12.601-12.601h40.051c1.35,0,2.475,1.125,2.475,2.475v12.601c0,1.35-1.125,2.475-2.475,2.475h-30.15v22.5
		h24.976c6.975,0,12.6,5.625,12.6,12.6V499.399z"/>
	<path fill="#E56525" d="M656.991,499.625c0,6.75-5.625,12.375-12.6,12.375h-40.051c-6.75,0-12.375-5.625-12.375-12.375v-70.202
		c0-6.975,5.625-12.601,12.375-12.601h40.051c6.975,0,12.6,5.625,12.6,12.601V499.625z M614.465,434.373v60.077h20.025v-60.077
		H614.465z"/>
	<path fill="#E56525" d="M740.015,539.676c0,6.975-5.625,12.6-12.6,12.6h-24.976c-1.35,0-2.475-1.125-2.475-2.475v-12.6
		c0-1.351,1.125-2.476,2.475-2.476h15.076V502.1c-5.85,7.426-7.2,9.9-13.05,9.9h-17.101c-6.975,0-12.601-5.625-12.601-12.601
		v-69.977c0-6.975,5.625-12.601,12.601-12.601h17.101c5.85,0,7.2,2.475,13.05,9.675v-7.2c0-1.35,1.125-2.475,2.475-2.475h17.55
		c1.35,0,2.475,1.125,2.475,2.475V539.676z M717.515,434.373h-20.025v60.077h20.025V434.373z"/>
	<path fill="#E56525" d="M805.266,416.822c6.975,0,12.6,5.625,12.6,12.601v12.375c0,1.35-1.125,2.475-2.475,2.475h-12.601
		c-1.35,0-2.475-1.125-2.475-2.475v-7.425H780.29v75.152c0,1.35-1.125,2.475-2.475,2.475h-17.551c-1.35,0-2.475-1.125-2.475-2.475
		v-90.228c0-1.35,1.125-2.475,2.475-2.475h17.551c1.35,0,2.475,1.125,2.475,2.475v7.2c5.625-7.2,7.2-9.675,13.05-9.675H805.266z"/>
	<path fill="#E56525" d="M880.639,509.525c0,1.35-1.125,2.475-2.475,2.475h-17.55c-1.35,0-2.475-1.125-2.475-2.475v-7.201
		c-5.625,7.201-7.2,9.676-13.05,9.676h-17.101c-6.75,0-12.375-5.625-12.375-12.601v-35.101c0-6.75,5.625-12.375,12.375-12.375
		h17.101c5.85,0,7.425,2.475,13.05,9.675v-27.226h-24.976c-1.35,0-2.475-1.125-2.475-2.475v-12.601c0-1.35,0.9-2.475,2.475-2.475
		h34.876c6.975,0,12.6,5.625,12.6,12.601V509.525z M858.139,469.474h-20.026v24.976h20.026V469.474z"/>
	<path fill="#E56525" d="M951.066,416.822c6.975,0,12.6,5.625,12.6,12.601v69.977c0,6.976-5.625,12.601-12.6,12.601h-17.101
		c-5.85,0-7.2-2.475-13.05-9.676v47.477c0,1.35-1.125,2.475-2.475,2.475h-17.551c-1.35,0-2.475-1.125-2.475-2.475V419.297
		c0-1.35,1.125-2.475,2.475-2.475h17.551c1.35,0,2.475,1.125,2.475,2.475v7.2c5.85-7.2,7.2-9.675,13.05-9.675H951.066z
		 M940.94,434.373h-20.025v60.077h20.025V434.373z"/>
	<path fill="#E56525" d="M1046.467,509.525c0,1.35-1.125,2.475-2.475,2.475h-17.551c-1.35,0-2.475-1.125-2.475-2.475v-74.928
		h-20.025v74.928c0,1.35-1.125,2.475-2.476,2.475h-17.551c-1.35,0-2.475-1.125-2.475-2.475V334.47c0-1.35,1.125-2.475,2.475-2.475
		h17.551c1.351,0,2.476,1.125,2.476,2.475v92.252c5.625-7.2,7.199-9.675,13.05-9.675h16.876c6.975,0,12.6,5.625,12.6,12.375V509.525
		z"/>
	<path fill="#E56525" d="M1104.963,442.023c1.352,0,2.477,1.125,2.477,2.475v17.551c0,1.35-1.125,2.475-2.477,2.475h-42.525
		c-1.35,0-2.475-1.125-2.475-2.475v-17.551c0-1.35,1.125-2.475,2.475-2.475H1104.963z"/>
	<path fill="#E56525" d="M1236.139,509.525c0,1.35-1.125,2.475-2.475,2.475h-20.025c-1.352,0-2.477-1.125-2.477-2.475V394.547
		h-0.674c0,0,0,4.5-0.451,7.425l-24.975,107.778c-0.225,1.575-1.35,2.25-2.926,2.25h-14.85c-1.576,0-2.701-0.675-2.926-2.25
		l-24.301-105.078c-1.125-4.05-0.9-10.125-0.9-10.125h-0.674v114.979c0,1.35-1.125,2.475-2.477,2.475h-12.375
		c-1.574,0-2.699-1.125-2.699-2.475V351.796c0-1.35,1.125-2.475,2.699-2.475h26.775c1.576,0,2.701,0.675,2.926,2.25l29.025,125.328
		l29.027-125.328c0.225-1.575,1.35-2.25,2.924-2.25h19.352c1.35,0,2.475,1.125,2.475,2.475V509.525z"/>
	<path fill="#E56525" d="M1319.162,509.525c0,1.35-1.125,2.475-2.475,2.475h-17.551c-1.35,0-2.475-1.125-2.475-2.475v-7.201
		c-5.85,7.201-7.201,9.676-13.051,9.676h-17.1c-6.977,0-12.602-5.625-12.602-12.601v-80.102c0-1.35,1.125-2.475,2.477-2.475h17.549
		c1.576,0,2.701,1.125,2.701,2.475v75.152h20.025v-75.152c0-1.35,1.125-2.475,2.475-2.475h17.551c1.35,0,2.475,1.125,2.475,2.475
		V509.525z"/>
	<path fill="#E56525" d="M1359.438,509.525c0,1.35-1.125,2.475-2.475,2.475h-17.551c-1.35,0-2.475-1.125-2.475-2.475V334.47
		c0-1.35,1.125-2.475,2.475-2.475h17.551c1.35,0,2.475,1.125,2.475,2.475V509.525z"/>
	<path fill="#E56525" d="M1423.783,416.822c1.35,0,2.475,1.125,2.475,2.475v12.601c0,1.35-1.125,2.475-2.475,2.475h-15.076v60.077
		h15.076c1.35,0,2.475,1.125,2.475,2.475v12.601c0,1.35-1.125,2.475-2.475,2.475h-24.975c-6.977,0-12.602-5.625-12.602-12.601
		v-65.026h-10.125c-1.35,0-2.475-1.125-2.475-2.475v-12.601c0-1.35,1.125-2.475,2.475-2.475h10.125v-42.526
		c0-1.35,1.125-2.475,2.475-2.475h17.551c1.35,0,2.475,1.125,2.475,2.475v42.526H1423.783z"/>
	<path fill="#E56525" d="M1463.609,394.322c0,1.35-1.125,2.475-2.477,2.475h-17.549c-1.352,0-2.477-1.125-2.477-2.475v-12.6
		c0-1.35,1.125-2.475,2.477-2.475h17.549c1.352,0,2.477,1.125,2.477,2.475V394.322z M1463.609,509.525
		c0,1.35-1.125,2.475-2.477,2.475h-17.549c-1.352,0-2.477-1.125-2.477-2.475v-90.228c0-1.35,1.125-2.475,2.477-2.475h17.549
		c1.352,0,2.477,1.125,2.477,2.475V509.525z"/>
	<path fill="#E56525" d="M1545.959,539.676c0,6.975-5.625,12.6-12.602,12.6h-24.975c-1.35,0-2.475-1.125-2.475-2.475v-12.6
		c0-1.351,1.125-2.476,2.475-2.476h15.074V502.1c-5.85,7.426-7.199,9.9-13.049,9.9h-17.102c-6.975,0-12.6-5.625-12.6-12.601v-69.977
		c0-6.975,5.625-12.601,12.6-12.601h17.102c5.85,0,7.199,2.475,13.049,9.675v-7.2c0-1.35,1.125-2.475,2.477-2.475h17.551
		c1.35,0,2.475,1.125,2.475,2.475V539.676z M1523.457,434.373h-20.025v60.077h20.025V434.373z"/>
	<path fill="#E56525" d="M1611.209,416.822c6.975,0,12.6,5.625,12.6,12.601v12.375c0,1.35-1.125,2.475-2.475,2.475h-12.6
		c-1.352,0-2.477-1.125-2.477-2.475v-7.425h-20.025v75.152c0,1.35-1.125,2.475-2.475,2.475h-17.551c-1.35,0-2.475-1.125-2.475-2.475
		v-90.228c0-1.35,1.125-2.475,2.475-2.475h17.551c1.35,0,2.475,1.125,2.475,2.475v7.2c5.625-7.2,7.201-9.675,13.051-9.675H1611.209z
		"/>
	<path fill="#E56525" d="M1686.584,509.525c0,1.35-1.125,2.475-2.477,2.475h-17.551c-1.35,0-2.475-1.125-2.475-2.475v-7.201
		c-5.625,7.201-7.199,9.676-13.051,9.676h-17.1c-6.75,0-12.375-5.625-12.375-12.601v-35.101c0-6.75,5.625-12.375,12.375-12.375h17.1
		c5.852,0,7.426,2.475,13.051,9.675v-27.226h-24.975c-1.352,0-2.477-1.125-2.477-2.475v-12.601c0-1.35,0.9-2.475,2.477-2.475h34.875
		c6.975,0,12.602,5.625,12.602,12.601V509.525z M1664.082,469.474h-20.025v24.976h20.025V469.474z"/>
	<path fill="#E56525" d="M1757.008,416.822c6.977,0,12.602,5.625,12.602,12.601v69.977c0,6.976-5.625,12.601-12.602,12.601h-17.1
		c-5.85,0-7.201-2.475-13.051-9.676v47.477c0,1.35-1.125,2.475-2.475,2.475h-17.551c-1.35,0-2.475-1.125-2.475-2.475V419.297
		c0-1.35,1.125-2.475,2.475-2.475h17.551c1.35,0,2.475,1.125,2.475,2.475v7.2c5.85-7.2,7.201-9.675,13.051-9.675H1757.008z
		 M1746.883,434.373h-20.025v60.077h20.025V434.373z"/>
	<path fill="#E56525" d="M1852.41,509.525c0,1.35-1.125,2.475-2.475,2.475h-17.551c-1.35,0-2.475-1.125-2.475-2.475v-74.928h-20.025
		v74.928c0,1.35-1.125,2.475-2.477,2.475h-17.549c-1.352,0-2.477-1.125-2.477-2.475V334.47c0-1.35,1.125-2.475,2.477-2.475h17.549
		c1.352,0,2.477,1.125,2.477,2.475v92.252c5.625-7.2,7.199-9.675,13.049-9.675h16.877c6.975,0,12.6,5.625,12.6,12.375V509.525z"/>
	<path fill="#E56525" d="M1900.332,349.321c1.35,0,2.475,1.125,2.475,2.475v2.475c0,1.35-1.125,2.475-2.475,2.475h-7.426v57.602
		c0,1.35-1.125,2.475-2.475,2.475h-7.65c-1.35,0-2.475-1.125-2.475-2.475v-57.602h-7.426c-1.35,0-2.475-1.125-2.475-2.475v-2.475
		c0-1.35,1.125-2.475,2.475-2.475H1900.332z M1960.633,349.321c1.576,0,2.477,1.125,2.477,2.475v62.551
		c0,1.35-0.9,2.475-2.477,2.475h-7.424c-1.352,0-2.477-1.125-2.477-2.475v-45.901l-11.699,46.351
		c-0.225,1.35-1.125,2.025-2.475,2.025h-5.4c-1.35,0-2.25-0.675-2.477-2.025l-10.574-45.451v45.001c0,1.35-0.9,2.475-2.475,2.475
		h-2.477c-1.35,0-2.475-1.125-2.475-2.475v-62.551c0-1.35,1.125-2.475,2.475-2.475h10.801c1.576,0,2.701,0.675,2.926,2.25
		l11.025,47.476l11.699-47.476c0.451-1.575,1.352-2.25,3.15-2.25H1960.633z"/>
</g>
</svg>
