<?xml version="1.0" encoding="UTF-8"?><svg id="a" xmlns="http://www.w3.org/2000/svg" width="2160" height="1080" xmlns:xlink="http://www.w3.org/1999/xlink" viewBox="0 0 2160 1080"><defs><clipPath id="b"><rect x="-1" y="-1200" width="1080" height="1080" style="fill:#5d9771;"/></clipPath><clipPath id="c"><rect x="-1" width="1080" height="1080" style="fill:#5d9771;"/></clipPath></defs><rect x="-1" y="-1200" width="1080" height="1080" style="fill:#5d9771;"/><rect x="1079" width="1080" height="1080" style="fill:#5d9771;"/><rect x="1115.75" y="65.285" width="1006.5" height="957.6" transform="translate(1074.915 2163.085) rotate(-90)" style="fill:none;"/><path d="M1226.811,165.945c-19.681,0-38.507-.343-55.107-.514-4.449,3.08-9.242,2.909-15.916-1.027-10.098-5.818-10.611-14.375-4.792-23.617,7.53-11.467,16.942-23.446,32.346-43.128,7.188-9.241,12.836-16.087,17.628-21.906h-7.701c-12.151,0-20.537.171-29.779.685-9.926.514-12.836-2.567-13.521-11.809-.685-7.873,0-15.574,11.124-16.43,9.584-.685,19.854-.855,33.373-.855,11.809,0,24.131.171,33.373,1.197,8.557.855,10.098,6.504,10.439,15.574.172,9.926.855,13.35-4.278,19.682-5.819,7.188-11.979,15.745-22.762,29.778-5.477,7.017-11.467,15.231-17.114,22.934,11.124,0,22.933.171,35.426.171,11.125,0,12.151,8.215,11.81,16.259-.171,9.584-3.252,13.007-14.548,13.007Z" style="fill:#e1d4ac;"/><path d="M1317.005,124.528c-4.621,4.621-17.799,5.477-43.47,5.477,1.54,10.098,6.674,14.205,17.456,14.205,8.558,0,14.718-2.396,19.511-5.134,4.107-2.396,7.188-.856,9.926,5.305,3.252,7.188,3.594,11.467-.685,14.719-6.503,5.305-18.312,8.386-32.346,8.386-26.185,0-42.102-15.745-42.102-41.417,0-30.121,17.799-49.973,44.669-49.973,19.681,0,32.174,11.979,32.174,30.634,0,7.359-.342,13.007-5.134,17.799ZM1274.048,113.062c8.558,0,16.601-.172,22.591-.343.172-1.712.172-3.252.172-4.792,0-6.675-3.081-10.098-8.9-10.098-7.358,0-12.15,5.135-13.862,15.232Z" style="fill:#e1d4ac;"/><path d="M1391.284,107.243c-2.054,3.765-5.819,4.278-13.521,2.909-7.188-1.197-8.044-3.765-7.188-7.53.171-.855.342-1.711.342-2.567,0-2.396-2.567-3.422-5.647-3.422-4.621,0-7.359,2.225-7.359,6.674,0,11.98,36.796,11.638,36.796,37.139,0,17.285-13.178,27.04-36.453,27.04-12.494,0-20.195-3.765-26.527-9.07-5.306-4.45-3.937-8.386.171-14.719,4.107-6.161,8.558-8.215,11.979-5.134,4.964,4.107,10.27,7.359,15.917,7.359,4.792,0,7.017-.856,7.017-3.424,0-8.728-35.084-9.755-35.084-36.624,0-18.142,12.493-29.778,32.175-29.778,17.456,0,29.437,8.557,29.437,21.734,0,3.937-.514,6.675-2.054,9.413Z" style="fill:#e1d4ac;"/><path d="M1456.666,101.596c-3.766,0-8.899,0-14.89.171-.171,9.07-.171,18.654-.171,28.238,0,9.755,3.08,12.493,8.729,12.493,4.621,0,7.188-1.369,10.269-3.422,4.449-3.081,7.188-1.027,10.953,6.16,3.765,7.188,3.08,11.296-.856,14.377-5.305,4.107-14.547,7.872-26.185,7.872-16.771,0-32.859-6.846-32.859-33.886,0-10.098.171-21.051.343-31.319h-5.306c-6.503,0-8.558-2.396-8.558-12.836,0-7.53,2.226-10.782,7.702-10.953,1.882,0,4.107-.171,6.675-.171.171-7.701.342-14.547.513-19.853s4.964-7.53,15.917-7.53c13.178,0,13.862,3.423,13.691,8.729-.172,4.791-.343,10.953-.343,17.97h15.916c6.675.171,7.188,3.594,7.188,12.151,0,8.043-.343,11.809-8.729,11.809Z" style="fill:#e1d4ac;"/><path d="M1508.867,127.438c0,10.611,1.711,13.521,7.701,13.521,3.081,0,5.648-.855,8.729-3.423-.171-17.97-.514-36.795-.342-48.434.171-10.781,4.963-13.178,15.573-12.664,9.755.514,13.35,2.396,13.35,12.664,0,25.158.342,56.135-.685,79.41-.855,20.537-16.088,32.688-43.471,32.688-15.402,0-26.355-6.503-32.175-14.376-4.963-6.332-2.738-9.755,3.081-16.087,4.792-4.964,10.439-5.135,13.007-1.712,4.792,6.675,10.097,8.899,18.483,8.899,7.188,0,12.493-3.937,12.836-13.862.171-2.567.171-5.306.171-8.044-5.647,5.306-12.322,8.044-21.051,8.044-15.231,0-25.329-12.151-25.329-32.859,0-14.205.514-33.373,1.027-43.128.513-8.729,3.594-11.638,15.231-11.638,11.124,0,14.547,3.423,14.376,13.178-.172,11.296-.514,30.464-.514,37.822Z" style="fill:#e1d4ac;"/><path d="M1671.629,165.945c-19.682,0-38.508-.343-55.108-.514-4.45,3.08-9.241,2.909-15.916-1.027-10.098-5.818-10.611-14.375-4.792-23.617,7.53-11.467,16.943-23.446,32.346-43.128,7.188-9.241,12.836-16.087,17.628-21.906h-7.702c-12.15,0-20.537.171-29.778.685-9.927.514-12.836-2.567-13.521-11.809-.685-7.873,0-15.574,11.125-16.43,9.584-.685,19.852-.855,33.372-.855,11.81,0,24.132.171,33.373,1.197,8.558.855,10.098,6.504,10.439,15.574.171,9.926.856,13.35-4.278,19.682-5.818,7.188-11.98,15.745-22.762,29.778-5.477,7.017-11.467,15.231-17.114,22.934,11.124,0,22.933.171,35.427.171,11.124,0,12.15,8.215,11.809,16.259-.172,9.584-3.252,13.007-14.547,13.007Z" style="fill:#e1d4ac;"/><path d="M1761.822,124.528c-4.621,4.621-17.799,5.477-43.471,5.477,1.541,10.098,6.675,14.205,17.457,14.205,8.557,0,14.719-2.396,19.51-5.134,4.107-2.396,7.188-.856,9.927,5.305,3.252,7.188,3.594,11.467-.685,14.719-6.504,5.305-18.312,8.386-32.346,8.386-26.186,0-42.102-15.745-42.102-41.417,0-30.121,17.799-49.973,44.668-49.973,19.682,0,32.176,11.979,32.176,30.634,0,7.359-.343,13.007-5.135,17.799ZM1718.865,113.062c8.558,0,16.602-.172,22.591-.343.171-1.712.171-3.252.171-4.792,0-6.675-3.08-10.098-8.898-10.098-7.359,0-12.151,5.135-13.863,15.232Z" style="fill:#e1d4ac;"/><path d="M1810.772,166.972c-11.124,0-21.222-1.54-26.185-6.503-4.279-4.279-6.504-11.638-6.504-39.191,0-24.816-.342-53.739.342-68.971.343-8.558,3.595-11.467,14.205-11.809,13.007-.343,16.43,1.026,16.259,14.375-.171,8.387-.343,18.312-.343,28.068,4.621-4.964,10.953-8.044,19.682-8.044,18.483,0,29.266,13.862,29.266,38.507,0,34.399-16.601,53.567-46.722,53.567ZM1808.89,141.129c1.369.172,2.738.343,4.278.343,10.953,0,15.232-7.188,15.232-25.671,0-12.836-2.396-16.943-9.242-16.943-4.792,0-8.386,2.225-10.953,5.134v13.691c0,10.269.342,17.97.685,23.446Z" style="fill:#e1d4ac;"/><path d="M1897.715,87.562c3.937-7.017,8.899-10.953,16.601-10.953,2.567,0,5.477.514,8.386,2.567,2.91,2.054,6.333,8.044,2.91,14.89s-9.756,9.07-12.151,8.044c-2.396-1.027-3.765-2.226-5.99-2.226-3.765,0-5.818,1.712-9.584,6.675-.171,19.682-.171,33.887.171,46.38.343,10.269-3.08,14.033-14.204,13.691-10.44-.343-14.376-3.081-14.719-12.151-.855-23.275-1.026-37.994-1.026-63.494,0-9.584,3.936-14.033,15.061-14.033,9.926,0,13.52,2.738,14.547,10.61Z" style="fill:#e1d4ac;"/><path d="M1962.581,75.582c7.53,0,12.493,2.909,15.916,7.017,1.026-6.503,6.161-8.215,15.061-8.215,10.098,0,14.547,1.369,14.376,10.439-.342,13.35-.855,38.336-.855,51.686,0,5.989.685,7.701,2.909,7.701,1.712,0,2.738-.343,4.45-.685,2.738-.342,4.62.514,5.818,7.359,1.54,9.241.514,11.809-3.423,13.52-4.107,1.883-8.386,3.081-15.231,3.081-9.756,0-16.602-3.765-20.537-11.124-5.819,6.503-13.007,11.124-23.618,11.124-19.168,0-30.977-15.061-30.977-46.894,0-28.752,14.547-45.01,36.111-45.01ZM1967.201,142.498c4.107,0,7.359-2.225,10.098-4.963,0-12.664.172-24.302.343-33.886-2.226-2.567-4.792-4.278-8.899-4.278-7.359,0-12.322,6.846-12.322,21.906,0,16.087,3.765,21.221,10.781,21.221Z" style="fill:#e1d4ac;"/><path d="M2085.634,107.243c-2.054,3.765-5.819,4.278-13.521,2.909-7.188-1.197-8.044-3.765-7.188-7.53.171-.855.342-1.711.342-2.567,0-2.396-2.567-3.422-5.647-3.422-4.621,0-7.359,2.225-7.359,6.674,0,11.98,36.796,11.638,36.796,37.139,0,17.285-13.178,27.04-36.453,27.04-12.494,0-20.195-3.765-26.527-9.07-5.306-4.45-3.937-8.386.171-14.719,4.107-6.161,8.558-8.215,11.979-5.134,4.964,4.107,10.27,7.359,15.917,7.359,4.792,0,7.017-.856,7.017-3.424,0-8.728-35.084-9.755-35.084-36.624,0-18.142,12.493-29.778,32.175-29.778,17.456,0,29.437,8.557,29.437,21.734,0,3.937-.514,6.675-2.054,9.413Z" style="fill:#e1d4ac;"/><path d="M1217.944,313.876c-9.992.819-29.157.982-49.796,1.146-6.553,0-11.958-2.293-11.958-11.794.164-14.906.983-31.45.983-45.701,0-17.69-.328-35.545-.492-45.537-.327-10.155,3.112-10.646,14.579-11.302,10.155-.164,12.285,2.457,12.448,11.139.492,10.811.983,30.467.983,43.735,0,11.466-.164,23.587-.655,36.364,12.94-.328,23.751-.819,31.941-.983,6.225-.327,10.319,1.639,10.319,11.958,0,8.026-1.802,10.483-8.354,10.975Z" style="fill:#e1d4ac;"/><path d="M1262.66,316.333c-20.803,0-32.433-15.069-32.433-41.934,0-13.76,4.259-22.933,10.975-29.157,5.569-10.155,15.889-16.38,30.631-16.38,20.64,0,31.941,14.251,31.941,41.114,0,28.993-15.397,46.356-41.114,46.356ZM1267.574,248.847c-8.682,0-13.104,7.862-13.104,23.096,0,17.035,3.604,23.424,11.958,23.424s12.612-8.354,12.612-24.406-3.439-22.113-11.466-22.113Z" style="fill:#e1d4ac;"/><path d="M1360.939,309.126c-3.276,5.241-5.242,6.88-15.726,6.88-7.043,0-9.664-.655-12.776-6.062-8.518-15.069-17.527-35.872-21.622-69.452-.655-5.896.491-9.501,11.139-10.483,11.794-1.146,13.104,1.638,13.76,8.682,2.62,23.097,4.75,36.855,11.302,55.693,7.699-19.002,10.156-32.434,12.613-56.185.655-6.88,1.966-9.665,13.596-8.682,9.337.819,10.483,4.586,9.664,10.647-4.75,33.579-12.94,54.219-21.949,68.961Z" style="fill:#e1d4ac;"/><path d="M1418.269,305.85c0,7.371-2.784,9.828-12.94,9.828-9.337,0-12.121-2.948-12.121-11.303,0-28.01.164-50.287.982-63.883.491-7.207,2.948-9.664,12.613-9.664,9.5.163,12.285,3.112,11.957,10.975-.655,12.612-.491,35.218-.491,64.047ZM1407.785,222.965c-7.862,0-13.76-5.077-13.76-13.268,0-8.846,6.225-13.923,13.433-13.923,8.026,0,13.596,4.914,13.596,13.596,0,9.009-4.914,13.595-13.269,13.595Z" style="fill:#e1d4ac;"/><path d="M1458.562,238.035v2.457c6.061-6.716,12.612-10.811,21.785-10.811,14.415,0,22.933,9.664,22.933,27.027,0,16.708-.164,36.2-.164,49.141,0,7.371-2.948,9.664-12.612,9.664s-12.121-3.112-12.121-10.975v-41.442c0-9.336-2.13-12.448-8.026-12.448-4.096,0-7.535,1.31-11.631,4.75.164,15.725.164,31.45.164,47.83,0,9.665-3.112,12.613-12.285,12.613-9.828,0-12.285-2.621-12.285-13.269,0-24.242-.327-43.571-.164-61.917,0-7.862,2.621-10.647,11.794-10.812,8.846-.327,12.449,1.802,12.613,8.19Z" style="fill:#e1d4ac;"/><path d="M1552.418,230.173c5.896,0,9.991,1.311,13.268,2.948,1.802-3.276,5.569-4.259,11.958-3.932,8.354.492,10.975,2.294,10.975,9.665,0,23.915,0,56.348-.819,78.134-.491,19.984-14.906,31.941-39.148,31.941-15.07,0-25.718-6.061-31.287-13.596-4.422-5.405-3.275-8.682,1.802-14.087,4.096-4.259,9.01-4.914,11.631-1.638,4.914,6.552,9.991,9.664,18.673,9.664s14.579-4.259,14.906-15.889v-4.587c-4.423,3.112-9.992,5.078-17.363,5.078-18.346,0-31.45-12.776-31.45-41.442,0-28.829,16.053-42.261,36.856-42.261ZM1555.529,293.073c3.604,0,6.553-.983,9.01-2.457,0-12.94-.164-26.7-.164-38.33-2.129-.982-4.914-1.802-9.009-1.802-8.846,0-14.906,5.896-14.906,21.131s5.733,21.458,15.069,21.458Z" style="fill:#e1d4ac;"/><path d="M1628.911,288.322c0,6.389.983,8.354,3.768,8.354,2.457,0,4.259-.819,5.897-1.475,2.948-1.311,4.586.164,6.061,5.897,1.638,7.698.491,9.992-2.785,11.794-3.931,2.129-9.009,3.604-15.889,3.604-14.578,0-21.785-8.19-21.785-26.864,0-33.579.327-66.176.982-85.505.164-6.88,4.75-8.846,13.104-8.846,8.518.164,12.121,1.639,11.957,9.173-.655,24.571-1.311,61.591-1.311,83.867Z" style="fill:#e1d4ac;"/><path d="M1675.92,278.494c0,12.286,2.457,15.234,9.337,15.234,3.768,0,7.207-1.146,10.811-3.768-.163-18.346-.491-37.839-.327-49.633.164-9.009,4.259-11.139,13.104-10.646,7.862.327,11.138,1.965,11.138,10.319,0,24.734.164,55.201-.654,78.462-.655,19.165-14.906,30.467-39.149,30.467-14.578,0-24.57-6.061-29.976-13.104-4.423-5.569-3.276-8.681,1.802-14.25,4.095-4.26,9.009-4.914,11.63-1.639,4.586,6.389,9.828,9.337,18.182,9.337,8.026,0,13.596-3.604,13.924-13.76.164-2.948.164-6.061.164-9.336-5.406,4.75-11.958,7.371-19.984,7.371-15.397,0-25.062-10.976-25.062-32.27,0-15.889.491-33.907,1.146-42.098.327-7.043,3.112-9.337,12.776-9.337,8.846,0,11.794,2.621,11.63,10.32,0,9.991-.491,27.354-.491,38.329Z" style="fill:#e1d4ac;"/><path d="M1828.581,313.876c-9.992.819-29.157.982-49.796,1.146-6.553,0-11.958-2.293-11.958-11.794.164-14.906.983-31.45.983-45.701,0-17.69-.328-35.545-.492-45.537-.327-10.155,3.112-10.646,14.579-11.302,10.155-.164,12.285,2.457,12.448,11.139.492,10.811.983,30.467.983,43.735,0,11.466-.164,23.587-.655,36.364,12.94-.328,23.751-.819,31.941-.983,6.225-.327,10.319,1.639,10.319,11.958,0,8.026-1.802,10.483-8.354,10.975Z" style="fill:#e1d4ac;"/><path d="M1875.263,229.189c7.535,0,12.612,2.785,15.889,6.717.655-6.225,5.078-7.863,12.776-7.863,8.518.164,12.122,1.311,11.958,9.173-.328,12.285-.983,38.166-.983,51.762,0,5.897.655,7.699,3.112,7.699,2.13,0,3.276-.655,4.914-1.146,2.621-.655,4.423,0,5.733,5.733,1.639,7.698.819,10.155-2.784,11.957-3.768,1.966-8.026,3.276-14.579,3.276-8.682,0-14.905-3.604-18.346-10.647-5.241,6.225-12.121,10.647-22.113,10.647-18.51,0-29.812-14.742-29.812-44.227,0-27.355,13.596-43.081,34.235-43.081ZM1878.211,295.53c4.914,0,8.846-2.785,11.958-6.389,0-12.285.163-24.734.491-35.054-2.621-2.784-5.569-4.75-10.319-4.75-8.846,0-14.251,7.535-14.251,23.424,0,16.216,4.095,22.769,12.121,22.769Z" style="fill:#e1d4ac;"/><path d="M1994.346,314.204c-16.217.818-30.796.818-44.719.818-2.784,1.802-5.896,1.639-10.319-.982-8.682-4.914-8.518-9.665-3.932-17.036,5.242-8.518,10.483-15.889,20.967-29.484,5.242-6.88,9.501-12.121,13.104-16.38h-5.405c-8.026,0-14.415,0-20.967.164-7.208,0-8.354-2.785-8.682-9.665-.491-6.388,1.146-10.811,9.009-10.811,6.553-.164,12.613-.164,21.95-.164,15.889,0,28.665-1.146,32.597,2.13,1.966,1.638,2.457,4.422,2.457,8.354s-.491,6.552-2.621,9.828c-3.112,5.078-9.173,12.121-18.674,24.734-4.423,6.061-9.009,12.449-13.268,18.182,9.5-.163,19.165-.491,30.14-.982,7.535-.327,8.846,4.095,8.846,9.992-.164,7.862-2.457,10.811-10.483,11.303Z" style="fill:#e1d4ac;"/><path d="M2038.896,278.494c0,12.286,2.457,15.234,9.337,15.234,3.768,0,7.207-1.146,10.811-3.768-.163-18.346-.491-37.839-.327-49.633.164-9.009,4.259-11.139,13.104-10.646,7.862.327,11.138,1.965,11.138,10.319,0,24.734.164,55.201-.654,78.462-.655,19.165-14.906,30.467-39.149,30.467-14.578,0-24.57-6.061-29.976-13.104-4.423-5.569-3.276-8.681,1.802-14.25,4.095-4.26,9.009-4.914,11.63-1.639,4.586,6.389,9.828,9.337,18.182,9.337,8.026,0,13.596-3.604,13.924-13.76.164-2.948.164-6.061.164-9.336-5.406,4.75-11.958,7.371-19.984,7.371-15.397,0-25.062-10.976-25.062-32.27,0-15.889.491-33.907,1.146-42.098.327-7.043,3.112-9.337,12.776-9.337,8.846,0,11.794,2.621,11.63,10.32,0,9.991-.491,27.354-.491,38.329Z" style="fill:#e1d4ac;"/><path d="M1166.329,455.521c0-26.812.559-51.81.978-71.081h-2.653c-4.748,0-7.401.279-7.82-7.82-.279-6.284,1.815-8.938,6.843-8.938,21.785,0,37.007-.14,50.553-.419,7.401-.14,8.938.978,9.217,7.262.14,6.843-1.117,8.798-7.82,9.077-7.262.279-17.456.559-29.326.698-.14,10.055-.279,19.97-.419,29.885,9.077-.14,15.92-.279,22.344-.559,7.541-.279,8.519,1.117,8.658,7.541,0,6.005-.978,7.401-6.982,7.82-6.982.559-14.104.838-24.159.978-.14,8.239-.14,16.897-.14,25.975,0,7.96-2.374,8.938-10.055,9.077-7.262,0-9.217-1.117-9.217-9.496Z" style="fill:#e1d4ac;"/><path d="M1242.718,384.021c-6.005,0-10.055-4.05-10.055-10.474,0-6.703,4.888-10.474,10.194-10.474,5.865,0,10.055,4.329,10.055,10.893,0,6.145-4.05,10.055-10.194,10.055ZM1250.538,457.337c0,5.307-2.234,7.122-9.356,7.122-6.563,0-8.519-2.095-8.519-8.239,0-22.763.14-43.012.698-56.558.419-5.167,2.234-6.982,9.077-6.843,6.982.14,8.798,2.374,8.519,7.82-.559,12.149-.419,32.259-.419,56.697Z" style="fill:#e1d4ac;"/><path d="M1284.053,397.847v3.352c5.307-5.865,11.172-9.496,19.551-9.496,11.87,0,18.992,7.681,18.992,22.204,0,14.384-.14,32.817-.14,43.57,0,5.167-2.234,6.843-9.077,6.843-6.982,0-8.658-2.374-8.658-7.681v-37.845c0-8.519-2.095-11.73-7.82-11.73-4.608,0-8.519,1.676-12.987,5.726-.14,13.267,0,26.952,0,42.034,0,7.82-2.095,9.775-8.798,9.775-6.843,0-8.798-2.095-8.798-9.496,0-19.83-.14-38.403.14-56.278.14-5.307,2.374-7.262,8.658-7.262,6.703-.14,8.938,1.536,8.938,6.284Z" style="fill:#e1d4ac;"/><path d="M1389.487,429.268c-3.212,3.072-9.915,4.189-37.286,4.189.978,11.87,5.726,16.897,16.06,16.897,8.239,0,12.848-2.234,16.479-4.748,2.933-1.955,5.027-1.676,7.122,2.514,2.234,4.05,2.514,6.982-.419,9.356-4.888,4.329-13.686,7.401-24.997,7.401-19.97,0-31.7-12.708-31.7-34.074,0-23.461,13.686-39.521,34.074-39.521,15.082,0,24.159,8.798,24.159,24.159,0,4.748-.279,10.613-3.491,13.825ZM1352.62,421.727c9.775,0,17.735-.279,24.438-.698.14-1.396.14-2.793.14-4.329,0-7.541-3.212-11.032-9.496-11.032-7.96,0-13.406,5.865-15.082,16.06Z" style="fill:#e1d4ac;"/><path d="M1473.694,411.812c1.117.559,2.234,1.257,3.491,1.955,4.608,2.653,9.217,5.027,13.546,7.401,2.793-7.122,4.748-15.92,5.865-26.394.419-3.491,2.095-5.586,8.938-4.608,6.284.698,7.96,2.514,7.541,6.703-1.396,12.568-4.189,23.461-8.658,32.538,7.401,5.446,12.289,11.73,12.289,21.506,0,5.167-1.117,9.356-2.653,12.01-1.955,3.91-4.748,4.189-10.474,2.793-4.608-.978-6.005-3.491-5.167-6.563.419-2.095.978-3.91.978-6.145,0-3.91-1.955-6.982-5.307-9.775-9.356,14.104-20.389,22.064-37.146,22.064s-27.79-9.775-27.79-25.137c0-12.708,7.262-19.83,17.316-26.254-6.145-5.167-10.613-11.591-10.613-21.646,0-15.501,12.429-26.114,29.187-26.114,14.523,0,23.461,8.379,23.461,20.808,0,11.87-6.145,19.132-14.803,24.857ZM1459.59,449.517c9.775,0,16.06-4.469,22.064-13.965-5.586-3.072-12.149-6.424-19.132-10.893-1.676-1.117-3.491-2.234-5.167-3.212-6.982,4.748-10.474,8.658-10.474,15.78,0,7.96,5.446,12.289,12.708,12.289ZM1462.243,405.108c6.982-4.748,10.474-9.775,10.474-16.199,0-5.167-3.072-8.379-8.379-8.379-6.424,0-11.451,4.05-11.451,11.032,0,6.005,3.491,9.636,9.356,13.546Z" style="fill:#e1d4ac;"/><path d="M1558.741,455.521c0-26.812.559-51.81.978-71.081h-2.653c-4.748,0-7.401.279-7.82-7.82-.279-6.284,1.815-8.938,6.843-8.938,21.785,0,37.007-.14,50.553-.419,7.401-.14,8.938.978,9.217,7.262.14,6.843-1.117,8.798-7.82,9.077-7.262.279-17.456.559-29.326.698-.14,10.055-.279,19.97-.419,29.885,9.077-.14,15.92-.279,22.344-.559,7.541-.279,8.519,1.117,8.658,7.541,0,6.005-.978,7.401-6.982,7.82-6.982.559-14.104.838-24.159.978-.14,8.239-.14,16.897-.14,25.975,0,7.96-2.374,8.938-10.055,9.077-7.262,0-9.217-1.117-9.217-9.496Z" style="fill:#e1d4ac;"/><path d="M1647.978,391.283c6.703,0,11.312,2.514,14.384,5.865v-.14c.279-5.167,3.352-6.703,9.356-6.563,5.865.14,8.519.978,8.379,6.982-.279,10.055-.978,33.795-.978,46.363,0,4.888.559,6.703,3.072,6.703,2.095,0,3.352-.698,4.748-1.396,2.095-.838,3.631-.279,4.888,3.771,1.676,5.307.978,7.401-1.955,9.217s-6.703,3.072-12.429,3.072c-6.843,0-11.87-2.933-14.244-9.077-4.329,5.167-10.055,9.077-18.573,9.077-15.92,0-25.416-12.848-25.416-37.146,0-23.042,11.312-36.728,28.768-36.728ZM1649.095,449.936c5.307,0,9.496-3.072,12.429-6.843,0-10.753.14-22.763.419-32.259-2.514-2.653-5.586-4.748-10.474-4.748-8.938,0-14.384,7.262-14.384,22.064s4.189,21.785,12.01,21.785Z" style="fill:#e1d4ac;"/><path d="M1723.807,464.878c-8.239,0-15.92-1.396-19.411-4.888-3.352-3.352-4.608-9.775-4.608-32.398,0-21.227,0-46.224.419-58.233.279-5.726,2.514-7.401,8.798-7.541,7.541-.279,9.496.978,9.356,9.077-.14,7.401-.279,17.596-.419,28.069,4.748-5.027,10.474-7.96,18.713-7.96,15.222,0,24.159,11.451,24.159,31.561,0,27.231-13.267,42.313-37.007,42.313ZM1718.36,448.818c2.095.698,4.329.838,6.982.838,12.289,0,18.154-8.1,18.154-25.695,0-12.848-3.771-18.015-12.01-18.015-5.586,0-10.055,2.234-13.686,6.005-.14,4.888-.14,9.496-.14,13.546,0,11.172.279,17.875.698,23.321Z" style="fill:#e1d4ac;"/><path d="M1790.698,437.507c0,8.658,2.374,12.149,8.519,12.149,4.329,0,7.82-1.396,11.87-5.167,0-14.104.14-30.723.698-45.386.279-5.027,2.793-6.982,8.938-7.122,6.843-.14,8.798,2.374,8.519,8.1-.279,12.149-.559,28.209-.559,43.71,0,5.167.698,6.703,3.212,6.703,1.955,0,3.212-.698,4.608-1.396,2.095-.838,3.631-.279,4.888,3.771,1.536,5.307.978,7.401-2.095,9.217-2.933,1.815-6.563,3.072-12.289,3.072-6.982,0-11.73-3.072-14.104-8.938-5.307,5.586-11.451,9.077-20.109,9.077-12.289,0-19.83-8.379-19.83-24.578,0-14.663.14-31.561.419-41.895.279-5.307,2.374-6.982,9.077-6.982,6.982,0,8.798,2.374,8.798,7.82-.14,11.312-.559,27.65-.559,37.845Z" style="fill:#e1d4ac;"/><path d="M1866.808,443.372c0,5.446.838,7.122,3.491,7.122,2.514,0,4.189-1.117,5.586-1.815,2.374-1.257,3.91-.279,5.167,3.91,1.676,5.446.559,7.262-2.095,9.077-3.072,1.955-7.262,3.491-13.127,3.491-10.753,0-16.758-6.005-16.758-20.389,0-30.443.279-57.954.978-76.108.279-5.307,3.491-6.982,9.356-6.703,6.145.14,8.798,1.536,8.519,6.982-.698,23.88-1.117,53.625-1.117,74.433Z" style="fill:#e1d4ac;"/><path d="M1913.171,465.018c-17.875,0-27.79-12.568-27.79-34.354,0-11.73,3.352-19.411,8.379-24.578,4.329-9.356,12.848-15.082,25.835-15.082,17.456,0,26.673,12.01,26.673,35.191,0,24.578-12.429,38.822-33.097,38.822ZM1916.662,405.807c-8.798,0-13.965,7.96-13.965,22.483,0,15.641,3.91,21.506,12.568,21.506,8.519,0,13.406-8.1,13.406-22.064,0-16.06-3.771-21.925-12.01-21.925Z" style="fill:#e1d4ac;"/><path d="M1976.013,437.507c0,8.658,2.374,12.149,8.519,12.149,4.329,0,7.82-1.396,11.87-5.167,0-14.104.14-30.723.698-45.386.279-5.027,2.793-6.982,8.938-7.122,6.843-.14,8.798,2.374,8.519,8.1-.279,12.149-.559,28.209-.559,43.71,0,5.167.698,6.703,3.212,6.703,1.955,0,3.212-.698,4.608-1.396,2.095-.838,3.631-.279,4.888,3.771,1.536,5.307.978,7.401-2.095,9.217-2.933,1.815-6.563,3.072-12.289,3.072-6.982,0-11.73-3.072-14.104-8.938-5.307,5.586-11.451,9.077-20.109,9.077-12.289,0-19.83-8.379-19.83-24.578,0-14.663.14-31.561.419-41.895.279-5.307,2.374-6.982,9.077-6.982,6.982,0,8.798,2.374,8.798,7.82-.14,11.312-.559,27.65-.559,37.845Z" style="fill:#e1d4ac;"/><path d="M2077.955,415.303c-1.536,2.933-3.91,3.212-8.798,2.374-4.748-.838-5.167-2.514-4.608-5.307.14-.978.279-1.676.279-2.793,0-2.933-2.933-4.888-6.843-4.888-5.446,0-8.798,2.514-8.798,6.843,0,12.429,31.421,10.893,31.421,32.957,0,12.848-9.636,20.668-26.254,20.668-10.474,0-17.177-3.631-21.646-7.681-3.352-3.072-2.793-5.865.279-9.915,2.793-3.91,5.586-5.027,7.96-2.793,3.491,3.212,8.1,6.563,13.965,6.563,5.586,0,8.938-1.676,8.938-5.586,0-10.474-30.723-10.194-30.723-32.817,0-13.127,9.775-21.506,24.299-21.506,13.267,0,21.785,6.703,21.785,16.897,0,2.933-.279,4.888-1.257,6.982Z" style="fill:#e1d4ac;"/><path d="M1175.341,542.277c13.617-13.342,26.408-28.334,34.661-39.338,2.201-3.025,6.052-3.025,9.216-.137,3.576,3.163,4.126,5.089,1.65,8.665-6.603,9.215-20.77,25.032-32.186,35.623,11.004,13.066,25.445,27.922,35.073,36.861,3.714,3.576,3.576,6.878,0,10.591-3.163,3.439-7.289,3.989-10.178,1.238-11.691-11.141-26.133-26.546-38.374-43.326-.275,13.066-.551,26.271-.825,38.787-.138,4.401-2.063,5.914-7.978,5.64-6.327-.275-7.703-1.514-7.565-7.015.688-30.122,1.514-60.52,1.514-82.938,0-5.227,1.375-6.465,8.665-6.465,5.089,0,6.602,1.65,6.602,5.64,0,11.141-.138,23.52-.275,36.174Z" style="fill:#e1d4ac;"/><path d="M1244.528,516.007c-5.227,0-8.39-3.576-8.39-9.354,0-5.914,4.401-8.94,8.94-8.94,4.951,0,8.39,4.539,8.39,10.041,0,4.677-3.714,8.253-8.94,8.253ZM1250.855,590.967c0,4.401-1.65,5.915-7.564,5.915-5.09,0-6.74-1.788-6.74-7.015,0-21.319.138-42.501.825-57.493.413-4.401,1.926-5.64,7.29-5.64,5.777.138,6.877,2.201,6.739,6.327-.688,13.479-.55,34.11-.55,57.905Z" style="fill:#e1d4ac;"/><path d="M1283.316,530.724c0,1.375-.137,2.751-.137,4.126,5.363-5.502,11.553-9.077,20.081-9.077,11.278,0,18.431,7.015,18.431,20.769,0,14.579-.275,34.248-.275,44.563,0,4.264-1.926,5.502-7.152,5.502-5.776,0-6.877-2.2-6.877-6.189v-39.475c0-8.94-2.613-12.654-8.803-12.654-5.639,0-10.453,2.063-15.68,7.152-.275,12.929-.138,26.959-.138,42.913,0,7.015-1.788,8.391-7.015,8.391-5.502,0-7.015-1.788-7.015-7.428,0-18.843-.138-38.924.275-58.868.138-3.988,2.476-5.227,7.289-5.364,5.64,0,7.015,1.788,7.015,5.64Z" style="fill:#e1d4ac;"/><path d="M1367.082,525.909c4.676,0,8.252.688,11.141,1.788.138-9.902.275-18.843.413-26.271.138-4.677,2.888-5.914,7.702-5.776,4.813.138,6.739.825,6.602,5.914-.412,20.632-.962,55.018-.962,76.474,0,5.089.825,6.739,3.713,6.739,2.751,0,4.814-.962,6.189-1.925,2.201-1.376,3.576-.551,5.089,2.888,1.788,4.127.688,5.915-1.787,7.978-2.889,2.063-6.878,3.714-12.654,3.714-6.465,0-11.141-2.613-13.342-8.527-4.126,4.951-9.766,8.665-18.155,8.665-16.093,0-25.445-12.929-25.445-35.486,0-22.281,12.104-36.174,31.497-36.174ZM1363.644,585.053c6.052,0,10.865-3.438,14.167-7.152,0-12.104.137-25.308.274-37.824-2.476-1.1-5.501-1.926-9.766-1.926-11.69,0-18.567,8.803-18.567,23.521,0,15.13,5.089,23.382,13.892,23.382Z" style="fill:#e1d4ac;"/><path d="M1464.327,561.671c-2.751,2.888-7.29,3.851-37.55,3.851.688,13.617,6.052,19.394,16.78,19.394,8.803,0,12.93-2.476,16.643-4.951,2.477-1.926,4.401-2.063,6.465,1.513,1.926,3.164,2.063,5.777-.413,7.978-4.676,4.264-12.929,7.565-23.932,7.565-18.981,0-29.984-12.379-29.984-33.561,0-22.832,13.204-38.375,32.46-38.375,14.441,0,22.694,8.115,22.694,23.383,0,3.988-.275,10.315-3.163,13.204ZM1427.19,555.068c10.729,0,19.256-.412,26.958-.825.138-1.375.138-2.751.138-4.401,0-8.527-3.301-12.379-10.315-12.379-8.94,0-15.13,6.603-16.78,17.605Z" style="fill:#e1d4ac;"/><path d="M1522.234,548.054c-1.238,2.751-3.438,3.026-7.428,2.339-4.264-.826-4.401-2.339-3.988-4.814.274-1.238.274-1.926.274-3.026,0-3.575-3.301-5.914-7.84-5.914-6.189,0-9.903,2.613-9.903,7.29,0,13.616,31.498,11.416,31.498,33.698,0,12.241-8.94,19.806-24.07,19.806-10.315,0-17.33-3.714-21.319-7.702-2.751-2.751-2.476-5.364.275-8.803,2.613-3.301,4.951-3.989,6.877-2.063,3.301,3.164,8.115,6.74,14.305,6.74,6.465,0,10.315-2.063,10.315-6.878,0-11.828-31.084-11.141-31.084-33.835,0-11.967,9.215-19.669,22.832-19.669,12.516,0,20.493,6.465,20.493,16.23,0,2.613-.274,4.539-1.237,6.602Z" style="fill:#e1d4ac;"/><path d="M1572.026,539.802c-3.163.137-8.527.274-14.304.412-.138,10.591-.275,22.145-.275,32.322,0,9.354,2.889,12.104,8.803,12.104,5.227,0,8.527-1.65,11.691-4.264,2.613-2.201,4.538-1.376,6.602,1.925,2.338,3.576,1.788,5.915-.55,7.978-4.539,3.852-10.729,7.015-20.081,7.015-11.554,0-20.632-5.776-20.632-23.382,0-10.453.138-22.42.275-33.561h-6.465c-3.438,0-4.539-1.375-4.539-6.739,0-4.401,1.101-6.052,4.539-6.189,1.788,0,4.126-.138,6.739-.138.138-6.603.275-12.517.413-16.918.138-3.026,2.2-4.126,7.564-4.126,6.189,0,6.74,2.062,6.603,5.089-.138,3.988-.275,9.49-.413,15.68,5.915,0,11.416-.138,14.442-.138,4.539-.138,5.227,1.514,5.227,6.189.138,4.814-.413,6.603-5.64,6.74Z" style="fill:#e1d4ac;"/><path d="M1638.736,542.277c13.617-13.342,26.408-28.334,34.661-39.338,2.201-3.025,6.052-3.025,9.216-.137,3.576,3.163,4.126,5.089,1.65,8.665-6.603,9.215-20.77,25.032-32.186,35.623,11.004,13.066,25.445,27.922,35.073,36.861,3.714,3.576,3.576,6.878,0,10.591-3.163,3.439-7.289,3.989-10.178,1.238-11.691-11.141-26.133-26.546-38.374-43.326-.275,13.066-.551,26.271-.825,38.787-.138,4.401-2.063,5.914-7.978,5.64-6.327-.275-7.703-1.514-7.565-7.015.688-30.122,1.513-60.52,1.513-82.938,0-5.227,1.376-6.465,8.666-6.465,5.089,0,6.602,1.65,6.602,5.64,0,11.141-.138,23.52-.275,36.174Z" style="fill:#e1d4ac;"/><path d="M1707.924,516.007c-5.227,0-8.39-3.576-8.39-9.354,0-5.914,4.401-8.94,8.94-8.94,4.951,0,8.39,4.539,8.39,10.041,0,4.677-3.714,8.253-8.94,8.253ZM1714.251,590.967c0,4.401-1.65,5.915-7.564,5.915-5.09,0-6.74-1.788-6.74-7.015,0-21.319.138-42.501.825-57.493.413-4.401,1.926-5.64,7.29-5.64,5.777.138,6.877,2.201,6.739,6.327-.688,13.479-.55,34.11-.55,57.905Z" style="fill:#e1d4ac;"/><path d="M1746.712,530.724c0,1.375-.137,2.751-.137,4.126,5.364-5.502,11.553-9.077,20.081-9.077,11.278,0,18.431,7.015,18.431,20.769,0,14.579-.275,34.248-.275,44.563,0,4.264-1.926,5.502-7.152,5.502-5.776,0-6.877-2.2-6.877-6.189v-39.475c0-8.94-2.613-12.654-8.803-12.654-5.64,0-10.453,2.063-15.68,7.152-.275,12.929-.138,26.959-.138,42.913,0,7.015-1.788,8.391-7.015,8.391-5.502,0-7.015-1.788-7.015-7.428,0-18.843-.138-38.924.275-58.868.138-3.988,2.476-5.227,7.289-5.364,5.64,0,7.015,1.788,7.015,5.64Z" style="fill:#e1d4ac;"/><path d="M1842.031,548.054c-1.238,2.751-3.438,3.026-7.428,2.339-4.264-.826-4.401-2.339-3.988-4.814.274-1.238.274-1.926.274-3.026,0-3.575-3.301-5.914-7.84-5.914-6.189,0-9.903,2.613-9.903,7.29,0,13.616,31.498,11.416,31.498,33.698,0,12.241-8.94,19.806-24.07,19.806-10.315,0-17.33-3.714-21.319-7.702-2.751-2.751-2.476-5.364.275-8.803,2.613-3.301,4.951-3.989,6.877-2.063,3.301,3.164,8.115,6.74,14.305,6.74,6.465,0,10.315-2.063,10.315-6.878,0-11.828-31.084-11.141-31.084-33.835,0-11.967,9.215-19.669,22.832-19.669,12.516,0,20.493,6.465,20.493,16.23,0,2.613-.274,4.539-1.237,6.602Z" style="fill:#e1d4ac;"/><path d="M1872.704,534.162c4.264-4.264,10.453-8.803,17.468-8.803,6.327,0,12.654,2.201,15.955,9.078,4.814-4.539,11.967-9.491,20.081-9.491,9.078,0,17.331,4.677,17.331,18.568,0,15.955-.413,35.762-.413,46.49,0,4.813-1.926,6.739-7.29,6.602-5.363-.138-6.739-1.513-6.739-7.29,0-13.479.413-29.984.413-40.3,0-7.29-.551-11.141-7.015-11.141-5.502,0-9.766,2.476-14.029,6.464v1.926c0,14.58-.413,33.148-.413,41.951,0,3.713-.688,6.877-6.189,7.151-5.227.275-7.564-1.513-7.564-6.602.138-9.078.274-30.122.274-40.987,0-5.915-1.925-9.354-8.39-9.354-4.814,0-9.353,2.613-13.479,6.465-.274,13.892-.55,31.359-.55,45.664,0,4.677-2.201,6.052-6.465,6.052-4.126,0-7.152-.688-7.152-7.152,0-16.78.551-38.925.551-52.816,0-5.776-.413-10.865,7.015-10.865,5.364,0,6.602,1.788,6.602,8.39Z" style="fill:#e1d4ac;"/><path d="M2009.427,561.671c-2.751,2.888-7.29,3.851-37.55,3.851.688,13.617,6.052,19.394,16.78,19.394,8.803,0,12.93-2.476,16.643-4.951,2.477-1.926,4.401-2.063,6.465,1.513,1.926,3.164,2.063,5.777-.413,7.978-4.676,4.264-12.929,7.565-23.932,7.565-18.981,0-29.984-12.379-29.984-33.561,0-22.832,13.204-38.375,32.46-38.375,14.441,0,22.694,8.115,22.694,23.383,0,3.988-.275,10.315-3.163,13.204ZM1972.29,555.068c10.729,0,19.256-.412,26.958-.825.138-1.375.138-2.751.138-4.401,0-8.527-3.301-12.379-10.315-12.379-8.94,0-15.13,6.603-16.78,17.605Z" style="fill:#e1d4ac;"/><path d="M2042.025,530.724c0,1.375-.137,2.751-.137,4.126,5.363-5.502,11.553-9.077,20.081-9.077,11.278,0,18.431,7.015,18.431,20.769,0,14.579-.275,34.248-.275,44.563,0,4.264-1.926,5.502-7.152,5.502-5.776,0-6.877-2.2-6.877-6.189v-39.475c0-8.94-2.613-12.654-8.803-12.654-5.639,0-10.453,2.063-15.68,7.152-.275,12.929-.138,26.959-.138,42.913,0,7.015-1.788,8.391-7.015,8.391-5.502,0-7.015-1.788-7.015-7.428,0-18.843-.138-38.924.275-58.868.138-3.988,2.476-5.227,7.289-5.364,5.64,0,7.015,1.788,7.015,5.64Z" style="fill:#e1d4ac;"/><path d="M1174.594,732.081c-11.049,0-14.165-1.841-14.307-7.224-.142-20.822.283-57.084.566-80.314-2.125,0-4.107.142-5.808.142-3.824.142-3.966-1.841-3.966-4.957,0-3.258.991-5.1,4.815-5.383,4.675-.283,11.19-.566,21.247-.566,33.57,0,55.102,15.864,55.102,46.035,0,35.129-19.123,52.268-57.65,52.268ZM1172.752,644.26c-.283,21.672-.566,54.817-.566,77.057,1.416.142,2.691.142,3.966.142,29.18,0,43.911-12.182,43.911-40.087,0-25.354-15.156-37.111-44.053-37.111h-3.258Z" style="fill:#e1d4ac;"/><path d="M1255.188,647.234c-4.391,0-6.94-3.258-6.94-8.357,0-4.957,3.966-7.648,7.791-7.648,4.249,0,7.224,4.107,7.224,8.782,0,3.824-3.541,7.224-8.074,7.224ZM1260.571,727.407c0,3.824-1.416,4.957-6.091,4.957-4.107,0-5.383-1.416-5.383-6.091,0-20.822.142-43.769.851-61.05.142-3.541,1.699-4.532,5.949-4.391,4.815.142,5.382,1.982,5.24,5.099-.708,15.015-.566,37.112-.566,61.476Z" style="fill:#e1d4ac;"/><path d="M1319.779,681.655c-1.133,2.69-2.975,3.116-6.516,2.407-3.541-.708-3.683-2.124-3.258-4.532.283-1.417.283-2.125.283-3.541,0-4.392-3.824-7.225-9.349-7.225-7.366,0-11.474,3.116-11.474,8.641,0,15.723,33.146,13.032,33.146,35.837,0,12.04-8.782,19.689-23.514,19.689-10.623,0-17.848-4.108-21.389-8.074-2.408-2.55-2.408-4.816.283-7.791,2.267-2.55,4.25-2.975,5.949-1.133,3.116,3.258,8.216,7.224,15.298,7.224,7.649,0,12.182-2.975,12.182-8.924,0-14.022-33.004-13.031-33.004-35.979,0-11.614,9.065-19.122,22.381-19.122,12.182,0,19.973,6.516,19.973,16.147,0,2.55-.284,4.25-.992,6.375Z" style="fill:#e1d4ac;"/><path d="M1370.346,671.314c-3.399.142-9.349.283-15.581.425-.283,12.182-.426,25.639-.426,36.829,0,10.765,3.117,14.022,9.916,14.022,5.524,0,9.349-1.841,12.89-4.958,2.55-2.266,4.107-1.841,5.949.851,2.125,2.833,1.7,4.957-.425,6.799-4.675,4.391-11.049,7.649-20.114,7.649-11.757,0-19.688-6.091-19.688-23.514,0-11.474.142-25.072.425-37.396h-7.791c-2.833,0-3.683-1.133-3.683-5.523,0-3.684.85-5.1,3.966-5.1,1.983,0,4.675-.142,7.649-.142.142-7.082.283-13.174.425-17.706.142-2.691,1.7-3.824,6.091-3.824,4.958,0,5.524,1.841,5.383,4.674-.142,4.108-.283,9.916-.425,16.573,6.232-.142,12.182-.283,15.581-.425,4.249-.142,4.957,1.133,4.957,5.099.143,4.108-.425,5.383-5.099,5.666Z" style="fill:#e1d4ac;"/><path d="M1399.806,647.234c-4.391,0-6.94-3.258-6.94-8.357,0-4.957,3.966-7.648,7.791-7.648,4.249,0,7.224,4.107,7.224,8.782,0,3.824-3.541,7.224-8.074,7.224ZM1405.188,727.407c0,3.824-1.416,4.957-6.091,4.957-4.107,0-5.383-1.416-5.383-6.091,0-20.822.142-43.769.851-61.05.142-3.541,1.699-4.532,5.949-4.391,4.815.142,5.382,1.982,5.24,5.099-.708,15.015-.566,37.112-.566,61.476Z" style="fill:#e1d4ac;"/><path d="M1437.625,663.524c-.142,1.982-.142,4.107-.283,6.091,5.524-5.808,12.323-9.916,21.813-9.916,11.19,0,18.415,6.658,18.415,20.539,0,15.298-.143,36.828-.143,47.311,0,3.541-1.699,4.532-5.948,4.532-4.816,0-5.524-1.982-5.524-4.957v-43.486c0-9.349-3.116-13.598-10.199-13.598-6.799,0-12.606,2.833-18.697,8.782-.283,13.881-.142,28.754-.142,45.894,0,6.374-1.416,7.365-5.666,7.507-4.391,0-5.808-1.699-5.808-6.232,0-19.405,0-41.502.566-63.175.143-3.258,2.267-4.107,6.091-4.107,4.958,0,5.666,1.842,5.524,4.816Z" style="fill:#e1d4ac;"/><path d="M1524.736,659.699c6.8,0,10.907,1.559,14.307,3.967.142-4.675,1.559-6.374,6.657-5.949,3.967.425,4.533,1.982,4.533,5.523,0,21.105-.708,54.109-.85,72.523-.142,16.007-11.474,25.072-28.188,25.072-12.465,0-20.539-4.816-24.788-10.341-2.55-2.833-3.399-5.24-.425-8.215,2.55-2.267,5.241-3.116,7.224-.567,4.108,5.241,9.065,9.35,17.848,9.35,10.766,0,17.281-3.825,17.281-16.432,0-1.983,0-4.107.142-6.374-3.966,2.55-9.207,4.107-16.715,4.107-14.022,0-27.904-9.773-27.904-34.986,0-28.755,17.14-37.679,30.879-37.679ZM1525.021,722.166c5.665,0,9.915-1.274,13.456-3.258.142-14.731.142-31.304.283-44.902-2.833-2.408-6.232-4.107-12.748-4.107-9.349,0-20.539,4.532-20.539,27.055,0,18.131,8.074,25.213,19.548,25.213Z" style="fill:#e1d4ac;"/><path d="M1601.792,671.314c-3.399.142-9.349.283-15.581.425-.283,12.182-.426,25.639-.426,36.829,0,10.765,3.117,14.022,9.916,14.022,5.524,0,9.349-1.841,12.89-4.958,2.55-2.266,4.107-1.841,5.949.851,2.125,2.833,1.7,4.957-.425,6.799-4.675,4.391-11.049,7.649-20.114,7.649-11.757,0-19.688-6.091-19.688-23.514,0-11.474.142-25.072.425-37.396h-7.791c-2.833,0-3.683-1.133-3.683-5.523,0-3.684.85-5.1,3.966-5.1,1.983,0,4.675-.142,7.649-.142.142-7.082.283-13.174.425-17.706.142-2.691,1.7-3.824,6.091-3.824,4.958,0,5.524,1.841,5.383,4.674-.142,4.108-.283,9.916-.425,16.573,6.232-.142,12.182-.283,15.581-.425,4.249-.142,4.957,1.133,4.957,5.099.143,4.108-.425,5.383-5.099,5.666Z" style="fill:#e1d4ac;"/><path d="M1674.028,732.081c-11.049,0-14.165-1.841-14.307-7.224-.142-20.822.283-57.084.566-80.314-2.125,0-4.107.142-5.808.142-3.824.142-3.966-1.841-3.966-4.957,0-3.258.991-5.1,4.815-5.383,4.675-.283,11.19-.566,21.247-.566,33.57,0,55.102,15.864,55.102,46.035,0,35.129-19.123,52.268-57.65,52.268ZM1672.187,644.26c-.283,21.672-.566,54.817-.566,77.057,1.416.142,2.691.142,3.966.142,29.18,0,43.911-12.182,43.911-40.087,0-25.354-15.156-37.111-44.053-37.111h-3.258Z" style="fill:#e1d4ac;"/><path d="M1773.746,659.274c7.365,0,12.465,2.55,16.006,5.949v-1.699c.142-4.108,2.267-5.383,6.374-5.1,3.824.142,5.241.85,5.241,5.383-.283,9.49-.992,37.253-.992,51.56,0,5.383.851,7.365,4.108,7.365,2.833,0,4.532-1.133,5.949-2.125,2.124-1.274,3.399-.991,4.815,1.7,1.559,3.258,1.275,4.958-1.558,7.082-2.408,1.842-6.232,3.4-11.757,3.4-6.232,0-10.766-2.833-12.323-9.633-4.25,5.383-10.057,9.774-19.122,9.774-15.865,0-25.214-13.457-25.214-36.688,0-23.088,11.049-36.97,28.472-36.97ZM1772.471,722.874c7.649,0,13.032-4.532,16.573-10.057,0-11.757.283-26.63.425-37.537-3.258-3.258-7.083-5.948-13.599-5.948-12.04,0-18.98,9.065-18.98,26.912,0,16.998,5.383,26.63,15.581,26.63Z" style="fill:#e1d4ac;"/><path d="M1844.145,722.591c5.524-15.156,9.065-28.471,12.323-44.336-.566-2.975-1.133-5.948-1.7-9.207-.566-3.116.567-4.957,4.958-5.382,5.241-.426,5.383.85,5.949,4.532,3.399,21.389,7.365,36.687,13.456,54.676,6.658-19.547,10.341-35.979,13.74-59.35.425-3.4.708-4.675,6.374-4.25,3.824.283,4.533,2.125,4.107,5.241-4.674,28.329-9.773,47.452-17.422,64.732-1.134,2.691-2.55,3.542-7.366,3.542-3.824,0-5.524-.426-6.799-3.4-4.107-9.773-7.933-20.113-11.19-32.437-2.833,11.757-6.232,22.38-10.481,32.295-1.134,2.691-2.408,3.542-7.225,3.542-3.541,0-5.24-.426-6.374-3.4-7.224-17.28-12.89-36.403-17.139-64.449-.567-3.258.566-4.958,5.099-5.383,5.666-.425,5.949.851,6.516,4.392,3.4,22.946,6.8,39.378,13.174,58.642Z" style="fill:#e1d4ac;"/><path d="M1946.271,659.699c5.524,0,9.49.851,12.606,2.267.142-10.623.283-20.539.425-28.612.142-4.25,2.267-5.383,6.374-5.241,3.967.142,5.383.708,5.241,5.383-.425,21.955-.991,58.075-.991,81.589,0,5.523,1.133,7.365,4.532,7.365,3.116,0,5.383-1.274,6.799-2.408,2.125-1.416,3.4-.85,4.958,1.983,1.559,3.258.708,4.816-1.7,6.94-2.69,2.125-6.516,3.825-12.465,3.825-6.232,0-10.623-2.55-12.465-8.641-4.249,5.099-10.34,8.924-19.405,8.924-15.581,0-25.922-12.466-25.922-36.262,0-23.938,13.457-37.112,32.013-37.112ZM1942.163,722.874c6.941,0,12.607-3.683,16.29-8.073,0-13.457.142-28.33.283-42.494-2.833-1.417-6.374-2.408-11.615-2.408-12.465,0-21.389,8.924-21.389,26.63,0,17.28,6.374,26.346,16.431,26.346Z" style="fill:#e1d4ac;"/><path d="M2007.319,714.233c0,6.374,1.274,8.499,4.958,8.499,3.258,0,5.382-1.558,6.799-2.55,1.983-1.416,3.399-.85,4.815,1.842,1.559,3.399.709,4.958-1.699,6.94-2.691,2.125-6.516,3.825-12.465,3.825-8.641,0-13.882-4.958-13.882-17.14,0-31.021.425-59.492,1.275-82.297.142-3.825,2.266-5.241,6.091-4.958,4.249.283,5.523,1.842,5.382,5.241-.85,26.913-1.274,54.676-1.274,80.597Z" style="fill:#e1d4ac;"/><path d="M2082.249,695.111c-2.691,2.691-7.648,3.683-39.944,3.683.425,16.432,6.374,23.797,18.839,23.797,9.349,0,13.74-2.691,17.706-5.524,2.267-1.841,3.967-1.982,5.808.992,1.7,2.549,1.7,4.815-.566,6.799-4.675,4.249-12.323,7.79-24.08,7.79-18.98,0-29.604-12.465-29.604-34.703,0-23.089,13.031-38.953,31.871-38.953,14.731,0,22.805,8.499,22.805,23.372,0,3.966-.142,10.057-2.833,12.748ZM2042.871,689.729c13.882,0,22.239-.425,31.021-.85.142-1.7.142-3.258.142-5.241,0-9.207-3.684-14.306-12.323-14.306-9.916,0-16.998,7.932-18.84,20.396Z" style="fill:#e1d4ac;"/><path d="M1193.277,826.551c14.327,2.521,22.685,10.878,22.685,23.613,0,15.521-10.745,23.746-34.358,23.746-9.552,0-16.848-.53-18.175-1.857-1.326-1.193-1.725-2.255-1.725-7.429,0-26.002.531-52.003.531-74.82-2.389,0-4.378.133-6.368.266-2.918,0-3.184-1.592-3.184-4.112,0-2.123.796-3.185,4.112-3.449,4.112-.398,9.552-.531,18.175-.531,22.286,0,33.961,7.694,33.961,22.817,0,11.675-5.174,19.368-15.654,21.757ZM1170.194,830.663c-.133,11.276-.133,22.95-.133,34.89,3.185.53,6.898.796,11.144.796,18.705,0,26.135-4.378,26.135-16.317,0-12.47-10.746-19.501-29.849-19.501-1.99,0-4.909,0-7.297.133ZM1170.46,789.538c-.133,11.011-.266,22.154-.266,33.696,2.256.132,4.644.132,6.501.132,16.848,0,23.879-5.173,23.879-17.378,0-11.276-8.226-16.45-25.471-16.45h-4.644Z" style="fill:#e1d4ac;"/><path d="M1240.109,810.896v5.704c3.316-6.766,7.164-10.745,13.664-10.745,2.653,0,4.511.663,6.5,2.123,1.99,1.592,2.388,3.847.929,5.97-1.592,2.122-3.714,2.122-5.041,1.061-1.459-1.061-2.388-1.592-4.245-1.592-4.775,0-7.164,3.184-11.807,10.48-.133,14.46-.398,31.573-.398,44.706,0,4.378-1.326,5.041-3.979,5.041-2.918.133-4.245-.796-4.245-4.908,0-17.511.531-41.39.531-57.574,0-3.184.132-5.174,4.377-5.174,3.052.133,3.715,1.193,3.715,4.908Z" style="fill:#e1d4ac;"/><path d="M1278.848,792.457c-3.316,0-5.439-2.388-5.439-6.368,0-3.847,3.185-5.837,6.368-5.837,3.051,0,5.307,3.184,5.307,6.633,0,3.052-2.653,5.572-6.235,5.572ZM1282.827,870.328c0,2.919-1.193,3.848-4.51,3.848-2.786,0-3.848-1.194-3.848-4.909,0-18.705.133-41.124.796-58.503.133-2.653,1.327-3.449,4.378-3.316,3.715.133,3.847,1.725,3.715,3.715-.664,15.123-.531,36.481-.531,59.166Z" style="fill:#e1d4ac;"/><path d="M1329.126,806.254c6.633,0,10.612,1.459,13.797,3.847v-1.062c0-3.449,1.193-4.378,4.908-4.245,2.653.133,3.316,1.194,3.316,3.715-.133,21.093-.398,50.543-.796,68.983-.266,14.857-10.348,22.817-25.338,22.817-11.807,0-19.501-5.307-23.349-11.011-1.459-1.857-2.122-3.98.266-5.837,2.388-1.725,3.979-1.592,5.307.132,3.847,5.307,9.286,9.419,17.776,9.419,11.011,0,17.113-4.112,17.378-16.449,0-2.256.133-4.644.133-7.297-3.847,3.052-9.286,5.041-16.848,5.041-13.001,0-25.471-9.153-25.471-32.634,0-26.399,15.521-35.42,28.92-35.42ZM1327.534,866.879c6.367,0,11.408-1.989,14.99-4.908.133-14.593.133-31.44.266-44.309-2.919-2.255-6.501-3.847-12.735-3.847-10.215,0-21.358,5.837-21.358,27.726,0,17.776,7.96,25.338,18.838,25.338Z" style="fill:#e1d4ac;"/><path d="M1417.878,869.665c0,2.918-1.459,3.979-5.041,3.847-3.184-.132-3.316-2.122-3.316-4.377,0-12.604.266-31.839.266-41.655,0-8.49-3.449-13.001-10.878-13.001-7.164,0-13.001,2.521-18.705,7.694-.266,15.389-.398,31.573-.398,45.369,0,5.439-1.193,6.235-4.245,6.368-3.316.133-4.245-1.327-4.245-5.041,0-30.247.531-65.932,1.062-88.352.133-3.848,1.857-4.378,5.041-4.245,3.051.133,3.449,1.857,3.449,4.245-.133,9.419-.398,21.491-.53,34.491,4.51-4.908,11.408-9.153,20.297-9.153,10.347,0,17.776,6.235,17.776,19.634,0,14.857-.531,34.358-.531,44.176Z" style="fill:#e1d4ac;"/><path d="M1465.505,814.744c-3.184.132-9.286.397-15.388.53-.266,12.205-.398,26.134-.398,37.277s3.051,14.858,10.082,14.858c5.307,0,9.021-1.857,12.603-5.307,2.256-1.99,3.316-1.99,4.909-.133,1.725,2.122,1.459,3.582-.266,5.307-4.245,4.51-10.613,7.562-18.308,7.562-11.143,0-17.378-5.837-17.378-21.889,0-11.409.133-25.206.397-37.41h-8.092c-1.99,0-2.653-.796-2.653-3.848,0-2.786.663-3.714,3.051-3.714,1.99,0,4.644-.133,7.827-.133.133-6.766.266-12.603.398-16.848.133-2.256,1.062-3.052,4.378-3.052,3.581,0,4.112,1.459,3.979,3.848-.133,3.979-.266,9.419-.398,15.786,6.103-.266,11.939-.398,15.389-.53,3.449-.133,4.112.663,4.245,3.581.133,2.919-.53,3.848-4.378,4.113Z" style="fill:#e1d4ac;"/><path d="M1496.02,857.46c0,7.297,1.326,9.685,5.571,9.685,3.449,0,5.571-1.459,6.766-2.388,1.857-1.194,3.051-.929,3.979,1.061,1.194,2.256.929,3.449-1.459,5.307-2.122,1.725-5.704,3.316-11.011,3.316-7.96,0-12.205-5.041-12.205-15.786,0-26.532.531-54.125,1.194-78.402.133-2.785,1.725-3.714,4.511-3.582,3.449.266,3.979,1.857,3.847,3.98-.663,23.746-1.193,50.013-1.193,76.81Z" style="fill:#e1d4ac;"/><path d="M1530.114,848.041c0,12.604,3.848,17.512,12.338,17.512,6.633,0,12.867-2.388,18.041-7.43.133-17.776,0-37.542,0-49.084,0-3.184,1.46-3.979,4.909-3.847,2.255.133,3.448.663,3.448,3.316,0,22.42,0,50.543-.53,71.105-.397,13.531-9.816,20.96-23.879,20.96-11.807,0-19.235-5.704-23.083-11.275-1.459-1.857-1.989-3.715.266-5.837,2.255-1.857,3.979-1.592,5.307.132,3.847,5.307,9.286,9.817,17.644,9.817,9.949,0,15.256-3.979,15.521-14.327.133-4.112.265-8.756.265-13.664-4.643,4.511-11.275,7.694-19.501,7.694-11.674,0-19.103-7.164-19.103-24.012,0-16.582.397-30.246,1.062-39.399.133-2.256,1.326-2.919,4.51-2.919,3.052,0,3.715,1.326,3.715,3.051-.266,9.95-.929,22.95-.929,38.206Z" style="fill:#e1d4ac;"/><path d="M1654.42,826.551c14.327,2.521,22.685,10.878,22.685,23.613,0,15.521-10.745,23.746-34.358,23.746-9.552,0-16.848-.53-18.175-1.857-1.326-1.193-1.725-2.255-1.725-7.429,0-26.002.531-52.003.531-74.82-2.389,0-4.378.133-6.368.266-2.918,0-3.184-1.592-3.184-4.112,0-2.123.796-3.185,4.112-3.449,4.112-.398,9.552-.531,18.175-.531,22.286,0,33.961,7.694,33.961,22.817,0,11.675-5.174,19.368-15.654,21.757ZM1631.337,830.663c-.133,11.276-.133,22.95-.133,34.89,3.185.53,6.898.796,11.144.796,18.705,0,26.135-4.378,26.135-16.317,0-12.47-10.746-19.501-29.849-19.501-1.99,0-4.909,0-7.297.133ZM1631.603,789.538c-.133,11.011-.266,22.154-.266,33.696,2.256.132,4.644.132,6.501.132,16.848,0,23.879-5.173,23.879-17.378,0-11.276-8.226-16.45-25.471-16.45h-4.644Z" style="fill:#e1d4ac;"/><path d="M1700.456,850.827c0,10.613,3.582,15.919,11.807,15.919,6.5,0,12.205-2.653,17.511-7.959,0-14.991,0-32.9.664-49.35.132-2.521,1.592-3.449,4.51-3.316,3.582.133,3.848,1.857,3.848,3.847-.266,14.726-.796,31.573-.796,50.013,0,5.439,1.193,7.164,4.378,7.164,3.051,0,4.908-1.194,6.234-2.123,1.857-1.193,2.919-1.061,3.98.929,1.193,2.256,1.193,3.582-1.327,5.439-2.122,1.592-5.439,3.051-10.612,3.051-5.307,0-9.021-2.388-10.348-8.225-4.908,4.908-11.542,8.357-20.164,8.357-10.879,0-18.042-7.031-18.042-22.287,0-16.185.133-31.042.53-42.981.133-2.653,1.327-3.316,4.378-3.316,3.715,0,4.112,1.725,4.112,3.582-.133,12.603-.53,27.062-.663,41.257Z" style="fill:#e1d4ac;"/><path d="M1783.637,874.573c-7.03,0-13.664-1.592-16.582-4.511-2.786-2.785-3.715-9.418-3.715-30.909s.266-46.829.664-57.84c.132-3.979,1.592-4.511,4.775-4.644,3.184,0,3.979,1.194,3.847,5.307-.265,7.297-.53,20.43-.663,33.431,5.837-6.103,12.072-9.552,21.093-9.552,14.46,0,22.95,11.144,22.95,30.379,0,24.808-11.408,38.339-32.369,38.339ZM1772.892,865.42c3.316,1.326,6.898,1.857,11.409,1.857,15.256,0,23.48-10.746,23.48-30.512,0-15.389-5.572-23.349-16.052-23.349-7.96,0-13.93,3.052-19.767,9.021-.133,5.571-.133,10.878-.133,15.521,0,14.195.398,20.961,1.062,27.461Z" style="fill:#e1d4ac;"/><path d="M1853.152,874.573c-7.03,0-13.664-1.592-16.582-4.511-2.786-2.785-3.715-9.418-3.715-30.909s.266-46.829.664-57.84c.132-3.979,1.592-4.511,4.775-4.644,3.184,0,3.979,1.194,3.847,5.307-.265,7.297-.53,20.43-.663,33.431,5.837-6.103,12.072-9.552,21.093-9.552,14.46,0,22.95,11.144,22.95,30.379,0,24.808-11.408,38.339-32.369,38.339ZM1842.407,865.42c3.316,1.326,6.898,1.857,11.409,1.857,15.256,0,23.48-10.746,23.48-30.512,0-15.389-5.572-23.349-16.052-23.349-7.96,0-13.93,3.052-19.767,9.021-.133,5.571-.133,10.878-.133,15.521,0,14.195.398,20.961,1.062,27.461Z" style="fill:#e1d4ac;"/><path d="M1910.597,857.46c0,7.297,1.326,9.685,5.571,9.685,3.449,0,5.571-1.459,6.766-2.388,1.857-1.194,3.051-.929,3.979,1.061,1.194,2.256.929,3.449-1.459,5.307-2.122,1.725-5.704,3.316-11.011,3.316-7.96,0-12.205-5.041-12.205-15.786,0-26.532.531-54.125,1.194-78.402.133-2.785,1.725-3.714,4.511-3.582,3.449.266,3.979,1.857,3.847,3.98-.663,23.746-1.193,50.013-1.193,76.81Z" style="fill:#e1d4ac;"/><path d="M1941.375,792.457c-3.316,0-5.439-2.388-5.439-6.368,0-3.847,3.185-5.837,6.368-5.837,3.051,0,5.307,3.184,5.307,6.633,0,3.052-2.653,5.572-6.235,5.572ZM1945.354,870.328c0,2.919-1.193,3.848-4.51,3.848-2.786,0-3.848-1.194-3.848-4.909,0-18.705.133-41.124.796-58.503.133-2.653,1.327-3.449,4.378-3.316,3.715.133,3.847,1.725,3.715,3.715-.664,15.123-.531,36.481-.531,59.166Z" style="fill:#e1d4ac;"/><path d="M1975.07,808.774c-.133,2.521-.265,4.908-.265,7.429,5.041-5.439,11.674-9.817,20.96-9.817,10.082,0,16.98,5.97,16.98,18.573,0,14.725-.133,35.686-.133,45.502,0,2.653-1.326,3.316-4.245,3.316-3.714,0-4.112-1.725-4.112-3.582v-43.114c0-8.888-3.184-13.001-10.48-13.001-7.163,0-13.266,3.449-19.235,9.419-.266,13.531-.266,27.858-.266,44.309,0,5.307-1.193,5.97-4.112,5.97-3.316.133-4.245-1.194-4.245-4.775,0-18.44,0-39.798.663-60.626.133-2.521,1.725-3.316,4.511-3.184,3.715.133,3.979,1.725,3.979,3.582Z" style="fill:#e1d4ac;"/><path d="M2058.384,806.254c6.633,0,10.612,1.459,13.797,3.847v-1.062c0-3.449,1.193-4.378,4.908-4.245,2.653.133,3.316,1.194,3.316,3.715-.133,21.093-.398,50.543-.796,68.983-.266,14.857-10.348,22.817-25.338,22.817-11.807,0-19.501-5.307-23.349-11.011-1.459-1.857-2.122-3.98.266-5.837,2.388-1.725,3.979-1.592,5.307.132,3.847,5.307,9.286,9.419,17.776,9.419,11.011,0,17.113-4.112,17.378-16.449,0-2.256.133-4.644.133-7.297-3.847,3.052-9.286,5.041-16.848,5.041-13.001,0-25.471-9.153-25.471-32.634,0-26.399,15.521-35.42,28.92-35.42ZM2056.792,866.879c6.367,0,11.408-1.989,14.99-4.908.133-14.593.133-31.44.266-44.309-2.919-2.255-6.501-3.847-12.735-3.847-10.215,0-21.358,5.837-21.358,27.726,0,17.776,7.96,25.338,18.838,25.338Z" style="fill:#e1d4ac;"/><path d="M1210.645,1003.542c-10.143.742-22.759.989-38.962,1.113-3.092,0-4.452-1.484-4.452-5.442,0-29.19.247-54.794.618-73.718h-5.689c-2.598,0-2.969-1.237-2.969-3.464,0-1.979,1.484-2.227,3.34-2.227,17.687,0,32.653-.247,43.167-.494,2.597,0,2.968,1.236,2.968,3.463,0,2.103-1.607,2.474-3.339,2.474-7.545,0-18.677.124-31.293.248-.248,11.132-.371,22.14-.371,33.396,10.266,0,16.45-.247,24.737-.495,2.103-.123,3.587.124,3.34,2.474-.248,2.227-.495,3.093-2.351,3.216-7.545.495-14.472.619-25.851.619v34.014c15.461,0,27.335-.494,36.735-1.236,2.103-.124,2.474,1.483,2.598,3.216.123,1.855-.248,2.721-2.227,2.845Z" style="fill:#e1d4ac;"/><path d="M1233.526,944.295c-.124,2.598-.247,5.195-.247,7.916,4.576-5.07,11.008-9.523,19.913-9.523,9.276,0,15.709,5.318,15.709,16.945v43.167c0,1.979-1.113,2.474-3.34,2.474-2.969,0-3.093-1.484-3.093-2.721v-41.684c0-8.287-3.216-12.368-10.39-12.368s-13.234,3.71-19.048,9.647c-.247,12.987-.247,26.593-.247,42.178,0,4.452-.989,4.823-3.092,4.947-2.598.124-3.216-.989-3.216-3.834,0-17.44,0-37.849.741-57.516.124-2.103,1.361-2.597,3.464-2.474,2.969.124,2.845,1.608,2.845,2.845Z" style="fill:#e1d4ac;"/><path d="M1327.158,960.622c-.742,2.351-1.979,2.845-4.082,2.351-2.103-.495-2.227-1.608-1.855-3.588.248-1.236.371-1.854.371-3.216,0-5.071-4.205-8.41-10.761-8.41-11.626,0-18.924,10.266-18.924,26.717,0,17.811,6.185,26.098,19.048,26.098,6.432,0,9.771-2.103,12.74-4.205,1.607-.99,2.597-.99,3.587.618,1.112,1.607.989,2.845-.866,4.082-3.34,2.474-7.669,4.947-16.327,4.947-16.079,0-24.737-10.514-24.737-30.799,0-19.913,10.267-33.147,25.604-33.147,10.143,0,16.821,5.565,16.821,13.853,0,1.979-.123,3.216-.618,4.7Z" style="fill:#e1d4ac;"/><path d="M1386.28,1002.058c0,2.227-1.36,3.092-4.205,2.845-2.227-.124-2.104-1.855-2.104-3.216,0-11.75.248-30.057.248-39.827,0-8.535-3.464-12.864-11.132-12.864-7.051,0-12.987,2.474-18.306,7.422-.248,15.213-.371,30.551-.371,43.785,0,4.576-.99,4.947-3.216,5.071-2.598.124-3.217-.989-3.217-3.834,0-26.346.495-58.01,1.113-84.231,0-2.474,1.361-2.969,4.082-2.722,2.227.124,2.227,1.484,2.227,2.969-.247,10.266-.371,21.646-.618,33.396,4.452-4.452,10.761-8.534,19.419-8.534,9.647,0,16.45,5.689,16.45,18.306,0,13.482-.371,32.53-.371,41.436Z" style="fill:#e1d4ac;"/><path d="M1427.716,942.316c6.679,0,11.132,2.474,14.348,5.689.124-1.113.124-1.979.124-2.721.123-2.969,1.236-3.835,3.71-3.587,2.104.247,2.722.618,2.722,3.834-.247,8.04-.618,34.385-.618,47.991,0,5.194,1.236,6.926,4.7,6.926,2.845,0,4.576-1.236,5.937-2.35,1.608-1.237,2.474-1.113,3.463.371.99,1.484.99,2.474-1.112,4.329-1.855,1.607-4.7,2.969-9.277,2.969-4.947,0-8.781-2.227-9.647-9.029-3.711,4.947-9.276,9.276-18.059,9.276-13.11,0-21.026-11.75-21.026-31.417,0-20.532,9.771-32.282,24.737-32.282ZM1424.995,1000.573c8.039,0,13.481-4.7,16.821-10.885,0-10.637.123-25.727.247-35.745-3.34-3.34-7.05-6.185-13.481-6.185-11.998,0-19.296,9.029-19.296,26.593,0,16.697,5.689,26.222,15.709,26.222Z" style="fill:#e1d4ac;"/><path d="M1479.664,944.295c-.124,2.598-.247,5.195-.247,7.916,4.576-5.07,11.008-9.523,19.913-9.523,9.276,0,15.709,5.318,15.709,16.945v43.167c0,1.979-1.113,2.474-3.34,2.474-2.969,0-3.093-1.484-3.093-2.721v-41.684c0-8.287-3.216-12.368-10.39-12.368s-13.234,3.71-19.048,9.647c-.247,12.987-.247,26.593-.247,42.178,0,4.452-.989,4.823-3.092,4.947-2.598.124-3.217-.989-3.217-3.834,0-17.44,0-37.849.742-57.516.124-2.103,1.361-2.597,3.464-2.474,2.969.124,2.845,1.608,2.845,2.845Z" style="fill:#e1d4ac;"/><path d="M1558.949,948.872c-3.093.247-9.029.494-14.967.742-.247,11.874-.371,25.727-.371,36.364,0,11.008,2.969,14.842,9.896,14.842,4.947,0,8.534-1.731,12.121-5.318,1.979-1.855,2.845-1.979,4.082-.618,1.484,1.607,1.36,2.721-.124,4.205-3.958,4.453-10.019,7.298-16.697,7.298-10.391,0-15.585-5.566-15.585-20.285,0-11.008.124-24.49.371-36.364-3.093.124-5.938.124-8.04.124-1.484,0-1.979-.742-1.979-2.845s.494-2.845,2.474-2.845c1.855,0,4.576,0,7.669-.124.123-6.308.247-11.874.371-15.832.123-1.979.741-2.598,3.339-2.598,2.722,0,3.093,1.237,2.969,3.34-.124,3.711-.247,8.905-.371,14.843,5.689-.124,11.503-.371,14.719-.619,2.969-.123,3.587.371,3.711,2.598.123,2.227-.495,2.845-3.587,3.093Z" style="fill:#e1d4ac;"/><path d="M1583.315,928.34c-2.598,0-4.329-1.979-4.329-5.071,0-2.969,2.721-4.576,5.194-4.576s4.205,2.474,4.205,5.194c0,2.351-2.226,4.453-5.07,4.453ZM1586.407,1002.676c0,2.227-.989,2.969-3.463,2.969-1.979,0-2.845-.989-2.845-3.958,0-16.945.123-38.467.741-55.536.124-1.979,1.113-2.598,3.34-2.474,2.969.247,2.722,1.608,2.722,2.845-.619,14.719-.495,35.004-.495,56.154Z" style="fill:#e1d4ac;"/><path d="M1613.618,944.295c-.124,2.598-.247,5.195-.247,7.916,4.576-5.07,11.008-9.523,19.913-9.523,9.276,0,15.709,5.318,15.709,16.945v43.167c0,1.979-1.113,2.474-3.34,2.474-2.969,0-3.093-1.484-3.093-2.721v-41.684c0-8.287-3.216-12.368-10.39-12.368s-13.234,3.71-19.048,9.647c-.247,12.987-.247,26.593-.247,42.178,0,4.452-.989,4.823-3.092,4.947-2.598.124-3.216-.989-3.216-3.834,0-17.44,0-37.849.741-57.516.124-2.103,1.361-2.597,3.464-2.474,2.969.124,2.845,1.608,2.845,2.845Z" style="fill:#e1d4ac;"/><path d="M1692.531,942.563c6.432,0,10.019,1.36,12.987,3.587v-1.607c0-2.598.989-3.216,3.834-3.216,1.855.123,2.351.618,2.351,2.721,0,20.408-.124,47.001-.619,64.812-.371,13.853-9.4,20.903-23.006,20.903-11.132,0-18.43-5.566-21.769-11.132-.866-1.237-1.484-2.969.618-4.206,2.227-1.36,3.092-.741,4.082.495,3.587,5.195,9.029,9.276,17.192,9.276,10.885,0,16.574-4.205,16.821-16.079.124-2.35.124-4.824.247-7.421-3.834,3.092-9.152,5.194-16.574,5.194-11.997,0-23.129-8.534-23.129-30.304,0-24.242,14.224-33.024,26.964-33.024ZM1689.81,1000.326c6.68,0,11.874-2.474,15.461-5.813.248-14.101.248-30.551.248-42.673-2.969-2.103-6.432-3.587-12.369-3.587-10.39,0-21.274,6.556-21.274,27.335,0,17.193,7.793,24.738,17.935,24.738Z" style="fill:#e1d4ac;"/><path d="M1737.678,990.308c0,7.668,1.36,10.142,5.812,10.142,3.464,0,5.442-1.36,6.556-2.226,1.731-.99,2.598-.99,3.464.494.865,1.608.865,2.598-1.361,4.205-1.854,1.484-5.07,2.846-9.895,2.846-7.298,0-11.008-4.824-11.008-14.472,0-23.13.618-49.476,1.236-73.842,0-2.103,1.36-2.721,3.463-2.598,2.846.248,2.846,1.608,2.846,2.969-.619,21.398-1.113,45.888-1.113,72.481Z" style="fill:#e1d4ac;"/><path d="M1769.094,982.639c0,11.132,3.71,16.326,11.75,16.326,7.05,0,13.358-2.597,18.43-8.781.123-16.574,0-34.88,0-45.641,0-2.474.989-3.093,3.834-3.093,1.608.124,2.474.495,2.474,2.598,0,21.274,0,48.114-.618,67.162-.371,12.245-8.782,18.925-21.15,18.925-11.132,0-18.183-5.813-21.646-11.256-.866-1.236-1.237-2.721.618-4.205,2.103-1.484,3.216-.742,4.082.494,3.587,5.071,9.029,9.4,17.068,9.4,9.648,0,14.72-4.081,14.967-13.977.123-4.205.247-9.152.247-14.348-4.205,5.071-10.885,8.534-19.419,8.534-10.143,0-16.945-6.432-16.945-21.026,0-15.09.248-27.83.866-38.096.123-1.855,1.113-2.351,3.463-2.351,2.722,0,2.969,1.36,2.969,2.474-.495,10.638-.989,23.13-.989,36.859Z" style="fill:#e1d4ac;"/><path d="M1900.574,1003.542c-10.143.742-22.759.989-38.962,1.113-3.092,0-4.452-1.484-4.452-5.442,0-29.19.247-54.794.618-73.718h-5.689c-2.598,0-2.969-1.237-2.969-3.464,0-1.979,1.484-2.227,3.34-2.227,17.687,0,32.653-.247,43.167-.494,2.597,0,2.968,1.236,2.968,3.463,0,2.103-1.607,2.474-3.339,2.474-7.545,0-18.677.124-31.293.248-.248,11.132-.371,22.14-.371,33.396,10.266,0,16.45-.247,24.737-.495,2.103-.123,3.587.124,3.34,2.474-.248,2.227-.495,3.093-2.351,3.216-7.545.495-14.472.619-25.851.619v34.014c15.461,0,27.335-.494,36.735-1.236,2.103-.124,2.474,1.483,2.598,3.216.123,1.855-.248,2.721-2.227,2.845Z" style="fill:#e1d4ac;"/><path d="M1937.063,942.316c6.679,0,11.132,2.474,14.348,5.689.124-1.113.124-1.979.124-2.721.123-2.969,1.236-3.835,3.71-3.587,2.104.247,2.722.618,2.722,3.834-.247,8.04-.618,34.385-.618,47.991,0,5.194,1.236,6.926,4.7,6.926,2.845,0,4.576-1.236,5.937-2.35,1.608-1.237,2.474-1.113,3.463.371.99,1.484.99,2.474-1.112,4.329-1.855,1.607-4.7,2.969-9.277,2.969-4.947,0-8.781-2.227-9.647-9.029-3.711,4.947-9.276,9.276-18.059,9.276-13.11,0-21.026-11.75-21.026-31.417,0-20.532,9.771-32.282,24.737-32.282ZM1934.343,1000.573c8.039,0,13.481-4.7,16.821-10.885,0-10.637.123-25.727.247-35.745-3.34-3.34-7.05-6.185-13.481-6.185-11.998,0-19.296,9.029-19.296,26.593,0,16.697,5.689,26.222,15.709,26.222Z" style="fill:#e1d4ac;"/><path d="M2013.007,960.622c-.742,2.227-1.855,2.721-3.958,2.227-2.227-.495-2.35-1.608-1.979-3.464.247-1.36.371-2.103.371-3.463,0-4.947-4.082-8.163-9.896-8.163-7.545,0-11.503,3.339-11.503,9.276,0,16.203,29.562,13.482,29.562,32.777,0,9.895-7.174,16.203-19.048,16.203-9.029,0-15.214-3.958-17.812-7.298-1.36-1.607-1.731-3.092.371-4.947,1.361-1.237,2.722-.989,3.835.124,2.35,2.845,6.803,6.679,13.853,6.679,8.164,0,12.74-3.587,12.74-10.019,0-14.843-29.933-13.729-29.933-32.777,0-9.276,7.05-15.461,17.935-15.461,9.647,0,16.079,5.318,16.079,13.234,0,1.979-.123,3.34-.618,5.071Z" style="fill:#e1d4ac;"/><path d="M2037.374,982.639c0,11.132,3.71,16.326,11.75,16.326,7.05,0,13.358-2.597,18.43-8.781.123-16.574,0-34.88,0-45.641,0-2.474.989-3.093,3.834-3.093,1.608.124,2.474.495,2.474,2.598,0,21.274,0,48.114-.618,67.162-.371,12.245-8.782,18.925-21.15,18.925-11.132,0-18.183-5.813-21.646-11.256-.866-1.236-1.237-2.721.618-4.205,2.103-1.484,3.216-.742,4.082.494,3.587,5.071,9.029,9.4,17.068,9.4,9.648,0,14.72-4.081,14.967-13.977.124-4.205.247-9.152.247-14.348-4.205,5.071-10.885,8.534-19.419,8.534-10.143,0-16.945-6.432-16.945-21.026,0-15.09.248-27.83.866-38.096.123-1.855,1.113-2.351,3.463-2.351,2.722,0,2.969,1.36,2.969,2.474-.495,10.638-.989,23.13-.989,36.859Z" style="fill:#e1d4ac;"/><rect x="-1" width="1080" height="1080" style="fill:#5d9771;"/><g style="clip-path:url(#c);"><path d="M193.104,331.433c-35.51,2.649-103.35,2.649-175.43,3.18-22.79,0-42.4-6.89-42.4-40.81,0-93.811,2.12-179.67,2.12-243.27h-9.54c-23.85-.53-32.859-6.891-32.859-37.101s10.6-44.52,29.68-44.52c86.92,0,158.47-2.12,213.06-1.59,20.67.53,28.62,7.42,28.62,38.689,0,30.21-10.601,44.521-29.681,44.521h-98.579v61.479c26.5-.53,48.229-1.06,56.71-1.06,28.09,0,34.979,3.71,36.569,34.979,1.59,33.39-3.71,41.87-24.38,43.46s-42.399,2.12-68.899,2.12v58.3c42.93-.53,78.97-2.12,106.529-2.65,21.73-1.06,37.63,4.24,37.63,43.99,0,29.68-6.89,38.16-29.149,40.28Z" style="fill:#4f8761;"/><path d="M267.834,290.092c0-89.569,2.12-168.009,4.77-234.789-30.739,0-36.04-.53-39.22-38.689-3.18-37.101,5.83-47.17,38.69-47.17,81.09-.53,137.27,0,189.739,0,38.16,0,48.229,2.12,48.229,37.1,0,37.1-5.83,46.64-38.689,47.17-25.97.53-58.83.53-96.99,1.06-.529,29.681-1.06,58.3-1.59,87.45,26.5,0,48.76-.53,71.55-1.59,37.1-1.061,41.87,4.77,42.93,38.689.53,30.21-4.77,39.22-33.92,40.811-25.439,1.59-50.88,2.649-81.619,3.18-.53,21.729-.53,44.52-.53,68.37,0,39.75-11.13,45.579-53.53,45.579-39.75,0-49.819-5.829-49.819-47.17Z" style="fill:#4f8761;"/><path d="M808.965,312.353c-.529,15.899-6.89,26.5-47.699,24.909-25.44-1.06-29.15-11.13-28.09-24.909,0-4.24.529-9.011.529-13.25-16.43,20.14-39.75,37.63-86.92,37.63-76.319,0-131.97-70.49-131.97-178.609,0-118.72,68.9-193.98,172.78-193.98,69.96,0,120.84,40.28,120.84,96.99,0,11.13-1.061,18.02-2.65,23.32-4.77,18.02-13.78,24.909-46.11,22.79-29.68-2.12-41.34-8.48-39.22-24.381.53-3.71,1.061-6.89,1.061-10.6,0-14.84-13.25-23.32-34.98-23.32-44.52,0-71.02,34.98-71.02,101.76,0,71.021,19.08,103.351,61.479,103.351,24.38,0,40.811-8.48,52.47-18.551.53-5.829.53-12.189.53-18.55-14.84.53-28.62,1.061-36.569,1.061-23.851.529-26.5-17.49-25.44-41.34,1.59-23.851,7.95-31.271,28.09-32.86,25.97-2.12,64.13-3.18,94.34-1.59,20.67,1.06,22.79,12.189,22.79,48.76,0,45.58-1.59,82.15-4.24,121.37Z" style="fill:#4f8761;"/><path d="M958.954,112.013h81.09c.53-44.52,1.06-84.27,1.06-116.069,0-24.38,16.43-31.271,58.3-31.271,31.8,0,43.99,6.36,43.99,28.62,0,101.229-2.12,200.869-2.12,312.169,0,24.91-13.78,33.92-51.939,33.92-39.75,0-51.41-7.949-51.41-35.51,0-37.1.53-73.67.53-109.18-21.73,1.061-53,1.59-79.5,2.65v105.999c0,26.5-14.84,34.45-54.59,36.04-37.63,1.591-48.76-8.479-48.76-38.159,0-116.601,2.12-229.49,2.12-305.81,0-22.79,9.539-31.271,54.06-31.271,41.34,0,47.17,6.891,47.17,29.15v118.72Z" style="fill:#4f8761;"/><path d="M125.524,680.092c3.181,39.221-1.06,44.521-44.52,47.7-35.51,2.65-42.399-3.71-46.109-43.46-3.181-33.39-5.83-77.909-8.48-127.729-14.31,45.05-30.21,90.63-45.05,125.08-7.42,16.96-17.49,20.14-43.99,21.729-24.38,1.59-33.92-5.83-39.75-22.79-9.54-26.5-22.26-68.899-33.92-116.069-3.18,46.64-6.359,87.979-10.069,119.779-4.24,39.75-12.19,46.11-45.58,43.46-40.81-2.649-43.99-9.01-39.75-49.29,6.89-65.72,17.49-158.47,27.56-268.709,4.24-48.76,15.37-62.01,57.771-62.01,34.449,0,51.409,7.42,46.64,51.41,9.01,39.749,29.15,109.18,48.76,171.189,20.14-53,41.34-115.01,60.42-179.67,8.48-30.74,15.9-36.57,54.59-34.979,38.69,1.59,43.99,5.83,44.52,55.649,3.71,110.24,11.66,202.989,16.96,268.709Z" style="fill:#4f8761;"/><path d="M203.964,730.973c-36.57-2.65-39.22-16.961-38.16-44.521,2.65-66.25,4.771-148.93,5.83-261.289-20.67-29.15-16.96-40.28,15.37-63.6,25.97-18.551,45.05-16.96,59.359,2.119,32.33,45.05,81.09,121.9,118.72,186.56,1.061-60.949.53-112.89-1.59-151.049-1.59-33.391,3.71-43.46,45.58-45.051,34.45-2.119,40.81,9.54,41.87,42.4,2.65,65.72,1.06,159-3.71,275.069-2.12,48.76-18.021,52.47-47.17,52.47-37.1,0-50.35-4.24-66.25-34.45-25.439-48.229-51.41-98.05-79.5-146.279,0,62.01-1.06,120.31-2.12,155.819-1.06,28.09-12.189,34.45-48.229,31.801Z" style="fill:#4f8761;"/><path d="M648.63,729.382c-104.41,0-161.12-63.6-161.12-181.259,0-81.09,29.681-135.68,86.391-161.65,24.38-21.729,58.3-34.449,99.109-34.449,96.46,0,147.869,61.479,147.869,176.489,0,130.909-60.419,200.869-172.249,200.869ZM655.52,436.293c-42.399,0-64.659,33.39-64.659,97.52,0,73.67,18.55,107.59,57.77,107.59,44.52,0,68.37-36.04,68.37-102.819,0-65.721-21.73-102.29-61.48-102.29Z" style="fill:#4f8761;"/><path d="M926.349,727.262c-41.87,0-53-5.829-53-42.399,0-87.979,1.061-171.72,2.12-239.029h-10.6c-25.97-.53-31.8-14.84-31.8-42.93,0-27.561,6.359-39.75,29.149-42.4,21.73-2.649,62.54-3.18,103.35-3.18,109.71,0,177.02,42.93,177.55,133.56,0,89.569-56.71,142.569-153.699,142.569-4.24,0-8.48,0-12.19-.529v53.529c0,34.98-10.6,40.81-50.88,40.81ZM978.289,444.243c-.53,37.1-1.061,74.199-1.061,112.89,46.64-2.65,64.66-21.73,64.66-54.061,0-34.979-18.021-55.119-63.6-58.829Z" style="fill:#4f8761;"/><path d="M-56.526,976.812c0,41.34,10.07,54.59,36.04,54.59,22.26,0,40.279-11.13,54.06-25.97-1.06-27.561-1.59-60.42-1.59-95.93,0-56.18,1.06-91.69,2.65-137.8.529-19.61,17.489-29.68,50.88-29.68,41.34,0,51.409,11.659,51.409,32.329v145.22c0,54.061,2.65,112.36,2.65,159,0,24.38-13.78,36.04-47.7,39.22-31.27,2.12-49.29-3.71-54.59-40.81-18.02,24.38-46.64,40.279-89.569,40.279-73.14,0-107.59-43.459-107.59-138.329,0-83.74,2.12-136.74,4.77-203.52,1.061-19.61,14.84-29.15,55.12-29.15,38.16,0,47.17,13.25,46.64,39.75-1.06,65.19-3.18,119.78-3.18,190.8Z" style="fill:#4f8761;"/><path d="M378.07,1087.582c-12.72,21.2-21.729,28.09-65.189,28.09-28.09,0-38.16-2.12-51.939-24.909-34.45-57.771-72.61-148.93-91.16-300.51-2.65-23.85,1.59-39.22,45.58-42.93,46.64-4.24,53,6.89,56.71,35.51,12.189,102.29,20.14,157.939,50.35,237.97,31.27-81.62,38.689-137.27,51.41-241.149,3.71-28.62,8.479-39.75,56.18-35.511,38.16,3.181,42.399,19.08,39.75,42.931-18.55,151.579-56.71,242.739-91.69,300.509Z" style="fill:#4f8761;"/><path d="M622.4,1020.272c16.43-41.87,31.27-91.16,40.28-141.51-4.771-24.38-8.48-49.82-11.13-75.79-2.65-27.029,5.3-34.979,42.399-36.569,42.93-1.591,48.229,5.83,50.35,30.739,7.42,83.21,23.32,144.16,47.7,213.06,19.61-73.14,27.03-131.97,38.16-230.549,3.18-28.62,8.479-39.75,54.59-35.511,39.75,3.181,44.52,20.141,41.34,45.051-18.55,143.629-53,245.919-85.33,305.809-9.54,17.49-19.609,22.26-52.47,22.26-23.32,0-38.16-.529-50.88-23.85-13.78-24.91-27.56-55.12-39.75-89.569-10.6,32.329-22.26,62.01-33.92,87.979-11.13,25.439-24.38,24.91-53,24.91-25.439,0-36.569-1.061-49.29-25.44-34.449-66.779-64.659-176.489-75.789-303.159-3.181-31.8,5.3-40.81,43.989-42.93,46.11-2.12,51.41,6.89,54.061,35.51,7.42,92.75,15.899,163.239,38.689,239.56Z" style="fill:#4f8761;"/><path d="M1087.211,851.732c29.149-41.34,45.05-64.659,57.239-83.739,13.78-21.73,30.74-32.86,55.12-19.61,28.62,13.78,31.8,38.16,18.021,58.83-18.551,28.62-42.4,62.54-83.21,115.54,31.8,43.989,63.6,82.68,89.569,113.949,23.32,27.561,31.271,45.58-5.3,71.55-32.859,23.32-54.59,11.66-73.14-12.72-21.2-27.56-45.58-61.479-71.02-96.99-27.561,43.46-46.641,69.431-66.25,94.34-16.431,20.67-32.33,33.92-57.771,20.67-29.68-14.84-35.51-41.34-18.55-62.01,24.91-30.739,53-68.369,92.75-125.609-25.97-39.75-51.939-80.56-65.72-104.939-16.43-28.09-22.79-46.641,14.31-68.9,30.74-18.55,50.88-7.95,63.601,14.311,10.6,19.08,29.68,51.939,50.35,85.329Z" style="fill:#4f8761;"/></g><path d="M118.379,552.871c0-28.867.684-54.146,1.537-75.668-9.906,0-11.615-.17-12.64-12.469-1.024-11.957,1.879-15.201,12.469-15.201,26.134-.172,44.239,0,61.149,0,12.298,0,15.543.684,15.543,11.957,0,11.955-1.879,15.029-12.469,15.201-8.369.17-18.96.17-31.258.342-.171,9.564-.342,18.789-.513,28.184,8.541,0,15.715-.172,23.06-.514,11.956-.342,13.493,1.537,13.835,12.469.171,9.736-1.537,12.641-10.932,13.152-8.198.514-16.397.854-26.304,1.025-.171,7.002-.171,14.348-.171,22.033,0,12.811-3.587,14.689-17.252,14.689-12.811,0-16.056-1.879-16.056-15.201Z" style="fill:#fff;"/><path d="M232.823,555.945c0,8.711-3.416,11.615-15.544,11.615-11.272,0-14.519-3.416-14.519-13.152,0-30.574.171-52.268.854-64.223.683-8.711,3.416-11.615,15.202-11.615,11.102,0,14.859,3.416,14.348,13.152-.513,11.443-.342,33.99-.342,64.223ZM220.354,472.762c-9.053,0-16.057-5.807-16.057-14.859,0-10.248,6.833-16.057,15.373-16.057,9.224,0,15.714,4.783,15.714,14.861,0,11.102-5.295,16.055-15.03,16.055Z" style="fill:#fff;"/><path d="M275.697,487.281v1.367c6.149-7.174,12.469-11.273,21.692-11.273,15.544,0,24.426,10.59,24.426,29.379v49.191c0,8.711-3.587,11.615-15.202,11.615-11.443,0-14.689-3.416-14.689-13.152v-40.48c0-9.225-1.537-11.787-7.003-11.787-3.245,0-5.637.855-8.711,3.076.342,16.396.342,32.623.342,48.338,0,10.76-3.758,14.518-14.86,14.518-11.786,0-14.689-3.074-14.689-16.055,0-26.305-.513-44.068-.513-60.637,0-9.564,2.733-13.152,13.836-13.494,10.419-.342,15.031,1.709,15.372,9.395Z" style="fill:#fff;"/><path d="M365.032,536.475c0,6.832.854,8.881,3.587,8.881,2.05,0,3.587-.342,5.295-.854,3.416-1.025,5.124.512,6.32,7.344,1.537,9.395.512,11.957-3.075,13.494-4.27,1.879-9.906,3.246-17.08,3.246-16.91,0-24.768-9.736-24.768-30.746,0-33.137.342-67.469.854-85.744.171-7.857,5.808-9.908,15.714-9.908,10.078,0,14.689,1.367,14.348,10.42-.512,22.375-1.195,63.027-1.195,83.867Z" style="fill:#fff;"/><path d="M419.179,476.861c7.516,0,12.469,2.904,15.885,7.004,1.025-6.49,6.149-8.199,15.031-8.199,10.077,0,14.519,1.367,14.348,10.42-.342,13.322-.854,38.26-.854,51.584,0,5.979.683,7.686,2.903,7.686,1.708,0,2.733-.342,4.441-.684,2.732-.342,4.611.514,5.807,7.346,1.538,9.223.513,11.785-3.416,13.494-4.099,1.879-8.369,3.074-15.201,3.074-9.736,0-16.568-3.758-20.497-11.104-5.808,6.49-12.981,11.104-23.571,11.104-19.131,0-30.916-15.031-30.916-46.801,0-28.697,14.519-44.924,36.04-44.924ZM423.79,543.648c4.1,0,7.345-2.221,10.078-4.955,0-12.639.171-24.254.342-33.818-2.221-2.562-4.783-4.271-8.882-4.271-7.345,0-12.299,6.832-12.299,21.863,0,16.057,3.758,21.182,10.761,21.182Z" style="fill:#fff;"/><path d="M512.612,528.617c0,10.59,1.708,13.492,7.687,13.492,3.074,0,5.637-.854,8.711-3.416-.171-17.934-.513-36.723-.342-48.338.171-10.76,4.954-13.152,15.544-12.639,9.735.512,13.322,2.391,13.322,12.639,0,25.109.342,56.025-.683,79.254-.854,20.498-16.056,32.625-43.385,32.625-15.373,0-26.305-6.49-32.112-14.348-4.953-6.32-2.732-9.736,3.075-16.057,4.782-4.953,10.419-5.123,12.98-1.707,4.783,6.66,10.078,8.881,18.447,8.881,7.174,0,12.47-3.928,12.811-13.834.171-2.562.171-5.295.171-8.029-5.637,5.295-12.298,8.029-21.009,8.029-15.202,0-25.279-12.129-25.279-32.795,0-14.178.512-33.309,1.024-43.045.513-8.711,3.587-11.613,15.202-11.613,11.103,0,14.519,3.416,14.348,13.152-.171,11.271-.513,30.402-.513,37.748Z" style="fill:#fff;"/><path d="M674.2,487.111c-2.221,3.758-7.345,5.295-15.031,3.928-6.832-1.367-9.564-4.441-8.882-8.199.513-2.391.854-3.586.854-6.32,0-3.758-3.416-6.318-8.541-6.318-7.003,0-10.248,3.416-10.248,8.881,0,19.984,47.143,19.473,47.143,55.172,0,22.033-14.348,34.332-40.311,34.332-27.158,0-39.114-17.252-43.385-30.404-1.879-5.979-.684-10.248,10.761-14.689,10.59-4.1,13.152.512,17.423,8.541,2.562,4.953,7.686,11.443,15.201,11.443,6.32,0,9.395-2.904,9.395-8.711,0-15.373-45.776-17.936-45.776-53.633,0-24.256,18.447-33.82,39.457-33.82s34.503,11.102,34.503,28.012c0,5.125-1.196,9.225-2.562,11.787Z" style="fill:#fff;"/><path d="M723.395,476.861c7.516,0,12.469,2.904,15.885,7.004,1.025-6.49,6.149-8.199,15.031-8.199,10.077,0,14.519,1.367,14.348,10.42-.342,13.322-.854,38.26-.854,51.584,0,5.979.683,7.686,2.903,7.686,1.708,0,2.732-.342,4.441-.684,2.732-.342,4.611.514,5.807,7.346,1.538,9.223.513,11.785-3.416,13.494-4.1,1.879-8.369,3.074-15.201,3.074-9.736,0-16.568-3.758-20.497-11.104-5.808,6.49-12.981,11.104-23.571,11.104-19.131,0-30.916-15.031-30.916-46.801,0-28.697,14.519-44.924,36.04-44.924ZM728.006,543.648c4.1,0,7.345-2.221,10.078-4.955,0-12.639.171-24.254.342-33.818-2.221-2.562-4.783-4.271-8.882-4.271-7.345,0-12.299,6.832-12.299,21.863,0,16.057,3.758,21.182,10.761,21.182Z" style="fill:#fff;"/><path d="M816.486,487.281v1.367c6.149-7.174,12.469-11.273,21.692-11.273,15.544,0,24.426,10.59,24.426,29.379v49.191c0,8.711-3.587,11.615-15.202,11.615-11.443,0-14.689-3.416-14.689-13.152v-40.48c0-9.225-1.537-11.787-7.003-11.787-3.245,0-5.637.855-8.711,3.076.342,16.396.342,32.623.342,48.338,0,10.76-3.758,14.518-14.86,14.518-11.786,0-14.689-3.074-14.689-16.055,0-26.305-.513-44.068-.513-60.637,0-9.564,2.733-13.152,13.836-13.494,10.419-.342,15.031,1.709,15.372,9.395Z" style="fill:#fff;"/><path d="M934.004,508.461c-2.049,3.758-5.807,4.271-13.493,2.904-7.174-1.195-8.028-3.758-7.174-7.516.171-.854.342-1.709.342-2.562,0-2.391-2.562-3.416-5.637-3.416-4.612,0-7.345,2.221-7.345,6.662,0,11.955,36.724,11.615,36.724,37.064,0,17.252-13.152,26.988-36.382,26.988-12.47,0-20.155-3.758-26.476-9.053-5.295-4.441-3.929-8.371.171-14.689,4.1-6.15,8.54-8.199,11.956-5.125,4.954,4.1,10.249,7.346,15.886,7.346,4.782,0,7.003-.855,7.003-3.416,0-8.713-35.016-9.736-35.016-36.553,0-18.105,12.469-29.721,32.111-29.721,17.423,0,29.379,8.539,29.379,21.691,0,3.93-.512,6.662-2.05,9.395Z" style="fill:#fff;"/></svg>