<svg width="2283" height="1481" viewBox="0 0 2283 1481" fill="none" xmlns="http://www.w3.org/2000/svg">
<g clip-path="url(#clip0_44_156)">
<rect width="2283" height="1481" fill="white"/>
<rect x="1.05225" width="2281" height="79.5497" fill="#FFD600"/>
<rect width="2280.96" height="79.5514" transform="matrix(0.999465 0.0327011 -0.0339029 0.999425 2.74927 660.95)" fill="#FFD600"/>
<rect width="2280.95" height="46.1595" transform="matrix(0.999445 0.0333246 -0.0345493 0.999403 2.50635 124.053)" fill="#FFD600"/>
<rect x="1.05225" y="820.05" width="2281" height="53.0332" fill="#FFD600"/>
<rect x="1.05225" y="1427.97" width="2281" height="53.0332" fill="#FFD600"/>
<rect x="1.05225" y="265.166" width="2281" height="79.5497" fill="#FFD600"/>
<rect width="2280.99" height="79.55" transform="matrix(0.999904 -0.0138771 0.0143876 0.999896 0.59375 922.305)" fill="#FFD600"/>
<rect width="2280.99" height="79.55" transform="matrix(0.999904 -0.0138771 0.0143876 0.999896 0.59375 1325.07)" fill="#FFD600"/>
<rect width="2280.96" height="103.122" transform="matrix(0.999581 -0.0289623 0.030027 0.999549 0 427.856)" fill="#FFD600"/>
<rect x="1.05225" y="1025.31" width="2281" height="120.798" fill="#FFD600"/>
<rect x="1.05225" y="571.58" width="2281" height="79.5497" fill="#FFD600"/>
<rect x="1.05225" y="1169.68" width="2281" height="79.5497" fill="#FFD600"/>
</g>
<defs>
<clipPath id="clip0_44_156">
<rect width="2283" height="1481" fill="white"/>
</clipPath>
</defs>
</svg>
