<svg xmlns="http://www.w3.org/2000/svg" viewBox="0 0 1920 1200"><title>ts_poblet 3</title><rect width="1920" height="1200" style="fill:#fffdf7"/><path d="M105.48,328.57a299,299,0,0,0,0-31.44h2c3,15.21,16.22,40.9,36.5,40.9,10.14,0,30.42-9.13,30.42-37.18,0-57.8-70.3-103.77-70.3-154.8,0-27.72,15.88-44.28,37.18-44.28,20.28,0,33.46,11.49,36.5,13.86a300.26,300.26,0,0,0,0,31.43h-2c-3-15.21-17.91-40.9-35.82-40.9-13.52,0-23.33,11.16-23.33,27,0,56.11,70,98.36,70,156.83,0,43.61-29.41,52.39-42.93,52.39C123.39,342.42,108.52,330.93,105.48,328.57Zm75.71-34.48c0-31.77-17.91-55.77-34.81-80.44-17.58-25.69-34.82-49-34.82-73.35,0-8.11,2-19.6,7.44-25.69-5.75,6.43-8.79,18.93-8.79,28.06,0,25.69,15.55,49.68,33.46,74.69C161.59,242,179.16,264,179.16,294.09c0,18.25-2.36,28.05-11.49,36.17C176.12,323.16,181.19,310.65,181.19,294.09Z" style="fill:#8a1024"/><path d="M357.62,105.83c-5.06,1.35-9.8,7.09-11.49,17.57l-35.82,219h-4.4l-26-176.77L249.47,342.42h-4.4L210.26,117c-.68-4.73-5.07-8.45-8.45-11.15v-2h28.73v2a11.45,11.45,0,0,0-4.4,11.15l27,178.46,24.68-144.32L272.79,117c-.68-4.73-5.07-8.45-8.45-11.15v-2h28.73v2a11.45,11.45,0,0,0-4.4,11.15l25,176.77L341.06,123.4c1.69-10.48-1-16.22-7.09-17.57v-2h23.65ZM249.13,317.75h.34c-5.07-35.15-9.47-70-14.54-105.12-5.07-34.47-11.49-66.92-17.24-100.38,4.4,33.46,8.12,66.58,13.52,101.06C236.62,248.12,243.38,282.6,249.13,317.75Zm60.84.34v-.34c-4.73-35.15-8.45-70-13.18-105.12-4.74-34.47-11.16-66.92-16.57-100.38,4.06,33.46,7.78,66.58,12.85,101.06C298.14,248.12,304.22,282.6,310,318.09Z" style="fill:#8a1024"/><path d="M379.6,338.37C383,335.66,386,332,386,327.21V117c0-4.73-3-8.45-6.42-11.15v-2H408v2c-3.38,2.7-6.43,6.42-6.43,11.15V327.21c0,4.74,3.05,8.45,6.43,11.16v2H379.6Zm16.22-114.25c0-37.17-1.35-74.69-2-111.87-.67,37.18-2,74.7-2,111.87s1.36,74,2,111.21C394.47,298.15,395.82,261.3,395.82,224.12Z" style="fill:#8a1024"/><path d="M528,105.83c-5.07,1.35-8.45,7.09-8.45,17.91V342.42h-4.39L448.54,115.29V320.45c0,10.82,4.06,16.57,10.14,17.92v2H435.36v-2c5.07-1.35,8.45-7.1,8.45-17.92V117c0-4.73-3-8.45-6.42-11.15v-2h23.66l53.74,178.8V123.74c0-10.82-4.06-16.56-10.14-17.91v-2H528ZM514.11,306.6c-9.46-32.11-17.57-64.9-27-97.35-9.46-32.11-20.61-64.89-31.09-97,9.12,32.45,17.24,66.25,27,98.35S503.3,274.49,514.11,306.6Z" style="fill:#8a1024"/><path d="M647.62,341.41c-4.39-6.42-8.45-12.51-11.15-19.94-8.79,12.17-20.62,20.95-32.79,20.95-34.47,0-51-49.34-51-118,0-66.92,16.57-122.69,51.38-122.69,19.6,0,32.79,10.14,35.83,12.17a297.32,297.32,0,0,0,0,31.43h-2.71c-3-14.53-15.54-39.54-34.13-39.54-20.28,0-32.79,25-32.79,118.63s12.51,113.91,32.45,113.91c14.53,0,24.67-13.18,24.67-37.86V233.59c0-4.73-3-8.45-6.42-11.15v-2h28.39v2c-3.38,2.7-6.42,6.42-6.42,11.15v57.8c0,20.28.34,35.49,6.76,48.67ZM583.4,333c-17.24-21.63-19.94-61.85-19.94-109.85s2.7-88.22,19.94-109.85c-17.24,21.3-24.67,62.53-24.67,109.85S566.16,311.67,583.4,333Zm53.74-54.76c0-18.59-1.69-32.44-2.36-48.67-.68,16.23-2,30.08-2,48.67,0,25,2.7,42.25-13.18,56.45C635.12,321.13,637.14,303.22,637.14,278.2Z" style="fill:#8a1024"/><path d="M729.08,225.48c0-76.39,20.28-123.71,50.7-123.71s50.7,47.32,50.7,123.71-20.28,116.94-50.7,116.94S729.08,301.86,729.08,225.48Zm11.15-2.37c0-48,2.7-88.22,19.94-109.85-17.24,21.3-24.67,62.53-24.67,109.85s7.43,88.56,24.67,109.85C742.93,311.33,740.23,271.11,740.23,223.11Zm72.67,2.37c0-94.3-12.51-119.32-33.12-119.32s-33.13,25-33.13,119.32S759.16,338,779.78,338,812.9,319.78,812.9,225.48Zm11.15-2.37c0-47.32-7.43-88.55-24.67-109.85,17.24,21.63,19.94,61.86,19.94,109.85s-2.7,88.22-19.94,109.85C816.62,311.67,824.05,270.43,824.05,223.11Z" style="fill:#8a1024"/><path d="M949.79,345.13c-26.7-33.46-43.6-74.7-49.69-127.09H879.48V327.21c0,4.74,3,8.45,6.43,11.16v2h-28.4v-2c3.38-2.71,6.43-6.42,6.43-11.16V117c0-4.73-3.05-8.45-6.43-11.15v-2H891c28.39,0,59.48,18.25,59.48,60.84,0,27.71-13.85,43.94-32.44,50,5.07,54.42,14.53,98.36,33.12,129.12Zm-76-121c0-37.17-1.35-74.69-2-111.87-.68,37.18-2,74.7-2,111.87s1.35,74,2,111.21C872.39,298.15,873.74,261.3,873.74,224.12ZM932.89,165c0-39.89-17.92-56.79-41.58-56.79H879.48V213.65h14.88C917.34,213.65,932.89,197.42,932.89,165ZM943.7,333.64c-18.25-33.13-25.35-66.93-32.11-116.95h-1a11.93,11.93,0,0,1-3.38.67C913,264,922.41,297.47,943.7,333.64ZM920,114.28c15.21,12.16,19.61,29.74,19.61,48,0,21-4.06,38.53-20.62,48,16.9-9.47,25-26.7,25-48C944,143.68,934.24,125.43,920,114.28Z" style="fill:#8a1024"/><path d="M1118.11,105.83c-5.07,1.35-8.45,7.09-8.45,17.91V342.42h-4.39l-66.59-227.13V320.45c0,10.82,4.06,16.57,10.14,17.92v2H1025.5v-2c5.07-1.35,8.45-7.1,8.45-17.92V117c0-4.73-3-8.45-6.42-11.15v-2h23.66l53.74,178.8V123.74c0-10.82-4.06-16.56-10.14-17.91v-2h23.32ZM1104.25,306.6c-9.46-32.11-17.57-64.9-27-97.35-9.46-32.11-20.62-64.89-31.09-97,9.12,32.45,17.24,66.25,27,98.35S1093.44,274.49,1104.25,306.6Z" style="fill:#8a1024"/><path d="M1142.78,225.48c0-76.39,20.28-123.71,50.7-123.71s50.7,47.32,50.7,123.71-20.28,116.94-50.7,116.94S1142.78,301.86,1142.78,225.48Zm11.16-2.37c0-48,2.7-88.22,19.94-109.85-17.24,21.3-24.67,62.53-24.67,109.85s7.43,88.56,24.67,109.85C1156.64,311.33,1153.94,271.11,1153.94,223.11Zm72.67,2.37c0-94.3-12.51-119.32-33.13-119.32s-33.12,25-33.12,119.32S1172.87,338,1193.48,338,1226.61,319.78,1226.61,225.48Zm11.15-2.37c0-47.32-7.43-88.55-24.67-109.85,17.24,21.63,19.94,61.86,19.94,109.85s-2.7,88.22-19.94,109.85C1230.33,311.67,1237.76,270.43,1237.76,223.11Z" style="fill:#8a1024"/><path d="M1349,123.4l-2,.68c-5.74-10.14-16.9-16.23-36.16-16.23V327.21c0,4.74,3,8.45,6.42,11.16v2H1288.8v-2c3.38-2.71,6.42-6.42,6.42-11.16V107.85c-19.27,0-30.42,6.09-36.17,16.23l-2-.68,5.74-19.6h80.45ZM1305,224.12c0-37.17-1.35-74.69-2-111.87-.67,37.18-2,74.7-2,111.87s1.35,74,2,111.21C1303.67,298.15,1305,261.3,1305,224.12Z" style="fill:#8a1024"/><path d="M1464.21,117V327.21c0,4.74,3,8.45,6.43,11.16v2h-28.4v-2c3.38-2.71,6.43-6.42,6.43-11.16V214.66h-56.79V327.21c0,4.74,3,8.45,6.42,11.16v2h-28.39v-2c3.38-2.71,6.42-6.42,6.42-11.16V117c0-4.73-3-8.45-6.42-11.15v-2h28.39v2c-3.38,2.7-6.42,6.42-6.42,11.15v93.29h56.79V117c0-4.73-3.05-8.45-6.43-11.15v-2h28.4v2C1467.26,108.53,1464.21,112.25,1464.21,117Zm-78.07,107.14c0-37.17-1.35-74.69-2-111.87-.68,37.18-2,74.7-2,111.87s1.35,74,2,111.21C1384.79,298.15,1386.14,261.3,1386.14,224.12Zm72.33,0c0-37.17-1.35-74.69-2-111.87-.68,37.18-2,74.7-2,111.87s1.35,74,2,111.21C1457.12,298.15,1458.47,261.3,1458.47,224.12Z" style="fill:#8a1024"/><path d="M1499.7,338.37c3.38-2.71,6.42-6.42,6.42-11.16V117c0-4.73-3-8.45-6.42-11.15v-2h28.39v2c-3.38,2.7-6.42,6.42-6.42,11.15V327.21c0,4.74,3,8.45,6.42,11.16v2H1499.7Zm16.22-114.25c0-37.17-1.35-74.69-2-111.87-.68,37.18-2,74.7-2,111.87s1.35,74,2,111.21C1514.57,298.15,1515.92,261.3,1515.92,224.12Z" style="fill:#8a1024"/><path d="M1648.08,105.83c-5.07,1.35-8.45,7.09-8.45,17.91V342.42h-4.4l-66.58-227.13V320.45c0,10.82,4.06,16.57,10.14,17.92v2h-23.32v-2c5.07-1.35,8.45-7.1,8.45-17.92V117c0-4.73-3-8.45-6.42-11.15v-2h23.66l53.74,178.8V123.74c0-10.82-4.06-16.56-10.14-17.91v-2h23.32ZM1634.22,306.6c-9.46-32.11-17.58-64.9-27-97.35-9.46-32.11-20.62-64.89-31.1-97,9.13,32.45,17.24,66.25,27,98.35S1623.4,274.49,1634.22,306.6Z" style="fill:#8a1024"/><path d="M1767.73,341.41c-4.4-6.42-8.45-12.51-11.15-19.94-8.79,12.17-20.62,20.95-32.79,20.95-34.48,0-51-49.34-51-118,0-66.92,16.56-122.69,51.38-122.69,19.6,0,32.78,10.14,35.83,12.17a297.32,297.32,0,0,0,0,31.43h-2.71c-3-14.53-15.55-39.54-34.14-39.54-20.28,0-32.78,25-32.78,118.63s12.5,113.91,32.45,113.91c14.53,0,24.67-13.18,24.67-37.86V233.59c0-4.73-3-8.45-6.42-11.15v-2h28.39v2c-3.38,2.7-6.42,6.42-6.42,11.15v57.8c0,20.28.33,35.49,6.76,48.67ZM1703.51,333c-17.24-21.63-19.94-61.85-19.94-109.85s2.7-88.22,19.94-109.85c-17.24,21.3-24.68,62.53-24.68,109.85S1686.27,311.67,1703.51,333Zm53.74-54.76c0-18.59-1.69-32.44-2.37-48.67-.67,16.23-2,30.08-2,48.67,0,25,2.7,42.25-13.19,56.45C1755.22,321.13,1757.25,303.22,1757.25,278.2Z" style="fill:#8a1024"/><path d="M1796.45,115.63c-.33-11.16,5.07-13.86,9.47-13.86s9.8,2.7,9.46,13.86l-7.1,170.69h-4.73Zm0,217a9.81,9.81,0,1,1,9.81,9.8A9.61,9.61,0,0,1,1796.45,332.62ZM1808,143.34c0-19.6-1.36-25.35-2-31.09-.68,5.74-2,11.49-2,31.09,0,18.59,1.35,55.1,2,91.6C1806.59,198.44,1808,161.93,1808,143.34Z" style="fill:#8a1024"/><path d="M240.29,608.45v1.65H218.85v-1.65c2.75-2.2,5.22-5.23,5.22-9.08V500.1c0-8.53-1.65-14.58-8.8-14.58-6.6,0-18.42,8.25-18.42,28.6v85.25c0,3.85,2.47,6.88,5.22,9.08v1.65H180.62v-1.65c2.75-2.2,5.23-5.23,5.23-9.08V430.8c0-7.42-3.85-9.9-10.45-9.9H150.1V599.37c0,3.85,2.47,6.88,5.22,9.08v1.65h-23.1v-1.65c2.75-2.2,5.23-5.23,5.23-9.08V420.9c-22,0-31.08,5-35.75,13.2l-1.65-.55,4.67-15.95h37.13c19.8,0,49.77-.82,53.07-1.65l1.93.28v83.59c3.57-13.47,14.3-20.35,23.92-20.35,10.45,0,14.3,6.6,14.3,18.7v101.2C235.07,603.22,237.54,606.25,240.29,608.45Zm60.56-13.2,1.38.55c-3,8.8-8.25,16-18.7,16-12.93,0-27.23-9.63-27.23-54.73,0-31.35,6.88-77.55,27.23-77.55,11.82,0,24.2,18.7,24.2,51.15h-41c-.27,3-.27,6-.27,9.08,0,58.85,14.3,63,20.62,63C294.53,602.67,298.65,598.82,300.85,595.25ZM267,527.32h18.15c9.07,0,9.9-1.1,9.9-8.25,0-9.62-1.93-36.57-11.55-36.57C275.83,482.5,268.68,502.57,267,527.32ZM269,467.1l-1.1-1.93A69.39,69.39,0,0,0,287.1,449c3.3-3.85,5.5-6.05,8.8-6.05a6.22,6.22,0,0,1,6.33,6.32c0,3.3-1.65,5.78-10.45,9.08ZM375,603c-2.75,4.67-6.87,8.8-12.92,8.8-5.23,0-8-3-8-9.35v-2.75c-3.85,8.25-9.35,12.1-16.5,12.1-9.07,0-18.42-7.15-18.42-28,0-34.38,26.12-53.35,34.92-58.58V503.67c0-16.22-2.2-20.9-7.7-20.9-11.27,0-11,13.48-9.62,20.9-3,2.48-12.1,2.2-12.1-7.42,0-7.43,8.8-16.78,23.92-16.78,12.93,0,16.5,8.8,16.5,23.1v97.9c0,3.85,1.38,4.68,3,4.68,2.2,0,4.4-1.65,5.5-3ZM323.57,465.72l-.83-2.2c8.25-3.57,15.4-8.8,19.8-18.42h7.7c4.4,9.62,11.55,14.85,19.8,18.42l-.82,2.2a83,83,0,0,1-22.83-9.9A82.75,82.75,0,0,1,323.57,465.72ZM354.09,595V529c-11.82,8-24.2,27.23-24.2,52,0,16.77,5.78,23.65,12.38,23.65C346.67,604.6,350.79,602.12,354.09,595Zm52.09-110.82v111.1c0,6.32,1.92,8.8,6.05,8.8,4.67,0,8-3.58,9.07-5.23l1.38.83c-1.65,4.12-5.23,12.1-14.3,12.1-6.33,0-13.2-3.85-13.2-14V484.15H377.85l.55-3.3c19,0,23.65-9.63,25-37.13l2.75.28v36.85h21.17l-.55,3.3Zm84.59,7.42c0,5.23-3.58,10.73-10.18,10.73a14.64,14.64,0,0,1-6.6-1.65,16.37,16.37,0,0,0,2.75-8.8c0-4.13-1.92-6.6-5.22-6.6-6,0-14,9.07-14,35.75v78.37c0,3.85,2.48,6.88,5.23,9.08v1.65H441.27v-1.65c2.75-2.2,5.22-5.23,5.22-9.08V498.17c0-5.77-1.1-8-6.87-8h-4.13v-2.48c8-1.37,14.85-3.85,20.08-8.25l1.92.28v20.9c2.75-17.6,11.83-21.18,18.7-21.18C485.82,479.47,490.77,485.25,490.77,491.57Zm52.8,103.68,1.37.55c-3,8.8-8.25,16-18.7,16-12.92,0-27.22-9.63-27.22-54.73,0-31.35,6.87-77.55,27.22-77.55,11.83,0,24.2,18.7,24.2,51.15h-41c-.28,3-.28,6-.28,9.08,0,58.85,14.3,63,20.63,63C537.24,602.67,541.37,598.82,543.57,595.25Zm-33.83-67.93h18.15c9.08,0,9.9-1.1,9.9-8.25,0-9.62-1.92-36.57-11.55-36.57C518.54,482.5,511.39,502.57,509.74,527.32Zm155.38,81.13v1.65H649.44l-.55-11.55v-5.23c-3,11.83-10.17,18.43-17.87,18.43-9.08,0-22.83-9.63-22.83-54.73,0-31.35,6.88-77.55,29.43-77.55,5.22,0,9.07,2.75,11.27,7.43V434.65c0-5.78-1.1-8-9.62-8h-4.13V424.2c10.73-1.37,17.6-3.85,22.83-8.25l1.92.28V599.37C659.89,603.22,662.37,606.25,665.12,608.45Zm-16.23-27V500.1c0-9.35-4.12-17.6-11.27-17.6-11,0-19.25,27.22-19.25,57.2,0,58.85,13.75,63,17.87,63C641.19,602.67,648.89,595.52,648.89,581.5Zm75.82,13.75,1.37.55c-3,8.8-8.25,16-18.7,16-12.92,0-27.22-9.63-27.22-54.73,0-31.35,6.87-77.55,27.22-77.55,11.83,0,24.2,18.7,24.2,51.15h-41c-.28,3-.28,6-.28,9.08,0,58.85,14.3,63,20.63,63C718.38,602.67,722.51,598.82,724.71,595.25Zm-33.83-67.93H709c9.08,0,9.9-1.1,9.9-8.25,0-9.62-1.92-36.57-11.55-36.57C699.68,482.5,692.53,502.57,690.88,527.32ZM745,603.77a145.32,145.32,0,0,0,.83-20.07h2.75c1.92,9.9,7.7,25,19,25,3.58,0,14-3,14-21.17,0-25.3-36-55-36-84.7,0-14.58,8.53-23.38,19.8-23.38,10.73,0,18.7,7.43,19.53,9.08a121.85,121.85,0,0,0-.83,17.32h-2.75c-1.92-10.17-7.7-23.37-17-23.37-5.77,0-9.62,5.77-9.62,15.4,0,25.85,35.2,50.87,35.2,85.25,0,24.47-16.23,28.6-23.93,28.6C753.75,611.75,745.78,605.7,745,603.77Zm105.33-88c0-54.45,13.47-99.82,41.8-99.82,15.95,0,26.67,8.25,29.15,9.9a241.86,241.86,0,0,0,0,25.57H919c-2.48-11.82-12.65-31.89-27.78-31.89-16.5,0-26.67,20.34-26.67,96.24s10.17,92.4,26.67,92.4c15.13,0,25.3-20.07,27.78-31.9h2.2a243.22,243.22,0,0,0,0,25.58c-2.48,1.65-13.2,9.9-29.15,9.9C863.75,611.75,850.28,571.6,850.28,515.77Zm152.35,92.68v1.65H981.18v-1.65c2.75-2.2,5.22-5.23,5.22-9.08V500.1c0-8.53-1.65-14.58-8.8-14.58-6.6,0-18.42,8.25-18.42,28.6v85.25c0,3.85,2.47,6.88,5.22,9.08v1.65H943v-1.65c2.75-2.2,5.23-5.23,5.23-9.08V434.65c0-5.78-1.1-8-6.88-8h-4.12V424.2c8-1.37,14.85-3.85,20.07-8.25l1.93.28v83.59c3.57-13.47,14.3-20.35,23.92-20.35,10.45,0,14.3,6.6,14.3,18.7v101.2C997.4,603.22,999.88,606.25,1002.63,608.45Zm68.5-5.5c-2.75,4.67-6.87,8.8-12.92,8.8-5.23,0-8-3-8-9.35v-2.75c-3.85,8.25-9.35,12.1-16.5,12.1-9.07,0-18.42-7.15-18.42-28,0-34.38,26.12-53.35,34.92-58.58V503.67c0-16.22-2.2-20.9-7.7-20.9-11.27,0-11,13.48-9.62,20.9-3,2.48-12.1,2.2-12.1-7.42,0-7.43,8.8-16.78,23.92-16.78,12.93,0,16.5,8.8,16.5,23.1v97.9c0,3.85,1.38,4.68,3,4.68,2.2,0,4.4-1.65,5.5-3Zm-20.9-8V529c-11.82,8-24.2,27.23-24.2,52,0,16.77,5.78,23.65,12.38,23.65C1042.81,604.6,1046.93,602.12,1050.23,595Zm130.19,13.48v1.65H1159v-1.65c2.75-2.2,5.22-5.23,5.22-9.08V500.1c0-8.53-1.65-14.58-8.8-14.58-6.05,0-16.77,8.53-16.77,28.6v85.25c0,3.85,2.47,6.88,5.22,9.08v1.65h-21.45v-1.65c2.75-2.2,5.23-5.23,5.23-9.08V500.1c0-8.53-1.65-14.58-8.8-14.58-6.33,0-17.33,8.53-17.33,28.6v85.25c0,3.85,2.48,6.88,5.23,9.08v1.65h-21.45v-1.65c2.75-2.2,5.22-5.23,5.22-9.08V498.17c0-5.77-1.1-8-6.87-8h-4.13v-2.48c8-1.37,14.85-3.85,20.08-8.25l1.92.28v19.8c3.3-13.2,13.75-20.08,22.83-20.08,10.45,0,14.3,6.6,14.3,18.7v1.38c3.3-13.2,13.47-20.08,22.27-20.08,10.45,0,14.3,6.6,14.3,18.7v101.2C1175.19,603.22,1177.67,606.25,1180.42,608.45Zm74-74.25c0,31.35-6.87,77.55-29.42,77.55-5.23,0-9.08-2.75-11.28-7.43v50c0,3.85,3.85,6.87,8.25,9.07v1.65h-24.47v-1.65c2.75-2.2,5.22-5.22,5.22-9.07V498.17c0-5.22-.55-8-7.15-8h-3.85v-2.48c9.9-1.92,14.85-4.12,20.08-8.25l1.92.28V497.9c3-11.83,10.18-18.43,17.88-18.43C1240.64,479.47,1254.39,489.1,1254.39,534.2Zm-10.17,17.32c0-58.85-13.75-63-17.88-63-4.95,0-12.65,7.15-12.65,21.17v81.4c0,9.35,4.13,17.6,11.28,17.6C1236,608.72,1244.22,581.5,1244.22,551.52Zm25,52.25a145.94,145.94,0,0,0,.82-20.07h2.75c1.93,9.9,7.7,25,19,25,3.57,0,14-3,14-21.17,0-25.3-36-55-36-84.7,0-14.58,8.52-23.38,19.8-23.38,10.72,0,18.7,7.43,19.52,9.08a122.29,122.29,0,0,0-.82,17.32h-2.75c-1.93-10.17-7.7-23.37-17-23.37-5.78,0-9.63,5.77-9.63,15.4,0,25.85,35.2,50.87,35.2,85.25,0,24.47-16.22,28.6-23.92,28.6C1278,611.75,1270,605.7,1269.19,603.77Zm54.64-78.92H1381v3.57h-57.2Zm142.31,66.27-2.75,19h-62.7v-1.65c2.75-2.2,5.23-5.23,5.23-9.08v-171c0-3.85-2.48-6.87-5.23-9.07V417.6h59.4l1.93,16.77-1.65.55c-3.58-8.8-8.8-13.47-22.83-13.47h-19v82.77h25.57c5.5,0,8-1.92,10.45-7.15h1.65a100,100,0,0,0,0,18.15h-1.65c-2.47-5.5-4.95-7.42-10.45-7.42h-25.57v88.55c0,7.7,3.57,10.17,11,10.17h10.72c13.48,0,20.08-5.22,24.2-15.95Zm-46.75-184.79-.82-2.2a69.51,69.51,0,0,0,20.62-14.3c3.3-3.3,5.78-5.23,8.8-5.23a6.23,6.23,0,0,1,6.33,6.33c0,3.3-1.93,5.77-11.28,8.52Zm65,202.12c2.75-2.2,5.23-5.23,5.23-9.08V434.65c0-5.78-1.1-8-6.88-8h-4.12V424.2c8-1.37,14.85-3.85,20.07-8.25l1.93.28V599.37c0,3.85,2.47,6.88,5.22,9.08v1.65h-21.45Zm87.42-126c-2.75,2.2-6.32,5.22-6.87,9.07l-23.1,152.35c-1.37,8.8-3.85,21.17-13.2,21.17-5,0-7.42-4.67-8.52-12.65,6.87,3,17.87-3.29,20.35-19.52l3-20.9-22-120.72c-.82-3.58-4.4-6.6-7.15-8.8v-1.65h20.9v1.65a8.91,8.91,0,0,0-3.3,8.8l16.5,88.82,13.2-88.55a9.3,9.3,0,0,0-3.57-9.07v-1.65h13.74Zm9.41,121.27a145.94,145.94,0,0,0,.82-20.07h2.75c1.93,9.9,7.7,25,19,25,3.57,0,14-3,14-21.17,0-25.3-36-55-36-84.7,0-14.58,8.52-23.38,19.8-23.38,10.72,0,18.7,7.43,19.52,9.08a122.29,122.29,0,0,0-.82,17.32h-2.75c-1.93-10.17-7.7-23.37-17-23.37-5.78,0-9.63,5.77-9.63,15.4,0,25.85,35.2,50.87,35.2,85.25,0,24.47-16.22,28.6-23.92,28.6C1590.06,611.75,1582.08,605.7,1581.26,603.77ZM1686,595.25l1.37.55c-3,8.8-8.25,16-18.7,16-12.92,0-27.22-9.63-27.22-54.73,0-31.35,6.87-77.55,27.22-77.55,11.83,0,24.2,18.7,24.2,51.15h-41c-.28,3-.28,6-.28,9.08,0,58.85,14.3,63,20.63,63C1679.68,602.67,1683.81,598.82,1686,595.25Zm-33.83-67.93h18.15c9.08,0,9.9-1.1,9.9-8.25,0-9.62-1.92-36.57-11.55-36.57C1661,482.5,1653.83,502.57,1652.18,527.32Zm1.93-60.22-1.1-1.93A69.39,69.39,0,0,0,1672.26,449c3.3-3.85,5.5-6.05,8.8-6.05a6.22,6.22,0,0,1,6.32,6.32c0,3.3-1.65,5.78-10.45,9.08Zm98.45,128.15,1.37.55c-3,8.8-8.25,16-18.7,16-12.92,0-27.22-9.63-27.22-54.73,0-31.35,6.87-77.55,27.22-77.55,11.83,0,24.2,18.7,24.2,51.15h-41c-.28,3-.28,6-.28,9.08,0,58.85,14.3,63,20.63,63C1746.23,602.67,1750.36,598.82,1752.56,595.25Zm-33.83-67.93h18.15c9.08,0,9.9-1.1,9.9-8.25,0-9.62-1.92-36.57-11.55-36.57C1727.53,482.5,1720.38,502.57,1718.73,527.32Zm54.1,76.45a145.94,145.94,0,0,0,.82-20.07h2.75c1.93,9.9,7.7,25,19,25,3.57,0,14-3,14-21.17,0-25.3-36-55-36-84.7,0-14.58,8.52-23.38,19.8-23.38,10.72,0,18.7,7.43,19.52,9.08a122.29,122.29,0,0,0-.82,17.32h-2.75c-1.93-10.17-7.7-23.37-17.05-23.37-5.78,0-9.63,5.77-9.63,15.4,0,25.85,35.2,50.87,35.2,85.25,0,24.47-16.22,28.6-23.92,28.6C1781.63,611.75,1773.65,605.7,1772.83,603.77Z" style="fill:#ef4135"/><path d="M157.15,1101.66c-15-18.81-24.51-42-27.93-71.44H117.63v61.37c0,2.66,1.71,4.75,3.61,6.27V1099h-16v-1.14c1.9-1.52,3.61-3.61,3.61-6.27V973.41c0-2.66-1.71-4.75-3.61-6.27V966h18.81c16,0,33.44,10.26,33.44,34.2,0,15.58-7.79,24.7-18.24,28.12,2.85,30.59,8.17,55.29,18.62,72.58Zm-9.5-101.27c0-22.42-10.07-31.92-23.37-31.92h-6.65v59.28H126C138.91,1027.75,147.65,1018.63,147.65,1000.39Z" style="fill:#8a1024"/><path d="M196.48,1088.74l1,.38c-2.09,6.08-5.7,11-12.92,11-8.93,0-18.81-6.65-18.81-37.81,0-21.66,4.75-53.58,18.81-53.58,8.17,0,16.72,12.92,16.72,35.34H172.92c-.19,2.09-.19,4.18-.19,6.27,0,40.66,9.88,43.51,14.25,43.51A10.55,10.55,0,0,0,196.48,1088.74Zm-23.37-46.93h12.54c6.27,0,6.84-.76,6.84-5.7,0-6.65-1.33-25.27-8-25.27C179.19,1010.84,174.25,1024.71,173.11,1041.81Z" style="fill:#8a1024"/><path d="M212.25,1097.86c1.9-1.52,3.61-3.61,3.61-6.27v-69.92c0-4-.76-5.51-4.75-5.51h-2.85v-1.71c5.51-1,10.26-2.66,13.87-5.7l1.33.19v82.65c0,2.66,1.71,4.75,3.61,6.27V1099H212.25Zm1.14-108.3a5.51,5.51,0,1,1,5.51,5.51A5.4,5.4,0,0,1,213.39,989.56Z" style="fill:#8a1024"/><path d="M274.38,1094.06c-1.9,3.23-4.75,6.08-8.93,6.08-3.61,0-5.51-2.09-5.51-6.46v-1.9c-2.66,5.7-6.46,8.36-11.4,8.36-6.27,0-12.73-4.94-12.73-19.38,0-23.75,18.05-36.86,24.13-40.47v-14.82c0-11.21-1.52-14.44-5.32-14.44-7.79,0-7.6,9.31-6.65,14.44-2.09,1.71-8.36,1.52-8.36-5.13,0-5.13,6.08-11.59,16.53-11.59,8.93,0,11.4,6.08,11.4,16v67.64c0,2.66.95,3.23,2.09,3.23a5.45,5.45,0,0,0,3.8-2.09Zm-14.44-5.51V1043c-8.17,5.51-16.72,18.81-16.72,35.91,0,11.59,4,16.34,8.55,16.34C254.81,1095.2,257.66,1093.49,259.94,1088.55Z" style="fill:#8a1024"/><path d="M284.26,1097.86c1.9-1.52,3.61-3.61,3.61-6.27V977.78c0-4-.76-5.51-4.75-5.51h-2.85v-1.71c5.51-.95,10.26-2.66,13.87-5.7l1.33.19v126.54c0,2.66,1.71,4.75,3.61,6.27V1099H284.26Z" style="fill:#8a1024"/><path d="M424.09,1097.86V1099H405.85v-1.14a6.55,6.55,0,0,0,2.66-6.27L393.88,971.51,378.3,1100.14h-2.47L358.54,972.27l-12.73,115.52c-.57,6.08,1.14,9.31,4.56,10.07V1099h-13.3v-1.14c2.85-.76,5.32-4,5.89-10.07l12.73-114.38a7.1,7.1,0,0,0-2.85-6.27V966h13.68l13.11,97.47,12-97.47h14.06v1.14a6.55,6.55,0,0,0-2.66,6.27l14.44,118.18C417.82,1094.25,421.05,1096.34,424.09,1097.86Z" style="fill:#8a1024"/><path d="M430.93,1056.25c0-32.11,7.79-47.5,19.38-47.5,11.78,0,19.57,15.39,19.57,47.5,0,28.5-7.79,43.89-19.57,43.89C438.72,1100.14,430.93,1084.75,430.93,1056.25Zm30.78,0c0-36.48-4.37-45.41-11.4-45.41-6.84,0-11.21,8.93-11.21,45.41,0,32.87,4.37,41.8,11.21,41.8C457.34,1098.05,461.71,1089.12,461.71,1056.25Z" style="fill:#8a1024"/><path d="M522.32,1097.86V1099H507.5v-1.14c1.9-1.52,3.61-3.61,3.61-6.27V1023c0-5.89-1.14-10.07-6.08-10.07-4.56,0-12.73,5.7-12.73,19.76v58.9c0,2.66,1.71,4.75,3.61,6.27V1099H481.09v-1.14c1.9-1.52,3.61-3.61,3.61-6.27v-69.92c0-4-.76-5.51-4.75-5.51H477.1v-1.71c5.51-1,10.26-2.66,13.87-5.7l1.33.19v13.87c2.47-9.31,9.88-14.06,16.53-14.06,7.22,0,9.88,4.56,9.88,12.92v69.92C518.71,1094.25,520.42,1096.34,522.32,1097.86Z" style="fill:#8a1024"/><path d="M563.17,1088.74l1,.38c-2.09,6.08-5.7,11-12.92,11-8.93,0-18.81-6.65-18.81-37.81,0-21.66,4.75-53.58,18.81-53.58,8.17,0,16.72,12.92,16.72,35.34H539.61c-.19,2.09-.19,4.18-.19,6.27,0,40.66,9.88,43.51,14.25,43.51A10.55,10.55,0,0,0,563.17,1088.74Zm-23.37-46.93h12.54c6.27,0,6.84-.76,6.84-5.7,0-6.65-1.33-25.27-8-25.27C545.88,1010.84,540.94,1024.71,539.8,1041.81Z" style="fill:#8a1024"/><path d="M577.23,1094.63a100.65,100.65,0,0,0,.57-13.87h1.9c1.33,6.84,5.32,17.29,13.11,17.29,2.47,0,9.69-2.09,9.69-14.63,0-17.48-24.89-38-24.89-58.52,0-10.07,5.89-16.15,13.68-16.15,7.41,0,12.92,5.13,13.49,6.27a84.4,84.4,0,0,0-.57,12h-1.9c-1.33-7-5.32-16.15-11.78-16.15-4,0-6.65,4-6.65,10.64,0,17.86,24.32,35.15,24.32,58.9,0,16.91-11.21,19.76-16.53,19.76C583.31,1100.14,577.8,1096,577.23,1094.63Z" style="fill:#8a1024"/><path d="M633.09,1012v76.76c0,4.37,1.33,6.08,4.18,6.08,3.23,0,5.51-2.47,6.27-3.61l1,.57c-1.14,2.85-3.61,8.36-9.88,8.36-4.37,0-9.12-2.66-9.12-9.69V1012h-12l.38-2.28c13.11,0,16.34-6.65,17.29-25.65l1.9.19v25.46h14.63l-.38,2.28Z" style="fill:#8a1024"/><path d="M657.21,1097.86c1.9-1.52,3.61-3.61,3.61-6.27v-69.92c0-4-.76-5.51-4.75-5.51h-2.85v-1.71c5.51-1,10.26-2.66,13.87-5.7l1.33.19v82.65c0,2.66,1.71,4.75,3.61,6.27V1099H657.21Zm1.14-108.3a5.51,5.51,0,1,1,5.51,5.51A5.4,5.4,0,0,1,658.35,989.56Z" style="fill:#8a1024"/><path d="M717.82,1017.11c0,3.61-2.47,7.41-7,7.41a10.12,10.12,0,0,1-4.56-1.14,11.33,11.33,0,0,0,1.9-6.08c0-2.85-1.33-4.56-3.61-4.56-4.18,0-9.69,6.27-9.69,24.7v54.15c0,2.66,1.71,4.75,3.61,6.27V1099H683.62v-1.14c1.9-1.52,3.61-3.61,3.61-6.27v-69.92c0-4-.76-5.51-4.75-5.51h-2.85v-1.71c5.51-1,10.26-2.66,13.87-5.7l1.33.19v14.44c1.9-12.16,8.17-14.63,12.92-14.63C714.4,1008.75,717.82,1012.74,717.82,1017.11Z" style="fill:#8a1024"/><path d="M792.3,1097.86V1099H781.47l-.38-8v-3.61c-2.09,8.17-7,12.73-12.35,12.73-6.27,0-15.77-6.65-15.77-37.81,0-21.66,4.75-53.58,20.33-53.58a8.26,8.26,0,0,1,7.79,5.13v-36.1c0-4-.76-5.51-6.65-5.51h-2.85v-1.71c7.41-.95,12.16-2.66,15.77-5.7l1.33.19v126.54C788.69,1094.25,790.4,1096.34,792.3,1097.86Zm-11.21-18.62V1023c0-6.46-2.85-12.16-7.79-12.16-7.6,0-13.3,18.81-13.3,39.52,0,40.66,9.5,43.51,12.35,43.51C775.77,1093.87,781.09,1088.93,781.09,1079.24Z" style="fill:#8a1024"/><path d="M833.53,1088.74l1,.38c-2.09,6.08-5.7,11-12.92,11-8.93,0-18.81-6.65-18.81-37.81,0-21.66,4.75-53.58,18.81-53.58,8.17,0,16.72,12.92,16.72,35.34H810c-.19,2.09-.19,4.18-.19,6.27,0,40.66,9.88,43.51,14.25,43.51A10.55,10.55,0,0,0,833.53,1088.74Zm-23.37-46.93H822.7c6.27,0,6.84-.76,6.84-5.7,0-6.65-1.33-25.27-8-25.27C816.24,1010.84,811.3,1024.71,810.16,1041.81Z" style="fill:#8a1024"/><path d="M878.94,1092.35a169,169,0,0,0,0-17.67h1.14c1.71,8.55,9.12,23,20.52,23,5.7,0,17.1-5.13,17.1-20.9,0-32.49-39.52-58.33-39.52-87,0-15.58,8.93-24.89,20.9-24.89,11.4,0,18.81,6.46,20.52,7.79a168.17,168.17,0,0,0,0,17.67h-1.14c-1.71-8.55-10.07-23-20.14-23-7.6,0-13.11,6.27-13.11,15.2,0,31.54,39.33,55.29,39.33,88.16,0,24.51-16.53,29.45-24.13,29.45C889,1100.14,880.65,1093.68,878.94,1092.35Z" style="fill:#8a1024"/><path d="M975.46,1094.06c-1.9,3.23-4.75,6.08-8.93,6.08-3.61,0-5.51-2.09-5.51-6.46v-1.9c-2.66,5.7-6.46,8.36-11.4,8.36-6.27,0-12.73-4.94-12.73-19.38,0-23.75,18.05-36.86,24.13-40.47v-14.82c0-11.21-1.52-14.44-5.32-14.44-7.79,0-7.6,9.31-6.65,14.44-2.09,1.71-8.36,1.52-8.36-5.13,0-5.13,6.08-11.59,16.53-11.59,8.93,0,11.4,6.08,11.4,16v67.64c0,2.66,1,3.23,2.09,3.23a5.45,5.45,0,0,0,3.8-2.09ZM961,1088.55V1043c-8.17,5.51-16.72,18.81-16.72,35.91,0,11.59,4,16.34,8.55,16.34C955.89,1095.2,958.74,1093.49,961,1088.55Z" style="fill:#8a1024"/><path d="M1026.57,1097.86V1099h-14.82v-1.14c1.9-1.52,3.61-3.61,3.61-6.27V1023c0-5.89-1.14-10.07-6.08-10.07-4.56,0-12.73,5.7-12.73,19.76v58.9c0,2.66,1.71,4.75,3.61,6.27V1099H985.34v-1.14c1.9-1.52,3.61-3.61,3.61-6.27v-69.92c0-4-.76-5.51-4.75-5.51h-2.85v-1.71c5.51-1,10.26-2.66,13.87-5.7l1.33.19v13.87c2.47-9.31,9.88-14.06,16.53-14.06,7.22,0,9.88,4.56,9.88,12.92v69.92C1023,1094.25,1024.67,1096.34,1026.57,1097.86Z" style="fill:#8a1024"/><path d="M1051.65,1012v76.76c0,4.37,1.33,6.08,4.18,6.08,3.23,0,5.51-2.47,6.27-3.61l1,.57c-1.14,2.85-3.61,8.36-9.88,8.36-4.37,0-9.12-2.66-9.12-9.69V1012h-12l.38-2.28c13.11,0,16.34-6.65,17.29-25.65l1.9.19v25.46h14.63l-.38,2.28Z" style="fill:#8a1024"/><path d="M1110.17,1094.06c-1.9,3.23-4.75,6.08-8.93,6.08-3.61,0-5.51-2.09-5.51-6.46v-1.9c-2.66,5.7-6.46,8.36-11.4,8.36-6.27,0-12.73-4.94-12.73-19.38,0-23.75,18.05-36.86,24.13-40.47v-14.82c0-11.21-1.52-14.44-5.32-14.44-7.79,0-7.6,9.31-6.65,14.44-2.09,1.71-8.36,1.52-8.36-5.13,0-5.13,6.08-11.59,16.53-11.59,8.93,0,11.4,6.08,11.4,16v67.64c0,2.66,1,3.23,2.09,3.23a5.45,5.45,0,0,0,3.8-2.09Zm-14.44-5.51V1043c-8.17,5.51-16.72,18.81-16.72,35.91,0,11.59,4,16.34,8.55,16.34C1090.6,1095.2,1093.45,1093.49,1095.73,1088.55Z" style="fill:#8a1024"/><path d="M1232.33,1097.86V1099h-18.24v-1.14a6.55,6.55,0,0,0,2.66-6.27l-14.63-120.08-15.58,128.63h-2.47l-17.29-127.87-12.73,115.52c-.57,6.08,1.14,9.31,4.56,10.07V1099h-13.3v-1.14c2.85-.76,5.32-4,5.89-10.07l12.73-114.38a7.1,7.1,0,0,0-2.85-6.27V966h13.68l13.11,97.47,12-97.47h14.06v1.14a6.55,6.55,0,0,0-2.66,6.27l14.44,118.18C1226.06,1094.25,1229.29,1096.34,1232.33,1097.86Z" style="fill:#8a1024"/><path d="M1279.26,1094.06c-1.9,3.23-4.75,6.08-8.93,6.08-3.61,0-5.51-2.09-5.51-6.46v-1.9c-2.66,5.7-6.46,8.36-11.4,8.36-6.27,0-12.73-4.94-12.73-19.38,0-23.75,18-36.86,24.13-40.47v-14.82c0-11.21-1.52-14.44-5.32-14.44-7.79,0-7.6,9.31-6.65,14.44-2.09,1.71-8.36,1.52-8.36-5.13,0-5.13,6.08-11.59,16.53-11.59,8.93,0,11.4,6.08,11.4,16v67.64c0,2.66.95,3.23,2.09,3.23a5.45,5.45,0,0,0,3.8-2.09Zm-14.44-5.51V1043c-8.17,5.51-16.72,18.81-16.72,35.91,0,11.59,4,16.34,8.55,16.34C1259.69,1095.2,1262.54,1093.49,1264.82,1088.55Z" style="fill:#8a1024"/><path d="M1323.34,1017.11c0,3.61-2.47,7.41-7,7.41a10.12,10.12,0,0,1-4.56-1.14,11.33,11.33,0,0,0,1.9-6.08c0-2.85-1.33-4.56-3.61-4.56-4.18,0-9.69,6.27-9.69,24.7v54.15c0,2.66,1.71,4.75,3.61,6.27V1099h-14.82v-1.14c1.9-1.52,3.61-3.61,3.61-6.27v-69.92c0-4-.76-5.51-4.75-5.51h-2.85v-1.71c5.51-1,10.26-2.66,13.87-5.7l1.33.19v14.44c1.9-12.16,8.17-14.63,12.92-14.63C1319.92,1008.75,1323.34,1012.74,1323.34,1017.11Z" style="fill:#8a1024"/><path d="M1334.36,1097.86c1.9-1.52,3.61-3.61,3.61-6.27v-69.92c0-4-.76-5.51-4.75-5.51h-2.85v-1.71c5.51-1,10.26-2.66,13.87-5.7l1.33.19v82.65c0,2.66,1.71,4.75,3.61,6.27V1099h-14.82Zm1.14-108.3a5.51,5.51,0,1,1,5.51,5.51A5.4,5.4,0,0,1,1335.5,989.56Z" style="fill:#8a1024"/><path d="M1396.49,1094.06c-1.9,3.23-4.75,6.08-8.93,6.08-3.61,0-5.51-2.09-5.51-6.46v-1.9c-2.66,5.7-6.46,8.36-11.4,8.36-6.27,0-12.73-4.94-12.73-19.38,0-23.75,18-36.86,24.13-40.47v-14.82c0-11.21-1.52-14.44-5.32-14.44-7.79,0-7.6,9.31-6.65,14.44-2.09,1.71-8.36,1.52-8.36-5.13,0-5.13,6.08-11.59,16.53-11.59,8.93,0,11.4,6.08,11.4,16v67.64c0,2.66.95,3.23,2.09,3.23a5.45,5.45,0,0,0,3.8-2.09Zm-14.44-5.51V1043c-8.17,5.51-16.72,18.81-16.72,35.91,0,11.59,4,16.34,8.55,16.34C1376.92,1095.2,1379.77,1093.49,1382.05,1088.55Z" style="fill:#8a1024"/><path d="M1473.82,1097.86V1099H1463l-.38-8v-3.61c-2.09,8.17-7,12.73-12.35,12.73-6.27,0-15.77-6.65-15.77-37.81,0-21.66,4.75-53.58,20.33-53.58a8.26,8.26,0,0,1,7.79,5.13v-36.1c0-4-.76-5.51-6.65-5.51h-2.85v-1.71c7.41-.95,12.16-2.66,15.77-5.7l1.33.19v126.54C1470.21,1094.25,1471.92,1096.34,1473.82,1097.86Zm-11.21-18.62V1023c0-6.46-2.85-12.16-7.79-12.16-7.6,0-13.3,18.81-13.3,39.52,0,40.66,9.5,43.51,12.35,43.51C1457.29,1093.87,1462.61,1088.93,1462.61,1079.24Z" style="fill:#8a1024"/><path d="M1515.05,1088.74l1,.38c-2.09,6.08-5.7,11-12.92,11-8.93,0-18.81-6.65-18.81-37.81,0-21.66,4.75-53.58,18.81-53.58,8.17,0,16.72,12.92,16.72,35.34h-28.31c-.19,2.09-.19,4.18-.19,6.27,0,40.66,9.88,43.51,14.25,43.51A10.55,10.55,0,0,0,1515.05,1088.74Zm-23.37-46.93h12.54c6.27,0,6.84-.76,6.84-5.7,0-6.65-1.33-25.27-8-25.27C1497.76,1010.84,1492.82,1024.71,1491.68,1041.81Z" style="fill:#8a1024"/><path d="M1614,1001.15c0,21.28-13.87,31-29.45,31h-9.69v59.47c0,2.66,2.66,4.75,5.7,6.27V1099h-18v-1.14c1.9-1.52,3.61-3.61,3.61-6.27V973.41c0-2.66-1.71-4.75-3.61-6.27V966h18C1596.55,966,1614,976.45,1614,1001.15Zm-9.88.19c0-23.18-10.07-32.87-23.37-32.87h-5.89v61.18h7.6C1595.41,1029.65,1604.15,1020.15,1604.15,1001.34Z" style="fill:#8a1024"/><path d="M1621.25,1056.25c0-32.11,7.79-47.5,19.38-47.5,11.78,0,19.57,15.39,19.57,47.5,0,28.5-7.79,43.89-19.57,43.89C1629,1100.14,1621.25,1084.75,1621.25,1056.25Zm30.78,0c0-36.48-4.37-45.41-11.4-45.41-6.84,0-11.21,8.93-11.21,45.41,0,32.87,4.37,41.8,11.21,41.8C1647.66,1098.05,1652,1089.12,1652,1056.25Z" style="fill:#8a1024"/><path d="M1710.17,1046.56c0,21.66-4.75,53.58-20.33,53.58-4.56,0-7.41-3-8.74-7.79l-4.94,6.65h-1.71V977.78c0-4-.76-5.51-4.75-5.51h-2.85v-1.71c5.51-.95,10.26-2.66,13.87-5.7l1.33.19v56.43c2.09-8.17,7-12.73,12.35-12.73C1700.67,1008.75,1710.17,1015.4,1710.17,1046.56Zm-7,12c0-40.66-9.5-43.51-12.35-43.51-3.42,0-8.74,4.94-8.74,14.63v56.24c0,6.46,2.85,12.16,7.79,12.16C1697.44,1098.05,1703.14,1079.24,1703.14,1058.53Z" style="fill:#8a1024"/><path d="M1720.81,1097.86c1.9-1.52,3.61-3.61,3.61-6.27V977.78c0-4-.76-5.51-4.75-5.51h-2.85v-1.71c5.51-.95,10.26-2.66,13.87-5.7l1.33.19v126.54c0,2.66,1.71,4.75,3.61,6.27V1099h-14.82Z" style="fill:#8a1024"/><path d="M1776.86,1088.74l1,.38c-2.09,6.08-5.7,11-12.92,11-8.93,0-18.81-6.65-18.81-37.81,0-21.66,4.75-53.58,18.81-53.58,8.17,0,16.72,12.92,16.72,35.34H1753.3c-.19,2.09-.19,4.18-.19,6.27,0,40.66,9.88,43.51,14.25,43.51A10.55,10.55,0,0,0,1776.86,1088.74Zm-23.37-46.93H1766c6.27,0,6.84-.76,6.84-5.7,0-6.65-1.33-25.27-8-25.27C1759.57,1010.84,1754.63,1024.71,1753.49,1041.81Z" style="fill:#8a1024"/><path d="M1804.59,1012v76.76c0,4.37,1.33,6.08,4.18,6.08,3.23,0,5.51-2.47,6.27-3.61l1,.57c-1.14,2.85-3.61,8.36-9.88,8.36-4.37,0-9.12-2.66-9.12-9.69V1012h-12l.38-2.28c13.11,0,16.34-6.65,17.29-25.65l1.9.19v25.46h14.63l-.38,2.28Z" style="fill:#8a1024"/><path d="M169.68,733.66l-1.39.46c-3.94-7-11.6-11.13-24.82-11.13V873.55c0,3.25,2.09,5.8,4.41,7.66v1.39H125.61v-1.39c2.32-1.86,4.4-4.41,4.4-7.66V723c-13.22,0-20.88,4.17-24.82,11.13l-1.39-.46,3.94-13.46h58Zm-33.17-10H133V873.32c0,3-.93,4.87-1.86,5.8h5.34Z"/><path d="M248.79,729.25v144.3c0,3.25,2.09,5.8,4.41,7.66v1.39h-22v-1.39c2.32-1.86,4.41-4.41,4.41-7.66v-77H201.7v77c0,3.25,2.09,5.8,4.41,7.66v1.39h-22v-1.39c2.32-1.86,4.41-4.41,4.41-7.66V729.25c0-3.25-2.09-5.8-4.41-7.66V720.2h22v1.39c-2.32,1.86-4.41,4.41-4.41,7.66v63.57h33.87V729.25c0-3.25-2.09-5.8-4.41-7.66V720.2h22v1.39C250.88,723.45,248.79,726,248.79,729.25ZM195,723.68h-5.33c.92.93,1.85,2.78,1.85,5.8V873.32c0,3-.93,4.87-1.85,5.8H195Zm47.1,0h-5.34c.93.93,1.86,2.78,1.86,5.8V873.32c0,3-.93,4.87-1.86,5.8h5.34Z"/><path d="M329.3,866.59l-2.32,16H272.92v-1.39c2.32-1.86,4.41-4.41,4.41-7.66V729.25c0-3.25-2.09-5.8-4.41-7.66V720.2h51.27l1.63,14.38-1.4.47c-3-7.66-7.42-11.6-19.25-11.6H290.55v69.37H311.9c4.64,0,6.72-1.63,8.81-6h1.39a90.39,90.39,0,0,0,0,15.78h-1.39c-2.09-4.41-4.17-6-8.81-6H290.55v72.15c0,8.58,3.72,10.67,13.92,10.67h3c11.37,0,16.93-4.18,20.41-13.22ZM283.83,723.68h-5.34c.93.93,1.86,2.78,1.86,5.8V873.32c0,3-.93,4.87-1.86,5.8h5.34Z"/><path d="M437.87,866.59l-2.32,16H381.5v-1.39c2.31-1.86,4.4-4.41,4.4-7.66V729.25c0-3.25-2.09-5.8-4.4-7.66V720.2h51.27l1.62,14.38-1.39.47c-3-7.66-7.43-11.6-19.26-11.6H399.13v69.37h21.34c4.64,0,6.73-1.63,8.82-6h1.39a88.48,88.48,0,0,0,0,15.78h-1.39c-2.09-4.41-4.18-6-8.82-6H399.13v72.15c0,8.58,3.71,10.67,13.92,10.67h3c11.37,0,16.94-4.18,20.42-13.22ZM392.4,723.68h-5.34c.93.93,1.86,2.78,1.86,5.8V873.32c0,3-.93,4.87-1.86,5.8h5.34Z"/><path d="M558.51,881.21v1.39H533.22v-1.39a8,8,0,0,0,3.25-7.66l-17.4-143.14L500.28,884h-3L476.84,730.18,461.3,868.91c-.7,7.42,1.39,11.37,5.57,12.3v1.39H450.63v-1.39c3.48-.93,6.49-4.88,7.19-12.3l15.54-139.66a8.66,8.66,0,0,0-3.48-7.66V720.2h18.8l14.38,109.27L516.75,720.2H536v1.39a8,8,0,0,0-3.25,7.66l17.64,144.3C550.85,876.8,554.79,879.35,558.51,881.21Zm-59.86-10.44.7-7.66.46-5.8L482.64,723.68h-6a8,8,0,0,1,3,5.11Zm45,8.35L524.87,723.68h-3.48l18.32,149.64a6.45,6.45,0,0,1-1.85,5.8Z"/><path d="M637.62,766.37c0,23.66-15.55,34.57-36,34.57h-9.28v72.61c0,3.25,3.25,5.8,7,7.66v1.39H574.75v-1.39c2.32-1.86,4.4-4.41,4.4-7.66V729.25c0-3.25-2.08-5.8-4.4-7.66V720.2h22C616.27,720.2,637.62,733.89,637.62,766.37Zm-52-42.69h-5.34c.93.93,1.86,2.78,1.86,5.8V873.32c0,3-.93,4.87-1.86,5.8h5.34Zm38.28,42.92c0-30.62-11.6-43.38-26.91-43.38h-4.64v74.7h6.73C615.11,797.92,623.93,787.48,623.93,766.6Zm7.42-.23c0-17.87-6.49-34.57-20.88-42,14.85,7.65,16.94,27.14,16.94,42,0,11.37-2.55,25.52-14.15,30.85C625.09,792.12,631.35,779.82,631.35,766.37Z"/><path d="M652.46,881.21c2.32-1.86,4.41-4.41,4.41-7.66V729.25c0-3.25-2.09-5.8-4.41-7.66V720.2h22v1.39c-2.32,1.86-4.4,4.41-4.4,7.66v144.3c0,3.25,2.08,5.8,4.4,7.66v1.39h-22Zm10.91-2.09V723.68H658c.93.93,1.86,2.78,1.86,5.8V873.32c0,3-.93,4.87-1.86,5.8Z"/><path d="M757.56,885.85c-18.1-22.51-30.86-51.27-34.34-87.23H711.85v74.93c0,3.25,2.09,5.8,4.41,7.66v1.39h-22v-1.39c2.32-1.86,4.41-4.41,4.41-7.66V729.25c0-3.25-2.09-5.8-4.41-7.66V720.2h22.5c20.19,0,41.53,13,41.53,43.85,0,20.18-10.21,28.77-20.41,32.25,2.55,38,8.81,68,20.64,88.62ZM705.12,723.68h-5.33c.93.93,1.85,2.78,1.85,5.8V873.32c0,3-.92,4.87-1.85,5.8h5.33Zm39.44,40.6c0-29-11.6-41.06-28.07-41.06h-4.64V795.6h6.27Q744.57,795.6,744.56,764.28Zm7,110.43c-10.67-19.49-17.63-46.86-19.95-76.79l-4.17.7A183.91,183.91,0,0,0,751.52,874.71Zm-19-149.64h0Zm.23,0C746,732.5,748,750.59,748,764.28c0,11.37-2.55,25.29-12.76,30.16C745.72,789.57,752,777.5,752,764.28,752,747.58,745.49,732.27,732.73,725.07Z"/><path d="M832.26,866.59l-2.32,16H775.88v-1.39c2.32-1.86,4.41-4.41,4.41-7.66V729.25c0-3.25-2.09-5.8-4.41-7.66V720.2h51.28l1.62,14.38-1.39.47c-3-7.66-7.43-11.6-19.26-11.6H793.52v69.37h21.34c4.64,0,6.73-1.63,8.82-6h1.39a88.48,88.48,0,0,0,0,15.78h-1.39c-2.09-4.41-4.18-6-8.82-6H793.52v72.15c0,8.58,3.71,10.67,13.92,10.67h3c11.37,0,16.94-4.18,20.42-13.22ZM786.79,723.68h-5.34c.93.93,1.86,2.78,1.86,5.8V873.32c0,3-.93,4.87-1.86,5.8h5.34Z"/><path d="M880.75,874.48c.23-1.63.23-5.11.23-9.51,0-3.48,0-7.66-.23-12.07h1.39c2.09,10.44,11.13,28.07,25.05,28.07,7,0,20.65-6.26,20.65-25.52,0-18.32-12.06-36-23.9-53.12-12.06-17.4-24.12-34.8-24.12-53.13,0-19,10.9-30.39,25.52-30.39a38.86,38.86,0,0,1,25,9.51,94.12,94.12,0,0,0-.23,9.51c0,3.48,0,7.43.23,12.07H929c-2.09-10.44-12.3-28.07-24.59-28.07-9,0-15.78,7.65-15.78,18.55,0,15.78,10.44,30.86,21.58,46.87C923,805.58,936.42,824.83,936.42,848c0,29.93-20.18,36-29.46,36C893,884,882.83,876.1,880.75,874.48Zm51.5-21.35c0-18.09-11.37-40.13-23.67-56.83-12.75-17.4-24.12-33.18-24.12-49.42,0-10.44,2.78-20,12.29-25-11.36,6-13.92,17.86-13.92,26.21,0,17.4,10.68,33.64,23.2,51,12.53,17.63,24.59,37.12,24.59,54,0,14.16-3.48,22.28-15.31,27.84C927.38,875.41,932.25,865.89,932.25,853.13Z"/><path d="M1013,733.66l-1.39.46c-4-7-11.6-11.13-24.82-11.13V873.55c0,3.25,2.08,5.8,4.4,7.66v1.39H968.9v-1.39c2.32-1.86,4.41-4.41,4.41-7.66V723c-13.22,0-20.88,4.17-24.82,11.13l-1.4-.46L951,720.2h58Zm-33.17-10h-3.48V873.32c0,3-.93,4.87-1.86,5.8h5.34Z"/><path d="M1079.56,881.21v1.39h-22.73v-1.39a7.85,7.85,0,0,0,3-7.66l-3.48-22h-30.85l-4,22.27a7.11,7.11,0,0,0,2.79,7.43v1.39h-12.53v-1.39c2.32-1.86,5.34-4.41,6-7.43l27.84-155h3l25,154.74C1074.23,876.8,1077.24,879.35,1079.56,881.21ZM1055.9,847.8,1042,757.32l-15.77,90.48Zm11.6,31.55-22-141.75-1.62,10.21,19.25,125.74a6.45,6.45,0,0,1-1.62,5.8Z"/><path d="M1145.45,733.66l-1.39.46c-4-7-11.6-11.13-24.83-11.13V873.55c0,3.25,2.09,5.8,4.41,7.66v1.39h-22.27v-1.39c2.32-1.86,4.41-4.41,4.41-7.66V723c-13.23,0-20.88,4.17-24.82,11.13l-1.4-.46,4-13.46h58Zm-33.18-10h-3.48V873.32c0,3-.92,4.87-1.85,5.8h5.33Z"/><path d="M1216.21,866.59l-2.32,16h-54.06v-1.39c2.32-1.86,4.41-4.41,4.41-7.66V729.25c0-3.25-2.09-5.8-4.41-7.66V720.2h51.27l1.63,14.38-1.39.47c-3-7.66-7.43-11.6-19.26-11.6h-14.61v69.37h21.34c4.64,0,6.73-1.63,8.81-6h1.4a88.48,88.48,0,0,0,0,15.78h-1.4c-2.08-4.41-4.17-6-8.81-6h-21.34v72.15c0,8.58,3.71,10.67,13.91,10.67h3c11.37,0,16.94-4.18,20.42-13.22Zm-45.47-142.91h-5.34c.93.93,1.86,2.78,1.86,5.8V873.32c0,3-.93,4.87-1.86,5.8h5.34Z"/><path d="M1331.05,844.32c0,36.42-26,39.67-35.73,39.67-8.82,0-13-1.39-20.19-1.39h-6.72v-1.39c2.32-1.86,4.41-4.41,4.41-7.66V729.25c0-3.25-2.09-5.8-4.41-7.66V720.2h20.64c13.92,0,37.12,5.8,37.12,38.74,0,24.13-11.6,33.41-24.59,36.66C1315.5,799.08,1331.05,811.38,1331.05,844.32Zm-51.74,34.8V723.68H1274c.93.93,1.86,2.78,1.86,5.8V873.32c0,3-.93,4.87-1.86,5.8Zm6.73-155.9v70.52h1.85c15.55,0,24.6-11.13,24.6-34.8,0-27.6-12.07-35.72-24.6-35.72ZM1317.36,845c0-38.27-15.08-48-26-48H1286v72.38c0,9.28,2.78,11.6,9,11.6C1307.61,881,1317.36,870.77,1317.36,845Zm-16.47-121.1c13,6.5,15.08,22.51,15.08,35s-2.09,28.31-15.08,34.8c13-6.26,19-20,19-34.8S1313.88,730.18,1300.89,723.91Zm23.89,120.64c0-21.34-7.89-42-23.89-47.33,15.54,5.8,19.95,27.38,19.95,47.33,0,14.62-3.71,31.32-16.71,36.66C1317.82,876.1,1324.78,860.33,1324.78,844.55Z"/><path d="M1412.24,721.59c-3.48.93-5.8,4.87-5.8,12.3V845c0,31.56-12.29,39-24.36,39-15.77,0-31.08-10.67-31.08-39V729.25c0-3.25-2.09-5.8-4.41-7.66V720.2h22v1.39c-2.32,1.86-4.41,4.41-4.41,7.66V845c0,30.86,9.51,36,17.86,36,10,0,21.11-6.26,21.11-36V733.89c0-7.43-2.78-11.37-7-12.3V720.2h16ZM1367.7,877.26c-7.66-6-10.21-14.15-10.21-31.78V723.68h-5.33c.92.93,1.85,2.78,1.85,5.8V840.84C1354,859.4,1358.65,870.07,1367.7,877.26Zm6,4c-.69-.47-1.62-.93-2.32-1.4Z"/><path d="M1431.5,881.21c2.32-1.86,4.4-4.41,4.4-7.66V729.25c0-3.25-2.08-5.8-4.4-7.66V720.2h22v1.39c-2.32,1.86-4.41,4.41-4.41,7.66v144.3c0,3.25,2.09,5.8,4.41,7.66v1.39h-22Zm10.9-2.09V723.68h-5.34c.93.93,1.86,2.78,1.86,5.8V873.32c0,3-.93,4.87-1.86,5.8Z"/><path d="M1528.93,866.59l-2.32,16h-53.36v-1.39c2.32-1.86,4.41-4.41,4.41-7.66V729.25c0-3.25-2.09-5.8-4.41-7.66V720.2h22v1.39c-2.32,1.86-4.41,4.41-4.41,7.66V868.68c0,8.58,3.72,10.67,13.92,10.67h2.32c11.37,0,16.94-4.18,20.42-13.22Zm-44.77-142.91h-5.34c.93.93,1.86,2.78,1.86,5.8V873.32c0,3-.93,4.87-1.86,5.8h5.34Z"/><path d="M1606.19,806c0,50.11-13.23,78-38,78-7.89,0-11.6-1.39-18.56-1.39h-6.5v-1.39c2.32-1.86,4.41-4.41,4.41-7.66V729.25c0-3.25-2.09-5.8-4.41-7.66V720.2h20.19C1592.27,720.2,1606.19,751.52,1606.19,806ZM1554,879.12V723.68h-5.34c.93.93,1.86,2.78,1.86,5.8V873.32c0,3-.93,4.87-1.86,5.8Zm14.15,1.85c13.69,0,24.13-13.45,24.13-74.93,0-65.89-11.6-82.82-28.31-82.82h-3.25V869.37C1560.71,878.65,1563.27,881,1568.14,881ZM1599.69,806c0-40.83-9.28-74.7-23-81.2,13.46,6.73,19,40.83,19,81.2,0,38.51-4.18,68.67-19,74.93C1591.8,874.94,1599.69,845.25,1599.69,806Z"/><path d="M1624.51,881.21c2.32-1.86,4.41-4.41,4.41-7.66V729.25c0-3.25-2.09-5.8-4.41-7.66V720.2h22v1.39c-2.32,1.86-4.4,4.41-4.4,7.66v144.3c0,3.25,2.08,5.8,4.4,7.66v1.39h-22Zm10.91-2.09V723.68h-5.34c.93.93,1.86,2.78,1.86,5.8V873.32c0,3-.93,4.87-1.86,5.8Z"/><path d="M1729.14,721.59c-3.48.93-5.8,4.87-5.8,12.3V884h-3l-45.47-152.88v137.8c0,7.42,2.78,11.37,7,12.3v1.39h-16.24v-1.39c3.48-.93,5.8-4.88,5.8-12.3V729.25c0-3.25-2.09-5.8-4.41-7.66V720.2h18.33l34.33,113.22V733.89c0-7.43-2.78-11.37-7-12.3V720.2h16.47Zm-9.51,136.65L1680,723.68h-5.34a11.36,11.36,0,0,1,2.79,5.11l42.22,142Z"/><path d="M1814.05,883.29a59,59,0,0,1-7.65-14.15c-8.12,8.59-14.62,14.85-25.29,14.85-23.66,0-35-33.87-35-81,0-45.93,11.37-84.21,35.26-84.21,13.46,0,22.5,7,24.59,8.35a207.21,207.21,0,0,0,0,21.58h-1.85c-2.09-10-10.67-26.91-23.43-26.91S1760,739,1760,803s7.89,78,20.41,78c10.21,0,17.17-9,17.17-25.75V809.29c0-3.25-2.09-5.8-4.41-7.66v-1.39h22v1.39c-2.32,1.86-4.41,4.41-4.41,7.66V849c0,13.92.24,24.36,4.64,33.41Zm-40.13-2.08c-18.33-7.89-20.65-44.32-20.65-78.19,0-35.72,2.32-71.68,20.65-81.19-17.87,7.88-24.36,44.77-24.36,81.19C1749.56,837.59,1756.05,874.25,1773.92,881.21Zm30.16-77.49h-5.34c.93.93,1.86,2.78,1.86,5.8v45.24c0,9.28-2.09,22.73-13.23,26.45,11.84-3.48,16.71-16.94,16.71-26.45Z"/></svg>