<svg xmlns="http://www.w3.org/2000/svg" viewBox="0 0 1920 1200"><rect width="1920" height="1200" style="fill:#961924"/><path d="M167.69,478.14a33.4,33.4,0,0,0,11.94-1.76c-.18,15.63-7.2,23.71-23.88,23.71-23.88,0-43-21.43-43-61.64,0-24.41,14-46.88,35.47-48.81-6,10.18-10.89,27.39-10.89,49C137.31,463.21,147.32,478.14,167.69,478.14Zm28.44-76.21H153.82c0-16,5.44-24.76,21.24-24.76a52.56,52.56,0,0,1,23.53,5.09Zm11.77,29.5v66h-16l-5.27-21.6V452.32h-26V431.43Z" style="fill:#f3f4f4"/><path d="M223.71,438.45c0-26.86,15.45-49.34,39.33-51.45-7.9,10.89-14.75,28.8-14.75,51.63,0,24.58,14,39.51,31.78,39.51s31.61-14.93,31.61-39.51c0-23.88-11.24-40.74-32.84-40.74a45.52,45.52,0,0,0-11.24,1.4c0-14.22,4-22.12,16.34-22.12,27.56,0,52.32,25.29,52.32,61.28,0,36.53-24.05,61.64-56.19,61.64S223.71,475,223.71,438.45Z" style="fill:#f3f4f4"/><path d="M447.77,497.45h-26l-18.78-43H378.24v43H354.71V379.8h47.58c28.45,0,41.79,8.43,41.79,25.46,0,11.77-7.55,20.2-26.51,20.2a17.64,17.64,0,0,0,1.58-7.9c0-11.42-6.32-16.86-20.37-16.86H378.24v33.71h40.38Z" style="fill:#f3f4f4"/><path d="M463.58,379.8h23.53V497.45H463.58Z" style="fill:#f3f4f4"/><path d="M584.21,476.38v21.07H511.69V379.8h23.53v96.58Z" style="fill:#f3f4f4"/><path d="M671.66,476.38v21.07H599.14V379.8h23.53v96.58Z" style="fill:#f3f4f4"/><path d="M712.75,456.71h25.46c0,12.65-9.3,20.2-19.14,20.2H707.48L702,497.45H677.63l21.25-75c3.86-13.52,14.22-15.27,26.87-15.27Zm67.43,40.74H755.25l-26-97.63h-15.1c3.51-17.73,9.13-21.95,20.72-21.95a47.38,47.38,0,0,1,12.47,1.76Z" style="fill:#f3f4f4"/><path d="M875.18,394.73l-76,105.88-17.21-13.87L845.68,400H792.3V379.8h75.16ZM822,476.91h52.5v20.54a236.84,236.84,0,0,1-26.34,1.23C831.46,498.68,821.8,488.67,822,476.91Z" style="fill:#f3f4f4"/><path d="M1007.23,497.45l-10.88-10.88c-9.66,8.07-22.48,13.52-35.47,13.52-27.4,0-40.92-15.28-40.92-32.31,0-16.33,9.31-24.41,22.48-26.34a38.78,38.78,0,0,0-3.51,15.1c0,13.7,9,22.48,23.18,22.48a29.29,29.29,0,0,0,19.49-7L947.53,438.1c-11.06-11.06-14.4-21.07-14.4-29.85,0-13.35,11.59-22.3,27.57-21.07-2.81,5.44-4.74,9.83-4.74,17,0,9,4.39,15.63,8.78,20l72.87,73.22Zm-5.09-95.52H967.2c0-16,4.56-24.76,20.37-24.76a29.67,29.67,0,0,1,17,5.09Zm-1.93,29.32,25.81-.17v1.75c0,10.54-10.18,23.18-27.21,19.14A151.09,151.09,0,0,0,1000.21,431.25Z" style="fill:#f3f4f4"/><path d="M1074.49,379.8h94.82v20.72h-94.82Zm34.94,52.86c0-16.33,9-24.59,23.53-24.59v89.38h-23.53Z" style="fill:#f3f4f4"/><path d="M1276.43,497.45h-26l-18.79-43h-24.76v43h-23.53V379.8H1231c28.45,0,41.79,8.43,41.79,25.46,0,11.77-7.55,20.2-26.51,20.2a17.64,17.64,0,0,0,1.58-7.9c0-11.42-6.32-16.86-20.37-16.86h-20.55v33.71h40.39Z" style="fill:#f3f4f4"/><path d="M1292.24,379.8h23.53V497.45h-23.53Z" style="fill:#f3f4f4"/><path d="M1402.69,425.63c1-2.1,1.58-6.67,1.58-9.83,0-10.18-6.32-15.1-20.37-15.1h-20v34.59h34.59c7,0,15.81-2.28,19.32-5.62.7,18.44-13,26.52-33.37,26.52h-20.54v41.26h-23.53V379.8h47.06c28.45,0,41.79,8.43,41.79,25.46C1429.2,417.91,1421.65,425.63,1402.69,425.63Z" style="fill:#f3f4f4"/><path d="M1501.9,426.86h40.74c0,12.65-9.31,20.2-19.14,20.2h-21.6v50.39h-23.53V379.8h23.53Zm69.54-47.06V497.45h-23.53V379.8Z" style="fill:#f3f4f4"/><path d="M1589.88,438.45c0-26.86,15.45-49.34,39.33-51.45-7.9,10.89-14.75,28.8-14.75,51.63,0,24.58,14,39.51,31.79,39.51s31.6-14.93,31.6-39.51c0-23.88-11.23-40.74-32.83-40.74a45.42,45.42,0,0,0-11.24,1.4c0-14.22,4-22.12,16.33-22.12,27.57,0,52.33,25.29,52.33,61.28,0,36.53-24.06,61.64-56.19,61.64S1589.88,475,1589.88,438.45Z" style="fill:#f3f4f4"/><path d="M1783.22,425.63c1-2.1,1.58-6.67,1.58-9.83,0-10.18-6.33-15.1-20.37-15.1h-20v34.59H1779c7,0,15.81-2.28,19.32-5.62.7,18.44-13,26.52-33.37,26.52h-20.54v41.26h-23.53V379.8h47.06c28.45,0,41.79,8.43,41.79,25.46C1809.73,417.91,1802.18,425.63,1783.22,425.63Z" style="fill:#f3f4f4"/><path d="M114.68,216.34V104h7.94v112.3c0,42.37,22.78,60.38,54.3,60.38,17.74,0,28.6-6.62,40.52-14.57-2.12,10.33-18.54,22-40.52,22C145.4,284.14,114.68,266.66,114.68,216.34Zm113.88,37.08V104h7.95V281.49h-5.57Z" style="fill:#fff0d8"/><path d="M402.29,275.4c-2.91,7.15-7.94,8.21-11.91,8.21a18.29,18.29,0,0,1-10.6-3.71L286.56,111.72V281.49h-7.95V104a26.88,26.88,0,0,1,13,0L386.14,275.4Zm-9.53-10.6V104h7.94V255.53A9.26,9.26,0,0,1,392.76,264.8Z" style="fill:#fff0d8"/><path d="M575.5,190.12c0,33.63-12.71,67.27-32.84,70.45,14.3-11.13,24.89-44.76,24.89-70.45,0-47.68-23.83-78.66-61.71-78.66H452.08V274.07h59.59c11.39,0,18.8-.53,28.07-3.7-6.35,9-16.68,11.12-28.07,11.12H444.13V104h61.71C548.22,104,575.5,139.27,575.5,190.12Z" style="fill:#fff0d8"/><path d="M709.77,274.07v7.42H609.66V104h97.46v7.42H617.6v73.09h82.11c-1.33,4.51-6.63,7.42-14.84,7.42H617.6v82.1Z" style="fill:#fff0d8"/><path d="M856,281.49h-8.21L811.46,206H746.58v75.48h-8V104h50.06c38.93,0,61.44,18,61.44,48.47,0,19.6-11.12,38.14-26.75,37.87,11.66-8.21,18.81-21.45,18.81-37.87,0-27.28-19.34-41-53.5-41H746.58v87.13H816.5Z" style="fill:#fff0d8"/><path d="M945.74,276.72c18.8,0,30.19-7.15,42.64-15.09-2.12,10.32-19.6,22.51-42.64,22.51-35,0-69.13-23.57-69.13-91.37,0-40.79,17.75-80.78,44.23-85.29-19.33,14-36.28,47.94-36.28,85.29C884.56,251.56,910.25,276.72,945.74,276.72ZM993.67,109.6h-63c4.5-5.29,14.57-8.21,28.34-8.21a217.94,217.94,0,0,1,35,2.65ZM1008,192.77v88.72h-5.57L1000,253.42V200.18H943.35v-7.41Z" style="fill:#fff0d8"/><path d="M1162.11,281.49h-8.21L1117.61,206h-64.88v75.48h-8V104h50.06c38.93,0,61.44,18,61.44,48.47,0,19.6-11.12,38.14-26.75,37.87,11.66-8.21,18.81-21.45,18.81-37.87,0-27.28-19.34-41-53.5-41h-42.11v87.13h69.92Z" style="fill:#fff0d8"/><path d="M1182.76,192.77c0-38.94,16.42-74.43,42.38-81.58-18.28,13.51-34.43,45.82-34.43,81.58,0,50.85,24.63,84,63.83,84s63.82-33.1,63.82-84-24.63-84-61.18-84a62.28,62.28,0,0,0-22.77,3.71c5.82-8.21,13.51-11.13,22.77-11.13,41.06,0,69.13,37.08,69.13,91.38s-28.07,91.37-71.77,91.37S1182.76,247.06,1182.76,192.77Z" style="fill:#fff0d8"/><path d="M1359.15,216.34V104h7.94v112.3c0,42.37,22.78,60.38,54.29,60.38,17.75,0,28.61-6.62,40.53-14.57-2.12,10.33-18.54,22-40.53,22C1389.87,284.14,1359.15,266.66,1359.15,216.34ZM1473,253.42V104h8V281.49h-5.57Z" style="fill:#fff0d8"/><path d="M1646.76,275.4c-2.91,7.15-7.94,8.21-11.92,8.21a18.28,18.28,0,0,1-10.59-3.71L1531,111.72V281.49h-7.94V104a26.88,26.88,0,0,1,13,0l94.55,171.36Zm-9.53-10.6V104h7.94V255.53A9.26,9.26,0,0,1,1637.23,264.8Z" style="fill:#fff0d8"/><path d="M1820.23,190.12c0,33.63-12.71,67.27-32.84,70.45,14.3-11.13,24.9-44.76,24.9-70.45,0-47.68-23.84-78.66-61.71-78.66h-53.77V274.07h59.59c11.39,0,18.81-.53,28.08-3.7-6.36,9-16.69,11.12-28.08,11.12h-67.53V104h61.71C1793,104,1820.23,139.27,1820.23,190.12Z" style="fill:#fff0d8"/><path d="M260.12,1073.68H288c-2.09,20.19-12.88,26.45-25.06,26.45a48.34,48.34,0,0,1-22.62-5.57L146.67,887.85,148.75,1097H120.91V863.83a193.75,193.75,0,0,1,44.9,0Zm32-209.85V1033c0,16-12.52,24.7-25.4,25l-2.44-194.19Z" style="fill:#f3f4f4"/><path d="M344.67,863.83h27.85V1097H344.67Z" style="fill:#f3f4f4"/><path d="M403.83,863.83h182v24.71h-182ZM480.39,938c0-24,10.79-34.8,27.84-35.15V1097H480.39Z" style="fill:#f3f4f4"/><path d="M603.23,1078.56l2.09-32.72c24.36,21.23,50.46,29.58,75.17,29.58,33.76,0,50.81-16,50.81-38.28,0-21.23-13.22-32-43.15-44.89l-22.27-9c-39.33-16.7-58.82-35.15-58.82-65.08,0-25.4,19.14-44.19,38.28-46.28-8.35,8.7-15.66,23.32-15.31,36.89,0,24.36,16.36,36.19,45.94,49.76l26.1,10.79c34.8,15.66,57.42,31,57.42,66.47,0,39.67-29.58,65.43-79,65.43C652.3,1101.18,627.94,1096,603.23,1078.56Zm91.88-218.9a164.61,164.61,0,0,1,46.28,6.61L739,888.54H656.48C659.61,869.75,670.75,859.66,695.11,859.66Z" style="fill:#f3f4f4"/><path d="M826,1023.57h76.57c-1,15-13.58,24.36-28.54,24.36H819L805.07,1097H776.19l51.5-175.4c4.88-17.05,18.8-20.53,33.41-20.88ZM966.2,1097H937L874.68,887.15H848.92c5.22-21.92,13.92-26.45,27.84-26.45a70.28,70.28,0,0,1,19.14,2.79Z" style="fill:#f3f4f4"/><path d="M1053.89,980.42c0-51.16,25.41-99.88,64-104.75-19.14,19.14-35.15,58.81-35.15,104.75,0,58.12,29.93,95,73.43,95,25,0,47.67-11.13,68.55-32v32.71c-21.57,17.4-42.8,25.06-69.94,25.06C1092.52,1101.18,1053.89,1055.59,1053.89,980.42Zm115.54-120.76c17.75,0,32,2.78,46.29,6.61l-2.44,22.27h-83.52C1132.89,869.75,1145.07,859.66,1169.43,859.66Z" style="fill:#f3f4f4"/><path d="M1399.8,1071.94V1097H1262.34V863.83h27.84v208.11Z" style="fill:#f3f4f4"/><path d="M1429.72,1011.74V863.83h27.85V1010c0,47,23.66,65.42,62.29,65.42,16,0,28.88-5.22,40.37-11.83-1.39,21.93-19.49,37.59-49.77,37.59C1473.23,1101.18,1429.72,1079.25,1429.72,1011.74Zm144.78,45.59V863.83h27.84V1097h-21.23Z" style="fill:#f3f4f4"/><path d="M1821.23,1028.09c0,43.51-30.63,68.91-83.87,68.91h-82.48V863.83h83.52c47.33,0,71.69,17.75,71.69,50.12,0,19.83-13.92,40.37-39,39.67a51.85,51.85,0,0,0,10.09-31.32c0-23.32-15.66-34.1-45.94-34.1h-52.55v76.91h60.55C1797.22,965.11,1821.23,989.12,1821.23,1028.09Zm-28.89,2.44c0-28.54-16.7-42.11-51.85-42.11h-57.77v84.22h54.64C1774.25,1072.64,1792.34,1059.07,1792.34,1030.53Z" style="fill:#f3f4f4"/><path d="M110,749.68l4.3-64.44c15.3,16.92,35.44,27.93,56.38,27.93,15,0,19.07-3.22,19.07-6.72s-1.88-3.75-9.13-6.44l-24.17-9.13c-33.56-12.62-49.4-29.27-49.4-50.75,0-28.19,20.13-41.88,44-41.08-2.68,5.91-4,10.2-4,15.84,0,14.77,8.06,19.6,30.34,28.2l30.88,11.81C232.43,664,247.2,676.65,247.2,704c0,37.32-23.09,61.75-77.33,61.75C147.58,765.79,126.91,761.77,110,749.68Zm88.07-174c18,0,29.27,2.42,39.2,5.91l-6.17,47.79H157.52C153.76,594.75,164,575.69,198.06,575.69Z" style="fill:#fff0d8"/><path d="M259.28,702.7c0-36,20.94-56.12,53.43-58-3.49,8.86-5.1,25.77-5.1,36.78,0,21.22,5.91,34.91,21.21,34.91,13.16,0,19.6-10.47,19.6-23.9,0-14-6.71-24.43-20.4-24.43a22.06,22.06,0,0,0-9.94,2.15c-5.64-27.12,3.49-48.87,30.34-48.87,29.81,0,55.32,26.58,55.32,70.08,0,42.15-24.17,74.37-74.65,74.37C288,765.79,259.28,744.58,259.28,702.7Z" style="fill:#fff0d8"/><path d="M419.84,626.44h50.22l4.29,41.08v93.17H419.84Zm76,56.12c0-7.52-2.41-10.48-9.93-10.48a23.4,23.4,0,0,0-6.45.81c-1.88-34.37,8.33-51.55,33.84-51.55,19.86,0,37.05,12.35,37.05,49.94v89.41H495.83Z" style="fill:#fff0d8"/><path d="M630.62,716.39c2.42,38.4-15.84,49.4-34.64,49.4-21.48,0-33.56-18-33.56-35.71,0-26.85,15.31-40.54,44.57-40.81a38.1,38.1,0,0,0-3,12.89c-.54,13.16,6.71,16.91,15,16.91A23.48,23.48,0,0,0,630.62,716.39Zm66-14v57.73a62.56,62.56,0,0,1-26.31,5.63c-22.55,0-34.1-12.88-34.1-33.83V709.14h-23.9c-3.22-16.38-3.49-34.1,19.6-37.59-2.14-1.88-5.63-2.69-10.47-2.69-14.77,0-30.61,4.84-40,10.74L577.19,634c11.28-5.91,32.49-12.62,59.61-12.62,35.17,0,52.09,20.14,52.09,49.67v31.42Z" style="fill:#fff0d8"/><path d="M708.75,678.53c0-27.12,22.29-48.33,54.51-49.41V760.69H708.75Zm86.46-57.19c4.84,0,7.79.53,11,1.88l-5.9,65H769.71C765.14,639.6,773.73,621.34,795.21,621.34Z" style="fill:#fff0d8"/><path d="M921.68,627.78v31.15h56.38c.81,30.34-3.76,48.33-26.31,48.33H921.68v53.43H865.29V580.79h123v47Z" style="fill:#fff0d8"/><path d="M1109.9,711.29l2.15,47.79c-15.57,5.91-34.91,6.71-44,6.71-50.74,0-74.37-26.85-74.37-63.63,0-40,25.24-58,54.51-57.19a80.43,80.43,0,0,0-8.06,27.38h29c-1.34-7.78-6.45-9.66-11.82-9.66a20.33,20.33,0,0,0-5.37.8c-3-21.48,4-42.15,31.69-42.15,18,0,34.37,12.08,34.37,40.27,0,19.07-7.52,34.91-14.5,44.84H1043c4.57,8.06,13.7,12.09,30.08,12.09C1085.74,718.54,1097.82,715.85,1109.9,711.29Z" style="fill:#fff0d8"/><path d="M1127.09,754.52l4.83-51.82c11.81,11.27,32.76,22,50.21,22.28,5.64,0,6.71-1.61,6.71-3,0-2.15-1.34-3-12.08-5.91-29.27-7.79-51-22-50.75-50.21.54-18.53,13.7-36,48.87-35.44-3.76,5.1-6.17,11.54-6.17,17.45,0,14.77,5.63,19.6,29,26.85,29.8,9.13,50.21,19.87,50.21,44.84,0,31.42-24.71,46.18-65.52,46.18C1162.8,765.79,1148,763.65,1127.09,754.52Zm85.65-132.65c6.45,0,16.11.81,22,2.69l-4.3,38.13h-52.63C1176,629.93,1191,621.87,1212.74,621.87Z" style="fill:#fff0d8"/><path d="M1354.24,626.44v46.45h-29v80.55c-37.6,0-54.51-14-54.51-40V672.89h-21.21V626.44h21.21V587.77h54.51v38.67Zm-23.62,67.39H1354v70.89c-1.35.81-5.37,1.07-7.25,1.07C1330.08,765.79,1330.62,744.58,1330.62,693.83Z" style="fill:#fff0d8"/><path d="M1366.86,577a33.43,33.43,0,1,1,66.86,0c0,19.34-14.77,34.64-33.29,34.64S1366.86,596.37,1366.86,577Zm6.18,49.41h54.51V760.69H1373Z" style="fill:#fff0d8"/><path d="M1466.75,760.69l-28.47-134.25h57.2l11,90.22h39.2c-3,39.74-25.51,48.6-47.8,48.6A109,109,0,0,1,1466.75,760.69Zm57.19-134.25h57.19L1573.61,671c-5.64,33.57-34.1,43.77-58.26,37.06Z" style="fill:#fff0d8"/><path d="M1646.92,716.39c2.41,38.4-15.85,49.4-34.64,49.4-21.48,0-33.57-18-33.57-35.71,0-26.85,15.31-40.54,44.58-40.81a37.82,37.82,0,0,0-3,12.89c-.53,13.16,6.72,16.91,15,16.91A23.52,23.52,0,0,0,1646.92,716.39Zm66-14v57.73a62.59,62.59,0,0,1-26.31,5.63c-22.56,0-34.11-12.88-34.11-33.83V709.14h-23.89c-3.23-16.38-3.49-34.1,19.6-37.59-2.15-1.88-5.64-2.69-10.47-2.69-14.77,0-30.61,4.84-40,10.74l-4.3-45.64c11.28-5.91,32.49-12.62,59.61-12.62,35.18,0,52.09,20.14,52.09,49.67v31.42Z" style="fill:#fff0d8"/><path d="M1726.39,713.44V580.79h54.51V753.44C1743.31,753.44,1726.39,739.48,1726.39,713.44Zm59.88-19.61h23.36v70.89c-1.34.81-5.37,1.07-7.25,1.07C1785.73,765.79,1786.27,744.58,1786.27,693.83Z" style="fill:#fff0d8"/></svg>