<?xml version="1.0" encoding="UTF-8"?>
<svg id="Layer_1" data-name="Layer 1" xmlns="http://www.w3.org/2000/svg" viewBox="0 0 2000 1000">
  <defs>
    <style>
      .cls-1 {
        fill: #640d0d;
      }

      .cls-2 {
        fill: #d9ad2f;
      }
    </style>
  </defs>
  <rect class="cls-1" width="2000" height="1000"/>
  <g>
    <path class="cls-2" d="M109.3,398.89l34.14-3.97v-208.04l-34.14-3.97v-32.95h136.18c61.93,0,98.46,19.85,98.46,71.07,0,34.94-18.66,52.8-49.63,62.73v.79c33.35,6.75,62.33,22.63,62.33,68.68,0,51.22-35.73,78.61-103.22,78.61H109.3v-32.95ZM293.92,227.38c0-28.98-20.25-40.5-57.17-40.5h-42.88v81.39h42.88c37.72,0,57.17-11.91,57.17-40.89ZM302.25,349.66c0-32.56-18.26-45.26-57.96-45.26h-50.42v90.52h50.82c38.91,0,57.57-13.1,57.57-45.26Z"/>
    <path class="cls-2" d="M416.99,363.95v-100.84l-28.98-3.97v-32.95h76.62v127.44c0,31.76,9.13,44.86,30.57,44.86,19.45,0,40.1-9.53,55.58-29.38v-106l-25.41-3.97v-32.95h73.05v168.73l29.38,3.97v32.95h-76.62v-27c-21.04,22.63-42.48,32.16-69.08,32.16-43.67,0-65.11-23.42-65.11-73.05Z"/>
    <path class="cls-2" d="M652.42,330.6c0-74.24,37.32-109.58,88.14-109.58,30.17,0,49.23,12.31,59.95,32.56l3.18-27.39h34.94v80.99h-42.08c-2.38-30.17-14.69-47.64-45.66-47.64-34.54,0-49.23,21.84-49.23,69.48s14.29,69.48,52.41,69.48c23.42,0,38.91-10.72,47.64-30.17l35.73,15.88c-13.89,35.33-41.69,52.8-86.55,52.8-64.71,0-98.46-36.13-98.46-106.4Z"/>
    <path class="cls-2" d="M869.59,398.89l29.38-3.97v-223.92l-29.38-3.97v-32.95h77.02v185.01l63.92-57.57-29.78-3.18v-32.16h102.03v32.95l-20.25,3.97-50.82,44.47,55.98,87.34,30.97,3.97v32.95h-60.35l-60.74-94.49-30.97,27v30.57l29.38,3.97v32.95h-106.4v-32.95Z"/>
    <path class="cls-2" d="M1124.07,398.89l29.38-3.97v-131.81l-29.38-3.97v-32.95h76.62v42.08c9.53-32.16,33.35-47.25,57.57-47.25,6.75,0,15.88,1.19,21.04,5.16v36.92h-18.26c-26.6,0-49.23,10.72-59.95,51.22v80.59l36.13,3.97v32.95h-113.15v-32.95Z"/>
    <path class="cls-2" d="M1297.96,374.67c0-45.26,29.38-67.1,83.37-67.1,16.68,0,29.78,1.59,43.28,3.57v-19.45c0-25.41-13.1-32.95-40.5-32.95-14.29,0-24.62,1.59-35.33,5.96l-3.57,24.22h-32.95v-47.25c19.06-12.31,43.67-20.65,77.81-20.65,54.79,0,82.18,20.65,82.18,67.49v106.4l29.38,3.97v32.95h-76.23v-25.81c-19.46,21.44-41.29,30.57-66.7,30.57-39.7,0-60.74-22.23-60.74-61.93ZM1424.61,368.32v-24.22c-13.1-1.99-27.79-2.38-37.72-2.38-29.78,0-40.5,8.34-40.5,28.19,0,18.26,9.13,27.79,27.39,27.79s37.32-9.53,50.82-29.38Z"/>
    <path class="cls-2" d="M1533.78,398.89l29.38-3.97v-131.81l-29.38-3.97v-32.95h76.62v27.39c21.04-23.03,41.29-32.56,67.1-32.56,29.38,0,48.83,12.71,57.17,36.13,25.01-26.2,45.66-36.13,71.46-36.13,41.69,0,61.54,23.42,61.54,73.05v100.84l29.78,3.97v32.95h-102.03v-32.95l24.62-3.97v-90.52c0-31.36-8.34-44.86-28.59-44.86-17.87,0-34.94,9.53-52.01,29.38v106l24.62,3.97v32.95h-96.87v-32.95l24.61-3.97v-90.92c0-31.36-8.34-44.47-28.98-44.47-17.07,0-34.14,8.34-52.01,29.38v106l24.62,3.97v32.95h-101.64v-32.95Z"/>
  </g>
  <g>
    <path class="cls-2" d="M143.56,630.29l6.6-1,20.1-55.4-6.9-1v-6.8h23.3l22.8,63.2,6.5,1v6.8h-27.3v-6.8l10.1-1-5.3-14.4h-28l-5.2,14.4,10,1v6.8h-26.7v-6.8ZM190.66,607.08l-11.2-30.7-11.2,30.7h22.4Z"/>
    <path class="cls-2" d="M244.66,630.29l7.5-1v-35.4l-7.5-1v-6.8h17.5v10.7c2.3-7.8,8.6-11.9,14.9-11.9,1.6,0,4,.3,5.3,1.2v7.8h-4.6c-6.8,0-12.4,2.5-15.6,13.2v22.2l9.4,1v6.8h-26.9v-6.8Z"/>
    <path class="cls-2" d="M285.56,611.58c0-17.9,8.1-26.7,24-26.7s22.8,8.7,22.8,25.7l-.1,3.8h-36.2c.7,10.4,4.5,15.8,15.5,15.8,6,0,10.6-1.7,14.7-5.1l4.5,6.6c-5.4,4.3-10.7,6.6-19.8,6.6-17.1,0-25.4-8.9-25.4-26.7ZM309.86,592.98c-9.1,0-13,5.1-13.8,13.6h25.9c0-9-3.4-13.6-12.1-13.6Z"/>
    <path class="cls-2" d="M340.96,622.99c0-11.2,7.1-16.5,20.6-16.5,4.5,0,8.1.5,11.7,1v-5.5c0-7-3.5-9-10.9-9-4,0-6.9.5-9.9,1.7l-.9,6.5h-7v-11c4.4-3.2,10.6-5.3,19.1-5.3,13.1,0,19.6,4.9,19.6,16.4v28l7.6,1v6.8h-17.5v-6.7c-5.2,5.6-10.8,7.9-17.2,7.9-9.9,0-15.2-5.6-15.2-15.3ZM373.26,621.59v-6.6c-3.6-.5-7.7-.7-10.6-.7-8.4,0-11.3,2.5-11.3,8,0,5.2,2.5,7.9,7.7,7.9s10.3-2.8,14.2-8.6Z"/>
    <path class="cls-2" d="M397.56,611.48c0-17.2,8.4-26.6,23.3-26.6,7,0,11.3,2.1,15.1,6.2v-21.4l-7.5-1v-6.6h17.5v67.4l7.6,1v6.6h-17.6v-6.5c-4,5.3-9,7.6-15.7,7.7-14,.3-22.7-9.3-22.7-26.8ZM435.96,611.58c0-12.9-4.1-18.6-14-18.6s-14,5.7-14,18.6,4.2,18.6,14,18.6,14-5.7,14-18.6Z"/>
    <path class="cls-2" d="M461.46,622.99c0-11.2,7.1-16.5,20.6-16.5,4.5,0,8.1.5,11.7,1v-5.5c0-7-3.5-9-10.9-9-4,0-6.9.5-9.9,1.7l-.9,6.5h-7v-11c4.4-3.2,10.6-5.3,19.1-5.3,13.1,0,19.6,4.9,19.6,16.4v28l7.6,1v6.8h-17.5v-6.7c-5.2,5.6-10.8,7.9-17.2,7.9-9.9,0-15.2-5.6-15.2-15.3ZM493.76,621.59v-6.6c-3.6-.5-7.7-.7-10.6-.7-8.4,0-11.3,2.5-11.3,8,0,5.2,2.5,7.9,7.7,7.9s10.3-2.8,14.2-8.6Z"/>
    <path class="cls-2" d="M532.96,631.89l-1.8,5.2h-8v-67.4l-7.5-1v-6.6h17.5v30.5c4-5.2,8.7-7.7,16-7.7,13.9,0,22.5,9.3,22.5,26.8s-8.5,26.6-23.3,26.6c-7.1,0-11.5-2.1-15.4-6.4ZM561.26,611.68c0-12.9-4.3-18.7-13.5-18.7s-14.6,6.1-14.6,19.3c0,11.9,4.2,17.9,14.1,17.9s14-5.8,14-18.5Z"/>
    <path class="cls-2" d="M579.36,630.29l7.5-1v-59.4l-7.5-1v-6.8h17.5v67.2l7.6,1v6.8h-25.1v-6.8Z"/>
    <path class="cls-2" d="M611.16,611.58c0-17.9,8.1-26.7,24-26.7s22.8,8.7,22.8,25.7l-.1,3.8h-36.2c.7,10.4,4.5,15.8,15.5,15.8,6,0,10.6-1.7,14.7-5.1l4.5,6.6c-5.4,4.3-10.7,6.6-19.8,6.6-17.1,0-25.4-8.9-25.4-26.7ZM635.46,592.98c-9.1,0-13,5.1-13.8,13.6h25.9c0-9-3.4-13.6-12.1-13.6Z"/>
    <path class="cls-2" d="M681.26,637.49c-.9.3-2,.5-3.4.5-4.6,0-8-3.7-8-8.2s3.5-8.2,8.3-8.2c6.5,0,9.2,5.5,9.2,11.5,0,11.4-4.9,17.6-15.6,21.2l-1.6-5.2c6.1-1.8,10.6-5.3,11.1-11.6Z"/>
    <path class="cls-2" d="M723.56,630.29l7.5-1v-59.4l-7.5-1.1v-6.7h17.5v30.5c5.2-4.8,10.3-7.7,17.8-7.7,10.6,0,15.6,6,15.6,18.4v26l7.6,1v6.8h-24.3v-6.8l6.7-1v-24.2c0-8.8-2.5-12.1-8-12.1-5.1,0-10.1,2.5-15.4,8.1v28.2l6.8,1v6.8h-24.3v-6.8Z"/>
    <path class="cls-2" d="M790.25,622.99c0-11.2,7.1-16.5,20.6-16.5,4.5,0,8.1.5,11.7,1v-5.5c0-7-3.5-9-10.9-9-4,0-6.9.5-9.9,1.7l-.9,6.5h-7v-11c4.4-3.2,10.6-5.3,19.1-5.3,13.1,0,19.6,4.9,19.6,16.4v28l7.6,1v6.8h-17.5v-6.7c-5.2,5.6-10.8,7.9-17.2,7.9-9.9,0-15.2-5.6-15.2-15.3ZM822.56,621.59v-6.6c-3.6-.5-7.7-.7-10.6-.7-8.4,0-11.3,2.5-11.3,8,0,5.2,2.5,7.9,7.7,7.9s10.3-2.8,14.2-8.6Z"/>
    <path class="cls-2" d="M848.55,630.29l7.5-1v-35.4l-7.5-1v-6.8h17.5v10.7c2.3-7.8,8.6-11.9,14.9-11.9,1.6,0,4,.3,5.3,1.2v7.8h-4.6c-6.8,0-12.4,2.5-15.6,13.2v22.2l9.4,1v6.8h-26.9v-6.8Z"/>
    <path class="cls-2" d="M889.45,611.48c0-17.2,8.4-26.6,23.3-26.6,7,0,11.3,2.1,15.1,6.2v-21.4l-7.5-1v-6.6h17.5v67.4l7.6,1v6.6h-17.6v-6.5c-4,5.3-9,7.6-15.7,7.7-14,.3-22.7-9.3-22.7-26.8ZM927.85,611.58c0-12.9-4.1-18.6-14-18.6s-14,5.7-14,18.6,4.2,18.6,14,18.6,14-5.7,14-18.6Z"/>
    <path class="cls-2" d="M950.85,605.88h29.2v8h-29.2v-8Z"/>
    <path class="cls-2" d="M987.45,593.78l-5.7-1v-6.7h24.9v6.7l-8.9,1,10.1,35,10.3-42.7h11.2l9.9,42.6,10.1-34.9-8.9-1v-6.7h23.2v6.7l-5.6,1-13.4,43.3h-12.1l-9.4-39.5-9.8,39.5h-12.5l-13.4-43.3Z"/>
    <path class="cls-2" d="M1068.55,611.58c0-17.8,8-26.7,24.4-26.7s24.4,9,24.4,26.7-8.1,26.7-24.4,26.7-24.4-8.9-24.4-26.7ZM1106.95,611.58c0-12.9-4.2-18.6-14-18.6s-14,5.8-14,18.6,4.1,18.6,14,18.6,14-5.7,14-18.6Z"/>
    <path class="cls-2" d="M1125.75,630.29l7.5-1v-35.4l-7.5-1v-6.8h17.5v10.7c2.3-7.8,8.6-11.9,14.9-11.9,1.6,0,4,.3,5.3,1.2v7.8h-4.6c-6.8,0-12.4,2.5-15.6,13.2v22.2l9.4,1v6.8h-26.9v-6.8Z"/>
    <path class="cls-2" d="M1167.05,630.29l7.5-1v-59.4l-7.5-1v-6.8h17.5v48l17.3-16.1-7.7-1.1v-6.8h24.2v6.8l-5.2,1-13.5,12.4,15.1,23,8,1v6.8h-13.9l-16.1-24.6-8.2,7.5v9.3l7.6,1v6.8h-25.1v-6.8Z"/>
    <path class="cls-2" d="M1229.05,630.29l7.5-1v-35.4l-7.5-1v-6.8h17.5v43.2l7.5,1v6.8h-25v-6.8ZM1234.05,568.58c0-4.2,3.3-7.5,7.5-7.5s7.5,3.3,7.5,7.5-3.3,7.5-7.5,7.5-7.5-3.3-7.5-7.5Z"/>
    <path class="cls-2" d="M1262.65,630.29l7.5-1v-35.4l-7.5-1v-6.8h17.5v6.5c5.4-5.5,10.8-7.7,17.2-7.7,11,0,16.2,5.8,16.2,18.4v26l7.6,1v6.8h-24.3v-6.8l6.7-1v-24.2c0-8.5-2.3-12.1-8-12.1-5.2,0-11.1,2.6-15.4,8.1v28.2l6.8,1v6.8h-24.3v-6.8Z"/>
    <path class="cls-2" d="M1328.05,648.49c0-6.2,3.1-11,10-13.1-5.4-1.7-7.8-4.7-7.8-9.2,0-3.9,1.8-7,4.3-9.7-2.8-3.2-4.2-7.4-4.2-12.6,0-12.1,7.8-19.1,21.8-19.1,7.3,0,12.9,1.8,16.5,5.3,3-2,6.8-4,10.9-4v7.8c-2.4,0-4.8.7-7.1,1.8.9,2.3,1.4,5.1,1.4,8.2,0,12.3-7.9,19.1-21.7,19.1-4.2,0-7.9-.6-10.9-1.9-1.3,1.5-1.9,2.9-1.9,4.6,0,2.9,1.7,4.5,14.8,4.5,17,.1,24.3,4.4,24.3,14.5,0,11.2-9,19.5-27.2,19.5-15.4,0-23.2-5.9-23.2-15.7ZM1368.05,645.69c0-5.5-4-7.4-13.6-7.4-12.2,0-16.1,3.1-16.1,9s3.5,8.8,13.3,8.8c11.8,0,16.4-4.6,16.4-10.4ZM1363.45,604.58c0-6.2-2.6-11.7-11.9-11.7-7.4,0-10.9,3.5-10.9,11.1s3.4,10.9,11.4,10.9,11.4-3.5,11.4-10.3Z"/>
    <path class="cls-2" d="M1418.75,631.79l-.9,5.3h-7.1v-18.7h8.5c.2,7.8,5.1,11.8,13.1,11.8,7.5,0,10.9-2.3,10.9-6.3,0-5.8-6.5-6.6-14.4-8.9-9.8-2.8-17.1-6.1-17.1-15.4s7.7-14.7,18-14.7c7.4,0,11.9,2.8,14.5,6.1l1-4.9h7v17.6h-8.4c-.2-6.8-5.8-10.7-12-10.7s-9.7,2.3-9.7,6.4c0,4.4,3.6,5.1,12.1,7.5,11.7,3.3,19.4,6,19.4,16.5s-8,14.9-18.5,14.9c-8.1,0-13-2.5-16.4-6.5Z"/>
    <path class="cls-2" d="M1463.05,630.29l7.5-1v-59.4l-7.5-1v-6.8h17.5v67.2l7.6,1v6.8h-25.1v-6.8Z"/>
    <path class="cls-2" d="M1494.95,622.99c0-11.2,7.1-16.5,20.6-16.5,4.5,0,8.1.5,11.7,1v-5.5c0-7-3.5-9-10.9-9-4,0-6.9.5-9.9,1.7l-.9,6.5h-7v-11c4.4-3.2,10.6-5.3,19.1-5.3,13.1,0,19.6,4.9,19.6,16.4v28l7.6,1v6.8h-17.5v-6.7c-5.2,5.6-10.8,7.9-17.2,7.9-9.9,0-15.2-5.6-15.2-15.3ZM1527.25,621.59v-6.6c-3.6-.5-7.7-.7-10.6-.7-8.4,0-11.3,2.5-11.3,8,0,5.2,2.5,7.9,7.7,7.9s10.3-2.8,14.2-8.6Z"/>
    <path class="cls-2" d="M1566.45,631.89l-1.8,5.2h-8v-67.4l-7.5-1v-6.6h17.5v30.5c4-5.2,8.7-7.7,16-7.7,13.9,0,22.5,9.3,22.5,26.8s-8.5,26.6-23.3,26.6c-7.1,0-11.5-2.1-15.4-6.4ZM1594.75,611.68c0-12.9-4.3-18.7-13.5-18.7s-14.6,6.1-14.6,19.3c0,11.9,4.2,17.9,14.1,17.9s14-5.8,14-18.5Z"/>
    <path class="cls-2" d="M1644.85,631.79l-.9,5.3h-7.1v-18.7h8.5c.2,7.8,5.1,11.8,13.1,11.8,7.5,0,10.9-2.3,10.9-6.3,0-5.8-6.5-6.6-14.4-8.9-9.8-2.8-17.1-6.1-17.1-15.4s7.7-14.7,18-14.7c7.4,0,11.9,2.8,14.5,6.1l1-4.9h7v17.6h-8.4c-.2-6.8-5.8-10.7-12-10.7s-9.7,2.3-9.7,6.4c0,4.4,3.6,5.1,12.1,7.5,11.7,3.3,19.4,6,19.4,16.5s-8,14.9-18.5,14.9c-8.1,0-13-2.5-16.4-6.5Z"/>
    <path class="cls-2" d="M1688.74,611.58c0-17.9,8.1-26.7,24-26.7s22.8,8.7,22.8,25.7l-.1,3.8h-36.2c.7,10.4,4.5,15.8,15.5,15.8,6,0,10.6-1.7,14.7-5.1l4.5,6.6c-5.4,4.3-10.7,6.6-19.8,6.6-17.1,0-25.4-8.9-25.4-26.7ZM1713.05,592.98c-9.1,0-13,5.1-13.8,13.6h25.9c0-9-3.4-13.6-12.1-13.6Z"/>
    <path class="cls-2" d="M1744.64,630.29l7.5-1v-35.4l-7.5-1v-6.8h17.5v10.7c2.3-7.8,8.6-11.9,14.9-11.9,1.6,0,4,.3,5.3,1.2v7.8h-4.6c-6.8,0-12.4,2.5-15.6,13.2v22.2l9.4,1v6.8h-26.9v-6.8Z"/>
    <path class="cls-2" d="M1788.04,630.29l7.5-1v-35.4l-7.5-1v-6.8h17.5v43.2l7.5,1v6.8h-25v-6.8ZM1793.04,568.58c0-4.2,3.3-7.5,7.5-7.5s7.5,3.3,7.5,7.5-3.3,7.5-7.5,7.5-7.5-3.3-7.5-7.5Z"/>
    <path class="cls-2" d="M1821.74,630.29l7.5-1v-35.4h-7.5v-6.8l7.5-1v-9c0-11.4,5.9-16.2,17-16.2,3.6,0,7.9.5,10.7,1.2l-1.6,7.8c-2.4-.5-6-.9-8.3-.9-5.5,0-7.8,3.5-7.8,8.4v8.7h10.5v6.8l-10.5,1v35.4l10.4,1v6.8h-27.9v-6.8Z"/>
    <path class="cls-2" d="M231.81,760.29l7.5-1v-35.4h-7.5v-6.8l7.5-1v-9c0-11.4,5.9-16.2,17-16.2,3.6,0,7.9.5,10.7,1.2l-1.6,7.8c-2.4-.5-6-.9-8.3-.9-5.5,0-7.8,3.5-7.8,8.4v8.7h10.5v6.8l-10.5,1v35.4l10.4,1v6.8h-27.9v-6.8Z"/>
    <path class="cls-2" d="M269.51,760.29l7.5-1v-35.4l-7.5-1v-6.8h17.5v10.7c2.3-7.8,8.6-11.9,14.9-11.9,1.6,0,4,.3,5.3,1.2v7.8h-4.6c-6.8,0-12.4,2.5-15.6,13.2v22.2l9.4,1v6.8h-26.9v-6.8Z"/>
    <path class="cls-2" d="M310.41,741.58c0-17.8,8-26.7,24.4-26.7s24.4,9,24.4,26.7-8.1,26.7-24.4,26.7-24.4-8.9-24.4-26.7ZM348.81,741.58c0-12.9-4.2-18.6-14-18.6s-14,5.8-14,18.6,4.1,18.6,14,18.6,14-5.7,14-18.6Z"/>
    <path class="cls-2" d="M367.61,760.29l7.5-1v-35.4l-7.5-1v-6.8h17.5v6.6c5.4-5.5,10.3-7.8,16.6-7.8,7.2,0,12.1,3.1,14.2,8.8,6.2-6.3,11.3-8.8,17.7-8.8,10.4,0,15.3,5.8,15.3,18.4v26l7.6,1v6.8h-24.1v-6.8l6.5-1v-24.2c0-8.4-2.2-12.1-7.6-12.1-4.8,0-9.5,2.6-14.3,8.1v28.2l6.6,1v6.8h-23.1v-6.8l6.5-1v-24.3c0-8.4-2.2-12-7.6-12-4.6,0-9.2,2.3-14.3,8.1v28.2l6.6,1v6.8h-24.1v-6.8Z"/>
    <path class="cls-2" d="M506.41,775.09l1.7-4.4-19.2-46.9-5.7-1v-6.7h25.1v6.7l-8.8,1,13,35.1,13.6-35.1-8.7-1v-6.7h23.4v6.7l-5.7,1-21.4,54.1c-3,7.9-8.2,14.2-19.9,16.4l-2.9-7.9c6-1.8,13-4.8,15.5-11.3Z"/>
    <path class="cls-2" d="M545.71,741.58c0-17.8,8-26.7,24.4-26.7s24.4,9,24.4,26.7-8.1,26.7-24.4,26.7-24.4-8.9-24.4-26.7ZM584.11,741.58c0-12.9-4.2-18.6-14-18.6s-14,5.8-14,18.6,4.1,18.6,14,18.6,14-5.7,14-18.6Z"/>
    <path class="cls-2" d="M608.81,749.89v-26l-7.5-1v-6.8h17.5v32c0,8.6,2.4,12.1,8.1,12.1,5.2,0,11-2.6,15.3-8.1v-28.2l-6.7-1v-6.8h16.7v43.2l7.6,1v6.8h-17.6v-6.5c-5.4,5.5-10.7,7.7-17.1,7.7-11.1,0-16.3-5.8-16.3-18.4Z"/>
    <path class="cls-2" d="M668.41,760.29l7.5-1v-35.4l-7.5-1v-6.8h17.5v10.7c2.3-7.8,8.6-11.9,14.9-11.9,1.6,0,4,.3,5.3,1.2v7.8h-4.6c-6.8,0-12.4,2.5-15.6,13.2v22.2l9.4,1v6.8h-26.9v-6.8Z"/>
    <path class="cls-2" d="M734.31,760.29l7.5-1v-35.4h-7.5v-6.8l7.5-1v-9c0-11.4,5.9-16.2,17-16.2,3.6,0,7.9.5,10.7,1.2l-1.6,7.8c-2.4-.5-6-.9-8.3-.9-5.5,0-7.8,3.5-7.8,8.4v8.7h10.5v6.8l-10.5,1v35.4l10.4,1v6.8h-27.9v-6.8Z"/>
    <path class="cls-2" d="M772.01,760.29l7.5-1v-35.4l-7.5-1v-6.8h17.5v10.7c2.3-7.8,8.6-11.9,14.9-11.9,1.6,0,4,.3,5.3,1.2v7.8h-4.6c-6.8,0-12.4,2.5-15.6,13.2v22.2l9.4,1v6.8h-26.9v-6.8Z"/>
    <path class="cls-2" d="M815.4,760.29l7.5-1v-35.4l-7.5-1v-6.8h17.5v43.2l7.5,1v6.8h-25v-6.8ZM820.4,698.58c0-4.2,3.3-7.5,7.5-7.5s7.5,3.3,7.5,7.5-3.3,7.5-7.5,7.5-7.5-3.3-7.5-7.5Z"/>
    <path class="cls-2" d="M846.9,741.58c0-17.9,8.1-26.7,24-26.7s22.8,8.7,22.8,25.7l-.1,3.8h-36.2c.7,10.4,4.5,15.8,15.5,15.8,6,0,10.6-1.7,14.7-5.1l4.5,6.6c-5.4,4.3-10.7,6.6-19.8,6.6-17.1,0-25.4-8.9-25.4-26.7ZM871.2,722.98c-9.1,0-13,5.1-13.8,13.6h25.9c0-9-3.4-13.6-12.1-13.6Z"/>
    <path class="cls-2" d="M902.8,760.29l7.5-1v-35.4l-7.5-1v-6.8h17.5v6.5c5.4-5.5,10.8-7.7,17.2-7.7,11,0,16.2,5.8,16.2,18.4v26l7.6,1v6.8h-24.3v-6.8l6.7-1v-24.2c0-8.5-2.3-12.1-8-12.1-5.2,0-11.1,2.6-15.4,8.1v28.2l6.8,1v6.8h-24.3v-6.8Z"/>
    <path class="cls-2" d="M968,741.48c0-17.2,8.4-26.6,23.3-26.6,7,0,11.3,2.1,15.1,6.2v-21.4l-7.5-1v-6.6h17.5v67.4l7.6,1v6.6h-17.6v-6.5c-4,5.3-9,7.6-15.7,7.7-14,.3-22.7-9.3-22.7-26.8ZM1006.4,741.58c0-12.9-4.1-18.6-14-18.6s-14,5.7-14,18.6,4.2,18.6,14,18.6,14-5.7,14-18.6Z"/>
    <path class="cls-2" d="M1040.6,761.79l-.9,5.3h-7.1v-18.7h8.5c.2,7.8,5.1,11.8,13.1,11.8,7.5,0,10.9-2.3,10.9-6.3,0-5.8-6.5-6.6-14.4-8.9-9.8-2.8-17.1-6.1-17.1-15.4s7.7-14.7,18-14.7c7.4,0,11.9,2.8,14.5,6.1l1-4.9h7v17.6h-8.4c-.2-6.8-5.8-10.7-12-10.7s-9.7,2.3-9.7,6.4c0,4.4,3.6,5.1,12.1,7.5,11.7,3.3,19.4,6,19.4,16.5s-8,14.9-18.5,14.9c-8.1,0-13-2.5-16.4-6.5Z"/>
    <path class="cls-2" d="M1107.9,752.99c0-11.2,7.1-16.5,20.6-16.5,4.5,0,8.1.5,11.7,1v-5.5c0-7-3.5-9-10.9-9-4,0-6.9.5-9.9,1.7l-.9,6.5h-7v-11c4.4-3.2,10.6-5.3,19.1-5.3,13.1,0,19.6,4.9,19.6,16.4v28l7.6,1v6.8h-17.5v-6.7c-5.2,5.6-10.8,7.9-17.2,7.9-9.9,0-15.2-5.6-15.2-15.3ZM1140.2,751.59v-6.6c-3.6-.5-7.7-.7-10.6-.7-8.4,0-11.3,2.5-11.3,8,0,5.2,2.5,7.9,7.7,7.9s10.3-2.8,14.2-8.6Z"/>
    <path class="cls-2" d="M1170.7,752.89v-29h-7.5v-6.8l7.9-1,2.1-16.5h7.5v16.5h13.4v6.8l-13.4,1v28.5c0,5.4,2.1,7.8,7,7.8,1.8,0,4.2-.3,6.1-.7l1.4,7.6c-3.1.7-6.9,1.2-10.1,1.2-9.6,0-14.4-4.6-14.4-15.4Z"/>
    <path class="cls-2" d="M1226,760.29l8.9-1v-55.4l-8.9-1v-6.8h32.4c15.6,0,25,4.2,25,17.6,0,9.1-4.7,13.2-12.3,15.9v.2c8.2,1.8,15.5,5.6,15.5,17.3,0,12.9-8.9,20-26.1,20h-34.5v-6.8ZM1272.9,715.08c0-8-5.5-11.2-16-11.2h-11.5v22.5h11.6c10.8,0,15.9-3.3,15.9-11.3ZM1275.1,746.68c0-9-4.9-12.5-16.3-12.5h-13.4v25.1h13.6c11.2,0,16.1-3.6,16.1-12.6Z"/>
    <path class="cls-2" d="M1296.5,760.29l7.5-1v-35.4l-7.5-1v-6.8h17.5v43.2l7.5,1v6.8h-25v-6.8ZM1301.5,698.58c0-4.2,3.3-7.5,7.5-7.5s7.5,3.3,7.5,7.5-3.3,7.5-7.5,7.5-7.5-3.3-7.5-7.5Z"/>
    <path class="cls-2" d="M1336.4,769.59v-45.8l-7.6-1v-6.7h17.6v54.1c0,11.3-5.5,20.1-16.7,24.1l-3.9-9.5c7.5-2.8,10.6-7.1,10.6-15.2ZM1333.9,698.58c0-4.2,3.3-7.5,7.5-7.5s7.5,3.3,7.5,7.5-3.3,7.5-7.5,7.5-7.5-3.3-7.5-7.5Z"/>
    <path class="cls-2" d="M1358.29,741.58c0-17.8,8-26.7,24.4-26.7s24.4,9,24.4,26.7-8.1,26.7-24.4,26.7-24.4-8.9-24.4-26.7ZM1396.7,741.58c0-12.9-4.2-18.6-14-18.6s-14,5.8-14,18.6,4.1,18.6,14,18.6,14-5.7,14-18.6Z"/>
    <path class="cls-2" d="M1421.39,749.89v-26l-7.5-1v-6.8h17.5v32c0,8.6,2.4,12.1,8.1,12.1,5.2,0,11-2.6,15.3-8.1v-28.2l-6.7-1v-6.8h16.7v43.2l7.6,1v6.8h-17.6v-6.5c-5.4,5.5-10.7,7.7-17.1,7.7-11.1,0-16.3-5.8-16.3-18.4Z"/>
    <path class="cls-2" d="M1512.59,760.29l13.7-1v-55.4h-17.2l-1.5,15.2h-8v-23h63.9v23h-8l-1.5-15.2h-17.2v55.4l13.7,1v6.8h-37.9v-6.8Z"/>
    <path class="cls-2" d="M1591.39,775.09l1.7-4.4-19.2-46.9-5.7-1v-6.7h25.1v6.7l-8.8,1,13,35.1,13.6-35.1-8.7-1v-6.7h23.4v6.7l-5.7,1-21.4,54.1c-3,7.9-8.2,14.2-19.9,16.4l-2.9-7.9c6-1.8,13-4.8,15.5-11.3Z"/>
    <path class="cls-2" d="M1630.89,786.49l7.5-1v-61.8l-7.5-1v-6.6h17.5v6.5c4-5.2,8.8-7.7,16.1-7.7,13.8,0,22.4,9.3,22.4,26.8s-8.5,26.6-23.3,26.6c-7.1,0-11.3-2.1-15.2-6.2v23.4l10.4,1v6.6h-27.9v-6.6ZM1676.49,741.68c0-12.9-4.3-18.7-13.5-18.7s-14.6,6.1-14.6,19.3c0,11.9,4.2,17.9,14.1,17.9s14-5.8,14-18.5Z"/>
    <path class="cls-2" d="M1695.99,741.58c0-17.9,8.1-26.7,24-26.7s22.8,8.7,22.8,25.7l-.1,3.8h-36.2c.7,10.4,4.5,15.8,15.5,15.8,6,0,10.6-1.7,14.7-5.1l4.5,6.6c-5.4,4.3-10.7,6.6-19.8,6.6-17.1,0-25.4-8.9-25.4-26.7ZM1720.29,722.98c-9.1,0-13,5.1-13.8,13.6h25.9c0-9-3.4-13.6-12.1-13.6Z"/>
  </g>
</svg>