<svg width="5659" height="2162" viewBox="0 0 5659 2162" fill="none" xmlns="http://www.w3.org/2000/svg">
<g clip-path="url(#clip0_3401_34)">
<circle cx="2704" cy="559" r="143" fill="#FF7530"/>
<ellipse cx="2704" cy="1010.5" rx="225" ry="270.5" fill="#FF7530"/>
<path d="M3368 1738C3368 2108.32 3070.27 2162 2703 2162C2335.73 2162 2038 2108.32 2038 1738C2038 1367.68 2335.73 1314 2703 1314C3070.27 1314 3368 1367.68 3368 1738Z" fill="#FF7530"/>
<ellipse cx="1897" cy="415.5" rx="415.5" ry="492" transform="rotate(90 1897 415.5)" fill="#FF7530"/>
<ellipse cx="3888.26" cy="340.395" rx="421.358" ry="310.395" fill="#FF7530"/>
<ellipse cx="3888.26" cy="1277.58" rx="421.358" ry="310.395" fill="#FF7530"/>
<ellipse cx="3592.86" cy="820.234" rx="407.862" ry="472.341" fill="#FF7530"/>
<ellipse cx="4185.16" cy="820.234" rx="407.862" ry="472.341" fill="#FF7530"/>
<path d="M1749 1467C1749 1934.26 1372.92 2002 909 2002C445.081 2002 69 1934.26 69 1467C69 999.739 445.081 932 909 932C1372.92 932 1749 999.739 1749 1467Z" fill="#FF7530"/>
<path d="M1375 1017.5C1375 1276.46 1166.59 1314 909.5 1314C652.411 1314 444 1276.46 444 1017.5C444 758.541 652.411 721 909.5 721C1166.59 721 1375 758.541 1375 1017.5Z" fill="#FF7530"/>
<path d="M1375 1865.5C1375 2124.46 1166.59 2162 909.5 2162C652.411 2162 444 2124.46 444 1865.5C444 1606.54 652.411 1569 909.5 1569C1166.59 1569 1375 1606.54 1375 1865.5Z" fill="#FF7530"/>
<ellipse cx="5084.5" cy="841" rx="181.5" ry="129" fill="#FF7530"/>
<ellipse cx="5085" cy="1570" rx="504" ry="561" fill="#FF7530"/>
</g>
<defs>
<clipPath id="clip0_3401_34">
<rect width="5659" height="2162" fill="white"/>
</clipPath>
</defs>
</svg>
