<svg xmlns="http://www.w3.org/2000/svg" viewBox="0 0 1918.24 1200"><title>ts_czeska 3</title><rect width="1918.24" height="1200" style="fill:#fff"/><path d="M287,916H267.24l-11.11.81-8.67,2.71H239.6L234.45,916l-.54-5.42,4.61-6.23,6.77-1.09,4.61-4.06.54-6.24-1.08-17.07,1.62-29-1.08-7.32-7.32-1.63-39,2.44-9.76-1.08-17.07,1.08-5.42,4.07-2.17,5.14,1.36,23.31-1.9,16.53.54,6,3.8,1.36,9.21-1.36,4.88,5.69,1.08,7.32L185.4,913l-4.88,3.25H158.85l-14.1-1.08-15.17,3.52-7.86-1.9-5.15-4.33-.54-6.78,3.25-5.15,13.28-3.25,2.17-20-1.36-9.76,3.25-16.26-1.35-11.38-1.9-7.86-.54-6.77,2.44-16.81-.54-12.46.54-8.67-.54-15.18,1.89-13,3.53-6.77-2.17-6-13.55-2.44-1.63-12.47,1.63-5.69,5.69-2.17,4.61,1.36L141.5,729h8.4l9.49,1.36,12.73-1.9,12.74,1.63,5.15,2.43,2.71,5.15-.81,8.13L178.63,748l-5.15,10.84-3,22.76.81,16-1.08,16.53,6.77,3.26,10.84-2.17h13.55l13.28.81,23.85-.81,11.11-2.44-.81-12.47,1.08-21.41L247.46,771l2.44-9.49-1.36-17.88-13.27-2.17-3.53-4.07,1.09-7.86,8.13-2.71,21.68-.81,14.09,1.63,14.9.81,6.24,1.35,3.25,5.15-1.36,7-6,2.44-5.15,1.08-4.33,2.17-.82,12.47,1.09,11.92-1.36,10.3,1.09,19-.82,21.41-1.62,8.13,3.52,33.87-1.9,32,4.61,4.33,6.23-.54,6.24.54,1.08,7.86-.54,5.69Zm212.46-35.23-8.4,8.94-6.5,8.67-62.88,17.35-20.32,3-20.33-4.61-18.15-8.4-17.62-13L330.93,867.2l-5.15-13-3-18.15-2.17-8.68,7.86-37.94,15.72-42.27,27.1-16,20.05-6.23,24.93,2.16,13.28,3.26,17.62,1.08,13.55,3,14.09,7.86,13.55,10.57,11.11,12.47,8.4,15.44,2.44,37.94,5.42,27.64-8.4,19.51ZM471,809.48,467,794l-13.28-30.35-8.4-6L434.45,752l-14.36-1.09-21.41-3.79-17.07,5.42-11.39,14.09L366.16,781l.81,14.91-1.62,12.46,1.08,16.53L365.35,845l7,15.72,16,21.95,9.22,5.69,11.11,2.71,17.07-3,24.39-1.63,12.46-5.69,10-10.3,3.8-27.64-1.09-25.47Zm75.34-82.11,20.32,1.89,24.39,4.88L600.3,732l4.34,5.69L603.56,745l-13,6.23V764l-3.8,9.49-1.89,18.42,1.35,16.26L582.69,823l1.9,32.79-.82,19,4.61,9.75,12.47,7.32,22.76,5.42L651,892.13l6.23-5.69,6.24-9.76,2.44-10.56-1.36-21.41,3.79-24.93-8.4-50.95,2.71-19.78-16.53-3.8-1.62-7,10.29-8.41,14.91-.54,12.47,2.17,13.55,1.08,4.6,4.61-.54,8.4-9.48,3.25-5.15,4.07-.82,7.86,2.44,10.84-1.89,19.78,4.33,21.14-2.44,25.74,1.63,43.09-5.15,10.84-11.92,14.09L658,915.71l-22.22,5.15H624.15l-21.41-3.26-26.55-2.43-14.1-8.68-11.38-15.44-3.79-9.76,2.44-53.93,3.25-18.15-1.08-32,1.62-17.62-1.08-8.94-10.84-9.75-1.09-6.78Zm178,139,6.24-5.69,10.84,1.62,11.92,14.36,20.6,12.2,16.8,6.5,11.92,1.9,15.18.54,5.42-2.71,9.48-9.21-6.77-16.53-.54-11.11L821.44,849l-10.84-4.33-17.88-1.9-12.47-2.44H763.18l-20.6-6.5L735.26,826l-7.58-16.53-4.34-14.09,1.9-11.66,13.28-22,9.75-10.84,8.67-6,10.84-2.71,10.84-5.15,14.1-4.33,14.09-2.71L819.54,726l23.85,1.08,16.8,3.53,3.53,7.86-1.63,13.28.54,11.11-3.52,7.58-10-.81-6.77-3.25-1.63-8.4-7-4.88-9.49-4.61H812l-39.57,11.66-13.55,19-1.08,9.48,4.6,9.76,6.78,3.79,11.92,2.17,12.2.81H813l20.33,2.17,8.94,6.23L857.76,835l3.79,12.2-4.07,48-10.29,13-20.33,10.57-42-4.34-27.37-5.15-23-8.94-10.3-3-4.87-9.48,1.35-9.76Zm267.75,30.08,10.57-7.59,6-9.49,4.88-6.5,8.94,3.79,1.09,21.68,1.35,10.57-6.23,6.51-19,3H971.58L958,913.81l-17.35,1.36-10.57,1.89-14.63-.54-18.7,3.79-8.13-.54-3.25-7.31,1.35-9,14.91-10.84L903,881.29l1.9-52.84-4.06-40.65,3.52-27.1-2.71-7.59-13.55-6.77-5.42-9.76,1.9-8.67,13.82-2.44,10,3.25,12.2-1.35,12.19-.55,14.37,2.44,13.55-4.6,39,3,19,2.71,6.23,6.5-1.35,10.57-1.09,21.68-8.94,3.79-4.88-6.5-10.84-9.21-6.23-4.07-10.84-2.71h-13l-10-.54-11.39.54-6.77,7.32L938,765l2.17,13L938,790l4.61,13.55,7.32.27L969.68,806l6.5-7.58,1.36-7.32,3.79-5.15,6.78-.54,7.86,7.32L995.15,806l3,14.91-.81,13-.81,5.15-3.8,5.15H983.5l-5.42-2.71-2.17-6.24-5.15-4.6-20.86-1.09-11.39,3.52,2.17,33.07-1.62,22.49,4.06,5.69,6,.54,28.46-1.62Zm82.93-169.92,10,3.53,20,5.14,8.4,5.7,4.07,9.48,16.53,22.22,4.88,16,4.6,6.5,5.69,18.16,7.05,16.8,5.15,6.24,3.52-3.26,9.22-22.76,4.6-17.61,7.86-17.35,4.61-12.46,1.35-8.4,3.25-4.07,2.71-10.84,3.53-7.86,6.5-6.5,13.82,1.35,9.22,1.63,12.19-2.17s10.57,2.71,15.18,3.25l1.08,7.32-2.71,4.06-8.94,4.34-7,7.32-.81,13.55,3.79,29.81,1.9,29.26,3.79,17.62-2.43,48.24,9.75,2.44,10-1.36,3.25,5.42v6.78l-4.07,7.85-6.5,1.09h-17.61l-22.5,1.9-16.26,5.69-5.15-3-1.62-5.41.54-6,6.23-3.79,8.68-1.08,2.71-5.42-1.63-9.49-1.36-13.55V835l-3-35,2.71-14.9-4.06-4.34-3.52-1.62-4.88,5.69-7.59,30.08-3.79,6-8.68,31.71-5.69,10.29,1.63,10-2.17,4.88-8.67,4.88-8.67,1.89-6.78-1.62-4.6-2.71-8.68-10.84-34.14-77.24-6.23-12.19-4.07-1.09-4.88,3.8L1085.4,790l2.44,37.12L1083,866.93l3.52,30.08,4.88,4.88h11.11l6,12.19-7,4.34h-33.88l-14.36,3.25-5.42-4.34-2.44-6.23,5.15-7.32,7.59-1.89,3.52-6.51-1.08-7.58,1.62-6,1.36-13-1.9-53.66,2.71-23.58,3-7.86,1.9-19-.81-12.19-1.9-5.15-5.15-3-1.36-5.42,3.26-6,7.58-5.69Zm280.49-2.17,24.66.82,6.77,8.94,17.35,60.43,20.32,88.35,3.79,12.46,3.53,3.26,11.38,5.42L1442,916.25l-12.19.54L1409,914.9l-14.9,2.16h-11.38l-2.44-3.79.81-4.34,3.52-4.6,10.84-4.34,1.09-6.77L1387,866.39l-11.11-1.63-43.36,4.34-2.44,3-3.25,26.56,13.55,4.87,4.88,5.69-1.09,4.88-16.53,1.63-22-2.17-17.88,2.17-.82-6.78,13.28-7.86,3.25-7.58,2.17-13.82,4.07-18.43,7-21.14L1327.4,797,1341,756.63l.82-8.67-7-15.17,2.17-4.88ZM1351,795.11l-10,31.44-1.89,14.91v4.06L1348,848l11.65-2.17,5.15,1.36,14.63-6.51-4.6-35-8.68-42,1.9-5.15-5.69-3.52-3.52,3.25Zm173.71-64.76,30.89-5.15,12.47,3.79,26.83,4.34,10.57,3.79,16,24.93,3.8,8.68,2.44,14.36-1.09,14.9,4.88,14.91,1.36,12.46-1.9,21.68-3.8,14.37-6.23,9.21-4.33,11.92-7.59,10-14.91,13.55-14.9,7.59h-35.5l-28.73,1.89-21.14-1.35h-22l-10,3-4.88-3.52v-8.13l3.25-6.78,9.22-1.89,6.23-5.15.54-6.78.81-5.69-1.35-12.19V819.23l1.9-23-2.44-33.06,1.08-8.67-1.9-6.78-11.65-1.9-3.25-12.46,7-6.24,16.81-2.16Zm-9.76,49.59-2.71,18.7-3.25,54.2,5.15,42.81,7.05,3.26,21.4-1.9,22.23-6.78,11.92-6.23,4.34-13.82,5.42-23,4.6-29.81-.81-20.6-1.63-16.8-8.94-14.09L1567.51,752,1555,744.71l-10.57-1.36-7.32,1.36-14.9.54-3.79,1.9-4.88,3v16.8Zm278.86-10.84-8.94,3.79-6.24-2.71-9.48-13-8.94-4.07-10.84-2.71h-10.3l-10-.54-11.38.54-6.78,7.32-1.62,7.31-1.09,7.86-1.89,9,3,19,.54,8.4,4.06,5.15,7.32.27,19.78,2.16,6.51-7.58,1.35-7.32,3.8-5.15,6.77-.54,7.86,7.32-.81,13.27,3,14.91-.81,13-.82,5.15L1764,855h-9.21l-5.42-2.71-2.17-6.23-5.15-4.6-20.87-1.09-11.38,3.52-2.44,7.05,3,37.67,4.07,5.69,6,.54,14.9,2.71,13.55.54,12.2-3.25,4.88-6,3-13,13.28-1.35,7.31,2.71,4.34,24.66-11.65,6.77-7.32,7.05-11.92,3.52-11.66-2.17-6.5-.54-15.45-2.71L1712,915.17l-10.57,1.89-14.63-.54-19.52,3.79-8.13-.54-3.25-7.31,1.36-9,8.13-2.16,7.86-4.07,1.35-11.38,1.63-33.06-4.07-65,3-31.17-2.71-7.58-8.94-2.71-4.07-6.24-.54-6.23,3.53-5.69,7.31-2.71,10,3.25,12.19-1.35,12.2-.55,14.36,2.44,13.55-4.6,39,3,19,2.71,6.24,6.5-1.36,10.57Z" transform="translate(-1.76)"/><path d="M233.73,428.46l-4.33,5.36-9.27.82L216,436.29l-7.42,1.44-13.8,3.92L168.63,446h-8l-10.1-1.65-15.24-7.21-7.42-2.26-16.06-16.07L105.39,385l1-16.07,2.68-9.06L114,338l1.44-9.27,2.27-5.56,2.88-3.91,5.57-9.48,19-9.48,11.95-1.64,23.27,2.47L184.7,303l8.44-1.65,8.66,5.15,12.77,4.54,5.56.2,6,1.44,3.71,8-1.44,11.95-3.91,6.38-5.36,1.24L208,334.94l-4.54-5.77-1.85-4.32-5.36-2.06-5.35-3.71-9.48-2.88-10.91.61-5-1.64-5.15,1.64-6-.41-6.59,4.53-4.54,6.6-2.67,6.79-2.06,12.16.82,12.77.82,4.94-1.85,17.31-1.24,6,.83,6.59,3.29,10.1,2.89,5.76,3.29,3.92,1.86,3.5,3.5,1.44,1.85,3.71,6.8,4.53,10.51,1.65h8.85L200.35,426l4.12-1.44,6.8-4.33,5.36-10.71,4.32-1.23,5.36.82,3.71,2.06,4.12,7-.83,4.53Zm113.71-87.34-23.07,27-13.6,21.42-16.27,20.6-4.33,7.62,1,6.39,4.33-.42,35.22,3.92,10.71.62,3.92-5.36.62-5.56-.62-6.39,6-3.5,6,1,6.59,1.86,1.23,6.79-3.29,17.1,1.23,5.56-13.59,4.12-17.72.62-25.13-3.71-12.15-.41-11.95,2.47L255,441.23l-6.39-4.94,2.68-7.42L264.42,407l6.8-15.24,14-11.33L297,363.78l28-33,3.09-7.41L324,320.52l-7.63-1.44-33.16,1.44-7.42,4.74-2.88,4.12L270,337.62l-5.36,3.91-9.48,1-4.94-2.26,1-9.27-.62-5.77,1.65-7,1-7.63,4.53-3.5,9.48-2.06,12.36,2.06,10.3.41,13.18-4.73,35.64,1.44,17.71-1.86,7,1.65,2.67,3.3-1,5.15Zm139.46-9.47-6.8,2.88-4.73-2.06-7.21-9.89-6.8-3.09-8.24-2.06h-9.89l-7.62-.41-8.65.41L421.81,323l-1.24,5.57,2.06,6.79-.41,7.21-1.65,9.07L421,358l3.09,3.92,5.57.2,8.85,1.65,4.95-5.77,1-5.56,2.88-3.91,5.15-.42,6,5.57-.61,10.09,2.26,11.33L459.5,385l-.61,3.91L456,392.83h-7l-4.12-2.06L443.23,386l-3.91-3.5-9.68-.83L421,384.38l1.65,21-1.23,17.1,3.09,4.32,4.53.42,14.62-2.68,9.48,2.26,8.86.42,3.7-4.54,6.39-9.88,6-1,5.57,2.06,2.67,6.18-1,8.85-.41,6.8-4.74,6.39-7.62,1-9.06,2.68-8.86-1.65-4.94-.41-13.8-2.06-13.19,1-8,1.44-11.13-.41-14.21,2.88-6.18-.41-2.47-5.56,1-6.8,6.18-1.65,6-3.09,1-8.65L390.91,386l1.44-40.17,2.27-23.69-2.06-5.77-6.8-2.06-3.09-4.74-.41-4.73,2.67-4.33,5.57-2.06,7.62,2.47,9.27-1,9.27-.41,10.92,1.85,10.3-3.5,31.72,2.27L484,302.19l4.74,4.94-1,8Zm25.76,88.78,3.5-5.56,8-1,11.95,7.82,17.51,4.95,13.8,1.23,8.86-1.23,8.65-1.86,3.3-3.29,5.15-8.45-1.86-11.94-2.68-7.83-1.44-3.09L579,387.26l-10.72-.82-9.68-3.09-19.15,2.47-16.07-3.91-5.77-5.77-7.42-14.63-3.5-10.5-1.44-18.95,4.33-12.57,7-8.65,6.18-4.94,8.24-2.48,8-4.32,19.37,2.06,11.94-.41,14.84,2.06,12.36,2.88,13,1.85,2.89,5.77,3.09,9.27,1.23,8.86-1.65,10.92h-7.62l-5.35-2.06-8-9.48-1.44-5.56-9.68-2.47-21.84-8-27.19,4.54L532,322.58l-.41,7.21,6.59,25.75,5.36,2.68,9.06,1.23h9.47l11.95-.82,15.66.82,7,4.33,12.57,15.66,6,12.15-2.06,22.86-4.94,11.75-12.36,11.74L567,442.88l-21.22,1.86-18.74-1.86h-8.24l-5.36-5.77-.82-7.41Zm223.5,22-21.63,2.68-4.94-3.3-1-4.94,8.45-3.3.82-5.35-.82-4.33-12.36-7.83-6.39-7.62-6.38-6.8-5.36-6.79-8.24-7.21-3.91,2.06-1,3.5v27.81l-.83,6.59,3.3,3.5,6,.41,3.5,6.39-1.64,2.68-5.36,1.64-5.36.42-18.33-1.45-11.33,1.45-7.21.41-3.91-6.8,1.23-4.12,3.92-1.85,6.18-.62,5.76-4.95-1.85-45.11-3.09-10.71,3.09-25.75-2.27-9.68,1.24-9.27-1.24-8.65-3.5-.62-3.91-1.85L634,309.6l.82-6.18,5.57-3.09,11.33,1,9.06-.41,13,1.65,8-.82,5,2.06v8.24l-13.19,3.7L669.42,323l2.47,24.31-.82,7.42,2.06,9.68,1.85,4.74,4.74-.42,4.95-2.88,6-11.54,10.3-14.41,3.71-8.45,5.15-8,.82-6.8-2.47-3.3L703,311.46l-.21-4.74,2.06-5.36,9.07-.61,7.21,1.23,8.85.41,9.07-2.06,3.29,3.51,2.06,4.73-2.26,3.71-5.15,1h-6.18l-5.36,6L724,328.14l-2.88,5.36-2.06,5.56-5.15,4.12L710,349.36l-3.71,8.24-7.41,10.92-2.68,7.21L707.12,384l6.8,10.09,7.62,6.59L733.9,413l6.8,14,2.67,2.27,3.51,1.23,4.32-.2,4.33.61.62,5.77-6.6,6.59Zm77.26-144.81,18.74.61,5.15,6.8L850.49,351l15.45,67.15,2.89,9.48,2.68,2.47,8.65,4.12-1,9.27-9.27.41L854,442.47l-11.33,1.65H834l-1.86-2.89.62-3.29,2.68-3.5,8.24-3.3.82-5.15-7.21-20.39-8.44-1.24-33,3.3-1.86,2.26-2.47,20.19,10.3,3.71,3.71,4.32-.83,3.71-12.56,1.24-16.69-1.65-13.59,1.65-.62-5.15,10.09-6,2.48-5.76,1.64-10.51,3.09-14L784,385.62l8-32.76,10.3-30.69.62-6.59L797.55,304l1.65-3.71Zm-3.51,53.76-7.62,23.9-1.44,11.33v3.09l6.8,1.85,8.86-1.65,3.91,1L831.54,386,828,359.45l-6.59-31.92,1.44-3.92-4.32-2.68-2.68,2.48Zm177,4.74-4.53,6,1.64,13L976.77,412l1,10.71,1.65,5.15,7.42,1,5.76-5.15,2.68-4.32,4.12-.41,4.33,6.59-5,7.21-10.71,9.68-10.3,2.27-13-1.65-6.8-6.18-6.8-8-.82-11.74,1.44-19.77,3.5-14.22,2.47-22.66-.41-9.68-5.15-2.06-11.12-.82-2.27-5.56,16.48-5.15L979,311.87l7.83,1-2.27,22.66,2.27,4.53,10.3.41,11.12,2.27.62,7.41-3.3,5.15Zm57.27-17.1,14.21-1.44,2.26,5.15V350l-7.41,1.65,13.18,46.55,12.16,18.33-.42,6.6,4.74,2.47,6.18-12.77,3.71-17.1,1.44-27.6-.82-12.36L1084.3,352l.42-7.21,5.76-3.71,13.6-.62,19.16,3.92-1,6.18-5.77,3.29-5.77.83-1.23,4.73.82,9.89-4.74,31.52-9.47,31.72-5.15,9.89-8,5.77-7,3.71-6.18,9.06-7.62,9.48-27,6.17-11.74-2.05-2.88-6.6,2.88-9.88,4.74-3.3,19.36,1.85H1054l7.63-4.12,6.17-5.76,3.71-9.07-8-6-27-37.9L1031.36,372l-1.44-11.74,1-6.59-2.88-2.89-9.07,1.44-2.26-2.88-.62-7,14.21-.41Zm86.31,12.77,1.44-10.91,21.22-2.89,15.66,4.33.82,6.18-.82,7.41,4.32,1.44,5.56-4.12,10.51-9.47,5.15-3.3,19.36-1.44,18.34,6.18,8.65,15.45,6.59,26-4.33,28-11.33,25.54h-8.24l-24.92,5.57-16.89-3.3-7.21-10.71-5.15,2.88-2.27,14v17.51l1.44,9.48-5.35,6.17-30.7-1.44,1-5.15,11.33-8.65-2.47-17.3,3.71-28.84-1.85-16.07,4.73-42-.82-8-10.51,2.27-5.15.62Zm41.41,29.25-1.65,17.1-.62,16.89,12.36,9.07,20.8,4.73,8-2.88,6.38-9.48,4.33-17.5-.62-13.19-11.33-25.13-8.86-4.74-11.53,3.92-16.07,8.85.83,3.92ZM1314,393.86h-16.9l-3.91,8.65,2.27,7.21,7.82,7.62,14.63,8.86,18.54-1.65,13-3.3,10.09-4.32,4.74,3.09,1.85,7.82-9.89,5.57L1337.48,440l-21.84,4.32-15.86.83-12.15-4.74-10.3-10.3-11.54-23.69.62-15.45,9.27-30.69,10.3-11.74,24.31-10.92,32.34,4.53,14.21,3.92,7.62,13.18,4.33,13.18.62,14.22-5.56,4.53Zm13.59-40.17-7.41-1-11.54,2.26-8.86,4.33-4.94,8.24.62,9.89,25.75,1.64,20.6-2.26-2.48-9.89Zm118.66-26.58-8,1-4.32-2.26-4.53-7.83-8.86-3.91-5,2.88,7.42,9.48,1.85,8.24,1.24,9.88,12.15-1.85,9.69,1.85,2.26,10.3-3.29,4.53h-19.78l-2.47,1.86,1.44,18.95-1.65,16.48-2.06,12.57,1.24,17.3,6.18,6,8.44-1,3.71,4.95-.62,4.94-5.56,2.68-20.8-1.65-14.22.62-12.56,1.23-3.71-5.56-.21-6.18,12-1.65,2.47-25.54-2.26-16.89,4.32-23.9-.82-3.7-15-2.27-3.09-8.65,2.47-5.36,2.27-3.5,14.62,2.47.42-11.12-5.15-13.8,1.64-7.62,6.18-6.6,14.84-6.59,12.56.83,15.66,7,3.29,5.56-1,9.27Zm121.33,108.36-7,8.65h-8.45l-9.89-5.56-4.94-8.24-7,9.88-6.59,3.3-15.65-1.24-20.19,3.3-6.8-1-12.15-10.3L1465,427l-3.09-8.24,2.06-11.33,7.42-9.47,12.15-7.63,14-3.09,13.6-4.94,12.56,1.24,11.13-1.24,3.91-6.18-4.53-15.24-8.65-3.51-14.42-1.85-12.57,5.77-7.21,6.18-7.62,2.88-9.48-3.09-2.47-6v-8.24l6.18-8,6.39-2.68h8.24l10.3-3.5,39.34,4.12,11.13,6.59,5.15,6.38,5.76,15.25,1,16.06-11.74,28.64,4.12,8.65h6.39l4.94-3.92,5.56,2.68-.2,6.39Zm-43.26-37.7-10.71-1.65-12.77,5.15-10.71,7-2.48,10.5,3.09,4.53,9.48,3.71,20.6-1.44,13.18-10.1,1.44-12.35-2.88-5.36ZM1678,381.5l-10.91,3.29-4.53-2.68-3.71-13.18-8.24-6.59-7.62-3.09-9.48-1.86-12,2.68-4.53,8.86-1,9.89.62,15.45,1.65,8.44,8.24,13.6,6.59,6,10.92,2.89,19.77-6.18,6.59-4.74,8.65-.62,6.18,5.36-2.26,5.56-12.15,8.86-12.57,4.94-11.54,3.3-21.42,3.29-17.51-2.26-11.53-13.19-4.54-9.06-3.5-12.36L1587,395.92l1-7.83,3.5-7.42,7-20,7.62-10.51,8.45-6.17,11.33-5.77,9.68,1.23,26,6.8,6,3.3,9.47-.42,8.86,4.54,1,8.65-1.23,9.89Zm54,12.77-1.86,7,1.65,7.21,6.39,9.68,9.27,6.18,12.15.62,16.89-.62,19-5.15,4.54,3.3-3.3,8.44-9.89,7.83-36.66,5.36h-15.87l-11.74-5.36-9.89-10.92-10.29-24.1,1.44-15.65,7.62-27.81,14.42-13.39,24.72-9.48,31.93,6.18,14.21,6.8,2.88,14.42,7,16.27-3.09,9.89-46.14,1Zm38.52-39.55-10.92-1.86-11.74,1.65-9.27,3.91-3.71,6.39-1.23,11.33,25.54,3.09L1780,378l-2.06-9.88Z" transform="translate(-1.76)" style="fill:#8a1024"/><path d="M196,1022.93l-4.47,12.32-4.16,5.39-6,5.7-8.78,4.47L165,1052l-.92,3.7,4.62,4.46,5.85,1.08,3.23,3.7,1.85,12.93v4.16l1.85,3.7,4.93.77,4.62-1.08,1.08,5.24-6.32,2.15-6.16,3.7-8.47,2.46-3.54-3.54-3.23-5.85-.62-4.93-4.77-4.62-1.54-9.55-4.16-6-3.85-3.23-4.62-1.69-4.31-.31-3.24,1.38-3.23,11.71-1.39,13.71,4.62,1.07,4.16,2.16-.62,6.47-3.85,2.15H118.68l-8.32,1.08-4.62-2.15-.92-4.16,2.46-2,3.23-1.85,3.39-2.62,3.24-21,4.15-16.17,4-33.26,2.77-12-1.08-2.47-9.85-1.69.46-7.55,2.31-2.62h8.62l7.09,2.16,11.24-2.77,7.85,2,28.19-1.08,9.08,5.24,4.32,4.16,2,9.39-.46,6.78Zm-31.42-22.33-14.63,1.23-3.23,3.7v7.85l-6,24.95-.92,10.78,2,1.24,4.77-1.85,8.16-2.62,6.78-2.93,7.08-2.31,5.7-4.92,5.24-20.64-6.16-12.48Zm122.59,49.9-8,20.18-2,9.85,7.39,4.16,3.69,3.08-.61,4.31-5.55,5.39-11.7-1.85-11.71,3.55-3.23-2,2.16-9.08-4.78.61-13.24,4.16-10.63,6.47-6-.46-7.08-4.16-3.39-8.62-.46-10.17,2.16-7.85,2.92-14.33,1.23-9.24,3.24-4.62-2-4.77-9.09-3.54.92-5.85,6.47-6.32,11.4,2.46,9.7-.77,6.47.93.62,6.47-3.55,5.7-2.15,5.54-2.62,16.79-4.93,19.71,1.08,5.08,3.85,1.08,9.39-2.16,9.4-8.62,4.62-7.7,4.62-12.17,3.23-16.17-8.47-7.7.93-5.08,4.15-3.08,7.55,1.08,6.62-.62,7.55-1.39,6.31,3.08-4.31,16.79Zm16.16,31.42,6.93-1.7h5.55l3.54,1.24,2,3.85,3.08,2.15,8.93-.46,4.32-1.08,4-2.31,3.08-6.16-2.16-4.31-4.77-5.85-9.55,3.69-10.63-.61-6-5.7-2.93-13.09-.61-5.08,2.46-4.78,4.77-11.55,15.41-8.93,12.93.92,11.4-2.92,10.62-1.7,5.7,3.54,3.24,4.78-.62,8-5.08,2.92L364,1040l-4.47-.62-4.46-4.46-5.24-3.55-12.47,1.08-4.31,2.62-6,6,3.08,9.24,7.08,5.39,14.79-4.32,10,5.86,3.69,5.69-.92,4.16-.92,6.32-5.09,16.17-4.31,1.23-6.16,5.54-9.55,1.39-8.62-1.39-8,2.16-7.24,1.54-9.08.62-5.09-7.09,1.08-7.7Zm130.44-52.21-13.55,2.46-2.77,4.32-2,6.93-.62,9.24-4.16,11.24-2.77,9.7-1.54,7.24,1.69,5.08,5.39.62,5.09-2.93,2.46-3.39,3.23-.46,2.31,4.93-5.08,8-8.93,4-8,2-9.39-.92-4.32-4.47-4-5.85.92-8.93,3.08-14.63L395,1053l3.7-16.17.77-7.23-3.7-1.39h-8.16l-.46-5.24,16-6.31L419,999.52l6.93-1.38-4,17.25,1.24,3.38,5.23.93,8,.46-.15,3.85Zm34.65,67.76-13.24.93-3.24-1.7-2.77-4.62.92-7.54-1.23-8.94,2.31-19.86,2.62-9.09,1.08-14.78-.46-2.62-3.08-.46-3.24.61-2.62-1.69,2.62-6.93,5.7-.31,10.94-2.31,8.93.46,4,2,1.08,4.93-4,15.56-.62,10.93-6.31,20,.61,11.55,4.78,3.08,4.62-.15,1.54,2.46-1.54,5.7Zm-6-108.57,6.47-2.77,5.7-.93,5.24.93,4.16,1.23,3.69,8-2.62,6-8,6.47-6.93.77-6.94-.77-6.16-6.47.77-6.47Zm102.11,55.9-6.16,3.39L553,1046l-2.93-4.15,3.24-6.16-3.39-2.47-5.85.62-7.09-2.93-4.93,1.39-7.08,3.39-4.31,6.93-3.08,6.93.61,11.39-.77,6.93,3.24,10,6.31,4.32,7.7,1.54,15.4-5.86,6.78-1.69,5.39-4.47,4.16,6.16-2.93,5.86-7.08,5.85-10,3.39-6.47,2.77-21.26,3.85-7.85-2.62-12.17-7.55-2.46-6.46-1.39-9.24.47-9.25,1.69-5.85,2-9.55,4.47-8.77,5.7-9.55,7.08-5.08,12.48-5.09,11.08-1.08,10.78,2,7.55-2.62,5.08,2.15,6.32,3.08.61,6.63-2,7.39Zm108-15.09-13.55,2.46-2.77,4.32-2,6.93-.61,9.24-4.16,11.24-2.77,9.7-1.54,7.24,1.69,5.08,5.39.62,5.08-2.93,2.47-3.39,3.23-.46,2.31,4.93-5.08,8-8.93,4-8,2-9.39-.92-4.32-4.47-4-5.85.92-8.93,3.08-14.63,4.16-10.94,3.7-16.17.77-7.23-3.7-1.39h-8.16l-.46-5.24,16-6.31,15.87-17.1,6.93-1.38-4,17.25,1.23,3.38,5.24.93,8,.46-.15,3.85Zm49,50.82s-2-5.54-2.15-5.7-5.86-4.62-6-4.92-2.16-6.78-2.16-6.78l-5.23-13.4.61-15.09,1.54-8.32.31-6.62-14.63-.77-7.39,2.15-2.93.62-3.69,2,.3,2.78.93,2.77,3.54.77,4.31.61-2.92,8.32.77,9.86,2.15,8.47,4.62,14.32,3.54,4.62,5.4,6.16,6.62,6.31.92,3.39-6.47,9.7-5.85,2.78-8.62-1.85-6.47.92-4-1.54-4.62,4.16-2,5.24,2.77,7.24,12.63-.77,15.4-4.32L713,1105l5.7-8.32,12-12.32,6.16-12.32,3.39-10.93,4.47-9.09,2.46-19.87,3.7-2.61,2.31-3.39.77-2.31-1.39-3.24-8.16.62-7.24-2.62-3.7,1.85.93,5.7-.16,3.69-3.08,25.26-4,13.71-1.23,7.39Zm113.19,5.7-11.24,8.16-20.64,3.08-9.39-1.23-3.85-4.16-5.7,3.85-2.16,12.94v9.55l3.39,3.23-2.15,4.78h-7.7l-12.79,1.84-4-5.54,4.16-6.78,2.62-10L763,1092.39l7.08-27.26,3.24-26.64L770.09,1028l-6.16.61-2.15-5.08,1.23-2.47,4.31-1.69,9.24-.62,13.86,3.24,1.85,3.08-1.23,7.7,1.38,2.77,3.85-6.93,14.48-8.32,17.1-1.38,15.09,8.47,4.47,19.1-.93,17.55Zm-15.86-50-8.47-2.93-12.47,6.62-6.47,12.32-4,16.33v10l3.7,3.23,2.15,6,7.09,1.08,10.47-1.08,15.09-13.71,3.08-14.17v-5.54l-3.85-8.78Zm116.1,22.48-18.79-.77-18.79,1.54-13.55,2.31-2.46,5.7.77,5.39,4,7.55,12.32,4,9.24.62,15.25-6.62,7.24-4,4.16.77L937,1079l-1.08,3.85-7.08,4.93-11.4,6.78-20.18,4.92H880.65l-8.47-3.23-6.31-7.55-5.55-17.55,2.47-11.55,2.92-10.32,8.16-13.09,7.55-10.63,21.25-6.93,23.57,2.16,8.16,4.16,5.85,8.16,2,9.85-2.15,10.63Zm-23.72-31.41-10,2.46-8.93,5.54-4.93,6.47-1.69,5.85,19.71,1.54,14.17-2.61,2.62-7.4-2.93-8.31Zm105.19-16-3.24-.31-2.62-2.62-3.23.77-2.93-1.85-.3-5.08-4.78.77-5.08,1.85-2.46,5.24-.47,5.08-1.54,5.08.47,3.54,6.62-4,6.62,1.54,4.31,2.15,1.85,4.47-2.16,5.85-5.39,2.47-5.23-.62-9.24,2.31.46,5.39-3.54,28.34-3.39,17.86-2.47,4.62-.92,6.16-9.39,14.17-7.09,4.78-5.54,2.77-7.24-.31-5.85,1.7-7.09-3.55-3.39-6.16,1.39-4.16,2.31-3.54,3.85-.61,1.69,1.84,4,2.62,3.23,1.23,5.24-1.84,3.7-6.32,2.15-5.85.46-10.32,6.63-34.19,1.84-14.17-1.69-3.38-10.93.77-1.54-3.39L953,1025.4l.15-4.32,7.55-1.54,6.62.77,1.85-3.08,1.39-4.77,3.08-5.7,1.23-6.31,6-5.24,5.7-3.85,12.94-.92,5.39-1.7,6.47,1.85,7.54,1.23,4.16,3.55-1.08,8.93Zm72.07,40.35-4,17.25-2,15.86,9.55,4.31-1.85,7.7-14.17,1.08-9.54-1.23-3.7-1.85,2.16-10.93-.93-5.7-2.92,5.23-3.55,5.09-6.93,6.16-11.24,2.77-14,1.85-12.63-7.7-4.47-18.33,8-27.57,7.85-15.24,8.94-4.47,10.32-3.85,10.78.46,20.17,6.47,6-10,7.39-.93,4,2.31,1.54,10.63-3.69,11.09Zm-32.5-19.41-13.7,3.85-10,6.16-.31,5.24-2,8.62-2,12.32,1.39,9.71,6.47,3.39,5.24,1.07,7.54-1.54,8.93-7.39,9.55-15.71,4-14.17-4-6.46Zm117.51,14.33-6.16,3.23-5.39-2.31-1.08-9.86-3.54-3.08-4.78-3.38-4.31-.16-10.93,4.47-4.47,6.77-2.16,7.4-2.31,10.62.93,7.39,4.31,10,4.16,4.31,7.7,1.85,15.55-5.24,5.55-3.7,6.62-.61,3.85,3.85-2.31,4.16-7.7,8.16-10.17,3.08-6.62,2.46-21.4,3.24-7.7-2.93-11.86-8-2.31-6.62-.93-9.24.62-9.09,1.85-6,2.31-9.4,3.85-9.85,7.08-8,7.09-4.93,14.63-6.32,8.62,1.85,12-.77,5.86,2.93,7.08-.62,6,3.24.46,6.62-3.08,7.24Zm89.47,15.7-18.79-1.38-18.79,1.54-13.7,2.31-2.31,2.77.77,5.39,4,7.55,7.39,5.08,14,1.69,16.48-2.61,7.7-3.24,3.54,2.31,1.23,4-8.62,6.46-12.48,4.32-20.94,2.61-12.63-1.54-8.47-3.23-6.32-7.55-5.08-12.62-.61-16.48,5.23-13.4,8-9.55,6.47-12.94,22.18-2.62,23.25,1.24,8,2.62,5.85,8.16,2,13.4-2.15,10.62Zm-23.72-35-10,2.46-8.93,5.54-4.93,6.47-1.69,10.94,34.19-3.55,3.54,2-1.23-12-2.93-8.31Zm167.25-22.49-1.39,21-4.31,22.63-.77,13.56-3.54,15.4-.77,6.47,6.62,1.23,1.69,7.08-18.78,7.09-6.32-2.93L1377,1091l-1.69-2.77-10.32,7.24-11.55,3.23-10.47-2-7.86-1.08-5.69-5.69-4.78-9.24-2.31-18.79,5.55-23.72,7.54-9.39,6.16-4.93,11.4-2.47,15.55-1.69,7.4,1.85,6.16.92,3.38-1.85,1.7-9.55,1.69-6.77-2-5.24-5.7-2,1.85-5.85,6-1.54,17.86-2,1.7,4.77-.47,4.16Zm-36.19,24.8-9.71,2.92-9.08,7.09-3.54,5.23-2.78,6.62-1.07,5.86-.31,9.39,2.31,8.16,4.77,5.86,4.16,2.15,7.08.62,8.63-5.24,5.54-7.54,1.54-4.93,3.85-18.33.93-10-2-5.24Zm121.35,26.64-18.94.61-18.64,2.93-13.4,3.23-2,6,1.08,5.24,4.77,7.24,12.48,3.08h9.24l14.78-7.86,5.86-2.31,3.08.77,4.15,4.16-.77,3.85-5.69,2.46-10.94,7.55-19.71,6.47-2.77-1.08-15.87,1.69-4-2-3.08-3.39-2.46-.77-3.85-2.92-6.78-17.1,1.54-11.7,2.16-10.63,6.16-14.17,7.7-10.47,20.79-8.47,23.56,1.85,8.62,2.15,6.32,7.71,2.62,9.7-1.24,10.78Zm-35.73-7.39,10.63-2.31,9.55.61,4.46-6.77.46-4.78-8.47-4.31-12.32-3.39-12.93,6-4.93,5.08,2,8.93Zm52.2,34.8,2.47-2.46,4,.31,3.7.77,3.7,2.61,4.31.62,6.62,2,7.39-.46,4.93-5.54,3.23-5.86-.77-4.62-6.31-4.93-19.71.77-6.16-2.77-4-5.54-1.23-4.93,1.85-7.55,6.77-16.47,14-6.78,12.94.92,8.77-4,14.79-1.7,5.7,3.55,3.23,4.77-1.08,9.09-4.92,3.23-4.47-.61-4.47-4.47-7.85-2.31-5.7.62-13.24,2.61-6,6,2.93,7.08,7.85,1.54,10.16-1.07,10.63,4.46,4.47,5.24,2.31,8.16-2.16,7.86-2.31,6.93-4.93,8.47-7.85,6-8.78,3.85-10.63,1.54L1521.6,1099l-7.24,1.54-4.47.62-5.08-7.09,1.08-7.7Zm114.89,11.55-10.32,3.85-8.62-2.31-8.16.77-2.78-5.39-2-6.62,1.7-9.86,5.08-18.48-1.08-10,2-15.24-2.77-2.93-5.08-.46,2.77-9.86,11.24,3.08,10.32-1.85,7.24.77,1.23,4.32-5.08,16-1.23,11.09-5.86,19.87,1.08,11.24,3.54,3.39,4.32.77,3.23,2.77Zm-19.25-101.64,6-3.39,6.77-2,12.32,1.69,4,5.85-2,8.47-3.23,2.78-4.47,2.92-7.39-1.23-5.23,2.62-6.63-3.7-3.23-5.7Zm120,36.81-.46,4.15-4.62,25-.31,6.47-2.16,9.24-2.92,17.4-1.08,14.17-1.85,3.08-2.93,4-3.08,7.54-2.46,2.78-17.56,3.38-8.62,1.08-9.09-.92-6-2.47-5.55-1.69-6.16.31-6.78-4.47-2.77-3.39.46-4.31,2.93-4.77,8.32-.62,5.54,1.54,3.39,2.31,2,2.46,1.85,2.78,2.62-.62,9.85,1.39,8.47-2.77,4-2.47,4.77-9.09,1.23-5.08-.46-5.23-1.23-.31-4.47,2.62-5.85,1.07-5.7,1.54-12.78-.92-4.62.62-3.69-2.78-7.09-4.31-8.16-10.16-2.62-14.33,3.23-19.25,3.24-7.54,3.85-7.09,11.09-6.16,15.4-5.23,12.78,1.84,7.85-1.07,6.47,5.39,2.62,6.16,4.31-9.4,9.09-5.23,6.93,3.08,1.85,3.85-1.54,2.62Zm-58.37,48.82,6.78,3.23,9.85-2.46,7.09.92,3.69,2.31,3.39-12.94,3.39-9.55,1.08-9.08-1.08-7.86-5.85-8.62-5.55-5.7-6-.61-6.32-1.85-4.31,2.46-6.62,9.4-4.93,17.55-.77,8.47.92,5.86Zm77-11.56,8-20.17,1.54-13.24-6-3.39-3.7-3.08v-4.16l4.62-3.39,11.71,1.85,8.78-.77,3.23,2-2.15,9.09,3.69,3.08,8.93-12.63,11.4-4.62,6,.46,12.47,6.47,3.39,8.62.46,10.17.62,6.16-5.24,18.48-1.23,9.24-3.23,4.62,2,4.77,8-.3-.93,5.85-3.23,4.46-11.24-.92-10.63,2.31-6.47-.92.31-8,3.54-5.7,2.16-5.54,2.61-16.79,4.93-19.71-1.07-5.09-3.86-1.07-9.39,2.15-9.39,8.63-4.62,7.7-4.62,12.16-4.93,16.79,2,5.54,5.85,2.47-.92,5.08-1.85,2.16-7.55-1.08-6.62.61-7.55,1.39-6.31-3.08,4.31-16.79Z" transform="translate(-1.76)"/><path d="M182.13,624.5l-6.92,1.86-3.59-3.06-3.72-5.18-1.33-4.26-4.92-4.12-3.2-8-4.52-5.32-3.86-2.79-4.25-1.6-3.86-.4-2.53,1.06v4.93l-.93,17.68,5.06,1.07,4,2,.4,5.46-3.2.93-12.5-.67-11.83,1.73-5.32-2.13-1.47-3.59,1.47-2.79,4-.8,3.45-1.73.94-17.15-2.4-14.9,2.66-39.23-2.53-3.06-4.78-1.6-3.33-.66-.66-5.59,1.59-2.39,6.79.79,6.51,2.13,8.78-1.46,17.16,2h16.89l6.65,4,4.39,3.73,3.72,9.57.8,4.53-.4,6.38-2.66,10.51-2.79,4.52-4.39,4.79-6.92,3.59-8.64.79.53,2.8,6.12,4.39,5.32,1.06,4.65,1.73,2.79,12.37.54,3.59,2.26,3.32,4.52.8,5.32-.53.93,3.59-3.46,2.39Zm-15.3-78.6-6.12-4-6.91-.27L141,540.45l-2.13,3.06,1.33,8.64-1.33,21.41.8,9.18,2,1.2,3.85-1.47,6.65-2,5.46-2.4,5.58-.93,4.92-4.38,2.4-8.65-.4-10Zm102.94,73-4.25,3.46L261,624.23l-7.05-.79-4-2-1.6-4.12v-2.79L245.44,616l-2.27,3.59-4.78,3.72-5.46,2.4-12.5.66-7.31-1.19-7.72-2.93-4.78-7-.4-6.25,1.19-6.25,1.73-4.66,4.92-4.92,6.65-2.26,3.86-1.86,2.79-1.86,11.71-1.07,7.71-1.46,6.78,1.46,2.13-3.59.27-5.05-1.6-3.86-4.92-2.12-1.73-2.13-6.38-1.6-3.86-.4-7.31,2.8-3.46,2.52-2.93,3.06-6.12,1.73L209,575.16l-1.33-5.59-1.46-4.12,5.45-4.65.94-1.73,7.31-1.87,6.65.27,3.86-.53,10.1.53,8.65.93,6.78,2.93,6.52,4.39,3.06,6.11-1.07,6.25.8,7.59-4.39,9,2.13,10-1.46,4.92,10.77,1.07-.27,7.18Zm-37.37-23.8-5.32.66-6,2.13-5.59,4,.4,5.72,2.93,3.86,3,1.86,6.39,2.66,9.31-4.52,6.65-3.73,2.92-3.46v-4.12l-1.72-6-5.32,2Zm62.11-38,8.91,1.33,2.4,4.26.93,6.12.93,2.12,6.12-6.78,3.06-4,10.37-1.73,9.44-.4,7.05,4,5.85,13.7,1.2,9.84-.66,7.05-2.4,7.58-4,16.09,3.73,1.87,6.11,1.46-.93,3.19L349.84,627l-9.71-1.47-11,2.4-2.39-5.19,4-12.77,2.66-13.83.93-8.78-2.13-11.3L323,571.44l-10.1,4.92L308,583.67,307.41,595,304,609.6l2.79,8h4l2.39,2.4-2.39,5.58-8.51-.93h-12l-7.58,2.13-3.33-1.59-.4-2.4,1.87-4.25,7-1.2.27-8,3.06-17.42.66-17.43-1.33-5.18-3.59-.27-5.18-1.46.93-8.65,2.13-1.46Zm129-25.93,7.45-.53,1.86,3-1.46,8.12L429,546.7l1.47,9.84.93,14.5V583.4l-1.6,12.24-2.13,10.51.94,6.51,6,1.73.67,7.45-12.91,3.46-4.78-.8-3.73-3.06-1.59-6-2.53.53-4.12,4.39-9.84,4.25-13,1.07-7.45-3.46L368.73,616l-3.59-12.77V592.45l2.92-7.85,1.6-7.45,2.26-7.84,3.19-5.06,6.39-4,7.58-1.19h8.64l6.38,1.86,6.52,2.92,2.66-.26v-4.52l.8-8.52,2.66-5.71.8-4.13-5.72-.4L406.63,539v-3.85l1.07-3.59,6,.93Zm-12.1,42.56-4.92-4.92-9.31-1.73-7.45-.4-5.19,5.58-3.05,7.32.93,7.58L385.62,604l3.46,5.58,7.31,3.33,12.9-5.19,3.19-3.85.93-12.9-.93-9.45.54-3.72Zm89.64,45.21-10,3.2-6.79,1.19-14.09,4.53L459.57,625l-7.05-7.84-6.39-14.1-.26-4.66.4-8L451.85,571l4.52-6,11.71-8.78,15.82,1.33,17.43,2.53,7.18,6.38,6.38,9.58,3.33,14.36L517,601l-7.71,10.64Zm-6.78-43.49-7.58-6.64-4.92-1.87-7.72-1.06-8.91,6-1.73,11,1.07,11.57,1.73,9.71,3.32,7.72,6.65,5.71,10.37-1.46,10.24-7.71,3.46-7,1.07-8.51-2.53-8.12Zm32.58-17,4.53-2.53,16.22,3.6.93,4.12-.4,5.45.4,5.19,2.66.26,1.86-4.25,7.05-8.51,5.72-2.8L571,558l10.37.93,6.39,4.26.53,5.59.66,3.05,2.4-1.59,1.33-3.59,2.39-4.66,5.19-2.13,6.65-2,6.51.53,7,3.06,9.58,11.31,1.46,15.16-1.59,14.36-3.6,10.37-.93,3.73,1.2,1.86,6.78-.67,2.66,1.47-.93,6.51-8.78.54h-10.1l-4.92-3.33,1.33-3.72.39-8.25,2.93-9.71-1.86-8.24.93-11.57-.93-7.32-3.72-4-6.52-1.59-6.39,2.52L594.56,577l-1.86,9.71-2.93,21.68.93,8.11,6.12.27.27,3.59-4.39,4.25-22.48,1.2-1.6-6.78,7.19-1.33-1.47-9.31L577,598.7l1.33-13.83L575.81,577l-3.06-5.19-4.52-2.52L564,570.5,561,572.1l-7.58,9.44L550.8,598.7l-1.06,13.43.93,5.19,7.18.93.93,5.19-1.59,2.12H545.48L533.78,624l-6.38,1.59-1.87-3,1.6-5.19,8.25-.67,1.19-4-1.86-7.58,2-24.47-.4-7.84-.93-5.86-7.32-.26-1.86-5.59ZM673.3,624.77l-14.23-.67-6.39,2.13-5.58-2.13-.4-2.13,6.78-3.45.93-6.12-1.73-11.71.8-16.22,2.13-8.51,1.46-13-.8-10,1.73-3.19,1.07-6-1.33-3.59-7.45.4-1.07-4.92,2.4-4.26,7.85.4,10.5,2.26,5.72,1.87,1.46,4.25-1.46,6.12-.27,6L674,559.6l.4,12.1L672.23,581l.53,7.32-2,9.44.66,16.76,1.87,2.12,6.51.54,1.47,3.72-2.53,2.79Zm31.38-67.3,9.18-.93,1.46,3.32v4.66l-4.78,1.06,8.51,30.06,7.84,11.84-.26,4.25,3.06,1.6,4-8.25,2.39-11,.93-17.82-.53-8-5.85-2.39.26-4.66,3.73-2.39,8.78-.4,12.37,2.53-.67,4-3.72,2.13-3.73.53-.8,3.06.54,6.38-3.06,20.35-6.12,20.48-3.33,6.38L729.69,628l-4.52,2.39-4,5.85-4.92,6.12-17.43,4L691.25,645l-1.86-4.25,1.86-6.39,3.06-2.13,12.5,1.2h4.26l4.92-2.66,4-3.72,2.39-5.85-5.18-3.86-17.43-24.47-3.32-14.1-.93-7.58.66-4.26-1.86-1.86-5.85.93L687,564.12l-.4-4.52,9.17-.27ZM933.57,624,922,625.17l-4.78,2.39-4-5.45,3.19-12.77,2.39-13.83,1.33-14.63-1.86-7.45-6.38-5.85-5.46.8-4.65,3.85-6.25,20.88-2,14.23.4,6.79,1.73,3.19h3.59l4.39,3.32-2.79,5.19-6.25-2.39-14.37,1.86-8.77.66-3.06-2.79,1.46-2.93,6.38-1.06,2.13-3.19-.66-9.44,1.46-10.78L878.25,578l.93-6.12.53-12.9,1.2-7.31,2.26-6.78-3.46-4-6.25-.54-6.92,1.07L862,544.3,859.76,550l-1.46,7.72,3.19,17.55-.13,3.19-7.85,3.73-7.58-.8-3.72-2.13-1.47-3.06-5.58-7.05-3.86-1.59-5.85-.67-6,1.47-6.25,7,.4,6.92.93,4.66,1.2,11.57,2.79,4.52L829,613.33l10.77-.4,13.57-5.32,5.32-3.86,2.66,4.79-1.47,4.52-19.28,9.18-9,2.13L819.46,626,811.62,623l-7.32-6.25-4.92-8.12-3.72-9L795,588.06l8.91-23.41,13.17-5,4-2.66,8.11-.93,14.1,5,6.52-1.86,1.06-7.58-.27-7.58,6.12-5.32,9.45-5.59,11.3-1.33,20.22,2.13,2.26,2.66.79,3.59-.66,7.45-4,5-1.46,9.05.4,3.72,2.92.4,4.39-5.19,6.52-1.73,6.91-.53,2.53.27,4.65,1.86,10.78,8.11,4,7.58L936,603.89l-5.06,6.25.27,5.18,1.46,2.13,6.12-1.73,2.53,3.19-2.13,2.93Zm83.4-2-6.12,2.66-6.25.67-5.19-.67L997,621.18l-1.33-4.13-3.06.8-8.25,6.25-10.24,1.6-10.24.4-7.18-3.86-3.46-4.92-1.33-5.19,1.73-7.31.8-6.52,2.26-4.12,6-3.33,3.33-2.52,7.58-1.47,9.31-1.19H997l2-1.47,2.66-4.12-4.12-8.25L991,568.91l-16.36,1.73-3.72-.4.67,3.46-4.93,6.38-7.71-1.6-5.72-6.25,3.33-8.24,7.84-2.93,12.11-.8,1.72-2.92,19.56,1.33,13.43,6,3.46,6,1.46,10.9-2.4,11.84-3.72,11.7.93,6.79,8.38-1.07,2.79,5.59Zm-19.82-28.19-11.3,1.2-10,2.66L971.22,603l-1.73,5.58.66,4,6.39,1.6,9.57-.54,9.58-5.58.26-6.78ZM1030,561.06l2.8-2.39,14.89-1.2,6.78,5.45,2.66,8.52,4-4.79,9.85-6.12,7.58-1.6,7.58.4,6.78,5.72,6,11.17-.79,8.38-4.26,24.47-2.79,7.32.93,2.13,8-.67,1.86,6.12-24.6,2.39-3.33-3.85,4.39-14.24-.93-9.57,2-11,1.6-6.38-.53-4.92-2.4-4-4.92-2.13-6.38,1.86-9.18,7-2.13,3.32-1.19,10.64.93,23.28,7.18,2.39-1.73,7.05-12-.66-17.95.66-1.86-6.12,8.51-2.39,1.19-5.19-1.19-4.39,1.86-12.76-1.06-12,2.26-14.9-6.39.67-2.39-2.13Zm146.17-.93-6.12,1.46h-4.92l-.53,2.13,4.78,1.46,4.53,6.12,5.72,6.52-3.2,7.45-5.58,9.71-7.45,2.79-6.12,2.79-7.31,1.86-10.51-.53-5.19.8,1.07,4,3.19,5.19,19.15,1.72h9.58l8.11,1.87,4.12,5.18-.93,10-2.53,4.25-2,5.32-4.26,2.8-6.11,1.59-9.18.8-8.11,1.86h-6.79l-5.32,1.6-4.25-.4-4.26-2.39-4.52-1.07-4.12-2.39-2.93-2.8-1.06-12,.66-3.2,7-3.06,4.26-2.66-.27-4.25-2.79-2.93-1.46-4.39L1123,601l.4-4.65-6.39-3.86-1.46-8-2.79-5.85,1.06-3.2-.4-5.31,11.44-8.65.67-2.93,10.24-1.06,8.11,1.33,8.11-5h7.18l6.65-2.93,3.73-.27,3.59-3.32,2-2.79L1180,548l2.53,3.85-1.46,5.06ZM1153.29,626l-15.43.67-4.38-.8-2.93-2-3.72,5,.79,3.46,2.4,2.39,1.86,3.33,4.52,1.06,7.18-.67,4.26-1.06,9.18-.8,3.06-3.59.39-2.79-2.39-.53Zm.53-51.73-3.85-4.92-5.72-2.4-6.78-.4h-3.2l-2.39,4.66-.53,4.79-1.86,4.52,6.91,8.78,7.45,2.52,4.92-1.19,5.32-.54,3.59-4.38,1.07-3.86-.67-3.59Zm67.84,18.62h-10.91l-2.53,5.58,1.47,4.66,4.65,5.85,9.84,4.79,12.64.8,5.85-1.47,6.78-2.26,2.93,2.26.8,5.19-6.65,3.06L1222.45,626h-10.24l-7.58-3.06-12.5-15.16-1.6-6.78,1.73-11.84,2.66-11.17,8.65-14.36,15.69-7.05,20.88,2.93,6.52,2.52,4.92,8.51,2.79,8.52.4,9.17-3.59,2.93Zm9.57-25.67-4.79-.67L1219,568l-5.72,2.79-3.2,5.32.4,6.38,16.63,1.07,12-1.47-1.6-6.38Zm36,38.17L1273,604l4.92.26,2.8,2.93-.27,3.46,6.25,3.59,8.51,1.73,6.39-.27,3.32-4.65.27-6-1.07-4.78-5.85-2-10.77-1.86-7-.67-4.25-1.86-6.92-1.73-4-9.71,3.46-13.43,4.79-4.79,6.78-2.79,9.44-2.13,16.09-2.13,8.91,1.2,6,3.33,2.39,5-1.33,7.58-6.78,3.33-3.59-1.47-2.53-5.72-3.06-2.92-4.78-.8-8.52,1.46-6.25,2.8,2.26,9,8.78,1.73,6.78-.27L1312,585l6.38,6.38,3.2,7,1.06,5.46-2.39,8.37-2.93,7.19-6,4.92-5.72,1.73-8.91,1.06-9.58-1.73-9.44-.66-7.85.26-6.38-6.12.66-6.78Zm225.83,18.49-9.57.79-6.65,2.66-4-5.18,5.45-27.93,1.33-13.3-1.73-7.45-6.51-5.85-5.32.8-4.79,2.52-3.06,8.25-4.39,20-.8,8.24.4,6.79,1.86,3.32h3.59l4.26,3.19-2.66,5.19-6.25-1.6L1431.13,626l-3.19-2.79,1.46-2.93,6.52-1.06L1438,616l-.66-9.31,1.33-12.1-.93-16.23.93-6.12.66-12.5,1.2-8.38,2.13-6.78-3.46-4-6.25-.53-8.64,2.26-3.46,2.66-3.33,9.31,4.13,17.55-2.66,2.66-12,5.32-5.19-9.7-6.38-3.6-6.65.27-7.85,1.46-2.66,6.39-.27,4.52,4.39,2.79,18.36,4.79,10.37,4.12,5.59,7.85.39,11-2.52,6.38-7.18,7.85h-12.77l-10.91,2.39-7.71.8-6.39-3.46-3.59-5.18v-6.79l1.73-2.79,3.59.27,4.92-1.2,2.66,1.2,1.2,4-.4,2,3.06,3.33,8.51-1.87,10.91-.93,1.46-4.39-.8-4.12-9.7-6.25-20.62-2.39-5.72-6.52-4.52-6.92,4.79-15.69,6-6.78,8.51-5.19h9.71l14,3.46,7.05-13.7,1.06-6.38,9.31-7.45,14.9-1.6,19.68,1.86,2.26,2.66.66,3.6-.66,7.58-4,4.92-1.46,6.65,1.19,7.44,2.8.4,3.19-5.32,6.12-2.39,8-.67,2.52.14,5.72,2.52,9.71,7.59,4,7.44-1.86,27.67-4.92,6.25.26,5.18,1.47,2.13,6.11-1.73,2.53,3.19-2.26,2.93Zm86.19-4.13-5,5.19-8.12.66-6-4.25-2.53-5.72-5.18,5.85-5.72,4.12h-9.58l-8.78.67-4.38-.67-7.85-6.65-2.53-4.65-2-5.32,1.33-7.31,4.78-6.12,7.85-4.92,9-2,8.78-3.19,8.78-.8h7.18l3.06-3.59-1.86-10.11-5.32-3.19-6.38-.4-14.5,4.79-4.92,3.19-4.79,2.53-5.05,1.46-6-2.53-1.33-4,.53-5.32,4.39-4.79,4.26-1.2,5.32.27,12.1-3.59,16.36-.67,11.7,2.53,6.65,4.92,2.93,4.52,2.53,10.24-.67,10.11-2.13,4.39-4.52,12,2,5.72,4.12.53,3.46-2.13,3.45,2.13-.66,4Zm-27.4-24.34-6.91-1.06-8.25,3.33-5.18,4.92-1.87,6.38.54,2.93,6.11,2.12,7.85-.26,3.19-2.26,9.18-5.59,1.73-7.85-2-2.39Zm109.46,16.76-5.85,8.11-11.7,5.59-20.22-.66-5.58-2.8-2.93,1.73.8,20.62-2.93,5-4.12-.4-14.63,1.46-2.79-4.65,7.84-5.32-1.46-21.41.93-7.85,2-43.09-8.25-5.72,1.06-5,10.51-.54,10,3.2,1.86,2.79.66,6.52,3.59-.8,12.64-11.44,13.17,1.73,10.9,4.12,5.72,9.58,3.32,13.7-.39,12.76Zm-11-18.88-2.92-13.3-5.72-9.18-8.11-1.86-9.18,6.78-3.59,9.84L1616.93,599l.4,11,7.71,7,6.65.67,10.38-1.73,8.91-7.45-.13-10.24Zm81.8.66-20.75-.8-12-1.19-2.66,1.46-.4,6.38,2.13,6,4.79,3.46,8.38,4.12H1722l5.59-1.46,7.05-3.46,4,2.26-.67,4.52-2.26,4.92-18.09,2.53-6.78,1.86L1699,625.7l-10.1-3.46-6.52-7.45-4.52-12.1,1.59-8.11-.66-9.05,2.92-9.57,5.19-8,7.18-5.19,8.65-1.86,7.18-2.13,9.18-.53,8.51,1.59,7.84,2.93,3.06,4.12,1.07,6,1.86,7.45,1.86,6-2.39,3.72-3.2,2Zm-17-9.31,6-.4,4.12.27,1.33-6.25L1724,573.3l-5.19-3.73-4.39-2.26h-6.92l-6,3.33-2.79,2.66-.93,9.71,5.58-1.33Zm38.7,20.75,5.72-1.33,4.92.26,2.79,2.93-.26,3.46,6.25,3.59,8.51,1.73,6.38-.27,3.33-4.65.26-6-1.06-4.78-5.85-2L1774,596.44l-7-.67-4.26-1.86-4.26-4.92-1.86-4.26.4-6.51,3.59-5.72,5.85-4.39,8.78-4.26,15-5.85,8.91-1.06,6.65,1.86,3.59,4.26.4,7.71-5.72,4.92-3.86-.66-3.85-4.92-3.59-2.13-4.92.4-7.85,3.45-5.45,4.26.53,4,8.78,1.73,6.78-.27,9.18,2.13,6.38,6.38,3.19,7.05,1.07,5.46-2.4,8.37-2.92,7.19-6,4.92-7.05,3.06-8.91,1.06-9.57-1.73-9.45-.66-7.84.26-6.39-6.12.67-6.78Z" transform="translate(-1.76)"/><path d="M196.81,135.33l-4.24,1.1-7.69-2.36-2.67-4.4-.94-3.29L177.5,125l-3.29-4.23-6.75-2-6.91.95-5.5,2.19-3.14-1.09-5.49,4.55-5.65,3.77-3,5.33-1.72,6-1.42,14-2.51,9v8L130.4,176l-1.1,12.72,1.42,4.23,2,3,4.39,7.53,4.56,3.46h16.17l7.06-1.57,5.81-2,5.65-.47,4.4-3.77,5.65-8.32,3.46-1.1,3.92.47,2.51,1.57,2.2,5.18-1.26,3.61L196.5,205l-3.61,4.09-7.22.78-3.46,1.41-5.81,1.26-11,3.45-7.85,1.73-3.76.47-9,2h-6.13l-7.37-1.1-10.68-5-5.34-1.57-9-19.47L105,174.89l3-12.4,4.08-6.6,8.17-24.33,2.51-4.4,2.83-3.14,5.49-7.38,15.7-7.69,9.26-1.73,15.39,1.42,6.75-1.42,5.81,3.77,9.11,3.14h4.23l4.4.94,1.57,6.13-2.51,9.1Zm95.93,52.43-11.3,15.55L272.33,208l-8.79,7.53-12.25,2.2-18,4.24-11.93-3-6.75-8.95L210,193.57l.63-5.49,2.51-9.42,3.77-11.15,6.59-12.25,6.6-7.37,13.66-9.27,12.09-1.25,28.25,2.82,7.23,7.38L297,158.72l-.63,14.91Zm-20.88-27.31L265.11,151l-11.62-3.61-14.44,8.16-3.77,9.89L232.14,186l.47,8.79L243.29,208l16.32-1.89,8.32-9.42,6.6-10.67,2.82-8.8-1.41-8.47Zm41.92,37.36c.16-.16.78-7.06.78-7.06v-8.32l4.09-16.18,2-7.69-.79-6.12-2.2-3.61-6.12-.47-1.26-3.61,4.09-3.46,1.88-3L328.85,140l9.42-.63,2.83,2.51,2.19,10.36-3.14,8.95L338.9,174,335,185.41l-1.41,14.76,2.51.94,2.51,3,10.05-2.2,9.89-9.57,2.83-9.58,5.81-11.62,2.2-16.8,2.51-3.92L367,149l-4.55-.78.78-4.87,2.51-3.92,6.91-1.89,9.27,3,6.59-.63L395,143l-3.77,14.76-4.24,11.14-5.18,23.4-3,8.16,7.53,4.24,3.77,3.14-.63,4.4-5.65,5.49-11.93-1.88-11.93,3.61-3.3-2,3.92-11.15.16-4.24-5.65,9.73L342,217l-12.4,2.66-6.13-.47-7.22-4.24-3.45-8.79-.63-5S313.62,198,313.78,197.81Zm96.4,14.76a16.42,16.42,0,0,0,1.41-1.73c0-.15,2-4.86,2.36-5.34s2.19-9.57,2.19-9.89l.63-14c0-.31,1.57-9.11,1.57-9.42s5.5-8.79,5.5-8.79l-.32-9.74-.47-4.55s-3.92-1.57-4.24-1.57-4.08-1.57-4.08-1.57v-4.71l5.18-1.88,6.91-.47c.16,0,7.22-1.26,7.22-1.26l4.24,3.93,4.4,1.1-.16,5c0,.16-.94,6-.94,6h2.35l3.77-3.76a62,62,0,0,0,4.87-4.71,58.57,58.57,0,0,0,3.14-6.13c0-.15,6-.47,6-.47h10.05l8.64.79,6.75,4.55,2.51,8.16-.63,7.54-.31,9s-5.34,12.87-5.5,12.72-1.1,14.6-1.1,14.6l-2.82,9.42.31,2.51,2.67,1.1s5.65-1.1,5.65-.94l.63,2.67-1.41,2.82-2,3s-14,2.67-14.13,2.67l-8.64-1.88-4.08.63-1.57-4.4,4.08-6.59,2.2-8.48.94-14.44,5.18-15.55-.94-12.71-3.61-2.36-3.61-.31-6.44,4.24S448,162.8,448,163s-3.92,7.85-3.92,7.85l-6.59,6.91-2.52,10-.31,7.85-2.2,12.56.32,2.67,5,.79-.16,3.77s-5.65,2.35-5.81,2.51a32.8,32.8,0,0,1-3.76.15l-7.7-.31c-.31,0-6.59.63-6.59.63l-6-.16.63-4.24ZM557.29,149.3l-13.82,1.88-1.41,3.61L540.33,162l.31,9.1-3.92,5.5.63,6.43-3.14,10L533,200.48l1.89,5.18,3.29,1.41,5-3.29,3.29-1.73,3.3-.63,1.57,3.14-4.87,8.32-9.1,3.14-5.5,2.83-8.48-1.41-6.75-2.36-3.29-6.91,1.1-6.75,1.25-14.13,1.57-10,2.67-4.55,2-17.11,1.73-8.48-5-1.41-8.32-.47V140l9.74-3.46,8.79-.63,7.38-10.51,6.44-7.7,8.47-.94-3.61,8.79-1.41,8.48.94,3.61,5.34,1.26,8,.94-.32,3.92Zm69.39,15.07-6,7.07-9.57,3-4.56-2.2-1.72-6.28-4.08.79L598,169.87l-2.35,6.43L592,199.54v6.59l5.19,2,3.61-.31,1.88,2.35-1.41,4.71-3.93,2.67-5.18-.31-11,.94-14.6-.63L564.2,214V209.9h2.51l3.77-4.24,3.29-14,4.08-29.83-.78-9.26-2.36-6-3-1.26,1.57-5.18,7.69-.78,14.29,1.1,4.08.94-.31,3.92,2.82,4.87L600,154.17l1.26,1.57,9.1-10.37,6.6-4.23,8.16-1.57,5.18,7.85-1.1,8.63Zm81-17-.62,4.55-6.28,18.37-2.67,11.3-4.87,10.21-5,12.4L676.29,219l-7.69,4.55-12.72,9.73-9.57,6.44L632,240.83l-5.18-6v-5.65l6.75-7.22,5.65-1.26,7.54,3.46,5.18,1.25,6-2.82,6.44-11.93-8.48-7.85-5.18-8.64-.94-5-4.71-14.6-3-6.44-.79-10,3.61-10.67-4.08-1.89-3.92-.31v-3l1.25-4.39,4.24-.94,3.14.47,7.07,1.72,13.34,1.42-1.41,6-2.67,7.85,1.1,17.27,8.48,23.55,6.28,3.3,3.61-4.71,3-6.12,2.2-13,6.12-26.85-4.24-3.14-.94-5.81,3.77-1.88,9.89,2.19,8.32-.78,1.41,3.3-.78,2.35Zm174.59,1.72-1.42,11.31-3.77,13.81-6.75,11.46-3,12.09L863,208.33l-9.73,4.08-11.15,6.75L836,217.44l-2.67-5.34-2-7.54L828.74,201l-3.61-13.34-3.77-.47-3.77,2.66L809,201l-8.32,14.13L786.19,220l-6.43.94-6.13-5.34,1.89-9.26-1.42-8.48L770,180.23,766.41,170V159.66l1.88-8-5.65-3.76-.47-3.93,3.46-3.3,9.89-1.41,10.83,2,3.77,3.3,1.72,6.44-4.23,6.75v14.91l4.23,8.95,4.09,17,3.29.62L813,179.91l3.14-7.69-1.73-7.06v-9.74l-4.55-8.79-.47-5.18,5.18-1.57,9.11-.63,11.3,5,1.57,5.33-.79,8.48,1.1,10.68,4.24,13.34,5.18,13.35,4.56,4.71,2.51-.63,3.92-10.36,3.93-19.63,3.92-7.22,2.67-11.3-7.38-6.6-.78-6.59,5.81-1.89,10.67,2.2,6.75-.47,3.93,2.36-1.41,5Zm91.37,38.62-11.3,15.55L953.24,208l-8.79,7.53-12.25,2.2L914.15,222l-11.93-3-6.76-8.95-4.55-16.49.63-5.49,2.51-9.42,3.77-11.15,6.59-12.25,6.6-7.37,13.66-9.27,12.09-1.25L965,140.19l7.23,7.38,5.65,11.15-.63,14.91Zm-20.88-27.31L946,151l-11.62-3.61L920,155.58l-3.77,9.89L913.05,186l.47,8.79L924.2,208l16.32-1.89,8.32-9.42,6.6-10.67,2.82-8.8-1.41-8.47Zm41.92,11.14,11.3-15.54,9.11-4.71,8.79-7.54,12.25-2.19,18-4.24,11.93,3,6.75,9,4.56,16.48-.63,5.5-2.51,9.42-3.77,11.15-6.6,12.24-6.59,7.38-13.66,9.26L1031.58,222l-28.26-2.83-7.22-7.38-5.65-11.14.63-14.92Zm20.88,27.32,6.75,9.42,11.62,3.61,14.44-8.16,3.77-9.89,3.14-20.57-.47-8.79-10.68-13.19-16.32,1.88-8.33,9.42-6.59,10.68-2.83,8.79,1.42,8.48Zm157.77-71,.78,16.64-3.61,22.92-.78,14.13-5.5,17.9.32,7.38,6.9,1.41,1.73,7.22-19.31,3.93-6.44-3-1.88-5.33-1.73-2.83-10.52,7.38-11.77,3.3-9.89-3.3-9.42.63-5.18-6.28-3.93-17.9L1090.76,168l4.71-10.67,6.75-10.84,15.23-6.75,19.46-1.25,7.54,1.88,4.55.63,5,5.65,1.25-13,2.36-4.87-1.41-10.83-7.23-7.22,1.1-8.17,11.31,4.87,17.42,2.36-.31,4.55-3.46,4.39Zm-49.14,74.73,9.89-3,9.26-7.23,3.61-5.33,3.93-12.72-1.26-9.74,1.41-11.3-7.06-2.83-4.24-2.19-7.22-.63-8.79,5.34-5.66,7.69-1.57,5-3.92,18.69-.94,10.2,4.86,6.6Zm177.41-36.9-6.28,3.3-5.5-2.35-1.1-10-3.61-3.14-4.86-3.46-4.4-.15-11.15,4.55-4.55,6.91-2.2,7.53-2.35,10.84.94,7.53,4.39,10.21,4.24,4.39,7.85,1.89,15.86-5.34,5.65-3.77,6.75-.63,3.93,3.93-2.36,4.24-7.85,8.32-10.36,3.14-6.75,2.51-21.82,3.3-7.85-3-12.09-8.16-2.36-6.75-.94-9.42.63-9.26,1.88-6.13,2.36-9.57,3.92-10,7.23-8.17,7.22-5,14.91-6.44,8.79,1.89,12.25-.79,6,3,7.22-.63,6.12,3.3.47,6.75-3.14,7.37Zm98.28,5.18-4.08,17.59-1.26,11.15,7.06,1.57,2.05,5.18-9.58,7.53-15.23,3.77-5.18-.78.94-13.19-2.67-.47-3.61,5.18-7.06,6.28-11.46,2.82-14.29,1.89-8.48-1.57-6-6.75-3-18.22,4.4-21.35L1333,152.28l7.85-8.63,13-2.83,12.87-.94,8.64.63,5.65,3.14,3.61-1.1,4.55-4.24,6.28-1.73,7.85,6.91,1.42,6.44-1.57,11.93Zm-32.66-21.35-14.44,5.5-6.12,5.81-4.4,5.81-2,8.79-.94,11.14,2.19,8.64,6.6,4.71,4.24,2.67,6.91-1.73,9.1-7.53,9.74-16,4.08-14.44-5.5-8.64Zm112.57,19.16-7.06,4.71-9.58-1.89-8.64-5.18L1450.6,170l-1.88,3.93-3.62,25.59v7.22l3.3,3.45,3.77.63.78,2.83-1.25,2.67-7.38,2.19L1428.93,217l-10.2,1.09-2.36-3.61v-4.08l5.81-2.2,1.57-3.61,1.89-13.66,6.12-28.73-2.2-9.89-1.88-4.08-3.3-2,1.88-6.28,5.81-.94,6.28,1.57,12.41-.94,3.29,7.69-1.41,5.81-.47,7.69,2-.31,5.5-12.88,10.36-8.32,8.16.79,3.93,11,.15,8.47Zm48.83,45.06-1.26,2.35-9.57,3.61-6.91.47s-4.24-6.59-4.4-6.59a68.85,68.85,0,0,1-1.25-7.85l-3.93-12.88-3-15.54-2.2-8.63-2.2-6.28-1.72-7.7.47-4.55-5.81-5,.63-2.67,6.28-3.14,17-1.57,5.34,3.14,2.2,7.22-4.56,2.2,1,11.14,3.45,12.41,5.18,14.76,1.89,10.67,2.35,5.18,3.61,1.57-1.25-5.34,3.14-3.45,2-6,11.61-21.66,3.3-11.31-.63-11.14-5-2.67-1.57-3,3.14-3.14,10.67.62,4.09.79,4.39.31,4.08,1.73-1.09,4.71-2.67,3.61-2.2,6.12L1560,168.14l-5.34,7.53-6.91,21.51-3.92,7.23-5.34,7.06Zm73,3.92-13.5.94-3.29-1.72-2.83-4.71.94-7.7-1.25-9.1,2.35-20.26,2.67-9.26,1.1-15.07-.47-2.67-3.14-.47-3.3.63-2.67-1.73,2.67-7.06,5.81-.32,11.15-2.35,9.1.47,4.08,2,1.1,5-4.08,15.86-.63,11.15L1601,191.85l.62,11.77,4.87,3.14,4.71-.16,1.57,2.52-1.57,5.8Zm-6.12-110.68,6.59-2.83,5.81-.94,5.34.94,4.24,1.26,3.77,8.16-2.67,6.12-8.16,6.6-7.07.78-7.06-.78-6.28-6.6.78-6.59Zm41,80.22,8.16-20.56,1.57-13.51-6.12-3.45-3.77-3.14v-4.24l4.71-3.45,11.93,1.88,9-.78,3.3,2-2.2,9.26,3.77,3.14,9.1-12.87,11.62-4.71,6.13.47,12.71,6.59,3.46,8.79.47,10.36.63,6.28-5.34,18.84-1.26,9.42-3.3,4.71,2,4.87,8.16-.31-.94,6-3.3,4.56-11.46-.95-10.83,2.36-6.6-.94.32-8.17,3.61-5.81,2.2-5.65,2.66-17.11,5-20.1-1.1-5.18-3.93-1.1-9.57,2.2-9.58,8.79-4.71,7.85L1658.31,186l-5,17.11,2,5.65,6,2.51-.94,5.18-1.88,2.2-7.7-1.1-6.75.63-7.69,1.41-6.44-3.14,4.4-17.11Zm176.78-38-.47,4.24L1808.09,179l-.32,6.6-2.19,9.42-3,17.74-1.1,14.44-1.88,3.14-3,4.08-3.14,7.69-2.52,2.83-17.89,3.45-8.8,1.1-9.26-.94-5.81-3.92-6,1.25L1737,244.6l-6.91-4.56-2.83-3.45.47-4.4,3-4.86,9.26-3.46,5.65,1.57,5.18,6.44,4.08,3.45,1.89,2.83,5.18-.47,11.62-3.77,4.08-2.51,4.87-9.26,1.25-5.18v-6.6l-2.67-.47-3.61,4.08-6,2.67-5.81,1.57-13-.94-3.14-3-5.34-.79-7.22-4.39-8.32-10.37-2.67-14.6,3.29-19.62,3.3-7.7,3.93-7.22,11.3-6.28,15.7-5.33,13,1.88,8-1.1,5.18,5.65,4.24,1.1,4.24-4.55,9.26-5.34,7.06,3.14,1.89,3.93-1.57,2.66Zm-29.83,1.88-6.91-3.29-8.63-2-10.52,6.75-6.13,7.53-2.67,9.89-1.09,9.27,1.09,8,6,8.79,5.65,5.81,6.13.63,6.43,1.89,4.4-2.52,6.75-9.57,5-17.9.79-8.64-.94-6Z" transform="translate(-1.76)"/></svg>