<?xml version="1.0" encoding="utf-8"?>
<!-- Generator: Adobe Illustrator 18.1.1, SVG Export Plug-In . SVG Version: 6.00 Build 0)  -->
<svg version="1.1" xmlns="http://www.w3.org/2000/svg" xmlns:xlink="http://www.w3.org/1999/xlink" x="0px" y="0px"
	 viewBox="-337.1 -220.4 1516 1036" enable-background="new -337.1 -220.4 1516 1036" xml:space="preserve">
<g id="Layer_3">
	<rect x="-337.1" y="-220.4" fill="#E6E6E6" width="1516" height="1036"/>
</g>
<g id="Layer_2">
	<title>quickview_pollen</title>
	<path d="M-243.2-114.5c-3.7,0.6-7.4,0.8-11.1,0.8c-24.7,0-43.1-13.3-43.1-36.2c0-29,24.1-46.2,54.9-46.2
		c33.8,0,62.8,18.8,62.8,64.4c-0.1,17.5-4.7,34.7-13.2,50c13,12.4,29.4,25.9,49,28.6l-7.9,31.2c-21.7-2.6-48.4-18.8-63-36
		c-12.9,10.3-26.7,14.6-40.3,14.6c-30.6,0-41.5-16-41.5-32.8c0-17.2,13-32.4,40.1-32.4c9.7,0,22.3,3.2,29.4,7.3
		c2.8-8.9,4.3-18.2,4.5-27.5c0-16.6-6.1-33-20.9-33c-8.1,0-13.8,4.7-13.8,12.6c0,10.1,9.1,13,20.4,14L-243.2-114.5z M-254.5-83.8
		c-5.1,0-7.3,3.4-7.3,6.5c0,4.3,2.6,6.5,7.9,6.5c4.9,0,11.5-3.4,14.6-7.9C-242.2-80.7-250.1-83.8-254.5-83.8z"/>
	<path d="M-71.7-163.7v83.2l2.4,21.5h-34.2l-1.4-8.3h-1.2c-5.9,7.3-14.2,10.9-24.3,10.9c-23.7,0-35.2-12.6-35.2-37.6v-69.6h40.9
		v65.2c0,7.1,0.4,11.3,5.5,11.3c4.3,0,6.7-4.3,6.7-9.7v-66.8H-71.7L-71.7-163.7z"/>
	<path d="M30.9-132.8c0,27.7-29.2,35-50,37.1c1.6,6.1,7.3,9.9,16,9.9c8.3,0,17.2-3.4,24.7-8.3l10.3,26.7
		c0.4-0.2-16.2,11.5-41.3,11.5c-37.1,0-51.4-21.5-51.4-52.2c0-29.4,17.8-58.9,54-58.9C15.3-167,30.9-156.4,30.9-132.8z M-9.2-138.6
		c-5.7,0-11.3,5.5-11.9,18.8c10.9-1,17.2-7.5,17.2-13.3C-3.9-136.4-5.9-138.6-9.2-138.6z"/>
	<path d="M117.7-16.6H76.8v-142.1c17.4-6.3,37.9-8.3,48.4-8.3c32.8,0,50.4,18.6,50.4,55.1s-18,56.1-47,56.1
		c-3.7-0.1-7.3-0.5-10.9-1.2L117.7-16.6L117.7-16.6z M117.7-85c1.8,0.7,3.7,1.2,5.7,1.2c10.7,0,10.9-12.8,10.9-26.7
		c0-16.8-0.8-26.9-10.1-26.9c-2.2,0-4.4,0.3-6.5,1L117.7-85L117.7-85z"/>
	<path d="M273.4-132.8c0,27.7-29.2,35-50,37.1c1.6,6.1,7.3,9.9,16,9.9c8.3,0,17.2-3.4,24.7-8.3l10.3,26.7
		c0.4-0.2-16.2,11.5-41.3,11.5c-37.1,0-51.4-21.5-51.4-52.2c0-29.4,17.8-58.9,54-58.9C257.8-167,273.4-156.4,273.4-132.8z
		 M233.3-138.6c-5.7,0-11.3,5.5-11.9,18.8c10.9-1,17.2-7.5,17.2-13.3C238.6-136.4,236.6-138.6,233.3-138.6z"/>
	<path d="M282.7-59.1v-81.8l-2.9-22.8h33.6l2.2,9.5c5.9-7.7,14.6-12.8,28.3-12.8c19.4,0,32.4,10.7,32.4,36V-59h-40.9v-65.6
		c0-7.1-0.4-11.1-4.9-11.1c-5.3,0-7.5,3.8-7.5,11.1v65.6L282.7-59.1L282.7-59.1z"/>
	<path d="M392.3-96.1c8.3,4.9,23.1,10.9,31.6,10.9c3.6,0,5.3-1.2,5.3-4c0-3.8-4.5-5.3-10.1-7.3c-15-5.1-32.6-10.5-32.6-33
		c0-23.3,19.8-37.5,43.1-37.5c16.8,0,32.2,5.9,43.1,15.8l-17.8,23.1c-9.9-6.8-17.8-10.1-22.7-10.1c-4.5,0-5.9,2.4-5.9,4.7
		c0,3.8,4.5,5.9,11.1,8.3c15,5.5,32.4,11.7,32.4,33.4c0,23.7-17.4,36-43.9,36c-19.6,0-36.4-6.9-43.5-11.7L392.3-96.1z"/>
	<path d="M566.4-132.8c0,27.7-29.2,35-50,37.1c1.6,6.1,7.3,9.9,16,9.9c8.3,0,17.2-3.4,24.7-8.3l10.3,26.7
		c0.4-0.2-16.2,11.5-41.3,11.5c-37.1,0-51.4-21.5-51.4-52.2c0-29.4,17.8-58.9,54-58.9C550.8-167,566.4-156.4,566.4-132.8z
		 M526.3-138.6c-5.7,0-11.3,5.5-11.9,18.8c10.9-1,17.2-7.5,17.2-13.3C531.5-136.4,529.5-138.6,526.3-138.6z"/>
	<path d="M656.8-142.5l-39,37.8l9.9,4c20.9,8.3,30.4,24.9,30.4,44.5c0,29.6-21.7,50.6-51.4,50.6c-26.9,0-40.1-13-40.1-33.6
		c0-16.6,8.7-31.2,28.3-42.1c-5.4-3.1-11.1-5.5-17-7.3v-19.6l26.7-24.5h-35v-31.2h87.2V-142.5z M609.9-35.2
		c6.7,0,10.5-7.7,10.5-17.2c0-4.9-1.2-10.5-4.5-13.6c-6.1,4.7-13.8,12.4-13.8,22.3C602.2-38.8,604.2-35.2,609.9-35.2z"/>
	<path d="M659.3-130.5h53v29.6h-53V-130.5L659.3-130.5z"/>
	<path d="M812.5-163.7c4.3,15.6,6.6,31.8,6.9,48c0,40.3-19,59.3-53.4,59.3c-28.3,0-41.1-12.6-41.1-37.5v-69.8H766v66.4
		c0,7.7,1.2,9.7,4.7,9.7c7.5,0,8.7-13.3,8.7-27.7c0-14.2-3.2-34-6.9-48.4C772.4-163.7,812.5-163.7,812.5-163.7z"/>
	<path d="M877.5-167c16.8,0,49.4,5.1,49.4,53.2c0,37.5-23.3,57.9-52.2,57.9c-30,0-48.8-17.4-48.8-54.2
		C825.9-152.8,854.6-167,877.5-167z M884.8-110.9c0-19.2-2-27.1-8.7-27.1c-5.9,0-8.3,8.7-8.3,23.5c0,16.4,0.8,29.4,8.5,29.4
		C882.6-85.2,884.8-91.9,884.8-110.9z"/>
	<path d="M1030.1-163.7v83.2l2.4,21.5h-34.2l-1.4-8.3h-1.2c-5.9,7.3-14.2,10.9-24.3,10.9c-23.7,0-35.2-12.6-35.2-37.6v-69.6h40.9
		v65.2c0,7.1,0.4,11.3,5.5,11.3c4.3,0,6.7-4.3,6.7-9.7v-66.8H1030.1L1030.1-163.7z"/>
	<path d="M1047.4-96.1c8.3,4.9,23.1,10.9,31.6,10.9c3.6,0,5.3-1.2,5.3-4c0-3.8-4.5-5.3-10.1-7.3c-15-5.1-32.6-10.5-32.6-33
		c0-23.3,19.8-37.5,43.1-37.5c16.8,0,32.2,5.9,43.1,15.8l-17.8,23.1c-9.9-6.9-17.8-10.1-22.7-10.1c-4.5,0-5.9,2.4-5.9,4.7
		c0,3.8,4.5,5.9,11.1,8.3c15,5.5,32.4,11.7,32.4,33.4c0,23.7-17.4,36-43.9,36c-19.6,0-36.4-6.9-43.5-11.7L1047.4-96.1z"/>
	<g>
		<path d="M-297.6,34.5c-1.5,0-3.3-0.4-3.3-2.2c0-2.4,2.6-6.4,4.3-9.2l2.9,1.1l-2.6,10.2C-296.7,34.4-297.2,34.4-297.6,34.5z
			 M-290.3,34.5c-1.5,0-3.3-0.4-3.3-2.2c0-2.4,2.6-6.4,4.3-9.2l2.9,1.1l-2.6,10.2C-289.4,34.4-289.9,34.5-290.3,34.5z M-262.9,26.1
			v4.7h-8.5v24.5h-5.3V30.7h-8.3v-4.7L-262.9,26.1L-262.9,26.1z M-259.5,55.3V24.8h5.2V35c1.5-1.7,3.7-2.6,5.9-2.5
			c4.6,0,7.1,2.6,7.1,7.7v15h-5.2V41.2c0-2.6-0.5-4.6-3.4-4.6c-2.4,0-4.3,1.9-4.4,4.3v14.4L-259.5,55.3L-259.5,55.3z M-233.3,24
			c1.6-0.1,3,1.2,3,2.8c0,0,0,0,0,0.1c0,1.6-1.3,2.9-2.9,2.9c-0.1,0-0.1,0-0.2,0c-1.6,0.1-2.9-1.1-3-2.7c0-0.1,0-0.1,0-0.2
			C-236.2,25.2-234.9,24-233.3,24C-233.3,24-233.3,24-233.3,24z M-235.9,55.3V33.2h5.2v22.1H-235.9z M-225.2,55.3V37l-0.4-3.8h4.4
			l0.4,2.8c1.5-2.2,4.1-3.5,6.8-3.4c4.4,0,7,2.5,7,7.6v15.1h-5.2v-14c0-2.7-0.5-4.8-3.3-4.8c-2.5,0-4.5,2-4.5,4.4c0,0,0,0,0,0v14.3
			L-225.2,55.3L-225.2,55.3z M-188.3,45.7l5.1,9.6h-5.9l-4.1-7.7c-1.1,0.2-2.2,0.4-3.2,0.5v7.2h-5.2V24.8h5.2v12.6h0.1
			c1.3-3,4.3-4.9,7.5-4.9c2.7,0,5.1,1.5,5.1,5.3C-183.7,41.1-185.5,44.1-188.3,45.7z M-190.7,36.7c-2.9,0-5.4,4.3-5.7,7.6
			c4.5-0.4,7.3-2.6,7.3-5.7C-189.1,37.6-189.5,36.7-190.7,36.7L-190.7,36.7z M-177.2,24c1.6-0.1,3,1.2,3,2.8c0,0,0,0.1,0,0.1
			c0,1.6-1.3,2.9-2.9,2.9c-0.1,0-0.1,0-0.2,0c-1.6,0.1-2.9-1.1-3-2.7c0-0.1,0-0.1,0-0.2c0-1.6,1.3-2.9,2.9-2.9
			C-177.3,24-177.2,24-177.2,24z M-179.7,55.3V33.2h5.2v22.1H-179.7z M-169.1,55.3V37l-0.4-3.8h4.4l0.4,2.8c1.5-2.2,4.1-3.5,6.7-3.4
			c4.4,0,7,2.5,7,7.6v15.1h-5.2V41.3c0-2.7-0.5-4.8-3.3-4.8c-2.5,0-4.5,2-4.5,4.4c0,0,0,0,0,0v14.3L-169.1,55.3L-169.1,55.3z
			 M-144.5,61c0-3.5,2.1-5.9,4.9-7.8c-3.7-0.5-7-3.2-7-9.4c0-7.5,4.7-11.2,10.8-11.2c2.9,0,5.8,0.6,8.5,1.6v16.7c0,1.5,0,4-0.1,5.6
			c-0.5,6.5-3.5,10.4-9.7,10.4C-142,66.9-144.5,64.6-144.5,61L-144.5,61z M-132.5,36.9c-1.1-0.4-2.2-0.5-3.4-0.5
			c-3.6,0-5.5,2.9-5.5,7c0,3.3,0.5,7,4.7,7c2.3,0.1,4.1-1.7,4.2-3.9c0-0.1,0-0.2,0-0.4L-132.5,36.9L-132.5,36.9z M-136.7,63.1
			c3.4,0,4.2-3.2,4.2-7.8v-2.9c-4.7,2.4-7.3,4.9-7.3,7.7C-139.8,62.2-138.5,63.1-136.7,63.1L-136.7,63.1z M-94.7,51.1l0.4,4.2h-4.6
			l-0.3-2.3h-0.2c-1.4,1.9-3.6,3-6,2.9c-6.2,0-8.6-4.4-8.6-10.7c0-7.7,3.9-12.6,11.4-12.6c2.7,0.1,5.3,0.6,7.8,1.5V51.1L-94.7,51.1z
			 M-99.8,36.9c-1.1-0.4-2.2-0.6-3.3-0.6c-4.2,0-5.6,3.9-5.6,8.7c0,3.6,0.9,7.1,4.6,7.1c2.2,0.2,4.1-1.5,4.3-3.7c0,0,0-0.1,0-0.1
			C-99.8,48.3-99.8,36.9-99.8,36.9z M-88.2,61c0-3.5,2.1-5.9,4.9-7.8c-3.7-0.5-7-3.2-7-9.4c0-7.5,4.7-11.2,10.8-11.2
			c2.9,0,5.8,0.6,8.5,1.6v16.7c0,1.5,0,4-0.1,5.6c-0.5,6.5-3.5,10.4-9.7,10.4C-85.7,66.9-88.2,64.6-88.2,61L-88.2,61z M-76.2,36.9
			c-1.1-0.4-2.2-0.5-3.4-0.5c-3.6,0-5.5,2.9-5.5,7c0,3.3,0.5,7,4.7,7c2.3,0.1,4.1-1.7,4.2-3.9c0-0.1,0-0.2,0-0.4L-76.2,36.9
			L-76.2,36.9z M-80.4,63.1c3.4,0,4.2-3.2,4.2-7.8v-2.9c-4.7,2.4-7.2,4.9-7.2,7.7C-83.4,62.2-82.2,63.1-80.4,63.1L-80.4,63.1z
			 M-47.6,51.1l0.4,4.2h-4.5L-52,53h-0.2c-1.4,1.9-3.6,3-6,2.9c-6.2,0-8.6-4.4-8.6-10.7c0-7.7,3.9-12.6,11.4-12.6
			c2.7,0.1,5.3,0.6,7.8,1.5L-47.6,51.1L-47.6,51.1z M-52.7,36.9c-1-0.4-2.2-0.6-3.3-0.6c-4.2,0-5.6,3.9-5.6,8.7
			c0,3.6,0.9,7.1,4.6,7.1c2.2,0.2,4.1-1.5,4.3-3.7c0,0,0-0.1,0-0.1L-52.7,36.9L-52.7,36.9z M-39.4,24c1.6-0.1,3,1.2,3,2.8
			c0,0,0,0.1,0,0.1c0,1.6-1.3,2.9-2.9,2.9c-0.1,0-0.1,0-0.2,0c-1.6,0.1-2.9-1.1-3-2.7c0-0.1,0-0.1,0-0.2c0-1.6,1.3-2.9,2.9-2.9
			C-39.5,24-39.4,24-39.4,24L-39.4,24z M-42,55.3V33.2h5.2v22.1H-42z M-31.3,55.3V37l-0.4-3.8h4.4l0.4,2.8c1.5-2.2,4.1-3.5,6.8-3.4
			c4.4,0,7,2.5,7,7.6v15.1h-5.2v-14c0-2.7-0.5-4.8-3.3-4.8c-2.5,0-4.5,2-4.5,4.4c0,0,0,0,0,0v14.3L-31.3,55.3L-31.3,55.3z
			 M-3.2,28.9c-1.7,0.1-3.4,0.5-5,1.2l-0.9-4c2-0.8,4.1-1.2,6.3-1.3c5.3,0,7.4,2.8,7.4,6.7c0,4-2.1,5.8-4.7,7.8
			c-1.5,1.1-2.3,1.6-2.3,3.4v4.8h-4c-0.1-0.9-0.3-3.5-0.3-4.6c0-3.3,0.8-4.7,3.4-6.6c1.6-1.2,3.1-2.1,3.1-4.4
			c0.1-1.5-0.9-2.7-2.4-2.9C-2.9,28.9-3.1,28.9-3.2,28.9L-3.2,28.9z M-4.7,50.2c1.6-0.1,2.9,1.1,3.1,2.6c0,0.1,0,0.2,0,0.2
			c0.1,1.7-1.2,3.1-2.9,3.1c-1.7,0.1-3.1-1.2-3.1-2.9C-7.7,51.7-6.4,50.3-4.7,50.2C-4.7,50.2-4.7,50.2-4.7,50.2L-4.7,50.2z M12,23.4
			c1.4,0.1,2.9,0.6,2.9,2.2c0,2-2.2,5.9-4.3,9.2l-2.7-0.9l2.2-10.4C10.8,23.4,11.4,23.4,12,23.4L12,23.4z M19.3,23.4
			c1.4,0.1,2.9,0.6,2.9,2.2c0,2-2.2,5.9-4.3,9.2l-2.7-0.9l2.2-10.4C18,23.4,18.7,23.4,19.3,23.4L19.3,23.4z M40.1,24.8v8.4h5.9v4.1
			h-5.9v11.2c0,2.7,1.1,3.5,2.9,3.5c1.1,0,2.1-0.4,3-1l1.3,3.4c-1.7,1-3.6,1.6-5.6,1.5c-6.9,0-6.8-4.2-6.8-7.3V24.8L40.1,24.8
			L40.1,24.8z M50.1,55.3V24.8h5.2V35c1.5-1.7,3.7-2.6,5.9-2.5c4.6,0,7.1,2.6,7.1,7.7v15h-5.2V41.2c0-2.6-0.5-4.6-3.4-4.6
			c-2.4,0-4.4,1.9-4.4,4.3v14.4L50.1,55.3L50.1,55.3z M90.3,38.7c0,6.8-8.4,7.6-12.4,7.7c0.2,2.9,1.8,5.6,5.5,5.6
			c2,0,3.9-0.7,5.5-1.9l1.6,3.5c-2.2,1.6-5,2.5-7.7,2.5c-7.2,0-10.2-4.7-10.2-11.2s3.7-12.2,10.7-12.2
			C87.6,32.6,90.2,34.7,90.3,38.7L90.3,38.7z M82.9,36.3c-3.5,0-5.2,3.4-5.3,6.7c2.4,0,7.9-0.7,7.9-4.1c0.1-1.3-0.9-2.5-2.3-2.6
			C83.2,36.3,83.1,36.3,82.9,36.3z M103.5,26.1h9.5c8.4,0,13.7,4.4,13.7,13.6c0,11.5-6.4,15.6-13.5,15.6h-9.7V26.1z M108.9,51.1h4.5
			c4.9,0,8-3.6,8-10.6c0-7.9-3.8-10.1-8.6-10.1h-3.9V51.1z M149.6,33.2v18.4l0.4,3.7h-4.5l-0.3-2.6H145c-1.4,2.1-3.8,3.3-6.4,3.2
			c-4.8,0-7.2-2.6-7.2-7.7v-15h5.2v14c0,2.7,0.5,4.7,3.4,4.7c2.3-0.1,4.2-1.9,4.3-4.2V33.2L149.6,33.2L149.6,33.2z M160.4,24.8v8.4
			h5.9v4.1h-5.9v11.2c0,2.7,1.1,3.5,2.9,3.5c1.1,0,2.1-0.4,3-1l1.3,3.4c-1.7,1-3.6,1.6-5.6,1.5c-6.9,0-6.8-4.2-6.8-7.3V24.8
			L160.4,24.8L160.4,24.8z M184.4,49.8l2,3.5c-2.2,1.7-4.9,2.6-7.6,2.6c-6.5,0-10.2-4.1-10.2-11.5c0-8.8,5.5-11.8,10.1-11.8
			c3.2-0.1,6.3,1.5,8.1,4.2l-3.3,2.7c-1.1-1.4-2.7-2.7-4.7-2.7c-2.9,0-5,2.4-5,7.4c0,4.6,1.7,7.6,5.6,7.6
			C181.2,51.7,183,51,184.4,49.8z M189.5,55.3V24.8h5.2V35c1.5-1.7,3.7-2.6,5.9-2.5c4.6,0,7.1,2.6,7.1,7.7v15h-5.2V41.2
			c0-2.6-0.5-4.6-3.4-4.6c-2.4,0-4.3,1.9-4.4,4.3v14.4H189.5L189.5,55.3z M229.6,38.7c0,6.8-8.4,7.6-12.4,7.7
			c0.2,2.9,1.8,5.6,5.5,5.6c2,0,3.9-0.7,5.5-1.9l1.6,3.5c-2.2,1.6-5,2.5-7.7,2.5c-7.2,0-10.2-4.7-10.2-11.2s3.7-12.2,10.7-12.2
			C226.9,32.6,229.6,34.7,229.6,38.7L229.6,38.7z M222.3,36.3c-3.5,0-5.2,3.4-5.3,6.7c2.4,0,7.9-0.7,7.9-4.1
			c0.1-1.3-0.9-2.5-2.3-2.6C222.6,36.3,222.5,36.3,222.3,36.3L222.3,36.3z M233,50c1.9,1.2,4,1.9,6.3,2.1c1.8,0,3.3-0.8,3.3-2.9
			s-1.7-2.6-3.7-3.2c-3.2-1-6.8-2-6.8-6.5s3.8-7,8-7c3,0,5.8,1.1,7.9,3.1l-2.5,3.1c-1.4-1.4-3.3-2.2-5.4-2.4c-1.6,0-3.1,0.8-3.1,2.6
			c0,2,1.8,2.6,3.9,3.2c3.2,1,6.8,2.3,6.8,6.8s-3.4,7-8.3,7c-2.8,0.1-5.6-0.7-8-2.2L233,50z M251.4,50c1.9,1.2,4,1.9,6.3,2.1
			c1.8,0,3.3-0.8,3.3-2.9s-1.7-2.6-3.7-3.2c-3.2-1-6.8-2-6.8-6.5s3.8-7,8-7c3,0,5.8,1.1,7.9,3.1l-2.5,3.1c-1.4-1.4-3.3-2.2-5.4-2.4
			c-1.6,0-3.1,0.8-3.1,2.6c0,2,1.8,2.6,3.9,3.2c3.2,1,6.8,2.3,6.8,6.8s-3.4,7-8.3,7c-2.8,0.1-5.6-0.7-8-2.2L251.4,50z M297.5,51.1
			l0.4,4.2h-4.6L293,53h-0.2c-1.4,1.9-3.6,3-6,2.9c-6.2,0-8.6-4.4-8.6-10.7c0-7.7,3.9-12.6,11.4-12.6c2.7,0.1,5.3,0.6,7.8,1.5
			L297.5,51.1L297.5,51.1z M292.3,36.9c-1.1-0.4-2.2-0.6-3.3-0.6c-4.2,0-5.6,3.9-5.6,8.7c0,3.6,0.9,7.1,4.6,7.1
			c2.2,0.2,4.1-1.5,4.3-3.7c0,0,0-0.1,0-0.1C292.3,48.3,292.3,36.9,292.3,36.9z M302.6,50c1.9,1.2,4,1.9,6.3,2.1
			c1.8,0,3.3-0.8,3.3-2.9s-1.7-2.6-3.7-3.2c-3.2-1-6.8-2-6.8-6.5s3.8-7,8-7c3,0,5.8,1.1,7.9,3.1l-2.5,3.1c-1.4-1.4-3.3-2.2-5.4-2.4
			c-1.6,0-3.1,0.8-3.1,2.6c0,2,1.8,2.6,3.9,3.2c3.2,1,6.8,2.3,6.8,6.8s-3.4,7-8.3,7c-2.8,0.1-5.6-0.7-8-2.2L302.6,50z M334.6,45.7
			l5.1,9.6h-5.9l-4.1-7.7c-1.1,0.2-2.2,0.4-3.2,0.5v7.2h-5.2V24.8h5.2v12.6h0.1c1.3-2.9,4.3-4.8,7.5-4.9c2.7,0,5.1,1.5,5.1,5.3
			C339.3,41.1,337.5,44.1,334.6,45.7L334.6,45.7z M332.3,36.7c-2.9,0-5.4,4.3-5.7,7.6c4.5-0.4,7.3-2.6,7.3-5.7
			C333.9,37.6,333.4,36.7,332.3,36.7z M359.3,38.6c0,6.8-8.4,7.6-12.4,7.7c0.2,2.9,1.8,5.6,5.5,5.6c2,0,3.9-0.7,5.5-1.9l1.6,3.5
			c-2.2,1.6-5,2.5-7.7,2.5c-7.2,0-10.2-4.7-10.2-11.2s3.7-12.1,10.7-12.1C356.5,32.6,359.2,34.7,359.3,38.6L359.3,38.6z M352,36.3
			c-3.5,0-5.2,3.4-5.3,6.7c2.4,0,7.9-0.7,7.9-4.1c0.1-1.3-1-2.5-2.3-2.6C352.2,36.3,352,36.3,352,36.3L352,36.3z M375.9,33v-8.3h5.2
			V51l0.4,4.3H377l-0.4-2.4h-0.2c-1.3,2-3.6,3.1-6,3.1c-6.9,0-8.7-5.4-8.7-10.8c0-7.5,3.9-12.6,10.6-12.6
			C373.6,32.6,374.8,32.7,375.9,33L375.9,33z M375.9,37c-1-0.5-2.2-0.7-3.3-0.7c-4.2,0-5.6,3.9-5.6,8.3c0,4,1,7.5,4.5,7.5
			c2.7,0,4.3-1.9,4.3-3.6V37L375.9,37z M387.6,62.1l-2.8-0.8c0.5-4.4,1-7.1,1.3-8.7c0.4-1.7,1-2.3,2.2-2.3c1.4,0.2,2.7,0.8,3.7,1.8
			L387.6,62.1z M433.9,33.2c1,3.1,1.5,6.3,1.5,9.6c0,8-3,13.1-9.5,13.1c-3.2,0-5-1.4-5.9-3.6c-1.6,2.4-4.2,3.7-7.1,3.6
			c-4.8,0-7.4-2.5-7.4-7.6v-15h5.2v13.7c0,2.7,0.2,5,3,5c2.3,0,4-1.9,4-4.2c0,0,0,0,0-0.1V33.2h5.2v13.6c0,2.8,0.1,5,2.9,5
			c3.8,0,4.4-5.1,4.4-8.9c-0.1-3.3-0.6-6.6-1.5-9.7L433.9,33.2L433.9,33.2z M442.7,23.9c1.6-0.1,3,1.2,3,2.8c0,0,0,0.1,0,0.1
			c0,1.6-1.3,2.9-2.8,2.9c-0.1,0-0.1,0-0.2,0c-1.6,0.1-2.9-1.1-3-2.7c0-0.1,0-0.1,0-0.2C439.7,25.2,441.1,24,442.7,23.9
			C442.7,24,442.7,24,442.7,23.9L442.7,23.9z M440.2,55.3V33.2h5.2v22.1H440.2z M456,24.8v8.4h5.9v4.1H456v11.2
			c0,2.7,1.1,3.5,2.9,3.5c1.1,0,2.1-0.4,3-1l1.3,3.4c-1.7,1-3.6,1.6-5.6,1.5c-6.9,0-6.8-4.2-6.8-7.3V24.8L456,24.8L456,24.8z
			 M466,55.3V24.8h5.2V35c1.5-1.7,3.7-2.6,5.9-2.5c4.6,0,7.1,2.6,7.1,7.7v15H479V41.2c0-2.6-0.5-4.6-3.4-4.6c-2.4,0-4.4,1.9-4.4,4.3
			v14.4L466,55.3L466,55.3z M516.9,51.1l0.4,4.2h-4.5l-0.3-2.3h-0.2c-1.4,1.9-3.6,3-6,2.9c-6.2,0-8.6-4.4-8.6-10.7
			c0-7.7,3.9-12.6,11.4-12.6c2.7,0.1,5.3,0.6,7.8,1.5L516.9,51.1L516.9,51.1z M511.8,36.9c-1.1-0.4-2.2-0.6-3.3-0.6
			c-4.2,0-5.6,3.9-5.6,8.7c0,3.6,0.9,7.1,4.6,7.1c2.2,0.2,4.1-1.5,4.3-3.7c0,0,0-0.1,0-0.1C511.8,48.3,511.8,36.9,511.8,36.9z
			 M522.5,55.3V37l-0.4-3.8h4.3l0.4,2.8c1.5-2.2,4.1-3.5,6.8-3.4c4.4,0,7,2.5,7,7.6v15.1h-5.2v-14c0-2.7-0.5-4.8-3.3-4.8
			c-2.5,0-4.5,2-4.5,4.4c0,0,0,0,0,0v14.3L522.5,55.3L522.5,55.3z M555,32.6c3.2,0,9.6,1,9.6,11.1c0,8.4-4.5,12.3-10.3,12.3
			c-5.8,0-9.5-3.8-9.5-11.7C544.8,35.1,550.5,32.6,555,32.6z M559.2,44.4c0-4.9-1.1-7.9-4.5-7.9c-3.3,0-4.7,3-4.7,7.2
			c0,4.2,0.7,8.5,4.6,8.5C557.9,52.1,559.3,48.9,559.2,44.4L559.2,44.4z M574,24.8v8.4h5.9v4.1H574v11.2c0,2.7,1.1,3.5,2.9,3.5
			c1.1,0,2.1-0.4,3-1l1.3,3.4c-1.7,1-3.6,1.6-5.6,1.5c-6.9,0-6.8-4.2-6.8-7.3V24.8L574,24.8L574,24.8z M584,55.3V24.8h5.2V35
			c1.5-1.7,3.7-2.6,5.9-2.5c4.6,0,7.1,2.6,7.1,7.7v15H597V41.2c0-2.6-0.5-4.6-3.4-4.6c-2.4,0-4.4,1.9-4.4,4.3v14.4L584,55.3
			L584,55.3z M624.2,38.7c0,6.8-8.4,7.6-12.4,7.7c0.2,2.9,1.8,5.6,5.5,5.6c2,0,3.9-0.7,5.5-1.9l1.7,3.4c-2.2,1.6-5,2.5-7.7,2.5
			c-7.2,0-10.2-4.7-10.2-11.2s3.7-12.2,10.7-12.2C621.5,32.6,624.2,34.7,624.2,38.7L624.2,38.7z M616.9,36.3c-3.5,0-5.2,3.4-5.3,6.7
			c2.4,0,7.9-0.7,7.9-4.1c0.1-1.3-0.9-2.5-2.3-2.6C617.1,36.3,617,36.3,616.9,36.3z M633.2,55.3H628V36.8l-0.4-3.6h4.3l0.5,3.2
			c0.8-2.3,3-3.9,5.4-3.9c1.2,0,2.4,0.3,3.5,0.9l-1,4.4c-0.9-0.6-2-0.9-3.1-0.9c-2.4,0-3.9,1.9-4,4.4L633.2,55.3L633.2,55.3z
			 M666.1,33.1v-8.3h5.2V51l0.4,4.3h-4.5l-0.4-2.4h-0.2c-1.3,2-3.6,3.1-6,3.1c-6.9,0-8.7-5.4-8.7-10.8c0-7.5,3.9-12.6,10.6-12.6
			C663.8,32.6,665,32.7,666.1,33.1L666.1,33.1z M666.1,37.1c-1-0.5-2.2-0.7-3.3-0.7c-4.2,0-5.6,3.9-5.6,8.3c0,4,1,7.5,4.5,7.5
			c2.7,0,4.3-1.9,4.3-3.6V37.1L666.1,37.1z M679.4,24c1.6-0.1,3,1.1,3.1,2.7c0,0.1,0,0.1,0,0.2c0,1.6-1.3,2.9-2.9,2.9
			c-0.1,0-0.1,0-0.2,0c-1.6,0.1-2.9-1.1-3-2.7c0-0.1,0-0.1,0-0.2C676.5,25.2,677.8,24,679.4,24C679.5,24,679.5,24,679.4,24L679.4,24
			z M676.8,55.3V33.2h5.2v22.1H676.8z M688.4,61c0-3.5,2.1-5.9,4.9-7.8c-3.7-0.5-7-3.2-7-9.4c0-7.5,4.7-11.2,10.8-11.2
			c2.9,0,5.8,0.6,8.5,1.6v16.7c0,1.5,0,4-0.1,5.6c-0.5,6.5-3.5,10.4-9.7,10.4C691,66.9,688.5,64.6,688.4,61L688.4,61z M700.4,36.9
			c-1.1-0.4-2.2-0.5-3.4-0.5c-3.6,0-5.5,2.9-5.5,7c0,3.3,0.5,7,4.7,7c2.3,0.1,4.1-1.7,4.2-3.9c0-0.1,0-0.2,0-0.4L700.4,36.9
			L700.4,36.9z M696.2,63.1c3.4,0,4.2-3.2,4.2-7.8v-2.9c-4.7,2.4-7.2,4.9-7.2,7.7C693.2,62.2,694.5,63.1,696.2,63.1L696.2,63.1z
			 M729.3,32.6c3.2,0,9.6,1,9.6,11.1c0,8.4-4.5,12.3-10.3,12.3c-5.8,0-9.5-3.8-9.5-11.7C719.1,35.1,724.8,32.6,729.3,32.6z
			 M733.5,44.4c0-4.9-1.1-7.9-4.5-7.9c-3.3,0-4.7,3-4.7,7.2c0,4.2,0.7,8.5,4.6,8.5C732.1,52.1,733.5,48.9,733.5,44.4L733.5,44.4z
			 M748.3,64.5h-5.2V32c0-3.5,0.8-8,7.6-8c2.1,0.1,4.2,0.6,6.1,1.5l-1.3,3.5c-1.3-0.7-2.7-1-4.2-1.1c-2.2,0-3,1.2-3,3.6v1.6h6.5v4.1
			h-6.5L748.3,64.5L748.3,64.5z M766.8,55.3V24.8h5.2V35c1.5-1.7,3.7-2.6,5.9-2.5c4.6,0,7.1,2.6,7.1,7.7v15h-5.2V41.2
			c0-2.6-0.5-4.6-3.4-4.6c-2.4,0-4.3,1.9-4.4,4.3v14.4H766.8L766.8,55.3z M806.9,38.7c0,6.8-8.4,7.6-12.4,7.7
			c0.2,2.9,1.8,5.6,5.5,5.6c2,0,3.9-0.7,5.5-1.9l1.6,3.4c-2.2,1.6-5,2.5-7.7,2.5c-7.2,0-10.2-4.7-10.2-11.2S793,32.5,800,32.5
			C804.3,32.6,806.9,34.7,806.9,38.7L806.9,38.7z M799.7,36.3c-3.5,0-5.2,3.4-5.3,6.7c2.4,0,7.9-0.7,7.9-4.1
			c0.1-1.3-0.9-2.5-2.3-2.6C799.9,36.3,799.8,36.3,799.7,36.3L799.7,36.3z M816,55.3h-5.2V36.8l-0.4-3.6h4.3l0.5,3.2
			c0.8-2.3,2.9-3.8,5.3-3.9c1.2,0,2.4,0.3,3.5,0.9l-1,4.4c-0.9-0.6-2-0.9-3.1-0.9c-2.4,0-3.9,1.9-4,4.4L816,55.3L816,55.3z
			 M835.6,50c1.9,1.2,4,1.9,6.3,2.1c1.8,0,3.3-0.8,3.3-2.9s-1.7-2.6-3.7-3.2c-3.2-1-6.8-2-6.8-6.5s3.8-7,8-7c3,0,5.8,1.1,7.9,3.1
			l-2.5,3.1c-1.4-1.4-3.3-2.2-5.4-2.4c-1.6,0-3.1,0.8-3.1,2.6c0,2,1.8,2.6,3.9,3.2c3.2,1,6.8,2.3,6.8,6.8s-3.4,7-8.3,7
			c-2.8,0.1-5.6-0.7-8-2.2L835.6,50z M854.2,55.3V24.8h5.2V35c1.5-1.7,3.7-2.6,5.9-2.5c4.6,0,7.1,2.6,7.1,7.7v15h-5.2V41.2
			c0-2.6-0.5-4.6-3.4-4.6c-2.4,0-4.3,1.9-4.4,4.3v14.4L854.2,55.3L854.2,55.3z M895.9,51.1l0.4,4.2h-4.5l-0.3-2.3h-0.2
			c-1.4,1.9-3.6,3-6,2.9c-6.2,0-8.6-4.4-8.6-10.7c0-7.7,3.9-12.6,11.4-12.6c2.7,0.1,5.3,0.6,7.8,1.5L895.9,51.1L895.9,51.1z
			 M890.7,37c-1.1-0.4-2.2-0.6-3.3-0.6c-4.2,0-5.6,3.9-5.6,8.7c0,3.6,0.9,7.1,4.6,7.1c2.2,0.2,4.1-1.5,4.3-3.7c0,0,0-0.1,0-0.1
			L890.7,37L890.7,37z M906.7,55.3h-5.3V36.8l-0.4-3.6h4.3l0.5,3.2c0.8-2.3,2.9-3.8,5.3-3.9c1.2,0,2.4,0.3,3.5,0.9l-1,4.4
			c-0.9-0.6-2-0.9-3.1-0.9c-2.4,0-3.9,1.9-4,4.4L906.7,55.3L906.7,55.3z M922.6,64.5h-5.2V34c2.8-0.9,5.8-1.4,8.8-1.4
			c7,0,10.3,3.9,10.3,11.5c0,7.6-3.6,11.9-9.3,11.9c-1.6,0-3.2-0.5-4.6-1.3L922.6,64.5L922.6,64.5z M925.2,36.8
			c-0.9,0-1.7,0.1-2.6,0.3v13.5c1.1,0.7,2.4,1.1,3.7,1.1c3.7,0,4.9-3.7,4.9-7.2C931.2,39.3,929.2,36.7,925.2,36.8L925.2,36.8z
			 M955.3,24.9v23.3c0,2.7,0.6,3.7,2.4,3.7c1-0.1,1.9-0.3,2.8-0.7l1.1,3.5c-1.6,0.9-3.4,1.3-5.2,1.3c-5.9,0-6.3-3.5-6.3-6.8V24.9
			C950.1,24.9,955.3,24.9,955.3,24.9z M966.9,24c1.6-0.1,3,1.2,3,2.8c0,0,0,0,0,0c0,1.6-1.3,2.9-2.9,2.9c-0.1,0-0.1,0-0.2,0
			c-1.6,0.1-2.9-1.1-3-2.7c0-0.1,0-0.1,0-0.2C963.9,25.2,965.3,24,966.9,24C966.9,24,966.9,24,966.9,24L966.9,24z M964.4,55.3V33.2
			h5.2v22.1H964.4z M993.7,24.8v8.4h5.9v4.1h-5.9v11.2c0,2.7,1.1,3.5,2.9,3.5c1.1,0,2.1-0.4,3-1l1.3,3.4c-1.7,1-3.6,1.6-5.6,1.5
			c-6.9,0-6.8-4.2-6.8-7.3V37.3h-8.3v11.2c0,2.7,1.1,3.5,2.9,3.5c1.1,0,2.1-0.4,3-1l1.3,3.4c-1.7,1-3.6,1.6-5.6,1.5
			c-6.9,0-6.8-4.2-6.8-7.3V24.8h5.2v8.4h8.3v-8.4L993.7,24.8L993.7,24.8z M1008.7,24.8V48c0,2.7,0.6,3.7,2.4,3.7
			c1-0.1,1.9-0.3,2.8-0.7l1.1,3.5c-1.6,0.9-3.4,1.3-5.2,1.3c-5.9,0-6.3-3.5-6.3-6.8V24.8C1003.4,24.8,1008.7,24.8,1008.7,24.8z
			 M1033.5,38.6c0,6.8-8.4,7.6-12.4,7.7c0.2,2.9,1.8,5.6,5.5,5.6c2,0,3.9-0.7,5.5-1.9l1.6,3.5c-2.2,1.6-5,2.5-7.7,2.5
			c-7.2,0-10.2-4.7-10.2-11.2s3.7-12.2,10.7-12.2C1030.9,32.6,1033.5,34.7,1033.5,38.6L1033.5,38.6z M1026.2,36.2
			c-3.5,0-5.2,3.4-5.3,6.7c2.4,0,7.9-0.7,7.9-4.1c0.1-1.3-1-2.5-2.3-2.5C1026.4,36.3,1026.3,36.3,1026.2,36.2L1026.2,36.2z
			 M1061.2,49.8l2,3.5c-2.2,1.7-4.9,2.6-7.6,2.6c-6.5,0-10.2-4.1-10.2-11.5c0-8.8,5.5-11.8,10.1-11.8c3.2-0.1,6.3,1.5,8.1,4.2
			l-3.3,2.7c-1.1-1.4-2.7-2.7-4.7-2.7c-2.9,0-5,2.4-5,7.4c0,4.6,1.7,7.6,5.6,7.6C1058,51.7,1059.7,51,1061.2,49.8L1061.2,49.8z
			 M1066.3,55.2V24.8h5.2V35c1.5-1.7,3.7-2.6,6-2.5c4.6,0,7.1,2.6,7.1,7.7v15h-5.2V41.2c0-2.6-0.5-4.6-3.4-4.6
			c-2.4,0-4.3,1.9-4.4,4.3v14.4L1066.3,55.2L1066.3,55.2z M1092.6,24c1.6-0.1,3,1.2,3,2.8c0,0,0,0,0,0.1c0,1.6-1.3,2.9-2.8,2.9
			c-0.1,0-0.1,0-0.2,0c-1.6,0.1-2.9-1.1-3-2.7c0-0.1,0-0.1,0-0.2C1089.6,25.2,1090.9,24,1092.6,24C1092.5,24,1092.5,24,1092.6,24z
			 M1090,55.3V33.3h5.2v22.1H1090z M1100.6,55.3V37l-0.4-3.8h4.4l0.4,2.8c1.5-2.2,4.1-3.5,6.8-3.4c4.4,0,7,2.5,7,7.6v15.1h-5.2v-14
			c0-2.7-0.5-4.8-3.3-4.8c-2.5,0-4.5,2-4.5,4.4c0,0,0,0,0,0v14.3L1100.6,55.3L1100.6,55.3z M1126.2,50c1.7,0,3,1.3,3,3
			c0,1.7-1.3,3-3,3c-1.7,0-3-1.3-3-3c-0.1-1.6,1.1-2.9,2.7-3C1126,50,1126.1,50,1126.2,50L1126.2,50z"/>
	</g>
	<g>
		<path d="M-299.1,114.3c8.5-8.7,21.4-15.1,34.9-15.1c18.7,0,29.3,11.2,29.3,28.4c0,13.2-6.2,22.8-14.9,33.1l-40.7,47.7h62.9v7.6
			h-73.1v-7.6l41.3-49.1c11.2-13.3,15.3-19,15.3-31.3c0-13.9-9.1-21.2-21.5-21.2c-12.1,0-21.7,7.3-28.1,13L-299.1,114.3z"/>
		<path d="M-188.9,154.6c-9.3-5-21.2-12.4-21.2-28.1c0-14.9,12.8-27.4,30.5-27.4c21.7,0,30.2,13.2,30.2,24.9
			c0,13.9-10,23.8-19.9,30.9c14.4,6.9,23.8,17.1,23.8,30.8c0,16-9.6,32.4-34.5,32.4c-25.2,0-34.1-15.5-34.1-28.8
			C-214.1,169.7-198.5,159.1-188.9,154.6z M-180.1,158.4c-12.3,5-24.7,14.9-24.7,30.1c0,11.2,8.4,22.1,25.8,22.1
			c15.6,0,24.4-9.6,24.4-24C-154.7,171.2-168.6,163.2-180.1,158.4L-180.1,158.4z M-200.8,126.3c0,10.8,8.9,19,22.9,25.4
			c8.7-5.2,19.2-14.9,19.2-26.6c0-9.4-7.1-18.3-21.3-18.3C-192.9,106.8-200.8,116.4-200.8,126.3L-200.8,126.3z"/>
		<path d="M-70.4,253.4h-8.9V118.9c0-11.2,2.9-28.3,27-28.3c6.6,0,15.8,2.3,19.7,4.4l-3,7.1c-5.6-2.5-11.7-3.8-17.8-3.9
			c-13.3,0-17.1,8.2-17.1,21.2v9.1h29v7.1h-29V253.4z"/>
		<path d="M35.7,201.8L37,216h-8.6l-1-11.2l-0.4-0.2c-5,7.1-13.5,13.9-27.7,13.9c-26,0-34.7-18.9-34.7-42.5c0-31.5,14.6-50,43.4-50
			c9.5,0.3,18.8,2.1,27.7,5.2L35.7,201.8L35.7,201.8z M26.8,137.4c-3.6-1.8-11.9-3.7-20.8-3.7c-24.4,0-32.5,18.7-32.5,43.6
			c0,16,5.2,34,26.5,34c17.6,0,26.8-11.7,26.8-23.1V137.4z"/>
		<path d="M64.5,216v-75.8l-1.1-11.7h7.6l1.6,13.5c5.9-9.8,16.5-15.9,27.9-16c12.3,0,21.2,5.2,26.1,18c5.1-11,16.3-18.1,28.5-18
			c18.7,0,28.6,11.4,28.6,31.3V216h-8.9v-55.5c0-14-3.2-27.2-21.3-27.2c-13.9,0-24.9,11.9-24.9,23.7v59h-8.9v-55.3
			c0-12.4-2-27.4-21.3-27.4c-14.4,0-25,12.6-25,24.9V216H64.5L64.5,216z"/>
		<path d="M245.9,126c11.7,0,34.9,3.7,34.9,43.4c0,35.2-16.4,49.1-38.1,49.1s-35-15.3-35-47.3C207.7,134.5,228.8,126,245.9,126z
			 M271.9,172.6c0-22.2-7.1-38.9-27-38.9c-19.4,0-28.3,15.6-28.3,36.3c0,18.3,4.1,41.3,27.4,41.3
			C263.3,211.2,271.9,192.7,271.9,172.6L271.9,172.6z"/>
		<path d="M371.1,128.5v75.8L372,216h-8.2l-1.6-13.2c-6.9,11-18.3,15.6-29.5,15.6c-18.5,0-28.1-9.8-28.1-29.7v-60.3h8.9v56.3
			c0,14.8,3.4,26.3,21.5,26.3c14.2,0,27.2-12.6,27.2-24.2v-58.5H371.1L371.1,128.5z"/>
		<path d="M395.6,203.5c7.1,4.9,15.5,7.5,24.2,7.6c10.5,0,20.5-5.7,20.5-17.8c0-11.9-9.1-15.5-20.5-18.5
			c-12.8-3.4-26.5-7.1-26.5-24.4c0-17.1,13.5-24.5,27.9-24.5c12.1,0,22.1,5.5,27.6,11.6l-5.5,5.9c-6-6.4-14.3-10.1-23.1-10.1
			c-8.6,0-18.7,4.3-18.7,16.5c0,11.2,9.4,14.4,20.8,17.8c12.6,3.7,26.5,7.3,26.5,24.9c0,16.7-12.3,26-29.3,26
			c-13.7,0-24.5-5.2-27.7-8.2L395.6,203.5z"/>
		<path d="M479,92.6v98.3c0,15.5,2.7,20.3,12.4,20.3c4.2-0.1,8.3-1.1,12.1-3l2.3,6.6c-3,2-8.9,3.7-16,3.7
			c-18.8,0-19.7-12.4-19.7-26.6V92.6H479L479,92.6z"/>
		<path d="M583.6,217.4c0,8.7-1.1,18-3.4,24.5c-4.8,13.3-15.1,21.3-31.7,21.3c-17.4,0-25.6-8.6-25.6-21.7
			c0-15.1,12.3-25.6,20.3-30.6c-13.9-1.1-25.8-7.5-25.8-29.3v-53.2h8.9v49.6c0,14.6,1.4,26.3,23.5,26.3c13.5,0,25.2-9.8,25.2-23.7
			v-52.3h8.6L583.6,217.4L583.6,217.4z M549.3,256c18.7,0,25.4-15.8,25.4-37.7v-15.8c-25.1,10-42.8,20.1-42.8,38.2
			C531.8,250.8,538.2,256,549.3,256z"/>
		<path d="M713.2,148.4c0,11.9-6.2,25.6-22.8,32.7l22.1,34.9h-10.3l-20.5-32c-7.1,1.5-14.3,2.2-21.5,2V216h-8.9V92.4h8.9v60.3
			c4.1-12.8,15.3-26.6,32.4-26.6C707.2,126,713.2,135.6,713.2,148.4z M691.5,133.4c-16.7,0-30.2,25.6-31.5,44.8
			c30.1,1.8,44.1-13.9,44.1-29.2C704.1,140,700.4,133.4,691.5,133.4z"/>
		<path d="M735.6,216v-75.8l-0.7-11.7h8l1.6,13.7c7.1-10.7,18-16.2,29.5-16.2c18.5,0,28.1,10.5,28.1,30.5V216h-8.9v-55.7
			c0-14.8-3.4-27-20.8-27c-15.6,0-27.9,13-27.9,24.5V216H735.6L735.6,216z"/>
		<path d="M864.2,126c11.7,0,34.9,3.7,34.9,43.4c0,35.2-16.4,49.1-38.1,49.1c-21.7,0-35-15.3-35-47.3
			C825.9,134.5,847.1,126,864.2,126z M890.1,172.6c0-22.2-7.1-38.9-27-38.9c-19.4,0-28.3,15.6-28.3,36.3c0,18.3,4.1,41.3,27.4,41.3
			C881.6,211.2,890.1,192.7,890.1,172.6L890.1,172.6z"/>
		<path d="M1032.9,128.5c3.2,10.5,6.6,21.7,6.6,35.9c0,31.5-10.7,54.1-36.3,54.1c-13.5,0-21.2-7.5-23.5-18.7
			c-8.2,14.2-18.9,18.7-30.2,18.7c-17.2,0-26.6-9.1-26.6-29.2v-60.8h8.9v52.3c0,15.1,0.4,30.5,19,30.5c14.6,0,25.8-12.4,25.8-25.2
			v-57.5h8.9v53.3c0,14.8,1.1,29.3,18.7,29.3c24.2,0,26.8-29.3,26.8-45.9c0-15.3-3.7-26.3-6.8-36.8L1032.9,128.5L1032.9,128.5z"/>
		<path d="M1064.2,216v-75.8l-0.7-11.7h8l1.6,13.7c7.1-10.7,18-16.2,29.5-16.2c18.5,0,28.1,10.5,28.1,30.5V216h-8.9v-55.7
			c0-14.8-3.4-27-20.8-27c-15.6,0-27.9,13-27.9,24.5V216H1064.2z"/>
	</g>
	<g>
		<path d="M-259.7,414.6v-99.2l-30.8,16l-10.3-18.1l46.1-28.4h24.9l-1.9,22.3v107.4h26.8v21.6h-82.5v-21.6H-259.7z"/>
		<path d="M-134.8,436.2V279.9h28.7v156.3H-134.8z"/>
		<path d="M50.8,279.9v156.3H23.3l-67.5-110.2h-0.5v110.2h-28.2V279.9h28.9l65.8,108.6h0.5V279.9H50.8L50.8,279.9z"/>
		<path d="M123.5,304.6c10.1-9.9,31.3-22.8,56.2-22.8c28,0,41.6,16.2,41.6,36c0,14.1-5.9,25.6-18.6,34.5
			c13.2,11.3,20.9,25.6,20.9,40.4c0,23.5-15.8,46.1-52.4,46.1c-18.3,0-37.6-5.9-46.8-11.8l8.2-22.3c10.1,5.6,25.9,10.3,37.6,10.3
			c15,0,24.9-8,24.9-20.5c0-9.9-4.5-18.3-13.6-27.5c-7.8,3.3-18.6,6.1-26.1,7.5l-6.8-20.7c27.7-6.3,44-12.9,44-30.6
			c0-11.5-6.8-17.4-18.6-17.4c-11,0-25.4,6.8-36.4,16.5L123.5,304.6z"/>
		<path d="M421.8,279.9H453l8.5,156.3h-27.3l-5.8-107.6h-0.5l-36.2,90.3H370l-35.2-89.3h-0.5l-5.9,106.7h-27.3l8.9-156.3h32
			l39,102.2h0.5L421.8,279.9z"/>
		<path d="M492.5,436.2V279.9h28.7v156.3H492.5z"/>
		<path d="M554.7,279.9h28.7v131.4h66.3v24.9h-95V279.9z"/>
		<path d="M672.3,279.9h28.7v131.4h66.3v24.9h-95L672.3,279.9L672.3,279.9z"/>
		<path d="M790,436.2V279.9h28.7v156.3H790z"/>
		<path d="M912.9,439c-41.9,0-66.8-27-66.8-80.6c0-60.2,36.4-81.3,69.3-81.3c35,0,65.3,21.6,65.3,81.3
			C980.9,412.2,954.1,439,912.9,439z M914.6,415.3c28.4,0,37.1-28,37.1-56.2c0-24-7.5-57.8-37.6-57.8c-28.2,0-38.5,28-38.5,55.9
			C875.6,384,882.4,415.3,914.6,415.3z"/>
		<path d="M1131.5,279.9v156.3H1104l-67.4-110.2h-0.5v110.2h-28.2V279.9h28.9l65.8,108.6h0.5V279.9H1131.5z"/>
	</g>
	<path d="M-257.8,473.2v7.5h-35.1v24.6h29.1v7.5h-29.1v33.5h-8.7v-73H-257.8z"/>
	<path d="M-244.6,546.2h-8.4v-47.1l-0.7-7.5h7.3l1,7.9c2.6-6.1,7.5-9.4,13.7-9.4c3-0.1,6,0.6,8.7,2.1l-2.6,7.6
		c-2.2-1.3-4.6-2-7.1-2.1c-7,0-11.5,6.4-11.9,13.7L-244.6,546.2L-244.6,546.2z"/>
	<path d="M-172.5,491.7v46.5l0.8,8h-7.6l-0.9-7.5h-0.2c-4.1,6.3-10.6,9-17.2,9c-11.7,0-17.7-6.1-17.7-18.8v-37.3h8.6v34.9
		c0,8.2,1.6,14.5,11.3,14.5c7.7,0,14.5-6.8,14.5-13.2v-36.2H-172.5L-172.5,491.7z"/>
	<path d="M-120.7,535.7l3.6,5.6c-4.9,4.2-11.3,6.5-17.8,6.5c-15.8,0-24.3-10.1-24.3-28.9c0-22.3,13.6-28.8,23.9-28.8
		c6.4,0,13.9,2.1,19,9.7l-5.7,4.5c-3.7-4.9-8-7.1-13.2-7.1c-8.9,0-15.5,6.6-15.5,21.4c0,13,4.6,22.2,16.4,22.2
		C-129.2,540.7-124.5,538.9-120.7,535.7z"/>
	<path d="M-107.1,546.2v-76.3h8.5v28.4c4.8-5.8,10.8-8.2,16.9-8.2c11.4,0,17.5,6.4,17.5,18.9v37.2h-8.6v-35
		c0-7.7-1.6-14.4-11.2-14.4c-8,0-14.6,6.9-14.6,13.5v35.8L-107.1,546.2L-107.1,546.2z"/>
	<path d="M-39.8,469.9v21.7h15.6v7.4h-15.6v32.5c0,7.2,2.9,9.5,8,9.5c3-0.1,5.9-1,8.3-2.6l2.5,5.7c-3.7,2.4-8,3.6-12.4,3.6
		c-14.6,0-15-8.5-15-16.5v-61.3H-39.8L-39.8,469.9z"/>
	<path d="M-11.5,560.9c0-9.3,6.4-15.2,14.3-19.5c-10-0.8-19.6-6.4-19.6-23.8c0-18.4,10.8-27.4,25.6-27.4c5.9,0,14,1.2,20.2,3.8v41.1
		c0,4.8-0.1,10.3-0.3,15c-0.9,15.5-8.1,25-22.8,25C-5.6,575.1-11.5,569.8-11.5,560.9z M20.5,498.6c-4.1-1.4-8.4-2-12.7-2
		c-9.8,0-16.2,6.8-16.2,20.1c0,8.8,1.5,19.5,14.9,19.5c8.5,0,13.9-5,13.9-13.2L20.5,498.6L20.5,498.6z M6.5,568.5
		c10.9,0,13.8-10.1,13.8-22.4v-8.5c-16.2,7.6-23.6,13.6-23.6,22.2C-3.2,566.1,0.6,568.5,6.5,568.5z"/>
	<path d="M87.5,491.7v46.5l0.8,8h-7.6l-0.9-7.5h-0.2c-4.1,6.3-10.6,9-17.2,9c-11.7,0-17.7-6.1-17.7-18.8v-37.3h8.6v34.9
		c0,8.2,1.6,14.5,11.3,14.5c7.7,0,14.5-6.8,14.5-13.2v-36.2H87.5L87.5,491.7z"/>
	<path d="M104,546.2v-46.3l-0.8-8.2h7.1l1,7.8c3.6-5.8,10-9.3,16.8-9.3c7.2,0,12.7,3,15.7,10.2c3.3-6.4,9.9-10.3,17-10.2
		c11.3,0,17.6,6.8,17.6,19.3v36.8h-8.5v-34.5c0-7.8-1.6-14.8-11.3-14.8c-7.2,0-13.1,5.8-13.2,13.1v36.2H137v-34.4
		c0-7-1.1-14.9-11.3-14.9c-7.8,0-13.3,6.7-13.3,13.6v35.7H104L104,546.2z"/>
	<path d="M194.5,546.2v-46.3l-0.8-8.2h7.1l1,7.8c3.6-5.8,10-9.3,16.8-9.3c7.2,0,12.7,3,15.7,10.2c3.3-6.4,9.9-10.4,17.1-10.2
		c11.3,0,17.6,6.8,17.6,19.3v36.8h-8.5v-34.5c0-7.8-1.6-14.8-11.3-14.8c-7.2,0-13.1,5.8-13.2,13.1v36.2h-8.4v-34.4
		c0-7-1.1-14.9-11.3-14.9c-7.8,0-13.3,6.7-13.3,13.6v35.7H194.5L194.5,546.2z"/>
	<path d="M289.3,470.3c3.2,0,5.7,2.6,5.7,5.8c0,3.2-2.6,5.7-5.8,5.7c-3,0.1-5.5-2.3-5.6-5.4c0-0.2,0-0.3,0-0.5
		c-0.1-3.1,2.4-5.6,5.5-5.7C289.1,470.3,289.2,470.3,289.3,470.3z M285,546.2v-54.5h8.6v54.6L285,546.2L285,546.2z"/>
	<path d="M308,536.3c4.4,3,9.6,4.7,14.9,4.8c6.1,0,10.9-2.9,10.9-9.3s-4.9-8.3-11.3-9.9c-8.8-2.1-16.6-4.8-16.6-15.7
		s8.8-16.2,18.3-16.2c6.8,0,13.3,2.6,18.2,7.4l-4.9,5.1c-3.6-3.4-8-5.9-13.6-5.9c-4.8,0-10,2.4-10,8.5c0,6.5,5.4,8,11.6,9.9
		c7.9,2.4,16.6,5.1,16.6,16.2c0,10.8-7.9,16.7-19.1,16.7c-8.9,0-16-3.3-18.3-5.3L308,536.3z"/>
	<path d="M381.5,561.3c0-9.8,7.9-15.5,15-19.3c-10-0.7-20.5-5.5-20.5-24.3c0-18.3,10.5-27,24.7-27c5.7,0,13.5,1.1,19.4,3.6V543
		c0.1,4.9-0.3,9.8-1.2,14.6c-2.4,11-9.7,17.5-20.9,17.5C387.2,575.1,381.5,570,381.5,561.3z M414.6,497.6c-4.6-1.7-9.5-2.6-14.5-2.5
		c-8.3,0-18.7,4.3-18.7,21.5c0,9.3,1.8,21.5,17.1,21.5c9,0,16-6.1,16-15.2L414.6,497.6L414.6,497.6z M398,570.5
		c12.6,0,16.5-11.3,16.5-24.5v-9.3c-19.1,8.8-27.6,15.5-27.6,24.1C387,567.7,391.6,570.5,398,570.5L398,570.5z"/>
	<path d="M474.4,503.2c0,18.5-25.2,19.2-34.3,18.4c0.3,10.3,4.9,21.4,18.1,21.4c5.2,0.1,10.2-1.8,14.2-5.1l2.7,3.8
		c-4.7,3.9-10.7,6.1-16.8,6c-16.5,0-23.6-11.6-23.6-28c0-16.4,9-29.1,24.6-29.1C469.3,490.7,474.4,496,474.4,503.2z M459.2,495.1
		c-13.6,0-18.5,13.1-18.9,22.1c5.9,0.6,28.6,0.1,28.6-12.7C468.8,498.5,464.9,495.1,459.2,495.1L459.2,495.1z"/>
	<path d="M487,546.2v-46.8l-0.4-7.2h4.9l1,8.5c4-6.2,10.8-10,18.2-10c11.4,0,17.3,6.5,17.3,18.8v36.8h-5.4v-34.4
		c0-9.1-2.1-16.7-12.8-16.7c-9.7,0-17.2,8-17.2,15.2v35.9L487,546.2L487,546.2z"/>
	<path d="M586.6,492.2V539l0.6,7.2h-5l-1-8.1c-4.3,6.8-11.3,9.7-18.2,9.7c-11.4,0-17.3-6-17.3-18.3v-37.2h5.5V527
		c0,9.1,2.1,16.2,13.3,16.2c8.8,0,16.8-7.8,16.8-14.9v-36.1H586.6L586.6,492.2z M556.7,471.3c2.6,0,4.8,2.1,4.8,4.8
		c0,0.1,0,0.1,0,0.2c0.2,2.6-1.8,4.9-4.5,5c-0.1,0-0.2,0-0.4,0c-2.7,0-4.8-2-4.8-5.1c-0.1-2.6,1.9-4.8,4.6-4.9
		C556.6,471.3,556.7,471.3,556.7,471.3z M575.2,471.3c2.6,0,4.8,2.1,4.8,4.8c0,0.1,0,0.1,0,0.2c0.2,2.6-1.8,4.9-4.5,5
		c-0.1,0-0.2,0-0.4,0c-2.7,0-4.8-2-4.8-5.1c-0.1-2.6,1.9-4.8,4.6-4.9C575,471.3,575.1,471.3,575.2,471.3z"/>
	<path d="M601.8,538.5c4.4,3,9.6,4.7,14.9,4.8c6.5,0,12.6-3.5,12.6-11s-5.6-9.5-12.6-11.4c-7.9-2.1-16.4-4.4-16.4-15
		c0-10.6,8.3-15.1,17.2-15.1c6.4-0.1,12.6,2.5,17,7.1l-3.4,3.6c-3.7-4-8.9-6.2-14.3-6.3c-5.3,0-11.5,2.6-11.5,10.2
		c0,6.9,5.8,8.9,12.8,11c7.8,2.3,16.4,4.5,16.4,15.4c0,10.3-7.6,16-18.1,16c-8.5,0-15.2-3.2-17.1-5L601.8,538.5z"/>
	<path d="M645.1,538.5c4.4,3,9.6,4.7,14.9,4.8c6.5,0,12.6-3.5,12.6-11s-5.6-9.5-12.6-11.4c-7.9-2.1-16.4-4.4-16.4-15
		c0-10.6,8.3-15.1,17.2-15.1c6.4-0.1,12.6,2.5,17,7.1l-3.4,3.6c-3.7-4-8.9-6.2-14.3-6.3c-5.3,0-11.5,2.6-11.5,10.2
		c0,6.9,5.8,8.9,12.8,11c7.8,2.3,16.4,4.5,16.4,15.4c0,10.3-7.6,16-18.1,16c-8.5,0-15.2-3.2-17.1-5L645.1,538.5z"/>
	<path d="M696.6,470v60.7c0,9.5,1.6,12.5,7.7,12.5c2.6-0.1,5.1-0.7,7.5-1.9l1.4,4.1c-1.9,1.2-5.5,2.3-9.9,2.3
		c-11.6,0-12.2-7.7-12.2-16.5V470H696.6L696.6,470z"/>
	<path d="M725.4,472.1c2.5,0,4.4,2.1,4.4,4.5c0,0,0,0.1,0,0.1c0.1,2.5-1.8,4.6-4.2,4.8c-0.1,0-0.2,0-0.3,0c-2.5,0-4.4-1.9-4.4-4.8
		c-0.1-2.5,1.9-4.5,4.3-4.6C725.3,472.1,725.4,472.1,725.4,472.1z M722.7,546.2v-54h5.5v54L722.7,546.2L722.7,546.2z"/>
	<path d="M780.6,537.9l2.7,3.7c-3.1,3-9.4,6.1-16.9,6.1c-15.6,0-23.5-10.9-23.5-28.9c0-22.4,13.5-28.2,22.9-28.2
		c5.9,0,13.3,1.9,18.2,9.1l-3.9,3c-4.2-5.4-8.9-7.4-14.4-7.4c-9.8,0-17.3,6.9-17.3,23.4c0,13.8,4.9,24.3,18.1,24.3
		C771.7,543.1,776.7,541.2,780.6,537.9z"/>
	<path d="M794.7,546.2v-76.3h5.5v30.2c4.1-6,11-9.5,18.2-9.4c11.4,0,17.3,6.4,17.3,18.7v36.9h-5.5v-34.7c0-8.6-1.9-16.4-13.2-16.4
		c-9.2,0-16.9,8-16.9,15.4v35.7L794.7,546.2L794.7,546.2z"/>
	<path d="M883,470v60.7c0,9.5,1.6,12.5,7.7,12.5c2.6-0.1,5.1-0.7,7.5-1.9l1.4,4.1c-1.9,1.2-5.5,2.3-9.9,2.3
		c-11.6,0-12.2-7.7-12.2-16.5V470H883L883,470z"/>
	<path d="M944.3,503.2c0,18.5-25.2,19.2-34.3,18.4c0.3,10.3,4.9,21.4,18.1,21.4c5.2,0.1,10.3-1.7,14.3-5.1l2.7,3.8
		c-4.7,3.9-10.7,6.1-16.8,6c-16.5,0-23.6-11.6-23.6-28c0-16.4,9-29.1,24.6-29.1C939.1,490.7,944.3,496,944.3,503.2z M929,495.1
		c-13.6,0-18.5,13.1-18.9,22.1c5.9,0.6,28.6,0.1,28.6-12.7C938.7,498.5,934.7,495.1,929,495.1z"/>
	<path d="M990.7,537.9l2.7,3.7c-3.1,3-9.4,6.1-16.9,6.1c-15.6,0-23.5-10.9-23.5-28.9c0-22.4,13.5-28.2,22.9-28.2
		c5.9,0,13.3,1.9,18.2,9.1l-3.9,3c-4.2-5.4-8.9-7.4-14.4-7.4c-9.8,0-17.3,6.9-17.3,23.4c0,13.8,4.9,24.3,18.1,24.3
		C981.8,543.1,986.8,541.2,990.7,537.9z"/>
	<path d="M1043,504.5c0,7.4-3.8,15.8-14,20.2l13.6,21.5h-6.4l-12.6-19.7c-4.4,1-8.8,1.4-13.3,1.2v18.5h-5.5v-76.3h5.5v37.2
		c2.5-7.9,9.4-16.5,20-16.5C1039.2,490.7,1043,496.6,1043,504.5z M1029.6,495.3c-10.3,0-18.7,15.8-19.4,27.7
		c18.5,1.1,27.2-8.6,27.2-18C1037.4,499.4,1035.1,495.3,1029.6,495.3z"/>
	<path d="M1092.6,503.2c0,18.5-25.2,19.2-34.3,18.4c0.3,10.3,4.9,21.4,18.1,21.4c5.2,0,10.2-1.8,14.2-5.2l2.7,3.8
		c-4.7,3.9-10.7,6.1-16.8,6c-16.5,0-23.6-11.6-23.6-28s9-29.1,24.6-29.1C1087.4,490.7,1092.6,496,1092.6,503.2z M1077.3,495.1
		c-13.6,0-18.5,13.1-18.9,22.1c5.9,0.6,28.6,0.1,28.6-12.7C1087,498.5,1083,495.1,1077.3,495.1L1077.3,495.1z"/>
	<path d="M1110.7,546.2h-5.5v-47.6l-0.4-6.4h5.1l0.9,8.3c2.1-5.9,7.7-9.8,13.9-9.9c3-0.1,5.9,0.7,8.6,2.1l-2,4.6
		c-2.3-1.3-5-1.9-7.6-2c-7.7,0-12.5,7.4-13,15.5L1110.7,546.2L1110.7,546.2z"/>
	<g>
		<path d="M1082.3,589.8l-18.1,102.6c-0.8,5.1-1.6,9.3-1.6,13.8c0.2,11.5,5.8,21.6,27.2,21.6c9.7,0,21.6-2.9,28.2-7l-4.5-17.3
			c-3.5,1.9-8.7,3.9-13.2,3.9c-10.7,0-10.9-6.6-9.3-15l8.2-44.9h25.5l3.5-21.2h-25.3l6.4-36.5L1082.3,589.8L1082.3,589.8z
			 M1029.8,600.7c0,6.8,4.5,11.7,12.6,11.7c9.7,0,17.7-7,17.7-16.3c0-6.6-5.1-12.1-12.8-12.1C1037.2,584,1029.8,591.6,1029.8,600.7
			 M1036.2,724.9l17.3-98.6h-27l-17.5,98.6L1036.2,724.9L1036.2,724.9z M976.5,623.4c-36.4,0-58.1,31.7-58.1,64.9
			c0,22.7,11.5,39.5,38.7,39.5c20.4,0,34.6-8,39.1-11.3l-6.8-17.7c-6,3.7-14.8,8.4-25.3,8.4c-14.6,0-18.5-9.9-18.5-20.4
			c23.1-0.8,60.1-6,60.1-39.5C1005.7,632.4,994.8,623.4,976.5,623.4 M981.4,650.6c0,13.4-21.8,16.7-33.1,16.9
			c2.7-10.7,10.1-24.9,24.3-24.9C977.5,642.7,981.4,645.4,981.4,650.6 M884.7,653.5c0,11.1-13.6,19.6-34,21.8
			c3.5-14.6,15.4-29.4,26.2-29.4C881.8,646,884.7,648.3,884.7,653.5 M872.5,724.9h29.9l-16.2-39.9c16.3-7.6,26.8-22,26.8-39.1
			c0-15.4-10.1-22.6-23.9-22.6c-14,0-26.2,8.6-33.8,21.4l-0.8-0.2l10.7-54.9h-27l-23.9,135.1h27l5.4-30.5c4.4-0.4,8.7-1,13-1.9
			L872.5,724.9z M734.7,745.4c0-8.6,6.8-13,17.1-18.9c6.4-3.9,10.9-6.6,15.9-10.7l-1.8,9.7c-3.7,19.4-8.7,30.1-21.4,30.1
			C738.4,755.7,734.7,751.6,734.7,745.4 M773.2,683.9c-1.9,11.5-10.1,16.9-19,16.9c-11.3,0-14.4-8.6-14.4-18.9
			c0-20.2,10.5-38.7,30.3-38.7c3.4,0,6.8,0.5,10.1,1.4L773.2,683.9z M740.9,776.2c26.2,0,43.2-13.4,50.5-46.1
			c1.4-6,3.7-18.3,4.7-24.5l13.2-75.2c-10.1-4.7-26.2-7-38.1-7c-33.8,0-58.1,21.4-58.1,57.9c0,22,12,32.3,26,34.3
			c-20.6,8.9-30.1,18.1-30.1,34.6C709,766.2,719.7,776.3,740.9,776.2 M681.8,600.7c0,6.8,4.5,11.7,12.6,11.7c9.7,0,17.7-7,17.7-16.3
			c0-6.6-5.1-12.1-12.8-12.1C689.2,584,681.8,591.6,681.8,600.7 M688.3,725l17.3-98.6h-27L661,725H688.3L688.3,725z M617.3,692.3
			c-2.3,8.7-8.6,15.4-18.3,15.4c-10.9,0-14.4-8-14.4-19.2c0-23.1,10.9-44.3,32.5-44.3c2.8,0,5.6,0.3,8.4,1L617.3,692.3z
			 M615.9,623.5c-37.1,0-58.7,29.4-58.7,68c0,18.3,7.4,36.4,31.7,36.4c10.7,0,20.8-4.7,27.6-13l0.8,0.2l-0.6,9.9H640l1.6-20
			L662,589.9h-26.6l-6.2,35.6C624.9,624.1,620.4,623.5,615.9,623.5 M480.6,598.7c0,6.2,4.1,10.9,11.3,10.9c8.9,0,15.9-6.8,15.9-14.8
			c0-6.2-4.3-10.9-11.3-10.9C487.4,583.9,480.6,590.6,480.6,598.7 M520.2,598.7c0,6.2,4.3,10.9,11.3,10.9c8.9,0,15.9-6.8,15.9-14.8
			c0-6.2-4.3-10.9-11.3-10.9C527,583.9,520.2,590.6,520.2,598.7 M523.1,626.3l-11.1,63.6c-1.6,9.1-9.3,17.1-18.9,17.1
			c-11.7,0-11.1-8.7-9.3-18.3l10.9-62.4h-27l-11.5,65.9c-0.6,3.3-0.9,6.7-1,10.1c0,16.2,9.3,25.3,28,25.3c10.3,0,19.8-3.5,27.4-13.4
			l1.2,0.2l-0.2,10.5h22.9l1.3-17.3l14.2-81.3L523.1,626.3L523.1,626.3z M319.6,724.9l11.1-62.6c1.6-9.7,8.4-18.1,18.7-18.1
			c7.6,0,9.3,4.9,9.3,10.9c-0.1,3.1-0.5,6.1-1.2,9.1l-10.7,60.7h26.8l11.1-63c1.8-9.3,8.7-17.7,18.7-17.7c7.2,0,9.1,4.7,9.1,10.7
			c-0.1,3.1-0.4,6.1-1,9.1l-10.7,60.9h26.8l11.9-66.5c0.6-3.5,0.9-7,1-10.5c0-16.5-9.3-24.5-25.7-24.5c-12.4,0-22.7,5.3-30.3,14.6
			c-3.5-10.1-11.9-14.6-23.9-14.6c-12.4,0-22.2,5.4-30.1,14.4v-11.5h-22.1l-1.4,18.3l-14.2,80.3H319.6z M248.8,693.4
			c-1.9,8.7-9.6,14.8-18.5,14.6c-11.1,0-14.2-8.7-14.2-19.2c0-17.7,7-45.5,29.4-45.5c4.9,0,9.1,0.8,11.7,1.9L248.8,693.4z
			 M286.4,630.6c-13.8-5.3-27.8-7.2-36-7.2c-39.5,0-61.2,28.4-61.2,68.4c0,21,9.7,35.8,30.5,35.8c12.2,0,21-3.9,28.4-12.8l0.8,0.2
			l-0.4,9.9h23.3l1.4-19.6L286.4,630.6z M123.1,645.6c4.5-1.3,9.1-2,13.8-1.9c11.9,0,15.4,8.6,15.4,20.2c0,23.7-9.5,43.8-25.5,43.8
			c-5.1,0-10.3-1.6-13.6-4.1L123.1,645.6z M109.4,723.3c4.1,2.3,11.1,4.5,19.2,4.5c29.9,0,50.5-24.3,50.5-64.5
			c0-26-12.4-39.9-38.5-39.9c-9.9,0-26,1.9-42,6.8L74.8,765.7h27L109.4,723.3z M-17.9,673.8c-0.8,5.3-1.2,10.6-1.2,15.9
			c0,24.5,13.2,38.1,36.5,38.1c29,0,56.8-18.1,56.8-67.5c0-31.5-23.1-36.9-36.5-36.9C16.3,623.4-10.9,633.3-17.9,673.8 M21.6,708
			c-9.9,0-13-8-13-18.5c0-26.6,9.1-46.5,24.7-46.5c7.6,0,11.5,5.1,12.4,13.4c0.3,2.3,0.5,4.5,0.4,6.8C45.5,691.1,36.2,708,21.6,708
			 M-53.7,663.7c2.3-11.7,9.9-17.3,19.6-17.3c4.5,0,9,1.1,13,3.3l8.2-22.4c-3.7-2.3-9.5-3.9-15.6-3.9c-9.1,0-19.2,5.3-25.7,16.9
			l-0.2-14h-21.9l-0.8,16.9l-14.6,81.6h27L-53.7,663.7z M-124.2,626.3l-11.1,63.6c-1.6,9.1-9.3,17.1-18.9,17.1
			c-11.7,0-11.1-8.7-9.3-18.3l10.9-62.4h-27l-11.5,65.9c-0.6,3.3-0.9,6.7-1,10.1c0,16.2,9.3,25.3,28,25.3c10.3,0,19.8-3.5,27.4-13.4
			l1.2,0.2l-0.2,10.5h22.9l1.4-17.3l14.2-81.3L-124.2,626.3L-124.2,626.3z M-293.2,724.9h82l4.3-24.1h-54.2l5.2-29.9h45.3l4.3-23.9
			h-45.5l4.9-27.2h53.1l4.1-24.1h-80.7L-293.2,724.9z"/>
	</g>
</g>
</svg>
