<svg xmlns="http://www.w3.org/2000/svg" xmlns:xlink="http://www.w3.org/1999/xlink" viewBox="0 0 1516 1036"><defs><style>.a{fill:none;}.b{fill:#ededed;}.c{clip-path:url(#a);}</style><clipPath id="a"><rect class="a" width="1516" height="1036"/></clipPath></defs><title>1Artboard 11</title><rect class="b" y="1.32" width="1516" height="1034.68"/><g class="c"><path d="M1401.05,575.86l52.77-39.68-52.77-39.82,11.68,38.41-72.6-.28v2.81l72.6.29Zm-110.59-2.11h19.84L1329.72,464h-19.84Zm-58.25-14.21c-10.55,0-16.74-7-16.74-18.3,0-15.47,9.57-25.88,24.06-25.88,9.85,0,18.43,5.34,18.43,17.72,0,14.92-11.11,26.46-25.75,26.46m-6.33,16.32c12.24,0,22.38-6.05,27-12.67l-1.69,10.56h19.13l12.81-72.46h-19.7l-2.11,10.41c-3.38-6.33-11.68-12.81-25-12.81-23.63,0-41.5,18.58-41.5,44.46,0,19.42,11.54,32.51,31.09,32.51m-76.68,0a44.26,44.26,0,0,0,34.61-16.75l-12-10c-5.77,5.91-11.4,10.13-20.12,10.13-10.42,0-16.75-6.89-16.75-18.43,0-14.77,9.43-25.18,23.08-25.18a19.4,19.4,0,0,1,17.3,10.13l14.92-9.57c-4.51-8.86-14.5-17.31-31.1-17.31-26.73,0-44.6,18.58-44.6,44.18,0,19.28,13.23,32.79,34.61,32.79m-76.54-2.11h19.84l12.81-72.46h-19.84Zm15.62-91H1109l3.38-18.71H1091.8Zm-14.07,18.43a21.57,21.57,0,0,0-9.71-2.25c-11.11,0-19.27,7.88-23.63,16.18l2.39-13.78H1024l-12.66,72.46h19.84l6.47-37c2.25-12.52,11-20.4,21-20.4,3.1,0,7,.84,8.87,2.25Zm-82.59.15-28.56,50.79-11.82-50.79H931l19,70.63-18.43,31h21.39l59.8-101.58ZM888.49,573.75h19.84L927.74,464H907.91ZM760.88,544.48c0-9,5.34-14.35,12.66-18,3.38,3.38,7.32,7.18,12.1,11.68l16,15.05a33.63,33.63,0,0,1-20.54,6.9c-13.23,0-20.26-5.91-20.26-15.62m68.24-51.07c-5.77-12.81-16.18-21-34.48-21-22.23,0-34.75,12.81-34.75,27.72A26.52,26.52,0,0,0,765.52,517c-17.59,5.91-25.75,16.75-25.75,31,0,16.88,14.21,27.86,35.74,27.86,15.76,0,27.72-4.79,37.29-12.24l10.69,10.13h27.58l-23.22-21.67a82.74,82.74,0,0,0,15.9-28.42l-18.71-6a117.12,117.12,0,0,1-9.57,23.07l-17.59-16.46c-13.22-12.38-16.32-16.46-16.32-23.08s4.5-11.67,13.08-11.67c9.15,0,14.07,4.92,18.16,13.22ZM667.46,575.86c15.19,0,27-7.74,33.2-16.75l-12.8-9.42c-4.93,5.76-10.13,9.7-19,9.7-12.66,0-20.54-8.16-20.54-22.23s8.16-21.8,20.12-21.8c7.74,0,14.07,4.08,18.57,10.27l13.23-10c-5.63-8.87-15.9-16.75-32.08-16.75-23.92,0-39.82,16-39.82,39.26s15.34,37.71,39.12,37.71m-76-2.11h19.84V501.29H591.48Zm-.42-91h20.68V464H591.06Zm-89.91,91H521v-38.7c0-10.27,4.78-20.26,17.16-20.26,9.43,0,12.52,5.77,12.52,18.15v40.81h19.84V527.88c0-18.72-8.72-28.71-26.45-28.71-12.66,0-20.4,6.62-23.49,13.65V501.29H501.15Zm-58.67-14.36c-13.37,0-21.25-7.87-21.25-22.09,0-13.36,8.59-21.94,21.25-21.94,12.94,0,21.1,8.58,21.1,21.1,0,14.63-8.86,22.93-21.1,22.93m-.28,16.47c25.18,0,41.64-16,41.64-39.54,0-21.53-15.47-37.43-41.08-37.43s-41.65,16-41.65,39.12c0,22.79,14.35,37.85,41.09,37.85m-84,0c15.19,0,27-7.74,33.2-16.75l-12.8-9.42c-4.92,5.76-10.13,9.7-19,9.7-12.67,0-20.54-8.16-20.54-22.23s8.16-21.8,20.11-21.8c7.74,0,14.08,4.08,18.58,10.27l13.22-10c-5.63-8.87-15.9-16.75-32.08-16.75-23.92,0-39.82,16-39.82,39.26s15.34,37.71,39.12,37.71m-79.5-2.11h20.12V475.26H278.7Zm-138.58,8.72h76.54v-2.81H140.12Zm58.67-19.42,8.86-34.33h1.41c3.38,0,6.19.71,8,2.11a7.84,7.84,0,0,1,3.24,6.62c0,4.36-3.94,10.27-11.4,17.3a118.13,118.13,0,0,1-10.13,8.3m-37.29,9.29-12.94-50.65h59.37l-1.4,5.62H195.69v1.41h10.42L195,572.34Zm-1.12,1.41h35.74l2.25-8.59a125.91,125.91,0,0,0,11.53-9.42c7.74-7.32,11.82-13.51,11.82-18.29a9.08,9.08,0,0,0-3.8-7.74,15,15,0,0,0-8.86-2.4h-1.13l1.83-7h-63Zm2.11-57.55h2.81V505.79a6.62,6.62,0,0,1,6.62-6.62h27.85a9.36,9.36,0,1,0,0-18.71H174a6.61,6.61,0,0,1-6.62-6.61v-2.53H164.6v2.53a9.43,9.43,0,0,0,9.43,9.43h25.74a6.54,6.54,0,1,1,0,13.08H171.92a9.43,9.43,0,0,0-9.43,9.43ZM92.7,586.55h10.41V517.89H92.7Zm8.72-83h1.41V470.89h-1.41Zm-8.86,0H94V470.89H92.56Zm-1.41,10.83H104.8a7.24,7.24,0,0,0,7.18-7.32V470.89h-1.41v36.16A5.82,5.82,0,0,1,104.8,513H91.15a6,6,0,0,1-5.91-5.91V470.89h-1.4v36.16a7.26,7.26,0,0,0,7.31,7.32M51.48,537V476.38a8,8,0,0,1,8-8h8V532h-9V537Zm7,49.53H68.92V467H59.5a9.43,9.43,0,0,0-9.43,9.43v62h8.44Z"/><path d="M1356.66,429.08h86.92v-2.53h-84.39V336.86H1437v-2.53h-77.82V254.74h80.35v-2.53h-82.88Zm-129.55,0H1314v-2.53h-84.39V252.21h-2.53Zm-148.75-2.28V331.55h36.13c52.3,0,63.67,19.45,63.67,42.95,0,27-17.94,52.3-67.72,52.3Zm0-97.52V254.49h31.07c43.72,0,51.55,20.21,51.55,33.85,0,31.33-26,40.94-51,40.94Zm-2.53,99.8h36.38c45.23,0,68.48-22.49,68.48-54.58,0-28-16.93-41.69-52.56-44.72,24.51-5.81,35.37-20,35.37-41.18s-16.17-36.39-51.79-36.39h-35.88ZM960.68,255.24h.25l49.27,113H911.41Zm78.83,173.84L961.44,249.69h-1.26L881.85,429.08h2.78l25.52-58.37h101.06l25.52,58.37Zm-315-2.53V254.74h41.19c69,0,97.53,36.89,97.53,81.1,0,49-30.32,90.71-100.06,90.71Zm41.19-174.34H722V429.08h41.18c66.45,0,102.58-37.9,102.58-94.25,0-49.77-36.13-82.62-100-82.62M523.19,429.08h2.53V255L666,429.08h3.28V252.21h-2.52V426.05l-140-173.84h-3.54ZM408,255.24h.26l49.27,113h-98.8Zm78.84,173.84L408.8,249.69h-1.26L329.21,429.08H332l25.52-58.37H458.58l25.52,58.37ZM220.13,343.17V254.49h27.28c24.26,0,57.87,3.53,57.87,43.46,0,37.64-38.66,45.22-60.39,45.22Zm-2.53,85.91h2.53V345.45h22.48c3.29,0,6.32,0,9.35-.26l60.39,83.89h3.28l-60.89-84.14c38.41-3.79,53.31-25.27,53.31-47,0-29.31-17.68-45.74-58.61-45.74H217.6ZM71.37,426.8V331.55H107.5c52.31,0,63.68,19.45,63.68,42.95,0,27-17.94,52.3-67.72,52.3Zm0-97.52V254.49h31.08c43.71,0,51.54,20.21,51.54,33.85,0,31.33-26,40.94-51,40.94Zm-2.52,99.8h36.38c45.23,0,68.47-22.49,68.47-54.58,0-28-16.93-41.69-52.55-44.72,24.51-5.81,35.37-20,35.37-41.18s-16.17-36.39-51.8-36.39H68.85Z"/><path d="M1307.6,833.21h116.24l6.44-36.26h-68.79l7.45-42.7h61.68l5.76-34.9H1374.7l6.78-38.64h64.39l6.44-35.92H1340.47Zm-165.38,0h121l7.11-38.63h-73.2l26.1-149.45h-47.79Zm-136.57-32.53,9.15-52.19H1029c20.34,0,31.52,6.1,31.52,20.33,0,19.66-14.91,31.86-42,31.86Zm14.57-82,7.12-42.7h13.89c14.24,0,22.37,5.76,22.37,16.6,0,14.58-13.56,26.1-32.87,26.1ZM952.44,833.21h68.8c53.88,0,88.45-27.79,88.45-65.74,0-23.38-15.93-35.92-38.3-40l.34-.34c24.06-7.12,38-23,38-44.4,0-23-19.66-37.61-53.55-37.61H985.65ZM802,764.76,839.93,699l15.59,65.75ZM714.2,833.21h48.47L783,798.31h80l8.47,34.9h45.41L866,643.77H832.48Zm-84,0h48.13l32.87-188.08H663.37ZM501.73,729.51l9.15-53.2h14.23c20,0,30.5,6.43,30.5,22,0,18.64-15.59,31.18-42,31.18Zm-66.09,103.7h47.79L496.3,760h10.51l37.62,73.2h51.85l-44.74-77.94c31.18-8.81,52.19-30.5,52.19-60,0-31.17-22.36-50.15-64.05-50.15H468.85ZM285.18,764.76,323.13,699l15.59,65.75ZM197.4,833.21h48.47l20.33-34.9h80l8.47,34.9h45.41L349.23,643.77H315.68Zm-93.53,2.38h33.21L254,645.13H202.83L131.32,768.82,102.85,645.13H53.71Z"/><path d="M1327.24,969.8h45v-2.41h-45Zm74.65,18.33a12.46,12.46,0,0,0,12.42-11.34H1454l.36-.12a12.81,12.81,0,0,0,3.62,7.6,12.54,12.54,0,0,0,21.59-8.68,13.82,13.82,0,0,0-3.74-8.81l4.82-2.17-1-2.17-26.29,11.94h-74.05v2.41h10a12.49,12.49,0,0,0,12.54,11.34m-63.07-35.46h33.41v-2.41h-33.41Zm40.88,18.58h42.93v-.61a21.5,21.5,0,0,0-21.34-21.58v-5.31h23.64l.6,16.88a4.38,4.38,0,0,0,4.34,4.22H1447a5.6,5.6,0,0,0,5.54-5.54V938h-2.41v21.35a3.19,3.19,0,0,1-3.13,3.13h-17.13a1.91,1.91,0,0,1-1.93-1.93l-.72-19.17H1378v2.41h20.87v5.43a21.56,21.56,0,0,0-19.18,21.46Zm-34.85-35.82h27.37V933h-27.37Zm110,27.13a14.48,14.48,0,0,1,22.8,0l1.93-1.44a16.84,16.84,0,0,0-11.34-6.4l-12.54-21h2.53a5.4,5.4,0,0,0,5.43-5.43V926a5.41,5.41,0,0,0-5.43-5.43h-10v2.78l-8.8-1.81-.61,2.29,9.41,2v7.84h4.7l12.43,20.86a16.78,16.78,0,0,0-12.43,6.52Zm-72-26.89h36.42V899.25h-36.42Zm-186.2,51.25a11.29,11.29,0,0,1-11.34-10.73h22.55a11.17,11.17,0,0,1-11.21,10.73m65.12,0a11.53,11.53,0,0,1-8.2-3.49,11.87,11.87,0,0,1-3.38-7.84l18.94-8.69a12,12,0,0,1,4,8.69,11.4,11.4,0,0,1-11.34,11.33M1122,969.2h45.1v-2.42H1122Zm74.65,18.93a12.47,12.47,0,0,0,12.42-11.94h39.56l.36-.12a12.91,12.91,0,0,0,3.74,8.2,12.53,12.53,0,0,0,21.58-8.68,14.06,14.06,0,0,0-4-9.17l5-2.29-.6-1.09L1248.38,975h-74.29v1.21h10a12.49,12.49,0,0,0,12.54,11.94m-65-36.06h35.45v-2.41h-35.45Zm42.81,19.18h43v-.61a21.53,21.53,0,0,0-21.58-21.46h-.37v-6h24.73l.6,17.48a4,4,0,0,0,3.86,3.74h17a5.09,5.09,0,0,0,5.07-5.06V938.08h-1.21v21.23a4,4,0,0,1-3.86,3.86h-17a2.68,2.68,0,0,1-2.65-2.66l-.61-18.57h-48.6v1.21h21.47v6a21.56,21.56,0,0,0-19.9,21.46ZM1139.6,935h27.49v-2.42H1139.6Zm105.16-3V922.4h8.32a3.63,3.63,0,0,1,3.62,3.62v2.29a3.63,3.63,0,0,1-3.62,3.62Zm4.34,30.39a15,15,0,0,1,23.88,0l1-.84a15.78,15.78,0,0,0-11.33-6.15l-13.27-22.19h3.74a4.84,4.84,0,0,0,4.82-4.83V926a4.84,4.84,0,0,0-4.82-4.82h-9.53v3.13l-9.53-2.17-.24,1.21,9.77,2v7.72H1248l13,22.07a16.35,16.35,0,0,0-12.91,6.27Zm-51.74-51.61h11V905h-11Zm-18.57-10.25h34v34h-34Zm-1.2,35.21H1214V899.25h-36.42Zm-186.2,51.25a11.29,11.29,0,0,1-11.34-10.73h22.55a11.17,11.17,0,0,1-11.21,10.73m-74.65-18.33h45.1v-1.2h-45.1Zm139.77,18.33a11,11,0,0,1-8.2-3.49,12.48,12.48,0,0,1-3.38-7.84l18.93-8.69a12,12,0,0,1,4,8.69,11.39,11.39,0,0,1-11.33,11.33m-65.12,1.21a12.47,12.47,0,0,0,12.42-11.94h39.55l.37-.12a13.55,13.55,0,0,0,3.73,8.2,12.18,12.18,0,0,0,9,3.86,12.54,12.54,0,0,0,8.56-21.71l5-2.29-.61-1.09L1043.12,975H968.83v1.21h10a12.5,12.5,0,0,0,12.55,11.94M970.4,970a20.33,20.33,0,0,1,40.64,0Zm-44-18.57h35.46v-1.21H926.38Zm42.82,19.78h43v-.61a21.54,21.54,0,0,0-21.59-21.46h-.36v-6H1015l.61,17.48a4,4,0,0,0,3.86,3.74h17a5.09,5.09,0,0,0,5.06-5.06V938.08h-1.2v21.23a4,4,0,0,1-3.86,3.86h-17a2.68,2.68,0,0,1-2.66-2.66l-.6-18.57h-48.6v1.21h21.46v6a21.56,21.56,0,0,0-19.89,21.46Zm-34.86-36.91h27.5v-1.2h-27.5Zm105.16-2.41V922.4h8.33a3.63,3.63,0,0,1,3.61,3.62v2.29a3.63,3.63,0,0,1-3.61,3.62Zm4.35,30.39a15,15,0,0,1,23.87,0l1-.84a15.82,15.82,0,0,0-11.34-6.15l-13.26-22.19h3.74a4.84,4.84,0,0,0,4.82-4.83V926a4.84,4.84,0,0,0-4.82-4.82h-9.53v3.13l-9.53-2.17-.24,1.21,9.77,2v7.72h4.46l13,22.07a16.35,16.35,0,0,0-12.9,6.27Zm-50.53-56.08h8.56v3.26h-8.56Zm-1.21,4.47h11V905h-11Zm-18.57-10.25h34v34h-34Zm-1.21,35.21h36.42V899.25H972.33ZM820.5,965.94c0,9.53,5.67,19.54,21.83,19.54,15.32,0,24.48-9.29,24.48-20.63,0-12.3-9.53-14.83-17.85-17.6-6.27-2.17-11.33-4.34-11.33-10.62s5.54-10.49,13.14-10.49c8.2,0,11.22,4.46,12.54,9.77l6.28-2.89c-1.93-6.88-6.52-12.79-18.46-12.79s-20.74,6.76-20.74,17.25c0,11,8.68,13.38,16.4,15.92,6.76,2.29,12.54,4.7,12.54,12.06,0,8.2-6.51,13.74-16.88,13.74-11.33,0-15.31-7.59-15.56-15.31Zm-.36-43.9H804.46l3-17.12h-7.12L797.23,922H787.1L786,928.19h10.25l-8.92,50.29c-.6,3.26.48,5.19,4.34,5.19h17.73l1.08-6.15H794.57l8.81-49.33h15.68ZM711.85,983.67H719l6-34.25c2.17-12.3,10.49-23.16,24.84-23.16,11.94,0,16.16,7,13.63,21.35l-6.39,36.06h7.11l6.88-38c2.89-16.28-4.1-25.45-19.18-25.45-11.57,0-20.14,6-24.36,14.35l8.08-45h-7.11Zm-52-5.55C646.6,978.12,639,970,639,957.38c0-18,11.33-30.76,28.94-30.76,11.7,0,22.07,6.28,22.07,19.66,0,18.45-12.54,31.84-30.15,31.84m-4.71,32.44c19.06,0,32.57-9.89,36.06-29.31L701.59,922h-6.87l-2.65,14.23c-1.57-9.65-11.58-16-24.12-16-21.47,0-36.54,16.52-36.54,37.39,0,15.8,10.13,26.89,27.37,26.89,10.62,0,22.19-5.06,27.5-15.92l-1.93,11c-2.77,16.4-14.11,24.48-28.94,24.48-12.55,0-20-6.64-22.8-12.79l-6,4.23c3.62,7.59,12.67,15.07,28.58,15.07m-52.57-26.89h7.11L620.56,922h-7.12Zm13.62-79h7.6l2.78-15.08H619Zm-49.8,21.46c15.19,0,20,9.53,18.21,23.16H539.27c3-13.87,13.27-23.16,27.14-23.16m-8.8,59.34c12.78,0,22.67-5.19,30-14.84l-4.7-4c-5.06,6.64-12.9,12.54-24.72,12.54-12.91,0-19.9-8.92-19.9-20.86a29.42,29.42,0,0,1,.12-3.25h52.34c4.22-20.39-3-34.86-24.12-34.86-20.5,0-35.7,15.68-35.7,38.35,0,16.28,10.25,26.9,26.66,26.9M428.69,922l15.19,62.83h2.9l30.27-50.53,13.26,50.53h2.9L529.51,922h-8l-28.22,50.29L480.06,922h-2.65l-30,50.41L435.92,922ZM327.63,983.67h7.12l6-34.25c2.17-12.3,10.61-23.16,25-23.16,11.94,0,15.68,7,13.15,21.35l-6.4,36.06h7.12l6.75-38.35c2.9-16.28-3.5-25.09-18.57-25.09-11.58,0-20.26,6-24.72,14.84l2.29-13h-6.87Zm-47.27-4.47c-14.23,0-22.07-8.32-22.07-22.19,0-17,11.82-30.26,29.18-30.26,14.47,0,21.71,8.8,21.71,21.22,0,17.37-11.94,31.23-28.82,31.23m-.48,6.28c21.22,0,36.9-16.41,36.9-37.87,0-15.92-10.25-27.38-28.22-27.38C265,920.23,250.69,937,250.69,958c0,16.28,10.73,27.5,29.19,27.5m-69.47,0a34.71,34.71,0,0,0,27.5-13.27l-4-4.7c-5.79,6.75-12.67,11.57-22.8,11.57-12.54,0-20.14-8.68-20.14-22.19,0-17.24,11-30.14,27.74-30.14a20.7,20.7,0,0,1,19.42,12.3l5.18-4.22c-3.13-7.72-11.33-14.6-23.63-14.6-22.31,0-36.18,16.77-36.18,37.87,0,16.28,10.61,27.38,26.89,27.38m-55.59-1.81h7.11L172.79,922h-7.12Zm13.63-79H176l2.78-15.08h-7.6ZM53.28,970.28c4.1,8.2,13.63,15.2,28.34,15.2,18.69,0,32.92-12.31,32.92-30.15,0-15.2-12.3-22-26.29-21.71l32.92-33,.25-1.33H69.2l-1.09,6.39h39.68L76.31,937.48l.24,1.45c2.17,0,5-.13,7.24-.13,15.44,0,22.79,6.4,22.79,17,0,13.75-10.37,23-25.08,23-13.15,0-19.06-6.15-23.16-13.14Z"/><path d="M1427.06,136.18c-6.47,13.72-16.86,22.94-33.91,22.94-23.14,0-35.1-16.67-35.1-39.21s12.35-39.21,34.7-39.21c16.67,0,28,9.8,35.1,22.15l27.44-19.8c-11.76-20.19-32-35.29-61.75-35.29-48,0-75.09,32.94-75.09,72.74,0,39,22.55,71.36,72.74,71.36,33.72,0,55.67-18.63,65.28-41Zm-173.3,52.74h38.42V51.68h-38.42Zm-97.63-76.07V77.56h5.29c11.18,0,20.19,2.94,20.19,17.06,0,13.13-8,18.23-21.17,18.23Zm-38.43,76.07h38.43V136h2.55L1191,188.92h44.31l-40-59.4c16.07-7.45,25.48-21,25.48-37.25,0-23.14-15.09-40.59-50.77-40.59H1117.7ZM994,83.64h32.15V188.92h38.43V83.64h32.15v-32H994ZM896.76,188.92h83.12V159.51h-44.7V133h39.61V104.42H935.18V81.09h41.57V51.68h-80Zm-199.58,0h35.68l7.06-67.25L773.25,167h18l35.09-45.87,7.25,67.83H869.9L853.24,51.29H835.79l-52.35,77.83L730.71,51.29H712.87Zm-130.57-69c0-22.15,12.55-39,37.25-39,24.51,0,37.06,16.27,37.06,36.85,0,23.72-13.34,41-36.86,41-24.12,0-37.45-16.67-37.45-38.82m-39.6.59c0,39,24.12,71.36,76.66,71.36,49.6,0,76.85-33.52,76.85-74.89,0-37.45-26.08-69.21-76.66-69.21C554.26,47.76,527,80.7,527,120.5M425.26,188.92h83.13V159.51h-44.7V133h39.6V104.42h-39.6V81.09h41.56V51.68h-80ZM259.6,122.26c0,37.45,22.94,69.6,73.13,69.6,39.6,0,66.07-23.13,66.07-54.89V114.81H333.12v25.88h29V143c0,10.79-9.81,18.82-27.65,18.82-24.7,0-35.29-17.05-35.29-39.79,0-24.31,12.36-41,34.9-41,16.67,0,28.43,9.8,35.29,21.76l27.45-19.8c-11.57-20.19-32.35-35.29-61.95-35.29-48.23,0-75.29,32.94-75.29,74.5m-56.85,69-62.54-62.54-18.82,19,62.54,62.34ZM88.84,96.19l28,4.7L93.94,123.83ZM165.3,86,62.18,69.52,78.45,172.65Z"/></g></svg>