<?xml version="1.0" encoding="utf-8"?>
<!-- Generator: Adobe Illustrator 18.1.1, SVG Export Plug-In . SVG Version: 6.00 Build 0)  -->
<svg version="1.1" xmlns="http://www.w3.org/2000/svg" xmlns:xlink="http://www.w3.org/1999/xlink" x="0px" y="0px"
	 viewBox="-337.1 -220.4 1516 1036" enable-background="new -337.1 -220.4 1516 1036" xml:space="preserve">
<g id="Layer_3">
	<rect x="-337.1" y="-220.4" fill="#E6E6E6" width="1516" height="1036"/>
</g>
<g id="Layer_2">
	<title>quickview_pollen</title>
	<g>
		<path d="M1116.4-151.3l-1.9-1.6l-32.3,38.3h-9.2l31-36.6l-1.9-1.6l-32.3,38.3h-9.2l31-36.6l-1.9-1.6l-32.3,38.3h-9.5l31-36.6
			l-1.9-1.6l-32.3,38.3h-61.8l16.1-38.7h-0.2l-52.1,39.9v0.2l52.1,40h0.2l-16.2-38.8h61.8l32.3,38.3l1.9-1.6l-31-36.6h9.5l32.3,38.3
			l1.9-1.6l-31-36.6h9.2l32.3,38.3l1.9-1.6l-31-36.6h9.2l32.3,38.3l1.9-1.6l-31.9-37.9L1116.4-151.3z M868.7-61.7
			c19.9,0,36.8-10.3,36.8-27.1c0-10-5.8-18.1-17-24.1l-12.1-6.5c-9.5-5-12.1-9-12.1-14.7c0-4.5,3.6-8.6,10.7-8.6
			c0.9,0,1.9,0.2,2.7,0.5l18.7,26.7h0.2l6.3-25.5c-8.6-3.2-17.7-4.8-26.8-4.7c-21.5,0-34.7,10.7-34.7,27c0,12.3,6.5,19.9,19.9,27
			l10.7,5.7c6.8,3.6,9.7,6.3,9.7,11.1c0,6.6-4.8,10.3-11.9,10.3c-1.8,0-3.6-0.2-5.3-0.8l-20-26.8h-0.2l-5,26.3
			C848.8-63.1,858.7-61.7,868.7-61.7 M827.9-145.8c-7.4,0-17.9,7.6-27.1,19.7v-20.2l-41.5,13.9l9.2,7.9v58.6h-8.1v2.6h52.5v-2.6
			h-12.1v-58.4c5.7-1,13.2,3.2,30,21.8h0.2v-42.8C830-145.7,828.9-145.8,827.9-145.8 M710.4-74.4c-6.5,0-9.7-4-9.7-11.6
			c0-8.6,3.7-14.7,13.4-17.4v28.6C712.9-74.5,711.6-74.4,710.4-74.4 M746.3-66v-44.7c0-23.4-10.8-35-31.1-35
			c-16.1,0-28.1,6.6-39.1,18.9l0.8,0.8c5.5-4.2,10.5-6.1,17.8-6.1c12.3,0,19.4,8.9,19.4,26.6c-26.8,2.9-42.6,12.7-42.6,27.6
			c0,10.2,7.1,16.1,17.6,16.1c8.9,0,17.4-4.4,25-10.8v9.2h40.4v-2.6L746.3-66L746.3-66z M669.7-78.3c-3,1.2-6.3,1.8-9.5,1.8
			c-11.9,0-16.3-6.9-16.3-25.7v-37.6h22.8v-2.6h-22.7v-32.8L599.2-140v0.2h12.4V-94c0,21,7.6,32.3,26.8,32.3
			c14.8,0,25.5-6.9,31.4-16.5L669.7-78.3z M548.7-60.1c27,0,45.7-16.1,45.7-38.4c0-14.7-7.7-24.5-21.3-32.6l-21.2-12.7
			c-11.9-7.1-16-13.4-16-20.5c0-8.9,7.1-14.8,15.3-14.8c2.7-0.1,5.3,0.2,7.9,1l21.3,38.3h0.2l9.5-35.7c-12.6-5.3-24.1-7.1-36.6-7.1
			c-26.3,0-41.2,15.8-41.2,36c0,16.3,8.9,27.3,23.9,35.5l18.4,10c9.4,5,13.6,11.6,13.6,19.4c0,10.3-8.4,17.9-19.9,17.9
			c-2.9,0.1-5.8-0.4-8.4-1.6l-22.4-42.3h-0.2l-9.5,41.3C521-62.3,534.8-60.1,548.7-60.1 M437.8-142.4l12.4,7.9l-15.1,42.4
			l-17.9-42.4l10.8-7.9h-56.7l11,7.9l38.1,70.4l-47,21.5l30.7,21.5l19.2-42.1l35-71.2l10.8-7.9L437.8-142.4L437.8-142.4z
			 M338.2-106.8l22.6-27.8l10.8-7.9H340l12.4,7.9l-15.7,25.3l-16-25.3l9.2-7.9h-55.3l10.2,7.9l22.1,35.2L284-65.8h-6.5v2.4h26v-2.4
			h-10.2l15.3-30.8l19.4,30.8H320v2.4h51.3v-2.4h-7.3L338.2-106.8z M229.5-74.3c-6.5,0-9.7-4-9.7-11.6c0-8.6,3.7-14.7,13.4-17.4
			v28.6C232-74.5,230.7-74.3,229.5-74.3 M265.5-65.9v-44.7c0-23.4-10.8-35-31.1-35c-16.1,0-28.1,6.6-39.1,18.9l0.8,0.8
			c5.5-4.2,10.5-6.1,17.8-6.1c12.3,0,19.4,8.9,19.4,26.6c-26.8,2.9-42.6,12.7-42.6,27.6c0,10.2,7.1,16.1,17.6,16.1
			c8.9,0,17.4-4.4,25-10.8v9.2h40.4v-2.6L265.5-65.9L265.5-65.9z M136.8-63.3h48.4v-2.6h-8.1v-118.5l-41.5,14.5l9.2,7.9v96h-8.1
			L136.8-63.3L136.8-63.3z M86.8-74.3c-6.5,0-9.7-4-9.7-11.6c0-8.6,3.7-14.7,13.4-17.4v28.6C89.3-74.5,88-74.3,86.8-74.3
			 M122.8-65.9v-44.7c0-23.4-10.8-35-31.1-35c-16.1,0-28.1,6.6-39.1,18.9l0.8,0.8c5.5-4.2,10.5-6.1,17.8-6.1
			c12.3,0,19.4,8.9,19.4,26.6c-26.8,2.9-42.6,12.7-42.6,27.6c0,10.2,7.1,16.1,17.6,16.1c8.9,0,17.4-4.4,25-10.8v9.2h40.4v-2.6
			L122.8-65.9L122.8-65.9z M-6.8-60.1c17.3,0,32.6-5.5,44.2-14.8v-41.3H-11l14.5,11.9v40.8c-27.8-21.3-49.7-62.9-49.7-91.4
			c0-14.2,6.3-20.8,14.2-20.8c13.1,0,29.5,16,48.9,49.9h0.3l12.6-47.1c-11.8-6.1-25.3-9.8-42.5-9.8c-38.1,0-60.2,26.6-60.2,59.9
			C-72.9-86.9-47.8-60.1-6.8-60.1 M-168.5-153.5h-0.2l16.1,38.7h-61.8l-32.3-38.3l-1.9,1.6l31,36.7h-9.5l-32.3-38.3l-1.9,1.6
			l31,36.7h-9.2l-32.3-38.3l-1.9,1.6l31,36.7h-9.2l-32.3-38.3l-1.9,1.6l31.9,37.9l-32,37.9l1.9,1.6l32.3-38.2h9.2l-31,36.6l1.9,1.6
			l32.3-38.2h9.2l-31,36.6l1.9,1.6l32.3-38.2h9.5l-31,36.6l1.9,1.6l32.3-38.2h61.8l-16.1,38.7h0.2l52.1-39.9v-0.2L-168.5-153.5z"/>
	</g>
	<g>
		<path d="M1097,37.8l6.1-11.1h0.3l2.3,11.1H1097L1097,37.8z M1112.9,47.8l-0.3-0.2l-5.9-27.2h-2.7l-15.6,27.2l-0.1,0.2h-2.8
			l-0.4,2.5h9.9l0.4-2.5h-3.4l-0.2-0.3l4.1-7.4h10.3l1.5,7.4l-0.3,0.3h-3.4l-0.4,2.5h12l0.4-2.5L1112.9,47.8L1112.9,47.8z
			 M1065,35.6l2.2-12.4h1.5c4.6,0,7.8,1.5,7.8,5.4c0,4.9-3.8,7-9.8,7L1065,35.6L1065,35.6z M1079.5,47.7l-0.3-0.3l-5.9-10.4
			c5.3-1.6,8.5-4.7,8.5-9c0-4.6-4.5-7.5-12.5-7.5h-10.9l-0.1,0.7l3.9,2.4l-4.2,23.8l-0.3,0.3h-3.4l-0.4,2.5h13l0.4-2.5h-4.3
			l-0.2-0.3l1.7-9.3h4.1l6.7,12.1h6.9l0.4-2.5L1079.5,47.7L1079.5,47.7z M1032.1,35.6l2.2-12.4h1.5c4.6,0,7.8,1.5,7.8,5.4
			c0,4.9-3.8,7-9.8,7L1032.1,35.6L1032.1,35.6z M1046.6,47.7l-0.3-0.3l-5.9-10.4c5.3-1.6,8.5-4.7,8.5-9c0-4.6-4.5-7.5-12.5-7.5
			h-10.9l-0.1,0.6l3.9,2.4l-4.2,23.8l-0.3,0.3h-3.4l-0.4,2.5h13l0.4-2.5h-4.3l-0.2-0.3l1.6-9.3h4.1l6.7,12.1h6.9l0.4-2.5
			L1046.6,47.7L1046.6,47.7z M1012.8,23.2l2.7,5.7h0.5l1.4-8.2h-21.8v0.6l3.9,2.4l-4.2,23.8l-0.3,0.3h-3.4l-0.5,2.5h22.9l2-8.2h-0.6
			l-5.2,5.7H1000l2.1-11.8h5.8l0.1,0.2l-0.5,3.4h2.5l1.7-9.7h-2.6l-0.6,3.4l-0.3,0.3h-5.8l1.8-10.2L1012.8,23.2L1012.8,23.2z
			 M966.8,50.2H979l0.4-2.5h-3.5l-0.2-0.3l4.3-24.3h6.4l2.3,5.9h0.6l1.5-8.5h-25.5l-1.5,8.5h0.5l4.6-5.9h6.4L971,47.5l-0.3,0.3h-3.5
			L966.8,50.2z M928.9,37.8l6.1-11.1h0.3l2.3,11.1H928.9L928.9,37.8z M944.8,47.8l-0.3-0.2l-5.9-27.2H936l-15.6,27.2l-0.1,0.2h-2.8
			l-0.4,2.5h9.9l0.4-2.5h-3.4l-0.2-0.3l4.1-7.4H938l1.5,7.4l-0.3,0.3h-3.4l-0.4,2.5h12l0.4-2.5L944.8,47.8L944.8,47.8z M901.7,23.2
			l2.7,5.7h0.5l1.4-8.2h-21.8l-0.1,0.6l3.9,2.4l-4.2,23.8l-0.3,0.3h-3.4l-0.5,2.5h22.9l2-8.2h-0.6l-5.2,5.7h-10.2l2.1-11.8h5.8
			l0.1,0.2l-0.5,3.4h2.5l1.7-9.7H898l-0.6,3.4l-0.3,0.3h-5.8l1.8-10.2L901.7,23.2L901.7,23.2z M858.1,51.2c7.9,0,11.6-4.3,13.2-12.6
			l2.8-14.9l4.7-2.4l0.1-0.6h-11.9l-0.1,0.6l3.9,2.4l-2.7,14.9c-1.2,6.7-4,10-9,10c-5.9,0-7.4-4.5-6.2-10.6l2.6-14.2l4.7-2.4
			l0.2-0.6h-13.5l-0.1,0.6l3.9,2.4l-2.7,15.2C846.5,46.3,849.9,51.2,858.1,51.2 M832.9,33.1c-0.1,8.5-4.4,15.8-11.2,15.8
			c-5,0-8-4-8-11c0-9,4.4-15.8,11.1-15.8C830,22.1,833,26,832.9,33.1 M838.5,32.9c0.1-8.3-5.3-13.2-13.2-13.2
			c-10.3,0-17.1,8.6-17.1,18.2c0,5.7,2.4,9.3,7.1,12c3.8,2.2,9.6,4.4,17.4,6.7l4.6,1.4l0.6-1.3c-3.8-1.9-7.4-4.1-10.7-6.7
			C834.3,47.4,838.4,40.2,838.5,32.9 M774.5,48.8c-5.2,0-8.1-3.9-8.1-11.1c0-8.8,4.5-15.6,11.1-15.6c5.1,0,8.1,4,8.1,11.1
			C785.6,41.9,781.2,48.8,774.5,48.8 M774,51.2c10.6,0,17.1-9.1,17.1-18.2c0-8.3-5.6-13.2-13.2-13.2c-10.4,0-17.1,9-17.1,18.2
			C760.8,46.2,766.1,51.2,774,51.2 M743.5,20.7l-0.1,0.6l4,2.4l-1.8,9.8h-15l1.8-9.8l4.8-2.4l0.1-0.6h-13.5l-0.1,0.6l3.9,2.4
			l-4.3,23.8l-0.3,0.3h-3.5l-0.4,2.5h12.2l0.4-2.5h-3.5l-0.2-0.3l2-11.5h15l-2,11.5l-0.3,0.3h-3.4l-0.4,2.5h12.1l0.4-2.5h-3.4
			l-0.2-0.3l4.3-23.8l4.7-2.4l0.1-0.6L743.5,20.7L743.5,20.7z M691.5,50.2h21.6l1.7-8.2h-0.7l-4.7,5.7h-9l4.3-24l4.8-2.4l0.1-0.6
			H696l-0.1,0.6l3.9,2.4l-4.3,23.8l-0.3,0.3h-3.5L691.5,50.2z M683.2,23.2l2.7,5.7h0.5l1.4-8.2H666l-0.1,0.6l3.9,2.4l-4.2,23.8
			l-0.3,0.3H662l-0.5,2.5h22.9l2-8.2h-0.6l-5.2,5.7h-10.2l2.1-11.8h5.7l0.1,0.2l-0.5,3.4h2.5l1.7-9.7h-2.6l-0.6,3.4l-0.3,0.3h-5.8
			l1.8-10.2L683.2,23.2L683.2,23.2z M640.9,50.5h2.5l15.5-26.8l4.8-2.4l0.1-0.6h-11.9l-0.1,0.6l3.9,2.4l-11.4,20.6H644l-3.9-20.6
			l4.8-2.4l0.1-0.6h-13.8l-0.1,0.6l3.9,2.4L640.9,50.5z M603.5,51.2c6.4,0,10.7-3.9,10.7-9c0-3.5-2.4-5.9-6.4-9
			c-3.7-2.9-5.2-4.4-5.2-6.7c0-2.5,2-4.5,4.5-4.5c0.1,0,0.2,0,0.3,0c1.8,0,3.5,0.7,4.8,2l2,4.8h0.5l1.3-7.4
			c-2.5-1.1-5.1-1.7-7.8-1.7c-6.4,0-10.3,3.6-10.3,8.1c0,3,1.8,5.5,5.1,8.1c4.4,3.5,6.5,5.1,6.5,8c0,2.9-2.4,4.8-5.3,4.8
			c-2.2-0.1-4.3-1.1-5.7-2.7l-2.4-5.5h-0.5l-1.5,8C597,50.2,600.2,51.1,603.5,51.2 M573.6,50.2h12.2l0.4-2.5h-3.5l-0.2-0.3l4.2-23.8
			l4.8-2.4l0.1-0.6h-13.5l-0.1,0.6l3.9,2.4l-4.3,23.8l-0.3,0.3h-3.5L573.6,50.2z M551.6,37.8l6.1-11.1h0.3l2.3,11.1H551.6
			L551.6,37.8z M567.5,47.8l-0.3-0.2l-5.9-27.2h-2.7L543,47.6l-0.1,0.2h-2.8l-0.4,2.5h9.9l0.4-2.5h-3.4l-0.2-0.3l4.1-7.4h10.3
			l1.5,7.4l-0.3,0.3h-3.4l-0.4,2.5h12l0.4-2.5L567.5,47.8L567.5,47.8z M539.9,21.3l0.1-0.6h-9.1l-14,22.3h-0.2l-6.1-22.3h-9.2
			l-0.1,0.6l3.9,2.4l-5.9,23.8l-0.3,0.3h-3.4l-0.4,2.5h10.2l0.4-2.5h-3.5l-0.2-0.3l5.1-21.1l6.6,23.8h1.3L530.5,26l-2.4,21.5
			l-0.3,0.3h-3.5l-0.4,2.5h11.9l0.4-2.5h-3.4l-0.3-0.3l2.6-23.8L539.9,21.3z M461.3,48.6c-6.2,0-10.5-4.8-10.5-13.7
			c0-8,4.3-12.7,10.5-12.7c6,0,10.2,5.1,10.2,13.4C471.5,44.3,467.3,48.6,461.3,48.6 M460.8,51.2c9.7,0,16.1-6.5,16.1-16.3
			c0-9.3-6.2-15.2-15.1-15.2c-9.1,0-16.4,6.2-16.4,16C445.4,45.6,452,51.2,460.8,51.2 M420.5,50.2h12.3v-2.6h-3.5l-0.3-0.2V23.3h7.6
			l3.6,6.1h0.5v-8.8h-28.2v8.8h0.5l3.6-6.1h7.6v24.1l-0.3,0.2h-3.5V50.2z M395.4,50.2h12.3v-2.6h-3.5l-0.3-0.2V23.8l4.3-2.5v-0.6
			h-13.3v0.6l4.3,2.5v23.6l-0.3,0.2h-3.5V50.2z M371,34.7V23.3h3.5c3.8,0,6.2,1.7,6.2,5.1c0,4.3-2.7,6.2-7.2,6.2L371,34.7L371,34.7z
			 M387.8,47.6l-0.4-0.2l-7.9-10.9c3.8-1.5,6.2-4.8,6.2-8.1c0-5.2-3.4-7.8-11.8-7.8h-12v0.6l4.3,2.5v23.6l-0.3,0.2h-3.6v2.6H375
			v-2.6h-3.8l-0.3-0.2v-10h3.5l9.3,12.8h7.5v-2.6H387.8L387.8,47.6z M341,48.6c-6.2,0-10.5-4.8-10.5-13.7c0-8,4.3-12.7,10.5-12.7
			c6,0,10.2,5.1,10.2,13.4C351.2,44.3,347,48.6,341,48.6 M340.5,51.2c9.7,0,16.1-6.5,16.1-16.3c0-9.3-6.2-15.2-15.1-15.2
			c-9.1,0-16.4,6.2-16.4,16C325.1,45.6,331.7,51.2,340.5,51.2 M319.5,41.8l-4.3,5.7h-10.2V36h6.9l0.3,0.3v3.4h2.5v-9.9h-2.5v3.4
			l-0.3,0.3h-6.9v-10h10.1l3.4,5.7h0.5v-8.4H296v0.6l4.3,2.5v23.6l-0.3,0.2h-3.5v2.6h22.9l0.5-8.4L319.5,41.8L319.5,41.8z
			 M271.4,50.2h12.3v-2.6h-3.5l-0.3-0.2V23.3h7.6l3.6,6.1h0.5v-8.8h-28.1v8.8h0.5l3.6-6.1h7.6v24.1l-0.3,0.2h-3.6V50.2L271.4,50.2z
			 M259,41.8l-4.3,5.7h-10.2V36h6.8l0.3,0.3v3.4h2.6v-9.9h-2.5v3.4l-0.3,0.3h-6.9v-10h10.1l3.4,5.7h0.5v-8.4h-23.1v0.6l4.3,2.5v23.6
			l-0.3,0.2H236v2.6h22.9l0.5-8.4L259,41.8L259,41.8z M227.6,47.6l-0.3-0.2l-1.6-23.8l4.3-2.4v-0.6h-9.2l-10.5,22.1H210l-10.2-22.1
			h-9.3v0.6l4.3,2.5l-1.6,23.6l-0.3,0.2h-3.5v2.6H200v-2.6h-3.8l-0.3-0.2l1.5-20.9l11,23.7h1.5l11.2-24l1.5,21.2l-0.3,0.2h-3.8v2.6
			h12.6v-2.6L227.6,47.6L227.6,47.6z M167.5,47.6l-0.3-0.2l-1.6-23.8l4.3-2.4v-0.6h-9.2l-10.5,22.1H150l-10.2-22.1h-9.3v0.6l4.3,2.5
			l-1.6,23.6l-0.3,0.2h-3.5v2.6h10.5v-2.6h-3.8l-0.3-0.2l1.5-20.9l11,23.7h1.5l11.2-24l1.5,21.2l-0.3,0.2h-3.8v2.6H171v-2.6
			L167.5,47.6L167.5,47.6z M105.6,38.5l4.6-11.3h0.1l4.5,11.3L105.6,38.5L105.6,38.5z M123.9,47.6l-0.3-0.2l-11.3-27.1h-2L98.9,47.4
			l-0.3,0.2h-2.8v2.6h9.7v-2.6h-3.4l-0.3-0.2l2.6-6.4H116l2.5,6.4l-0.3,0.2h-2.6v2.6h10.9v-2.6L123.9,47.6L123.9,47.6z M92.3,21.2
			v-0.6H78.9v0.6l4.3,2.5v9.3h-16v-9.3l4.3-2.5v-0.6H58.1v0.6l4.3,2.5v23.6l-0.3,0.2h-3.5v2.6h12.3v-2.6h-3.5l-0.3-0.2V35.8h16.1
			v11.6L83,47.6h-3.5v2.6h12.3v-2.6h-3.5L88,47.4V23.8L92.3,21.2z M41.7,51.2c3.5,0,6.9-0.8,10-2.4v-8.4h-0.4l-2.7,5
			c-1.7,2.1-4.3,3.4-7.1,3.3c-6.3,0-10.7-5.1-10.7-13.3c0-8.5,4.5-13,10.4-13c2.6,0,5.1,1.2,6.8,3.2l2.7,4.1h0.4v-8.3
			c-2.9-1.1-6.1-1.7-9.2-1.6c-8.8-0.2-16.1,6.7-16.3,15.4c0,0.3,0,0.5,0,0.8C25.6,45.7,32.9,51.2,41.7,51.2 M1.4,38.5l4.6-11.3h0.1
			l4.6,11.3H1.4z M19.7,47.6l-0.3-0.2L8.2,20.3h-2L-5.2,47.4l-0.3,0.2h-2.8v2.6h9.7v-2.6h-3.4l-0.3-0.2l2.6-6.4h11.4l2.5,6.4
			l-0.3,0.2h-2.6v2.6h10.9v-2.6L19.7,47.6L19.7,47.6z M-36.9,51.2c6,0,10.2-3,10.2-8.6c0-5.1-3.7-7.4-7.4-9.2
			c-3.7-1.8-7.6-3.2-7.6-6.6c-0.1-2.4,1.8-4.5,4.3-4.5c0.2,0,0.3,0,0.5,0c2.5,0,4,1.1,5.5,2.7l2.9,4.5h0.4v-7.9
			c-2.4-1.2-5.1-1.8-7.8-1.8c-6,0-10,3.7-10,8.4c0,5.1,3.8,7.2,7.6,9s7.6,3.2,7.6,6.8c0,3-2.2,4.8-5.9,4.8c-2.6,0-4.3-1.2-6.2-3
			l-2.9-4.8h-0.4v8.1C-43.3,50.4-40.1,51.2-36.9,51.2 M-67.6,48.7c-6.2,0-10.5-4.8-10.5-13.7c0-8,4.3-12.7,10.5-12.7
			c6,0,10.2,5.1,10.2,13.4C-57.4,44.4-61.6,48.7-67.6,48.7 M-68.1,51.2c9.7,0,16.1-6.5,16.1-16.3c0-9.3-6.2-15.2-15.1-15.2
			c-9.1,0-16.4,6.2-16.4,16C-83.5,45.6-76.9,51.2-68.1,51.2 M-101.1,37.3v2.6h4.6l0.3,0.3v7.6c-1.4,0.6-3,0.9-4.5,0.8
			c-7.4,0-11.6-4.9-11.6-13.4c0-7.8,4.1-12.8,10.4-12.8c2.6,0,5.1,1.2,6.7,3.2l2.7,4.1h0.4v-8.3c-2.8-1.1-5.9-1.6-8.9-1.6
			c-10.3,0-16.6,7.7-16.6,15.9c0,10.4,7.4,15.6,16.3,15.6c3.4,0,6.7-0.8,9.7-2.4v-8.6l0.2-0.3h3v-2.6L-101.1,37.3L-101.1,37.3z
			 M-139.6,48.7c-6.2,0-10.5-4.8-10.5-13.7c0-8,4.3-12.7,10.5-12.7c6,0,10.2,5.1,10.2,13.4C-129.3,44.4-133.5,48.7-139.6,48.7
			 M-140.1,51.2c9.7,0,16.1-6.5,16.1-16.3c0-9.3-6.2-15.2-15.1-15.2c-9.1,0-16.4,6.2-16.4,16C-155.4,45.6-148.8,51.2-140.1,51.2
			 M-183.4,50.3h22.8v-8.4h-0.6l-3.4,5.7h-10.3V23.8l4.6-2.5v-0.6h-13.6v0.6l4.3,2.5v23.6l-0.3,0.2h-3.5L-183.4,50.3L-183.4,50.3z
			 M-204.9,48.7c-6.2,0-10.5-4.8-10.5-13.7c0-8,4.3-12.7,10.5-12.7c6,0,10.2,5.1,10.2,13.4C-194.7,44.4-198.9,48.7-204.9,48.7
			 M-205.4,51.2c9.7,0,16.1-6.5,16.1-16.3c0-9.3-6.2-15.2-15.1-15.2c-9.1,0-16.4,6.2-16.4,16C-220.8,45.6-214.2,51.2-205.4,51.2
			 M-209,17.9h2.2l10-11.2V6.2h-6.4L-209,17.9z M-226.3,41.8l-4.3,5.7h-10.2V36h6.9l0.3,0.3v3.4h2.5v-9.9h-2.5v3.4l-0.3,0.3h-6.9
			v-10h10.1l3.4,5.7h0.5v-8.4h-23.1v0.6l4.3,2.5v23.6l-0.3,0.2h-3.5v2.6h22.9l0.5-8.4L-226.3,41.8L-226.3,41.8z M-267.1,37.3v2.6
			h4.6l0.3,0.2v7.6c-1.4,0.6-3,0.9-4.5,0.8c-7.4,0-11.6-4.9-11.6-13.4c0-7.8,4.1-12.8,10.4-12.8c2.6,0,5.1,1.2,6.7,3.2l2.7,4.1h0.4
			v-8.3c-2.9-1.1-5.9-1.7-9-1.6c-10.3,0-16.6,7.7-16.6,15.9c0,10.4,7.4,15.6,16.3,15.6c3.4,0.1,6.8-0.8,9.8-2.4v-8.6l0.2-0.3h3v-2.6
			L-267.1,37.3L-267.1,37.3z"/>
	</g>
	<g>
		<path d="M1109.4,179.3l-0.7-0.7V145c0-10-5.3-15.5-17.3-15.5c-5.2,0-11.4,2.8-19.3,7.8l-1.1-7.6l-0.8-0.4l-16.1,8.2v0.7l8.9,4.2
			v36.1l-0.7,0.7h-8v5.9h27.2v-6h-8.6l-0.7-0.7v-38.8c4.8-1.1,9.8-1.8,14.7-1.9c9.8,0,12.2,4,12.2,15.4v25.2l-0.7,0.7h-8.6v6h27.2
			v-6L1109.4,179.3L1109.4,179.3z M1019.6,185.2h26.6v-6h-8l-0.7-0.7v-48.7l-0.8-0.4l-17.4,8.1v0.7l8.9,4.2v36.1l-0.7,0.7h-8
			L1019.6,185.2L1019.6,185.2z M1032,115.6c4,0,7.2-3.3,7.2-7.3c0-4-3.3-7.2-7.3-7.2c-4,0-7.2,3.3-7.2,7.3
			C1024.8,112.4,1028,115.6,1032,115.6 M977.5,178.7c-11.6,0-16.2-9.7-16.2-22c0-13.4,4.4-21.9,16.1-21.9c7,0,12.6,3.1,15.1,8.2
			v33.7C987.6,178,982.5,178.7,977.5,178.7 M1002.5,179.3l-0.7-0.7V90l-0.8-0.4L983.6,98v0.7l8.9,4.2v29.4
			c-4.3-1.9-9.1-2.9-13.8-2.8c-18.9,0-27.6,15-27.6,30.1c0,13.7,7.7,27,20.8,27c7,0,14.1-3.7,20.6-7.7v6.3h18.6v-6L1002.5,179.3
			L1002.5,179.3z M942,129.5c-4.4,0-11.8,5.2-17.4,9.3l-1.3-9l-0.8-0.4l-16,8.2v0.7l8.9,4.2v36.1l-0.7,0.7h-8v5.9h28.6v-6h-10
			l-0.7-0.7v-37.3c4.6-1.2,9.2-1.8,13.9-1.9c2.3,0,4.5,0.2,6.8,0.7v-9.7C944.4,129.8,943.3,129.4,942,129.5 M867.7,179.6
			c-5.1,0-8.6-2.4-8.6-7.6c0-8.9,10.1-10.8,21.4-11.6v16.9C876.4,178.8,872.1,179.6,867.7,179.6 M890.4,179.2l-0.7-0.7v-31.7
			c0-11.2-7-17.4-17.8-17.4c-8.5,0-14.6,3.2-20.7,9l1.7,3.2c4.6-3.1,9.3-5.1,15.4-5.1c9.7,0,12.1,5.1,12.1,15.5v4.1
			c-17.9,0.8-30.8,5.3-30.8,17.5c0,7.6,5.5,12.7,13.3,12.7c5.8,0,11.3-2.5,17.5-6.8v5.4h17.9v-6L890.4,179.2L890.4,179.2z
			 M815,215.4c14.2-4.2,20.7-8.6,20.7-33.7v-51.8l-0.8-0.4l-17.4,8.1v0.7l8.9,4.2v44.2c0,14.2-1.5,20.6-13.1,25.5L815,215.4z
			 M830.1,115.6c4,0,7.2-3.3,7.2-7.3c0-4-3.3-7.2-7.3-7.2c-4,0-7.2,3.3-7.2,7.3C822.9,112.4,826.1,115.6,830.1,115.6 M772.6,179.3
			l-0.7-0.7v-48.7l-0.8-0.4l-17.4,8.4v0.7l8.9,4.2v33.5c-4.6,1.1-9.3,1.8-14.1,1.9c-9.3,0-11.6-4-11.6-15.4V130l-0.8-0.4l-17.4,8.4
			v0.7l8.9,4.2V171c0,10,5.1,15.5,16.6,15.5c5.1,0,10.8-2.9,18.3-7.7v6.3h17.9v-6L772.6,179.3L772.6,179.3z M678.6,178.7
			c-11.6,0-16.2-9.7-16.2-22c0-13.4,4.4-21.9,16.1-21.9c7,0,12.6,3.1,15.1,8.2v33.7C688.7,178,683.6,178.7,678.6,178.7 M703.6,179.3
			l-0.7-0.7V90l-0.8-0.4l-17.4,8.4v0.7l8.9,4.2v29.4c-4.3-1.9-9.1-2.9-13.8-2.8c-18.9,0-27.6,15-27.6,30.1c0,13.7,7.7,27,20.8,27
			c7,0,14.1-3.7,20.6-7.7v6.4h18.6v-6L703.6,179.3L703.6,179.3z M613.8,129.5c-4.4,0-11.8,5.2-17.4,9.3l-1.3-9l-0.8-0.4l-16.1,8.2
			v0.7l8.9,4.2v36.1l-0.7,0.7h-8v5.9h28.6v-6h-10l-0.7-0.7v-37.3c4.6-1.2,9.2-1.8,13.9-1.9c2.3,0,4.5,0.2,6.8,0.7v-9.7
			C616.2,129.8,615,129.4,613.8,129.5 M561.9,179.2l-0.7-0.7v-48.7l-0.8-0.4l-17.4,8.4v0.7l8.9,4.2v33.5c-4.6,1.1-9.3,1.8-14.1,1.9
			c-9.3,0-11.6-4-11.6-15.4V130l-0.8-0.4l-17.4,8.4v0.7l8.9,4.2V171c0,10,5.1,15.5,16.6,15.5c5.1,0,10.8-2.9,18.3-7.7v6.3h17.9v-6
			L561.9,179.2L561.9,179.2z M478.2,134.7c7.2,0,11.3,5.1,11.6,16.1h-26.3C464.8,138.9,471.9,134.7,478.2,134.7 M500.2,151.1
			c0-15.2-10-21.8-21-21.8c-12.1,0-26.2,10.4-26.2,29.9c0,15.1,9.7,27.4,25.9,27.4c7.7,0,15.5-2.9,20.6-7.7l-1.5-2.8
			c-4.2,2.2-8.9,3.3-13.7,3.3c-12,0-21-6.4-21.1-23.8h36.7C500,154,500.2,152.5,500.2,151.1 M435.9,179.2l-0.7-0.7V89.9l-0.8-0.4
			l-8.8,4.2c-4.3-2.5-9.2-3.8-14.2-3.8c-16.3,0-24,11.3-24,37.3v3.6l-0.7,0.7h-8v6h7.9l0.7,0.8v40.2l-0.7,0.7h-8v5.9h26.6v-6h-8
			l-0.7-0.7v-40.2l0.7-0.8h18v-6h-17.9l-0.7-0.7v-16.1c0-12.2,3.4-18.9,12.2-18.9c5.6,0,10.5,2.9,14.2,6.5l2.8,2.7v73.4l-0.7,0.7h-8
			v5.9h26.6v-6L435.9,179.2L435.9,179.2z M318.9,134.7c7.2,0,11.3,5.1,11.6,16.1h-26.3C305.5,138.8,312.5,134.7,318.9,134.7
			 M340.8,151c0-15.2-10-21.8-21-21.8c-12.1,0-26.2,10.4-26.2,29.9c0,15.1,9.7,27.4,25.9,27.4c7.7,0,15.5-2.9,20.6-7.7l-1.5-2.8
			c-4.2,2.2-8.9,3.3-13.7,3.3c-12,0-21-6.4-21.1-23.8h36.7C340.7,153.9,340.8,152.4,340.8,151 M257.9,185.1h26.5v-6h-8l-0.7-0.7
			v-48.6l-0.8-0.4l-17.4,8.1v0.7l8.9,4.2v36.1l-0.7,0.7h-8L257.9,185.1L257.9,185.1z M270.3,115.6c4,0,7.2-3.3,7.2-7.3
			c0-4-3.3-7.2-7.3-7.2c-4,0-7.2,3.3-7.2,7.3C263.1,112.4,266.3,115.6,270.3,115.6 M222.4,185.1h27.1v-6h-8.6l-0.7-0.7V89.9
			l-0.8-0.4L222,97.8v0.7l8.9,4.2v75.7l-0.7,0.7h-8L222.4,185.1L222.4,185.1z M186.5,181.1c-10.8,0-18.2-11.7-18.2-25.6
			c0-14.3,6.9-20.8,15.7-20.8c10.4,0,18.2,10.9,18.2,25.5C202.2,174.4,195.7,181.1,186.5,181.1 M184.7,186.6
			c17.3,0,27.8-13.9,27.8-29.6c0-17.3-11.4-27.5-26.4-27.5c-17.6,0-28,13.8-28,29.6C158,176.2,169.3,186.6,184.7,186.6 M122,215.4
			c14.2-4.2,20.7-8.6,20.7-33.7v-51.8l-0.8-0.4l-17.4,8.1v0.7l8.9,4.2v44.2c0,14.2-1.5,20.6-13.1,25.5L122,215.4z M137.2,115.6
			c4,0,7.2-3.3,7.2-7.3c0-4-3.3-7.2-7.3-7.2c-4,0-7.2,3.3-7.2,7.3C129.9,112.4,133.2,115.6,137.2,115.6 M68.6,186.6
			c10.1,0,18.3-6,18.3-15.5c0-9.2-7.3-13-14.1-16.7c-6.2-3.3-12.5-6.2-12.5-12.5c0-4.4,3.3-7.4,8.6-7.4c3.3,0,6.4,1.2,8.8,3.4
			l6.9,7.7h0.7V132c-4.5-1.7-9.3-2.6-14.1-2.5c-11.7,0-18.9,6.4-18.9,15.2c0,7.7,4.9,12.4,13,16.7c6.9,3.7,13.3,5.8,13.3,12.5
			c0,4.8-3.7,7.6-9.2,7.6c-4-0.1-7.9-1.8-10.6-4.8l-6.7-7.3h-0.7v13.9C57,185.5,62.8,186.5,68.6,186.6 M33.7,179.2l-0.7-0.7v-48.7
			l-0.8-0.4l-17.4,8.4v0.7l8.9,4.2v33.5c-4.6,1.1-9.3,1.8-14.1,1.9c-9.3,0-11.6-4-11.6-15.4V130l-0.8-0.4l-17.4,8.4v0.7l8.9,4.2V171
			c0,10,5.1,15.5,16.6,15.5c5.1,0,10.8-2.9,18.3-7.7v6.3h17.9v-6L33.7,179.2L33.7,179.2z M-53.8,185.2h27.2v-6h-8.6l-0.7-0.7V89.9
			l-0.8-0.4l-17.4,8.4v0.7l8.9,4.2v75.7l-0.7,0.7h-8L-53.8,185.2L-53.8,185.2z M-90,181.2c-6.9,0-12.4-3.1-14.9-8.2v-33.4
			c4.8-1.5,9.7-2.3,14.7-2.4c11.6,0,16.2,9.7,16.2,22C-73.9,172.7-79.6,181.2-90,181.2 M-84.8,129.4c-7.4,0-13.7,3.6-20.2,7.8
			l-1.2-7.6l-0.8-0.4l-16.1,8.3v0.7l8.9,4.2v66.7l-0.7,0.7h-8v6h28.6v-6h-10l-0.7-0.7v-25.7c4.2,2.2,8.8,3.3,13.5,3.2
			c17.5,0,27.6-15,27.6-30.1c0-13.7-7.8-27-21.1-27 M-190.5,179.7c-5.1,0-8.6-2.4-8.6-7.6c0-8.9,10.1-10.8,21.4-11.6v16.9
			C-181.9,178.9-186.2,179.6-190.5,179.7 M-167.8,179.3l-0.7-0.7v-31.8c0-11.2-7-17.4-17.8-17.4c-8.5,0-14.6,3.2-20.7,9l1.7,3.2
			c4.6-3.1,9.3-5.1,15.4-5.1c9.7,0,12.1,5.1,12.1,15.5v4.1c-17.9,0.8-30.8,5.3-30.8,17.5c0,7.6,5.5,12.7,13.3,12.7
			c5.8,0,11.3-2.5,17.5-6.8v5.4h17.9v-6L-167.8,179.3L-167.8,179.3z M-279.4,185.2h60.2v-21.9h-1.3l-8.3,16h-29.3v-72.4l12-6.7v-1.3
			H-280v1.3l11.3,6.7v71.7l-0.7,0.7h-9.9V185.2z"/>
	</g>
	<g>
		<path d="M1101.1,440.6V346c0-28.1-12.1-42.7-35.5-42.7c-18.7,0-34.7,10.7-52.6,26.1v-27.5l-70.7,24.8l15.7,13.5v100.4h-13.8v4.4
			h79.8v-4.4h-11V333.3c5.5-2.5,11-4.1,16.5-4.1c11.3,0,16.5,7.2,16.5,28.6v82.8h-11v4.4h79.8v-4.4L1101.1,440.6L1101.1,440.6z
			 M855.4,314.3c11.8,0,27.8,20.4,27.8,44.3c0,14-3,25-10.7,35c-16.5-17.1-28.3-40.2-28.3-63C844.1,320.4,848.2,314.4,855.4,314.3
			 M936,420c-2.6,0.6-5.3,0.8-8,0.8c-18.4,0-38.2-10.2-53.9-25.6c33-12.4,50.6-32.5,50.6-55.3c0-20.1-17.9-35.3-43.8-35.3
			c-44,0-71,33.3-71,73.5c0,42.7,31.9,69.6,70.7,69.6c25.6,0,44-9.9,55.6-27.5L936,420z M712.9,445h82.6v-4.4h-13.8V301.9
			l-70.7,24.8l15.7,13.5v100.4h-13.8V445z M754.1,297.3c19.5,0,30.5-12.4,30.5-30.8c0-18.2-11-30.5-30.5-30.5
			c-19.5,0-30.5,12.4-30.5,30.5C723.6,284.9,734.6,297.3,754.1,297.3 M688.9,440.6V346c0-28.1-12.1-42.7-35.5-42.7
			c-18.7,0-34.7,10.7-52.6,26.1v-90.8l-70.7,24.8l15.7,13.5v163.7h-13.7v4.4h79.8v-4.4h-11V333.3c5.5-2.5,11-4.1,16.5-4.1
			c11.3,0,16.5,7.2,16.5,28.6v82.8h-11v4.4h79.8v-4.4L688.9,440.6L688.9,440.6z M464.1,447.8c24.5,0,44.6-8.6,57-27.2l-0.3-0.3
			c-2.7,0.8-5.5,1.2-8.3,1.1c-38.8,0-82.3-46.8-82.3-91.1c0-9.9,4.1-14.9,11-14.9c16.5,0,40.4,26.4,66,74.8h0.3l10.7-76.8
			c-17.9-6.6-31.6-8.8-47.3-8.8c-46.8,0-75.7,33.8-76,74.3C394.8,421.4,426.7,447.8,464.1,447.8 M297.9,445h82.6v-4.4h-13.8V301.9
			L296,326.7l15.7,13.5v100.4h-13.7V445z M339.2,297.3c19.5,0,30.5-12.4,30.5-30.8c0-18.2-11-30.5-30.5-30.5
			c-19.5,0-30.5,12.4-30.5,30.5C308.6,284.9,319.6,297.3,339.2,297.3 M280.3,304.4c-12.7,0-30.5,12.9-46.2,33.6v-34.4l-70.7,23.7
			l15.7,13.5v99.9h-13.8v4.4h89.4v-4.4h-20.6V341c9.6-1.6,22.6,5.5,51.2,37.2h0.3v-72.9C283.8,304.7,282.1,304.4,280.3,304.4
			 M161.2,419.4c-5.1,2.1-10.6,3.1-16.2,3c-20.4,0-27.8-11.8-27.8-43.8v-64.1h38.7v-4.4h-38.8v-55.9l-76.2,60v0.3h21.2v78.1
			c0,35.8,12.9,55,45.7,55c25.3,0,43.5-11.8,53.7-28.1L161.2,419.4z M23.5,440.6V302.2L-47.2,327l15.7,13.5v79
			c-4.5,1.7-9.2,2.6-14,2.8c-13.8,0-15.7-9.1-15.7-32.2v-86.4l-70.7,24.8l15.7,13.5V401c0,32.7,10.7,47.1,35.5,47.1
			c15.4,0,31.1-11,49.3-24.2V445h68.8v-4.4H23.5z M-213.4,426.3c-11,0-16.5-6.9-16.5-19.8c0-14.6,6.3-25,22.9-29.7v48.7
			C-209.1,426-211.2,426.3-213.4,426.3 M-152,440.6v-76.2c0-39.9-18.4-59.7-53.1-59.7c-27.6,0-47.9,11.3-66.6,32.2l1.4,1.4
			c9.4-7.2,17.9-10.5,30.3-10.5c20.9,0,33,15.1,33,45.4c-45.7,5-72.6,21.7-72.6,47.1c0,17.3,12.1,27.5,30,27.5
			c15.1,0,29.7-7.4,42.7-18.4V445h68.8v-4.4L-152,440.6L-152,440.6z"/>
	</g>
	<g>
		<path d="M1122.2,638.3c-3.2,1.3-6.6,1.9-10.1,1.9c-5.9,0-9.7-2.1-9.7-9c0-2.3,0.3-4.7,0.8-6.9l8-37.3c3.6-16.4-4.4-24.8-15.9-24.8
			c-10.9,0-19.7,7.6-30,19.7c0.8-14.1-7.1-19.7-16.4-19.7c-10.3,0-19.5,7.3-30,19.5l0.8-4.6l1.9-14.5l-1-0.6l-29,13l-0.4,1.9
			l12.8,6.1l-11.7,67.4h14.7l11.1-63c8.4-8,15.9-13.2,22.7-13.2s10.5,3.6,8.2,17.2l-10.3,59h14.7l11.3-63.4v-0.2
			c8.6-7.6,15.3-12.6,22.7-12.6c8,0,10.9,5.7,8.4,17.2l-7.1,33.8c-1,4.3-1.5,8.6-1.7,13c0,10.1,4.4,14.3,12.4,14.3
			c8.2,0,17.8-5.9,23.9-11.3L1122.2,638.3z M978.5,638.3c-3.2,1.3-6.6,1.9-10.1,1.9c-6.5,0-9.2-2.5-9.2-9c0-2.7,0.3-5.5,0.8-8.2
			l10.9-60.5l-1-0.6l-29.5,13l-0.2,1.9l12.6,6.1l-7.3,42.2l-0.4,2.9c-8.4,7.3-17,12.4-24.1,12.4c-7.6,0-8.4-6.5-6.5-17.2l10.1-58.5
			l-1-0.6l-29.5,13l-0.2,1.9l12.6,6.1l-7.3,42.6c-2.9,16.6,2.7,24.8,14.1,24.8c10.5,0,21-7.6,31.4-19.5c-0.2,2.1-0.4,3.8-0.4,5.5
			c0,10.1,3.8,14.1,11.7,14.1c8.4,0,18-5.9,23.9-11.3L978.5,638.3z M880.9,638.3c-3.2,1.3-6.6,1.9-10.1,1.9c-5.9,0-9.7-2.1-9.7-9
			c0-2.3,0.3-4.7,0.8-6.9l8-37.3c3.6-16.4-3.6-24.8-15.1-24.8c-10.9,0-22,7.6-32.5,19.5l14.5-81.8l-1-0.6l-29.4,13l-0.4,1.9
			l12.6,6.1l-22.9,130.1h14.5l11.3-63.6c8.6-7.6,17.6-12.6,25.4-12.6c8.8,0,9.9,6.5,7.5,17.2l-7.1,33.8c-1,4.3-1.5,8.6-1.7,13
			c0,10.1,4.4,14.3,12.4,14.3c8.2,0,17.8-5.9,23.9-11.3L880.9,638.3z M712.2,581.5l10.3-58.1h5.7c21.6,0,35.3,6.1,35.3,22.4
			c0,16.2-13,35.9-45.5,35.9C716,581.7,714.1,581.6,712.2,581.5 M767.8,640.8l-1.5-1L742.9,588c26.7-6.9,39.2-24.1,39.2-42.4
			c0-19.9-16.4-31.7-48.5-31.7h-45.4l-0.4,2.5l17.4,10.1l-19.9,113.3l-1.3,1h-14.7l-1.7,9.4H722l1.7-9.4h-21l-0.8-1l8.6-48.7h14.3
			l28.1,59.2h29l1.7-9.4L767.8,640.8L767.8,640.8z M511.2,612.7c0-14.9,7.4-28.9,19.7-37.3c5.9,21.6,18.5,44.9,33.2,60.4
			c-8,5.7-16.6,8.8-24.8,8.8C524,644.6,511.2,634.7,511.2,612.7 M556.7,518.1c6.3,0.2,11.1,5.2,11.1,13.6c0,10.7-8,22.9-23.5,31.4
			c-1.8-6.9-2.8-14-2.9-21.2C541.4,526.9,548.1,517.8,556.7,518.1 M620.9,578.5v-0.6h-37.2l-0.2,1l12,10.1
			c-4.2,13.6-10.7,25.6-18.7,34.8c-13.2-14.3-25-35.5-31.1-55.4c19.7-8.4,32.9-20.6,34.6-34.8c1.3-10.3-5.3-22.7-22-22.9
			c-13.2-0.2-31.1,10.9-31.1,40.3c0.1,6.2,0.8,12.4,2.1,18.5c-20.6,7.8-34.6,26.2-34.6,47c0,22.2,15.3,36.9,41.9,36.9
			c12.4,0,23.7-4.4,33.6-11.7c8.4,7.3,17.4,11.7,26,11.7c10.3,0,17.6-5.9,22.7-11.3l-1-2.7c-3.7,1.2-7.6,1.8-11.5,1.7
			c-7.8,0-15.7-4.2-23.7-11.1c9.4-10.9,16.8-24.8,21.8-39.9L620.9,578.5z M421.6,569.7c5,0,7.6,3.6,7.6,9c0,11.5-8.2,21.4-31.4,27.7
			C400.6,583.5,412.2,569.7,421.6,569.7 M413.6,640.7c-10.9,0-16.6-6.3-16.6-22.9V614c36.7-9.9,47.4-22.4,47.4-35.3
			c0-9.9-7.3-16.6-18.9-16.6c-26,0-44.9,28.7-44.9,60.2c0,20.1,9.4,30,24.3,30c11.1,0,23.1-5.7,33.8-15.3l-1-2.7
			C430.8,637.7,421,640.7,413.6,640.7 M350.7,565.5l-0.2,1l11.1,11.3c-3.1,18-14.1,43-31.9,64.6l-10.1-78.9l-1-0.6l-25,13l-0.4,1.9
			L306,584l11.7,72.6L276,687.7l15.1,13.2l34.6-45.2c26.4-26.7,40.5-51.8,52.9-89.6v-0.6L350.7,565.5L350.7,565.5z M233,640.4
			c-7.8,0-12-5.7-12-19.9c0-27.7,13.9-50.8,29.4-50.8c4.8,0,9.7,2.3,13.6,6.9l-8.4,48.5l-0.6,4.8C247.2,636.4,239.5,640.4,233,640.4
			 M288.8,638.3c-3.2,1.3-6.6,1.9-10.1,1.9c-6.7,0-9.2-2.5-9.2-9c0-2.7,0.3-5.5,0.8-8.2l10.7-60.8h-1l-11.3,4.2
			c-5.1-2.8-10.9-4.3-16.8-4.2c-26.4,0-47.2,29-47.2,60.8c0,19.3,7.8,29.4,19.7,29.4c9.7,0,21-7.3,30.2-17.8
			c-0.2,1.3-0.2,2.5-0.2,3.8c0,10.1,3.6,14.1,11.5,14.1c8.2,0,17.8-5.9,23.9-11.3L288.8,638.3z M148,644.8c-5.5,0-10.9-2.9-15.5-9
			l8.8-49.3c8.2-7.6,16.8-12.4,23.1-12.4c8.4,0,13,5.7,13,19.9C177.4,621.7,163.5,644.8,148,644.8 M172.3,562.1
			c-11.1,0-21.4,8-30.8,19.7l3.2-19.3l-1-0.6l-29,13l-0.4,1.9l12.8,6.1L108.6,688l-1,1H94.9l-1.7,9.4h45.1l1.7-9.4h-15.7l-1-1
			l7.1-39.4c5,2.5,10.6,3.8,16.2,3.8c26.4,0,47.2-29,47.2-60.8C193.8,572.7,185.8,562.2,172.3,562.1 M46.5,640.4
			c-7.8,0-12-5.7-12-19.9c0-27.7,13.8-50.8,29.4-50.8c4.8,0,9.7,2.3,13.6,6.9l-8.4,48.5l-0.7,4.9C60.7,636.4,52.9,640.4,46.5,640.4
			 M102.2,638.3c-3.2,1.3-6.6,1.9-10.1,1.9c-6.7,0-9.2-2.5-9.2-9c0-2.7,0.3-5.5,0.8-8.2l10.7-60.8h-1l-11.3,4.2
			c-5.1-2.8-10.9-4.3-16.8-4.2c-26.4,0-47.2,29-47.2,60.8c0,19.3,7.8,29.4,19.7,29.4c9.7,0,21-7.3,30.2-17.8
			c-0.2,1.3-0.2,2.5-0.2,3.8c0,10.1,3.6,14.1,11.5,14.1c8.2,0,17.8-5.9,23.9-11.3L102.2,638.3z M-28.7,523.3
			c21.2,0,34.4,7.6,34.4,26.7c0,21.2-14.5,38-46.8,38c-2.2,0-4.5,0-6.7-0.2l11.3-64.5H-28.7L-28.7,523.3z M-43.1,597.4
			c41.5,0,67.6-17.8,67.6-48.7c0-19.7-15.3-34.8-47.6-34.8h-47.4l-0.4,2.5l17.4,10.1l-20.1,113.3l-1.3,1h-14.7l-1.7,9.4h54.6
			l1.7-9.4h-21l-0.8-1l7.6-42.4L-43.1,597.4L-43.1,597.4z M-146.8,638.9l-1,0.6h-35.9l14.3-12.2c21-17.8,32.7-31.4,32.5-46.2
			c0-11.3-9.7-20.6-25.8-20.6c-8.3,0-16.4,2-23.7,5.9l-3.8,21.8h1.7l6.9-8.6c6.3-7.6,11.5-12.8,18.3-12.8s10.9,4.8,11.1,13.8
			c0.2,14.1-9.7,29.2-31.9,49.9l-16.2,15.3l-0.6,4.2h60l3.4-19.5h-7.8L-146.8,638.9z M-262,657.6h12l91.5-150.4h-11.9L-262,657.6z
			 M-276.7,599.3h43.2l1.5-7.6h-14.3l-0.6-0.6l14.1-79.3h-28.5l-1.5,7.3h14.3l0.6,0.8l-12.6,71.1l-0.8,0.6h-14.1L-276.7,599.3z"/>
	</g>
	<g>
		<path d="M1067.8,760.3c1.4-0.7,2.9-1,7.4-1h6.3c4.6,0,5.8-1.1,7.5-4.8l1.3-2.9c1.3-2.9,3.3-4.2,6.2-4.2h2.6l-1.4,1.9
			c-2.6,3.4-4.6,6.3-3.3,10.2l0,0c1.1-0.5,5.4-0.3,6.8-0.7c4.5-1.5,2.1-11.7,8.8-11.7v-0.4c-6.7,0-4.3-10.2-8.8-11.7
			c-1.4-0.5-5.7-0.2-6.8-0.7l0,0c-1.2,3.9,0.8,6.8,3.3,10.2l1.4,1.9h-2.5c-2.9,0-4.9-1.3-6.2-4.2l-1.3-2.9c-1.8-3.8-3-4.8-7.5-4.8
			h-6.3c-4.5,0-6-0.4-7.4-1l0,0c-0.8,6,0.1,10.3,3.8,13.3v0C1067.9,750,1067,754.2,1067.8,760.3L1067.8,760.3z M1009.6,760.3
			c1.4-0.7,2.9-1,7.4-1h6.2c4.6,0,5.8-1.1,7.5-4.8l1.3-2.9c1.3-2.9,3.3-4.2,6.2-4.2h2.6l-1.4,1.9c-2.6,3.4-4.6,6.3-3.3,10.2l0,0
			c1.1-0.5,5.4-0.3,6.8-0.7c4.5-1.5,2.1-11.7,8.8-11.7v-0.4c-6.7,0-4.3-10.2-8.9-11.7c-1.4-0.5-5.7-0.2-6.8-0.7l0,0
			c-1.2,3.9,0.8,6.8,3.3,10.2l1.4,1.9h-2.5c-2.9,0-4.9-1.3-6.2-4.2l-1.3-2.9c-1.8-3.8-3-4.8-7.5-4.8h-6.3c-4.5,0-6-0.4-7.4-1l0,0
			c-0.8,6,0.1,10.3,3.8,13.3v0C1009.6,750,1008.7,754.2,1009.6,760.3L1009.6,760.3z M951.3,760.3c1.4-0.7,2.9-1,7.4-1h6.3
			c4.6,0,5.8-1.1,7.5-4.8l1.3-2.9c1.3-2.9,3.3-4.2,6.2-4.2h2.6l-1.4,1.9c-2.6,3.4-4.6,6.3-3.3,10.2l0.1,0c1.1-0.5,5.3-0.3,6.8-0.7
			c4.5-1.5,2.1-11.7,8.8-11.7v-0.4c-6.7,0-4.3-10.2-8.9-11.7c-1.4-0.5-5.7-0.2-6.8-0.7l0,0c-1.2,3.9,0.8,6.8,3.3,10.2l1.4,1.9H980
			c-2.9,0-4.9-1.3-6.2-4.2l-1.3-2.9c-1.8-3.8-3-4.8-7.5-4.8h-6.3c-4.5,0-6-0.4-7.4-1l0,0c-0.8,6,0.1,10.3,3.8,13.3v0
			C951.4,750,950.5,754.2,951.3,760.3L951.3,760.3z M893.1,760.3c1.4-0.7,2.9-1,7.4-1h6.3c4.6,0,5.8-1.1,7.5-4.8l1.3-2.9
			c1.3-2.9,3.3-4.2,6.2-4.2h2.6l-1.4,1.9c-2.6,3.4-4.6,6.3-3.3,10.2l0,0c1.1-0.5,5.3-0.3,6.8-0.7c4.5-1.5,2.1-11.7,8.8-11.7v-0.4
			c-6.7,0-4.3-10.2-8.9-11.7c-1.4-0.5-5.7-0.2-6.8-0.7l-0.1,0c-1.2,3.9,0.8,6.8,3.3,10.2l1.4,1.9h-2.5c-2.9,0-4.9-1.3-6.2-4.2
			l-1.3-2.9c-1.8-3.8-3-4.8-7.5-4.8h-6.3c-4.5,0-6-0.4-7.4-1l0,0c-0.8,6,0.1,10.3,3.8,13.3v0C893.2,750,892.3,754.2,893.1,760.3
			L893.1,760.3z M834.9,760.3c1.4-0.7,2.9-1,7.4-1h6.3c4.6,0,5.8-1.1,7.5-4.8l1.3-2.9c1.3-2.9,3.3-4.2,6.2-4.2h2.6l-1.4,1.9
			c-2.6,3.4-4.6,6.3-3.3,10.2l0,0c1.1-0.5,5.3-0.3,6.8-0.7c4.5-1.5,2.1-11.7,8.8-11.7v-0.4c-6.7,0-4.3-10.2-8.9-11.7
			c-1.4-0.5-5.7-0.2-6.8-0.7l-0.1,0c-1.2,3.9,0.8,6.8,3.3,10.2l1.4,1.9h-2.5c-2.9,0-4.9-1.3-6.2-4.2l-1.3-2.9
			c-1.8-3.8-3-4.8-7.5-4.8h-6.3c-4.5,0-6-0.4-7.4-1l0,0c-0.8,6,0.1,10.3,3.8,13.3v0C834.9,750,834.1,754.2,834.9,760.3L834.9,760.3z
			 M776.6,760.3c1.4-0.7,2.9-1,7.4-1h6.3c4.6,0,5.8-1.1,7.5-4.8l1.3-2.9c1.3-2.9,3.3-4.2,6.2-4.2h2.6l-1.4,1.9
			c-2.6,3.4-4.6,6.3-3.3,10.2l0,0c1.1-0.5,5.3-0.3,6.8-0.7c4.5-1.5,2.1-11.7,8.8-11.7v-0.4c-6.7,0-4.3-10.2-8.9-11.7
			c-1.4-0.5-5.7-0.2-6.8-0.7l0,0c-1.2,3.9,0.8,6.8,3.3,10.2l1.4,1.9h-2.5c-2.9,0-4.9-1.3-6.2-4.2l-1.3-2.9c-1.8-3.8-3-4.8-7.5-4.8
			H784c-4.5,0-6-0.4-7.4-1l0,0c-0.8,6,0.1,10.3,3.8,13.3v0C776.7,750,775.8,754.2,776.6,760.3L776.6,760.3z M718.4,760.3
			c1.4-0.7,2.9-1,7.4-1h6.3c4.6,0,5.8-1.1,7.5-4.8l1.3-2.9c1.3-2.9,3.3-4.2,6.2-4.2h2.6l-1.4,1.9c-2.6,3.4-4.6,6.3-3.3,10.2l0,0
			c1.1-0.5,5.3-0.3,6.8-0.7c4.5-1.5,2.1-11.7,8.8-11.7v-0.4c-6.7,0-4.3-10.2-8.9-11.7c-1.4-0.5-5.7-0.2-6.8-0.7l0,0
			c-1.2,3.9,0.8,6.8,3.3,10.2l1.4,1.9h-2.5c-2.9,0-4.9-1.3-6.2-4.2l-1.3-2.9c-1.8-3.8-3-4.8-7.5-4.8h-6.3c-4.5,0-6-0.4-7.4-1l0,0
			c-0.8,6,0.1,10.3,3.8,13.3v0C718.5,750,717.6,754.2,718.4,760.3L718.4,760.3z M660.2,760.3c1.4-0.7,2.9-1,7.4-1h6.3
			c4.6,0,5.8-1.1,7.5-4.8l1.3-2.9c1.3-2.9,3.3-4.2,6.2-4.2h2.6l-1.4,1.9c-2.6,3.4-4.6,6.3-3.3,10.2l0,0c1.1-0.5,5.4-0.3,6.8-0.7
			c4.5-1.5,2.1-11.7,8.8-11.7v-0.4c-6.7,0-4.3-10.2-8.8-11.7c-1.4-0.5-5.7-0.2-6.8-0.7l0,0c-1.2,3.9,0.8,6.8,3.3,10.2l1.4,1.9h-2.5
			c-2.9,0-4.9-1.3-6.2-4.2l-1.3-2.9c-1.8-3.8-3-4.8-7.5-4.8h-6.3c-4.5,0-6-0.4-7.4-1l0,0c-0.8,6,0.1,10.3,3.8,13.3v0
			C660.2,750,659.4,754.2,660.2,760.3L660.2,760.3z M602,760.3c1.4-0.7,2.9-1,7.4-1h6.3c4.6,0,5.8-1.1,7.5-4.8l1.3-2.9
			c1.3-2.9,3.3-4.2,6.2-4.2h2.6l-1.4,1.9c-2.6,3.4-4.6,6.3-3.3,10.2l0,0c1.1-0.5,5.4-0.3,6.8-0.7c4.5-1.5,2.1-11.7,8.8-11.7v-0.4
			c-6.7,0-4.3-10.2-8.8-11.7c-1.4-0.5-5.7-0.2-6.8-0.7l0,0c-1.2,3.9,0.8,6.8,3.3,10.2l1.4,1.9h-2.5c-2.9,0-4.9-1.3-6.2-4.2l-1.3-2.9
			c-1.8-3.8-3-4.8-7.5-4.8h-6.3c-4.5,0-6-0.4-7.4-1l0,0c-0.8,6,0.1,10.3,3.8,13.3v0C602,750,601.2,754.2,602,760.3L602,760.3z
			 M543.7,760.3c1.4-0.7,2.9-1,7.4-1h6.3c4.6,0,5.8-1.1,7.5-4.8l1.3-2.9c1.3-2.9,3.3-4.2,6.2-4.2h2.6l-1.4,1.9
			c-2.6,3.4-4.6,6.3-3.3,10.2l0,0c1.1-0.5,5.4-0.3,6.8-0.7c4.5-1.5,2.1-11.7,8.8-11.7v-0.4c-6.7,0-4.3-10.2-8.8-11.7
			c-1.4-0.5-5.7-0.2-6.8-0.7l0,0c-1.2,3.9,0.8,6.8,3.3,10.2l1.4,1.9h-2.5c-2.9,0-4.9-1.3-6.2-4.2l-1.3-2.9c-1.8-3.8-3-4.8-7.5-4.8
			h-6.3c-4.5,0-6-0.4-7.4-1l-0.1,0c-0.8,6,0.1,10.3,3.8,13.3v0C543.8,750,542.9,754.2,543.7,760.3L543.7,760.3z M485.5,760.3
			c1.4-0.7,2.9-1,7.4-1h6.2c4.6,0,5.8-1.1,7.5-4.8l1.3-2.9c1.3-2.9,3.3-4.2,6.2-4.2h2.6l-1.4,1.9c-2.6,3.4-4.6,6.3-3.3,10.2l0,0
			c1.1-0.5,5.4-0.3,6.8-0.7c4.5-1.5,2.1-11.7,8.8-11.7v-0.4c-6.7,0-4.3-10.2-8.8-11.7c-1.4-0.5-5.7-0.2-6.8-0.7l0,0
			c-1.2,3.9,0.8,6.8,3.3,10.2l1.4,1.9h-2.5c-2.9,0-4.9-1.3-6.2-4.2l-1.3-2.9c-1.8-3.8-3-4.8-7.5-4.8h-6.3c-4.5,0-6-0.4-7.4-1l0,0
			c-0.8,6,0.1,10.3,3.8,13.3v0C485.5,750,484.6,754.2,485.5,760.3L485.5,760.3z M427.3,760.3c1.4-0.7,2.9-1,7.4-1h6.3
			c4.6,0,5.8-1.1,7.5-4.8l1.3-2.9c1.3-2.9,3.3-4.2,6.2-4.2h2.6l-1.4,1.9c-2.6,3.4-4.6,6.3-3.3,10.2l0,0c1.1-0.5,5.4-0.3,6.8-0.7
			c4.5-1.5,2.1-11.7,8.8-11.7v-0.4c-6.7,0-4.3-10.2-8.9-11.7c-1.4-0.5-5.7-0.2-6.8-0.7l0,0c-1.2,3.9,0.8,6.8,3.3,10.2l1.4,1.9h-2.5
			c-2.9,0-4.9-1.3-6.2-4.2l-1.3-2.9c-1.8-3.8-3-4.8-7.5-4.8h-6.3c-4.5,0-6-0.4-7.4-1l0,0c-0.8,6,0.1,10.3,3.8,13.3v0
			C427.3,750,426.4,754.2,427.3,760.3L427.3,760.3z M369,760.3c1.4-0.7,2.9-1,7.4-1h6.3c4.6,0,5.8-1.1,7.5-4.8l1.3-2.9
			c1.3-2.9,3.3-4.2,6.2-4.2h2.6l-1.4,1.9c-2.6,3.4-4.6,6.3-3.3,10.2l0.1,0c1.1-0.5,5.3-0.3,6.8-0.7c4.5-1.5,2.1-11.7,8.8-11.7v-0.4
			c-6.7,0-4.3-10.2-8.9-11.7c-1.4-0.5-5.7-0.2-6.8-0.7l0,0c-1.2,3.9,0.8,6.8,3.3,10.2l1.4,1.9h-2.5c-2.9,0-4.9-1.3-6.2-4.2l-1.3-2.9
			c-1.8-3.8-3-4.8-7.5-4.8h-6.3c-4.5,0-6-0.4-7.4-1l0,0c-0.8,6,0.1,10.3,3.8,13.3v0C369.1,750,368.2,754.2,369,760.3L369,760.3z
			 M310.8,760.3c1.4-0.7,2.9-1,7.4-1h6.3c4.6,0,5.8-1.1,7.5-4.8l1.3-2.9c1.3-2.9,3.3-4.2,6.2-4.2h2.6l-1.4,1.9
			c-2.6,3.4-4.6,6.3-3.3,10.2l0,0c1.1-0.5,5.3-0.3,6.8-0.7c4.5-1.5,2.1-11.7,8.8-11.7v-0.4c-6.7,0-4.3-10.2-8.9-11.7
			c-1.4-0.5-5.7-0.2-6.8-0.7l-0.1,0c-1.2,3.9,0.8,6.8,3.3,10.2l1.4,1.9h-2.5c-2.9,0-4.9-1.3-6.2-4.2l-1.3-2.9
			c-1.8-3.8-3-4.8-7.5-4.8h-6.3c-4.5,0-6-0.4-7.4-1l0,0c-0.8,6,0.1,10.3,3.8,13.3v0C310.8,750,310,754.2,310.8,760.3L310.8,760.3z
			 M252.6,760.3c1.4-0.7,2.9-1,7.4-1h6.3c4.6,0,5.8-1.1,7.5-4.8l1.3-2.9c1.3-2.9,3.3-4.2,6.2-4.2h2.5l-1.4,1.9
			c-2.6,3.4-4.6,6.3-3.3,10.2l0,0c1.1-0.5,5.3-0.3,6.8-0.7c4.5-1.5,2.1-11.7,8.8-11.7v-0.4c-6.7,0-4.3-10.2-8.9-11.7
			c-1.4-0.5-5.7-0.2-6.8-0.7l-0.1,0c-1.2,3.9,0.8,6.8,3.3,10.2l1.4,1.9h-2.5c-2.9,0-4.9-1.3-6.2-4.2l-1.3-2.9
			c-1.8-3.8-3-4.8-7.5-4.8H260c-4.5,0-6-0.4-7.4-1l0,0c-0.8,6,0.1,10.3,3.8,13.3v0C252.6,750,251.7,754.2,252.6,760.3L252.6,760.3z
			 M194.4,760.3c1.4-0.7,2.9-1,7.4-1h6.3c4.6,0,5.8-1.1,7.5-4.8l1.3-2.9c1.3-2.9,3.3-4.2,6.2-4.2h2.6l-1.4,1.9
			c-2.6,3.4-4.6,6.3-3.3,10.2l0,0c1.1-0.5,5.3-0.3,6.8-0.7c4.5-1.5,2.1-11.7,8.8-11.7v-0.4c-6.7,0-4.3-10.2-8.9-11.7
			c-1.4-0.5-5.7-0.2-6.8-0.7l0,0c-1.2,3.9,0.8,6.8,3.3,10.2l1.4,1.9H223c-2.9,0-4.9-1.3-6.2-4.2l-1.3-2.9c-1.8-3.8-3-4.8-7.5-4.8
			h-6.3c-4.5,0-6-0.4-7.4-1l0,0c-0.8,6,0.1,10.3,3.8,13.3v0C194.4,750,193.6,754.2,194.4,760.3L194.4,760.3z M136.1,760.3
			c1.4-0.7,2.9-1,7.4-1h6.3c4.6,0,5.8-1.1,7.5-4.8l1.3-2.9c1.3-2.9,3.3-4.2,6.2-4.2h2.6l-1.4,1.9c-2.6,3.4-4.6,6.3-3.3,10.2l0,0
			c1.1-0.5,5.3-0.3,6.8-0.7c4.5-1.5,2.1-11.7,8.8-11.7v-0.4c-6.7,0-4.3-10.2-8.9-11.7c-1.4-0.5-5.7-0.2-6.8-0.7l0,0
			c-1.2,3.9,0.8,6.8,3.3,10.2l1.4,1.9h-2.5c-2.9,0-4.9-1.3-6.2-4.2l-1.3-2.9c-1.8-3.8-3-4.8-7.5-4.8h-6.3c-4.5,0-6-0.4-7.4-1l0,0
			c-0.8,6,0.1,10.3,3.8,13.3v0C136.2,750,135.3,754.2,136.1,760.3L136.1,760.3z M77.9,760.3c1.4-0.7,2.9-1,7.4-1h6.3
			c4.6,0,5.8-1.1,7.5-4.8l1.3-2.9c1.3-2.9,3.3-4.2,6.2-4.2h2.6l-1.4,1.9c-2.6,3.4-4.6,6.3-3.3,10.2l0,0c1.1-0.5,5.4-0.3,6.8-0.7
			c4.5-1.5,2.1-11.7,8.8-11.7v-0.4c-6.7,0-4.3-10.2-8.8-11.7c-1.4-0.5-5.7-0.2-6.8-0.7l0,0c-1.2,3.9,0.8,6.8,3.3,10.2l1.4,1.9h-2.5
			c-2.9,0-4.9-1.3-6.2-4.2l-1.3-2.9c-1.8-3.8-3-4.8-7.5-4.8h-6.3c-4.5,0-6-0.4-7.4-1l0,0c-0.8,6,0.1,10.3,3.8,13.3v0
			C77.9,750,77.1,754.2,77.9,760.3L77.9,760.3z M19.7,760.3c1.4-0.7,2.9-1,7.4-1h6.3c4.6,0,5.8-1.1,7.5-4.8l1.3-2.9
			c1.3-2.9,3.3-4.2,6.2-4.2h2.6l-1.4,1.9c-2.6,3.4-4.6,6.3-3.3,10.2l0,0c1.1-0.5,5.4-0.3,6.8-0.7c4.5-1.5,2.1-11.7,8.8-11.7v-0.4
			c-6.7,0-4.3-10.2-8.8-11.7c-1.4-0.5-5.7-0.2-6.8-0.7l0,0c-1.2,3.9,0.8,6.8,3.3,10.2l1.4,1.9h-2.5c-2.9,0-4.9-1.3-6.2-4.2l-1.3-2.9
			c-1.8-3.8-3-4.8-7.5-4.8h-6.3c-4.5,0-6-0.4-7.4-1l0,0c-0.8,6,0.1,10.3,3.8,13.3v0C19.7,750,18.9,754.2,19.7,760.3L19.7,760.3z
			 M-38.6,760.3c1.4-0.7,2.9-1,7.4-1h6.2c4.6,0,5.8-1.1,7.5-4.8l1.3-2.9c1.3-2.9,3.3-4.2,6.2-4.2h2.6l-1.4,1.9
			c-2.6,3.4-4.6,6.3-3.3,10.2l0,0c1.1-0.5,5.4-0.3,6.8-0.7c4.5-1.5,2.1-11.7,8.8-11.7v-0.4c-6.7,0-4.3-10.2-8.8-11.7
			c-1.4-0.5-5.7-0.2-6.8-0.7l0,0c-1.2,3.9,0.8,6.8,3.3,10.2l1.4,1.9H-10c-2.9,0-4.9-1.3-6.2-4.2l-1.3-2.9c-1.8-3.8-3-4.8-7.5-4.8
			h-6.3c-4.5,0-6-0.4-7.4-1l-0.1,0c-0.8,6,0.1,10.3,3.8,13.3v0c-3.7,3-4.6,7.3-3.8,13.3L-38.6,760.3z M-96.8,760.3
			c1.4-0.7,2.9-1,7.4-1h6.3c4.6,0,5.8-1.1,7.5-4.8l1.3-2.9c1.3-2.9,3.3-4.2,6.2-4.2h2.6l-1.4,1.9c-2.6,3.4-4.6,6.3-3.3,10.2l0,0
			c1.1-0.5,5.4-0.3,6.8-0.7c4.5-1.5,2.1-11.7,8.8-11.7v-0.4c-6.7,0-4.3-10.2-8.8-11.7c-1.4-0.5-5.7-0.2-6.8-0.7l0,0
			c-1.2,3.9,0.8,6.8,3.3,10.2l1.4,1.9h-2.5c-2.9,0-4.9-1.3-6.2-4.2l-1.3-2.9c-1.8-3.8-3-4.8-7.5-4.8h-6.3c-4.5,0-6-0.4-7.4-1l0,0
			c-0.8,6,0.1,10.3,3.8,13.3v0C-96.7,750-97.6,754.2-96.8,760.3L-96.8,760.3z M-155,760.3c1.4-0.7,2.9-1,7.4-1h6.3
			c4.6,0,5.8-1.1,7.5-4.8l1.3-2.9c1.3-2.9,3.3-4.2,6.2-4.2h2.6l-1.4,1.9c-2.6,3.4-4.6,6.3-3.3,10.2l0,0c1.1-0.5,5.4-0.3,6.8-0.7
			c4.5-1.5,2.1-11.7,8.8-11.7v-0.4c-6.7,0-4.3-10.2-8.9-11.7c-1.4-0.5-5.7-0.2-6.8-0.7l0,0c-1.2,3.9,0.8,6.8,3.3,10.2l1.4,1.9h-2.6
			c-2.9,0-4.9-1.3-6.2-4.2l-1.3-2.9c-1.8-3.8-3-4.8-7.5-4.8h-6.3c-4.5,0-6-0.4-7.4-1l0,0c-0.8,6,0.1,10.3,3.8,13.3v0
			C-155,750-155.9,754.2-155,760.3L-155,760.3z M-213.3,760.3c1.4-0.7,2.9-1,7.4-1h6.3c4.6,0,5.8-1.1,7.5-4.8l1.3-2.9
			c1.3-2.9,3.3-4.2,6.2-4.2h2.6l-1.4,1.9c-2.6,3.4-4.6,6.3-3.3,10.2l0.1,0c1.1-0.5,5.3-0.3,6.8-0.7c4.5-1.5,2.1-11.7,8.8-11.7v-0.4
			c-6.7,0-4.3-10.2-8.9-11.7c-1.4-0.5-5.7-0.2-6.8-0.7l0,0c-1.2,3.9,0.8,6.8,3.3,10.2l1.4,1.9h-2.5c-2.9,0-4.9-1.3-6.2-4.2l-1.3-2.9
			c-1.8-3.8-3-4.8-7.5-4.8h-6.3c-4.5,0-6-0.4-7.4-1l0,0c-0.8,6,0.1,10.3,3.8,13.3v0C-213.2,750-214.1,754.2-213.3,760.3
			L-213.3,760.3z M-271.5,760.3c1.4-0.7,2.9-1,7.4-1h6.3c4.6,0,5.8-1.1,7.5-4.8l1.3-2.9c1.3-2.9,3.3-4.2,6.2-4.2h2.5l-1.4,1.9
			c-2.6,3.4-4.6,6.3-3.3,10.2l0,0.1c1.1-0.5,5.3-0.3,6.8-0.7c4.5-1.5,2.1-11.7,8.8-11.7v-0.4c-6.7,0-4.3-10.2-8.9-11.7
			c-1.4-0.5-5.7-0.2-6.8-0.7l-0.1,0c-1.2,3.9,0.8,6.8,3.3,10.2l1.4,1.9h-2.5c-2.9,0-4.9-1.3-6.2-4.2l-1.3-2.9
			c-1.8-3.8-3-4.8-7.5-4.8h-6.3c-4.5,0-6-0.4-7.4-1l0,0c-0.8,6,0.1,10.3,3.8,13.3v0C-271.5,750-272.3,754.2-271.5,760.3
			L-271.5,760.3z"/>
	</g>
</g>
</svg>
