<?xml version="1.0" encoding="utf-8"?>
<!-- Generator: Adobe Illustrator 18.1.1, SVG Export Plug-In . SVG Version: 6.00 Build 0)  -->
<svg version="1.1" xmlns="http://www.w3.org/2000/svg" xmlns:xlink="http://www.w3.org/1999/xlink" x="0px" y="0px"
	 viewBox="-337.1 -220.4 1516 1036" enable-background="new -337.1 -220.4 1516 1036" xml:space="preserve">
<g id="Layer_3">
	<rect x="-337.1" y="-220.4" fill="#E6E6E6" width="1516" height="1036"/>
</g>
<g id="Layer_2">
	<title>quickview_pollen</title>
	<g>
		<path d="M1110.6,629.9c0.5,0,0.8,0.1,0.8,0.5l0.7,4.2l1.9,0.1v-6.9H1092v6.9l1.9-0.1l0.7-4.2c0.1-0.4,0.3-0.5,0.8-0.5h6.3v21.3
			c0,0.8-0.1,0.9-0.8,1l-3.8,0.4v1.9h12.2v-1.9l-4-0.4c-0.8-0.1-0.8-0.2-0.8-1v-21.3H1110.6L1110.6,629.9z M1069.7,639.4
			c0.5-7.5,4.2-9.8,8.6-9.8s7.4,2.8,7.5,9.8H1069.7z M1086.8,650.8c-2.3,1.4-5,2.1-7.7,2c-6.8,0-9.4-4.8-9.6-11.4h18.9
			c0-0.7,0.1-1.2,0.1-1.9c0-8.9-4.3-12.3-10.2-12.3c-6.4,0-11.4,4.4-11.4,13.8c0,7.8,2.9,14.1,12.1,14.1c3.1,0.1,6.1-0.7,8.8-2.3
			L1086.8,650.8z M1044.4,631.1c0,6.7-0.2,11.6-0.8,14.6c-0.9,4.9-2,6.5-6.1,7.3l0.6,2.3c5.7-0.8,7.4-4.3,8.3-10.9
			c0.5-4.8,0.6-9.6,0.5-14.4h8.9v21.3c0,0.8,0,0.9-0.8,1l-2.6,0.4v1.9h9.4v-1.9l-2.4-0.4c-0.8-0.1-0.8-0.2-0.8-1V631
			c0-0.8,0.1-0.9,0.8-1l2.4-0.4v-1.9h-20.5v1.9l2.4,0.4C1044.4,630.1,1044.5,630.2,1044.4,631.1 M1019.1,627.1v-5.8l-1.8,0.2
			l-0.7,2.8c-0.1,0.4-0.4,0.7-0.8,0.6c0,0-0.1,0-0.1,0h-14.1l-1,16.2l2.2,1c2.1-1.7,4.7-2.6,7.4-2.6c3.5,0,7.6,1.8,7.6,8.4
			c0,6.2-4.5,8.7-8.3,8.7c-3.5,0.1-6.8-1.2-9.3-3.7l-1.7,1.9c2.9,2.8,6.8,4.3,10.8,4.2c7.2,0,11.2-5.1,11.2-10.9
			c0-7.2-4.2-10.8-10.1-10.8c-2.6,0-5.2,0.8-7.4,2.3l0.8-12.3L1019.1,627.1L1019.1,627.1z M996.1,654.5v-7.6h-2l-0.9,4.6
			c-0.1,0.6-0.3,0.6-0.8,0.6H979l5.9-5.7c4.3-4.2,9.9-8.2,9.9-14.1c0-4.9-3.1-8.2-10.3-8.2c-4.6,0-9.5,1.1-9.5,8l2.6,0.4
			c0-5.1,2.3-6.1,7.1-6.1c5.3,0,7.4,2.2,7.4,6.3c0,4.8-4.6,8-9.5,12.9l-7,6.8v2.1L996.1,654.5L996.1,654.5z M949.7,654.5
			c7.6,0,9.3-4.5,9.3-8.1c0-6-3.7-7.6-9.5-7.6h-5.6V631c0-0.8,0.1-0.9,0.8-1l3.7-0.4v-1.9H938v1.9l2.4,0.4c0.8,0.1,0.8,0.2,0.8,1
			v20.2c0,0.8-0.1,0.9-0.8,1l-2.4,0.4v1.9L949.7,654.5L949.7,654.5z M949.3,640.9c3,0,6.9,0.2,6.9,5.4c0,4.6-3,6.1-7.4,6.1h-5.1
			v-11.5L949.3,640.9L949.3,640.9z M933,651.1c-2.2,1.3-4.6,2-7.2,2c-6.1,0-9.9-3.7-9.9-11.5c0-8.5,4.5-11.9,10.1-11.9
			c1.5,0,2.9,0.2,4.3,0.6c0.3,0,0.6,0.3,0.6,0.6l0.6,3.6l2,0.2v-6c-2.3-0.8-4.7-1.2-7.1-1.2c-7.7,0-13.3,4-13.3,14.1
			c0,7.9,3.6,13.7,12.3,13.7c3,0,5.9-0.8,8.4-2.3L933,651.1z M896,653c-6.3,0-9.6-4.5-9.6-11.8s3.5-11.7,9.8-11.7
			c6.4,0,9.1,4.2,9.1,11.6C905.5,648.5,902.3,653,896,653 M895.9,655.1c8.4,0,12.3-5.7,12.3-14.5c0-7.8-3.3-13.4-11.7-13.4
			c-8.6,0-12.6,5.7-12.6,13.8C883.8,649.2,887.4,655.1,895.9,655.1 M861.3,631c0,6.7-0.2,11.6-0.8,14.6c-0.9,4.9-2,6.5-6.1,7.3
			l0.6,2.3c5.7-0.8,7.4-4.3,8.3-10.9c0.5-4.8,0.6-9.6,0.5-14.4h8.9v21.3c0,0.8-0.1,0.9-0.8,1l-2.6,0.4v1.9h9.4v-1.9l-2.4-0.4
			c-0.8-0.1-0.8-0.2-0.8-1V631c0-0.8,0.1-0.9,0.8-1l2.4-0.4v-1.9h-20.5v1.9l2.4,0.4C861.3,630.1,861.3,630.2,861.3,631 M826,651.2
			c0,0.8-0.1,0.9-0.8,1l-2.5,0.4v1.9h6.8l14.5-23.6v20.4c0,0.8-0.1,0.9-0.8,1l-2.5,0.4v1.9h9.1v-1.9l-2.5-0.4
			c-0.8-0.1-0.8-0.2-0.8-1V631c0-0.8,0.1-0.9,0.8-1l2.5-0.4v-1.9h-6.5L828.3,652V631c0-0.8,0-0.9,0.8-1l2.5-0.4v-1.9h-9.1v1.9
			l2.5,0.4c0.8,0.1,0.8,0.2,0.8,1L826,651.2L826,651.2z M796.4,639.5V631c0-0.8,0.1-0.9,0.8-1l2.6-0.4v-1.9h-9.4v1.9l2.4,0.4
			c0.8,0.1,0.8,0.2,0.8,1v20.2c0,0.8-0.1,0.9-0.8,1l-2.4,0.4v1.9h9.4v-1.9l-2.6-0.4c-0.8-0.1-0.8-0.2-0.8-1v-9.5h15.2v9.5
			c0,0.8-0.1,0.9-0.8,1l-2.6,0.4v1.9h9.4v-1.9l-2.4-0.4c-0.8-0.1-0.8-0.2-0.8-1V631c0-0.8,0.1-0.9,0.8-1l2.4-0.4v-1.9h-9.4v1.9
			l2.6,0.4c0.8,0.1,0.8,0.2,0.8,1v8.5H796.4L796.4,639.5z M767.8,631c0,6.7-0.2,11.6-0.8,14.6c-0.9,4.9-2,6.5-6.1,7.3l0.6,2.3
			c5.7-0.8,7.4-4.3,8.3-10.9c0.5-4.8,0.6-9.6,0.5-14.4h8.9v21.3c0,0.8-0.1,0.9-0.8,1l-2.6,0.4v1.9h9.4v-1.9l-2.4-0.4
			c-0.8-0.1-0.8-0.2-0.8-1V631c0-0.8,0.1-0.9,0.8-1l2.4-0.4v-1.9h-20.5v1.9l2.4,0.4C767.8,630.1,767.9,630.2,767.8,631 M745.9,653
			c-6.3,0-9.6-4.5-9.6-11.8c0-7.4,3.5-11.7,9.8-11.7c6.4,0,9.1,4.2,9.1,11.6C755.3,648.6,752.2,653,745.9,653 M745.8,655.1
			c8.4,0,12.3-5.7,12.3-14.5c0-7.8-3.3-13.4-11.7-13.4c-8.6,0-12.6,5.7-12.6,13.8C733.7,649.3,737.3,655.1,745.8,655.1 M702.4,627.8
			v1.9l2.4,0.4c0.8,0.1,0.8,0.2,0.8,1v20.2c0,0.8,0,0.9-0.8,1l-2.4,0.4v1.9h9.4v-1.9l-2.6-0.4c-0.8-0.1-0.8-0.2-0.8-1v-21.3h14.4
			v21.3c0,0.8,0,0.9-0.8,1l-2.6,0.4v1.9h9.4v-1.9l-2.4-0.4c-0.8-0.1-0.8-0.2-0.8-1V631c0-0.8,0.1-0.9,0.8-1l2.4-0.4v-1.9
			L702.4,627.8L702.4,627.8z M697.4,651.1c-2.2,1.3-4.6,2-7.2,2c-6,0-9.9-3.7-9.9-11.5c0-8.5,4.5-11.9,10.1-11.9
			c1.5,0,2.9,0.2,4.3,0.6c0.3,0,0.6,0.3,0.6,0.6l0.6,3.6l2,0.2v-6c-2.3-0.8-4.7-1.2-7.1-1.2c-7.7,0-13.3,4-13.3,14.1
			c0,7.9,3.6,13.7,12.3,13.7c3,0,5.9-0.8,8.4-2.3L697.4,651.1z M648.8,651.2c0,0.8-0.1,0.9-0.8,1l-2.5,0.4v1.9h6.8l14.5-23.6v20.4
			c0,0.8,0,0.9-0.8,1l-2.5,0.4v1.9h9.1v-1.9l-2.5-0.4c-0.8-0.1-0.8-0.2-0.8-1V631c0-0.8,0.1-0.9,0.8-1l2.5-0.4v-1.9h-6.5L651.1,652
			V631c0-0.8,0.1-0.9,0.8-1l2.5-0.4v-1.9h-9.1v1.9l2.5,0.4c0.8,0.1,0.8,0.2,0.8,1L648.8,651.2L648.8,651.2z M627.1,632.9v-6.4
			c-2.3-0.9-4.7-1.3-7.1-1.3c-5.5,0-9.9,2.2-9.9,7.7c0,5.5,4.2,6.7,8.2,7.9c4,1.2,6.8,2.3,6.8,6.3s-2.8,5.6-7.3,5.6
			c-1.8,0.1-3.6-0.2-5.3-0.7c-0.4-0.1-0.7-0.4-0.7-0.8l-0.8-3.7h-1.9v6.1c2.6,1,5.4,1.5,8.3,1.5c5.6,0,10.4-1.9,10.4-7.9
			c0-6-4.9-7.2-9.1-8.5c-3.3-1.1-6.1-2.2-6.1-5.8c0-3.4,2.3-5.3,7-5.3c1.4-0.1,2.8,0.1,4.2,0.6c0.3,0.1,0.6,0.5,0.6,0.8l0.7,3.9
			L627.1,632.9z M589.3,641.4v-13.6h5.3c4.3,0,7.9,1,7.9,6.6c0,6.3-4.5,7-8.5,7L589.3,641.4L589.3,641.4z M595.7,654.5v-1.7
			l-5.7-0.3c-0.6,0-0.7-0.1-0.7-0.7v-8.3h4.9c6.9,0,11.1-2.6,11.1-9.1c0-4.7-2.2-8.6-9.8-8.6h-12v1.6l2.6,0.3
			c0.6,0.1,0.7,0.2,0.7,0.8v23.4c0,0.6-0.1,0.6-0.7,0.8l-2.6,0.2v1.7h12.2L595.7,654.5z M579.4,643.1v-1.8h-10.6l-0.4,2.2h5.9v7.5
			c0.1,0.4-0.2,0.8-0.5,0.9c-2,0.5-4,0.7-6,0.7c-7.9,0-12.6-4.3-12.6-12.8c0-7.9,4.5-12.4,11.4-12.4c2,0,3.9,0.3,5.7,0.9
			c0.5,0.1,0.8,0.6,0.7,1.1l0.8,3.5l2,0.1v-5.8c-1.9-1.3-5.3-2-9-2c-9.6,0-14.3,6.3-14.3,14.5c0,8.7,4.2,15.1,15.1,15.1
			c3.3,0,7.2-0.4,9.5-1.5v-9.5c0-0.4,0.2-0.5,0.6-0.6L579.4,643.1z M511.5,651.2c0,0.8-0.1,0.9-0.8,1l-2.5,0.4v1.9h6.8l14.5-23.6
			v20.4c0,0.8-0.1,0.9-0.8,1l-2.5,0.4v1.9h9.1v-1.9l-2.5-0.4c-0.8-0.1-0.8-0.2-0.8-1V631c0-0.8,0.1-0.9,0.8-1l2.5-0.4v-1.9h-6.5
			L513.9,652V631c0-0.8,0.1-0.9,0.8-1l2.5-0.4v-1.9h-9.1v1.9l2.5,0.4c0.8,0.1,0.8,0.2,0.8,1L511.5,651.2L511.5,651.2z M479.4,651.2
			c0,0.8-0.1,0.9-0.8,1l-2.5,0.4v1.9h6.8l14.5-23.6v20.4c0,0.8-0.1,0.9-0.8,1l-2.5,0.4v1.9h9.1v-1.9l-2.5-0.4
			c-0.8-0.1-0.8-0.2-0.8-1V631c0-0.8,0.1-0.9,0.8-1l2.5-0.4v-1.9h-6.5L481.7,652V631c0-0.8,0-0.9,0.8-1l2.5-0.4v-1.9H476v1.9
			l2.5,0.4c0.8,0.1,0.8,0.2,0.8,1L479.4,651.2L479.4,651.2z M467.4,631c0-0.8,0-0.9,0.8-1l2.4-0.4v-1.9h-9.4v1.9l2.6,0.4
			c0.8,0.1,0.8,0.2,0.8,1v21.3h-13.7V631c0-0.8,0.1-0.9,0.8-1l2.6-0.4v-1.9h-9.4v1.9l2.4,0.4c0.8,0.1,0.8,0.2,0.8,1v20.2
			c0,0.8-0.1,0.9-0.8,1l-2.4,0.4v1.9h22.4c0.3,0,0.6,0.2,0.6,0.5c0,0,0,0,0,0.1l0.7,6l2,0.2v-8.9h-3.5V631z M434.8,648
			c-2,2.3-5.6,4.9-9.6,4.9c-3.3,0-4.9-1.5-4.9-4.9c0-3.1,1.4-4.9,6.9-5.4l7.6-0.7L434.8,648L434.8,648z M441,654.5v-1.9l-2.8-0.4
			c-0.8-0.1-0.8-0.2-0.8-1v-14.8c0-7-2-9.1-9-9.1c-3.7,0-9.4,0.5-9.4,6.5l2.5,0.4c0-4.6,3-4.7,6.8-4.7c5.5,0,6.5,2.2,6.5,7.2v3.2
			l-7.9,0.7c-6.1,0.5-9.4,2.6-9.4,7.8c0,2.3,0.6,6.8,7.2,6.8c3.9,0,7.1-1.7,10.1-4.5l0.5,3.8L441,654.5L441,654.5z M395.7,627.8v1.9
			l2.4,0.4c0.8,0.1,0.8,0.2,0.8,1v20.2c0,0.8-0.1,0.9-0.8,1l-2.4,0.4v1.9h10.7v-1.9l-4.1-0.4c-0.8-0.1-0.8-0.2-0.8-1v-21.3h8.8
			c0.5,0,0.8,0.1,0.8,0.5l0.7,4.7l1.9,0.2v-7.5L395.7,627.8L395.7,627.8z M366.7,651.3c0,0.8-0.1,0.9-0.8,1l-2.5,0.4v1.9h6.8
			l14.5-23.6v20.4c0,0.8-0.1,0.9-0.8,1l-2.5,0.4v1.9h9.1v-1.9l-2.5-0.4c-0.8-0.1-0.8-0.2-0.8-1V631c0-0.8,0.1-0.9,0.8-1l2.5-0.4
			v-1.9h-6.5L369.1,652V631c0-0.8,0.1-0.9,0.8-1l2.5-0.4v-1.9h-9.1v1.9l2.5,0.4c0.8,0.1,0.8,0.2,0.8,1L366.7,651.3L366.7,651.3z
			 M341.6,639.8v-10h6.1c4.3,0,6.3,1.2,6.3,4.8c0,4.3-3.7,5.2-6.9,5.2L341.6,639.8L341.6,639.8z M341.6,652.5V642h7.6
			c3.8,0,6.7,1.4,6.7,5.2c0,4.5-3.3,5.3-7.6,5.3L341.6,652.5L341.6,652.5z M335.7,654.5h12.8c5.9,0,10.1-1.7,10.1-7.2
			c0-3.7-2.1-6.3-6.4-6.7v-0.1c2.8-0.8,4.7-3.4,4.6-6.3c0-3.6-1.7-6.5-8.3-6.5h-12.9v1.9l2.4,0.4c0.8,0.1,0.8,0.2,0.8,1v20.2
			c0,0.8-0.1,0.9-0.8,1l-2.4,0.4L335.7,654.5L335.7,654.5z M325.4,648c-2,2.3-5.6,4.9-9.6,4.9c-3.3,0-4.9-1.5-4.9-4.9
			c0-3.1,1.4-4.9,6.9-5.4l7.6-0.7L325.4,648L325.4,648z M331.6,654.5v-1.9l-2.8-0.4c-0.8-0.1-0.8-0.2-0.8-1v-14.8c0-7-2-9.1-9-9.1
			c-3.7,0-9.4,0.5-9.4,6.5l2.5,0.4c0.1-4.6,3-4.7,6.8-4.7c5.5,0,6.5,2.2,6.5,7.2v3.2l-7.9,0.7c-6.1,0.5-9.4,2.6-9.4,7.8
			c0,2.3,0.6,6.8,7.2,6.8c3.9,0,7.1-1.7,10.1-4.5l0.5,3.8L331.6,654.5L331.6,654.5z M281.5,639.6v-8.5c0-0.8,0.1-0.9,0.8-1l2.6-0.4
			v-1.9h-9.3v1.9l2.4,0.4c0.8,0.1,0.8,0.2,0.8,1v20.2c0,0.8-0.1,0.9-0.8,1l-2.4,0.4v1.9h9.3v-1.9l-2.6-0.4c-0.8-0.1-0.8-0.2-0.8-1
			v-9.6h15.3v9.5c0,0.8-0.1,0.9-0.8,1l-2.6,0.4v1.9h9.4v-1.9l-2.4-0.4c-0.8-0.1-0.8-0.2-0.8-1V631c0-0.8,0.1-0.9,0.8-1l2.4-0.4v-1.9
			h-9.4v1.9l2.6,0.4c0.8,0.1,0.8,0.2,0.8,1v8.5L281.5,639.6L281.5,639.6z M239.5,639.4c0.5-7.5,4.2-9.8,8.6-9.8s7.4,2.8,7.5,9.8
			H239.5L239.5,639.4z M256.6,650.9c-2.3,1.4-5,2.1-7.7,2c-6.8,0-9.4-4.8-9.6-11.4h18.9c0.1-0.7,0.1-1.2,0.1-1.9
			c0-8.9-4.3-12.3-10.2-12.3c-6.4,0-11.4,4.4-11.4,13.8c0,7.8,2.9,14.1,12.1,14.1c3.1,0.1,6.1-0.7,8.8-2.3L256.6,650.9z
			 M225.3,631.1v20.1c0,0.8-0.1,0.9-0.8,1l-3.1,0.4v1.9h9.6v-1.9l-2.2-0.4c-0.8-0.1-0.8-0.2-0.8-1V631c0-0.8,0-0.9,0.8-1l2.2-0.4
			v-1.9h-6.6l-8.7,17.7h-0.1l-8.6-17.7h-6.7v1.9l2.2,0.4c0.8,0.1,0.8,0.2,0.8,1v20.2c0,0.8-0.1,0.9-0.8,1l-2.2,0.4v1.9h9.6v-1.9
			l-3.1-0.4c-0.8-0.1-0.8-0.2-0.8-1v-20.1h0.1l8.1,16.6h2.9l8.2-16.6L225.3,631.1L225.3,631.1z M176.3,639.4
			c0.5-7.5,4.2-9.8,8.6-9.8s7.4,2.8,7.5,9.8H176.3L176.3,639.4z M193.3,650.8c-2.3,1.4-5,2.1-7.7,2c-6.8,0-9.4-4.8-9.6-11.4H195
			c0.1-0.7,0.1-1.2,0.1-1.9c0-8.9-4.3-12.3-10.2-12.3c-6.4,0-11.4,4.4-11.4,13.8c0,7.8,2.9,14.1,12.1,14.1c3.1,0.1,6.1-0.7,8.8-2.3
			L193.3,650.8z M166.2,630c0.5,0,0.8,0.1,0.8,0.5l0.7,4.2l1.9,0.1v-6.9h-22v6.9l1.9-0.1l0.7-4.2c0.1-0.4,0.3-0.5,0.8-0.5h6.3v21.3
			c0,0.8-0.1,0.9-0.8,1l-3.8,0.4v1.9h12.2v-1.9l-4-0.4c-0.8-0.1-0.8-0.2-0.8-1v-21.3L166.2,630L166.2,630z M143.8,651.1
			c-2.2,1.3-4.6,2-7.2,2c-6.1,0-9.9-3.7-9.9-11.5c0-8.5,4.5-11.9,10.1-11.9c1.5,0,2.9,0.2,4.3,0.6c0.3,0,0.6,0.3,0.6,0.6l0.6,3.6
			l2,0.2v-6c-2.3-0.8-4.7-1.2-7.1-1.2c-7.7,0-13.3,4-13.3,14.1c0,7.9,3.6,13.7,12.3,13.7c3,0,5.9-0.8,8.4-2.3L143.8,651.1z
			 M95.1,651.2c0,0.8-0.1,0.9-0.8,1l-2.5,0.4v1.9h6.8l14.5-23.6v20.4c0,0.8-0.1,0.9-0.8,1l-2.5,0.4v1.9h9.1v-1.9l-2.5-0.4
			c-0.8-0.1-0.8-0.2-0.8-1V631c0-0.8,0-0.9,0.8-1l2.5-0.4v-1.9h-6.5L97.5,652V631c0-0.8,0.1-0.9,0.8-1l2.5-0.4v-1.9h-9v1.9l2.5,0.4
			c0.8,0.1,0.8,0.2,0.8,1L95.1,651.2L95.1,651.2z M86.9,651.1c-2.2,1.3-4.6,2-7.2,2c-6.1,0-9.9-3.7-9.9-11.5
			c0-8.5,4.5-11.9,10.1-11.9c1.5,0,2.9,0.2,4.3,0.6c0.3,0,0.6,0.3,0.6,0.6l0.6,3.6l2,0.2v-6c-2.3-0.8-4.7-1.2-7.1-1.2
			c-7.7,0-13.3,4-13.3,14.1c0,7.9,3.6,13.7,12.3,13.7c3,0,5.9-0.8,8.4-2.3L86.9,651.1z M42.1,616.8c-1.2,3.4-2.4,5.5-5.7,5.5
			c-3.3,0-4.6-1.9-5.4-5.5l-2.2,0.7c0.9,4.2,2.8,6.9,7.6,6.9s6.7-3,7.8-6.9L42.1,616.8z M25.9,651.2c0,0.8,0,0.9-0.8,1l-2.5,0.4v1.9
			h6.8l14.5-23.6v20.4c0,0.8-0.1,0.9-0.8,1l-2.5,0.4v1.9h9.1v-1.9l-2.5-0.4c-0.8-0.1-0.8-0.2-0.8-1V631c0-0.8,0-0.9,0.8-1l2.5-0.4
			v-1.9h-6.5L28.3,652V631c0-0.8,0.1-0.9,0.8-1l2.5-0.4v-1.9h-9.1v1.9L25,630c0.8,0.1,0.8,0.2,0.8,1L25.9,651.2L25.9,651.2z
			 M5.4,653c-6.3,0-9.6-4.5-9.6-11.8c0-7.4,3.5-11.7,9.8-11.7s9.1,4.2,9.1,11.6C14.8,648.6,11.7,653,5.4,653 M5.3,655.1
			c8.4,0,12.3-5.7,12.3-14.5c0-7.8-3.3-13.4-11.7-13.4c-8.6,0-12.6,5.7-12.6,13.8C-6.8,649.3-3.2,655.1,5.3,655.1 M-28.6,639.8v-9.9
			h6.2c4.3,0,6.3,1.2,6.3,4.8c0,4.3-3.7,5.2-6.9,5.2L-28.6,639.8L-28.6,639.8z M-28.6,652.4V642h7.6c3.8,0,6.7,1.4,6.7,5.2
			c0,4.5-3.3,5.3-7.6,5.3L-28.6,652.4L-28.6,652.4z M-34.5,654.5h12.8c5.9,0,10.1-1.7,10.1-7.2c0-3.7-2.1-6.3-6.4-6.7v-0.1
			c2.8-0.8,4.7-3.4,4.6-6.3c0-3.6-1.7-6.5-8.3-6.5h-12.8v1.9l2.4,0.4c0.8,0.1,0.8,0.2,0.8,1v20.2c0,0.8-0.1,0.9-0.8,1l-2.4,0.4
			L-34.5,654.5L-34.5,654.5z M-51.7,653c-6.3,0-9.6-4.5-9.6-11.8c0-7.4,3.5-11.7,9.8-11.7s9.1,4.2,9.1,11.6
			C-42.3,648.6-45.5,653-51.7,653 M-51.9,655.1c8.4,0,12.3-5.7,12.3-14.5c0-7.8-3.3-13.4-11.7-13.4c-8.6,0-12.6,5.7-12.6,13.8
			C-63.9,649.3-60.3,655.1-51.9,655.1 M-77.7,640.9c1.6-0.6,2.5-2,3.2-3.7l2.2-5.2c0.7-1.6,1.2-2.4,2.6-2.4c0.4,0,0.9,0.1,1.3,0.2
			l0.2-2.1c-0.6-0.2-1.2-0.3-1.9-0.3c-2.3,0-3.4,1.4-4.4,3.7l-2.3,5.5c-1.4,3.2-1.9,3.5-4.4,3.5h-2.9v-8.9c0-0.8,0.1-0.9,0.8-1
			l2.6-0.4v-1.9h-9.3v1.9l2.4,0.4c0.8,0.1,0.8,0.2,0.8,1v20.2c0,0.8-0.1,0.9-0.8,1l-2.4,0.4v1.9h9.4v-1.9l-2.6-0.4
			c-0.8-0.1-0.8-0.2-0.8-1v-9.5h2.5c2.3,0,3,0.3,4.4,2.6c1.2,2,3.6,6.3,5.3,10h5.3v-1.9l-2.7-0.3c-0.6,0-1-0.4-1.2-0.9l-3.9-7.1
			C-75.5,642.4-76.4,641.2-77.7,640.9 M-119.1,651.2c0,0.8-0.1,0.9-0.8,1l-2.5,0.4v1.9h6.8l14.5-23.6v20.4c0,0.8-0.1,0.9-0.8,1
			l-2.5,0.4v1.9h9.1v-1.9l-2.5-0.4c-0.8-0.1-0.8-0.2-0.8-1V631c0-0.8,0.1-0.9,0.8-1l2.5-0.4v-1.9h-6.5l-14.8,24.2V631
			c0-0.8,0.1-0.9,0.8-1l2.5-0.4v-1.9h-9.1v1.9l2.5,0.4c0.8,0.1,0.8,0.2,0.8,1L-119.1,651.2L-119.1,651.2z M-148.7,639.5v-8.5
			c0-0.8,0.1-0.9,0.8-1l2.6-0.4v-1.9h-9.3v1.9l2.4,0.4c0.8,0.1,0.8,0.2,0.8,1v20.2c0,0.8-0.1,0.9-0.8,1l-2.4,0.4v1.9h9.3v-1.9
			l-2.6-0.4c-0.8-0.1-0.8-0.2-0.8-1v-9.5h15.3v9.5c0,0.8-0.1,0.9-0.8,1l-2.6,0.4v1.9h9.4v-1.9l-2.4-0.4c-0.8-0.1-0.8-0.2-0.8-1V631
			c0-0.8,0.1-0.9,0.8-1l2.4-0.4v-1.9h-9.3v1.9l2.6,0.4c0.8,0.1,0.8,0.2,0.8,1v8.5L-148.7,639.5L-148.7,639.5z M-162.2,630
			c0.5,0,0.8,0.1,0.8,0.5l0.7,4.2l1.9,0.1v-6.9h-22.1v6.9l1.9-0.1l0.7-4.2c0.1-0.4,0.3-0.5,0.8-0.5h6.3v21.3c0,0.8-0.1,0.9-0.8,1
			l-3.8,0.4v1.9h12.2v-1.9l-4-0.4c-0.8-0.1-0.8-0.2-0.8-1v-21.3L-162.2,630L-162.2,630z M-198.4,653.8l-1.7,4c-1.9,4.5-2.6,6-5.4,6
			c-1.3,0-2.5-0.4-3.6-0.9l-0.8,2.3c1.4,0.6,3,1,4.6,1c4.6,0,5.8-3.1,9-10.6l10.4-24.9c0.2-0.5,0.7-0.9,1.3-0.9l1.8-0.3v-1.8h-8.8
			l-0.5,1.8l3.7,0.4l-8.5,20.8l-8.2-20.7l3.6-0.4v-1.8h-9l-0.5,1.8l2.2,0.5c0.5,0,1,0.4,1.1,0.9L-198.4,653.8z M-240.2,627.8v1.9
			l2.4,0.4c0.8,0.1,0.8,0.2,0.8,1v20.2c0,0.8-0.1,0.9-0.8,1l-2.4,0.4v1.9h9.4v-1.9l-2.6-0.4c-0.8-0.1-0.8-0.2-0.8-1v-21.3h14.4v21.3
			c0,0.8-0.1,0.9-0.8,1l-2.6,0.4v1.9h9.4v-1.9l-2.4-0.4c-0.8-0.1-0.8-0.2-0.8-1V631c0-0.8,0-0.9,0.8-1l2.4-0.4v-1.9L-240.2,627.8
			L-240.2,627.8z M-245.9,645.9h-1.8l-0.8,4.6c-0.1,0.4-0.3,0.7-0.6,0.8c-2.4,1.2-5.9,1.4-8.8,1.4c-9.4,0-15.1-6.2-15.1-17.8
			c0-10.7,6.1-16.9,15.5-16.9c2.7,0,5.5,0.5,8,1.5c0.4,0.1,0.7,0.5,0.7,0.9l0.9,4.9l2,0.1v-7.1c-2.4-1.6-6.5-2.7-11.4-2.7
			c-12.3,0-18.4,8.3-18.4,19.1c0,11.8,5,20.2,17.6,20.2c4.8,0,9.6-0.8,12.3-2.7L-245.9,645.9L-245.9,645.9z"/>
	</g>
	<g>
		<path d="M1044.1-54.2c-4.9,11.9-10.8,27.6-36,27.6c-24.8,0-30.8-10.1-37-27.6l-15,4.9c4.5,20.3,16.8,37.7,51,37.7
			c34.6,0,45.8-21.3,51-37.7L1044.1-54.2z M1064.4,8.7L930.2,244.2V30.7c0-5.6,0.3-6.3,5.6-7l23.4-2.8V8.7h-73.4v12.2l22,2.5
			c4.9,0.7,5.6,1.7,5.6,7v209.3c0,5.2-0.7,5.9-5.6,7l-22,2.4v12.6h53.1l131.4-231.3V240c0,5.2-0.7,5.9-5.6,7l-22,2.4v12.2h73.4
			v-12.2l-23.4-2.8c-5.2-0.7-5.6-1.4-5.6-6.6V30.4c0-5.2,0.4-5.9,5.6-6.6l23.4-2.8V8.7H1064.4L1064.4,8.7z M783.4,8.7L649.2,244.2
			V30.7c0-5.6,0.4-6.3,5.6-7l23.4-2.8V8.7h-73.3v12.2l22,2.5c4.9,0.7,5.6,1.7,5.6,7v209.3c0,5.2-0.7,5.9-5.6,7l-22,2.5v12.6H658
			L789.4,30.4V240c0,5.2-0.7,5.9-5.6,7l-22,2.4v12.2h73.4v-12.2l-23.4-2.8c-5.2-0.7-5.6-1.4-5.6-6.6V30.4c0-5.2,0.3-5.9,5.6-6.6
			l23.4-2.8V8.7H783.4L783.4,8.7z M530.8,261.7c3.8,0,5.6,1,5.9,4.5l5.9,49.6l12.6,0.7V247h-31.8V30.7c0-5.6,0.4-6.3,5.6-7l23.4-2.8
			V8.7H479v12.2l22,2.5c4.9,0.7,5.6,1.7,5.6,7V247H400.8V30.7c0-5.6,0.4-6.3,5.6-7l26.9-2.8V8.7h-80.4v12.2l25.5,2.5
			c4.9,0.3,5.6,1.7,5.6,7V247H281.6V30.7c0-5.6,0.3-6.3,5.6-7l23.4-2.8V8.7h-73.4v12.2l22,2.5c4.9,0.7,5.6,1.7,5.6,7V240
			c0,5.2-0.7,6.6-5.6,7l-22,2.4v12.2L530.8,261.7L530.8,261.7z M3.8,8.7v12.2l22,2.5c4.9,0.7,5.6,1.7,5.6,7v210c0,5.2-0.7,6.6-5.6,7
			l-22,2.4v11.9h100.7c64.7,0,87-31.1,87-72c0-52.4-36-66.4-84.6-66.4h-59V23h94.4c3.8,0,5.2,1,5.9,4.5l4.9,35.3l13.6,0.7V8.7H3.8z
			 M107.6,137.6c33.6,0,65.7,7.3,65.7,52.1c0,41.9-22.7,57.7-70.2,57.7H47.9V137.6H107.6L107.6,137.6z M-161.2,250.9
			c-60.8,0-97.9-42.3-97.9-115c0-75.1,41.6-116.7,101-116.7c58.7,0,96.5,41.2,96.5,113.6C-61.5,210.7-101.8,250.9-161.2,250.9
			 M-162.2,265.9c77.6,0,118.1-54.2,118.1-136.6C-44.1,59-80.4,4.1-157.3,4.1c-77.9,0-119.9,54.9-119.9,131.7
			C-277.2,210.3-240.8,265.9-162.2,265.9"/>
	</g>
	<g>
		<path d="M1063.8-191.5c-6.3,0-8.9-4.2-9.7-12.7l-17.9,5.1c2.2,14.9,11,23.1,27.3,23.1c16.1,0,24.7-8.3,27.6-23.5l-17.1-4.3
			C1072.3-194.5,1069.5-191.5,1063.8-191.5 M1048.8-126.8h-1v-25c0-1.8,0.1-2.2,1.9-2.4l8.2-0.9v-14.1h-48.3v14.3l7.7,0.9
			c1.6,0.1,1.9,0.6,1.9,2.2v49.8c0,1.9-0.3,2.4-1.9,2.5l-7.7,0.9v14h37.8l27-46.8h1v29.4c0,1.6-0.1,2.1-1.9,2.2l-7.7,0.9v14.2h49.2
			v-14.2l-8.3-0.9c-1.8-0.3-1.9-0.6-1.9-2.4v-49.3c0-1.8,0.1-2.1,1.9-2.2l8.3-0.9v-14.7h-41.6L1048.8-126.8z M1004.8-84.7v-14.2
			l-8-0.9c-1.8-0.1-1.9-0.6-1.9-2.4v-49.3c0-1.8,0.1-2.1,1.9-2.2l8-0.9v-14.7h-50.6v14.8l7.5,0.7c1.6,0.1,1.9,0.6,1.9,2.4v49.5
			c0,1.6-0.3,2.1-1.9,2.2l-7.5,0.9v14.2L1004.8-84.7L1004.8-84.7z M919.2-118.5c3.1,0,6.3,1.2,6.3,7c0,5.1-2.1,7.2-6.3,7.2h-3.7
			v-14.2H919.2z M874.2-169.3v14.3l7.9,1c1.9,0.3,2.2,0.6,2.2,2.7v48.9c0,1.6-0.4,2.1-2.1,2.2l-8,0.9v14.6h47.1
			c23.7,0,33.5-11.5,33.5-27.9c0-18.8-12.4-24.9-30.4-24.9h-9v-14.2c0-1.8,0.1-2.4,1.9-2.5l12.4-1.2v-14L874.2-169.3L874.2-169.3z
			 M870.1-84.7v-14.2l-8.3-0.9c-1.8-0.3-1.9-0.6-1.9-2.4v-49.3c0-1.8,0.1-2.1,1.9-2.2l8.3-0.9v-14.7h-49.8v14.8l6.3,0.7
			c1.8,0.1,1.9,0.6,1.9,2.4v12.8h-20.1v-12.8c0-1.8,0.3-2.1,1.9-2.2l6.3-0.9v-14.7h-49.2v14.8l7.7,0.7c1.6,0.1,1.9,0.6,1.9,2.4v49.5
			c0,1.6-0.3,2.1-1.9,2.2l-7.7,0.9v14.2h49.2v-14.2l-6.3-0.9c-1.8-0.3-1.9-0.6-1.9-2.4V-117h20.1v15c0,1.6-0.1,2.1-1.9,2.2l-6.3,0.9
			v14.2L870.1-84.7L870.1-84.7z M664.1-105v38.1l21.8-1.3l2.8-14c0.3-1.8,0.6-2.4,2.5-2.4h43.2c1.9,0,2.2,0.6,2.5,2.4l2.8,14
			l21.7,1.3V-105h-9.1v-46.4c0-1.8,0.1-2.1,1.9-2.2l8.3-0.9v-14.7h-90v14.8l7.7,0.7c1.6,0.1,1.9,0.6,1.9,2.4v9.7
			c0,17.3-2.4,27.6-9.2,36.6L664.1-105L664.1-105z M704.2-103.9c5.2-10.4,5.8-20.6,5.8-31.4v-14.8h12.7v46.2L704.2-103.9
			L704.2-103.9z M620.3-106c-8,0-13.3-3.7-13.3-20.7c0-16.1,5.7-21.2,13.6-21.2c7.7,0,12.1,5.1,12.1,20.4
			C632.7-109.7,627.4-106,620.3-106 M619.2-82.9c31.4,0,45.7-18.3,45.7-45.4c0-23.5-12.5-42.5-44-42.5c-31.1,0-45.9,19.8-45.9,45.3
			C575.1-101.1,587.4-82.9,619.2-82.9 M531.2-131v-18.6h1.5c4.2,0,7,2.1,7,8.6c0,7.3-2.4,10-7,10L531.2-131L531.2-131z M551.6-84.7
			v-14l-18.3-1.2c-1.8-0.1-1.9-0.7-1.9-2.5v-9.7h3.7c21,0,34.9-9.1,34.9-30.9c0-14.9-6.9-26.4-30.5-26.4H490v14.6l8,0.9
			c1.6,0.1,2.1,0.6,2.1,2.2v48.9c0,2.1-0.3,2.4-2.2,2.7l-7.9,1v14.3L551.6-84.7L551.6-84.7z M438.8-120.7h-15.6l7.6-22.4h0.9
			L438.8-120.7z M486.6-84.7v-14.2l-6-1.3c-1.6-0.6-2.5-0.9-3-1.9L452-169.3h-33.8l-26.8,67.6c-0.3,0.7-1,1.2-1.8,1.2l-6.9,1.6v14.2
			h43.8v-14.2l-9.7-1l1.6-4.3h24.7l1.2,4.3l-10.1,1v14.2H486.6L486.6-84.7z M379.3-84.7v-14.2l-8.3-0.9c-1.8-0.3-1.9-0.6-1.9-2.4
			v-49.3c0-1.8,0.1-2.1,1.9-2.2l8.3-0.9v-14.7h-49.8v14.8l6.3,0.7c1.8,0.1,1.9,0.6,1.9,2.4v12.8h-20.1v-12.8c0-1.8,0.3-2.1,1.9-2.2
			l6.3-0.9v-14.7h-49.2v14.8l7.7,0.7c1.6,0.1,1.9,0.6,1.9,2.4v49.5c0,1.6-0.3,2.1-1.9,2.2l-7.7,0.9v14.2h49.2v-14.2l-6.3-0.9
			c-1.8-0.3-1.9-0.6-1.9-2.4V-117h20.1v15c0,1.6-0.1,2.1-1.9,2.2l-6.3,0.9v14.2L379.3-84.7L379.3-84.7z M263.6-151.9
			c0.7-1.3,1.2-2.1,2.7-2.4l5.7-0.9v-14.1h-37.4l-1.3,14.2l6.9,1l-8,20.9h-1.2l-7.9-20.9l6.7-1v-14.2h-45.7l-1.2,14.2l5.7,1.3
			c1.5,0.3,2.4,0.6,3,1.9l20.1,43.4c-1.3,2.1-4,2.5-6.3,2.5c-3.9,0-8.3-1.6-11-3l-7.3,20.9c5.4,2.8,14.8,5.2,22.9,5.2
			c12.5,0,22.8-2.2,31.7-21.6L263.6-151.9z M78.3-105v38.1l21.8-1.3l2.8-14c0.3-1.8,0.6-2.4,2.5-2.4h43.2c1.9,0,2.2,0.6,2.5,2.4
			l2.8,14l21.7,1.3V-105h-9.1v-46.4c0-1.8,0.1-2.1,1.9-2.2l8.3-0.9v-14.7h-90v14.8l7.7,0.7c1.6,0.1,1.9,0.6,1.9,2.4v9.7
			c0,17.3-2.4,27.6-9.2,36.6L78.3-105L78.3-105z M118.4-103.9c5.2-10.4,5.8-20.6,5.8-31.4v-14.8h12.7v46.2L118.4-103.9L118.4-103.9z
			 M-23.7-169.3v14.8l7,0.9c1.6,0.1,1.9,0.4,1.9,2.2v12.8h-4c-4.5,0-7-2.5-8.3-6.9l-3.1-10.6c-3.1-10.7-10-14.8-21.5-14.8
			c-4.9,0-9.7,0.6-14.5,1.6l1.2,18.5c1.4-0.2,2.8-0.3,4.2-0.3c2.7,0,4.6,1,5.7,4.3l2.8,8.3c1.7,5,5.7,8.9,10.9,10.3v0.6
			c-6,1-9.8,3.9-13.1,10.6l-6.9,14c-0.7,1.8-2.5,3.1-4.5,3.1l-6.3,0.9v14.2h37.7c3.6-10.9,6.4-18.6,9.5-26.2
			c2.2-5.5,4.9-6.1,7.5-6.1h2.7v14.9c0,1.8-0.1,2.1-1.9,2.4l-7,0.9v14.2h49.2v-14.3l-7-0.9c-1.8-0.3-1.9-0.6-1.9-2.4V-117h2.7
			c2.5,0,4.9,0.7,6.9,4.6c4,8,6.5,16.8,10.1,27.7h37.7v-14.2l-6.3-0.9c-2-0.1-3.7-1.3-4.5-3.1L55.3-119c-2.2-4.6-7.2-7.3-12.1-8.5
			v-0.6c5.2-1.3,9.3-5.2,10.9-10.3l2.4-8.2c1-3.4,3.3-4.5,6-4.5c1.5,0,2.9,0.2,4.3,0.4l1-18.6c-5.5-0.9-10.1-1.6-14.3-1.6
			c-11.5,0-18.3,4-21.5,14.8l-3.1,10.6c-1.5,5.2-3.9,6.9-8.3,6.9h-4v-12.8c0-1.8,0.3-2.1,1.9-2.2l7-0.9v-14.7H-23.7z M-78.3-84.7
			v-28h-21.1l-1.5,7.2c-0.3,1-0.6,1.8-2.1,1.8h-8.5v-13.1h22.4v-19.6h-22.4v-13.6h6c1-0.2,1.9,0.5,2.1,1.4c0,0,0,0,0,0.1l1.2,6.3
			l21.3,0.7v-27.7h-71.5v14.3l7.7,0.9c1.6,0,1.9,0.7,1.9,2.2v49.9c0,1.6-0.3,2.1-1.9,2.2l-7.7,0.9v14.2L-78.3-84.7L-78.3-84.7z
			 M-157-84.7v-14.2l-8.3-0.9c-1.6-0.1-1.9-0.7-1.9-2.2v-50c-0.1-1.1,0.7-2,1.7-2.1c0.1,0,0.1,0,0.2,0l8.3-1v-14.2H-204l-15.6,49.2
			h-0.9l-12.9-49.2h-47.8v14.3l7.7,0.9c1.6,0.1,1.8,0.9,1.8,2.4v49.6c0,1.8-0.3,2.2-1.8,2.4l-7.7,0.9v14.2h43.2v-14.2l-10.1-0.9
			c-1.8-0.1-1.9-0.6-1.9-2.4v-35.6h0.9l9.5,35.2h31.4l10.6-34.4h0.9v35c0,1.5-0.4,2.1-1.9,2.2l-10,0.9v14.2L-157-84.7L-157-84.7z"/>
	</g>
	<g>
		<path d="M1088.5,377.5v-10.6h3.7c3.9,0,6.8,0.8,6.8,5.1c0,4.1-2.8,5.5-6.5,5.5H1088.5L1088.5,377.5z M1119.2,381.4v-3.2l-3.3-0.4
			c-0.6-0.1-0.7-0.2-0.7-0.8v-21.4c0-0.6,0.1-0.8,0.7-0.9l3.3-0.4v-3.3h-13.2v3.2l3.1,0.3c0.6,0.1,0.7,0.2,0.7,0.9V377
			c0,0.8-0.2,0.8-0.8,0.9l-3,0.3v3.2L1119.2,381.4L1119.2,381.4z M1083.2,377.3c0.1,0.3-0.1,0.6-0.4,0.6c0,0-0.1,0-0.1,0l-3,0.4v3.2
			h12.7c6.8,0,12-2.8,12-9.7c0-6.4-4.7-8.6-10.3-8.6h-5.7v-7.7c0-0.6,0.1-0.8,0.8-0.8l4.2-0.4v-3.3h-13.9v3.2l3,0.3
			c0.5,0.1,0.6,0.2,0.6,0.8L1083.2,377.3L1083.2,377.3z M1074.7,381.5v-3.3l-2.9-0.4c-0.3,0.1-0.7-0.2-0.7-0.5c0-0.1,0-0.2,0-0.3
			v-21.4c0-0.9,0.2-1,0.8-1.1l2.8-0.3v-3.3h-10.1l-8.7,18.5h-0.1l-8.5-18.5h-10.1v3.2l2.7,0.3c0.6,0.1,0.7,0.2,0.7,0.8V377
			c0,0.6-0.1,0.8-0.7,0.9l-2.7,0.3v3.2h12.5v-3.2l-3.7-0.4c-0.6-0.1-0.6-0.2-0.7-0.8v-19.3h0.1l7.6,16.2h5.3l7.6-15.9h0.1v19.1
			c0.1,0.4-0.1,0.7-0.5,0.8c-0.1,0-0.2,0-0.2,0l-3.6,0.3v3.2L1074.7,381.5L1074.7,381.5z M1017.9,377.9c-5.8,0-8.9-3.7-8.9-11.6
			s3.4-11.2,9.1-11.2c5.8,0,8.6,3.4,8.6,11.2C1026.7,374.3,1023.6,377.9,1017.9,377.9 M1017.7,382.2c10.1,0,14.6-6.4,14.6-16.3
			c0-8.9-3.9-15.3-14-15.3c-10.1,0-14.8,6.4-14.8,15.6S1007.4,382.2,1017.7,382.2 M998.6,381.5v-3.2l-2.9-0.4
			c-0.7-0.1-0.7-0.2-0.7-0.8v-21.4c0-0.6,0.1-0.8,0.7-0.9l2.9-0.4v-3.3h-26.1v3.2l3,0.3c0.6,0.1,0.7,0.4,0.7,0.9
			c-0.1,4.3-0.5,9.4-0.8,12.3c-0.9,7.7-2.9,9.6-6.9,9.9l1.1,4.5c7.1-0.6,9.6-4.8,10.4-13.1c0.4-4,0.7-8.2,0.8-14.2h8.9v22
			c0,0.6-0.1,0.8-0.8,0.9l-2.5,0.3v3.2L998.6,381.5L998.6,381.5z M946.2,363.5c0.5-6.5,3.7-8.7,7.7-8.7c3.6,0,6.7,1.9,6.8,8.7H946.2
			z M963.7,375.5c-2.6,1.4-5.5,2.2-8.5,2.1c-6.4,0-8.9-4.1-9-10H966c0.1-1,0.1-2.2,0.1-3c0-10.2-5-14.1-12.2-14.1
			c-7.5,0-13.5,5-13.5,15.8c0,8.8,3.5,15.8,14.2,15.8c3.7,0.1,7.4-0.9,10.7-2.7L963.7,375.5z M914.1,358.7c1.7-1.4,5.3-3.7,9-3.7
			c3.8,0,6.8,2.5,6.8,10.6c0,7.5-2.1,12.1-7.7,12.1c-3.1,0-6.1-1.9-8.1-3.8V358.7L914.1,358.7z M920.5,394v-3.2l-5.5-0.5
			c-0.9-0.1-0.9-0.2-0.9-1.2v-10.2c2.5,2.2,5.7,3.4,9,3.2c9.3,0,12.3-8.1,12.3-17c0-10.4-4.5-14.6-11.1-14.6c-4,0-7.3,1.7-10.6,4.1
			l-0.2-0.1l-0.5-3.4h-7.8l-0.5,3.1l3.4,1.1c0.5,0.2,0.9,0.7,0.8,1.2v32.6c0.1,0.5-0.2,1-0.7,1.2c-0.1,0-0.2,0-0.3,0l-2.4,0.4v3.2
			L920.5,394L920.5,394z M880.9,363.5c0.5-6.5,3.7-8.7,7.7-8.7c3.6,0,6.7,1.9,6.8,8.7H880.9L880.9,363.5z M898.4,375.5
			c-2.6,1.4-5.5,2.2-8.5,2.1c-6.4,0-8.9-4.1-9-10h19.8c0.1-1,0.1-2.2,0.1-3c0-10.2-5-14.1-12.2-14.1c-7.4,0-13.5,5-13.5,15.8
			c0,8.8,3.5,15.8,14.2,15.8c3.7,0.1,7.4-0.9,10.7-2.7L898.4,375.5z M870.4,381.5v-3.2l-2.9-0.4c-0.6-0.1-0.6-0.2-0.6-0.8v-21.6
			c0-0.6,0.1-0.7,0.6-0.8l2.9-0.4v-3.3h-31.3v3.2l2.7,0.3c0.4-0.1,0.7,0.2,0.7,0.5c0,0.1,0,0.2,0,0.3v21.7c0,0.6-0.1,0.8-0.7,0.8
			l-2.7,0.3v3.2h12.2v-3.2l-2.7-0.4c-0.6-0.1-0.6-0.2-0.6-0.8v-21.9h13.5v22c0,0.6-0.1,0.8-0.7,0.9l-2.4,0.3v3.2L870.4,381.5
			L870.4,381.5z M805,377.6v-10.6h4.3c3.8,0,6.7,0.8,6.7,5.1c0,4-2.5,5.5-6.5,5.5L805,377.6L805,377.6z M799.6,377.3
			c0.1,0.3-0.1,0.6-0.4,0.6c0,0-0.1,0-0.1,0l-2.9,0.4v3.2H810c6.6,0,11.6-3.1,11.6-9.7s-4.8-8.6-10.3-8.6H805v-7.7
			c0-0.6,0.2-0.7,0.8-0.8l4.2-0.4v-3.3H796v3.2l3,0.3c0.5,0.1,0.6,0.2,0.6,0.8L799.6,377.3L799.6,377.3z M786.6,381.5v-3.3l-4.8-0.3
			c-0.6-0.1-0.7-0.2-0.7-0.8v-22h5.8c0.3-0.1,0.6,0.1,0.6,0.4c0,0,0,0.1,0,0.1l0.8,4.6h3.7v-9.2h-27.4v9.1h4l0.7-4.5
			c0-0.4,0.2-0.7,0.6-0.7c0.1,0,0.1,0,0.2,0h5.7v22c0,0.6-0.1,0.8-0.7,0.8l-4.4,0.3v3.3L786.6,381.5L786.6,381.5z M760.8,381.5v-3.2
			l-3-0.4c-0.6-0.1-0.7-0.2-0.7-0.8v-21.5c0-0.6,0.1-0.7,0.7-0.8l3-0.4v-3.3h-9.4l-13.9,23.8h-0.2v-19.4c0-0.6,0-0.7,0.6-0.8
			l2.9-0.4v-3.3h-12.3v3.2l2.7,0.3c0.6,0.1,0.7,0.2,0.7,0.8v21.6c0,0.6-0.1,0.8-0.7,0.8l-2.7,0.3v3.2h9.4l13.7-23.3h0.2v18.9
			c0,0.6-0.1,0.8-0.6,0.8l-2.7,0.3v3.2L760.8,381.5L760.8,381.5z M708.6,381.5h15v-3.2l-2.8-0.3c-0.6-0.1-0.8-0.2-0.8-0.9v-21.5
			c-0.1-0.4,0.1-0.8,0.5-0.9c0.1,0,0.2,0,0.3,0l2.7-0.3v-3.2h-11.7v3.2l2.2,0.3c0.6,0.1,0.6,0.3,0.6,0.9v10.2
			c-2.1,0.6-4.3,0.9-6.5,0.9c-4,0-5-1.7-5-5v-6.1c-0.1-0.4,0.1-0.8,0.5-0.9c0.1,0,0.2,0,0.2,0l2.4-0.3v-3.2h-11.7v3.2l2.5,0.3
			c0.6,0.1,0.7,0.2,0.7,0.9v7c0,5,2.5,8,9.3,8c2.6,0,5.2-0.3,7.7-0.9v7.4c0,0.6-0.2,0.8-0.8,0.8l-5.3,0.4L708.6,381.5L708.6,381.5z
			 M671.8,363.5c0.5-6.5,3.7-8.7,7.7-8.7c3.6,0,6.7,1.9,6.8,8.7H671.8L671.8,363.5z M689.2,375.5c-2.6,1.4-5.5,2.2-8.5,2.1
			c-6.4,0-8.9-4.1-9-10h19.8c0.1-1,0.1-2.2,0.1-3c0-10.2-5-14.1-12.2-14.1c-7.4,0-13.5,5-13.5,15.8c0,8.8,3.5,15.8,14.2,15.8
			c3.7,0.1,7.4-0.9,10.7-2.7L689.2,375.5z M661.2,381.5v-3.2l-2.9-0.4c-0.7-0.1-0.7-0.2-0.7-0.8v-21.4c0-0.6,0.1-0.8,0.7-0.9
			l2.9-0.4v-3.3h-26v3.2l3,0.3c0.6,0.1,0.7,0.4,0.7,0.9c-0.1,4.3-0.5,9.4-0.8,12.3c-0.9,7.7-2.9,9.6-6.9,9.9l1.1,4.5
			c7.1-0.6,9.6-4.8,10.4-13.1c0.4-4,0.7-8.2,0.8-14.2h8.9v22c0,0.6-0.1,0.8-0.8,0.9l-2.5,0.3v3.2L661.2,381.5L661.2,381.5z
			 M609.2,381.5v-3.3l-4.8-0.3c-0.6-0.1-0.7-0.2-0.7-0.8v-22h5.8c0.3-0.1,0.6,0.1,0.6,0.4c0,0,0,0.1,0,0.1l0.8,4.6h3.7v-9.2h-27.3
			v9.1h3.9l0.7-4.5c0-0.4,0.2-0.7,0.6-0.7c0.1,0,0.1,0,0.2,0h5.7v22c0,0.6-0.1,0.8-0.7,0.8l-4.4,0.3v3.3L609.2,381.5L609.2,381.5z
			 M553.1,393.2c1.8,0.9,3.9,1.4,5.9,1.4c7.1,0,8.5-4.4,11.9-12.5l10.9-26.4c0.3-0.6,0.8-1,1.5-1l2-0.3v-3.3h-11.7l-0.6,3.2l4,0.5
			l-8,19.8h-0.1l-7.8-19.8l3.9-0.5v-3.3h-12.3l-0.7,3.2l2.4,0.6c0.6,0,1.1,0.4,1.2,1l10.6,25.1l-1.5,3.5c-1.5,3.5-2.5,5.7-5.5,5.7
			c-1.6,0-3.2-0.3-4.6-0.9L553.1,393.2z M543,381.5v-3.2l-6.3-0.4c-0.6-0.1-0.6-0.2-0.6-0.8v-22h8.1c0.5,0,0.6,0.1,0.7,0.5l0.8,5
			l4,0.2v-9.6h-22.4v3.3l2.7,0.3c0.6,0.1,0.7,0.2,0.7,0.8V377c0,0.6-0.1,0.8-0.7,0.8l-2.7,0.3v3.2L543,381.5L543,381.5z
			 M507.8,377.9c-5.8,0-8.9-3.7-8.9-11.6s3.4-11.2,9.1-11.2c5.8,0,8.6,3.4,8.6,11.2C516.7,374.2,513.6,377.8,507.8,377.9
			 M507.7,382.2c10.1,0,14.6-6.4,14.6-16.3c0-8.9-3.9-15.3-14-15.3s-14.8,6.4-14.8,15.6S497.4,382.2,507.7,382.2 M488.5,381.4v-3.2
			l-2.9-0.4c-0.3,0.1-0.7-0.2-0.7-0.5c0-0.1,0-0.2,0-0.3v-21.4c0-0.9,0.2-1,0.8-1.1l2.8-0.3v-3.3h-10l-8.7,18.5h-0.1l-8.4-18.5
			h-10.2v3.2l2.7,0.3c0.6,0.1,0.7,0.2,0.7,0.8V377c0,0.6-0.1,0.8-0.7,0.9l-2.7,0.3v3.2h12.5v-3.2l-3.7-0.4c-0.6-0.1-0.6-0.2-0.7-0.8
			v-19.3h0.1l7.6,16.2h5.2l7.6-15.9h0.1v19.1c0.1,0.4-0.1,0.7-0.5,0.8c-0.1,0-0.2,0-0.2,0l-3.6,0.3v3.2L488.5,381.4L488.5,381.4z
			 M444.9,375.8c-2.3,1.3-4.9,1.9-7.6,1.9c-5.7,0-9.6-3.2-9.6-11.4c0-8.4,4.2-11.5,9.4-11.5c1.4,0,2.7,0.2,4,0.5
			c0.4,0.1,0.7,0.4,0.7,0.8l0.7,3.9l4,0.2v-7.8c-2.8-1.3-5.9-1.9-9-1.9c-9,0-15.5,4.9-15.5,16.1c0,9.4,4.3,15.5,14.4,15.5
			c3.9,0,7.8-1,10.1-2.5L444.9,375.8z M396.3,373.4c-1.9,1.7-5.5,4.5-9,4.5c-2.8,0-4.1-1.3-4.1-4.5c0-3.2,1.4-4.5,6.5-5l6.7-0.6
			V373.4z M405.6,381.4v-3.2l-3-0.4c-0.9-0.1-0.9-0.2-0.9-1.2V361c0-8.1-2.8-10.5-11.2-10.5c-4.7,0-11.4,0.8-11.4,8.1l5.1,0.5
			c0.1-4.4,2.7-4.5,6.3-4.5c5.1,0,6,2.1,6,6.4v3.2l-8,0.6c-7.1,0.6-10.7,3.4-10.7,9.3c0,3,0.9,8.1,8.3,8.1c4.5,0,7.8-1.9,10.7-4.6
			l0.2,0.1l0.5,3.8L405.6,381.4L405.6,381.4z M353.9,364.3v-8.7c0-0.6,0.1-0.8,0.6-0.8l2.8-0.4v-3.3H345v3.2l2.7,0.3
			c0.6,0.1,0.7,0.2,0.7,0.8v21.7c0,0.6-0.2,0.7-0.7,0.8l-2.7,0.3v3.2h12.3v-3.2l-2.8-0.3c-0.6-0.1-0.6-0.2-0.6-0.8v-9.3h2.6
			c2.3,0,3,0.4,4.4,3c1.9,3.4,3.6,7,5.2,10.6h8v-3.2l-3.1-0.5c-0.6-0.1-1.2-0.6-1.4-1.2l-3.7-7c-1.2-2.4-2.2-3.4-3.6-3.8v0
			c1.2-0.4,2.4-1.5,3.4-3.7l2.1-5.1c0.7-1.7,1.2-2.4,2.8-2.4c0.4,0,0.9,0.1,1.5,0.1l0.2-3.5c-0.9-0.3-1.9-0.4-2.9-0.5
			c-3.9,0-5,1.9-6.5,5.7l-1.5,3.8c-1.5,3.8-2.3,4.2-4.7,4.2L353.9,364.3L353.9,364.3z M340,381.4v-3.2l-2.9-0.4
			c-0.7-0.1-0.7-0.2-0.7-0.8v-21.4c0-0.6,0.1-0.8,0.7-0.9l2.9-0.4v-3.3h-26.1v3.2l2.9,0.3c0.6,0.1,0.7,0.4,0.7,0.9
			c-0.1,4.3-0.5,9.4-0.8,12.3c-0.9,7.7-2.9,9.6-6.9,9.9l1.1,4.5c7.1-0.6,9.6-4.8,10.4-13.1c0.4-4,0.7-8.2,0.8-14.2h8.9v22
			c0,0.6-0.1,0.8-0.8,0.9l-2.5,0.3v3.2L340,381.4L340,381.4z M287.5,363.5c0.5-6.5,3.7-8.7,7.7-8.7c3.6,0,6.7,1.9,6.8,8.7H287.5
			L287.5,363.5z M305,375.5c-2.6,1.4-5.5,2.2-8.5,2.1c-6.4,0-8.9-4.1-9-10h19.8c0.1-1,0.1-2.2,0.1-3c0-10.2-5-14.1-12.2-14.1
			c-7.5,0-13.5,5-13.5,15.8c0,8.8,3.5,15.8,14.2,15.8c3.7,0.1,7.4-0.9,10.7-2.7L305,375.5z M304.4,342.5c0-1.8-1.4-3.3-3.2-3.4
			c-1.8,0-3.3,1.4-3.4,3.2s1.4,3.3,3.2,3.4c0,0,0,0,0.1,0c1.7,0.1,3.2-1.1,3.3-2.8C304.4,342.8,304.4,342.7,304.4,342.5
			 M292.4,342.5c-0.1-1.8-1.7-3.2-3.5-3.1c-1.7,0.1-3,1.4-3.1,3.1c0.1,1.8,1.7,3.2,3.5,3.1C291,345.5,292.3,344.2,292.4,342.5
			 M233.5,381.4h43.3v-3.2l-2.8-0.4c-0.5-0.1-0.6-0.2-0.6-0.8v-21.6c0-0.6,0.1-0.8,0.6-0.8l2.8-0.3v-3.3h-11.9v3.2l2.4,0.3
			c0.6,0.1,0.7,0.2,0.7,0.9v21.9h-10.3v-21.9c0-0.6,0.1-0.8,0.6-0.8l2.6-0.3v-3.3h-11.7v3.2l2.5,0.3c0.4-0.1,0.7,0.2,0.7,0.5
			c0,0.1,0,0.2,0,0.3v22h-10.1v-21.9c0-0.6,0.1-0.8,0.7-0.8l2.2-0.3v-3.3h-11.8v3.2l2.9,0.3c0.6,0.1,0.7,0.2,0.7,0.8V377
			c0,0.6-0.1,0.8-0.7,0.8l-2.9,0.4L233.5,381.4L233.5,381.4z M205,350.5c-3.7,0-7.4,0.8-10.7,2.4v6.9l3.9-0.2l0.7-3.7
			c0-0.4,0.3-0.7,0.6-0.8c1.5-0.5,3.1-0.7,4.7-0.7c3.1,0,5.7,1.2,5.7,4.4c0,3.2-2.7,5.4-7.5,5.4h-3.2v4h5.4c3.7,0,6.1,1.5,6.1,4.6
			c0,3.9-3.2,5.2-7.1,5.2c-3.2,0-6.3-1.1-8.9-3.1l-2.3,3.5c2.8,2.5,7.5,3.7,11.6,3.7c7.4,0,12.2-3.5,12.2-9c0-4.7-2.9-6.7-7-7.5
			v-0.2c3.4-0.9,6.1-3.5,6.1-7.6C215.2,353.2,211.4,350.5,205,350.5 M189,381.4v-3.2l-3-0.4c-0.6-0.1-0.7-0.2-0.7-0.8v-21.5
			c0-0.6,0.1-0.7,0.7-0.8l3-0.4v-3.3h-9.4l-13.9,23.8h-0.2v-19.4c0-0.6,0-0.7,0.6-0.8l2.9-0.4v-3.3h-12.3v3.2l2.7,0.3
			c0.6,0.1,0.7,0.2,0.7,0.8v21.6c0,0.6-0.1,0.8-0.7,0.8l-2.7,0.3v3.2h9.4l13.7-23.3h0.2v18.9c0,0.6-0.1,0.8-0.6,0.8l-2.7,0.3v3.2
			L189,381.4L189,381.4z M108.2,377.5v-10.6h3.7c3.9,0,6.8,0.8,6.8,5.1c0,4.1-2.8,5.5-6.5,5.5H108.2z M138.9,381.4v-3.2l-3.3-0.4
			c-0.6-0.1-0.7-0.2-0.7-0.8v-21.4c0-0.6,0.1-0.8,0.7-0.9l3.3-0.4v-3.3h-13.2v3.2l3.1,0.3c0.6,0.1,0.7,0.2,0.7,0.9V377
			c0,0.8-0.2,0.8-0.8,0.9l-3,0.3v3.2L138.9,381.4L138.9,381.4z M102.9,377.3c0.1,0.3-0.1,0.6-0.4,0.6c0,0-0.1,0-0.1,0l-2.9,0.4v3.2
			h12.7c6.8,0,12-2.8,12-9.7c0-6.4-4.7-8.6-10.3-8.6h-5.7v-7.7c0-0.6,0.1-0.8,0.8-0.8l4.2-0.4v-3.3H99.3v3.2l3,0.3
			c0.5,0.1,0.6,0.2,0.6,0.8V377.3z M89.9,381.5v-3.3l-4.8-0.3c-0.6-0.1-0.7-0.2-0.7-0.8v-22h5.8c0.3-0.1,0.6,0.1,0.6,0.4
			c0,0,0,0.1,0,0.1l0.8,4.6h3.7v-9.2H67.9v9.1h3.9l0.7-4.5c0-0.4,0.2-0.7,0.6-0.7c0.1,0,0.1,0,0.2,0H79v22c0,0.6-0.1,0.8-0.7,0.8
			l-4.4,0.3v3.3L89.9,381.5L89.9,381.5z M64,381.5v-3.3l-3-0.4c-0.6-0.1-0.6-0.2-0.6-0.8v-21.4c-0.1-0.4,0.2-0.8,0.6-0.9
			c0.1,0,0.2,0,0.3,0l2.8-0.4v-3.3H51.7v3.2l2.6,0.3c0.6,0.1,0.7,0.2,0.7,0.8v8.3H40.5v-8.2c0-0.6,0.2-0.8,0.8-0.8l2.7-0.4v-3.2
			H31.6v3.2l2.7,0.3c0.6,0.1,0.7,0.2,0.7,0.8V377c0,0.6-0.1,0.8-0.7,0.9l-2.7,0.3v3.2H44v-3.2l-2.8-0.4c-0.6-0.1-0.6-0.2-0.6-0.8
			v-9.2H55v9.3c0,0.6-0.1,0.8-0.7,0.8l-2.6,0.3v3.2L64,381.5L64,381.5z M26.8,381.5v-3.3l-3-0.4c-0.6-0.1-0.7-0.2-0.7-0.8v-21.5
			c0-0.6,0.1-0.7,0.7-0.8l3-0.4v-3.3h-9.4L3.6,374.9H3.3v-19.4c0-0.6,0-0.7,0.6-0.8l2.9-0.4v-3.3H-5.4v3.2l2.7,0.3
			c0.6,0.1,0.7,0.2,0.7,0.8v21.6c0,0.6-0.1,0.8-0.7,0.8l-2.7,0.3v3.2h9.4l13.7-23.3h0.2v18.9c0,0.6-0.1,0.8-0.6,0.8l-2.7,0.3v3.2
			L26.8,381.5L26.8,381.5z M-24.3,378.1c-5.5,0-8.1-4-8.1-11.4c0-6.6,3.2-10.6,8.7-10.6c5.2,0,7.7,3.1,7.7,10.6
			S-18.9,378.1-24.3,378.1 M-24.5,382.2c9.8,0,14-6.4,14-15.8c0-8.9-3.5-14.6-12.6-14.6c-4.5-0.1-8.8,2.3-10.9,6.3h-0.1
			c0.9-9.3,3.7-12.3,13.7-13.6c5.3-0.7,8.4-1.4,8-6.9l-3.9,0.2c-0.4,1.4-0.8,1.3-5.8,2.2c-13.6,2.4-16,10.1-16,23.7
			C-38.1,375.3-34.5,382.2-24.5,382.2 M-56.4,355.2c0-2.5-1.4-3.7-3.9-3.7c-2.5,0-3.9,1.2-3.9,3.7c0,2.5,1.4,3.7,3.9,3.7
			C-57.8,358.9-56.4,357.7-56.4,355.2 M-56.4,378.5c0-2.5-1.4-3.7-3.9-3.7c-2.5,0-3.9,1.2-3.9,3.7c0,2.5,1.4,3.7,3.9,3.7
			C-57.8,382.2-56.4,381-56.4,378.5 M-84.5,364.1c0.9-4.7,3.6-7.6,6.9-7.6c1.9,0,2.8,0.8,2.8,2.2C-74.8,362.5-82,363.7-84.5,364.1
			 M-70.5,373.4c-2.7,1.2-5.6,2-8.6,2.1c-4.4,0-5.7-2.8-5.8-5.8c9.2-0.9,18.1-3.4,18.1-11.9c0-4.8-3.2-7.8-9.7-7.8
			c-9.6,0-17.5,7.1-17.5,19.5c0,7.1,3.3,12.6,12.6,12.6c4.2-0.1,8.4-1.1,12.2-3L-70.5,373.4z M-98.5,381.4l0.6-4.4l-2.8-0.4
			c-0.9-0.1-0.9-0.2-0.8-1.2l3.5-24.8h-12.6l-0.6,4.5l2.9,1c0.5,0.2,0.8,0.7,0.6,1.2c0,0,0,0,0,0.1l-2.2,15.8l-1.4,8l0.1,0.3
			L-98.5,381.4L-98.5,381.4z M-129.3,367.9c1-0.3,2.1-0.4,3.1-0.4c1.9-0.1,3.4,1.3,3.5,3.2c0,0.2,0,0.3,0,0.5c0,3.4-2.1,5-5,5
			c-0.9,0-1.9-0.1-2.8-0.4L-129.3,367.9z M-123.5,361.9c-1.7,0.1-3.4,0.3-5.1,0.6l1.7-11.6l-0.2-0.3h-12.5l-0.6,4.5l2.8,0.9
			c0.5,0.1,0.7,0.6,0.6,1.1c0,0,0,0.1,0,0.1l-3.2,23.3c3.7,1,7.4,1.6,11.2,1.5c7.6,0,14.8-3.2,14.8-11.6
			C-114,365.1-117.5,361.9-123.5,361.9 M-157.7,374.7l-1.1,6.2l0.4,0.5h12.5l0.6-4.3l-2.9-0.5c-0.5,0-0.8-0.4-0.8-0.9
			c0-0.1,0-0.2,0.1-0.2l3.4-24.3l-0.5-0.5h-8.3l-1.7,11.8h-10.5l1.6-11.3l-0.4-0.5h-12.2l-0.6,4.5l2.8,0.8c0.5,0.1,0.8,0.7,0.7,1.1
			c0,0,0,0,0,0l-3.4,23.8l0.4,0.5h8.4l1.9-12.7h10.4L-157.7,374.7z M-181,341.7c0.2-1.8-1.2-3.5-3-3.6c-0.2,0-0.4,0-0.6,0
			c-2.7,0-4.8,1.8-4.8,4.5c-0.1,1.9,1.3,3.5,3.2,3.7c0.2,0,0.3,0,0.5,0c2.5,0.2,4.6-1.7,4.8-4.2C-181,341.9-181,341.8-181,341.7
			 M-193.3,341.7c0.2-1.8-1.2-3.5-3-3.6c-0.2,0-0.4,0-0.6,0c-2.7,0-4.8,1.8-4.8,4.5c-0.1,1.9,1.3,3.5,3.2,3.7c0.2,0,0.3,0,0.5,0
			c2.5,0.2,4.6-1.7,4.8-4.2C-193.2,341.9-193.2,341.8-193.3,341.7 M-199.8,364c0.9-4.7,3.6-7.6,6.9-7.6c1.9,0,2.8,0.8,2.8,2.2
			C-190.1,362.5-197.3,363.7-199.8,364 M-185.8,373.4c-2.7,1.2-5.6,2-8.6,2.1c-4.4,0-5.7-2.8-5.8-5.8c9.2-0.9,18.1-3.4,18.1-11.9
			c0-4.8-3.2-7.8-9.7-7.8c-9.6,0-17.5,7.1-17.5,19.5c0,7.1,3.3,12.6,12.6,12.6c4.2-0.1,8.4-1.1,12.2-3L-185.8,373.4z M-234.8,371.8
			c3.5,0,6.5-1.3,10.1-3.4c0.1,0,0.1,0.1,0.1,0.1l-1.9,12.3l0.2,0.5h12.1l0.6-4.6l-2.8-0.4c-0.6-0.1-0.7-0.3-0.6-0.9l3.4-24.4
			l-0.4-0.4H-225l-0.6,4.5l2.2,0.5c0.6,0.1,0.7,0.4,0.6,1.1l-0.8,5.6c-2.8,2-4.9,2.9-6.7,2.9c-1.8,0-2.3-0.9-1.9-3.2l1.4-10.9
			l-0.4-0.4h-11.4l-0.7,4.4l2.4,0.5c0.5,0.1,0.6,0.4,0.5,1l-0.9,6.3c-0.1,0.8-0.2,1.6-0.2,2.5C-241.5,369.5-239.6,371.8-234.8,371.8
			 M-267.7,371.5c-1.5,2.6-2.7,3.7-5.2,3.7c-2-0.1-3.9-0.6-5.7-1.4l-2.5,6.4c2.8,1.3,5.8,2,8.9,2.1c5.3,0,9-2.1,13-9.3l15.2-27.3
			c0.5-0.9,0.8-1.4,1.7-1.7l2.9-0.8l0.6-4.4h-14.9l-1.2,4.4l4.1,0.5l-10.2,19.3h-0.3l-4.4-19.3l4.3-0.6l0.6-4.4h-17l-1.2,4.4
			l2.6,0.6c0.7,0.1,1.2,0.6,1.4,1.2L-267.7,371.5z"/>
	</g>
	<g>
		<path d="M1079.7,490c5.1-4,10.3-7.9,14.3-7.9c4.9,0,5.5,6.4,5.5,11.9c0,11.5-3.4,25.3-13,25.3c-3.8-0.2-7.4-1.4-10.6-3.4
			L1079.7,490z M1044.5,544.9l-4.3,24.7l0.1,0.6h46l1.9-13.3l-15.8-1.5c-1.9-0.1-2.4-0.9-2.2-2.2l3-19.5l0.9-0.1
			c3,2.8,10.1,6.9,18.5,6.9c21.2,0,36-15.8,36-51.2c0-22-9.1-30.4-22.3-30.4c-8.3,0-17,4-25.9,12.7l-0.7-0.3l1.6-10.7h-34.1
			l-1.9,13.7l6.9,2.8c1.3,0.6,1.8,1.5,1.5,3.1L1044.5,544.9z M994.7,521.7c-5.7,0-9.4-3.4-9.4-13.6c0-2.9,0.2-5.8,0.6-8.6
			c1.9-17.1,8.5-21.5,14.5-21.5c5.7,0,9.1,3.6,9.1,13.3c0,3.1-0.2,6.3-0.6,9.4C1006.5,516.9,1001.6,521.7,994.7,521.7 M992.7,540.4
			c28.6,0,41.7-16.5,45.1-40.4c0.5-3.1,0.7-6.1,0.7-9.2c0-17.3-8.5-32-34.9-32c-27.1,0-42.8,15.8-46.2,39.9c-0.4,3-0.6,6.1-0.6,9.1
			C956.9,528.1,968,540.4,992.7,540.4 M922.1,458.8c-11.6,0-24.9,3-31.7,6.3l-3.1,22l20-0.7l2.8-7.7c0.4-1.5,0.9-1.9,1.8-2.1
			c2-0.3,4-0.5,6-0.4c5.1,0,7.6,2.1,7.6,6.3c0,4.5-4,8.8-14.6,8.8h-8l-2.4,17.8h15.5c2.8,0,6.5,0.4,6.5,4.9c0,5.4-5.5,6.7-10.7,6.7
			c-9.8,0-20.4-4.6-24.1-7l-9.5,16.5c7.9,6.5,20.9,10.4,33.8,10.4c19.8,0,38-8.6,38-26.2c0-11.2-7-14.5-13.1-16.4v-0.3
			c8.9-3.6,15.9-9.8,15.9-19.5C952.6,467.7,946.1,458.9,922.1,458.8 M834.3,521.7c-5.4,0-8-3-8-11.6c0-10,1.5-29.1,14.2-29.1
			c5.4,0,7.9,2.7,7.9,10.3C848.3,500.7,846.2,521.7,834.3,521.7 M832.3,540.5c31.4,0,45-23.8,45-48.7c0-18.9-9.2-29.9-28.6-29.9
			c-13.4,0-23.5,6.4-29.5,16.2l-0.7-0.3c6.4-20.4,11.6-23.4,45.9-26.2c13.1-1,19.8-9.1,19.8-25.3l-18.6,0.4
			c-0.4,1.9-2.8,2.8-14.8,5.1c-43.4,8.2-52.6,39.5-52.6,69C798.2,523.6,805.5,540.6,832.3,540.5 M747.2,521.8
			c-5.7,0-9.4-3.4-9.4-13.6c0-2.9,0.2-5.8,0.6-8.6c1.9-17.1,8.5-21.5,14.5-21.5c5.7,0,9.1,3.6,9.1,13.3c0,3.1-0.2,6.3-0.6,9.4
			C759,517,754.1,521.8,747.2,521.8 M745.2,540.5c28.6,0,41.7-16.5,45.1-40.4c0.5-3.1,0.7-6.1,0.7-9.2c0-17.3-8.5-32-34.9-32
			c-27.1,0-42.8,15.8-46.2,39.9c-0.4,3-0.6,6.1-0.6,9.1C709.4,528.1,720.5,540.5,745.2,540.5 M636.6,439.3c-6.3,0-9.1-4.2-8.8-11.2
			l-18,5.1c1.2,13.1,10,20.9,26.4,20.9c14.8,0,23.5-6.1,28.2-21.3l-17.3-4.3C645.1,435.7,642.3,439.3,636.6,439.3 M638.4,509.4
			c-4,3.3-9.4,7.5-12.8,7.5c-2.7,0-3.9-1.8-3.3-6.1l7-50.4H593l-1.8,13.3l6.9,1c2.1,0.3,2.1,0.6,1.8,3l-5.2,36.9
			c-0.3,2.2-0.4,4.4-0.4,6.5c0,12.8,6.4,19.1,17.4,19.1c11.5,0,18.5-6.1,26.2-12.8l0.6,0.4l-1.5,10.7h33.8l1.9-13.3l-7.2-1.2
			c-1.6-0.3-1.6-1.5-1.3-3.1l8.5-60.6h-36.5l-1.8,13.3l6.4,1c2.2,0.3,2.2,0.6,1.9,3L638.4,509.4z M502.4,504.7c1-0.2,2-0.3,3-0.3
			c4.8,0,7.9,2.2,7.9,7.6c0,6.7-3.1,10.4-8.8,10.4c-1.6,0-3.1-0.1-4.6-0.4L502.4,504.7z M580.4,538.6l1.6-13.3l-6.1-1
			c-2.2-0.3-2.2-0.6-1.9-3l8.5-60.9h-36.6l-1.9,13.7l7,2.8c1.3,0.4,1.8,1.5,1.5,3.1l-4.9,35.8l-3.9,21.9l0.4,0.9L580.4,538.6
			L580.4,538.6z M470.1,536.7c9.6,2.4,19.4,3.7,29.2,3.7c21,0,41.2-8.2,41.2-30.5c0-13.7-8.6-22-24.3-22c-4,0.1-7.9,0.7-11.8,1.6
			l4.2-28.2l-0.6-0.9h-36.7l-2,13.8l7,2.8c1.2,0.6,1.8,1.3,1.5,3.4L470.1,536.7z M418.4,491.1l1.2-7c0.7-4.6,3.7-6.7,8.3-6.7
			c3.4,0,6.7,1.3,6.7,6.1c0,5.2-3.7,7.6-8.2,7.6L418.4,491.1L418.4,491.1z M416.1,507.5h7.6c4.6,0,8.5,1,8.5,6c0,5.5-3.7,8.3-10,8.3
			c-2.7,0-5.4-0.2-8-0.7L416.1,507.5z M422.1,540.4c19.2,0,38-7.5,38-26.7c0-10.1-6.5-15-16.1-15.9l0.1-0.6
			c8.9-1.8,16.2-8.8,16.2-19.2c0-13.3-11.3-19.2-31.1-19.2c-23.2,0-35,7.6-37.5,27l-6.7,50.1C391.4,537.9,406,540.5,422.1,540.4
			 M335.8,521.7c-5.7,0-9.4-3.4-9.4-13.6c0-2.9,0.2-5.8,0.6-8.6c1.9-17.1,8.5-21.5,14.5-21.5c5.7,0,9.1,3.6,9.1,13.3
			c0,3.1-0.2,6.3-0.6,9.4C347.7,516.9,342.7,521.7,335.8,521.7 M333.8,540.4c28.6,0,41.7-16.5,45.1-40.4c0.5-3.1,0.7-6.1,0.7-9.2
			c0-17.3-8.5-32-34.9-32c-27.1,0-42.8,15.8-46.2,39.9c-0.4,3-0.6,6.1-0.6,9.1C298,528.1,309.1,540.4,333.8,540.4 M282,516.1
			c-4.6,1.5-11.6,4-18.8,4c-6.9,0-12.5-3.1-12.5-15.8c0-20,7.7-26.8,15.2-26.8c1.8,0,3.6,0.2,5.4,0.7c1.2,0.3,1.5,1.2,1.5,2.5
			l0.4,10l18.5,0.7l3.6-25.5c-4.6-3.7-15.3-7.3-26.8-7.3c-26.2,0-46.2,16.4-46.2,48.3c0,19.6,10,33.4,33.5,33.4
			c10.6-0.1,21.1-2.8,30.4-8L282,516.1z M213.6,538.6l1.9-13.1l-7.3-1.3c-1.6-0.1-1.9-1-1.8-2.7l8.2-59.6l-1.6-1.5h-25.8l-3.9,28.5
			h-21.2l3.7-26.8l-1.2-1.6h-35.2l-1.9,13.9l6.9,1.9c1.3,0.4,1.9,1.3,1.6,3l-8.2,58l1.2,1.5h26.2l4.3-30.5h20.9l-4.2,29.1l1.3,1.5
			L213.6,538.6L213.6,538.6z M82.9,509c-4.9,4.6-11.8,8.6-15.5,8.6c-4.6,0-5.8-3.9-5.8-10c0-8.3,2.8-28.2,15-28.2
			c3.4,0,7.2,1.8,9.8,4L82.9,509z M114.2,538.6l1.8-13.3l-6.7-1c-2.1-0.3-2.2-0.6-1.9-2.8l5.7-40.8c0.9-6.7,2.4-13.6,3.7-20.3H93.6
			l-3.1,7c-5.1-5.6-12.4-8.8-20-8.6c-28,0-37.7,28.9-37.7,50.9c0,20.7,8,30.7,22.9,30.7c10.1,0,17-4.3,26.4-13.3l0.7,0.3l-1.6,11.2
			L114.2,538.6L114.2,538.6z M23.9,538.6l1.9-13.1l-7.3-1.3c-1.6-0.1-1.9-1-1.8-2.7l8.2-59.6l-1.6-1.5H-2.5l-3.9,28.5h-21.1
			l3.7-26.8l-1.2-1.6h-35.2l-1.9,13.9l6.9,1.9c1.3,0.4,1.9,1.3,1.6,3l-8.2,58l1.2,1.5h26.2l4.3-30.5h20.9l-4.2,29l1.3,1.5
			L23.9,538.6L23.9,538.6z M-107.5,509.5c-4,3.3-9.4,7.5-12.8,7.5c-2.7,0-3.9-1.8-3.3-6.1l7-50.4H-153l-1.8,13.3l6.9,1
			c2.1,0.3,2.1,0.6,1.8,3l-5.2,36.9c-0.3,2.2-0.4,4.4-0.4,6.5c0,12.8,6.4,19.1,17.4,19.1c11.5,0,18.5-6.1,26.2-12.8l0.6,0.4
			l-1.5,10.7h33.8l2-13.3l-7.2-1.2c-1.6-0.3-1.6-1.5-1.3-3.1l8.5-60.6h-36.5l-1.9,13.3l6.4,1c2.2,0.3,2.2,0.6,1.9,3L-107.5,509.5z
			 M-238,519.8c-8.3,0-14-3.6-14-13.9c0-21.3,10.1-25.3,18.3-25.3h1.2L-238,519.8z M-204.5,480.5c8.2,0,14.3,2.7,14.3,13.6
			c0,21.3-10.6,25.3-18.6,25.3h-1L-204.5,480.5z M-212.8,540.7c26.5-0.1,50.6-11.6,50.6-48.7c0-19.2-12.1-31-39.3-31.9l4.8-33.8
			h-35.5l-4,14.2l7.3,2.8c1,0.2,1.7,1,1.7,2c0,0.3-0.1,0.7-0.1,1l-1.8,13.3c-24.6,0.3-51.1,10.4-51.1,47.1
			c0,19.6,11.6,31.6,39.9,33.5l-1.9,12.5c-0.3,2.2-0.6,2.7-2.7,3l-6.4,0.9l-2.1,13.8h45.3l2.1-13.7l-6.3-1.1
			c-1.8-0.1-2.2-0.4-2.2-1.6c0-0.5,0-0.9,0.1-1.3L-212.8,540.7z"/>
	</g>
	<g>
		<path d="M1109.7,728.2c5.5,0,7.8,2.3,7.8,5.9c0,5.7-5.2,7.4-10.8,9.2c-6.4,2.1-13.1,4.3-13.1,12.2c0,6.3,4.6,9.7,11.2,9.7
			c5.5-0.1,10.8-2.5,14.5-6.5l-2-2.3c-2.9,2.8-6.7,5.7-12.2,5.7c-4.6,0-7.7-2.4-7.7-6.9c0-5.1,4.5-7,9.7-8.7
			c7.2-2.3,14.1-4.6,14.1-12.5c0-5.8-3.7-8.8-11.2-8.8c-4,0-7.9,0.9-11.4,2.6l-1.1,8.1h2.8l1.6-5.4c0.1-0.5,0.4-1,0.9-1.2
			C1105,728.5,1107.4,728.2,1109.7,728.2 M1060.4,738.3c3.2-3.2,10.8-9.7,15.9-9.7c4.2,0,7.2,2,7.2,11.4c0,9.1-3.7,22.2-14.3,22.2
			c-4.7,0-8.8-3.5-11.2-6.4L1060.4,738.3z M1062.1,780.4l0.4-2.7l-6.5-0.4c-1.1-0.1-1.1-0.3-0.9-1.6l2.2-15.9
			c3.4,3.4,7.1,5.5,12.2,5.5c12.9,0,17.8-14.6,17.8-25.7c0-10.4-4.5-14.3-10.6-14.3c-5.8,0-10.9,4.1-15.6,8.4l1.1-7.7h-9.1l-0.3,2
			l4.3,1.1c0.6,0.1,0.8,0.7,0.7,1.6l-5,36.5l-2,12.9l0.3,0.3L1062.1,780.4L1062.1,780.4z M1021.3,769.1c-3.8,7.2-5.1,8.8-9.4,8.8
			c-2.4-0.2-4.6-1.1-6.5-2.5l-2,2.8c2.4,1.9,5.4,3,8.5,3c6.6,0,9.1-3.6,13.1-11.3l22.1-43.6l-0.2-0.3h-9.9l-0.2,2l4.7,0.9
			l-14.2,28.9l-4.8-22.3l-1.6-9.3l-0.2-0.2h-7.2l-0.5,2l3.1,0.8c0.7,0.1,1.2,0.6,1.3,1.3l7.2,32.4L1021.3,769.1z M989.6,762.1
			c-8.1,0-10.5-6.3-10.5-13.6c0-10.5,5.4-18.6,15.8-18.6c6.9,0,9.8,4.2,9.8,11.1C1004.7,751.3,1000.7,762.1,989.6,762.1
			 M989.2,765.3c14.3,0,19.3-12.8,19.3-24.8c0-7.4-4.1-13.9-13.1-13.9c-5.4,0-11.5,2.1-15.1,8.3l-0.3-0.1
			c3.2-11.4,8.9-17.1,19.9-19.1c7.2-1.3,10.6-1.4,10.7-7.2l-3.2,0.1c-0.8,2-1.2,2.3-7.8,3.5c-11.1,2-17.9,8.4-20.9,16.8
			c-2.2,6.3-3.3,13-3.3,19.7C975.5,758.7,980,765.3,989.2,765.3 M941.5,738.3c3.2-3.2,10.8-9.7,15.9-9.7c4.2,0,7.2,2,7.2,11.4
			c0,9.1-3.7,22.2-14.3,22.2c-4.7,0-8.8-3.5-11.2-6.4L941.5,738.3z M943.2,780.4l0.4-2.7l-6.6-0.6c-1.1-0.1-1.1-0.3-0.9-1.6
			l2.2-15.9c3.4,3.4,7.1,5.5,12.2,5.5c12.9,0,17.8-14.6,17.8-25.7c0-10.4-4.5-14.3-10.6-14.3c-5.8,0-10.9,4.1-15.6,8.4l1.1-7.7h-9.1
			l-0.3,2l4.3,1.1c0.6,0.1,0.8,0.7,0.7,1.6l-5,36.5l-2,12.9l0.3,0.3H943L943.2,780.4z M901.1,745.5c1.3-8.8,7.3-16.9,15.9-16.9
			c4.2,0,5.9,2.3,5.9,5.4C922.9,743,907.3,744.7,901.1,745.5 M922.3,759.6c-3.4,1.6-7.1,2.5-10.9,2.4c-8.9,0-10.8-4.8-10.7-13.4
			c7.3-0.9,26-2.8,26-15c0-4.2-2.1-8.3-9.4-8.3c-12.6,0-20.2,12.8-20.2,24.9c0,8.9,3.5,15.1,13.9,15.1c4.2,0.1,8.4-0.8,12.2-2.7
			L922.3,759.6z M889,764.4l0.4-2.3l-4.7-0.6c-1.1-0.1-1.2-0.3-1.1-1.5l3.1-21.3c0.3-1.9,0.5-3.8,0.5-5.7c0.1-4.8-1.8-7.8-7.6-7.8
			c-6.1,0-12.1,5.9-16,9.3c0.7-6-1.7-9.4-7.7-9.4c-5.1,0-9.8,3.2-16.4,8.9l1.1-8.1h-9l-0.5,1.9l4.2,1.1c0.6,0.3,0.9,1,0.7,1.6
			l-3.9,29.3c-0.1,1.1-0.4,1.4-1.4,1.5l-3.8,0.5l-0.5,2.3h15.3l0.4-2.3l-5.3-0.6c-1.1-0.1-1.2-0.3-1.1-1.5l2.9-21.9
			c4.3-3.9,11.4-9.6,16.3-9.6c3.2,0,4.7,0.8,4.7,5.1c-0.1,2.3-0.3,4.6-0.6,6.9l-2.4,16.7l-1.5,6.9l0.2,0.3h9.9l0.3-2.3l-4.6-0.6
			c-1.1-0.1-1.2-0.3-1.1-1.5l3.1-21.7c8.2-7,11.9-9.8,15.9-9.8c3.6,0,4.5,1.7,4.5,4.8c-0.1,2.4-0.3,4.7-0.7,7.1l-2.6,18.3l-1.1,5.3
			l0.1,0.3h9.7L889,764.4z M798.4,745.5c1.3-8.8,7.3-16.9,15.9-16.9c4.2,0,5.9,2.3,5.9,5.4C820.1,743,804.6,744.7,798.4,745.5
			 M819.5,759.6c-3.4,1.6-7.1,2.5-10.9,2.4c-8.9,0-10.8-4.8-10.7-13.4c7.3-0.9,26-2.8,26-15c0-4.2-2.1-8.3-9.4-8.3
			c-12.6,0-20.2,12.8-20.2,24.9c0,8.9,3.5,15.1,13.9,15.1c4.2,0.1,8.4-0.8,12.2-2.7L819.5,759.6z M783.6,764.5l0.4-2.3l-4.9-0.6
			c-0.9-0.1-1.1-0.3-0.9-1.5l6.3-46c0.1-1.1,0.3-1.3,1.4-1.4l5-0.6l0.2-2.3h-46.8l-0.3,2.3l4.5,0.5c1.1,0.1,1.1,0.4,0.9,1.5l-6.4,46
			c-0.1,1.1-0.3,1.4-1.4,1.5l-4.8,0.5l-0.3,2.3h15.5l0.4-2.3l-4.9-0.6c-1.1-0.1-1.1-0.3-0.9-1.5l6.5-47.2H781l-6.5,47.3
			c-0.1,1.1-0.3,1.4-1.4,1.5l-4.7,0.5l-0.4,2.3L783.6,764.5L783.6,764.5z M732,744.7l0.6-3.9h-20.5l-0.6,3.9H732L732,744.7z
			 M705.1,764.5l0.4-2.3l-4.7-0.6c-1.1-0.1-1.2-0.3-1.1-1.5l3.1-21.3c0.3-1.9,0.5-3.8,0.5-5.7c0.1-4.8-1.8-7.8-7.6-7.8
			c-6.1,0-12.1,5.9-16,9.3c0.7-6-1.7-9.4-7.7-9.4c-5.1,0-9.8,3.2-16.4,8.9l1.1-8.1h-9l-0.2,2l4.2,1.1c0.6,0.3,0.9,1,0.7,1.6
			l-3.9,29.3c-0.1,1.1-0.4,1.4-1.4,1.5l-3.9,0.5l-0.4,2.3h15.3l0.4-2.3l-5.3-0.6c-1.1-0.1-1.2-0.3-1.1-1.5l2.9-21.9
			c4.1-4.1,11.2-9.7,16.1-9.7c3.2,0,4.7,0.8,4.7,5.1c-0.1,2.3-0.3,4.6-0.6,6.9l-2.4,16.7l-1.5,6.9l0.2,0.3h9.9l0.3-2.3l-4.6-0.6
			c-1.1-0.1-1.2-0.3-1.1-1.5l3.1-21.7c8.2-7,11.9-9.8,15.9-9.8c3.6,0,4.5,1.7,4.5,4.8c-0.1,2.4-0.3,4.7-0.8,7.1l-2.6,18.3L695,764
			l0.1,0.3h9.7L705.1,764.5z M615.7,743.4l2.4-17.1L618,726h-8.2l-0.2,2l3.4,0.9c0.8,0.1,0.9,0.5,0.8,1.6l-4.8,33.8h3.7l2.6-18.2
			h4.2c3,0,4.4,0.9,5.9,3.7c2.4,4.7,4.5,9.5,6.3,14.4h7l0.4-2.3l-3.5-0.6c-0.8-0.2-1.3-0.7-1.5-1.5l-4.4-9.7c-1.5-3.5-3-4.6-4.9-5.4
			c3.7-1.2,5.6-3.5,7.2-6.9l3.1-6.2c1.3-2.6,1.9-3.6,4.1-3.6c0.7,0,1.5,0.1,2.2,0.2l0.4-2.8c-1.1-0.2-2.2-0.4-3.2-0.4
			c-3.6,0-4.9,1.8-6.5,5.2l-3.4,6.8c-2,3.9-4.4,6.1-7.9,6.1L615.7,743.4L615.7,743.4z M571,742.8l2.4-16.8h-9.1l-0.2,2l4.2,0.9
			c0.8,0.1,0.9,0.6,0.8,1.6l-4.8,33.5l0.1,0.3h3.5l2.6-18.4h21.1l-1.5,10.4L589,764l0.1,0.3h9l0.4-2.3l-4.1-0.6
			c-1.1-0.1-1.2-0.3-1.1-1.5l4.9-34h-3.7l-2.4,16.8L571,742.8L571,742.8z M546.2,752c-3.6,3.8-9.4,10.2-15.4,10.2
			c-4.4,0-7.8-2.6-7.8-11.2c0-9.5,3.5-22.6,14.5-22.6c4.3,0.1,8.4,1.9,11.4,5L546.2,752z M553.3,764.3l0.4-2.3l-3.9-0.5
			c-1.1-0.1-1.2-0.3-1.1-1.5l3.5-25.4c0.5-2.9,1.1-5.8,2-8.7h-3.7l-1.1,3.7c-3.2-2.7-7.2-4.3-11.4-4.5c-13.9,0-18.6,14.3-18.6,26.1
			c0,9.4,4.2,13.9,11.2,13.9c6,0,10.7-4.5,15.1-8.8l-1.1,7.8L553.3,764.3L553.3,764.3z M511.6,752h-2.5l-2.2,6.5
			c-0.1,0.6-0.5,1.1-1.1,1.3c-3.6,1.6-8.7,2.1-12.6,2.1c-12.3,0-18.3-7.3-18.3-20.5c0-18.6,11-29.4,25.9-29.4
			c3.6,0,7.2,0.7,10.5,2.1c0.6,0.2,1,0.8,0.9,1.4l0.3,6.9l2.9,0.1l1.4-10.1c-3.2-2.3-8.6-3.9-15.3-3.9c-19.8,0-30.4,14-30.4,33.2
			c0,13.4,6.1,23.3,21.4,23.3c6.8,0,13.7-1.1,17.8-3.9L511.6,752z M439,773.3l5.4-8.6c0.9-1.7,2.3-3.9,2.3-5.9
			c0-4.6-4.3-5.1-9.7-5.2l-2.9,8.2l2.9,1.1c0.4,0.1,0.5,0.4,0.3,0.9l-3.2,8.1L439,773.3z M422.6,736c-0.2,12.1-2.8,24-13.4,24
			c-6.9,0-8.8-5.4-8.8-10.6c0-10.2,3.9-17.8,12.2-17.8C416.4,731.6,420.1,733.2,422.6,736 M404.2,707.9l-2.6,5.1
			c12.4,1.9,19.5,6.7,21.4,17.4c0,0-0.1,0-0.1,0.1c0,0,0,0,0,0c-3-2.6-6.8-4.1-10.8-4.1c-12.1,0-18.7,9.9-18.7,22.8
			c0,9.5,4.6,16,15.5,16c18.7,0,20.5-20.8,20.5-30.7C429.5,724.4,425.9,710.6,404.2,707.9 M376.1,750.7c-3.6,3.9-8.5,8.7-13.1,8.7
			c-3.9,0-6.5-2.3-6.5-9.1c0-7.8,2.9-19.9,12.3-19.9c3.6,0.1,7,1.6,9.5,4.1L376.1,750.7z M385.8,764.3l0.6-3.7l-3.7-0.5
			c-1.1-0.1-1.2-0.3-1.1-1.5l3.3-23.8c0.5-3.1,1.2-6.2,2-9.3h-6.3l-1.2,3.5c-2.9-2.6-6.7-4.1-10.7-4.2c-14.1,0-18.9,14.4-18.9,26
			c0,9.8,4.2,14.4,11.3,14.4c5.7,0,10.1-3.5,14.4-7.8l0.2,0.1l-0.9,6.8L385.8,764.3L385.8,764.3z M317.8,739.2
			c3.2-3,8.9-8.3,13.7-8.3c3.3,0,5.7,2.6,5.7,9.4c0,8.2-3.2,19.5-12,19.5c-4,0-7.2-2.3-9.6-5L317.8,739.2z M320.3,780.3l0.5-4
			l-6.9-0.6c-1-0.1-1.1-0.3-0.9-1.4l1.8-13.7c3,2.9,7,4.6,11.2,4.6c12.7,0,18.1-13.9,18.1-25.7c0-10.6-4.5-14.8-10.4-14.8
			c-5.8,0-11.1,4-15.3,7.8l1.1-7h-11.6l-0.4,3.6l4,1.2c0.6,0.1,0.8,0.7,0.7,1.6l-4.8,35.3L305,780l0.3,0.3L320.3,780.3L320.3,780.3z
			 M288.4,729.5c3.7,0,6,1.7,6,5c0,4.4-4,6-8.7,7.5c-6.6,2.2-14.6,4.1-14.6,12.9c0,6.5,5.1,10.3,12.5,10.3
			c5.7-0.1,11.2-2.3,15.3-6.3l-3.2-4.2c-3.2,2.9-6.8,5.1-11.3,5.1c-3.7,0-6.4-1.6-6.4-5.2c0-4.2,3.9-5.7,9.2-7.4
			c6.5-2.1,14-4.3,14-13c0-6.4-4.9-9.5-11.6-9.5c-5.4,0-10.9,1.4-13.8,3l-1.2,8.9h5.1l1.6-5.1c0.1-0.5,0.4-1,0.9-1.1
			C284.1,729.8,286.2,729.4,288.4,729.5 M252.5,756.1l-1.2,7.7l0.2,0.5h11.9l0.4-3.5l-4-0.8c-0.6-0.1-1-0.7-0.9-1.3
			c0-0.1,0-0.1,0.1-0.2l4.6-32.6l-0.3-0.4h-6.3l-2.4,16.2h-17.9l2.3-15.7l-0.2-0.5h-11.7l-0.4,3.6l3.9,0.9c0.6,0.2,1,0.8,0.9,1.4
			c0,0.1,0,0.1,0,0.1l-4.6,32.3l0.3,0.4h6.4l2.5-17.4h18L252.5,756.1z M216.6,764.3l0.4-3.6l-4.2-0.7c-0.6-0.1-0.8-0.6-0.7-1.4
			l4.6-32.7l-0.2-0.3h-12.2l-0.5,3.7l4.4,0.6c1.1,0.1,1.2,0.3,1.1,1.5l-2.6,19.2c-5.1,4.5-9.7,8.4-14.3,8.4c-3.1,0-4-1.3-4-4.3
			c0-1.5,0.1-3.1,0.4-4.6l3.4-24.2l-0.2-0.3h-11.6l-0.6,3.7l3.9,0.6c1.1,0.1,1.2,0.3,1.1,1.5l-2.9,20.4c-0.1,1.4-0.3,3.2-0.3,4.3
			c0,6.7,3.2,9.1,9.5,9.1c5.4,0,11.2-4.8,15.2-8.3l-1.1,7.5h11.6L216.6,764.3z M160.1,756.1l-1.2,7.7l0.2,0.5h11.9l0.5-3.5l-4-0.8
			c-0.6-0.1-1-0.7-0.9-1.3c0-0.1,0-0.1,0.1-0.2l4.6-32.6l-0.3-0.4h-6.3l-2.4,16.2h-17.9l2.3-15.7l-0.2-0.5h-11.7l-0.5,3.6l3.9,0.9
			c0.6,0.2,1,0.8,0.9,1.4c0,0.1,0,0.1,0,0.1l-4.6,32.3l0.3,0.4h6.4l2.5-17.4h18L160.1,756.1z M102.8,743.8
			c1.5-7.2,6.1-13.5,12.9-13.5c3.5,0,5,1.6,5,3.9C120.7,741.2,107.8,743.2,102.8,743.8 M122.5,756.9c-3.7,1.7-7.1,2.8-10.8,2.8
			c-7.5,0-9.4-4.1-9.4-10.8c8.4-0.9,24.8-3.7,24.8-15.1c0-5.1-2.9-9.1-10.6-9.1c-12.5,0-21.1,11.2-21.1,24.9
			c0,9.1,3.8,15.5,14.8,15.5c4.7,0,9.4-1.1,13.6-3.2L122.5,756.9z M74.1,758.5c-0.1,1.1-0.3,1.4-1.4,1.5l-4.7,0.5l-0.6,3.7h18.9
			l0.7-3.7l-5-0.6c-1.1-0.1-1.2-0.3-0.9-1.5l5.9-42.7c0.1-1.2,0.5-1.5,1.4-1.7l5.1-0.6l0.5-3.9H51.9l-0.6,3.9l4.8,0.5
			c1.1,0.1,1.2,0.5,1.1,1.7c-1.4,11.9-3.8,24.1-5.7,29.9c-3,9.5-7,13.1-15.5,13.5l0.5,6.1c12.8-0.2,18.6-7.2,21.9-20.4
			c2.4-9.9,4.2-19.9,5.3-29.9h16.6L74.1,758.5z M7.9,773.3l5.4-8.6c0.9-1.7,2.3-3.9,2.3-5.9c0-4.6-4.3-5.1-9.7-5.2L3,761.7l2.9,1.1
			c0.5,0.1,0.5,0.4,0.3,0.9L3,771.8L7.9,773.3z M-16.4,749.8c-2.9,2.9-6.9,6-9.8,6s-4.3-2.1-4.3-6.5c0-5.6,2-16.4,9.4-16.4
			c2.5,0.1,4.8,1.1,6.6,2.8L-16.4,749.8z M-2.9,764.3l0.8-5.6l-3.5-0.5c-1.1-0.1-1.1-0.3-0.9-1.4l3-21.9c0.5-3.3,1.2-6.6,1.9-9.9
			h-9.6l-1.4,3.6c-2.7-2.8-6.5-4.3-10.3-4.3c-14.2,0-19,14.5-19,25.9c0,10.2,4.1,15.1,11.5,15.1c5.4,0,9.2-2.6,13.7-7.1l0.4,0.1
			l-0.9,6.1L-2.9,764.3L-2.9,764.3z M-69.1,741l0.7-4.2c0.5-3.6,2.9-4.7,6.1-4.7c2.6,0,4.5,0.9,4.5,3.9c0,3.5-2.9,5.1-5.9,5.1
			L-69.1,741L-69.1,741z M-70,748h5.1c3.5,0,6.3,0.4,6.3,3.9c0,3.8-2.8,5.5-6.9,5.5c-1.9,0-3.9-0.2-5.7-0.7L-70,748z M-65.8,765.2
			c9.7,0,18.5-3.7,18.5-13.3c0-5-3.2-7.5-8.1-8.1v-0.2c4.8-1.2,8.2-4.8,8.2-9.9c0-6.1-4.8-9.5-14.5-9.5c-10,0-16.8,3-18.2,13.1
			l-3.5,25.6C-80.2,764-73.2,765.3-65.8,765.2 M-109.5,725.6l-0.4-0.6h-15l-0.8,5.7l3.5,1c0.5,0.1,0.9,0.6,0.7,1.2
			c0,0.1,0,0.1-0.1,0.2l-4.5,31.2h11.3l2.3-16.4h1.7c2.4,0,3.3,0.7,4.5,3.8c1.5,4.1,2.8,8.3,3.8,12.5h14l0.8-5.9l-4.1-0.6
			c-0.9-0.1-1.1-0.6-1.5-1.4l-2.9-7.7c-1.1-3-2.6-4.2-4.2-4.7l0.1-0.3c2.6-0.4,4.8-2.2,5.9-4.6l2.3-4.4c0.9-1.9,1.8-2.9,3.7-2.9
			c0.6,0,1.2,0.1,1.7,0.2l1.2-7c-2-0.6-4-0.9-6-0.8c-4.8,0.3-6.7,1.9-8.9,6.2l-3.4,6.6c-1.9,3.6-3.4,4-5.8,4h-2L-109.5,725.6z
			 M-136.3,754.5c-3.2,1.4-6.5,2.1-10,2.3c-4.4,0-7.5-2.3-7.5-9.2c0-11.3,5.1-15.4,10.1-15.4c1.3-0.1,2.5,0.1,3.7,0.5
			c0.4,0.2,0.6,0.6,0.5,1.1l0.2,5.1l7.7,0.4l1.7-11.9c-2.1-1.5-6.9-3.2-12.6-3.2c-12.8,0-23,7.8-23,24.5c0,9.7,4.9,16.5,16.5,16.5
			c5.1,0,10.1-1.3,14.6-3.7L-136.3,754.5z M-191,757.4c-4.1,0-6.5-2.5-6.5-8.3c0-12.5,4.9-16.6,10-16.6c4,0,6.3,2.3,6.3,8
			C-181.3,752.9-185.8,757.3-191,757.4 M-191.9,765.3c15,0,22.4-10.3,22.4-25c0-8.8-4.2-16-16.8-16c-14.7,0-22.9,10.2-22.9,24.8
			C-209.2,758.8-203.8,765.3-191.9,765.3 M-215.9,764.3l0.8-5.5l-4.9-0.6c-0.9-0.1-1.1-0.4-0.9-1.4l5.6-39.4
			c0.1-1.2,0.2-1.4,1.4-1.6l5-0.6l0.7-5.5h-19l-18.1,33.1h-0.4l-9.7-33.1h-18.6l-0.6,5.6l4.5,0.5c0.9,0.1,1.1,0.4,0.9,1.5l-5.5,39.4
			c-0.1,1.2-0.4,1.4-1.4,1.6l-4.8,0.5l-0.7,5.5h22.4l0.7-5.5l-6.3-0.6c-1.1-0.1-1.1-0.3-0.9-1.5l4-28.2h0.4l7.5,25h11.5l14.1-25.1
			h0.3l-4,28.4c-0.1,1.1-0.4,1.4-1.4,1.5l-6.2,0.5l-0.8,5.5h24.4L-215.9,764.3z"/>
	</g>
</g>
</svg>
