<?xml version="1.0" encoding="UTF-8"?>
<svg id="Layer_1" xmlns="http://www.w3.org/2000/svg" version="1.1" viewBox="0 0 2000 1000">
  <!-- Generator: Adobe Illustrator 29.0.1, SVG Export Plug-In . SVG Version: 2.1.0 Build 192)  -->
  <defs>
    <style>
      .st0 {
        fill: #f6cc17;
      }

      .st1 {
        opacity: .9;
      }

      .st1, .st2 {
        isolation: isolate;
      }

      .st3 {
        fill: #fff;
      }

      .st4 {
        fill: #f13195;
      }
    </style>
  </defs>
  <rect x="-5" y="-5" width="2010" height="1010"/>
  <g class="st1">
    <g class="st2">
      <path class="st4" d="M34.2,807.8h11.5v-102.3h-11.5v-29.5h62.2c44,0,60.1,32,60.1,80.7s-15.4,83-57.8,83H34.2v-31.8ZM94.6,809.7c11.1,0,14.7-10.8,14.7-25.1v-52.3c0-15-3.7-25.1-14.3-25.1h-5.5v101.9c1.6.5,3.2.7,5.1.7Z"/>
    </g>
    <g class="st2">
      <path class="st4" d="M162.4,807.8h11.5v-102.3h-11.5v-29.5h120.8v67.3h-32.3v-37.8h-33.2v38.7h9.2v-16.6h19.4v56.7h-19.4v-16.4h-9.2v39.9h33.2v-43.1h32.3v74.9h-120.8v-31.8Z"/>
      <path class="st4" d="M293.5,807.8h11.5v-102.3h-11.5v-29.5h57.6l31.3,85.7-.2-56.2h-9.2v-29.5h53v29.5h-11.5v134.1h-46.3l-30.9-89.2v57.4h9.2v31.8h-53v-31.8Z"/>
      <path class="st4" d="M506.9,683.4l6.7-7.4h20.7v58.8h-28.8c0-11.3-4.4-30-16.6-30s-10.1,3.5-10.1,10.4c0,25.6,60.1,23.3,61.3,81.6,0,31.6-24.4,45.4-47.7,45.4s-27.2-5.8-34.3-9.9l-6.7,7.4h-20.7v-63.8h28.8c0,20.5,10.4,34.1,21.9,34.1s11.5-4.8,11.5-11.8c0-27.9-60.1-23.3-60.1-80.7s18.7-42.6,43.6-42.6,23,4.4,30.7,8.5Z"/>
      <path class="st4" d="M544.7,807.8h11.5v-102.3h-11.5v-29.5h66.8v29.5h-11.5v102.3h11.5v31.8h-66.8v-31.8Z"/>
    </g>
    <g class="st2">
      <path class="st4" d="M639.1,807.8h18.4v-102.3h-12.7v34.6h-28.8v-64.1h126.7v64.1h-28.8v-34.6h-12.7v102.3h18.4v31.8h-80.7v-31.8Z"/>
    </g>
    <g class="st2">
      <path class="st4" d="M766.8,807.8h18.4v-37.8l-28.3-64.5h-9.4v-29.5h65.4v29.5h-8.8l11.1,30,11.5-30h-9.2v-29.5h48.6v29.5h-8.5l-28.6,69.1v33.2h18.4v31.8h-80.7v-31.8Z"/>
      <path class="st4" d="M978.1,674.4c28.3,0,42.9,16.1,42.9,35.3s-9.9,36.6-31.3,55.8c4.1,6.7,9.2,12.9,15,18.7,10.1-14.7,15-33.4,15-49.3h43.8c-1.4,24.9-13.8,48.6-31.1,67.5,8.5,3.5,18.2,5.5,29,5.5v34.3c-23,0-42.4-5.1-58.8-13.1-13.1,8.5-27,13.1-47.2,13.1-30.4,0-47.7-15.9-47.7-38.3s9.2-33.9,30.9-49.1c-5.3-14.3-7.6-27.2-7.6-36,0-27.7,17.5-44.5,47.2-44.5ZM960.8,809.9c4.1,0,8.1-.7,11.8-2.1-7.4-7.1-13.6-15-18.9-23-3.5,3.5-5.8,7.4-5.8,12.4s4.1,12.7,12.9,12.7ZM975.8,735.7c8.8-7.1,15.2-15.7,15.2-22.8s-3.2-10.4-9.2-10.4-9.7,4.8-9.7,11.3,1.2,13.6,3.7,21.9Z"/>
      <path class="st4" d="M1183.5,683.4l6.7-7.4h20.7v58.8h-28.8c0-11.3-4.4-30-16.6-30s-10.1,3.5-10.1,10.4c0,25.6,60.1,23.3,61.3,81.6,0,31.6-24.4,45.4-47.7,45.4s-27.2-5.8-34.3-9.9l-6.7,7.4h-20.7v-63.8h28.8c0,20.5,10.4,34.1,21.9,34.1s11.5-4.8,11.5-11.8c0-27.9-60.1-23.3-60.1-80.7s18.7-42.6,43.6-42.6,23,4.4,30.7,8.5Z"/>
    </g>
    <g class="st2">
      <path class="st4" d="M1221.2,756.6c0-53,15.2-83,57.6-83.2s57.6,30.2,57.6,83.2-15.2,85.5-57.6,85.5-57.6-31.3-57.6-85.5ZM1289.2,789.1v-65c0-12.7-2.1-20.7-10.4-20.7s-10.4,8.1-10.4,20.7v65c0,12.7,2.1,20.7,10.4,20.7s10.4-8.1,10.4-20.7Z"/>
    </g>
    <g class="st2">
      <path class="st4" d="M1342.2,807.8h11.5v-102.3h-11.5v-29.5h69.1v29.5h-13.8v102.3h17.7v-43.1h28.8v74.9h-101.9v-31.8Z"/>
      <path class="st4" d="M1449.9,807.8h11.5v-102.3h-11.5v-29.5h66.8v29.5h-11.5v102.3h11.5v31.8h-66.8v-31.8Z"/>
    </g>
    <g class="st2">
      <path class="st4" d="M1523.6,807.8h11.5v-102.3h-11.5v-29.5h62.2c44,0,60.1,32,60.1,80.7s-15.4,83-57.8,83h-64.5v-31.8ZM1584,809.7c11.1,0,14.7-10.8,14.7-25.1v-52.3c0-15-3.7-25.1-14.3-25.1h-5.5v101.9c1.6.5,3.2.7,5.1.7Z"/>
    </g>
    <g class="st2">
      <path class="st4" d="M1651.7,807.8h11.5v-102.3h-11.5v-29.5h66.8v29.5h-11.5v102.3h11.5v31.8h-66.8v-31.8Z"/>
    </g>
    <g class="st2">
      <path class="st4" d="M1746.2,807.8h18.4v-102.3h-12.7v34.6h-28.8v-64.1h126.8v64.1h-28.8v-34.6h-12.7v102.3h18.4v31.8h-80.7v-31.8Z"/>
    </g>
    <g class="st2">
      <path class="st4" d="M1873.9,807.8h18.4v-37.8l-28.3-64.5h-9.4v-29.5h65.4v29.5h-8.8l11.1,30,11.5-30h-9.2v-29.5h48.6v29.5h-8.5l-28.6,69.1v33.2h18.4v31.8h-80.7v-31.8Z"/>
    </g>
  </g>
  <g class="st2">
    <g class="st2">
      <path class="st0" d="M321.5,146c0,43.5-22.6,74.3-63.3,86.4,34.7,7.7,55.1,34.7,55.1,73.2s-2.8,27.5-2.8,41.3,1.1,14.9,5.5,14.9,5.5-2.2,5.5-12.7v-9.4h27.5v20.4c0,56.7-22,82-71.6,82s-73.2-27.5-73.2-71,1.7-39.6,1.7-69.9-7.7-35.8-28.6-35.8l-13.8,1.1v68.8c0,14.9,8.8,24.8,22,24.8v76H31.3v-76c18.7-1.7,27.5-12.1,27.5-31.4v-181.7c0-19.3-8.8-29.7-27.5-31.4V45.3h150.3c95.3,0,139.9,31.9,139.9,100.8ZM208.6,157.6c0-31.4-8.3-41.8-33-41.8h-12.1v83.7h13.8c23.1,0,31.4-11.6,31.4-41.8Z"/>
      <path class="st0" d="M387.6,328.9v-181.7c0-19.3-8.8-29.7-27.5-31.4V45.3h159.7v70.5c-18.7,1.7-27.5,12.1-27.5,31.4v181.7c0,19.3,8.8,29.7,27.5,31.4v76h-159.7v-76c18.7-1.7,27.5-12.1,27.5-31.4Z"/>
    </g>
    <g class="st2">
      <path class="st0" d="M547.2,328.9v-181.7c0-19.3-8.8-29.7-27.5-31.4V45.3h137.7l74.3,204.8v-109.6c0-16-9.9-24.8-22-24.8V45.3h126.6v70.5c-18.7,1.7-27.5,12.1-27.5,31.4l-.6,289.1h-110.1l-73.8-213.1v112.3c0,16,9.9,24.8,22,24.8v76h-126.6v-76c18.7-1.7,27.5-12.1,27.5-31.4Z"/>
    </g>
    <g class="st2">
      <path class="st0" d="M972.9,285.9v-70.5h144.3v70.5c-18.7,1.7-27.5,12.1-27.5,31.4v118.9h-49.6c-2.8-12.1-7.2-17.6-16-17.6-20.4,0-27,23.7-66.6,23.7-87,0-118.4-76-118.4-204.3s44.6-195.5,115.6-195.5,46.3,20.4,63.9,20.4,13.2-5.5,16-17.6h49.6v153.1h-77.1v-40.2c0-27-5-44-27.5-44s-27.5,17.1-27.5,44v169c0,29.2,8.3,40.2,22,40.2s20.9-14.9,20.9-31.4v-25.3c0-16-9.9-24.8-22-24.8Z"/>
    </g>
    <g class="st2">
      <path class="st0" d="M1130.9,238c0-126.6,36.3-198.2,137.7-198.8s137.7,72.1,137.7,198.8-36.3,204.3-137.7,204.3-137.7-74.9-137.7-204.3ZM1293.3,315.6v-155.3c0-30.3-5-49.6-24.8-49.6s-24.8,19.3-24.8,49.6v155.3c0,30.3,5,49.6,24.8,49.6s24.8-19.3,24.8-49.6Z"/>
    </g>
    <g class="st2">
      <path class="st0" d="M1450.3,328.9v-181.7c0-19.3-8.8-29.7-27.5-31.4V45.3h165.2v70.5c-22.6,1.7-33,12.1-33,31.4v216.4c2.8.6,6.1,1.1,11,1.1,24.2,0,31.4-22.6,31.4-62.2v-45.2h68.8v178.9h-243.4v-76c18.7-1.7,27.5-12.1,27.5-31.4Z"/>
      <path class="st0" d="M1707.4,328.9v-181.7c0-19.3-8.8-29.7-27.5-31.4V45.3h148.7c105.2,0,143.7,76.5,143.7,192.7s-36.9,198.2-138.2,198.2h-154.2v-76c18.7-1.7,27.5-12.1,27.5-31.4ZM1824.1,364.6c26.4,0,35.2-25.9,35.2-60v-125c0-35.8-8.8-60-34.1-60h-13.2v243.4c3.9,1.1,7.7,1.7,12.1,1.7Z"/>
    </g>
  </g>
  <g class="st2">
    <g class="st2">
      <path class="st3" d="M38.6,604.4h11.3v-89.4h-11.3v-35.5h90.1l27.6,27.6v105.5l-27.6,27.6H38.6v-35.8ZM113.3,604.4v-89.2h-20.4v89.2h20.4Z"/>
    </g>
    <g class="st2">
      <path class="st3" d="M165.3,604.4h11.3v-89.2h-11.3v-35.8h65.6v35.8h-11.3v89.2h11.3v35.8h-65.6v-35.8Z"/>
      <path class="st3" d="M240,612.5v-27.8h38.5v19.7h20.4v-28.7h-38.5l-20.4-20.4v-48.2l27.6-27.6h35.8l9.1,9.1,9.1-9.1h20.4v57.7h-38.5v-22h-20.4v28.7h38.5l20.4,20.4v48.2l-27.6,27.6h-46.6l-27.6-27.6Z"/>
    </g>
    <g class="st2">
      <path class="st3" d="M405.3,580.9v23.5h20.4v35.8h-74.7v-35.8h11.3v-89.2h-11.3v-35.8h87.8l27.6,27.6v46.2l-27.6,27.6h-33.5ZM423.4,546.9v-31.2h-18.1v31.2h18.1Z"/>
    </g>
    <g class="st2">
      <path class="st3" d="M470.9,604.4h11.3v-89.2h-11.3v-35.8h67.9v35.8h-13.6v89.2h13.6v-37.8h38.5v73.6h-106.4v-35.8Z"/>
    </g>
    <g class="st2">
      <path class="st3" d="M661.5,587h-23.3l-2.7,17.4h12v35.8h-65.6v-35.8h11.5l26.5-125h66.8l24,125h11.5v35.8h-70.2v-35.8h12.5l-2.9-17.4ZM656.3,555.3l-6.6-40.1-6.3,40.1h12.9Z"/>
    </g>
    <g class="st2">
      <path class="st3" d="M731,604.4h18.1v-25.8l-28.3-63.4h-12.2v-35.8h64.3v35.8h-6.3l7.9,24.2,9.3-24.2h-6.3v-35.8h56.8v35.8h-11.5l-30.3,66.6-.2,22.6h18.1v35.8h-79.2v-35.8Z"/>
    </g>
    <g class="st2">
      <path class="st3" d="M902.4,604.4h20.4v-89.2h-9.3v29.9h-38.5v-65.6h138.5v65.6h-38.5v-29.9h-9.3v89.2h20.4v35.8h-83.8v-35.8Z"/>
    </g>
    <g class="st2">
      <path class="st3" d="M1040.5,604.4h18.1v-25.8l-28.3-63.4h-12.2v-35.8h64.3v35.8h-6.3l7.9,24.2,9.3-24.2h-6.3v-35.8h56.8v35.8h-11.5l-30.3,66.6-.2,22.6h18.1v35.8h-79.2v-35.8Z"/>
    </g>
    <g class="st2">
      <path class="st3" d="M1202.5,580.9v23.5h20.4v35.8h-74.7v-35.8h11.3v-89.2h-11.3v-35.8h87.8l27.6,27.6v46.2l-27.6,27.6h-33.5ZM1220.7,546.9v-31.2h-18.1v31.2h18.1Z"/>
    </g>
    <g class="st2">
      <path class="st3" d="M1268.2,604.4h11.3v-89.2h-11.3v-35.8h113.2v62.2h-38.5v-26.5h-20.4v26.5h15.6v34h-15.6v28.7h20.4v-28.7h38.5v64.5h-113.2v-35.8Z"/>
    </g>
    <g class="st2">
      <path class="st3" d="M1389.3,604.4h11.3v-89.2h-11.3v-35.8h110.9v62.2h-38.5v-26.5h-18.1v26.5h15.6v34h-15.6v28.7h18.1v35.8h-72.4v-35.8Z"/>
    </g>
    <g class="st2">
      <path class="st3" d="M1564.1,587h-23.3l-2.7,17.4h12v35.8h-65.6v-35.8h11.5l26.5-125h66.8l24,125h11.5v35.8h-70.2v-35.8h12.5l-2.9-17.4ZM1558.8,555.3l-6.6-40.1-6.3,40.1h12.9Z"/>
    </g>
    <g class="st2">
      <path class="st3" d="M1690.4,515.2h-18.1v89.2h18.1v-37.8h38.5v46l-27.6,27.6h-44.4l-27.6-27.6v-105.5l27.6-27.6h33.5l9.1,9.1,9.1-9.1h20.4v64.1h-38.5v-28.3Z"/>
      <path class="st3" d="M1739,604.4h11.3v-89.2h-11.3v-35.8h113.2v62.2h-38.5v-26.5h-20.4v26.5h15.6v34h-15.6v28.7h20.4v-28.7h38.5v64.5h-113.2v-35.8Z"/>
      <path class="st3" d="M1862.4,612.5v-27.8h38.5v19.7h20.4v-28.7h-38.5l-20.4-20.4v-48.2l27.6-27.6h35.8l9.1,9.1,9.1-9.1h20.4v57.7h-38.5v-22h-20.4v28.7h38.5l20.4,20.4v48.2l-27.6,27.6h-46.6l-27.6-27.6Z"/>
    </g>
  </g>
  <g class="st1">
    <g class="st2">
      <path class="st3" d="M45.9,892.2h-14.6v-16.6h50.4v16.6h-14.6v62.9h-21.3v-62.9Z"/>
      <path class="st3" d="M87.3,875.6h21.3v79.5h-21.3v-79.5Z"/>
      <path class="st3" d="M143.9,938.9c4.3,0,6.2-3,6.2-6.4v-6.6h-6.9v-15.7h24.9v44.9h-10.1l-3.2-5.8c-2.8,3.2-7.4,6.9-15.2,6.9-17.2,0-23.5-15.5-23.5-41.4s7.4-40.3,28-40.3,24.1,4.4,24.1,26.5v4.6h-19v-5.5c0-5.5-1-9-5-9s-5,3.5-5,9v30.6c0,5.9,1.7,8.2,5,8.2Z"/>
      <path class="st3" d="M176.4,875.6h21.3v30.8h11.2v-30.8h21.3v79.5h-21.3v-31.9h-11.2v31.9h-21.3v-79.5Z"/>
    </g>
    <g class="st2">
      <path class="st3" d="M250.3,892.2h-14.6v-16.6h50.4v16.6h-14.6v62.9h-21.3v-62.9Z"/>
    </g>
    <g class="st2">
      <path class="st3" d="M280.5,944.7c0-6.4,5.2-11.4,11.5-11.4s11.8,4.8,11.8,14.2-6,19.8-17.8,22.7v-7.8c3.4-1.9,5.5-4,5.5-7.3-6,0-11-3.6-11-10.4Z"/>
      <path class="st3" d="M354.5,925.1l6.5-49.5h18.5l6.4,49.5,7.6-49.5h19.1l-14.4,79.5h-24.6l-4.9-32.8-5.2,32.8h-23.5l-14.7-79.5h21.7l7.5,49.5Z"/>
      <path class="st3" d="M417.7,875.6h21.3v79.5h-21.3v-79.5Z"/>
      <path class="st3" d="M459.1,892.2h-14.6v-16.6h50.4v16.6h-14.6v62.9h-21.3v-62.9Z"/>
      <path class="st3" d="M500.5,875.6h21.3v30.8h11.2v-30.8h21.3v79.5h-21.3v-31.9h-11.2v31.9h-21.3v-79.5Z"/>
      <path class="st3" d="M613.8,937.8h-12.9l-2.4,17.4h-20.8l16.6-79.5h28.6l16.5,79.5h-22.8l-2.7-17.4ZM611.4,922.1l-4.4-27.7-3.8,27.7h8.2Z"/>
      <path class="st3" d="M662.9,875.6h21.3v61.8h21.7v17.7h-43v-79.5Z"/>
      <path class="st3" d="M711.5,875.6h21.3v79.5h-21.3v-79.5Z"/>
    </g>
    <g class="st2">
      <path class="st3" d="M752.9,892.2h-14.6v-16.6h50.4v16.6h-14.6v62.9h-21.3v-62.9Z"/>
    </g>
    <g class="st2">
      <path class="st3" d="M805.5,892.2h-14.6v-16.6h50.4v16.6h-14.6v62.9h-21.3v-62.9Z"/>
      <path class="st3" d="M847,875.6h21.3v61.8h21.7v17.7h-43v-79.5Z"/>
      <path class="st3" d="M895.6,875.6h43v16.6h-21.7v14.2h12.9v16.8h-12.9v14.2h21.7v17.7h-43v-79.5Z"/>
      <path class="st3" d="M1018.3,897.2c0,9.4-4.1,16.1-11.8,18.7,6.7,2,9.7,8.8,10.7,18.8l2.1,20.4h-21.3l-2-20.2c-.8-8.1-2-11.2-7.2-11.2s-1.9.1-2.8.2v31.1h-21.3v-79.5h25c19.4,0,28.4,6.8,28.4,21.6ZM995.3,899.6c0-5.6-1.7-7.4-6.7-7.4h-2.5v14.8h2.8c4.7,0,6.4-2,6.4-7.4Z"/>
      <path class="st3" d="M1026.1,875.6h43v16.6h-21.7v14.2h12.9v16.8h-12.9v14.2h21.7v17.7h-43v-79.5Z"/>
      <path class="st3" d="M1124.1,899.7l-18.8,2.5v-3.8c0-5.7-1.6-8.3-5.5-8.3s-4.9,1.8-4.9,4.5c0,11.6,31.2,13.4,31.2,39.3s-13.5,22.5-26.9,22.5-26.2-4-26.2-22.7.8-7.3,1.7-10l18.6,3.2c-.4,1.7-.7,3.8-.7,5.3,0,5.3,2.7,7.4,5.9,7.4s5.2-1.9,5.2-5.2c0-12.7-30.7-14.1-30.7-38.4s9.5-21.6,25.4-21.6,25.6,9.1,25.6,25.3Z"/>
      <path class="st3" d="M1132.5,875.6h25c21,0,28.9,9.6,28.9,25s-7.8,25.2-24.3,25.2h-8.3v29.3h-21.3v-79.5ZM1163.4,900.6c0-6.5-1.8-8.4-7.2-8.4h-2.5v16.8h2.8c5,0,6.8-2.2,6.8-8.4Z"/>
    </g>
    <g class="st2">
      <path class="st3" d="M1191.4,875.6h43v16.6h-21.7v14.2h12.9v16.8h-12.9v14.2h21.7v17.7h-43v-79.5Z"/>
    </g>
    <g class="st2">
      <path class="st3" d="M1236.1,914.8c0-25.6,7.4-40.3,28-40.3s24.1,4.4,24.1,26.5v6.5h-19v-7.2c0-5.5-1-9-5-9s-5,3.5-5,9v29.9c0,5.9,1.7,8.2,5,8.2s5-2.4,5-10v-10.3h19v7.8c0,19.5-4.8,30.2-25.2,30.2s-26.9-15.2-26.9-41.4Z"/>
    </g>
    <g class="st2">
      <path class="st3" d="M1304.9,892.2h-14.6v-16.6h50.4v16.6h-14.6v62.9h-21.3v-62.9Z"/>
      <path class="st3" d="M1346.4,955.1v-79.5h43v16.6h-21.7v14.2h12.9v16.8h-12.9v31.9h-21.3Z"/>
      <path class="st3" d="M1394.9,933.2v-57.6h21.3v54.6c0,5.9,1.7,8.2,5,8.2s5-2.2,5-8.2v-54.6h19v57.8c0,13.9-9.1,23-25.2,23s-25.2-9.1-25.2-23.2Z"/>
      <path class="st3" d="M1455.4,875.6h21.3v61.8h21.7v17.7h-43v-79.5Z"/>
    </g>
    <g class="st2">
      <path class="st3" d="M1533.1,892.2h-14.6v-16.6h50.4v16.6h-14.6v62.9h-21.3v-62.9Z"/>
    </g>
    <g class="st2">
      <path class="st3" d="M1570.6,914.8c0-25.8,7.4-40.3,28-40.4,20.6-.1,28,14.7,28,40.4s-7.4,41.5-28,41.5-28-15.2-28-41.5ZM1603.7,928.4v-27.1c0-6.2-1-10.1-5-10.1s-5,3.9-5,10.1v27.1c0,6.2,1,10.1,5,10.1s5-3.9,5-10.1Z"/>
      <path class="st3" d="M1633.9,933.2v-57.6h21.3v54.6c0,5.9,1.7,8.2,5,8.2s5-2.2,5-8.2v-54.6h19v57.8c0,13.9-9.1,23-25.2,23s-25.2-9.1-25.2-23.2Z"/>
      <path class="st3" d="M1691.6,914.8c0-25.6,7.4-40.3,28-40.3s24.1,4.4,24.1,26.5v6.5h-19v-7.2c0-5.5-1-9-5-9s-5,3.5-5,9v29.9c0,5.9,1.7,8.2,5,8.2s5-2.4,5-10v-10.3h19v7.8c0,19.5-4.8,30.2-25.2,30.2s-26.9-15.2-26.9-41.4Z"/>
      <path class="st3" d="M1751.5,875.6h21.3v30.8h11.2v-30.8h21.3v79.5h-21.3v-31.9h-11.2v31.9h-21.3v-79.5Z"/>
      <path class="st3" d="M1815.3,875.6h21.3v79.5h-21.3v-79.5Z"/>
      <path class="st3" d="M1846.6,875.6h24.6l17.5,46.1c-1.2-15.5-1.2-30.7-1.2-46.1h19v79.5h-24.7l-17.2-47.8c1.1,16,1.1,31.8,1.1,47.8h-19v-79.5Z"/>
      <path class="st3" d="M1941.8,938.9c4.3,0,6.2-3,6.2-6.4v-6.6h-6.9v-15.7h24.9v44.9h-10.1l-3.2-5.8c-2.8,3.2-7.4,6.9-15.2,6.9-17.2,0-23.5-15.5-23.5-41.4s7.4-40.3,28-40.3,24.1,4.4,24.1,26.5v4.6h-19v-5.5c0-5.5-1-9-5-9s-5,3.5-5,9v30.6c0,5.9,1.7,8.2,5,8.2Z"/>
    </g>
  </g>
</svg>