<?xml version="1.0" encoding="UTF-8"?>
<svg id="a" data-name="Layer 1" xmlns="http://www.w3.org/2000/svg" viewBox="0 0 2866.12 522">
  <defs>
    <style>
      .n {
        fill: #f8f4f4;
      }

      .o {
        fill: #00adff;
      }
    </style>
  </defs>
  <g id="b" data-name="Positioning Dots">
    <g>
      <rect class="n" x="2865.12" y="260.5" width="1" height="1"/>
      <rect class="n" y="260.5" width="1" height="1"/>
    </g>
  </g>
  <g id="k" data-name="Rig Sans">
    <g>
      <path class="o" d="M376.66,8.27h145.08c86.35,0,143.35,51.24,143.35,120.9,0,54.69-38,100.75-90.96,119.17l107.08,162.92h-66.21l-101.32-156.01h-82.32v156.01h-54.69V8.27ZM519.43,207.46c51.81,0,89.23-28.78,89.23-75.42s-38.57-73.69-88.66-73.69h-88.66v149.11h88.08Z"/>
      <path class="o" d="M734.17,14.6h59.87v52.96h-59.87V14.6ZM737.05,121.68h54.12v289.58h-54.12V121.68Z"/>
      <path class="o" d="M880.39,489.55v-54.12c28.79,23.03,61.6,36.27,101.9,36.27,51.81,0,100.75-28.79,100.75-93.26v-29.94c-22.45,29.94-56.42,45.48-93.84,45.48-74.26,0-134.71-61.02-134.71-139.32,0-74.27,58.15-139.9,132.99-139.9,39.15,0,73.69,19,96.72,50.66v-43.75h51.24v253.31c0,86.35-59.3,145.08-150.26,145.08-44.33,0-78.87-12.09-104.78-30.51ZM996.11,346.2c48.36,0,88.66-36.27,88.66-92.11,0-52.96-40.88-92.69-88.66-92.69s-86.35,41.45-86.35,92.69,36.84,92.11,86.35,92.11Z"/>
      <path class="o" d="M1346.13,381.32v-61.02c32.24,27.63,75.42,46.06,122.62,46.06,52.96,0,91.54-24.18,91.54-60.45,0-83.48-203.22-61.02-203.22-190.56,0-66.78,53.54-113.41,132.99-113.41,38,0,78.87,10.36,109.96,29.36v59.3c-33.39-23.6-70.81-36.84-107.08-36.84-46.06,0-80.6,20.15-80.6,55.84,0,85.78,204.37,59.3,204.37,192.28,0,70.24-57,116.29-145.65,116.29-52.96,0-96.14-16.12-124.93-36.84Z"/>
      <path class="o" d="M1855.62,361.75c-23.03,36.27-62.75,56.42-105.35,56.42-55.84,0-90.38-32.24-90.38-85.2,0-60.45,46.06-96.72,130.11-96.72h63.9v-6.91c0-40.88-28.79-67.93-82.33-67.93-33.39,0-62.75,9.79-91.54,32.24v-48.93c28.79-20.15,62.18-29.94,101.32-29.94,82.9,0,124.35,49.51,124.35,124.35v172.13h-50.09v-49.51ZM1764.66,374.99c47.21,0,90.38-35.12,90.38-74.84v-24.18h-67.36c-50.66,0-77.72,17.27-77.72,51.24,0,29.94,20.72,47.78,54.69,47.78Z"/>
      <path class="o" d="M2116.98,163.13c-44.33,0-76.57,38.57-76.57,97.87v150.26h-54.12V121.68h52.96v55.84c18.42-39.15,53.54-62.75,97.29-62.75,63.9,0,108.81,47.21,108.81,126.08v170.41h-54.69v-156.01c0-56.42-27.63-92.11-73.69-92.11Z"/>
      <path class="o" d="M2304.09,391.68v-52.39c29.94,20.72,61.6,32.24,96.72,32.24,39.15,0,67.36-14.97,67.36-36.84,0-53.54-156.01-37.42-156.01-133.56,0-53.54,47.78-86.36,108.23-86.36,28.21,0,59.87,6.91,84.05,20.15v49.51c-28.79-15.54-55.27-23.6-81.75-23.6-32.24,0-61.6,12.67-61.6,36.27,0,54.12,158.32,35.69,158.32,134.14,0,54.12-48.36,86.93-115.71,86.93-43.18,0-79.45-12.67-99.6-26.48Z"/>
    </g>
  </g>
</svg>