<svg xmlns="http://www.w3.org/2000/svg" viewBox="0 0 1920 1200"><title>ts_pradell-plus 1</title><rect width="1920" height="1200" style="fill:#ef4135"/><path d="M177.75,149.18,176,162.48c-.28,2.58-1,3.15-3,3.15-7,0-43.76-.43-53.63-.43-5.15,0-14.87.43-18.16.43-1.14,0-1.57-.43-1.57-1.58v-1.71c0-1.15.43-1.29,1.71-1.43l7.15-.57c3-.29,4.29-1.43,4.29-5V81.4c0-3.58-1.28-4.86-4.29-5L101.38,76c-1.28-.14-1.71-.43-1.71-1.57V72.67c0-1.14.43-1.57,1.57-1.57,3.29,0,13,.43,18.16.43s16.16-.43,19.45-.43c1.15,0,1.57.43,1.57,1.57v1.72c0,1.14-.42,1.57-1.71,1.57l-8.44.43c-3,.15-4.43,1.43-4.43,5v73.5c0,3.58,1.14,5,4.43,5h14.87c11.87,0,18.16-1.29,23.74-9.15a74.17,74.17,0,0,0,7.72-14.88l3.15.43S178.32,145,177.75,149.18Zm40.75,18.16c-12.58,0-29.74-10.15-29.74-31.74,0-17.74,13-31.89,29.74-31.89,12.59,0,29.75,10.29,29.75,31.89C248.25,153.33,235.23,167.34,218.5,167.34Zm-.28-59.49c-12.3,0-16.74,11.3-16.74,24.89,0,20,6.44,30.6,17.16,30.6,12.45,0,16.88-11.3,16.88-25C235.52,118.29,229.08,107.85,218.22,107.85Zm131.7,1.72-2.57.43c-4,.71-5.15,1.86-6,4.15l-19.45,49c-.71,1.86-1.86,3.43-3.72,3.43s-2.86-1.72-3.57-3.43l-13.87-34.32L287.14,163.2c-.71,1.86-1.86,3.43-3.72,3.43s-2.71-1.43-3.57-3.43l-20.17-49.77a5,5,0,0,0-4.72-3.57l-2.43-.29c-1.28-.14-1.71-.29-1.71-1.43v-1.29c0-1,.43-1.43,1.43-1.43,1.86,0,5.57.43,11.72.43,4,0,10.73-.43,12.87-.43,1,0,1.58.43,1.58,1.43v1.29c0,1.14-.15,1.14-1.72,1.43l-2.43.29a2.86,2.86,0,0,0-2.72,3,5.09,5.09,0,0,0,.43,1.86l14.59,36.75H287l11.3-28.6-3.87-9.44c-1-2.57-1.57-3.29-3.28-3.57l-1.43-.29c-1.43-.29-1.72-.43-1.72-1.43v-1.29c0-1,.43-1.43,1.43-1.43,2.29,0,6.72.43,11.44.43,5.58,0,10.72-.43,12.58-.43,1,0,1.43.43,1.43,1.43v1.29c0,1.14-.28,1.29-1.71,1.43l-3.58.29A3.3,3.3,0,0,0,306.3,113a3.6,3.6,0,0,0,.29,1.72l14.73,36.75h.29l14.58-36.9a5.51,5.51,0,0,0,.43-2c0-1.71-1.14-2.57-3.15-2.71l-3.14-.29c-1.29-.14-1.72-.29-1.72-1.43v-1.29c0-1,.43-1.43,1.43-1.43,1.72,0,5.72.43,10.44.43s7.87-.43,9.58-.43c1,0,1.58.43,1.58,1.43v1.29C351.64,109.28,351.21,109.43,349.92,109.57Zm85.66,18c-4,0-7-2-7-5.58,0-3.86,2.86-4.58,2.86-7.29,0-4.29-5-6.58-10.15-6.58-11.73,0-20.17,8.58-20.17,23.45,0,20.6,12,27.75,22.31,27.75,8.87,0,12.59-2.15,15.73-4.58.43-.29.72-.57,1.15-.57A2.32,2.32,0,0,1,442,155.9a2.26,2.26,0,0,1-.43,1.15c-1.57,2.43-9.72,10.29-22.59,10.29-16.59,0-30.46-11.44-30.46-31.6,0-18.31,14.73-32,30.17-32,16.88,0,23.6,9.43,23.6,17A6.57,6.57,0,0,1,435.58,127.59Zm45.9,39.75c-12.58,0-29.75-10.15-29.75-31.74,0-17.74,13-31.89,29.75-31.89,12.58,0,29.74,10.29,29.74,31.89C511.22,153.33,498.21,167.34,481.48,167.34Zm-.29-59.49c-12.29,0-16.73,11.3-16.73,24.89,0,20,6.44,30.6,17.16,30.6,12.44,0,16.88-11.3,16.88-25C498.5,118.29,492.06,107.85,481.19,107.85Zm103.68,57.78c-1.43,0-5.72-.43-12.87-.43s-11.3.43-12.59.43c-1.14,0-1.57-.43-1.57-1.58v-1.28c0-1.15.43-1.43,1.72-1.58l4.57-.28c1.86-.14,2.43-1.15,2.43-2.86V122.73c0-7.15-2.71-13.16-10.58-13.16-7.29,0-13,5.29-15.59,8.44v40c0,1.71.58,2.72,2.44,2.86l4.57.28c1.29.15,1.86.43,1.86,1.58v1.28c0,1.15-.57,1.58-1.57,1.58-1.43,0-5.58-.43-12.87-.43s-11.44.43-12.73.43c-1,0-1.57-.43-1.57-1.58v-1.28c0-1.15.43-1.43,1.86-1.58l4.57-.28c1.86-.14,2.43-1.15,2.43-2.86v-39.9c0-5.29-1.57-5.86-7.29-6.44-.43,0-.57-.28-.57-1v-1.43c0-.71.43-.85,1.43-1a34.71,34.71,0,0,0,14.16-4.14,4.21,4.21,0,0,1,1.28-.43,1.1,1.1,0,0,1,1,1.14l1,8.87c2.15-2.43,9.87-10,18.88-10,12.87,0,18.31,7.86,18.31,20v34.32c0,1.71.57,2.72,2.43,2.86l4.57.28c1.29.15,1.72.43,1.72,1.58v1.28C586.3,165.2,585.87,165.63,584.87,165.63Zm30,1.71c-12.44,0-14.59-8.15-14.59-17.59V110.86h-7.15a.83.83,0,0,1-.86-.86l.29-2.29c.14-.86,0-1,.86-1.29a19.63,19.63,0,0,0,8.29-5,35.55,35.55,0,0,0,6.86-11.16h2.72v15.59h19.16a1,1,0,0,1,1,.86l-.43,3.29a.83.83,0,0,1-.86.86H611.32v40.47c0,5.29,1.57,8.86,7.87,8.86a21.51,21.51,0,0,0,11.29-3.43l2.29,2.43A24,24,0,0,1,614.9,167.34Zm62.63-44.47c-5.58,0-8-3.86-8-7.44a9.69,9.69,0,0,1,1.29-5,1.33,1.33,0,0,0,.14-.72c0-.71-.57-1.14-1.71-1.14-2.86,0-10.59,5.86-10.59,14.3v35.18c0,1.71.58,2.72,2.44,2.86l5.86.28c1.29,0,1.86.43,1.86,1.58v1.28c0,1.15-.57,1.58-1.57,1.58-.72,0-6.3-.43-14.16-.43-7.15,0-11.44.43-12.73.43-1,0-1.57-.43-1.57-1.58v-1.28c0-1.15.43-1.43,1.86-1.58l4.57-.28c1.86-.14,2.43-1.15,2.43-2.86v-39.9c0-5.29-1.57-5.86-7.29-6.44-.43,0-.57-.28-.57-1v-1.43c0-.85.43-1,1.43-1a34.68,34.68,0,0,0,14.16-4.14,3.23,3.23,0,0,1,1.28-.43,1,1,0,0,1,1,1.14l.72,8c2.57-3.58,6.72-9.15,14.59-9.15,9.29,0,12.15,6.29,12.15,10.86A8.07,8.07,0,0,1,677.53,122.87Zm53.77,44.47c-9,0-9.87-7.72-9.87-9.86l-.43-.29s-5.86,10.15-17.87,10.15c-8.3,0-13-5.72-13-11.87,0-8,4.87-12.58,10.73-15.44,9.15-4.43,20.59-8.72,20.59-8.72V116.58c0-6-4.58-9.16-9.72-9.16-3.58,0-6.87.72-7.87,2.86a5.09,5.09,0,0,0-.43,1.86c0,1.86,1.29,3.72,1.29,7a6.12,6.12,0,0,1-6.44,6.29c-3,0-5.43-2.14-5.43-7,0-3.87,1.86-6.15,4.72-8.73,1.43-1.28,8.44-6,16.3-6,10,0,18.74,3,18.74,13.15v35.9c0,2.29.57,5.72,4.29,5.72a5.79,5.79,0,0,0,5.43-3.58l2.86,1.15C743.6,162.48,738.31,167.34,731.3,167.34Zm-25-25.17a10.82,10.82,0,0,0-4.43,9c0,4.87,2.86,8.3,8.58,8.3,6,0,11-5.86,11-11.58V133.74S712.71,136.88,706.27,142.17Zm61.64,25.17c-8.58,0-13.16-2.57-13.73-3.14l-2-13,2.72-1.14,5,8.29a13.29,13.29,0,0,0,8.43,3.44c5.3,0,10.16-3.29,10.16-9.44,0-7.72-8-11-14.16-14.3-9.58-5.15-12.3-10.16-12.3-17.74,0-10,8.58-16.58,17.45-16.58a11,11,0,0,1,2.14.14,16.92,16.92,0,0,1-6.29-13.59c0-12.15,10-20.87,25.89-20.87,21.3,0,25.88,13.44,25.88,24.59v11.87H836c.57,0,1,.29,1,.86l-.43,3.29a.83.83,0,0,1-.86.86H817.1v40.47c0,5.29,1.86,8.86,8.15,8.86a20.74,20.74,0,0,0,11.16-3.43l2.43,2.43a24.53,24.53,0,0,1-18,8.15c-12.44,0-14.73-8.15-14.73-17.59V110.86h-7.15a.76.76,0,0,1-.86-.86l.29-2.29c.14-.86,0-1,.85-1.29,5.58-1.71,10-7.86,10-14.87,0-10.3-4.72-18.59-18-18.59-13.45,0-21.74,7.15-21.74,17.3,0,6.87,3.57,13,9.72,14.59l4.58,1.14,1,13-2.43.43c-.57-1.72-3.58-11-11.58-11-6.73,0-9.73,4.57-9.73,8.43,0,5.72,2,8.3,12.16,13,10.87,5,15,9.86,15,19.3C788.21,160.34,778.63,167.34,767.91,167.34ZM917.2,87.26c-4,0-6.44-2.86-6.44-5.58,0-1.43.29-2.14.29-3.29,0-3-3-4.57-5.72-4.57-6.72,0-9.44,5.29-9.44,13v19h11a.68.68,0,0,1,.72.72l-.29,3.43a.93.93,0,0,1-.71.86H895.89v47.19c0,1.71.57,2.72,2.43,2.86l6.58.28c1.29,0,1.86.43,1.86,1.58v1.28c0,1.15-.57,1.58-1.57,1.58-1.43,0-7.58-.43-14.73-.43s-11.44.43-12.73.43-1.57-.43-1.57-1.58v-1.28c0-1.15.43-1.43,1.86-1.58l4.57-.28c1.86-.14,2.29-1.15,2.29-2.86V110.86h-8.15A.81.81,0,0,1,876,110l.29-3.43a.68.68,0,0,1,.71-.72h7.87v-11c0-15.3,10.58-25.45,23.31-25.45,10,0,15.87,5.57,15.87,10.43C924.06,83.83,921.63,87.26,917.2,87.26ZM950,167.34c-12.59,0-29.75-10.15-29.75-31.74,0-17.74,13-31.89,29.75-31.89,12.58,0,29.74,10.29,29.74,31.89C979.69,153.33,966.68,167.34,950,167.34Zm-.29-59.49c-12.3,0-16.73,11.3-16.73,24.89,0,20,6.43,30.6,17.16,30.6,12.44,0,16.87-11.3,16.87-25C967,118.29,960.53,107.85,949.66,107.85Zm78.08,15c-5.58,0-8-3.86-8-7.44a9.6,9.6,0,0,1,1.29-5,1.33,1.33,0,0,0,.14-.72c0-.71-.57-1.14-1.72-1.14-2.86,0-10.58,5.86-10.58,14.3v35.18c0,1.71.57,2.72,2.43,2.86l5.86.28c1.29,0,1.86.43,1.86,1.58v1.28c0,1.15-.57,1.58-1.57,1.58-.71,0-6.29-.43-14.16-.43-7.15,0-11.44.43-12.72.43a1.38,1.38,0,0,1-1.58-1.58v-1.28c0-1.15.43-1.43,1.86-1.58l4.58-.28c1.86-.14,2.43-1.15,2.43-2.86v-39.9c0-5.29-1.57-5.86-7.29-6.44-.43,0-.58-.28-.58-1v-1.43c0-.85.43-1,1.43-1a34.68,34.68,0,0,0,14.16-4.14,3.33,3.33,0,0,1,1.29-.43,1,1,0,0,1,1,1.14l.71,8c2.58-3.58,6.73-9.15,14.59-9.15,9.3,0,12.16,6.29,12.16,10.86A8.08,8.08,0,0,1,1027.74,122.87Zm65.49,44.47c-12.44,0-14.59-8.15-14.59-17.59V110.86h-7.15a.83.83,0,0,1-.86-.86l.29-2.29c.14-.86,0-1,.86-1.29a19.51,19.51,0,0,0,8.29-5,35.58,35.58,0,0,0,6.87-11.16h2.71v15.59h19.17a1,1,0,0,1,1,.86l-.43,3.29a.83.83,0,0,1-.86.86h-18.88v40.47c0,5.29,1.58,8.86,7.87,8.86a21.52,21.52,0,0,0,11.3-3.43l2.29,2.43A24.05,24.05,0,0,1,1093.23,167.34Zm76.36-15c-.85,2.14-7.72,15-24.74,15-15,0-29-12-29-31.31,0-20.74,13.73-32.32,29.61-32.32,14.58,0,23.88,13.72,23.88,20.3,0,2.58-.86,4.72-3.86,4.72h-39.76s-.14-.14-.14.72c0,13.15,7.43,28.17,24.31,28.17,6.15,0,13.3-3,17.3-7.87l2.86,1.43ZM1143.14,108c-8.58,0-15,7.72-17,16h27.74c3.15,0,3.72-1.28,3.72-3.29C1157.58,115.29,1152.43,108,1143.14,108Zm96.24,57.63c-1.86,0-6.87-.43-13.44-.43-5.3,0-12,.43-13.45.43-1,0-1.43-.43-1.43-1.58v-1.28c0-1.15.43-1.29,1.72-1.43l2.43-.29a2.53,2.53,0,0,0,2.57-2.43,3.35,3.35,0,0,0-.85-2.43l-11.73-16h-.72L1192,157.33a3,3,0,0,0-.86,2.15c0,.71.58,1.43,2.15,1.57l3.15.29c1.43.14,1.86.28,1.86,1.57v1.14c0,1.15-.43,1.58-1.58,1.58s-7-.43-10.72-.43c-4.15,0-8,.43-9.87.43-1,0-1.57-.43-1.57-1.58v-1.14c0-1.29.43-1.43,1.86-1.57l3.71-.43c3.15-.43,4.15-1.15,6.44-4.29l15.3-21-16-22c-1.28-1.86-2.86-3.43-5.14-3.57l-3.29-.29c-1.43-.14-2-.43-2-1.57V107a1.38,1.38,0,0,1,1.58-1.58c1.86,0,8,.43,14.58.43,5.15,0,10.3-.43,11.59-.43,1,0,1.71.43,1.71,1.58v1.14c0,1.29-.85,1.43-1.86,1.57l-1.85.29c-1.43.28-2.44,1-2.44,2.43a4.6,4.6,0,0,0,.86,2.43l8.3,11.3h.85l9.3-12.73a2.64,2.64,0,0,0,.57-1.57c0-1.43-1-1.86-2-2l-1.43-.15c-1.43-.14-1.72-.28-1.72-1.57V107c0-1.15.43-1.58,1.43-1.58,1.43,0,6,.43,9.87.43,4.15,0,8-.43,9.87-.43,1,0,1.57.43,1.57,1.58v1.14c0,1.14-.43,1.43-1.71,1.57l-4.44.43c-3.43.29-4.72,1.43-6.86,4.29l-12,16.45,19.44,26.6c1.29,1.71,2.86,3.29,5.3,3.57l3.14.29c1.43.14,1.86.28,1.86,1.43v1.28C1241,165.2,1240.38,165.63,1239.38,165.63Zm27,1.71c-12.44,0-14.58-8.15-14.58-17.59V110.86h-7.15a.82.82,0,0,1-.86-.86l.28-2.29c.15-.86,0-1,.86-1.29a19.61,19.61,0,0,0,8.3-5,35.55,35.55,0,0,0,6.86-11.16h2.72v15.59H1282a1,1,0,0,1,1,.86l-.43,3.29a.82.82,0,0,1-.85.86h-18.88v40.47c0,5.29,1.57,8.86,7.86,8.86a21.52,21.52,0,0,0,11.3-3.43l2.29,2.43A24.05,24.05,0,0,1,1266.4,167.34Zm85.95,0a30.33,30.33,0,0,1-11.87-2.14v26.45c0,1.72.57,2.72,2.43,2.86l7.15.29c1.29,0,1.72.43,1.72,1.57v1.29c0,1.14-.43,1.57-1.58,1.57-.71,0-7.43-.43-15.3-.43-7.15,0-12,.43-13.3.43a1.37,1.37,0,0,1-1.57-1.57v-1.29c0-1.14.43-1.43,1.86-1.57l5.15-.29c1.85-.14,2.43-1.14,2.43-2.86v-73.5c0-5.29-1.43-5.86-7.3-6.44-.43,0-.57-.42-.57-1v-1.43c0-.85.57-1,1.43-1a34.12,34.12,0,0,0,14.16-4.14,4.35,4.35,0,0,1,1.29-.43,1.13,1.13,0,0,1,1.14,1.14l.86,8.72a24,24,0,0,1,19.73-9.86c13.73,0,25.17,10.15,25.17,28.74C1385.38,153.33,1370.94,167.34,1352.35,167.34Zm1.57-56.63c-7.86,0-13.44,6.44-13.44,12.59v25.88c0,6.29,5.29,12.87,17,12.87,10.44,0,17-10.29,17-21.59C1374.51,122,1365.65,110.71,1353.92,110.71Zm104.53,54.63c-.42,0-3.57-.14-5.43-.14a34,34,0,0,0-10.87,1.86,7.46,7.46,0,0,1-1.57.28c-.72,0-1.15-.28-1.15-1l-.57-9.29s-6.58,10.29-19.16,10.29-18-7.86-18-20V113.14c0-1.85-.57-2.86-2.43-3l-4.15-.28c-1.43-.15-1.86-.43-1.86-1.58V107c0-1.29.58-1.58,1.58-1.58,1.43,0,6.29.29,9.86.29,5,0,6.44-.29,7.3-.29s1,.43,1,1.15c0,1-.29,5-.29,6.57v35.18c0,7.15,2.86,13.3,10.44,13.3,8,0,13.16-5.86,15.73-9.43v-39c0-1.85-.57-2.86-2.43-3l-4.72-.28c-1.28-.15-1.86-.43-1.86-1.58V107c0-1.29.58-1.58,1.58-1.58,1.43,0,5.14.29,10.58.29,4.29,0,6.43-.29,6.86-.29,1.15,0,1.15.43,1.15,1.43l-.15,6.29V153.9c0,6.29,4.15,6.87,9,7.44.86.14,1,.57,1,1.28v1.29C1459.88,164.77,1459.6,165.34,1458.45,165.34Zm47.62-42.47c-5.58,0-8-3.86-8-7.44a9.69,9.69,0,0,1,1.29-5,1.33,1.33,0,0,0,.14-.72c0-.71-.57-1.14-1.71-1.14-2.86,0-10.59,5.86-10.59,14.3v35.18c0,1.71.58,2.72,2.44,2.86l5.86.28c1.29,0,1.86.43,1.86,1.58v1.28c0,1.15-.57,1.58-1.57,1.58-.72,0-6.3-.43-14.16-.43-7.15,0-11.44.43-12.73.43-1,0-1.57-.43-1.57-1.58v-1.28c0-1.15.43-1.43,1.86-1.58l4.57-.28c1.86-.14,2.43-1.15,2.43-2.86v-39.9c0-5.29-1.57-5.86-7.29-6.44-.43,0-.57-.28-.57-1v-1.43c0-.85.43-1,1.43-1a34.68,34.68,0,0,0,14.16-4.14,3.23,3.23,0,0,1,1.28-.43,1,1,0,0,1,1,1.14l.72,8c2.57-3.58,6.72-9.15,14.59-9.15,9.29,0,12.15,6.29,12.15,10.86A8.07,8.07,0,0,1,1506.07,122.87Zm43.47,44.47a30.39,30.39,0,0,1-11.87-2.14v26.45c0,1.72.57,2.72,2.43,2.86l7.15.29c1.29,0,1.72.43,1.72,1.57v1.29c0,1.14-.43,1.57-1.57,1.57-.72,0-7.44-.43-15.3-.43-7.15,0-12,.43-13.3.43-1,0-1.58-.43-1.58-1.57v-1.29c0-1.14.43-1.43,1.86-1.57l5.15-.29c1.86-.14,2.43-1.14,2.43-2.86v-73.5c0-5.29-1.43-5.86-7.29-6.44-.43,0-.57-.42-.57-1v-1.43c0-.85.57-1,1.43-1a34.08,34.08,0,0,0,14.15-4.14,4.35,4.35,0,0,1,1.29-.43,1.13,1.13,0,0,1,1.14,1.14l.86,8.72a24,24,0,0,1,19.74-9.86c13.73,0,25.17,10.15,25.17,28.74C1582.58,153.33,1568.13,167.34,1549.54,167.34Zm1.58-56.63c-7.87,0-13.45,6.44-13.45,12.59v25.88c0,6.29,5.29,12.87,17,12.87,10.44,0,17-10.29,17-21.59C1571.71,122,1562.84,110.71,1551.12,110.71Zm70.64,56.63c-12.59,0-29.75-10.15-29.75-31.74,0-17.74,13-31.89,29.75-31.89,12.58,0,29.74,10.29,29.74,31.89C1651.5,153.33,1638.49,167.34,1621.76,167.34Zm-.29-59.49c-12.3,0-16.73,11.3-16.73,24.89,0,20,6.43,30.6,17.16,30.6,12.44,0,16.87-11.3,16.87-25C1638.77,118.29,1632.34,107.85,1621.47,107.85Zm57.06,59.49c-8.58,0-13.16-2.57-13.73-3.14l-2-13,2.71-1.14,5,8.29a13.33,13.33,0,0,0,8.44,3.44c5.29,0,10.15-3.29,10.15-9.44,0-7.72-8-11-14.16-14.3-9.58-5.15-12.3-10.16-12.3-17.74,0-10,8.58-16.58,17.45-16.58a58.71,58.71,0,0,1,14.3,2.28l1,13-2.43.43c-.57-1.72-3.58-11-11.58-11-6.72,0-9.73,4.57-9.73,8.43,0,5.72,2,8.3,12.16,13,10.87,5,15,9.86,15,19.3C1698.83,160.34,1689.25,167.34,1678.53,167.34Zm84.51-15c-.86,2.14-7.72,15-24.74,15-15,0-29-12-29-31.31,0-20.74,13.73-32.32,29.6-32.32,14.59,0,23.88,13.72,23.88,20.3,0,2.58-.85,4.72-3.86,4.72h-39.75s-.15-.14-.15.72c0,13.15,7.44,28.17,24.32,28.17,6.14,0,13.29-3,17.3-7.87l2.86,1.43ZM1736.58,108c-8.58,0-15,7.72-17,16h27.74c3.15,0,3.72-1.28,3.72-3.29C1751,115.29,1745.88,108,1736.58,108Zm53.77,59.34c-8.58,0-13.15-2.57-13.73-3.14l-2-13,2.72-1.14,5,8.29a13.33,13.33,0,0,0,8.44,3.44c5.29,0,10.15-3.29,10.15-9.44,0-7.72-8-11-14.15-14.3-9.58-5.15-12.3-10.16-12.3-17.74,0-10,8.58-16.58,17.44-16.58a58.82,58.82,0,0,1,14.31,2.28l1,13-2.43.43c-.58-1.72-3.58-11-11.59-11-6.72,0-9.72,4.57-9.72,8.43,0,5.72,2,8.3,12.15,13,10.87,5,15,9.86,15,19.3C1810.66,160.34,1801.08,167.34,1790.35,167.34Z" style="fill:#fffffe"/><path d="M236.9,906.42c-1.26,0-7.84-.42-14.84-.42s-12.74.42-14,.42-1.54-.42-1.54-1.54v-1.54c0-1.12.42-1.4,1.68-1.54l3.08-.28c1.82-.14,2.38-1.12,2.38-2.8V862.6c0-7.14-2.66-10.22-8-10.22-4.76,0-11.2,6.3-13.3,8.68v37.66c0,1.68.56,2.66,2.38,2.8l3.36.28c1.4.14,1.82.42,1.82,1.54v1.54a1.34,1.34,0,0,1-1.54,1.54c-2,0-7.84-.42-14.28-.42-7,0-13.44.42-14.7.42a1.34,1.34,0,0,1-1.54-1.54v-1.54c0-1.12.42-1.4,1.82-1.54l4.06-.28c1.82-.14,2.38-1.12,2.38-2.8V839.64c0-8.26-3.08-19.46-21-19.46h-7.42v75.88c0,3.5,1.54,4.62,4.2,4.9l6,.56c1.26.14,1.68.42,1.68,1.54v1.82c0,1.12-.42,1.54-1.54,1.54-2.52,0-12.32-.42-19.88-.42s-17.92.42-20.58.42c-1,0-1.4-.42-1.4-1.54v-1.82c0-1.12.42-1.4,1.68-1.54l6.72-.56c2.94-.28,4.2-1.54,4.2-4.9V820.18h-6c-11.06,0-13.86,2.52-17.22,8.12A89.08,89.08,0,0,0,101,838.8l-3.78-.56c.84-6.3,1.54-17.22,2-22.26.14-1.68.7-2.1,2.8-2.1,19.6,0,22.54.42,36.54.42s22.12-.42,28.42-.42a168.23,168.23,0,0,0,24.92-1.68c.42,0,.84.56.84,1.12,0,2.94-.28,8.4-.28,12.32V855c3.64-3.36,9.8-9.24,18.48-9.24,12.6,0,19,7.7,19,19.6v33.32c0,1.68.56,2.66,2.38,2.8l4.48.28c1.26.14,1.68.42,1.68,1.54v1.54C238.44,906,238,906.42,236.9,906.42Zm61.6-13.16a27.33,27.33,0,0,1-24.78,14.84c-14.7,0-30.1-12.6-30.1-31.5,0-20.3,14.7-30.8,30.24-30.8s26,13.16,26,20c0,2.66-.7,4.34-3.36,4.34H261a19.32,19.32,0,0,0-.14,2c0,20.44,9.52,25.62,17.78,25.62,7.7,0,14.14-5.32,16-7.14a1.41,1.41,0,0,1,1.12-.42c.84,0,2.94,1,2.94,2.1A3.15,3.15,0,0,1,298.5,893.26ZM273.3,851c-6,0-11.76,7.7-12,14.14h20c3.08,0,3.64-1.26,3.64-3.22C284.92,858.12,280.58,851,273.3,851ZM363,908.1c-9.1,0-19.18-3.78-26-6.86V826.62c0-5-1.4-5.88-7.14-6.44-.42,0-.56-.28-.56-1v-1.68c0-.7.56-1,1.4-1,3.78-.14,14.42-.84,20.44-3.92a4.45,4.45,0,0,1,1.26-.42c.56,0,1,.28,1,1.12l-.14,12.32v27.3a23.44,23.44,0,0,1,16.52-7.14c9,0,27.16,4.62,27.16,28.56C396.92,894.52,380.4,908.1,363,908.1Zm.42-54.46c-7.28,0-10.22,7.14-10.22,9.52V886.4c0,12.32,8.26,15.54,14,15.54,8.54,0,13.44-9.66,13.44-21.42C380.68,865.82,374.8,853.64,363.46,853.64Zm80.92,13.3c-5.74,0-9-4.34-9-8a10.27,10.27,0,0,1,1.68-5,1.26,1.26,0,0,0,.14-.7c0-.7-.56-1.12-1.68-1.12-3.08,0-8,7-8,15.82v30.8c0,1.68.56,2.66,2.38,2.8l5.74.28c1.26,0,1.82.42,1.82,1.54v1.54a1.34,1.34,0,0,1-1.54,1.54c-.7,0-9.66-.42-17.36-.42-7,0-13.16.42-14.42.42a1.34,1.34,0,0,1-1.54-1.54v-1.54c0-1.12.42-1.4,1.82-1.54l4.48-.28c1.82-.14,2.38-1.12,2.38-2.8v-38.5c0-5.18-1.54-5.74-7.14-6.3-.42,0-.56-.28-.56-1v-1.68c0-.84.42-1,1.4-1,3.64-.28,13.3-1,19.32-4.06a3.35,3.35,0,0,1,1.26-.42,1,1,0,0,1,1,1.12l.7,7.56c2.52-3.5,7.14-8.68,14-8.68,9.24,0,11.76,6.44,11.76,11.76S448.58,866.94,444.38,866.94Zm42.7,41.16c-13.44,0-31.22-9.94-31.22-31.08,0-17.22,13.3-31.22,31.08-31.22,13.44,0,31.22,10.08,31.22,31.22A30.66,30.66,0,0,1,487.08,908.1Zm-.28-57.26c-8.82,0-13.16,11.34-13.16,23.52,0,18.2,6,28.42,13.44,28.42,9.24,0,13.3-10.92,13.3-23.24C500.38,861.34,494.22,850.84,486.8,850.84Zm130.76.84-1.26.42c-3.78,1.26-5,1.82-5.88,4.06l-19.32,48a4.9,4.9,0,0,1-4.76,3.36,5.13,5.13,0,0,1-4.9-3.36l-12.18-30.1-12.18,30.1a5.25,5.25,0,0,1-9.8,0l-19.74-48.72a4.94,4.94,0,0,0-4.62-3.5l-2.38-.28c-1.26-.14-1.68-.28-1.68-1.4v-1.4c0-1,.42-1.4,1.4-1.4,1.82,0,7.42.42,13.44.42,3.22,0,13.44-.42,15.54-.42,1,0,1.54.42,1.54,1.4v1.4c0,1.12-.42,1.26-1.68,1.4l-1.68.28a2.81,2.81,0,0,0-2.66,2.94,4.83,4.83,0,0,0,.42,1.82l11.76,29.12,8.68-21-3.78-9.38c-1-2.52-1.54-3.22-3.22-3.5l-1.4-.28c-1.4-.28-1.68-.42-1.68-1.4v-1.4c0-1,.42-1.4,1.4-1.4,2.24,0,6.86.42,11.48.42,5.46,0,15.82-.42,17.64-.42,1,0,1.4.42,1.4,1.4v1.4c0,1.12-.28,1.26-1.68,1.4l-3.5.28a3.23,3.23,0,0,0-3.22,3.08,3.55,3.55,0,0,0,.28,1.68l11.76,29.12,11.76-29.26a5.5,5.5,0,0,0,.42-2c0-1.68-1.12-2.52-3.08-2.66l-3.08-.28c-1.26-.14-1.68-.28-1.68-1.4v-1.4c0-1,.42-1.4,1.4-1.4,1.68,0,7.14.42,11.76.42s7.42-.42,9.1-.42c1,0,1.54.42,1.54,1.4v1.4C619.24,851.4,618.82,851.26,617.56,851.68Zm73.5,54.74c-1.4,0-8.12-.42-15.12-.42s-12.6.42-13.86.42-1.54-.42-1.54-1.54v-1.54c0-1.12.42-1.4,1.68-1.54l3.08-.28c1.82-.14,2.38-1.12,2.38-2.8V862.6c0-7-2.52-10.22-8-10.22-4.9,0-11.9,7-13.3,8.68v37.66c0,1.68.56,2.66,2.38,2.8l2.8.28c1.26.14,1.82.42,1.82,1.54v1.54a1.34,1.34,0,0,1-1.54,1.54c-1.4,0-6.58-.42-13.72-.42s-13.86.42-15.12.42a1.34,1.34,0,0,1-1.54-1.54v-1.54c0-1.12.42-1.4,1.82-1.54l4.48-.28c1.82-.14,2.38-1.12,2.38-2.8v-38.5c0-5.18-1.54-5.74-7.14-6.3-.42,0-.56-.28-.56-1v-1.68c0-.7.42-.84,1.4-1,4.2-.42,13.3-1,19.32-4.06a4.45,4.45,0,0,1,1.26-.42,1.08,1.08,0,0,1,1,1.12l1,8.12c2.94-2.94,10.08-9.24,18.2-9.24,13.72,0,19.32,8.4,19.32,19.6v33.32c0,1.68.56,2.66,2.38,2.8l4.48.28c1.26.14,1.68.42,1.68,1.54v1.54C692.46,906,692,906.42,691.06,906.42Zm100.24,0c-.42,0-3.5-.14-5.32-.14-3.5,0-13,.7-16.1,1.54a7,7,0,0,1-1.68.28c-.56,0-.84-.28-.84-1.12l-.42-9c-3.78,5.88-9.24,10.08-17.78,10.08-12.32,0-26.32-10.92-26.32-29.12,0-18.76,13.58-33.18,32.9-33.18A28.41,28.41,0,0,1,766.52,848V825.78c0-6.16-4.9-6.86-9.66-7.42-.56,0-.56-.42-.56-1v-1.82c0-.56.42-1,1.4-1h4.06c3.92,0,15.4-.28,18.9-2a6.59,6.59,0,0,1,1.26-.42,1,1,0,0,1,1.12,1.12c-.14,4.06-.28,10.36-.28,12.32v69.44c0,5.88,4.06,6.86,8.82,7.28.84.14,1.12.42,1.12,1.26V905C792.7,906,792.28,906.42,791.3,906.42Zm-38.5-55c-5.32,0-13.58,6.72-13.58,22,0,13.86,5,26.6,15.4,26.6,8.12,0,11.9-8.82,11.9-14.42V864.14C766.52,856.3,760.64,851.4,752.8,851.4Zm76,56.7c-13.44,0-31.22-9.94-31.22-31.08,0-17.22,13.3-31.22,31.08-31.22,13.44,0,31.22,10.08,31.22,31.22A30.66,30.66,0,0,1,828.82,908.1Zm-.28-57.26c-8.82,0-13.16,11.34-13.16,23.52,0,18.2,6,28.42,13.44,28.42,9.24,0,13.3-10.92,13.3-23.24C842.12,861.34,836,850.84,828.54,850.84Zm95.9,10.22c-2.52,0-4.48-1.68-7.7-4.06a20.91,20.91,0,0,1,1.68,8.26c0,12.88-13,22.26-23.52,22.26a13.22,13.22,0,0,0-2,.14c-3.92.28-7.7,2.1-7.7,4.76s1.82,3.36,4.9,3.36c3.5,0,12.18-.56,18.2-.56,6.58,0,19.32,3.36,19.32,18.34,0,16.8-21.14,27.44-38.5,27.44-14.14,0-22.26-6.86-22.26-15.12,0-6.16,4.06-10.08,9.1-13.44l3.22-2.1c-5.46-.84-10.5-4.34-10.5-10.5,0-5.88,8.4-10.64,15.4-13.86-10.36-2.52-15.26-9.94-15.26-18.2,0-13.72,14.7-22,25.9-22a27.22,27.22,0,0,1,10.64,2.1c5.32,2.38,9.8,5.74,12.74,5.74,1.26,0,2.52-.84,2.52-1.82,0-1.4-.84-1.68-.84-2.94,0-1.54,1.68-2.66,3.22-2.66a7.2,7.2,0,0,1,7.14,7.28C930.18,858,927.38,861.06,924.44,861.06Zm-21.56,49.28c-7.84,0-12.18.56-15.54.56a27,27,0,0,1-3.36-.14c0,.7-.84,1.68-2.38,3.64a10.3,10.3,0,0,0-2.52,6.86c0,6.72,4.9,11.9,15.4,11.9,12.32,0,19.74-5.32,19.74-13.72C914.22,913.84,910.86,910.34,902.88,910.34Zm-9.8-58.94c-4.34,0-7.56,5.18-7.56,14.42,0,10.78,2.66,16.52,8.68,16.52,5,0,7.56-4.9,7.56-14.14C901.76,855.46,898.26,851.4,893.08,851.4Zm97,55c-2,0-9-.42-15.4-.42-7,0-13.72.42-15,.42a1.34,1.34,0,0,1-1.54-1.54v-1.54c0-1.12.42-1.4,1.82-1.54l4.62-.28c1.82-.14,2.38-1.12,2.38-2.8v-38.5c0-5.18-1.54-5.74-7.14-6.3-.42,0-.56-.42-.56-1v-1.68c0-.7.14-.84,1.4-1,3.64-.28,14.42-1.12,20.58-4.06a3.35,3.35,0,0,1,1.26-.42,1,1,0,0,1,1,1.12c0,2.66-.28,10.5-.28,12.32v39.48c0,1.68.56,2.66,2.38,2.8l4.2.28c1.26.14,1.68.42,1.68,1.54v1.54C991.5,906,991.08,906.42,990.1,906.42ZM974.7,836a9.45,9.45,0,0,1,0-18.9,9.45,9.45,0,0,1,0,18.9Zm41.44,72.1c-8.26,0-14-3.36-14.56-3.92l-2-14,3.36-1.26,4.9,9c1,.84,4.2,3.64,8.26,3.64,4.48,0,8.54-3.08,8.54-8.12s-4.9-7.84-13.86-12.88c-8.54-4.76-12.18-9.66-12.18-17.36,0-10.78,11.06-17.36,19.74-17.36,7.56,0,13.72,2.66,14.84,2.94l1,14.14-3.22.56c-.56-2-3.92-11.9-11.06-11.9-5.88,0-8.26,3.64-8.26,7.14,0,4.06,2.8,5.6,12.6,11.06,8.68,4.9,14.42,9.94,14.42,20.3S1027.2,908.1,1016.14,908.1Zm110.74-14.84a27.33,27.33,0,0,1-24.78,14.84c-14.7,0-30.1-12.6-30.1-31.5,0-20.3,14.7-30.8,30.24-30.8s26,13.16,26,20c0,2.66-.7,4.34-3.36,4.34h-35.56a19.32,19.32,0,0,0-.14,2c0,20.44,9.52,25.62,17.78,25.62,7.7,0,14.14-5.32,16-7.14a1.41,1.41,0,0,1,1.12-.42c.84,0,2.94,1,2.94,2.1A3.15,3.15,0,0,1,1126.88,893.26ZM1101.68,851c-6,0-11.76,7.7-12,14.14h20c3.08,0,3.64-1.26,3.64-3.22C1113.3,858.12,1109,851,1101.68,851Zm95.18,55.44c-1.82,0-9.38-.42-15.82-.42-5.18,0-14.56.42-16,.42-1,0-1.4-.42-1.4-1.54v-1.26c0-1.12.42-1.26,1.68-1.4l2.38-.28a2.48,2.48,0,0,0,2.52-2.38,3.91,3.91,0,0,0-1.12-2.38l-9.38-13.44L1149.4,898.3a3.24,3.24,0,0,0-.7,2.1c0,.7.56,1.4,2.1,1.54l3.08.28c1.26.14,1.68.28,1.68,1.54v1.12c0,1.12-.42,1.54-1.54,1.54s-9.24-.42-12.88-.42c-4.06,0-7.56.42-9.38.42a1.34,1.34,0,0,1-1.54-1.54v-1.12c0-1.26.42-1.4,1.82-1.54l3.5-.42c3.08-.42,4.06-1.12,6.3-4.2L1155.7,878l-15.82-22.54a7.2,7.2,0,0,0-5.18-3.5l-2.8-.28c-1.26-.14-1.82-.42-1.82-1.54V849a1.34,1.34,0,0,1,1.54-1.54c1.82,0,8.54.42,15,.42,5,0,14.84-.42,16.1-.42a1.34,1.34,0,0,1,1.54,1.54v1.12c0,1.26-.7,1.4-1.82,1.54l-1.82.28c-1.4.28-2.24,1-2.24,2.38a4.46,4.46,0,0,0,.84,2.38l7.14,10.08,7.84-11.48a3,3,0,0,0,.7-1.54c0-1.4-1.12-1.82-2.1-2l-1.4-.14c-1.4-.14-1.68-.28-1.68-1.54V849c0-1.12.42-1.54,1.4-1.54,1.4,0,7,.42,10.78.42,4.06,0,8.54-.42,10.36-.42,1,0,1.4.42,1.4,1.54v1.12c0,1.12-.42,1.4-1.68,1.54l-3.64.42c-3.36.42-4.62,1.26-6.58,4.2l-11.34,16.24,17.92,25.9c1.26,1.68,2.8,3.22,5.18,3.5l3.08.28c1.4.14,1.82.28,1.82,1.4v1.26A1.34,1.34,0,0,1,1196.86,906.42Zm55.58-8.12c-1.12,1.82-9.51,9.8-23.09,9.8-16.66,0-32.34-11.06-32.34-30.94,0-17.92,15.54-31.36,31.08-31.36,17.22,0,24.63,8.26,24.63,16.38a8.29,8.29,0,0,1-8.12,8.12c-4.89,0-8.39-3.36-8.39-6.72,0-4.9,3.08-5.18,3.08-8.26,0-1.4-2.8-4.34-8.68-4.34-6.72,0-16.24,6.86-16.24,22.26,0,18.34,11.06,26.18,19.32,26.18a23.66,23.66,0,0,0,14.7-4.76,2.37,2.37,0,0,1,1.54-.7c1.12,0,3.08,1.4,3.08,2.8A3,3,0,0,1,1252.44,898.3Zm38.5,8.12c-2,0-9-.42-15.4-.42-7,0-13.72.42-15,.42a1.34,1.34,0,0,1-1.54-1.54v-1.54c0-1.12.42-1.4,1.82-1.54l4.62-.28c1.82-.14,2.38-1.12,2.38-2.8v-38.5c0-5.18-1.54-5.74-7.14-6.3-.42,0-.55-.42-.55-1v-1.68c0-.7.13-.84,1.39-1,3.64-.28,14.42-1.12,20.58-4.06a3.35,3.35,0,0,1,1.26-.42,1,1,0,0,1,1,1.12c0,2.66-.28,10.5-.28,12.32v39.48c0,1.68.56,2.66,2.38,2.8l4.2.28c1.26.14,1.68.42,1.68,1.54v1.54C1292.34,906,1291.92,906.42,1290.94,906.42ZM1275.54,836a9.45,9.45,0,0,1,0-18.9,9.45,9.45,0,0,1,0,18.9Zm44.81,72.1c-12.18,0-16.1-8-16.1-17.22v-36.4h-6.72a.81.81,0,0,1-.84-.84l.28-3.92c0-.56,0-1,.84-1.26a21.8,21.8,0,0,0,8.82-4.9,36.1,36.1,0,0,0,6.58-10.92h7.28V847.9h14.28a.93.93,0,0,1,1,.84l-.41,4.9a.81.81,0,0,1-.85.84h-14V891.3c0,5.18,1.26,8.68,6.3,8.68,4.33,0,8.81-3.36,8.81-3.36l2.24,3.5A23.5,23.5,0,0,1,1320.35,908.1Zm75.87-14.84c-.83,2.1-8.12,14.84-24.77,14.84-14.7,0-30.1-12.6-30.1-31.5,0-20.3,14.7-30.8,30.24-30.8s26,13.16,26,20c0,2.66-.7,4.34-3.35,4.34h-35.56a19.32,19.32,0,0,0-.14,2c0,20.44,9.52,25.62,17.78,25.62,7.7,0,14.13-5.32,16-7.14a1.42,1.42,0,0,1,1.12-.42c.85,0,2.94,1,2.94,2.1A3.15,3.15,0,0,1,1396.22,893.26ZM1371,851c-6,0-11.76,7.7-12,14.14h20c3.07,0,3.64-1.26,3.64-3.22C1382.65,858.12,1378.31,851,1371,851Zm103.44,55.44c-.42,0-3.5-.14-5.32-.14-3.5,0-13,.7-16.1,1.54a7,7,0,0,1-1.68.28c-.56,0-.84-.28-.84-1.12l-.42-9c-3.78,5.88-9.24,10.08-17.78,10.08C1420,908.1,1406,897.18,1406,879c0-18.76,13.58-33.18,32.9-33.18a28.41,28.41,0,0,1,10.78,2.24V825.78c0-6.16-4.9-6.86-9.66-7.42-.56,0-.56-.42-.56-1v-1.82c0-.56.42-1,1.4-1h4.06c3.92,0,15.4-.28,18.9-2a6.59,6.59,0,0,1,1.26-.42,1,1,0,0,1,1.12,1.12c-.14,4.06-.28,10.36-.28,12.32v69.44c0,5.88,4.06,6.86,8.82,7.28.84.14,1.12.42,1.12,1.26V905C1475.87,906,1475.45,906.42,1474.47,906.42Zm-38.5-55c-5.32,0-13.58,6.72-13.58,22,0,13.86,5,26.6,15.4,26.6,8.12,0,11.9-8.82,11.9-14.42V864.14C1449.69,856.3,1443.81,851.4,1436,851.4Zm92.26,56.7c-12.18,0-16.1-8-16.1-17.22v-36.4h-6.72a.81.81,0,0,1-.84-.84l.28-3.92c0-.56,0-1,.84-1.26a21.8,21.8,0,0,0,8.82-4.9,36.1,36.1,0,0,0,6.58-10.92h7.28V847.9h14.28a.94.94,0,0,1,1,.84l-.42,4.9a.81.81,0,0,1-.84.84h-14V891.3c0,5.18,1.26,8.68,6.3,8.68,4.34,0,8.82-3.36,8.82-3.36l2.24,3.5A23.53,23.53,0,0,1,1528.23,908.1Zm52.22,0c-13.44,0-31.22-9.94-31.22-31.08,0-17.22,13.3-31.22,31.08-31.22,13.44,0,31.22,10.08,31.22,31.22A30.66,30.66,0,0,1,1580.45,908.1Zm-.28-57.26c-8.82,0-13.16,11.34-13.16,23.52,0,18.2,6,28.42,13.44,28.42,9.24,0,13.3-10.92,13.3-23.24C1593.75,861.34,1587.59,850.84,1580.17,850.84Zm108.92,55.58c-.42,0-3.5-.14-5.32-.14-3.5,0-13,.7-16.1,1.54a7,7,0,0,1-1.68.28c-.56,0-.84-.28-.84-1.12l-.42-9c-3.78,5.88-9.24,10.08-17.78,10.08-12.32,0-26.32-10.92-26.32-29.12,0-18.76,13.58-33.18,32.9-33.18a28.41,28.41,0,0,1,10.78,2.24V825.78c0-6.16-4.9-6.86-9.66-7.42-.56,0-.56-.42-.56-1v-1.82c0-.56.42-1,1.4-1h4.06c3.92,0,15.4-.28,18.9-2a6.59,6.59,0,0,1,1.26-.42,1,1,0,0,1,1.12,1.12c-.14,4.06-.28,10.36-.28,12.32v69.44c0,5.88,4.06,6.86,8.82,7.28.84.14,1.12.42,1.12,1.26V905C1690.49,906,1690.07,906.42,1689.09,906.42Zm-38.5-55c-5.32,0-13.58,6.72-13.58,22,0,13.86,5,26.6,15.4,26.6,8.12,0,11.9-8.82,11.9-14.42V864.14C1664.31,856.3,1658.43,851.4,1650.59,851.4Zm86.8,56.7c-7.84,0-11.2-6.16-11.2-8.12l-.42-.28a19.09,19.09,0,0,1-16.24,8.4c-8.54,0-14.14-5.74-14.14-11.76,0-8,4.9-12.88,11.9-16.66,5.46-2.94,12.18-5.32,18.9-8V859.52c0-6.16-2.38-9.1-7.7-9.1-2.66,0-5.18,1-6.3,3.22a3.83,3.83,0,0,0-.56,2c0,2,1.4,3.5,1.4,7,0,3.78-3.5,6.3-7.28,6.3-3.5,0-7-3.36-7-7.56,0-3.78,2.1-6.86,5.18-9.66a27.18,27.18,0,0,1,17.22-5.88c11.76,0,21.28,4.2,21.28,13.86v33.46c0,2.94.14,5.46,2.94,5.46,2,0,3.5-2,4.2-3.36l3.36,2S1749.15,908.1,1737.39,908.1ZM1716,881.78c-3.64,3.08-4.48,5.88-4.48,9.66,0,4.76,3.22,7.42,7.84,7.42,5.6,0,6.86-5.88,6.86-11.48V875.2A45.71,45.71,0,0,0,1716,881.78Zm98.28-30.1-1.82.56c-3.5,1-4.48,2-5.32,3.92l-26.74,66.22C1774.21,937.64,1769,941,1760.21,941c-7.7,0-15.68-5.18-15.68-13.58,0-7.14,5.6-11.48,9.94-11.48,3.92,0,7.28,2.8,7.28,6.44,0,4.9-4.48,5-4.48,9a3.86,3.86,0,0,0,4.06,3.92c4.76,0,8.12-4.48,10.5-10.5l7.14-17.64-20.58-51.24c-1.12-2.66-2.1-3.5-4.9-3.92l-2.1-.28c-1.26-.14-1.68-.28-1.68-1.4V849c0-1.12.42-1.54,1.4-1.54,1.82,0,9,.42,15.12.42,4.76,0,13.44-.42,16.1-.42,1,0,1.4.42,1.4,1.54v1.26c0,1.12-.42,1.26-1.68,1.4l-3.5.28a3.23,3.23,0,0,0-3.22,3.08,3.28,3.28,0,0,0,.28,1.68l11.9,29.4,12-29.54a5.5,5.5,0,0,0,.42-2c0-1.68-1.12-2.52-3.08-2.66l-3.08-.28c-1.26-.14-1.68-.28-1.68-1.4v-1.4c0-1,.42-1.4,1.4-1.4,1.4,0,7.84.42,12.46.42,4.34,0,6.72-.42,8.4-.42,1,0,1.54.42,1.54,1.4v1.4C1815.93,851.4,1815.37,851.4,1814.25,851.68Z" style="fill:#fffffe"/><path d="M210.37,736.71c-45.82,0-108.9-34.87-108.9-113.88,0-63.08,46.82-113.55,108.9-113.55,47.81,0,109.23,35.53,109.23,113.55C319.6,686.24,272.79,736.71,210.37,736.71Zm-.66-213.81c-39.51,0-58.44,46.48-58.44,90.3,0,68.06,25.9,109.23,60.1,109.23,40.17,0,58.43-43.83,58.43-89.64C269.8,564.73,242.57,522.9,209.71,522.9Z" style="fill:#fff0d8"/><path d="M533.07,690.89c-1.66,15.6-3.65,29.21-4.32,34.53-.66,6-2.32,7.3-7,7.3-15.93,0-103.58-1-126.49-1-12,0-37.85,1-45.48,1-2.66,0-3.66-1-3.66-3.65v-4.65c0-2.66,1-3,4-3.32l12.61-1.33c7-.66,10-3.32,10-11.62V537.5c0-8.3-3-11-10-11.62l-12.61-1c-3-.33-4-1-4-3.65v-4.32c0-2.66,1-3.65,3.66-3.65,7.63,0,33.53,1,45.48,1,11.62,0,40.84-1,48.47-1,2.66,0,3.65,1,3.65,3.65v4.32c0,2.65-1,3.32-4,3.65l-15.6,1c-7,.34-10.3,3.32-10.3,11.62V705.16c0,8.3,2.66,11.62,10.3,11.62h32.86c31.21,0,40.51-6.3,51.13-22.9a159.74,159.74,0,0,0,16.27-31.54l9,2.32S534.73,676.28,533.07,690.89Z" style="fill:#fff0d8"/><path d="M653.92,732.72c-19.92,0-37.19-1-52.46-1-10.62,0-36.85,1-44.49,1-2.65,0-3.65-1-3.65-3.65v-4.65c0-2.66,1-3,4-3.32l12.62-1.33c7-.66,10-3.32,10-11.62V537.84c0-8.3-3-11-10-11.62l-12.62-1.33c-3-.33-4-.67-4-3.32v-4.65c0-2.66,1-3.65,3.65-3.65,7.64,0,30.21,1,43.83,1,13.28,0,42.16-1,64.07-1,74,0,116.2,47.47,116.2,104.58C781.07,703.84,714.34,732.72,653.92,732.72Zm-1.33-204.84c-13.28,0-20.59,1.66-27.89,3v171c0,10,.66,14.94,13.28,14.94h14.61c52.45,0,78.68-34.19,78.68-87.31C731.27,568.38,700.73,527.88,652.59,527.88Z" style="fill:#fff0d8"/><path d="M895.61,736.71c-31.87,0-49.47-16.94-57.44-16.94-6,0-9,3.65-11.62,8l-10.29-2.32s1.66-19.59,2-31.54c0-11-1.33-35.2-1.33-35.2l12-3c7,29.54,25.23,63.74,62.08,63.74,16.93,0,36.52-13,36.52-41.17,0-19.59-17.6-28.88-32.87-35.85-32.2-14.94-79-27.89-79-68.4,0-35.19,24.56-64.74,76.36-64.74,14.27,0,27.55,4.65,40.5,8.64a22.7,22.7,0,0,0,7,1.32c4.32,0,8-6.64,10-9.29l8.3,3A143.18,143.18,0,0,0,954,544.81a286.94,286.94,0,0,0,2,30.54l-11.95,1c-4.32-32.21-24.24-52.13-51.13-52.13-20.58,0-35.52,13.62-35.52,36.19,0,18.59,20.91,28.22,35.19,34.53,35.19,15.6,80,29.88,80,73.7C972.63,709.48,939.43,736.71,895.61,736.71Z" style="fill:#fff0d8"/><path d="M1162.53,547.46c-7.63-13.28-14.27-19.25-40.83-19.25h-14.28V708.15c0,8.3,3.65,11,10,11.62l15.94,1.33c3,.33,4,1,4,3.65v4.32c0,2.65-1,3.65-3.65,3.65-6,0-30.88-1-48.81-1-17.59,0-42.49,1-48.8,1-2.32,0-3.32-1-3.32-3.65v-4.32c0-2.65,1-3.32,4-3.65l15.94-1.33c7-.66,10-3.65,10-11.62V528.21h-14.28c-26.22,0-32.86,6-40.83,19.25-5,8.64-11,24.9-11,24.9l-9-1.32c2-14.94,3.65-40.84,4.65-52.79.33-4,1.66-5,6.64-5,46.48,0,53.45,1,86.65,1s39.17-1,85.66-1c5,0,6.3,1,6.63,5,1,12,3,37.85,4.65,52.79l-9,1S1167.84,556.1,1162.53,547.46Z" style="fill:#fff0d8"/><path d="M1394.6,524.89l-9,.66c-7,.67-13.61,3.65-18.26,12.29l-50.46,97.6v72.71c0,8.3,3,11,10,11.62l12.62,1.33c3,.33,4,.66,4,3.32v4.65c0,2.65-1,3.65-3.65,3.65-7.64,0-33.2-1-44.82-1s-38.18,1-46.15,1c-2.32,0-3.32-1-3.32-3.65v-4.65c0-2.66,1-3,4-3.32l12.62-1.33c6.64-.66,10-3.32,10-11.62v-66.4l-53.45-103.58c-4-7.64-10.63-11.29-17.93-12.29l-7.64-1c-3-.33-4-.67-4-3.32v-4.65c0-2.66,1.33-3.65,3.65-3.65,8.63,0,32.54,1,43.49,1s36.52-1,44.82-1c2.33,0,3.66,1,3.66,3.65v4.65c0,2.65-1.33,3-4.32,3.32l-12.28,1c-4,.34-6.31,2.33-6.31,5.65a10.88,10.88,0,0,0,1.66,6l39.17,76.7h2l39.18-76.36a10.31,10.31,0,0,0,1-4.32c0-4-3.65-6.64-9.3-7.3l-9.63-1.33c-3.32-.33-4.31-.67-4.31-3.32v-4.65c0-2.66,1.32-3.65,3.65-3.65,9,0,23.24,1,33.53,1,12,0,26.56-1,36.52-1,2.32,0,3.65,1,3.65,3.65v4.65C1398.91,524.22,1397.58,524.56,1394.6,524.89Z" style="fill:#fff0d8"/><path d="M1600.77,690.89c-1.66,15.6-3.66,29.21-4.32,34.53-.66,6-2.33,7.3-7,7.3-15.94,0-103.59-1-126.49-1-12,0-37.85,1-45.49,1-2.66,0-3.65-1-3.65-3.65v-4.65c0-2.66,1-3,4-3.32l12.62-1.33c7-.66,10-3.32,10-11.62V537.5c0-8.3-3-11-10-11.62l-12.62-1c-3-.33-4-1-4-3.65v-4.32c0-2.66,1-3.65,3.65-3.65,7.64,0,33.53,1,45.49,1,11.61,0,40.83-1,48.47-1,2.65,0,3.65,1,3.65,3.65v4.32c0,2.65-1,3.32-4,3.65l-15.6,1c-7,.34-10.29,3.32-10.29,11.62V705.16c0,8.3,2.65,11.62,10.29,11.62h32.87c31.21,0,40.5-6.3,51.13-22.9a160.29,160.29,0,0,0,16.27-31.54l9,2.32S1602.42,676.28,1600.77,690.89Z" style="fill:#fff0d8"/><path d="M1812.58,702.18c-1.33,12.28-1.66,14.6-2.32,23.24-.34,5.64-1,7.3-8,7.3-41.17,0-110.23-1-131.14-1-12,0-38.51,1-46.15,1-2.66,0-3.65-1-3.65-3.65v-4.65c0-2.66,1-3,4-3.32l12.62-1.33c7-.66,10-3.32,10-11.62V537.84c0-8.3-3-11-10-11.62l-12.62-1.33c-3-.33-4-.67-4-3.32v-4.65c0-2.66,1-3.65,3.65-3.65,7.64,0,33.86,1,45.82,1,19.92,0,69.72-1,116.2-1,5.31,0,6,1,6.3,5a391.83,391.83,0,0,0,8.3,51.79l-9,1.66c-2.32-8.63-10.62-22.24-16.27-27.89-14.61-14.27-31.21-15.6-54.78-15.6h-28.88v82l26.89-1c14.94-.34,22.58-7.31,27.22-16.27a63.58,63.58,0,0,0,7.64-24.57l9.3.66s-1.66,30.22-1.66,48.81c0,18.92,1.66,48.8,1.66,48.8l-9.3,1a65.85,65.85,0,0,0-7.64-24.9c-4.64-9-12.28-15.94-27.22-16.27l-26.89-1v79c0,6.64,3,12.28,12,12.28h33.86c28.89,0,40.84-3.32,50.14-14.6A142.6,142.6,0,0,0,1807.27,672l9,2C1814.9,683.58,1813.58,692.55,1812.58,702.18Z" style="fill:#fff0d8"/><path d="M253.22,276.91l-2.78.5-5.82-20c-2.27-7.85-4.55-17-17.46-17H199.08L166.7,378.11a25.45,25.45,0,0,0-.51,3.79c0,5.82,4.3,7.09,7.59,7.34l15.69.76c1,0,2.27.76,1.77,2.78l-.76,3c-.51,2.28-1.77,2.78-3.29,2.78-5.57,0-25.05-.76-33.9-.76-9.62,0-24.54.76-30.36.76a2,2,0,0,1-2-2.78l.76-3c.51-1.77,1-2.53,3.8-2.78l8.09-.51c9.11-.75,13.41-5.31,14.93-11.89l32.13-137.13H149.24c-12.65,0-18.72,9.11-24.29,17L111,277.67l-2.54-.76c2.28-10.63,6.58-31.63,8.35-41.5.51-3,1.52-4,4.56-4,23.27,0,51.86.75,68.31.75,19.48,0,46.05-.75,68.56-.75,2.53,0,3.29.75,3.29,2.27l-.25,1.77C259.3,245,254.24,271.59,253.22,276.91Z" style="fill:#850e23"/><path d="M318.49,324.73c-19.48,51.86-36.68,84.5-57.68,120.93-6.83,11.89-12.65,15.44-22.27,15.44-11.89,0-18.47-5.82-18.47-13.67,0-5.06,3-10.37,9.11-10.37,8.86,0,10.63,11.13,17.21,11.13,3.29,0,5.31-1.77,8.09-6.32,7.85-13.16,15.44-26.06,22.27-40.23L254.48,306c-1.26-5.31-2-6.83-4.8-6.83-6.83,0-11.64,22.77-11.64,39v4.31l-2.78.5a69.34,69.34,0,0,1-.26-7.84c0-17.46,3.8-46.05,20.5-46.05,8.85,0,9.86,5.31,12.14,14.93l17.71,76.91h1c3.54-7.59,24-53.89,24-59.71,0-6.83-9.62-9.61-9.62-19.73,0-6.83,4.56-12.4,10.63-12.4,8.1,0,11.89,8.6,11.89,15.43C323.3,312.07,320.77,318.65,318.49,324.73Z" style="fill:#850e23"/><path d="M359.48,401.64a42.41,42.41,0,0,1-8.86-.76l-8.85,40.48a13.72,13.72,0,0,0-.26,2.28c0,3.54,2,5.56,6.08,5.82l12.65.5c2.53.26,3,.76,3,3v2.28c0,2-.76,2.78-2.53,2.78-2.53,0-13.41-.76-25.8-.76s-22,.76-24,.76c-1.77,0-2.78-.76-2.78-2.78V453c0-2.28.76-2.78,3.29-3l10.12-.5c4-.26,5.81-2.53,6.83-7.34l29.09-129.29a117.68,117.68,0,0,0-21.25,23.79l-3.29-1.27c1.77-3.79,11.64-19.73,26.82-31.62l5.06-23.53a2.1,2.1,0,0,1,2-1.52l10.63-1c.76,0,1.27.75,1,1.77l-3.54,15.43a51.38,51.38,0,0,1,23.28-5.82c16.19,0,27.32,11.64,27.32,27.83C425.51,376.09,380,401.64,359.48,401.64Zm31.37-103.48A35.1,35.1,0,0,0,373.14,303l-21.25,93.1s2.53.26,6.07.26c18.22,0,51.11-29.61,51.11-75.65C409.07,304.23,402,298.16,390.85,298.16Z" style="fill:#850e23"/><path d="M456.12,349.52c.25,27.58,9.87,39,20.75,39,13.91,0,19.48-12.65,22.51-23l3.55.5c-3.29,16.2-13.67,35.68-32.64,35.68-17.71,0-28.34-16.7-28.34-36.43,0-53.39,29.1-76.16,50.6-76.16,8.35,0,19.74,5.06,19.74,19C512.29,331.3,467.51,345.72,456.12,349.52ZM487,294.87c-21,0-30.62,33.14-30.87,52.12,23-8.35,42.25-21,42.25-38.46C498.37,305,497.11,294.87,487,294.87Z" style="fill:#850e23"/><path d="M586.66,401.64c-6.83,0-11.13-3.8-11.13-10.88a21.14,21.14,0,0,1,1-6.58l24-78.94a9.59,9.59,0,0,0,.51-2.27,3,3,0,0,0-3.29-3c-6.08,0-12.4,7.84-18.73,24.29L576.54,323c3-9.1,11.9-33.9,27.33-33.9,6.58,0,11.13,3.8,11.13,10.63a26.26,26.26,0,0,1-1.26,6.83L590,385.45a9.51,9.51,0,0,0-.5,2.27,3,3,0,0,0,3.29,3c7.33,0,17.2-16.7,23-31.37l2.53,1C615.51,368.24,603.11,401.64,586.66,401.64Zm31.63-134.09a11.61,11.61,0,0,1-11.64-11.64,11.64,11.64,0,1,1,23.28,0A11.61,11.61,0,0,1,618.29,267.55Z" style="fill:#850e23"/><path d="M694.69,300.18H669.14L649.66,387a9.45,9.45,0,0,0-.26,2,1.58,1.58,0,0,0,1.78,1.77c2,0,5.81-3,10.37-8.1,7.34-8.35,12.9-20.24,14.93-25.3l2.53.51c-6.08,20-23,43.77-36.44,43.77-5.06,0-7.59-2.78-7.59-7.84a25.42,25.42,0,0,1,.51-4.56l20.24-89.06H640a1.45,1.45,0,0,1-1.51-1.51l1-4.31a1.89,1.89,0,0,1,1.77-1.51H657.5l6.33-28.59c.25-1,.75-1.27,2-1.52L676.48,261c1-.26,1.51.76,1.26,1.77l-6.83,30.11H696a1.46,1.46,0,0,1,1.52,1.51l-1,4.31A1.89,1.89,0,0,1,694.69,300.18Z" style="fill:#850e23"/><path d="M811.32,401.64c-5.06,0-7.59-2.78-7.59-7.84a22.09,22.09,0,0,1,.51-4.56l10.88-47.56-.51-.26c-10.37,26.32-26.31,60.22-47.31,60.22-7.59,0-16.7-4.56-16.7-27.07,0-34.66,28.59-85.52,53.89-85.52,7.59,0,14.93,3.54,20.49,9.11l5.82-9.11h9.62L818.15,387l-.25,1.78a1.83,1.83,0,0,0,2,2c2,0,5.82-3,10.38-8.1,7.33-8.35,12.9-20.24,14.92-25.3l2.53.51C841.68,377.86,824.73,401.64,811.32,401.64ZM805.5,294.36c-21.25,0-38.71,51.11-38.71,77.17,0,12.4,3,19.23,8.35,19.23,17.46,0,45.54-68.57,45.54-82.48C820.68,302.21,816.13,294.36,805.5,294.36Z" style="fill:#850e23"/><path d="M942.88,307.77c-8.6,0-13.91-8.35-17.46-8.35a1.81,1.81,0,0,0-2,1.78,3.11,3.11,0,0,0,.51,1.26,45.38,45.38,0,0,1,6.32,23.28c0,22.26-18,39.21-33.9,39.21a21.68,21.68,0,0,1-8.86-2c-4.3,1.26-16.19,5.57-16.19,15.94,0,10.62,19,12.14,37.19,16.95,16.7,4.3,32.64,11.13,32.64,30.61,0,28.34-35.93,34.67-52.37,34.67C865,461.1,844,452.75,844,434.53c0-17.71,29.09-26.82,50.85-27.83-18.22-4.81-37.44-9.62-37.44-23s19.73-20.24,27.57-22c-11.38-6.83-16.44-20.24-16.44-32.89,0-22.26,18.21-39.72,33.65-39.72,13.66,0,25.55,9.62,31.37,9.62,2.53,0,3.8-.76,3.8-3s-1.52-2.78-1.52-5.31c0-3.29,2.53-5.32,6.58-5.32,5.06,0,8.6,4.3,8.6,10.63C951,303.22,946.93,307.77,942.88,307.77Zm-43.52,99.94c-20.24,2.28-41.24,9.11-41.24,27.33,0,9.61,8.86,21,31.38,21C914,456,928,446.17,928,431.24,928,417.58,914.54,412,899.36,407.71Zm5.06-114.61c-11.89,0-22,21.25-22,47.06,0,7.84.26,21,11.13,21,13.16,0,21.76-26.57,22-48.07C915.56,305.24,915.05,293.1,904.42,293.1Z" style="fill:#850e23"/><path d="M1012,401.64c-5.06,0-7.59-2.78-7.59-7.84a22.52,22.52,0,0,1,.5-4.56l10.88-47.56-.5-.26c-10.38,26.32-26.32,60.22-47.32,60.22-7.59,0-16.7-4.56-16.7-27.07,0-34.66,28.59-85.52,53.9-85.52,7.59,0,14.92,3.54,20.49,9.11l5.82-9.11H1041L1018.78,387l-.26,1.78a1.83,1.83,0,0,0,2,2c2,0,5.82-3,10.37-8.1,7.34-8.35,12.9-20.24,14.93-25.3l2.53.51C1042.31,377.86,1025.36,401.64,1012,401.64Zm-5.82-107.28c-21.26,0-38.71,51.11-38.71,77.17,0,12.4,3,19.23,8.35,19.23,17.45,0,45.54-68.57,45.54-82.48C1021.31,302.21,1016.75,294.36,1006.13,294.36Z" style="fill:#850e23"/><path d="M1073.42,401.64c-6.83,0-11.13-3.8-11.13-10.88a20.85,20.85,0,0,1,1-6.58l24-78.94a9.51,9.51,0,0,0,.5-2.27,3,3,0,0,0-3.28-3c-6.08,0-12.4,7.84-18.73,24.29L1063.3,323c3-9.1,11.89-33.9,27.33-33.9,6.58,0,11.13,3.8,11.13,10.63a26.68,26.68,0,0,1-1.26,6.83l-23.79,78.94a9.51,9.51,0,0,0-.5,2.27,3,3,0,0,0,3.29,3c7.33,0,17.2-16.7,23-31.37l2.53,1C1102.27,368.24,1089.87,401.64,1073.42,401.64Zm31.63-134.09a11.61,11.61,0,0,1-11.64-11.64,11.64,11.64,0,0,1,23.28,0A11.61,11.61,0,0,1,1105.05,267.55Z" style="fill:#850e23"/><path d="M1182.21,401.64c-5.06,0-7.84-2.53-7.84-7.59a31.59,31.59,0,0,1,.76-4.81l18.21-80.45a28.35,28.35,0,0,0,.51-4.05c0-3.29-1.27-5.06-4.3-5.06-11.89,0-39.47,41.24-51.62,95.38l-.75,2.78h-13.41l21.25-93.1.25-1.77a3.05,3.05,0,0,0-3.29-3.29c-7.84,0-13.91,13.91-17.45,25.55l-2.79-.76c6.07-23,14.42-35.42,26.31-35.42,6.84,0,10.88,4.05,10.88,10.88a22.87,22.87,0,0,1-.5,4.55l-9.62,42.26.26.25c16.19-42,34.66-57.94,49.59-57.94,4.3,0,9.61,2.28,9.61,10.63a28.12,28.12,0,0,1-.76,6.07L1189,387l-.25,1.78a1.82,1.82,0,0,0,2,2c2,0,5.82-3.29,10.12-8.1,7.34-8.35,13.16-20.49,15.18-25.55l2.53.76C1212.57,377.6,1195.37,401.64,1182.21,401.64Z" style="fill:#850e23"/><path d="M1247.48,438.58a72.51,72.51,0,0,1-19.23,9.86l-1,.26c-.51,0-1-.51-1.77-2a5.31,5.31,0,0,1-.51-1.51c0-1,1.27-1.52,1.27-1.52,26.31-12.4,33.39-33.15,33.39-39.72,0-2-.75-4.05-2.53-4.05-1.51,0-3.79,1.77-8.34,1.77a13.84,13.84,0,0,1-13.41-13.41,14.1,14.1,0,0,1,14.42-14.42c10.88,0,22,9.61,22,25.3C1271.77,415.05,1260.89,429.22,1247.48,438.58Z" style="fill:#850e23"/><path d="M1472.4,253.12a160.48,160.48,0,0,0-4.05,25.05l-4.81.51c0-32.64-15.69-43.27-33.65-43.27-11.13,0-29.85,8.1-29.85,28.59,0,13.16,12.9,24.8,26.81,37.7,15.94,14.68,32.9,31.12,32.9,52.88,0,27.83-20.5,47.06-47.82,47.06-19,0-35.17-11.13-39.72-14.17-1.78-1-4.31-2.28-6.33-2.28a7.92,7.92,0,0,0-5.06,1.27,51.34,51.34,0,0,0-5.31,4.55l-2.79-1.26a226.26,226.26,0,0,0,6.83-22.27c2-8.35,3.29-16.19,4.56-24.79l3.79-.51c0,12.15.76,22.52,6.08,33.15,5.31,10.12,14.67,19,35.16,19a31.79,31.79,0,0,0,32.14-31.88c0-16.95-14.17-30.1-28.59-43.26-15.44-13.92-31.12-28.08-31.12-46.81,0-24.29,15.68-44,47.56-44,20,0,27.58,9.36,37.19,9.36,2.79,0,4.81-1.77,6.58-3.29l3.8-3.54,3,1.77C1477.2,237.19,1474.67,244,1472.4,253.12Z" style="fill:#850e23"/><path d="M1544.24,401.64c-5.06,0-7.59-2.78-7.59-7.84a22.09,22.09,0,0,1,.51-4.56L1548,341.68l-.51-.26c-10.37,26.32-26.31,60.22-47.31,60.22-7.59,0-16.7-4.56-16.7-27.07,0-34.66,28.59-85.52,53.89-85.52,7.59,0,14.93,3.54,20.5,9.11l5.82-9.11h9.61L1551.08,387l-.26,1.78a1.83,1.83,0,0,0,2,2c2,0,5.82-3,10.37-8.1,7.34-8.35,12.9-20.24,14.93-25.3l2.53.51C1574.6,377.86,1557.65,401.64,1544.24,401.64Zm-5.82-107.28c-21.25,0-38.71,51.11-38.71,77.17,0,12.4,3,19.23,8.35,19.23,17.46,0,45.55-68.57,45.55-82.48C1553.61,302.21,1549.05,294.36,1538.42,294.36Z" style="fill:#850e23"/><path d="M1699.84,401.64c-5.06,0-7.59-2.78-7.59-7.84a23,23,0,0,1,.5-4.56L1711,308.79a20,20,0,0,0,.51-4.05c0-3.29-1.27-5.06-4.3-5.06-12.4,0-38.46,47.31-49.59,96.39l-.26,1.77h-13.66l20.24-89a22.55,22.55,0,0,0,.51-4.05c0-3.29-1.27-5.06-4.3-5.06-12.15,0-37.95,45.54-49.09,94.12l-1,4h-13.41l21.25-93.1.26-1.77a3.06,3.06,0,0,0-3.29-3.29c-7.84,0-13.92,13.91-17.46,25.8l-2.78-1c6.07-23,14.42-35.42,26.31-35.42,6.83,0,10.88,4.05,10.88,10.88a27,27,0,0,1-.51,4.55l-10.12,44.79.26.25c10.62-29.1,27.07-60.47,47.81-60.47,4.31,0,9.62,2.28,9.62,10.37a28.14,28.14,0,0,1-.76,6.08l-9.87,44h.26c10.62-29.1,27.07-60.47,47.81-60.47,4.56,0,9.87,2.28,9.87,10.63a26.06,26.06,0,0,1-.76,5.82L1706.92,387l-.25,1.78a1.76,1.76,0,0,0,1.77,2c2,0,5.82-3.29,10.37-8.35,7.34-8.1,12.91-20,15.18-25.3l2.28.76C1730.45,377.6,1713.25,401.64,1699.84,401.64Z" style="fill:#850e23"/><path d="M1770.93,372.8a14.42,14.42,0,1,1-14.42,14.42A14.58,14.58,0,0,1,1770.93,372.8Zm45.54-128.28L1780,359.64l-5.06-1.26,19.73-119.17c1-6.07,4.81-10.88,11.38-10.88a10.92,10.92,0,0,1,11.14,11.13A17.74,17.74,0,0,1,1816.47,244.52Z" style="fill:#850e23"/><path d="M193.19,1024.75l-1.67.3-3.5-12c-1.36-4.71-2.73-10.18-10.48-10.18H160.67l-19.46,82.68a16.3,16.3,0,0,0-.3,2.28c0,3.5,2.58,4.26,4.56,4.41l9.42.46c.61,0,1.37.45,1.06,1.67l-.45,1.82a1.82,1.82,0,0,1-2,1.68c-3.34,0-15.05-.46-20.36-.46-5.78,0-14.75.46-18.24.46a1.19,1.19,0,0,1-1.22-1.68l.46-1.82c.3-1.06.6-1.52,2.28-1.67l4.86-.31c5.47-.45,8.06-3.19,9-7.14l19.3-82.38H130.72c-7.6,0-11.24,5.47-14.59,10.18l-8.36,12.16-1.52-.45c1.37-6.39,4-19,5-24.93.3-1.82.91-2.43,2.73-2.43,14,0,31.16.45,41,.45,11.71,0,27.66-.45,41.19-.45,1.52,0,2,.45,2,1.37l-.15,1.06C196.84,1005.6,193.8,1021.56,193.19,1024.75Zm39.07,28.72c-11.7,31.16-22,50.77-34.65,72.66-4.11,7.14-7.6,9.27-13.38,9.27-7.14,0-11.1-3.5-11.1-8.21,0-3,1.83-6.23,5.48-6.23,5.32,0,6.38,6.69,10.33,6.69,2,0,3.19-1.07,4.87-3.8,4.71-7.91,9.27-15.66,13.37-24.17l-13.37-57.45c-.76-3.2-1.22-4.11-2.89-4.11-4.11,0-7,13.68-7,23.41v2.58l-1.68.31a43.43,43.43,0,0,1-.15-4.71c0-10.49,2.28-27.67,12.31-27.67,5.32,0,5.93,3.19,7.3,9l10.64,46.21H213c2.12-4.56,14.44-32.38,14.44-35.87,0-4.11-5.78-5.78-5.78-11.86,0-4.1,2.74-7.45,6.38-7.45,4.87,0,7.15,5.17,7.15,9.27C235.15,1045.87,233.63,1049.83,232.26,1053.47Zm24.63,46.21a25.13,25.13,0,0,1-5.32-.46l-5.32,24.32a8,8,0,0,0-.16,1.37c0,2.13,1.22,3.34,3.65,3.5l7.6.3c1.52.15,1.83.46,1.83,1.82v1.37c0,1.22-.46,1.67-1.52,1.67-1.52,0-8.06-.45-15.51-.45s-13.22.45-14.44.45a1.45,1.45,0,0,1-1.67-1.67v-1.37c0-1.36.46-1.67,2-1.82l6.08-.3c2.43-.16,3.49-1.52,4.1-4.41l17.48-77.67a70.78,70.78,0,0,0-12.77,14.29l-2-.76a64.53,64.53,0,0,1,16.11-19l3-14.14a1.27,1.27,0,0,1,1.21-.91l6.39-.61c.45,0,.76.46.61,1.07l-2.13,9.27a30.84,30.84,0,0,1,14-3.5c9.73,0,16.42,7,16.42,16.72C296.56,1084.33,269.2,1099.68,256.89,1099.68Zm18.84-62.17a21.09,21.09,0,0,0-10.64,2.89l-12.76,55.94s1.52.15,3.64.15c11,0,30.71-17.79,30.71-45.45C286.68,1041.16,282.42,1037.51,275.73,1037.51Zm50.16,62.17c-10.48,0-18.69-11.4-18.69-28.73,0-21.73,13.53-38.91,27.51-38.91,10.49,0,18.7,11.4,18.7,28.58C353.41,1082.05,339.88,1099.68,325.89,1099.68Zm10.34-64.29c-10.34,0-19.91,20.82-19.91,48.18,0,8.66,3.65,12.61,7.9,12.61,10.34,0,20.22-20.67,20.22-48.18C344.44,1039.49,340.64,1035.39,336.23,1035.39Zm75.09,7.9c-5.17,0-8.36-5-10.49-5a1.09,1.09,0,0,0-1.22,1.07,1.88,1.88,0,0,0,.31.76,27.29,27.29,0,0,1,3.8,14c0,13.38-10.79,23.56-20.37,23.56a13,13,0,0,1-5.32-1.22c-2.58.76-9.73,3.35-9.73,9.58,0,6.38,11.4,7.3,22.35,10.18,10,2.59,19.6,6.69,19.6,18.39,0,17-21.58,20.83-31.46,20.83-14.29,0-26.9-5-26.9-16,0-10.64,17.48-16.11,30.55-16.72-10.95-2.89-22.5-5.78-22.5-13.83s11.86-12.16,16.57-13.23c-6.84-4.1-9.88-12.15-9.88-19.75,0-13.38,10.94-23.87,20.22-23.87,8.2,0,15.35,5.78,18.84,5.78,1.52,0,2.28-.46,2.28-1.83s-.91-1.67-.91-3.19c0-2,1.52-3.19,3.95-3.19,3,0,5.17,2.58,5.17,6.38C416.18,1040.55,413.75,1043.29,411.32,1043.29Zm-26.15,60c-12.16,1.37-24.77,5.47-24.77,16.41,0,5.78,5.32,12.62,18.85,12.62,14.74,0,23.1-5.93,23.1-14.9C402.35,1109.25,394.29,1105.91,385.17,1103.33Zm3-68.86c-7.14,0-13.22,12.77-13.22,28.28,0,4.71.15,12.61,6.69,12.61,7.9,0,13.07-16,13.22-28.88C394.9,1041.77,394.6,1034.47,388.21,1034.47ZM461.48,1048c-3.35,0-4.56-1.67-5.17-4.41-.76-2.58-1.37-2.88-2.43-2.88-5.93,0-19.91,32.83-25.08,55.32l-.31,1.37h-8.05l12.77-55.93.15-1.07a1.84,1.84,0,0,0-2-2c-4.71,0-8.36,8.36-10.49,15.35l-1.67-.46c3.65-13.83,8.67-21.28,15.81-21.28,4.1,0,6.54,2.43,6.54,6.54a13.62,13.62,0,0,1-.31,2.73l-5.17,23,.31.15c6.38-17.33,14.59-32.38,22.8-32.38,6.08,0,8.05,5.47,8.05,8.67C467.25,1044.66,464.67,1048,461.48,1048Zm40,51.68c-3,0-4.56-1.67-4.56-4.71a13.17,13.17,0,0,1,.31-2.74l6.53-28.57-.3-.15c-6.23,15.8-15.81,36.17-28.42,36.17-4.56,0-10-2.74-10-16.26,0-20.83,17.17-51.38,32.37-51.38a17.71,17.71,0,0,1,12.31,5.47l3.5-5.47h5.77l-13.37,58.82-.15,1.07a1.09,1.09,0,0,0,1.21,1.21c1.22,0,3.5-1.82,6.23-4.86,4.41-5,7.75-12.16,9-15.2l1.52.3C519.69,1085.39,509.51,1099.68,501.45,1099.68ZM498,1035.23c-12.77,0-23.26,30.71-23.26,46.36,0,7.45,1.83,11.55,5,11.55,10.49,0,27.36-41.19,27.36-49.55C507.08,1040,504.34,1035.23,498,1035.23Zm47.88,64.45a25.2,25.2,0,0,1-5.32-.46l-5.32,24.32a8.51,8.51,0,0,0-.15,1.37c0,2.13,1.21,3.34,3.64,3.5l7.6.3c1.52.15,1.83.46,1.83,1.82v1.37c0,1.22-.46,1.67-1.52,1.67-1.52,0-8.06-.45-15.51-.45s-13.22.45-14.43.45-1.68-.45-1.68-1.67v-1.37c0-1.36.46-1.67,2-1.82l6.08-.3c2.43-.16,3.49-1.52,4.1-4.41l17.48-77.67a71.12,71.12,0,0,0-12.77,14.29l-2-.76a64.53,64.53,0,0,1,16.11-19l3-14.14a1.27,1.27,0,0,1,1.22-.91l6.38-.61c.46,0,.76.46.61,1.07l-2.13,9.27a30.84,30.84,0,0,1,14-3.5c9.73,0,16.42,7,16.42,16.72C585.51,1084.33,558.15,1099.68,545.84,1099.68Zm18.85-62.17a21,21,0,0,0-10.64,2.89l-12.77,55.94s1.52.15,3.65.15c10.94,0,30.7-17.79,30.7-45.45C575.63,1041.16,571.37,1037.51,564.69,1037.51Zm57.45,62.17c-5,0-6.84-3.8-6.84-7.45s2-6.53,5.32-6.53,4.41,2.28,4.41,4c0,1.21-.3,2.13-.3,3s.3,1.82,1.82,1.82c7,0,12.92-22.34,12.92-47.42,0-5.17-1.22-8.51-5.62-8.51-8.82,0-20.37,23.25-31.16,58.82h-8.06L615,1007.72a7.48,7.48,0,0,0,.15-1.67c0-2.28-1.52-3-3.65-3.34l-5-.46c-.46,0-.61-.3-.46-.76l.61-2.43c.15-.46.3-.61,1.21-.61a78.34,78.34,0,0,0,9-.61s4.87-.45,7.3-2.28l1.67.16-16.42,72.34.16.16c10.48-25.69,16.11-36.18,29-36.18,7.29,0,11.4,4.71,11.4,14C650,1066.24,638.1,1099.68,622.14,1099.68Zm85.43-46.21c-11.71,31.16-22,50.77-34.66,72.66-4.1,7.14-7.6,9.27-13.37,9.27-7.15,0-11.1-3.5-11.1-8.21,0-3,1.82-6.23,5.47-6.23,5.32,0,6.39,6.69,10.34,6.69,2,0,3.19-1.07,4.86-3.8,4.71-7.91,9.27-15.66,13.38-24.17l-13.38-57.45c-.76-3.2-1.21-4.11-2.89-4.11-4.1,0-7,13.68-7,23.41v2.58l-1.67.31a43.43,43.43,0,0,1-.15-4.71c0-10.49,2.28-27.67,12.31-27.67,5.32,0,5.93,3.19,7.3,9l10.63,46.21h.61c2.13-4.56,14.44-32.38,14.44-35.87,0-4.11-5.77-5.78-5.77-11.86,0-4.1,2.73-7.45,6.38-7.45,4.86,0,7.14,5.17,7.14,9.27C710.45,1045.87,708.93,1049.83,707.57,1053.47Zm49.4,14.9c.15,16.57,5.93,23.41,12.46,23.41,8.36,0,11.7-7.6,13.53-13.84l2.13.31c-2,9.73-8.21,21.43-19.61,21.43-10.64,0-17-10-17-21.89,0-32.07,17.48-45.75,30.39-45.75,5,0,11.86,3,11.86,11.4C790.71,1057.43,763.81,1066.09,757,1068.37Zm18.54-32.83c-12.61,0-18.39,19.91-18.54,31.31,13.83-5,25.38-12.62,25.38-23.1C782.35,1041.62,781.59,1035.54,775.51,1035.54Zm82.38,17.63c-2.58,0-4.86-2-4.86-4.26,0-3,2.28-4.71,2.28-6.84,0-1.21-.3-4-4.1-4-3.35,0-4.87,2.43-7,5.93l-11.09,18.54,7.45,26.75c.76,3,1.52,4,3.19,4,3.19,0,5.93-6.84,5.93-15.2a25.63,25.63,0,0,0-.16-3.5l1.68-.3a45.2,45.2,0,0,1,.45,6.68c0,8.67-2.28,18.7-11.09,18.7-5.32,0-6.24-3.65-7.3-7.75l-5.62-20.22L816.7,1090c-4.4,7.3-8.05,9.73-14,9.73-4.86,0-11.25-4.56-11.25-12.46,0-4.56,2.89-8.52,6.69-8.52A4.6,4.6,0,0,1,803,1083c0,3-2.12,4.71-2.12,6.84,0,1.22.6,3.65,4.1,3.65,3.34,0,5-2.43,6.84-5.63l13.83-23-6.23-22.34c-.91-3.19-1.52-4-3.19-4-3.19,0-5.93,6.84-5.93,15.05a27.17,27.17,0,0,0,.15,3.49l-1.67.31a41.85,41.85,0,0,1-.46-6.54c0-8.66,2.28-18.85,11.25-18.85,5.17,0,6.08,3.8,7.15,7.91l4.4,15.8,8.36-13.83c4.41-7.29,7.91-9.88,14-9.88,4.71,0,11.09,4.71,11.09,12.47C864.58,1049.22,861.85,1053.17,857.89,1053.17Zm17.18,46.51c-4.1,0-6.69-2.28-6.69-6.54a12.73,12.73,0,0,1,.61-4l14.44-47.42a5.78,5.78,0,0,0,.31-1.37,1.8,1.8,0,0,0-2-1.82c-3.65,0-7.45,4.71-11.25,14.59l-1.52-.76c1.83-5.47,7.15-20.37,16.42-20.37,4,0,6.69,2.28,6.69,6.39a16.08,16.08,0,0,1-.76,4.1L877.05,1090a5.89,5.89,0,0,0-.31,1.37,1.8,1.8,0,0,0,2,1.82c4.41,0,10.34-10,13.83-18.84l1.52.6C892.4,1079.62,885,1099.68,875.07,1099.68Zm19-80.56a7,7,0,0,1-7-7,7,7,0,1,1,14,0A7,7,0,0,1,894.07,1019.12Zm39.52,29.49c-3.19,0-5.17-2.13-5.17-4.71,0-1.52.76-2.74.76-4.11,0-1.82-1.36-3.19-4.25-3.19a9.16,9.16,0,0,0-9.12,9.58c0,13.37,17.33,21.58,17.33,33.28,0,13.68-10.64,20.22-18.4,20.22-9.88,0-14.44-7.9-14.44-11.7s2-6.39,5.17-6.39a4.79,4.79,0,0,1,5.17,5c0,1.82-1.22,3.49-1.22,4.86,0,2.59,3.5,4.26,7.45,4.26,3,0,9.88-2,9.88-10.19,0-9.88-18.09-19.15-18.09-33.59,0-8,4.26-16.56,13.68-19.15-1.52-1.21-5.16-4.86-5.16-12.31,0-11.55,11.55-24.93,35-24.93,13.68,0,21.44,7.6,21.44,17.18,0,5.32-2.13,15-3.35,21.58h15a.87.87,0,0,1,.91.91l-.61,2.59a1.13,1.13,0,0,1-1.06.91H969.16l-11.71,52.13a5.86,5.86,0,0,0-.15,1.22,1,1,0,0,0,1.07,1.06c1.21,0,3.49-1.82,6.23-4.86,4.41-5,7.75-12.16,9-15.2l1.52.3c-3.65,12-13.84,26.3-21.89,26.3-3,0-4.56-1.67-4.56-4.71a15.32,15.32,0,0,1,.3-2.74l12.16-53.5h-9.42a.87.87,0,0,1-.91-.91l.6-2.59a1.16,1.16,0,0,1,1.07-.91h9.73c1.82-9.42,3.34-16.72,3.34-19.76,0-9.27-3.5-16-15.2-16-20.82,0-30.09,13.23-30.09,21.74,0,5.62,3.19,10.64,9,11.7,6.54,1.67,10.64,5.47,10.64,10.49A6,6,0,0,1,933.59,1048.61Zm120.38-9.88h-15.35l-11.7,52.13a5.86,5.86,0,0,0-.15,1.22,1,1,0,0,0,1.06,1.06c1.22,0,3.5-1.82,6.23-4.86,4.41-5,7.76-12.16,9-15.2l1.52.3c-3.65,12-13.83,26.3-21.89,26.3-3,0-4.56-1.67-4.56-4.71a15.29,15.29,0,0,1,.31-2.74l12.16-53.5h-9.43a.88.88,0,0,1-.91-.91l.61-2.59a1.14,1.14,0,0,1,1.06-.91h9.73l3.8-17.17c.15-.61.46-.76,1.22-.91l6.38-1.07c.61-.15.91.46.76,1.07l-4.1,18.08h15a.88.88,0,0,1,.92.91l-.61,2.59A1.15,1.15,0,0,1,1054,1038.73Zm21.13,61c-10.48,0-18.69-11.4-18.69-28.73,0-21.73,13.53-38.91,27.51-38.91,10.49,0,18.69,11.4,18.69,28.58C1102.61,1082.05,1089.09,1099.68,1075.1,1099.68Zm10.34-64.29c-10.34,0-19.91,20.82-19.91,48.18,0,8.66,3.65,12.61,7.9,12.61,10.34,0,20.22-20.67,20.22-48.18C1093.65,1039.49,1089.85,1035.39,1085.44,1035.39Zm83.45,64.29c-5,0-6.84-3.8-6.84-7.45s2-6.53,5.32-6.53,4.4,2.28,4.4,4c0,1.21-.3,2.13-.3,3s.3,1.82,1.82,1.82c7,0,12.92-22.34,12.92-47.42,0-5.17-1.21-8.51-5.62-8.51-8.82,0-20.37,23.25-31.16,58.82h-8l20.36-89.68a7.48,7.48,0,0,0,.15-1.67c0-2.28-1.52-3-3.64-3.34l-5-.46c-.45,0-.61-.3-.45-.76l.6-2.43c.16-.46.31-.61,1.22-.61a78.62,78.62,0,0,0,9-.61s4.86-.45,7.29-2.28l1.67.16-16.41,72.34.15.16c10.49-25.69,16.11-36.18,29-36.18,7.3,0,11.4,4.71,11.4,14C1196.7,1066.24,1184.85,1099.68,1168.89,1099.68Zm56.39,0c-10.49,0-18.7-11.4-18.7-28.73,0-21.73,13.53-38.91,27.51-38.91,10.49,0,18.7,11.4,18.7,28.58C1252.79,1082.05,1239.26,1099.68,1225.28,1099.68Zm10.33-64.29c-10.33,0-19.91,20.82-19.91,48.18,0,8.66,3.65,12.61,7.91,12.61,10.33,0,20.21-20.67,20.21-48.18C1243.82,1039.49,1240,1035.39,1235.61,1035.39Zm62.63,64.29c-3,0-4.71-1.52-4.71-4.56a19.31,19.31,0,0,1,.45-2.89l10.94-48.33a16.6,16.6,0,0,0,.31-2.43c0-2-.76-3-2.59-3-7.14,0-23.71,24.77-31,57.3l-.46,1.67h-8l12.76-55.93.16-1.07a1.84,1.84,0,0,0-2-2c-4.71,0-8.36,8.36-10.49,15.35l-1.67-.46c3.65-13.83,8.66-21.28,15.81-21.28,4.1,0,6.53,2.43,6.53,6.54a13.69,13.69,0,0,1-.3,2.73l-5.78,25.39.16.15c9.72-25.23,20.82-34.81,29.79-34.81,2.58,0,5.77,1.37,5.77,6.39a17.15,17.15,0,0,1-.45,3.64l-11.1,48.79-.15,1.07a1.09,1.09,0,0,0,1.21,1.21c1.22,0,3.5-2,6.08-4.86,4.41-5,7.91-12.31,9.12-15.35l1.52.45C1316.48,1085.24,1306.14,1099.68,1298.24,1099.68Zm48.18,0c-10.49,0-18.69-11.4-18.69-28.73,0-21.73,13.52-38.91,27.51-38.91,10.49,0,18.69,11.4,18.69,28.58C1373.93,1082.05,1360.41,1099.68,1346.42,1099.68Zm10.34-64.29c-10.34,0-19.91,20.82-19.91,48.18,0,8.66,3.64,12.61,7.9,12.61,10.34,0,20.22-20.67,20.22-48.18C1365,1039.49,1361.17,1035.39,1356.76,1035.39Zm68.55,12.61c-3.35,0-4.56-1.67-5.17-4.41-.76-2.58-1.37-2.88-2.43-2.88-5.93,0-19.91,32.83-25.08,55.32l-.3,1.37h-8.06l12.77-55.93.15-1.07a1.84,1.84,0,0,0-2-2c-4.71,0-8.36,8.36-10.48,15.35l-1.68-.46c3.65-13.83,8.67-21.28,15.81-21.28,4.11,0,6.54,2.43,6.54,6.54a12.93,12.93,0,0,1-.31,2.73l-5.16,23,.3.15c6.38-17.33,14.59-32.38,22.8-32.38,6.08,0,8,5.47,8,8.67C1431.08,1044.66,1428.5,1048,1425.31,1048Zm74.93-.76c-4.1,0-5.16-2.58-5.16-4.56,0-1.67,1.21-3.65,1.21-5.77,0-1.22-.61-2-2.43-2-14.29,0-20.67,29.64-20.67,45.9,0,9.73,4,12.31,8.66,12.31,6.24,0,12.62-10.33,16.11-18.39l1.68.91c-5.47,13.38-12.31,24-23.11,24-8.66,0-12.76-7.3-12.76-17.94,0-23.55,15.8-49.7,30.09-49.7,7.9,0,11.7,3.65,11.7,8.67C1505.56,1044.51,1503.59,1047.24,1500.24,1047.24Zm29.34,52.44c-10.48,0-18.69-11.4-18.69-28.73,0-21.73,13.53-38.91,27.51-38.91,10.49,0,18.69,11.4,18.69,28.58C1557.09,1082.05,1543.57,1099.68,1529.58,1099.68Zm10.34-64.29c-10.34,0-19.91,20.82-19.91,48.18,0,8.66,3.65,12.61,7.9,12.61,10.34,0,20.22-20.67,20.22-48.18C1548.13,1039.49,1544.33,1035.39,1539.92,1035.39Zm62.62,64.29c-3,0-4.71-1.52-4.71-4.56a18.93,18.93,0,0,1,.46-2.89l10.94-48.33a17.86,17.86,0,0,0,.3-2.43c0-2-.76-3-2.58-3-7.15,0-23.71,24.77-31,57.3l-.45,1.67h-8.06l12.77-55.93.15-1.07a1.84,1.84,0,0,0-2-2c-4.71,0-8.36,8.36-10.48,15.35l-1.68-.46c3.65-13.83,8.67-21.28,15.81-21.28,4.11,0,6.54,2.43,6.54,6.54a12.93,12.93,0,0,1-.31,2.73l-5.77,25.39.15.15c9.73-25.23,20.82-34.81,29.79-34.81,2.58,0,5.78,1.37,5.78,6.39a17.22,17.22,0,0,1-.46,3.64l-11.1,48.79-.15,1.07a1.1,1.1,0,0,0,1.22,1.21c1.21,0,3.49-2,6.08-4.86,4.41-5,7.9-12.31,9.12-15.35l1.52.45C1620.78,1085.24,1610.44,1099.68,1602.54,1099.68Zm66.12-61h-15.35l-11.7,52.13a5.52,5.52,0,0,0-.16,1.22,1,1,0,0,0,1.07,1.06c1.21,0,3.49-1.82,6.23-4.86,4.41-5,7.75-12.16,9-15.2l1.52.3c-3.65,12-13.83,26.3-21.89,26.3-3,0-4.56-1.67-4.56-4.71a14.43,14.43,0,0,1,.31-2.74l12.15-53.5h-9.42a.87.87,0,0,1-.91-.91l.61-2.59a1.13,1.13,0,0,1,1.06-.91h9.73l3.8-17.17c.15-.61.45-.76,1.21-.91l6.39-1.07c.61-.15.91.46.76,1.07l-4.11,18.08h15.05a.87.87,0,0,1,.91.91l-.6,2.59A1.16,1.16,0,0,1,1668.66,1038.73Zm11.71,29.64c.15,16.57,5.92,23.41,12.46,23.41,8.36,0,11.7-7.6,13.53-13.84l2.13.31c-2,9.73-8.21,21.43-19.61,21.43-10.64,0-17-10-17-21.89,0-32.07,17.47-45.75,30.39-45.75,5,0,11.86,3,11.86,11.4C1714.11,1057.43,1687.21,1066.09,1680.37,1068.37Zm18.54-32.83c-12.62,0-18.39,19.91-18.54,31.31,13.83-5,25.38-12.62,25.38-23.1C1705.75,1041.62,1705,1035.54,1698.91,1035.54Zm59.13,64.14c-3,0-4.71-1.52-4.71-4.56a19.31,19.31,0,0,1,.45-2.89l11-48.33a17.86,17.86,0,0,0,.3-2.43c0-2-.76-3-2.58-3-7.15,0-23.71,24.77-31,57.3l-.46,1.67h-8l12.77-55.93.15-1.07a1.84,1.84,0,0,0-2-2c-4.71,0-8.36,8.36-10.49,15.35l-1.67-.46c3.65-13.83,8.67-21.28,15.81-21.28,4.1,0,6.54,2.43,6.54,6.54a13.62,13.62,0,0,1-.31,2.73L1738,1066.7l.15.15c9.72-25.23,20.82-34.81,29.79-34.81,2.58,0,5.77,1.37,5.77,6.39a17.15,17.15,0,0,1-.45,3.64l-11.1,48.79-.15,1.07a1.1,1.1,0,0,0,1.22,1.21c1.21,0,3.49-2,6.08-4.86,4.4-5,7.9-12.31,9.12-15.35l1.52.45C1776.28,1085.24,1765.94,1099.68,1758,1099.68Zm66.12-61h-15.35l-11.71,52.13a5.86,5.86,0,0,0-.15,1.22,1,1,0,0,0,1.07,1.06c1.21,0,3.49-1.82,6.23-4.86,4.41-5,7.75-12.16,9-15.2l1.52.3c-3.65,12-13.84,26.3-21.89,26.3-3,0-4.56-1.67-4.56-4.71a15.32,15.32,0,0,1,.3-2.74l12.16-53.5h-9.42a.87.87,0,0,1-.91-.91l.6-2.59a1.16,1.16,0,0,1,1.07-.91h9.73l3.8-17.17c.15-.61.45-.76,1.21-.91l6.39-1.07c.6-.15.91.46.76,1.07l-4.11,18.08h15.05a.87.87,0,0,1,.91.91l-.61,2.59A1.13,1.13,0,0,1,1824.16,1038.73Z" style="fill:#f0f0f0"/></svg>