<svg xmlns="http://www.w3.org/2000/svg" viewBox="0 0 1920 1200"><title>ts_carmen 1</title><rect width="1920" height="1200" style="fill:#fff4e0"/><path d="M1099.12,260.09c0-2.81.61-4.89.61-8.07,0-7-4.4-13.57-5-13.57a.57.57,0,0,0-.61.61c2.69,5.63,3.67,8.56,3.67,12.23,0,8.92-8.8,15.52-18,15.52-1.47,0-2-1-2-1.46,0-.74,4-1.72,4-6.24,0-1.83-1.84-6-1.84-8.92,0-6,2.94-10.76,7.21-11.25,5.38-.61,6.85-5.38,11-5.38,6.6,0,11.61,5.13,11.61,5.13a12.35,12.35,0,0,1,3.79-.73c4.4,0,8.31,1.35,10.52,3.79a24.1,24.1,0,0,1,13.44-5.13c12.84,0,23.72,9.9,23.72,23.1,0,7.09-6.23,10.27-10.88,10.27-6.85,0-9.66-2.08-13.2-6.11-4.65-5.26-13.7-22.62-21.64-22.62a2.42,2.42,0,0,0-1,.12l-.12.49c8.8,2.57,15.89,18.71,23.59,27.39a8.42,8.42,0,0,1,1.71,4.52c0,5.5-5.62,11.86-15.64,11.86C1104.87,285.64,1099.12,269.14,1099.12,260.09Zm43.65,9.78a4.73,4.73,0,0,1,1,.12c2.56,4.65,8.55,12.59,18.21,12.59,7.83,0,13.69-4.89,13.69-15.4,0-2.45,2-2.57,3.79-2.57l.13,19.69h-.74a1.92,1.92,0,0,1-2.2-1.84l-.61-2.93c-2.93,4.15-8.07,6.11-14.06,6.11-11.49,0-19.31-9.05-20.9-14.06A1.66,1.66,0,0,1,1142.77,269.87Z" style="fill:#e5352d"/><path d="M765.12,920.54a4.73,4.73,0,0,1-1-.12c-2.57-4.65-8.56-12.59-18.22-12.59-7.82,0-13.69,4.89-13.69,15.4,0,2.44-2,2.57-3.79,2.57l-.12-19.69h.73a1.91,1.91,0,0,1,2.2,1.84l.61,2.93c2.94-4.15,8.07-6.11,14.06-6.11,11.5,0,19.32,9.05,20.91,14.06A1.67,1.67,0,0,1,765.12,920.54Zm43.64,9.78c0,2.81-.61,4.89-.61,8.07,0,7,4.4,13.57,5,13.57a.57.57,0,0,0,.61-.61c-2.69-5.63-3.66-8.56-3.66-12.23,0-8.92,8.8-15.52,18-15.52,1.46,0,1.95,1,1.95,1.46,0,.74-4,1.72-4,6.24,0,1.83,1.83,6,1.83,8.92,0,6-2.93,10.76-7.21,11.25-5.38.61-6.85,5.38-11,5.38-6.6,0-11.62-5.14-11.62-5.14a12.05,12.05,0,0,1-3.79.74c-4.4,0-8.31-1.35-10.51-3.79a24.12,24.12,0,0,1-13.45,5.13c-12.83,0-23.72-9.9-23.72-23.1,0-7.09,6.24-10.27,10.89-10.27,6.84,0,9.65,2.08,13.2,6.11,4.64,5.26,13.69,22.62,21.64,22.62a2.47,2.47,0,0,0,1-.12l.12-.49c-8.8-2.57-15.9-18.71-23.6-27.39a8.42,8.42,0,0,1-1.71-4.52c0-5.5,5.62-11.86,15.65-11.86C803,904.77,808.76,921.27,808.76,930.32Z" style="fill:#e5352d"/><path d="M766.2,271.58c-1.58,5-9.41,14.06-20.9,14.06-6,0-11.13-2-14.06-6.11l-.61,2.93a1.92,1.92,0,0,1-2.2,1.84h-.74l.13-19.69c1.83,0,3.79.12,3.79,2.57,0,10.51,5.86,15.4,13.69,15.4,9.66,0,15.65-7.94,18.21-12.59a4.73,4.73,0,0,1,1-.12A1.66,1.66,0,0,1,766.2,271.58Zm16.88,14.06c-10,0-15.65-6.36-15.65-11.86a8.42,8.42,0,0,1,1.71-4.52c7.7-8.68,14.79-24.82,23.59-27.39l-.12-.49a2.42,2.42,0,0,0-1-.12c-7.94,0-17,17.36-21.64,22.62-3.54,4-6.35,6.11-13.2,6.11-4.64,0-10.88-3.18-10.88-10.27,0-13.2,10.88-23.1,23.72-23.1a24.15,24.15,0,0,1,13.45,5.13c2.2-2.44,6.11-3.79,10.51-3.79a12.35,12.35,0,0,1,3.79.73s5-5.13,11.61-5.13c4.16,0,5.63,4.77,11,5.38,4.27.49,7.21,5.26,7.21,11.25,0,2.93-1.83,7.09-1.83,8.92,0,4.52,4,5.5,4,6.24,0,.48-.49,1.46-2,1.46-9.17,0-18-6.6-18-15.52,0-3.67,1-6.6,3.67-12.23a.57.57,0,0,0-.61-.61c-.61,0-5,6.6-5,13.57,0,3.18.61,5.26.61,8.07C808.14,269.14,802.39,285.64,783.08,285.64Z" style="fill:#e5352d"/><path d="M1124.81,904.77c10,0,15.65,6.36,15.65,11.86a8.42,8.42,0,0,1-1.71,4.52c-7.71,8.68-14.8,24.82-23.6,27.39l.12.49a2.47,2.47,0,0,0,1,.12c8,0,17-17.36,21.64-22.62,3.55-4,6.36-6.11,13.2-6.11,4.65,0,10.88,3.18,10.88,10.27,0,13.2-10.88,23.1-23.71,23.1a24.12,24.12,0,0,1-13.45-5.13c-2.2,2.44-6.11,3.79-10.51,3.79a12.05,12.05,0,0,1-3.79-.74s-5,5.14-11.62,5.14c-4.15,0-5.62-4.77-11-5.38-4.28-.49-7.21-5.26-7.21-11.25,0-2.93,1.83-7.09,1.83-8.92,0-4.52-4-5.5-4-6.24,0-.49.48-1.46,2-1.46,9.17,0,18,6.6,18,15.52,0,3.67-1,6.6-3.66,12.23a.57.57,0,0,0,.61.61c.61,0,5-6.6,5-13.57,0-3.18-.61-5.26-.61-8.07C1099.75,921.27,1105.49,904.77,1124.81,904.77Zm16.87,14.06c1.59-5,9.41-14.06,20.91-14.06,6,0,11.12,2,14.06,6.11l.61-2.93a1.91,1.91,0,0,1,2.2-1.84h.73l-.12,19.69c-1.84,0-3.79-.13-3.79-2.57,0-10.51-5.87-15.4-13.69-15.4-9.66,0-15.65,7.94-18.22,12.59a4.73,4.73,0,0,1-1,.12A1.67,1.67,0,0,1,1141.68,918.83Z" style="fill:#e5352d"/><path d="M935.6,217.76c0,1.34-.85,4.15-.85,5.5,0,1.83.85,3.79,3.66,3.79,3.06,0,6.61-2.45,7.34-5.14-3.06-8.07-8.56-15.4-8.56-22,0-11.13,10.88-24.94,13.45-24.94,1.47,0,2.08,2.08,2.08,2.08s-7.46,11.85-7.46,24.32,5.5,17.61,5.5,30.08c0,17.11-13.81,29.09-33,29.09A41.17,41.17,0,0,1,905,258.71c-5.38.37-7.34,1.83-8.8,1.83-.25,0-2.33-.61-2.33-1.1,0-1.59,2-3.91,3.18-5.13a14.07,14.07,0,0,1-4.89-10.51c0-7.22,6.73-12.35,13.2-12.35a8,8,0,0,1,8.32,7.58c0,3.54-2,6.23-6.85,6.23-6.72,0-3.3-9-5.13-9-3.43,0-6.24,3.91-6.24,7.58,0,7.21,7,14.18,22.25,14.18,2.57,0,5.5-.13,5.5-1.1,0-.49-.24-1.59-1-1.59-2.69,0-6.24-2.45-6.24-5.5,0-1,6-.74,6.48-7.83,0-.85,1.35-1.34,1.83-1.34,2.2,0,7,4.64,7,8.43s-3.79,4.89-3.79,5.26c0,1.1.37,1.83,1.23,2.08,12-3.67,19.07-13.57,19.07-24.82a17.36,17.36,0,0,0-.49-4.28,2.36,2.36,0,0,0-1-.24c-3.67,0-8.8,8.92-13.08,8.92-2.2,0-2.69-3.18-2.69-7.09,0-3.18.37-6.6.37-8.8,0-3.55-1.72-4.4-4-4.4a6.22,6.22,0,0,0-5.87,6.35c0,3.67,2.69,6.85,2.69,7.46,0,1.59-2,2.69-3.79,2.69-2.2,0-5-1.59-5-6.36,0-9.16,9.66-14,13.94-14C934.38,211.77,935.6,214.33,935.6,217.76ZM985,255.29c-.73,0-1,1.1-1,1.59,0,1,2.33,1.1,5.51,1.1,15.28,0,22.25-7,22.25-14.18,0-3.67-2.82-7.58-6.24-7.58-1.83,0,1.59,9-5.13,9-4.89,0-6.85-2.69-6.85-6.23a8,8,0,0,1,8.31-7.58c6.48,0,13.21,5.13,13.21,12.35a14.21,14.21,0,0,1-5,10.51c1.23,1.22,3.3,3.54,3.3,5.13,0,.49-2.07,1.1-2.32,1.1-1.47,0-3.54-1.46-8.92-1.83a41,41,0,0,1-12.59,1.83c-19.2,0-33-12-33-29.09,0-12.47,5.5-17.61,5.5-30.08s-7.46-24.32-7.46-24.32.61-2.08,2.08-2.08c2.57,0,13.45,13.81,13.45,24.94,0,6.6-5.63,13.93-8.68,22,.85,2.69,4.28,5.14,7.45,5.14,2.82,0,3.67-2,3.67-3.79,0-1.35-.85-4.16-.85-5.5,0-3.43,1.22-6,6.72-6,4.28,0,13.94,4.89,13.94,14,0,4.77-2.81,6.36-5,6.36-1.83,0-3.79-1.1-3.79-2.69,0-.61,2.69-3.79,2.69-7.46a6.22,6.22,0,0,0-5.86-6.35c-2.33,0-4,.85-4,4.4,0,2.2.37,5.62.37,8.8,0,3.91-.49,7.09-2.69,7.09-4.28,0-9.41-8.92-13.08-8.92a2.93,2.93,0,0,0-1.1.24,24.75,24.75,0,0,0-.37,4.28c0,11.25,7,21.15,18.95,24.82,1-.25,1.34-1,1.34-2.08,0-.37-3.78-1.47-3.78-5.26s4.76-8.43,7-8.43c.49,0,1.84.49,1.84,1.34.49,7.09,6.48,6.85,6.48,7.83C991.23,252.84,987.68,255.29,985,255.29Z" style="fill:#e5352d"/><path d="M922.89,935.12c.74,0,1-1.1,1-1.59,0-1-2.32-1.1-5.5-1.1-15.28,0-22.25,7-22.25,14.18,0,3.67,2.81,7.58,6.23,7.58,1.84,0-1.58-9,5.14-9,4.89,0,6.85,2.69,6.85,6.23A8,8,0,0,1,906,959c-6.48,0-13.2-5.13-13.2-12.35a14.23,14.23,0,0,1,5-10.51c-1.22-1.22-3.3-3.55-3.3-5.13,0-.49,2.08-1.1,2.32-1.1,1.47,0,3.55,1.46,8.93,1.83a40.92,40.92,0,0,1,12.59-1.83c19.19,0,33,12,33,29.09,0,12.47-5.5,17.61-5.5,30.08s7.45,24.32,7.45,24.32-.61,2.08-2.07,2.08c-2.57,0-13.45-13.81-13.45-24.94,0-6.6,5.62-13.93,8.68-22-.86-2.69-4.28-5.14-7.46-5.14-2.81,0-3.67,2-3.67,3.79,0,1.35.86,4.16.86,5.5,0,3.43-1.22,6-6.73,6-4.27,0-13.93-4.89-13.93-14,0-4.77,2.81-6.36,5-6.36,1.83,0,3.79,1.1,3.79,2.69,0,.61-2.69,3.79-2.69,7.45a6.23,6.23,0,0,0,5.87,6.36c2.32,0,4-.85,4-4.4,0-2.2-.36-5.62-.36-8.8,0-3.91.49-7.09,2.69-7.09,4.27,0,9.41,8.92,13.08,8.92a3,3,0,0,0,1.1-.24,25.76,25.76,0,0,0,.36-4.28c0-11.25-7-21.15-19-24.82-1,.25-1.34,1-1.34,2.08,0,.37,3.79,1.47,3.79,5.26s-4.77,8.43-7,8.43c-.49,0-1.83-.49-1.83-1.34-.49-7.09-6.48-6.85-6.48-7.83C916.66,937.57,920.2,935.12,922.89,935.12Zm49.39,37.53c0-1.34.86-4.15.86-5.5,0-1.83-.86-3.79-3.67-3.79-3.05,0-6.6,2.45-7.33,5.14,3.05,8.07,8.55,15.4,8.55,22,0,11.13-10.88,24.94-13.44,24.94-1.47,0-2.08-2.08-2.08-2.08s7.46-11.85,7.46-24.32-5.51-17.61-5.51-30.08c0-17.11,13.82-29.09,33-29.09a41.24,41.24,0,0,1,12.72,1.83c5.38-.37,7.33-1.83,8.8-1.83.24,0,2.32.61,2.32,1.1,0,1.58-2,3.91-3.18,5.13a14,14,0,0,1,4.89,10.51c0,7.22-6.72,12.35-13.2,12.35a8,8,0,0,1-8.31-7.58c0-3.54,2-6.23,6.84-6.23,6.73,0,3.3,9,5.14,9,3.42,0,6.23-3.91,6.23-7.58,0-7.21-7-14.18-22.25-14.18-2.56,0-5.5.12-5.5,1.1,0,.49.25,1.59,1,1.59,2.69,0,6.23,2.45,6.23,5.5,0,1-6,.74-6.48,7.83,0,.85-1.34,1.34-1.83,1.34-2.2,0-7-4.64-7-8.43s3.79-4.89,3.79-5.26c0-1.1-.36-1.83-1.22-2.08-12,3.67-19.07,13.57-19.07,24.82a16.9,16.9,0,0,0,.49,4.28,2.32,2.32,0,0,0,1,.24c3.66,0,8.8-8.92,13.08-8.92,2.2,0,2.69,3.18,2.69,7.09,0,3.18-.37,6.6-.37,8.8,0,3.55,1.71,4.4,4,4.4a6.23,6.23,0,0,0,5.87-6.36c0-3.66-2.69-6.84-2.69-7.45,0-1.59,2-2.69,3.79-2.69,2.2,0,5,1.59,5,6.36,0,9.16-9.65,14-13.93,14C973.51,978.64,972.28,976.08,972.28,972.65Z" style="fill:#e5352d"/><path d="M298.93,532.15c0,44.7,5,110.05,61.14,110.05,48.14,0,65.72-48.15,69.93-76.81l3.05.38s-1.14,16.82-1.14,31.72c0,13,.38,32.1,1.52,43.18L430,642.2c-3.44-3.44-7.65-9.56-15.67-9.56-13,0-29.43,11.85-54.26,11.85-67.26,0-108.91-53.88-108.91-133.74S292.43,377,358.92,377c24.07,0,35.16,7.64,48.15,7.64,8,0,14.14-4.58,18.34-7.64l3.44,1.91c-1.15,11.08-2.29,28.28-2.29,41.27,0,14.91.38,32.48.38,32.48l-3.06.38c-6.88-31.33-20.63-73.75-65-73.75-55.41,0-60,63.44-60,111.2Z"/><path d="M574.44,638.38H605L576.73,545.9H505.27L477,638.38H506.8v2.29h-60v-2.29h26.75l81-264,11.84-1.15,81,265.2H675.7v2.29H574.44ZM506,543.61H576L541.19,429.35Z"/><path d="M899.24,620.42c7.26,0,11.47,5,11.47,11.84,0,7.64-7.26,12.23-16.05,12.23-48.15,0-65.73-47.38-66.87-90.18-1.15-40.12-17.58-50.44-41.65-50.44H763.21V638.38h30.57v2.29H689.08v-2.29h30.57V383.12H689.08v-2.3H789.57c48.15,0,82.93,14.52,82.93,56.56,0,46.62-41.27,60.76-67.64,65,26.37,2.29,67.25,14.52,67.25,65.72,0,7.65-1.53,25.23-1.53,34.4,0,28.27,14.53,38.59,21.79,40.12a14.42,14.42,0,0,1-4.59-10.32C887.78,625.77,892.37,620.42,899.24,620.42Zm-136-237.3V501.58H777c19.49,0,53.12-11.09,53.12-64.58,0-31-19.11-53.88-50.44-53.88Z"/><path d="M1081.52,638.38h30.57V389.61l-73.75,251.06h-1.91L959.62,383.12V638.38h30.57v2.29H926v-2.29h30.57V383.12H926v-2.3h75.66l55.41,183.42,54.65-183.42h74.51v2.3h-30.57V638.38h30.57v2.29h-104.7Z"/><path d="M1369.64,551.63h-3.06c-4.2-18.34-10.7-45.85-46.62-45.85h-25.22v132.6h53.88c39.36,0,56.18-44.33,64.58-78.72l3.06.76s-2.68,34-2.68,48.91c0,8.41,0,16.44.77,26.37l-2.68,6.12s-23.69-1.15-63.05-1.15h-128v-2.29h30.57V383.12h-30.57v-2.3h120c39.36,0,64.2-1.14,64.2-1.14l2.67,3.05c-.76,9.94-1.14,24.84-1.14,33.25,0,14.9.76,37.45.76,37.45l-3.06.38c-5.73-27.13-20.63-70.69-63.43-70.69h-45.86V503.49H1320c35.92,0,42.42-27.52,46.62-45.86h3.06s-3.82,26.37-3.82,46.62C1365.82,525.27,1369.64,551.63,1369.64,551.63Z"/><path d="M1632.16,640.67l-149.8-252.2V638.38h30.57v2.29h-64.19v-2.29h30.57V383.12h-30.57v-2.3h78L1635.21,560V383.12h-30.57v-2.3h64.2v2.3h-30.57V640.67Z"/><path d="M355,744.2h4l1-12.66H349.65L341,744.2h4l-.35,1.14h-9.57l.34-1.14h3.93L366,705.78l4.61-.17-3.13,38.59h4l-.34,1.14H354.61Zm-4.5-13.8H360l1.36-15.67Z"/><path d="M391.15,719.69h-4.28l.4-1.14h4.22l.85-3a13.74,13.74,0,0,0,8-7.69l.52-1.26H402l-3.48,12h5.7l-.4,1.14h-5.64L392.91,738a16,16,0,0,0-.74,3.81,1.82,1.82,0,0,0,2,1.89c3.13,0,6-5.31,6-5.31l.74.35s-3.36,7.18-8.72,7.18c-3.19,0-6.5-1.6-6.5-5.42a23.7,23.7,0,0,1,1.2-5.87Z"/><path d="M420.33,745.51l1.88-7.41c-2.11,3.7-4.9,7.81-10.32,7.81-3.13,0-6-1.94-6-5.42,0-4,5-15.1,5-18.58,0-1.08-.63-1.77-1.94-1.77-3.14,0-4.85,5.3-4.85,5.3l-.74-.34c1.66-4.22,3.65-7,8.21-7,3.54,0,5.7,2,5.7,5,0,3.65-5.18,15.9-5.18,18.7a1.79,1.79,0,0,0,2.05,1.88c4.9,0,8.66-8.72,9.06-9.64l4.45-15.44h7l-7.58,26.1c-1.94,6.62-6.27,13.52-13.8,13.52-3.87,0-6.21-2.68-6.21-4.85s1.25-4.11,3.53-4.11a2.72,2.72,0,0,1,2.85,2.51c0,2.45-2.11,3.42-2.11,4a1.81,1.81,0,0,0,1.94,1.49C415.83,757.2,417.88,755.09,420.33,745.51Z"/><path d="M449.29,723.28v.28c1.65-3.13,3.87-5.47,7.86-5.47,4.74,0,8.33,2.74,8.33,8.72,0,8.72-6,19.1-15.91,19.1-3.3,0-4.67-1.77-5.13-3.93l-4.5,15.62h-7l8.72-30.22a27.76,27.76,0,0,0,1.25-5.59c0-1-.74-1.65-1.94-1.65-3.13,0-4.84,5.3-4.84,5.3l-.74-.34c1.94-4.84,4-7,8.21-7C447.52,718.09,449.29,720.6,449.29,723.28Zm-1.54,6.78-2.34,8.61a5.27,5.27,0,0,0-.17,1.25c0,2.46,1,5,3.48,5,4.84,0,6.9-7,8.43-13,1.09-4.16,1.6-6.61,1.6-9.18s-1.14-3.64-2.79-3.64C452,719.12,449.17,724.7,447.75,730.06Z"/><path d="M476.3,732c-1.59,4.9-1.82,7.07-1.82,8.61,0,2.56,1.2,4.33,3.82,4.33,3.88,0,7.52-3.19,9.52-6.56l.91.4c-2.34,4.16-6.55,7.13-10.6,7.13-7.13,0-10.09-3.53-10.09-9,0-8.49,6.27-18.81,17.5-18.81,5.93,0,8.15,2.45,8.15,5.19,0,5.07-4.39,8.72-16.25,8.72Zm.74-2.22-.39,1.19h1c8.5,0,10.32-4.84,10.32-8.15,0-1.88-1-3.76-3.25-3.76C480.58,719.06,479.1,723.68,477,729.78Z"/><path d="M508.79,718.32l-.05.23H515l-.4,1.14H508.4l-7.19,25c-1.94,6.73-5.64,13.52-13.39,13.52-4.17,0-6.67-2.46-6.67-4.51a3.88,3.88,0,0,1,3.64-4.16,2.65,2.65,0,0,1,2.63,2.57c0,2.39-2,3.25-2,3.81,0,.92,1.08,1.32,1.77,1.32,2.28,0,4.22-2.45,6.84-11.69l7.35-25.82h-4.79l.4-1.14h4.74C503.55,712.16,507,706,515,706c4.5,0,7.52,2.74,7.52,4.91,0,2.33-1.54,4.1-3.59,4.1a2.68,2.68,0,0,1-2.62-2.56c0-2.4,2-3.2,2-3.77a2.54,2.54,0,0,0-2.56-1.71C513.07,707,511.42,709.25,508.79,718.32Z"/><path d="M532.91,721.79l.91-3.24a46.85,46.85,0,0,0,6.27-.8l.91.23-5.81,20a15.35,15.35,0,0,0-.69,3.81,1.82,1.82,0,0,0,2,1.89c3.13,0,6-5.31,6-5.31l.74.35s-3.3,7.18-8.72,7.18c-4.33,0-6.5-2.22-6.5-5.47V740c-1.82,3.31-3.93,5.93-7.46,5.93-5.25,0-8.84-2.74-8.84-8.72,0-7.64,5.81-19.1,15.73-19.1C531,718.09,532.34,719.91,532.91,721.79Zm-.92,3.14a4.26,4.26,0,0,0,.12-.91c0-2.8-1.48-5-3.94-5-4.73,0-6.72,7.3-8.26,12.88a34.85,34.85,0,0,0-1.6,8.61c0,3.31,1.54,4.33,3.14,4.33,3.25,0,6.38-5.87,7.47-9.4l.17-.57Z"/><path d="M565.34,729.26a2.54,2.54,0,0,1-2.51-2.33c0-3.31,3.19-3.94,3.19-4.68,0-1.37-1.59-3.19-4.61-3.19-5.65,0-6.73,6.73-8.78,12.88-1.66,5-1.94,7.3-1.94,8.78,0,2.57,1.25,4.22,3.93,4.22,3.82,0,7.53-3.19,9.52-6.56l.91.4c-2.33,4.16-6.55,7.13-10.88,7.13-6.73,0-9.81-3.71-9.81-9,0-8.49,6.21-18.81,16.93-18.81,5.82,0,7.7,3.82,7.7,6.61S567.33,729.26,565.34,729.26Z"/><path d="M578.16,732c-1.59,4.9-1.82,7.07-1.82,8.61,0,2.56,1.19,4.33,3.82,4.33,3.87,0,7.52-3.19,9.52-6.56l.91.4c-2.34,4.16-6.56,7.13-10.6,7.13-7.13,0-10.09-3.53-10.09-9,0-8.49,6.27-18.81,17.5-18.81,5.93,0,8.15,2.45,8.15,5.19,0,5.07-4.39,8.72-16.25,8.72Zm.74-2.22-.4,1.19h1c8.49,0,10.32-4.84,10.32-8.15,0-1.88-1-3.76-3.25-3.76C582.44,719.06,581,723.68,578.9,729.78Z"/><path d="M645.65,725.61c0-1.93-5.13-1.08-5.13-4.5,0-1.94,1.6-3,3.48-3a3.64,3.64,0,0,1,3.88,3.82c0,7.52-6.1,24-16.31,24-3.3,0-6.44-1.71-6.44-5.42a11.68,11.68,0,0,1,.34-2.39c-1.65,3.48-4.1,7.81-9.69,7.81-3.13,0-6-1.94-6-5.42,0-4,5-15.1,5-18.58,0-1.08-.62-1.77-1.93-1.77-3.14,0-4.85,5.3-4.85,5.3l-.74-.34c1.65-4.22,3.65-7,8.21-7,3.53,0,5.7,2,5.7,5,0,3.65-5.19,15.9-5.19,18.7a1.79,1.79,0,0,0,2,1.88c4.85,0,8.56-9.86,8.84-10.83l4.1-14.25h6.85l-5.25,18a21.41,21.41,0,0,0-1.2,5.36,1.94,1.94,0,0,0,1.89,2.05C640,744,645.65,730.29,645.65,725.61Z"/><path d="M666.68,738.73s-2.79,7.18-8,7.18c-3.65,0-6.27-1.6-6.27-5.42,0-3.65,5-15.56,5-18.58a1.73,1.73,0,0,0-1.94-1.77c-2.62,0-4.27,3.71-4.84,5.3l-.74-.34c1.08-2.62,2.9-7,7.75-7,4,0,5.81,2.22,5.81,5.59,0,3.53-4.84,14.82-4.84,18.35a1.77,1.77,0,0,0,1.94,1.66c3.13,0,5.41-5.31,5.41-5.31Zm-3.59-32.44a3.65,3.65,0,1,1-3.65,3.65A3.67,3.67,0,0,1,663.09,706.29Z"/><path d="M674.77,719.69H670.5l.4-1.14h4.22l.85-3a13.74,13.74,0,0,0,8-7.69l.52-1.26h1.14l-3.48,12h5.7l-.4,1.14h-5.64L676.54,738a16,16,0,0,0-.74,3.81,1.82,1.82,0,0,0,2,1.89c3.13,0,6-5.31,6-5.31l.74.35s-3.36,7.18-8.72,7.18c-3.19,0-6.5-1.6-6.5-5.42a23.22,23.22,0,0,1,1.2-5.87Z"/><path d="M718.15,738.73s-2.79,7.18-8,7.18c-4.84,0-6.27-2.79-6.27-5.42,0-4,5-15.67,5-18.47a1.79,1.79,0,0,0-2.05-1.88c-4.79,0-9.58,9.86-10.38,11.69l-3.87,13.51h-7l10.88-37.85-4.39.4.29-.8a96.48,96.48,0,0,0,9.86-1.66l1.77.23L697.52,728c2.28-4.27,5.93-9.86,11-9.86,4.85,0,6.38,2.51,6.38,5.59,0,3.59-4.84,14.76-4.84,18.24a1.73,1.73,0,0,0,1.94,1.77c3.13,0,5.41-5.31,5.41-5.31Z"/><path d="M751.9,721.79l.91-3.24a46.85,46.85,0,0,0,6.27-.8l.91.23-5.81,20a15.35,15.35,0,0,0-.69,3.81,1.82,1.82,0,0,0,2,1.89c3.13,0,6-5.31,6-5.31l.74.35s-3.3,7.18-8.72,7.18c-4.33,0-6.5-2.22-6.5-5.47V740c-1.82,3.31-3.93,5.93-7.46,5.93-5.25,0-8.84-2.74-8.84-8.72,0-7.64,5.81-19.1,15.73-19.1C750,718.09,751.33,719.91,751.9,721.79Zm-.92,3.14a4.26,4.26,0,0,0,.12-.91c0-2.8-1.48-5-3.94-5-4.73,0-6.72,7.3-8.26,12.88a34.85,34.85,0,0,0-1.6,8.61c0,3.31,1.54,4.33,3.14,4.33,3.25,0,6.38-5.87,7.47-9.4l.17-.57Z"/><path d="M780.56,735.76a2.72,2.72,0,0,0-1.93,2.23c0,1.25,1.19,1.71,5.41,2.5,5.48,1,11.12,2.74,11.12,7.13,0,6.55-8.78,10.55-15.74,10.55-7.69,0-10.37-2.91-10.37-6,0-4.33,5.13-6.38,9.18-7-2.45-.69-3.94-2-3.94-3.94,0-3.42,3-5.18,5-6a6.07,6.07,0,0,1-3.13-5.76c0-5.24,5.36-11.4,13-11.4,3.07,0,5.24.85,6.61,2.17a4.84,4.84,0,0,1,4.62-4,2.31,2.31,0,0,1,2.5,2.34,2.56,2.56,0,0,1-2.45,2.56,1.53,1.53,0,0,1-1.71-1.6,2.73,2.73,0,0,1,.69-1.76.76.76,0,0,0-.4-.12c-1.37,0-2.28,1.66-2.57,3.42a6.94,6.94,0,0,1,1.31,4.34c0,3.76-3.59,10.83-13.45,10.83A13.55,13.55,0,0,1,780.56,735.76Zm8,14.48c0-2.34-2.34-3.36-6.45-4.16-1.71-.34-2.79-.63-2.79-.63A6.56,6.56,0,0,0,774,752c0,3,2.74,5,6.44,5C784.33,757,788.55,754.29,788.55,750.24Zm-5.65-22.52a22.5,22.5,0,0,0-.91,4.91,2.56,2.56,0,0,0,2.85,2.68c3.59,0,4.5-2.74,6.16-8.67a25,25,0,0,0,.91-4.9c0-1.43-.86-2.74-3.14-2.74C785.35,719,784.38,722.37,782.9,727.72Z"/><path d="M819,745.51l1.88-7.41c-2.1,3.7-4.9,7.81-10.31,7.81-3.14,0-6-1.94-6-5.42,0-4,5-15.1,5-18.58,0-1.08-.63-1.77-1.94-1.77-3.13,0-4.84,5.3-4.84,5.3l-.74-.34c1.65-4.22,3.64-7,8.2-7,3.54,0,5.71,2,5.71,5,0,3.65-5.19,15.9-5.19,18.7a1.79,1.79,0,0,0,2,1.88c4.9,0,8.66-8.72,9.06-9.64l4.45-15.44h7l-7.58,26.1c-1.94,6.62-6.27,13.52-13.8,13.52-3.87,0-6.21-2.68-6.21-4.85s1.26-4.11,3.54-4.11a2.72,2.72,0,0,1,2.85,2.51c0,2.45-2.11,3.42-2.11,4a1.8,1.8,0,0,0,1.93,1.49C814.48,757.2,816.53,755.09,819,745.51Z"/><path d="M847.94,723.28v.28c1.65-3.13,3.88-5.47,7.87-5.47,4.73,0,8.32,2.74,8.32,8.72,0,8.72-6,19.1-15.91,19.1-3.3,0-4.67-1.77-5.13-3.93l-4.5,15.62h-7l8.72-30.22a27.76,27.76,0,0,0,1.25-5.59c0-1-.74-1.65-1.93-1.65-3.14,0-4.85,5.3-4.85,5.3l-.74-.34c1.94-4.84,4-7,8.21-7C846.17,718.09,847.94,720.6,847.94,723.28Zm-1.54,6.78-2.34,8.61a5.27,5.27,0,0,0-.17,1.25c0,2.46,1,5,3.48,5,4.84,0,6.9-7,8.44-13,1.08-4.16,1.59-6.61,1.59-9.18s-1.14-3.64-2.79-3.64C850.68,719.12,847.83,724.7,846.4,730.06Z"/><path d="M868.86,736.05a2.42,2.42,0,0,1,2.39,2.22c0,3.14-3,3.76-3,4.45s1.94,2.22,4.9,2.22c4.33,0,6.39-3,6.39-5.82,0-2.56-3.08-4-5.42-5.41-2.79-1.71-5.64-3.42-5.64-6.73,0-5.76,4.79-8.89,10.49-8.89,4.67,0,7.69,2.39,7.69,5.3,0,2.74-1.42,4.5-3.3,4.5a2.43,2.43,0,0,1-2.4-2.22c0-3.13,3-3.76,3-4.45s-1.54-2.16-4.67-2.16-5.36,1.6-5.36,4.84c0,2.57,2.74,4.22,5.24,5.65,2.74,1.54,5.82,3.48,5.82,6.72,0,4.62-3.71,9.64-11.69,9.64-4.44,0-7.75-2.62-7.75-5.53S867,736.05,868.86,736.05Z"/><path d="M905.34,745.51l1.88-7.41c-2.11,3.7-4.9,7.81-10.32,7.81-3.13,0-6-1.94-6-5.42,0-4,5-15.1,5-18.58,0-1.08-.62-1.77-1.93-1.77-3.14,0-4.85,5.3-4.85,5.3l-.74-.34c1.65-4.22,3.65-7,8.21-7,3.53,0,5.7,2,5.7,5,0,3.65-5.19,15.9-5.19,18.7a1.79,1.79,0,0,0,2,1.88c4.91,0,8.67-8.72,9.07-9.64l4.44-15.44h7l-7.59,26.1c-1.93,6.62-6.27,13.52-13.79,13.52-3.88,0-6.22-2.68-6.22-4.85s1.26-4.11,3.54-4.11a2.72,2.72,0,0,1,2.85,2.51c0,2.45-2.11,3.42-2.11,4a1.81,1.81,0,0,0,1.94,1.49C900.83,757.2,902.89,755.09,905.34,745.51Z"/><path d="M933.78,736.05a2.42,2.42,0,0,1,2.39,2.22c0,3.14-3,3.76-3,4.45s1.94,2.22,4.9,2.22c4.34,0,6.39-3,6.39-5.82,0-2.56-3.08-4-5.42-5.41-2.79-1.71-5.64-3.42-5.64-6.73,0-5.76,4.79-8.89,10.49-8.89,4.67,0,7.69,2.39,7.69,5.3,0,2.74-1.42,4.5-3.3,4.5a2.43,2.43,0,0,1-2.4-2.22c0-3.13,3-3.76,3-4.45s-1.53-2.16-4.67-2.16-5.36,1.6-5.36,4.84c0,2.57,2.74,4.22,5.25,5.65,2.73,1.54,5.81,3.48,5.81,6.72,0,4.62-3.7,9.64-11.69,9.64-4.44,0-7.75-2.62-7.75-5.53S931.9,736.05,933.78,736.05Z"/><path d="M980.06,726.81c0,8.55-6.38,19.1-17.55,19.1a8.56,8.56,0,0,1-9-8.95c0-9,6.55-18.87,17.5-18.87C976.24,718.09,980.06,721.68,980.06,726.81Zm-18.24,5.13c-.85,2.57-1.94,6-1.94,8.78s1.09,4.22,3.31,4.22c5.3,0,6.5-7.41,8.38-13,1.37-4.1,1.94-6.67,1.94-8.78,0-2.39-.91-4.1-3.25-4.1C965.07,719.06,963.93,725.67,961.82,731.94Z"/><path d="M1006.63,718.55h7l-5.19,18a23.3,23.3,0,0,0-1.14,5.19,1.84,1.84,0,0,0,1.88,1.94c3.25,0,6.1-5.31,6.1-5.31l.74.35s-3.36,7.18-8.78,7.18c-3.3,0-6.44-1.71-6.44-5.42a11.85,11.85,0,0,1,.34-2.33c-1.88,3.47-4.78,7.75-10.26,7.75-3.13,0-6-1.94-6-5.42,0-4,5-15.1,5-18.58,0-1.08-.63-1.77-1.94-1.77-3.14,0-4.85,5.3-4.85,5.3l-.74-.34c1.65-4.22,3.65-7,8.21-7,3.53,0,5.7,2,5.7,5,0,3.65-5.19,15.9-5.19,18.7,0,1.14.69,1.88,2.06,1.88,4.67,0,8.43-8.15,9.06-9.64Z"/><path d="M1022.92,707.89l.29-.8a96.48,96.48,0,0,0,9.86-1.66l1.77.23L1025.55,738a16,16,0,0,0-.74,3.81,1.82,1.82,0,0,0,2,1.89c3.14,0,6-5.31,6-5.31l.74.35s-3.36,7.18-8.72,7.18c-4.62,0-6.5-2.79-6.5-5.42a23.53,23.53,0,0,1,1.19-5.87l7.81-27.13Z"/><path d="M1051.14,719.69h-4.28l.4-1.14h4.22l.86-3a13.76,13.76,0,0,0,8-7.69l.51-1.26H1062l-3.48,12h5.7l-.4,1.14h-5.64l-5.24,18.3a16,16,0,0,0-.74,3.81,1.82,1.82,0,0,0,2,1.89c3.14,0,6-5.31,6-5.31l.74.35s-3.37,7.18-8.72,7.18c-3.2,0-6.5-1.6-6.5-5.42a23.53,23.53,0,0,1,1.19-5.87Z"/><path d="M1094.52,738.73s-2.79,7.18-8,7.18c-4.85,0-6.27-2.79-6.27-5.42,0-4,5-15.67,5-18.47,0-1.14-.69-1.88-2.06-1.88-4.78,0-9.57,9.86-10.37,11.69l-3.88,13.51h-7l10.89-37.85-4.39.4.29-.8a96.48,96.48,0,0,0,9.86-1.66l1.76.23L1073.88,728c2.28-4.27,5.93-9.86,11-9.86,4.85,0,6.39,2.51,6.39,5.59,0,3.59-4.85,14.76-4.85,18.24a1.74,1.74,0,0,0,1.94,1.77c3.14,0,5.42-5.31,5.42-5.31Z"/><path d="M1118,721.79l.91-3.24a46.85,46.85,0,0,0,6.27-.8l.92.23-5.82,20a15.14,15.14,0,0,0-.68,3.81,1.82,1.82,0,0,0,2,1.89c3.14,0,6-5.31,6-5.31l.74.35s-3.31,7.18-8.72,7.18c-4.33,0-6.5-2.22-6.5-5.47V740c-1.82,3.31-3.93,5.93-7.47,5.93-5.24,0-8.84-2.74-8.84-8.72,0-7.64,5.82-19.1,15.74-19.1C1116.06,718.09,1117.43,719.91,1118,721.79Zm-.91,3.14a4.28,4.28,0,0,0,.11-.91c0-2.8-1.48-5-3.93-5-4.73,0-6.73,7.3-8.27,12.88a34.7,34.7,0,0,0-1.59,8.61c0,3.31,1.54,4.33,3.13,4.33,3.25,0,6.39-5.87,7.47-9.4l.17-.57Z"/><path d="M1135.5,719.69h-4.28l.4-1.14h4.22l.86-3a13.76,13.76,0,0,0,8-7.69l.51-1.26h1.14l-3.48,12h5.7l-.4,1.14h-5.64l-5.24,18.3a16,16,0,0,0-.74,3.81,1.82,1.82,0,0,0,2,1.89c3.14,0,6-5.31,6-5.31l.74.35s-3.37,7.18-8.72,7.18c-3.2,0-6.5-1.6-6.5-5.42a23.53,23.53,0,0,1,1.19-5.87Z"/><path d="M1179.39,720.14c-5,0-9.23,10.72-9.63,12.09L1166,745.34h-6.89l5.18-18a25.69,25.69,0,0,0,1.2-5.41c0-1.2-.74-1.77-1.94-1.77-3.13,0-4.84,5.3-4.84,5.3l-.74-.34c2-5.36,4.56-7,8.2-7s5.71,2,5.71,5a13.56,13.56,0,0,1-.58,3.42c1.94-4,4.91-8.38,9.64-8.38,6.27,0,6.38,4.22,6.38,5.41a13.35,13.35,0,0,1-.74,3.77c2-4.11,5.13-9.18,10.21-9.18,5.64,0,6.38,3.42,6.38,5.59,0,3.25-4.84,14.76-4.84,18.24a1.78,1.78,0,0,0,1.93,1.77c3.14,0,5.42-5.31,5.42-5.31l.74.35s-2.79,7.18-8,7.18c-5,0-6.27-2.74-6.27-5.42,0-3.65,5-15.67,5-18.47a1.71,1.71,0,0,0-1.88-1.88c-5.25,0-9.86,12-10,12.43l-3.65,12.77h-6.89l5.18-18a27.83,27.83,0,0,0,1.31-5.47A1.67,1.67,0,0,0,1179.39,720.14Z"/><path d="M1229.89,721.79l.91-3.24a46.85,46.85,0,0,0,6.27-.8l.92.23-5.82,20a15.14,15.14,0,0,0-.68,3.81,1.82,1.82,0,0,0,2,1.89c3.14,0,6-5.31,6-5.31l.74.35s-3.31,7.18-8.72,7.18c-4.33,0-6.5-2.22-6.5-5.47V740c-1.83,3.31-3.93,5.93-7.47,5.93-5.24,0-8.84-2.74-8.84-8.72,0-7.64,5.82-19.1,15.74-19.1C1228,718.09,1229.32,719.91,1229.89,721.79Zm-.91,3.14a4.28,4.28,0,0,0,.11-.91c0-2.8-1.48-5-3.93-5-4.73,0-6.73,7.3-8.27,12.88a34.7,34.7,0,0,0-1.59,8.61c0,3.31,1.54,4.33,3.13,4.33,3.25,0,6.39-5.87,7.47-9.4l.17-.57Z"/><path d="M1241.06,745.34,1252,707.49l-4.39.4.28-.8a96.39,96.39,0,0,0,9.87-1.66l1.76.23-6.27,21.72a8,8,0,0,1,1.71.34c4.45-3,5.48-9.63,10.09-9.63,2.51,0,3.94,1.31,3.94,3.25a3.65,3.65,0,0,1-3.71,3.65,2.08,2.08,0,0,1-2.22-2.17c0-1.37,1.31-2.56,1.31-2.79s-.11-.29-.34-.29c-2.45,0-4.22,6-7.81,8.38,4.9,1.09,6.84,3.82,6.84,7.3,0,2.05-1.14,4.5-1.14,6.5,0,1.14.45,2.22,1.94,2.22,2.85,0,4.27-5.59,4.27-5.59l.86.23s-1.54,7.13-6.62,7.13c-4.16,0-5.64-2.79-5.64-5.53,0-2.39.69-4.11.69-6.9,0-2.11-.86-4.05-2.34-4.05-.57,0-1.2.63-1.6.63a.8.8,0,0,1-.8-.45l-4.56,15.73Z"/><path d="M1279.2,732c-1.6,4.9-1.83,7.07-1.83,8.61,0,2.56,1.2,4.33,3.82,4.33,3.88,0,7.52-3.19,9.52-6.56l.91.4c-2.33,4.16-6.55,7.13-10.6,7.13-7.13,0-10.09-3.53-10.09-9,0-8.49,6.27-18.81,17.5-18.81,5.93,0,8.15,2.45,8.15,5.19,0,5.07-4.39,8.72-16.25,8.72Zm.74-2.22-.4,1.19h1c8.5,0,10.32-4.84,10.32-8.15,0-1.88-1-3.76-3.25-3.76C1283.47,719.06,1282,723.68,1279.94,729.78Z"/><path d="M1300.23,736.05a2.42,2.42,0,0,1,2.39,2.22c0,3.14-3,3.76-3,4.45s1.94,2.22,4.9,2.22c4.33,0,6.39-3,6.39-5.82,0-2.56-3.08-4-5.42-5.41-2.79-1.71-5.64-3.42-5.64-6.73,0-5.76,4.79-8.89,10.49-8.89,4.67,0,7.69,2.39,7.69,5.3,0,2.74-1.42,4.5-3.3,4.5a2.43,2.43,0,0,1-2.4-2.22c0-3.13,3-3.76,3-4.45s-1.54-2.16-4.67-2.16-5.36,1.6-5.36,4.84c0,2.57,2.74,4.22,5.24,5.65,2.74,1.54,5.82,3.48,5.82,6.72,0,4.62-3.71,9.64-11.69,9.64-4.44,0-7.75-2.62-7.75-5.53S1298.35,736.05,1300.23,736.05Z"/><path d="M1347,745.51l1.88-7.41c-2.11,3.7-4.9,7.81-10.32,7.81-3.13,0-6-1.94-6-5.42,0-4,5-15.1,5-18.58,0-1.08-.62-1.77-1.93-1.77-3.14,0-4.85,5.3-4.85,5.3l-.74-.34c1.65-4.22,3.65-7,8.21-7,3.53,0,5.7,2,5.7,5,0,3.65-5.19,15.9-5.19,18.7a1.79,1.79,0,0,0,2,1.88c4.91,0,8.67-8.72,9.07-9.64l4.44-15.44h7l-7.59,26.1c-1.93,6.62-6.27,13.52-13.79,13.52-3.88,0-6.21-2.68-6.21-4.85s1.25-4.11,3.53-4.11a2.72,2.72,0,0,1,2.85,2.51c0,2.45-2.11,3.42-2.11,4a1.81,1.81,0,0,0,1.94,1.49C1342.46,757.2,1344.52,755.09,1347,745.51Z"/><path d="M1388.41,726.81c0,8.55-6.39,19.1-17.56,19.1a8.56,8.56,0,0,1-8.95-8.95c0-9,6.56-18.87,17.5-18.87C1384.59,718.09,1388.41,721.68,1388.41,726.81Zm-18.24,5.13c-.86,2.57-1.94,6-1.94,8.78s1.08,4.22,3.3,4.22c5.31,0,6.5-7.41,8.38-13,1.37-4.1,1.94-6.67,1.94-8.78,0-2.39-.91-4.1-3.25-4.1C1373.42,719.06,1372.28,725.67,1370.17,731.94Z"/><path d="M1415,718.55h7l-5.19,18a23.3,23.3,0,0,0-1.14,5.19,1.85,1.85,0,0,0,1.88,1.94c3.25,0,6.1-5.31,6.1-5.31l.75.35s-3.37,7.18-8.78,7.18c-3.31,0-6.45-1.71-6.45-5.42a11.29,11.29,0,0,1,.35-2.33c-1.88,3.47-4.79,7.75-10.26,7.75-3.14,0-6-1.94-6-5.42,0-4,5-15.1,5-18.58,0-1.08-.63-1.77-1.94-1.77-3.14,0-4.85,5.3-4.85,5.3l-.74-.34c1.66-4.22,3.65-7,8.21-7,3.54,0,5.7,2,5.7,5,0,3.65-5.18,15.9-5.18,18.7a1.79,1.79,0,0,0,2,1.88c4.67,0,8.44-8.15,9.06-9.64Z"/><path d="M1437.94,731l-4.11,14.37h-6.89l5.18-18a26.7,26.7,0,0,0,1.2-5.58c0-1-.74-1.6-1.94-1.6-3.13,0-4.84,5.3-4.84,5.3l-.75-.34c1.6-4,3.48-7,8.21-7,3.6,0,5.71,2.11,5.71,5a6.29,6.29,0,0,1-.12,1.37c1.65-3.14,4.05-6.33,8.15-6.33a3,3,0,0,1,3.31,3.13,3.88,3.88,0,0,1-3.65,3.94,2.27,2.27,0,0,1-2.56-2.11c0-1.31,1.14-2.11,1.14-2.57,0-.11-.06-.22-.29-.22C1441.93,720.26,1439,727.21,1437.94,731Z"/><path d="M1467.92,719.69h-4.28l.4-1.14h4.22l.86-3a13.76,13.76,0,0,0,8-7.69l.51-1.26h1.14l-3.48,12h5.7l-.4,1.14h-5.64l-5.24,18.3a16,16,0,0,0-.74,3.81,1.82,1.82,0,0,0,2,1.89c3.14,0,6-5.31,6-5.31l.74.35s-3.37,7.18-8.72,7.18c-3.2,0-6.5-1.6-6.5-5.42a23.53,23.53,0,0,1,1.19-5.87Z"/><path d="M1488.15,732c-1.59,4.9-1.82,7.07-1.82,8.61,0,2.56,1.2,4.33,3.82,4.33,3.88,0,7.52-3.19,9.52-6.56l.91.4c-2.34,4.16-6.55,7.13-10.6,7.13-7.13,0-10.09-3.53-10.09-9,0-8.49,6.27-18.81,17.5-18.81,5.93,0,8.15,2.45,8.15,5.19,0,5.07-4.39,8.72-16.25,8.72Zm.74-2.22-.39,1.19h1c8.5,0,10.32-4.84,10.32-8.15,0-1.88-1-3.76-3.25-3.76C1492.43,719.06,1491,723.68,1488.89,729.78Z"/><path d="M1531.82,719.06c-4.62,0-5.76,6.73-7.47,12.88-1.37,5-1.82,7.3-1.82,8.78,0,2.91,1.76,4.22,3.59,4.22,2.73,0,5.07-3,6.38-5.64l.91.45c-2.05,4-4.67,6.16-7.92,6.16-3.65,0-6.1-1.43-7.3-3.42a11.48,11.48,0,0,1-8.21,3.42c-3.82,0-5.58-2.57-5.58-4.85,0-2.85,1.65-4.73,3.59-4.73a2.65,2.65,0,0,1,2.62,2.57c0,3-2.91,3.7-2.91,4.44s.8,1.6,2.17,1.6c4.62,0,5.76-6.84,7.47-13,1.37-5,1.82-7.18,1.82-8.66,0-2.57-1.42-4.22-3.59-4.22-2.57,0-5.07,2.79-6.38,5.64l-.92-.45c2.06-4,4.68-6.16,8-6.16,3.88,0,6.16,1.71,7.18,3.42a11.54,11.54,0,0,1,8.21-3.42c3.82,0,5.59,2.57,5.59,4.85,0,2.85-1.65,4.73-3.59,4.73a2.64,2.64,0,0,1-2.62-2.57c0-3,2.9-3.7,2.9-4.44S1533.19,719.06,1531.82,719.06Z"/><path d="M1543.39,719.69h-4.28l.4-1.14h4.22l.85-3a13.74,13.74,0,0,0,8-7.69l.52-1.26h1.14l-3.48,12h5.7l-.4,1.14h-5.64l-5.25,18.3a16,16,0,0,0-.74,3.81,1.82,1.82,0,0,0,2,1.89c3.13,0,6-5.31,6-5.31l.74.35s-3.36,7.18-8.72,7.18c-3.19,0-6.5-1.6-6.5-5.42a23.7,23.7,0,0,1,1.2-5.87Z"/><path d="M1558.09,736.05a2.43,2.43,0,0,1,2.4,2.22c0,3.14-3,3.76-3,4.45s1.94,2.22,4.91,2.22c4.33,0,6.38-3,6.38-5.82,0-2.56-3.08-4-5.41-5.41-2.8-1.71-5.65-3.42-5.65-6.73,0-5.76,4.79-8.89,10.49-8.89,4.68,0,7.7,2.39,7.7,5.3,0,2.74-1.43,4.5-3.31,4.5a2.42,2.42,0,0,1-2.39-2.22c0-3.13,3-3.76,3-4.45s-1.54-2.16-4.68-2.16-5.35,1.6-5.35,4.84c0,2.57,2.73,4.22,5.24,5.65,2.74,1.54,5.81,3.48,5.81,6.72,0,4.62-3.7,9.64-11.68,9.64-4.45,0-7.75-2.62-7.75-5.53S1556.21,736.05,1558.09,736.05Z"/><path d="M646.93,814.05a2.43,2.43,0,0,1,2.4,2.22c0,3.14-3,3.76-3,4.45s1.94,2.22,4.91,2.22c4.33,0,6.38-3,6.38-5.82,0-2.56-3.08-4-5.41-5.41-2.8-1.71-5.65-3.42-5.65-6.73,0-5.76,4.79-8.89,10.49-8.89,4.68,0,7.7,2.39,7.7,5.3,0,2.74-1.43,4.5-3.31,4.5a2.42,2.42,0,0,1-2.39-2.22c0-3.13,3-3.76,3-4.45s-1.54-2.16-4.68-2.16-5.35,1.6-5.35,4.84c0,2.57,2.73,4.22,5.24,5.65,2.74,1.54,5.81,3.48,5.81,6.72,0,4.62-3.7,9.64-11.68,9.64-4.45,0-7.75-2.62-7.75-5.53S645.05,814.05,646.93,814.05Z"/><path d="M687.86,798.14c-5,0-9.24,10.72-9.63,12.09l-3.77,13.11h-6.9l5.19-18a25.69,25.69,0,0,0,1.2-5.41c0-1.2-.74-1.77-1.94-1.77-3.13,0-4.84,5.3-4.84,5.3l-.75-.34c2-5.36,4.57-7,8.21-7s5.7,2,5.7,5a13.32,13.32,0,0,1-.57,3.42c1.94-4,4.91-8.38,9.64-8.38,6.27,0,6.38,4.22,6.38,5.41a13.35,13.35,0,0,1-.74,3.77c2-4.11,5.13-9.18,10.21-9.18,5.64,0,6.38,3.42,6.38,5.59,0,3.25-4.84,14.76-4.84,18.24a1.78,1.78,0,0,0,1.93,1.77c3.14,0,5.42-5.31,5.42-5.31l.74.35s-2.79,7.18-8,7.18c-5,0-6.27-2.74-6.27-5.42,0-3.65,5-15.67,5-18.47a1.71,1.71,0,0,0-1.88-1.88c-5.25,0-9.87,12-10,12.43l-3.65,12.77h-6.9l5.19-18a27.83,27.83,0,0,0,1.31-5.47A1.67,1.67,0,0,0,687.86,798.14Z"/><path d="M725.42,810c-1.6,4.9-1.82,7.07-1.82,8.61,0,2.56,1.19,4.33,3.82,4.33,3.87,0,7.52-3.19,9.52-6.56l.91.4c-2.34,4.16-6.56,7.13-10.61,7.13-7.12,0-10.09-3.53-10.09-9,0-8.49,6.28-18.81,17.51-18.81,5.92,0,8.15,2.45,8.15,5.19,0,5.07-4.39,8.72-16.25,8.72Zm.74-2.22-.4,1.19h1c8.49,0,10.32-4.84,10.32-8.15,0-1.88-1-3.76-3.25-3.76C729.7,797.06,728.21,801.68,726.16,807.78Z"/><path d="M748.62,785.89l.28-.8a96.39,96.39,0,0,0,9.87-1.66l1.76.23L751.24,816a16,16,0,0,0-.74,3.81,1.82,1.82,0,0,0,2,1.89c3.13,0,6-5.31,6-5.31l.74.35s-3.36,7.18-8.72,7.18c-4.62,0-6.5-2.79-6.5-5.42a23.22,23.22,0,0,1,1.2-5.87L753,785.49Z"/><path d="M765.72,785.89l.28-.8a96.39,96.39,0,0,0,9.87-1.66l1.76.23L768.34,816a16,16,0,0,0-.74,3.81,1.82,1.82,0,0,0,2,1.89c3.14,0,6-5.31,6-5.31l.74.35s-3.36,7.18-8.72,7.18c-4.62,0-6.5-2.79-6.5-5.42a23.22,23.22,0,0,1,1.2-5.87l7.81-27.13Z"/><path d="M793.08,785.89l.28-.8a96.48,96.48,0,0,0,9.86-1.66l1.77.23L795.7,816a16,16,0,0,0-.74,3.81,1.82,1.82,0,0,0,2,1.89c3.14,0,6-5.31,6-5.31l.74.35s-3.36,7.18-8.72,7.18c-4.62,0-6.5-2.79-6.5-5.42a23.22,23.22,0,0,1,1.2-5.87l7.81-27.13Z"/><path d="M821.52,816.73s-2.79,7.18-8,7.18c-3.65,0-6.27-1.6-6.27-5.42,0-3.65,5-15.56,5-18.58a1.73,1.73,0,0,0-1.94-1.77c-2.62,0-4.27,3.71-4.84,5.3l-.75-.34c1.09-2.62,2.91-7,7.76-7,4,0,5.81,2.22,5.81,5.59,0,3.53-4.84,14.82-4.84,18.35a1.77,1.77,0,0,0,1.93,1.66c3.14,0,5.42-5.31,5.42-5.31Zm-3.59-32.44a3.65,3.65,0,1,1-3.65,3.65A3.68,3.68,0,0,1,817.93,784.29Z"/><path d="M823.29,823.34l10.88-37.85-4.39.4.29-.8a96.48,96.48,0,0,0,9.86-1.66l1.77.23-6.27,21.72a8.09,8.09,0,0,1,1.71.34c4.44-3,5.47-9.63,10.09-9.63,2.51,0,3.93,1.31,3.93,3.25a3.65,3.65,0,0,1-3.7,3.65,2.08,2.08,0,0,1-2.23-2.17c0-1.37,1.31-2.56,1.31-2.79s-.11-.29-.34-.29c-2.45,0-4.22,6-7.81,8.38,4.9,1.09,6.84,3.82,6.84,7.3,0,2.05-1.14,4.5-1.14,6.5,0,1.14.46,2.22,1.94,2.22,2.85,0,4.28-5.59,4.28-5.59l.85.23s-1.54,7.13-6.61,7.13c-4.16,0-5.65-2.79-5.65-5.53,0-2.39.69-4.11.69-6.9,0-2.11-.86-4.05-2.34-4.05-.57,0-1.2.63-1.59.63a.79.79,0,0,1-.8-.45l-4.56,15.73Z"/><path d="M861.42,810c-1.6,4.9-1.83,7.07-1.83,8.61,0,2.56,1.2,4.33,3.82,4.33,3.88,0,7.53-3.19,9.52-6.56l.92.4c-2.34,4.16-6.56,7.13-10.61,7.13-7.12,0-10.09-3.53-10.09-9,0-8.49,6.27-18.81,17.5-18.81,5.93,0,8.16,2.45,8.16,5.19,0,5.07-4.39,8.72-16.25,8.72Zm.74-2.22-.4,1.19h1c8.49,0,10.32-4.84,10.32-8.15,0-1.88-1-3.76-3.25-3.76C865.69,797.06,864.21,801.68,862.16,807.78Z"/><path d="M917.28,804.81c0,8.55-6.38,19.1-17.56,19.1a8.56,8.56,0,0,1-9-8.95c0-9,6.56-18.87,17.5-18.87C913.46,796.09,917.28,799.68,917.28,804.81ZM899,809.94c-.86,2.57-1.94,6-1.94,8.78s1.08,4.22,3.31,4.22c5.3,0,6.5-7.41,8.38-13,1.36-4.1,1.93-6.67,1.93-8.78,0-2.39-.91-4.1-3.24-4.1C902.29,797.06,901.15,803.67,899,809.94Z"/><path d="M931.7,809l-4.11,14.37H920.7l5.18-18a26,26,0,0,0,1.2-5.58c0-1-.74-1.6-1.94-1.6-3.13,0-4.84,5.3-4.84,5.3l-.74-.34c1.59-4,3.47-7,8.21-7,3.59,0,5.7,2.11,5.7,5a6.29,6.29,0,0,1-.12,1.37c1.66-3.14,4-6.33,8.15-6.33a3,3,0,0,1,3.31,3.13,3.88,3.88,0,0,1-3.65,3.94,2.28,2.28,0,0,1-2.56-2.11c0-1.31,1.14-2.11,1.14-2.57,0-.11-.06-.22-.29-.22C935.69,798.26,932.78,805.21,931.7,809Z"/><path d="M964.3,799.79l.92-3.24a46.85,46.85,0,0,0,6.27-.8l.91.23-5.82,20a15.14,15.14,0,0,0-.68,3.81,1.82,1.82,0,0,0,2,1.89c3.13,0,6-5.31,6-5.31l.74.35s-3.3,7.18-8.72,7.18c-4.33,0-6.5-2.22-6.5-5.47V818c-1.82,3.31-3.93,5.93-7.47,5.93-5.24,0-8.83-2.74-8.83-8.72,0-7.64,5.81-19.1,15.73-19.1C962.37,796.09,963.73,797.91,964.3,799.79Zm-.91,3.14a4.26,4.26,0,0,0,.12-.91c0-2.8-1.49-5-3.94-5-4.73,0-6.72,7.3-8.26,12.88a34.85,34.85,0,0,0-1.6,8.61c0,3.31,1.54,4.33,3.14,4.33,3.25,0,6.38-5.87,7.46-9.4l.18-.57Z"/><path d="M983.51,823.34h-6.9l5.19-18.13a23.73,23.73,0,0,0,1.2-5.42c0-1.08-.74-1.65-1.94-1.65-3.13,0-4.85,5.3-4.85,5.3l-.74-.34c2.23-5.81,4.91-7,8.21-7,3.94,0,5.7,2.45,5.7,5a20.92,20.92,0,0,1-1,5.19c2.23-4.28,5.93-10.15,11.12-10.15,3.65,0,6.39,1.42,6.39,5.59,0,3.47-4.85,14.76-4.85,18.24a1.79,1.79,0,0,0,1.94,1.77c3.13,0,5.41-5.31,5.41-5.31l.75.35s-2.8,7.18-8,7.18c-3,0-6.27-1.14-6.27-5.42,0-3.76,5-15.67,5-18.47a1.79,1.79,0,0,0-2-1.88c-5.24,0-10.49,11.86-10.66,12.49Z"/><path d="M1018.4,813.76a2.72,2.72,0,0,0-1.94,2.23c0,1.25,1.19,1.71,5.41,2.5,5.48,1,11.12,2.74,11.12,7.13,0,6.55-8.78,10.55-15.73,10.55-7.7,0-10.38-2.91-10.38-6,0-4.33,5.13-6.38,9.18-7-2.45-.69-3.94-2-3.94-3.94,0-3.42,3-5.18,5-6a6.07,6.07,0,0,1-3.13-5.76c0-5.24,5.36-11.4,13-11.4,3.08,0,5.24.85,6.61,2.17.46-1.88,1.88-4,4.62-4a2.32,2.32,0,0,1,2.51,2.34,2.57,2.57,0,0,1-2.46,2.56,1.53,1.53,0,0,1-1.71-1.6,2.73,2.73,0,0,1,.69-1.76.76.76,0,0,0-.4-.12c-1.37,0-2.28,1.66-2.57,3.42a6.94,6.94,0,0,1,1.31,4.34c0,3.76-3.59,10.83-13.45,10.83A13.42,13.42,0,0,1,1018.4,813.76Zm8,14.48c0-2.34-2.34-3.36-6.45-4.16-1.71-.34-2.79-.63-2.79-.63a6.56,6.56,0,0,0-5.3,6.56c0,3,2.74,5,6.44,5C1022.16,835,1026.38,832.29,1026.38,828.24Zm-5.65-22.52a22.5,22.5,0,0,0-.91,4.91,2.56,2.56,0,0,0,2.85,2.68c3.59,0,4.5-2.74,6.16-8.67a25,25,0,0,0,.91-4.9c0-1.43-.86-2.74-3.14-2.74C1023.18,797,1022.21,800.37,1020.73,805.72Z"/><path d="M1046.15,810c-1.59,4.9-1.82,7.07-1.82,8.61,0,2.56,1.2,4.33,3.82,4.33,3.88,0,7.52-3.19,9.52-6.56l.91.4c-2.34,4.16-6.55,7.13-10.6,7.13-7.13,0-10.09-3.53-10.09-9,0-8.49,6.27-18.81,17.5-18.81,5.93,0,8.15,2.45,8.15,5.19,0,5.07-4.39,8.72-16.25,8.72Zm.74-2.22-.39,1.19h1c8.5,0,10.32-4.84,10.32-8.15,0-1.88-1-3.76-3.25-3.76C1050.43,797.06,1049,801.68,1046.89,807.78Z"/><path d="M1084.86,785.49l-4.39.4.28-.8a96.48,96.48,0,0,0,9.86-1.66l1.77.23-5,17.45c.75-1.37,3.2-5,7.19-5,5.41,0,8.66,2.74,8.66,8.72,0,8.55-6.27,19.1-18,19.1-6.73,0-8.84-3.65-8.84-6.9a14.59,14.59,0,0,1,.69-4.22Zm.62,22.12-2.56,9.17a12.79,12.79,0,0,0-.46,3,3.1,3.1,0,0,0,3.14,3.14c5.24,0,7.75-7.41,9.29-13,1.14-4.16,1.6-6.61,1.6-8.49,0-3.31-1.26-4.33-2.86-4.33C1091.3,797.12,1087.54,800.48,1085.48,807.61Z"/><path d="M1111,785.89l.29-.8a96.48,96.48,0,0,0,9.86-1.66l1.77.23-9.3,32.33a16,16,0,0,0-.74,3.81,1.82,1.82,0,0,0,2,1.89c3.13,0,6-5.31,6-5.31l.74.35s-3.36,7.18-8.72,7.18c-4.62,0-6.5-2.79-6.5-5.42a23.7,23.7,0,0,1,1.2-5.87l7.81-27.13Z"/><path d="M1149.38,804.81c0,8.55-6.38,19.1-17.56,19.1a8.56,8.56,0,0,1-9-8.95c0-9,6.56-18.87,17.5-18.87C1145.56,796.09,1149.38,799.68,1149.38,804.81Zm-18.24,5.13c-.86,2.57-1.94,6-1.94,8.78s1.08,4.22,3.31,4.22c5.3,0,6.5-7.41,8.38-13,1.37-4.1,1.94-6.67,1.94-8.78,0-2.39-.92-4.1-3.25-4.1C1134.39,797.06,1133.25,803.67,1131.14,809.94Z"/><path d="M1154.17,814.05a2.42,2.42,0,0,1,2.39,2.22c0,3.14-3,3.76-3,4.45s1.94,2.22,4.9,2.22c4.33,0,6.39-3,6.39-5.82,0-2.56-3.08-4-5.42-5.41-2.79-1.71-5.64-3.42-5.64-6.73,0-5.76,4.79-8.89,10.49-8.89,4.67,0,7.69,2.39,7.69,5.3,0,2.74-1.42,4.5-3.3,4.5a2.42,2.42,0,0,1-2.4-2.22c0-3.13,3-3.76,3-4.45s-1.54-2.16-4.67-2.16-5.36,1.6-5.36,4.84c0,2.57,2.74,4.22,5.24,5.65,2.74,1.54,5.82,3.48,5.82,6.72,0,4.62-3.71,9.64-11.69,9.64-4.44,0-7.75-2.62-7.75-5.53S1152.29,814.05,1154.17,814.05Z"/><path d="M1175.6,814.05a2.42,2.42,0,0,1,2.39,2.22c0,3.14-3,3.76-3,4.45s1.94,2.22,4.9,2.22c4.34,0,6.39-3,6.39-5.82,0-2.56-3.08-4-5.42-5.41-2.79-1.71-5.64-3.42-5.64-6.73,0-5.76,4.79-8.89,10.49-8.89,4.67,0,7.69,2.39,7.69,5.3,0,2.74-1.42,4.5-3.3,4.5a2.43,2.43,0,0,1-2.4-2.22c0-3.13,3-3.76,3-4.45s-1.54-2.16-4.68-2.16-5.36,1.6-5.36,4.84c0,2.57,2.74,4.22,5.25,5.65,2.73,1.54,5.81,3.48,5.81,6.72,0,4.62-3.7,9.64-11.69,9.64-4.44,0-7.75-2.62-7.75-5.53S1173.72,814.05,1175.6,814.05Z"/><path d="M1221.88,804.81c0,8.55-6.38,19.1-17.55,19.1a8.56,8.56,0,0,1-8.95-8.95c0-9,6.55-18.87,17.5-18.87C1218.06,796.09,1221.88,799.68,1221.88,804.81Zm-18.24,5.13c-.85,2.57-1.94,6-1.94,8.78s1.09,4.22,3.31,4.22c5.3,0,6.5-7.41,8.38-13,1.37-4.1,1.94-6.67,1.94-8.78,0-2.39-.91-4.1-3.25-4.1C1206.89,797.06,1205.75,803.67,1203.64,809.94Z"/><path d="M1245.59,798.14c-5,0-9.23,10.72-9.63,12.09l-3.76,13.11h-6.9l5.19-18a25.69,25.69,0,0,0,1.2-5.41c0-1.2-.75-1.77-1.94-1.77-3.14,0-4.85,5.3-4.85,5.3l-.74-.34c2-5.36,4.56-7,8.21-7s5.7,2,5.7,5a13.83,13.83,0,0,1-.57,3.42c1.94-4,4.9-8.38,9.63-8.38,6.28,0,6.39,4.22,6.39,5.41a13.35,13.35,0,0,1-.74,3.77c2-4.11,5.13-9.18,10.2-9.18,5.65,0,6.39,3.42,6.39,5.59,0,3.25-4.85,14.76-4.85,18.24a1.79,1.79,0,0,0,1.94,1.77c3.13,0,5.42-5.31,5.42-5.31l.74.35s-2.8,7.18-8,7.18c-5,0-6.28-2.74-6.28-5.42,0-3.65,5-15.67,5-18.47a1.71,1.71,0,0,0-1.88-1.88c-5.24,0-9.86,12-10,12.43l-3.65,12.77h-6.9l5.19-18a27.83,27.83,0,0,0,1.31-5.47A1.68,1.68,0,0,0,1245.59,798.14Z"/></svg>