<svg xmlns="http://www.w3.org/2000/svg" xmlns:xlink="http://www.w3.org/1999/xlink" viewBox="0 0 1920 1200"><defs><clipPath id="a"><rect width="1920" height="1200" style="fill:none"/></clipPath></defs><title>ts_taull 1</title><rect width="1920" height="1200" style="fill:#fff4e0"/><path d="M102,742.71l3-32.87a65.84,65.84,0,0,0,28.51,6.93c4.75,0,10.49-.59,12.27-1.58l.2-2.78c-19-11.48-49.5-30.09-49.5-56,0-29.5,25.54-43.16,52.47-43.16,13.47,0,31.48,3.56,41.38,6.14L186.93,652l-1,.59c-13.27-5.94-29.11-7.53-39-7.53l-.39,2.18c21,12.28,49.3,32.28,49.3,57.42,0,30.3-24.55,42.77-58,42.77C121.39,747.46,108.12,744.69,102,742.71Z" style="fill:#8a1024"/><path d="M206.92,718c-1-3.17-1.78-9.31-2.17-13.07l54.05-30.1c-2.58-2-8.52-4.55-15.84-4.55-16,0-30.29,4.55-36.43,7.92l-1.19-1,20.39-30.69,27.72,1.39C282.36,649.25,301,653.61,301,690c0,21.58-.2,35.44-.2,46.53v6.93c-4.95-.2-14.25-.4-21.18-.4-6.73,0-16,.2-21.19.4a108.3,108.3,0,0,0,1.39-13.66l-34.06,17.62C220.39,742.71,212.07,735,206.92,718ZM259,684.89,244,694.4a36.35,36.35,0,0,0,4.35,14.85c3,5.54,7.53,9.3,11.88,12.07Z" style="fill:#8a1024"/><path d="M316.22,736c0-35.25-1.39-70.69-2.38-87.52,5.94.2,16.44.4,23.56.4,7.33,0,17.63-.2,23.57-.4-.2,1.58-.4,5.54-.6,10.1,13.86-5.35,32.28-12.08,37.62-12.08,9.11,0,21.78,21.78,21.78,49.5,0,16.63-3.36,36.83-5.74,47.52-4.55-.4-13.27-.59-21-.59s-15.84.39-19.8.59a184.38,184.38,0,0,0,5.15-40.19c0-21.39-8.51-36.63-18.41-36.63-.6,16-1.39,41.18-1.39,69.3v7.52c-4.95-.4-14.26-.59-21.19-.59-6.73,0-16,.19-21.18.59Z" style="fill:#8a1024"/><path d="M439.17,733.6c0-20.39-.19-38.21-.39-53.26h-9.11V648.46h8.51c0-6.53-.39-15.25-.59-18,3.17-.39,10.69-2.37,20.79-6.14,10.3-3.76,19.6-8.11,21.78-9.5l2.38.79c-.4,6.54-1,19.8-1,32.87H498l-2,31.88H480.75c-.19,16-.39,32.67-.39,53.26v9.9c-4.95-.4-13.86-.79-20.59-.79s-15.65.39-20.6.79Z" style="fill:#8a1024"/><path d="M505.3,718c-1-3.17-1.78-9.31-2.17-13.07l54-30.1c-2.57-2-8.51-4.55-15.84-4.55-16,0-30.29,4.55-36.43,7.92l-1.19-1,20.39-30.69,27.72,1.39c28.91,1.38,47.52,5.74,47.52,42.17,0,21.58-.19,35.44-.19,46.53v6.93c-4.95-.2-14.26-.4-21.19-.4-6.73,0-16,.2-21.19.4a108.3,108.3,0,0,0,1.39-13.66l-34.06,17.62C518.77,742.71,510.45,735,505.3,718Zm52.08-33.07-15,9.51a36.24,36.24,0,0,0,4.36,14.85,33.08,33.08,0,0,0,11.88,12.07Z" style="fill:#8a1024"/><path d="M653.41,733.4c0-46.92-1.39-95-2.58-118.2,6.93.39,18.81.79,26.14.79,10.09,0,19.8-.4,24.15-.79,3.17,9.9,12.48,26.13,18.61,35.64,6.14-9.51,15.45-25.74,18.22-35.64,6.14.39,16.83.79,24.35.79,7.33,0,19.21-.4,26.14-.79-1.19,23.16-2.57,71.28-2.57,118.2v10.1c-5.75-.4-16-.79-23.57-.79-7.72,0-18,.39-23.56.79V733.4c0-22.17-.39-43-.79-61-4.55,3.56-12.47,14.06-17,21.18h-2.77c-4.75-7.12-12.47-17.62-17-20.79-.39,18-.59,38.42-.59,60.59v10.1c-5.74-.4-16-.79-23.56-.79-7.73,0-18,.39-23.56.79Z" style="fill:#8a1024"/><path d="M802.5,718c-1-3.17-1.78-9.31-2.18-13.07l54-30.1c-2.57-2-8.51-4.55-15.84-4.55-16,0-30.29,4.55-36.43,7.92l-1.19-1,20.4-30.69L849,647.87c28.91,1.38,47.52,5.74,47.52,42.17,0,21.58-.2,35.44-.2,46.53v6.93c-5-.2-14.26-.4-21.19-.4-6.73,0-16,.2-21.18.4a108.78,108.78,0,0,0,1.38-13.66l-34.05,17.62C816,742.71,807.65,735,802.5,718Zm52.07-33.07-15.05,9.51a36.24,36.24,0,0,0,4.36,14.85,33.08,33.08,0,0,0,11.88,12.07Z" style="fill:#8a1024"/><path d="M911.79,736c0-35.25-1.38-70.69-2.37-87.52,5.94.2,15.44.4,22.57.4,7.32,0,16.83-.2,22.17-.4L953.57,660l1.39.39c3.36-5.34,9.3-12.87,17.82-12.87a40.47,40.47,0,0,1,7.52,1l-4.55,40.39a40.93,40.93,0,0,0-9.11-1.19c-8.12,0-12.28,6.34-12.87,19-.4,9.11,0,22.18,0,29.31v7.52c-4.95-.4-14.85-.59-21.78-.59-6.73,0-15,.19-20.2.59Z" style="fill:#8a1024"/><path d="M992.57,736c0-35.25-1.38-70.69-2.37-87.52,5.94.2,16.43.4,23.56.4,7.33,0,17.62-.2,23.56-.4-1,16.83-2.37,52.27-2.37,87.52v7.52c-5-.4-14.26-.59-21.19-.59-6.73,0-16,.19-21.19.59Zm-.79-112.47v-2.18l20.79-16.43h2l21,16.43v2.18l-21,16.24h-2Z" style="fill:#8a1024"/><path d="M1050.39,718c-1-3.17-1.78-9.31-2.18-13.07l54.06-30.1c-2.58-2-8.52-4.55-15.84-4.55-16,0-30.3,4.55-36.44,7.92l-1.18-1,20.39-30.69,27.72,1.39c28.91,1.38,47.52,5.74,47.52,42.17,0,21.58-.2,35.44-.2,46.53v6.93c-5-.2-14.25-.4-21.19-.4-6.73,0-16,.2-21.18.4a108.3,108.3,0,0,0,1.39-13.66l-34.06,17.62C1063.85,742.71,1055.54,735,1050.39,718Zm52.07-33.07-15,9.51a36.19,36.19,0,0,0,4.35,14.85,33.08,33.08,0,0,0,11.88,12.07Z" style="fill:#8a1024"/><path d="M1192,697.56c0-22.17,11.68-42.37,32.27-51.08l26.53,16c-.39-20.79-1-39.2-1.38-47.32,5.34.39,15.44.59,23.36.59,8.51,0,18.41-.2,23.56-.59-1,23.16-2.18,71.28-2.18,118.2v10.1c-5.14-.4-14.45-.79-21.38-.79-6.73,0-16,.39-21.19.79V728.25l-30.68,19.21C1203.44,737,1192,718.75,1192,697.56Zm58.8-30.09c-10.49,1.78-18.61,13.46-18.61,26.73,0,14.25,8.32,26.13,19.4,27.52C1251.55,701.92,1251.36,683.31,1250.76,667.47Z" style="fill:#8a1024"/><path d="M1309.17,672l.4-1.78c5.74-2.37,14.85-6.93,17.22-19l.4-2-11.49-4.35c-.39-9.31-1.18-20.2-1.78-25.94l41.19-3.76.79,1.38-3.76,27.92c-3,21.38-16.24,30.1-28.52,30.1C1316.89,674.6,1311.35,673.21,1309.17,672Z" style="fill:#8a1024"/><path d="M1390.74,624.3l-8.11-3.16,2.37-5.94c9.51.39,25,.59,32.28.59s20-.2,27.52-.59c13.86,43,28.71,86.13,43.56,128.3-6.14-.4-17-.79-24.75-.79-7.53,0-18.61.39-24.95.79l-12.67-35-43,4.76c-4.55,14-7.92,25.54-9.11,30.29-3.76-.2-10.49-.4-14.45-.4s-9.9.2-13.27.4C1365,699.35,1383.62,648.86,1390.74,624.3Zm-8.31-37,13.07-24,2.17-.79c6.14,6.34,27.13,22,42.37,30.69l-8.9,14.45-1.19.79C1416.88,600.55,1398.27,592.63,1382.43,587.28Zm37.82,105.53c-6.14-16-11.69-30.29-16.64-42.37-3.16,9.11-6.53,19.21-14,42.37Z" style="fill:#8a1024"/><path d="M1497.66,736c0-35.25-1.38-70.69-2.37-87.52,5.94.2,16.43.4,23.56.4,7.32,0,17.62-.2,23.56-.4-.2,1.58-.4,5.54-.6,10.1,13.86-5.35,32.28-12.08,37.62-12.08,9.11,0,21.78,21.78,21.78,49.5,0,16.63-3.36,36.83-5.74,47.52-4.55-.4-13.26-.59-21-.59s-15.84.39-19.8.59a184.38,184.38,0,0,0,5.15-40.19c0-21.39-8.51-36.63-18.41-36.63-.59,16-1.39,41.18-1.39,69.3v7.52c-5-.4-14.25-.59-21.18-.59-6.73,0-16,.19-21.19.59Z" style="fill:#8a1024"/><path d="M1613.09,699.94a231.65,231.65,0,0,1,2.78-33.86l64-23.56,2,.4c3,8.31,15.44,26.92,24,38.8l-47.13,27.33c3.17,3,7.33,4.35,13.07,4.35,10.69,0,20.79-3.56,25.34-6.33l1.59,2.18-20.79,33.46c-3.56,1.19-12.08,2.77-21.78,2.77C1635.67,745.48,1613.09,735.78,1613.09,699.94Zm55.84-10.1a162.55,162.55,0,0,0-15.44-20.59l-2-.4a76.57,76.57,0,0,0-.8,10.89c0,7.53.6,13.86,2,19Z" style="fill:#8a1024"/><path d="M1713.68,677.57c0-11.88,1-23.57,1.58-29.11,5,.2,14.26.4,22,.4s16-.2,20-.4a178.13,178.13,0,0,0-2.38,26.93c0,13.26,5.74,45.34,21.58,45.34a6.72,6.72,0,0,0,1.78-.2c0-29.9-1.58-58.61-2.37-72.07,5.94.2,16.43.4,23.56.4,7.33,0,17.62-.2,23.56-.4-1,16.83-2.37,52.27-2.37,87.52v7.52c-4.95-.4-14.26-.59-21.19-.59-6.73,0-16,.19-21.19.59V729.05c-13.06,7.32-30.49,16.43-35.83,16.43C1732.88,745.48,1713.68,714.79,1713.68,677.57Z" style="fill:#8a1024"/><path d="M127.13,527.9c-6.2,0-14.47.32-18.92.64v-8.11c0-37.69-1.11-76.32-2.07-94.92,5.57.31,15.11.47,21,.47s15.43-.16,21-.47c-1,13.19-2.07,42.13-2.07,72.66,0,7.95.16,8.11.16,12.4l31-1.75v19.87C161.32,528.22,142.71,527.9,127.13,527.9Zm113.53-8.11-5.09,8.11a63.77,63.77,0,0,1-17.49,2.23c-21.94,0-34.5-13.2-34.5-36.57a186.92,186.92,0,0,1,2.22-27.19c15.43-7.48,37.53-17.33,42.3-17.33a57.3,57.3,0,0,1,19.23,3.81L269,449c-1,14.15-1.91,55.49-1.91,59.78,0,3,3,3.66,7.95,3.66l-4.45,17.65C254.17,530.13,247,529.33,240.66,519.79Zm-10-15.42a41.52,41.52,0,0,0,7.79-.64,38.07,38.07,0,0,1-1.27-8.74c0-6.2,0-15.11.16-19.4A59.68,59.68,0,0,0,214.26,467c-.16,3.82-.47,11.77-.47,17.33C213.79,497.69,219.35,504.37,230.64,504.37ZM334.31,492.6,307.6,452.22c4.61.16,12.88.31,18.6.31,5.88,0,14.63-.15,19.56-.31l9.22,15.1,11-15.1h20.83L364.36,481l31,47.54c-4.77-.32-13.51-.48-20.19-.48-5.4,0-12.88.16-16.85.48l-14.63-22.9-17,22.9H306.8Zm68.53,29.89c0-28.3-1.11-56.76-1.91-70.27,4.77.16,13.2.31,18.92.31,5.89,0,14.15-.15,18.92-.31-.79,13.51-1.9,42-1.9,70.27v6c-4-.32-11.45-.48-17-.48-5.4,0-12.88.16-17,.48Zm-.64-90.31v-1.75l16.7-13.19h1.59l16.85,13.19v1.75l-16.85,13H418.9Zm49.61,90.31c0-28.3-1.11-56.76-1.91-70.27,4.77.16,13.2.31,18.92.31,5.89,0,14.16-.15,18.93-.31-.16,1.27-.32,4.45-.48,8.11,11.13-4.3,25.91-9.7,30.21-9.7,7.31,0,17.49,17.49,17.49,39.75,0,13.35-2.71,29.57-4.61,38.16-3.66-.32-10.66-.48-16.86-.48s-12.72.32-15.9.48a148.22,148.22,0,0,0,4.14-32.28c0-17.17-6.84-29.42-14.79-29.42-.48,12.88-1.11,33.08-1.11,55.65v6c-4-.32-11.45-.48-17-.48-5.4,0-12.87.16-17,.48Zm149.78-2.7-5.09,8.11A63.77,63.77,0,0,1,579,530.13c-21.94,0-34.5-13.2-34.5-36.57a185.3,185.3,0,0,1,2.23-27.19C562.16,458.89,584.26,449,589,449a57.41,57.41,0,0,1,19.24,3.81L629.89,449c-.95,14.15-1.91,55.49-1.91,59.78,0,3,3,3.66,7.95,3.66l-4.45,17.65C615.1,530.13,608,529.33,601.59,519.79Zm-10-15.42a41.45,41.45,0,0,0,7.79-.64,38.65,38.65,0,0,1-1.27-8.74c0-6.2,0-15.11.16-19.4a59.7,59.7,0,0,0-23-8.59c-.16,3.82-.48,11.77-.48,17.33C574.72,497.69,580.28,504.37,591.57,504.37ZM645,520.43c0-37.69-1.11-76.32-1.91-94.92,4.61.31,12.56.63,18.6.63,5.89,0,14-.32,18.61-.63-.8,18.6-1.91,57.23-1.91,94.92v8.11c-4.14-.32-11.29-.48-16.7-.48-5.56,0-12.72.16-16.69.48Zm48.34,0c0-37.69-1.12-76.32-1.91-94.92,4.61.31,12.56.63,18.6.63,5.88,0,14-.32,18.6-.63-.79,18.6-1.91,57.23-1.91,94.92v8.11c-4.13-.32-11.28-.48-16.69-.48-5.57,0-12.72.16-16.69.48Zm102.71-.64L791,527.9a63.77,63.77,0,0,1-17.49,2.23c-21.94,0-34.5-13.2-34.5-36.57a186.92,186.92,0,0,1,2.22-27.19c15.43-7.48,37.53-17.33,42.3-17.33a57.41,57.41,0,0,1,19.24,3.81L824.35,449c-1,14.15-1.91,55.49-1.91,59.78,0,3,3,3.66,7.95,3.66l-4.45,17.65C809.56,530.13,802.41,529.33,796.05,519.79Zm-10-15.42a41.52,41.52,0,0,0,7.79-.64,38.07,38.07,0,0,1-1.27-8.74c0-6.2,0-15.11.16-19.4A59.68,59.68,0,0,0,769.65,467c-.15,3.82-.47,11.77-.47,17.33C769.18,497.69,774.74,504.37,786,504.37Zm67.42,45.79.64-1.27c11.76-1.91,16.37-7.79,16.37-21.63,0-11.76-1-49.76-1.91-75,4.77.16,13.2.31,18.93.31s14.15-.15,18.92-.31c-.8,15.58-1.75,46.74-1.75,75,0,25-12.09,33.07-26.08,33.07C864.1,560.33,855.83,554.61,853.45,550.16Zm16.38-118v-1.75l16.85-13.19h1.59L905,430.43v1.75l-16.69,13h-1.59Zm46.9,43.41c0-9.54.8-18.92,1.27-23.37,4,.16,11.45.31,17.65.31s12.88-.15,16.06-.31a143.64,143.64,0,0,0-1.91,21.62c0,10.65,4.61,36.41,17.33,36.41a5.41,5.41,0,0,0,1.43-.16c0-24-1.27-47.06-1.9-57.87,4.77.16,13.19.31,18.92.31s14.15-.15,18.92-.31c-.8,13.51-1.91,42-1.91,70.27v6c-4-.32-11.45-.48-17-.48s-12.88.16-17,.48V516.93c-10.49,5.88-24.48,13.2-28.77,13.2C932.15,530.13,916.73,505.48,916.73,475.59Zm127.52,74.57.64-1.27c14.31-3.18,16.21-17.17,16.21-29.26v-4.45l-24.64,15c-14-8.43-23.21-23.06-23.21-40.07,0-17.81,9.38-34,25.91-41l20.51,12.4c-.16-3.66-.32-7.47-.32-9.22,4.77.16,13.2.31,18.93.31,5.88,0,14.15-.15,18.92-.31-.8,15.58-1.75,46.74-1.75,75,0,25-12.09,33.07-26.08,33.07C1054.9,560.33,1046.64,554.61,1044.25,550.16Zm15.42-84.11c-8.11,1.91-14.15,11-14.15,21.31,0,11.44,6.68,20.82,15.42,22.1C1060.47,495.62,1060.15,478,1059.67,466.05Zm104.15,53.74-5.09,8.11a63.77,63.77,0,0,1-17.49,2.23c-21.94,0-34.5-13.2-34.5-36.57a186.92,186.92,0,0,1,2.22-27.19c15.43-7.48,37.53-17.33,42.3-17.33a57.41,57.41,0,0,1,19.24,3.81l21.62-3.81c-.95,14.15-1.91,55.49-1.91,59.78,0,3,3,3.66,8,3.66l-4.45,17.65C1177.33,530.13,1170.18,529.33,1163.82,519.79Zm-10-15.42a41.52,41.52,0,0,0,7.79-.64,38.07,38.07,0,0,1-1.27-8.74c0-6.2,0-15.11.16-19.4a59.68,59.68,0,0,0-23.06-8.59c-.15,3.82-.47,11.77-.47,17.33C1137,497.69,1142.51,504.37,1153.8,504.37Zm138,15.42-5.08,8.11a63.83,63.83,0,0,1-17.49,2.23c-21.94,0-34.51-13.2-34.51-36.57a186.71,186.71,0,0,1,2.23-27.19c15.42-7.48,37.52-17.33,42.29-17.33a57.36,57.36,0,0,1,19.24,3.81l21.63-3.81c-1,14.15-1.91,55.49-1.91,59.78,0,3,3,3.66,8,3.66l-4.45,17.65C1305.33,530.13,1298.17,529.33,1291.81,519.79Zm-10-15.42a41.59,41.59,0,0,0,7.79-.64,38.07,38.07,0,0,1-1.27-8.74c0-6.2,0-15.11.16-19.4a59.68,59.68,0,0,0-23.06-8.59c-.16,3.82-.48,11.77-.48,17.33C1264.94,497.69,1270.51,504.37,1281.8,504.37Zm53.42,16.06c0-37.69-1.11-76.32-1.9-94.92,4.61.31,12.56.63,18.6.63,5.88,0,14-.32,18.6-.63-.79,18.6-1.91,57.23-1.91,94.92v8.11c-4.13-.32-11.29-.48-16.69-.48-5.57,0-12.72.16-16.7.48Zm78.55,2.06c0-28.3-1.11-56.76-1.91-70.27,4.77.16,13.2.31,18.92.31,5.89,0,14.15-.15,18.92-.31-.16,1.27-.31,4.45-.47,8.11,11.13-4.3,25.91-9.7,30.21-9.7,7.31,0,17.49,17.49,17.49,39.75,0,13.35-2.71,29.57-4.62,38.16-3.65-.32-10.65-.48-16.85-.48s-12.72.32-15.9.48a148.3,148.3,0,0,0,4.13-32.28c0-17.17-6.83-29.42-14.78-29.42-.48,12.88-1.11,33.08-1.11,55.65v6c-4-.32-11.45-.48-17-.48-5.4,0-12.88.16-17,.48Zm149.78-2.7-5.09,8.11a63.77,63.77,0,0,1-17.49,2.23c-21.94,0-34.5-13.2-34.5-36.57a186.92,186.92,0,0,1,2.22-27.19c15.43-7.48,37.53-17.33,42.3-17.33a57.41,57.41,0,0,1,19.24,3.81l21.62-3.81c-.95,14.15-1.91,55.49-1.91,59.78,0,3,3,3.66,8,3.66l-4.45,17.65C1577.06,530.13,1569.91,529.33,1563.55,519.79Zm-10-15.42a41.52,41.52,0,0,0,7.79-.64,38.07,38.07,0,0,1-1.27-8.74c0-6.2,0-15.11.16-19.4a59.68,59.68,0,0,0-23.06-8.59c-.15,3.82-.47,11.77-.47,17.33C1536.68,497.69,1542.24,504.37,1553.53,504.37ZM1607,522.49c0-28.3-1.12-56.76-1.91-70.27,4.77.16,12.4.31,18.12.31,5.89,0,13.52-.15,17.81-.31l-.48,9.22,1.12.32c2.7-4.3,7.47-10.34,14.31-10.34a32.52,32.52,0,0,1,6,.8l-3.66,32.43a33.09,33.09,0,0,0-7.31-.95c-6.52,0-9.86,5.09-10.34,15.26-.31,7.32,0,17.81,0,23.53v6c-4-.32-11.92-.48-17.49-.48-5.4,0-12.08.16-16.21.48Zm64.87,0c0-28.3-1.11-56.76-1.91-70.27,4.77.16,12.4.31,18.13.31,5.88,0,13.51-.15,17.8-.31l-.47,9.22,1.11.32c2.7-4.3,7.47-10.34,14.31-10.34a32.52,32.52,0,0,1,6,.8l-3.65,32.43a33.1,33.1,0,0,0-7.32-.95c-6.52,0-9.86,5.09-10.33,15.26-.32,7.32,0,17.81,0,23.53v6c-4-.32-11.93-.48-17.49-.48-5.41,0-12.09.16-16.22.48Zm59-29.57c0-32.91,34.82-42.29,56.76-42.29s34.5,25.6,34.5,40.22c0,22.1-24,40.87-54.53,40.87C1738.77,531.72,1730.82,506,1730.82,492.92Zm56,24.33c1.43-2.55,3.18-8.59,3.18-15.59,0-14.62-10-32.43-22.58-38.63l-1.11.16c-1.28,2.06-3,8.11-3,16.69,0,16.22,6.84,32.76,22.58,38Z"/><path d="M141.29,841.71,134.44,839l2-5c8,.33,21,.5,27.22.5s16.87-.17,23.21-.5c11.69,36.24,24.22,72.65,36.75,108.22-5.18-.33-14.37-.67-20.88-.67-6.35,0-15.7.34-21,.67L171,912.69l-36.24,4c-3.84,11.86-6.68,21.54-7.69,25.55-3.17-.17-8.85-.33-12.19-.33s-8.35.16-11.19.33C119.58,905,135.28,862.42,141.29,841.71Zm24.88,57.79c-5.17-13.53-9.85-25.56-14-35.74-2.68,7.68-5.52,16.2-11.86,35.74Zm98,34.23c0-39.58-1.17-80.16-2.17-99.7,5.85.33,15.87.5,22.05.5,15.53,0,40.75-1,55.94-1.67l18.71,31.73-.67,1.17-14,8.85c9.35,7,16.87,17.2,16.87,31.23,0,22.72-19.71,36.41-55.61,36.41-7.85,0-13.7-.67-21.88-.67-5.68,0-14.53.34-19.21.67Zm58.12-22.21c0-12.36-9.18-20.21-18-23.21-.5,12.69-.83,26.88-.33,41.92C315.47,928.72,322.32,922.38,322.32,911.52Zm-17.87-30.23L321,870.77l-13.36-22.21-2.17-.17Zm65.63,24.22A195.92,195.92,0,0,1,372.42,877l53.94-19.87,1.67.33c2.51,7,13,22.71,20.21,32.73l-39.75,23.05c2.67,2.51,6.18,3.67,11,3.67,9,0,17.54-3,21.38-5.34l1.34,1.84-17.54,28.22a67,67,0,0,1-18.37,2.34C389.12,943.92,370.08,935.74,370.08,905.51Zm47.1-8.52a137.91,137.91,0,0,0-13-17.37l-1.67-.33a64,64,0,0,0-.67,9.18,63,63,0,0,0,1.67,16Zm37.73,8.52A195.92,195.92,0,0,1,457.25,877l53.95-19.87,1.67.33c2.5,7,13,22.71,20.2,32.73l-39.74,23.05c2.67,2.51,6.18,3.67,11,3.67,9,0,17.53-3,21.38-5.34l1.33,1.84-17.53,28.22a67,67,0,0,1-18.37,2.34C474,943.92,454.91,935.74,454.91,905.51ZM502,897a136,136,0,0,0-13-17.37l-1.67-.33a65.72,65.72,0,0,0-.66,9.18,63,63,0,0,0,1.67,16Zm40.58,38.91c0-29.72-1.17-59.62-2-73.81,5,.16,13,.33,19,.33,6.18,0,14.2-.17,18.71-.33l-.5,9.68,1.17.34c2.84-4.51,7.85-10.86,15-10.86a33.83,33.83,0,0,1,6.34.84l-3.84,34.07a33.65,33.65,0,0,0-7.68-1c-6.85,0-10.35,5.35-10.86,16-.33,7.68,0,18.7,0,24.71v6.35c-4.17-.33-12.52-.5-18.37-.5-5.67,0-12.69.17-17,.5Zm100.87-2.17c0-39.58-1.17-80.16-2.17-99.7,6.34.33,18.37.67,28.39.67,18.54,0,36.24-.34,44.42-.67l.84,21-30.4-1.83c-.33,6.84-.67,15.19-.83,24.71H710.6l-2.51,22.55c-5.34-.84-15.7-2-24.72-2.67-.16,11.19-.16,23.38-.16,35.9v8.52c-4.85-.33-13.53-.67-19.88-.67-6.51,0-15.2.34-19.87.67Zm79.16-13a71.27,71.27,0,0,1-1.84-11l45.59-25.38c-2.17-1.67-7.18-3.84-13.36-3.84-13.53,0-25.55,3.84-30.73,6.68l-1-.84,17.2-25.88,23.38,1.17c24.39,1.16,40.08,4.84,40.08,35.57,0,18.2-.16,29.89-.16,39.24v5.85c-4.18-.17-12-.33-17.87-.33-5.68,0-13.53.16-17.87.33a93,93,0,0,0,1.17-11.52l-28.73,14.86C734,941.58,727,935.07,722.62,920.71Zm43.92-27.89-12.69,8a30.43,30.43,0,0,0,3.67,12.53,28.07,28.07,0,0,0,10,10.19ZM893,846.89c-13.7,0-33.74,1-38.91,3.17.83,2.34,3.84,6.52,9.52,9a76.12,76.12,0,0,1,23.54,7l-18.53,22.72c-10.53-6.52-18.38-8.69-24.39-9.52-.33,4-.5,10.69-.5,16.53,0,14,5.85,21,17.7,21,9.19,0,17.71-3,21.38-5.34l1.34,1.84-17.54,28.22a66.9,66.9,0,0,1-18.37,2.34c-23.05,0-36.24-13.86-36.24-38.41A195.92,195.92,0,0,1,814.3,877c7-3.34,19.87-9.35,29.56-13.36l-2.17-11.86c.83-1.67,7-13.69,15.36-19.37,22.38,1,47.6,1.34,72.48,1.34l2,.66c-.34,5.51-.67,16.7-.84,27.73h13.86L942.89,889H930c-.16,13.53-.33,27.56-.33,44.93v8.35c-4.18-.33-12-.67-17.7-.67s-13.53.34-17.71.67V933.9c0-17.2-.16-32.23-.33-44.93l-.5-26.88C893.29,854.91,893.13,849.23,893,846.89Zm54.1,58c0-34.57,36.58-44.42,59.63-44.42s36.24,26.88,36.24,42.25c0,23.21-25.22,42.92-57.29,42.92C955.41,945.59,947.06,918.53,947.06,904.84Zm58.79,25.55c1.5-2.67,3.34-9,3.34-16.36,0-15.37-10.52-34.07-23.71-40.59l-1.17.17c-1.34,2.17-3.18,8.52-3.18,17.54,0,17,7.18,34.4,23.72,39.91Zm48.26,5.51c0-29.72-1.17-59.62-2-73.81,5,.16,13,.33,19,.33s14.19-.17,18.7-.33l-.5,9.68,1.17.34c2.84-4.51,7.85-10.86,15-10.86a33.83,33.83,0,0,1,6.34.84l-3.84,34.07a33.65,33.65,0,0,0-7.68-1c-6.85,0-10.35,5.35-10.85,16-.34,7.68,0,18.7,0,24.71v6.35c-4.18-.33-12.53-.5-18.37-.5-5.68,0-12.7.17-17,.5ZM1156.65,965l.67-1.33c12.36-2,17.2-13.2,17.2-27.73v-6.18c-11.19,6.18-26.39,14.2-30.9,14.2-8,0-24.21-25.89-24.21-57.28,0-10,.83-19.88,1.33-24.55,4.18.16,12,.33,18.54.33s13.53-.17,16.87-.33a149.65,149.65,0,0,0-2,22.71c0,11.19,4.84,38.24,18.2,38.24a13.38,13.38,0,0,0,2.17-.33c0-15.2-1.17-43.42-2-60.62,5,.16,13.86.33,19.87.33,6.18,0,14.86-.17,19.87-.33-.83,16.36-1.83,49.1-1.83,78.82,0,26.22-12.7,34.74-27.39,34.74C1167.84,975.65,1159.16,969.64,1156.65,965Zm101-29.06c0-29.72-1.16-59.62-2-73.81,5,.16,13.86.33,19.87.33,6.18,0,14.87-.17,19.88-.33-.84,14.19-2,44.09-2,73.81v6.35c-4.17-.33-12-.5-17.87-.5-5.67,0-13.52.17-17.87.5ZM1257,841v-1.83l17.53-13.87h1.67l17.71,13.87V841l-17.71,13.7h-1.67Zm52.1,94.86c0-29.72-1.17-59.62-2-73.81,5,.16,13.86.33,19.87.33,6.18,0,14.86-.17,19.87-.33-.16,1.33-.33,4.67-.5,8.51,11.69-4.51,27.23-10.18,31.73-10.18,7.69,0,18.38,18.37,18.38,41.75,0,14-2.84,31.06-4.85,40.08-3.84-.33-11.19-.5-17.7-.5s-13.36.33-16.7.5a155.47,155.47,0,0,0,4.34-33.9c0-18-7.18-30.9-15.53-30.9-.5,13.53-1.17,34.74-1.17,58.45v6.35c-4.17-.33-12-.5-17.87-.5-5.68,0-13.53.17-17.87.5Zm135.44-2c0-17.2-.17-32.23-.33-44.93h-7.69V862.09h7.18c0-5.51-.33-12.86-.5-15.2,2.68-.34,9-2,17.54-5.18a139.85,139.85,0,0,0,18.37-8l2,.66c-.33,5.51-.83,16.7-.83,27.73h13.86L1492.49,889h-12.86c-.17,13.53-.33,27.56-.33,44.93v8.35c-4.18-.33-11.69-.67-17.37-.67s-13.2.34-17.37.67Zm52.1-29.06c0-34.57,36.58-44.42,59.63-44.42s36.24,26.88,36.24,42.25c0,23.21-25.22,42.92-57.29,42.92C1505,945.59,1496.66,918.53,1496.66,904.84Zm58.79,25.55c1.5-2.67,3.34-9,3.34-16.36,0-15.37-10.52-34.07-23.71-40.59l-1.17.17c-1.34,2.17-3.18,8.52-3.18,17.54,0,17,7.18,34.4,23.72,39.91Zm37.07-68.3c5.18.16,14.36.33,20.38.33,6.18,0,13.19-.17,17.37-.33l14,53.61,6-35.58-5.52-18c4.85.16,13.53.33,19.54.33,5.85,0,11.53-.17,15.54-.33l14,53.61,9.35-53.61h17.87l-20.54,80.16c-4.18-.33-11.19-.5-16.87-.5s-10.52.17-13.86.5l-10-31.56-9.19,31.56c-4-.33-11.19-.5-16.87-.5s-12,.17-15.7.5ZM1729,935.9c0-29.72-1.17-59.62-2-73.81,5,.16,13.86.33,19.87.33,6.18,0,14.87-.17,19.88-.33-.17,1.33-.34,4.67-.51,8.51,11.69-4.51,27.23-10.18,31.74-10.18,7.68,0,18.37,18.37,18.37,41.75,0,14-2.84,31.06-4.85,40.08-3.84-.33-11.19-.5-17.7-.5s-13.36.33-16.7.5a155.47,155.47,0,0,0,4.34-33.9c0-18-7.18-30.9-15.53-30.9-.5,13.53-1.17,34.74-1.17,58.45v6.35c-4.17-.33-12-.5-17.87-.5-5.68,0-13.53.17-17.87.5Z"/><path d="M111.23,1093.05c0-27-.8-54.72-1.48-68,4,.22,10.83.45,15,.45,5.82,0,11.4-.23,13.91-.45,1.83,5.7,7.18,15,10.72,20.51,3.53-5.47,8.89-14.81,10.49-20.51,3.53.22,9.69.45,14,.45s11-.23,15-.45c-.69,13.33-1.49,41-1.49,68v5.82c-3.3-.23-9.23-.46-13.56-.46s-10.38.23-13.57.46v-5.82c0-12.77-.23-24.74-.45-35.11-2.63,2-7.19,8.1-9.81,12.2h-1.59c-2.74-4.1-7.19-10.15-9.81-12-.23,10.37-.34,22.11-.34,34.88v5.82c-3.31-.23-9.23-.46-13.57-.46s-10.37.23-13.56.46Z"/><path d="M197,1073.79a134.4,134.4,0,0,1,1.59-19.5l36.82-13.56,1.14.23c1.71,4.78,8.89,15.5,13.8,22.34L223.17,1079c1.83,1.71,4.22,2.51,7.53,2.51a31.05,31.05,0,0,0,14.59-3.65l.91,1.25-12,19.27a45.72,45.72,0,0,1-12.54,1.6C210,1100,197,1094.42,197,1073.79Zm16.75-34.66-2.28-8.66c9.35-4.56,20.86-11.74,25-15.05l1,.34,3.2,13.11a146.07,146.07,0,0,0-26.34,10.6ZM229.1,1068a92.56,92.56,0,0,0-8.89-11.85l-1.14-.23a44.07,44.07,0,0,0-.46,6.27,43.31,43.31,0,0,0,1.14,10.94Z"/><path d="M254.18,1099c1.14-5.59,2.05-11.4,2.85-16.64a72.19,72.19,0,0,0,17.56,4.33l.45-1.26c-7.29-3.53-21.31-11.62-21.31-24.73,0-10.26,8.43-17.56,23-17.56a55.46,55.46,0,0,1,16.76,2.62l-1.37,15.73-.45.23a56.39,56.39,0,0,0-17-4.67l-.34,1.14c7.3,3.3,21.66,10.94,21.66,24.39,0,12.54-12.31,18.59-25.31,18.59A69.67,69.67,0,0,1,254.18,1099Z"/><path d="M324.4,1093.05c0-14.13-.45-27.81-.45-45.14,0-17.9,9.69-24.05,22.46-24.05a36.32,36.32,0,0,1,19.72,6.15l-3.08,6.61a21.26,21.26,0,0,0-3.53-.34c-7.41,0-9.92,5.47-10.15,11.74,0,.91-.11,3.65-.11,5.48l8.2-.46-2.73,20.52-5.82-1.37c-.11,7-.11,14.36-.11,20.86v5.82c-3-.23-8.32-.35-12.2-.35s-9.35.12-12.2.35Z"/><path d="M363.28,1060.9c0-6.84.57-13.56.91-16.75,2.85.11,8.21.23,12.65.23s9.24-.12,11.52-.23a102.43,102.43,0,0,0-1.37,15.5c0,7.64,3.31,26.11,12.43,26.11a3.71,3.71,0,0,0,1-.12c0-17.21-.91-33.74-1.37-41.49,3.42.11,9.47.23,13.57.23s10.15-.12,13.57-.23c-.58,9.69-1.37,30.09-1.37,50.38v4.34c-2.85-.23-8.21-.35-12.2-.35s-9.23.12-12.2.35v-8.33c-7.52,4.22-17.55,9.47-20.63,9.47C374.34,1100,363.28,1082.34,363.28,1060.9Z"/><path d="M435.55,1094.53c0-20.29-.8-40.69-1.37-50.38,3.42.11,8.9.23,13,.23s9.69-.12,12.77-.23l-.34,6.61.79.23c1.94-3.08,5.36-7.41,10.26-7.41a23.44,23.44,0,0,1,4.34.57l-2.63,23.25a23.47,23.47,0,0,0-5.24-.68c-4.67,0-7.07,3.65-7.41,10.94-.23,5.25,0,12.77,0,16.87v4.34c-2.85-.23-8.55-.35-12.54-.35s-8.66.12-11.63.35Z"/><path d="M482.06,1094.53c0-20.29-.79-40.69-1.36-50.38,3.42.11,8.89.23,13,.23s9.69-.12,12.77-.23l-.34,6.61.8.23c1.93-3.08,5.35-7.41,10.25-7.41a23.44,23.44,0,0,1,4.34.57l-2.63,23.25a23.47,23.47,0,0,0-5.24-.68c-4.67,0-7.07,3.65-7.41,10.94-.23,5.25,0,12.77,0,16.87v4.34c-2.85-.23-8.55-.35-12.54-.35s-8.66.12-11.63.35Z"/><path d="M524.36,1073.33c0-23.6,25-30.32,40.69-30.32s24.74,18.35,24.74,28.84c0,15.84-17.21,29.3-39.1,29.3C530.06,1101.15,524.36,1082.68,524.36,1073.33Zm40.12,17.44c1-1.82,2.28-6.15,2.28-11.17,0-10.49-7.18-23.26-16.18-27.7l-.8.11c-.91,1.49-2.17,5.82-2.17,12,0,11.63,4.9,23.49,16.19,27.25Z"/><path d="M650.67,1110.15c0-7.07-.12-13.91-.12-20.18l-17.9,11.18c-10-6.05-16.64-16.53-16.64-28.73,0-12.77,6.73-24.4,18.58-29.41l15,9.23c0-1.94-.11-6.84-.23-8.09,3.08.23,8.89.34,13.45.34,4.91,0,10.61-.11,13.57-.34-.57,12.42-1.25,39-1.25,66V1116c-3-.23-8.33-.35-12.32-.35s-9.23.12-12.19.35Zm-.92-55.06c-6,1.14-10.6,7.75-10.6,15.39,0,8.32,4.9,15.16,11.29,16C650.44,1073.44,650.1,1062.5,649.75,1055.09Z"/><path d="M683.84,1060.9c0-6.84.57-13.56.91-16.75,2.85.11,8.21.23,12.66.23s9.23-.12,11.51-.23a102.43,102.43,0,0,0-1.37,15.5c0,7.64,3.31,26.11,12.43,26.11a3.67,3.67,0,0,0,1-.12c0-17.21-.91-33.74-1.37-41.49,3.42.11,9.47.23,13.57.23s10.15-.12,13.57-.23c-.57,9.69-1.37,30.09-1.37,50.38v4.34c-2.85-.23-8.21-.35-12.2-.35s-9.23.12-12.2.35v-8.33c-7.52,4.22-17.55,9.47-20.63,9.47C694.9,1100,683.84,1082.34,683.84,1060.9Z"/><path d="M754.18,1073.79a134.4,134.4,0,0,1,1.59-19.5l36.82-13.56,1.14.23c1.71,4.78,8.9,15.5,13.8,22.34L780.4,1079c1.82,1.71,4.21,2.51,7.52,2.51a31,31,0,0,0,14.59-3.65l.91,1.25-12,19.27a45.72,45.72,0,0,1-12.54,1.6C767.17,1100,754.18,1094.42,754.18,1073.79Zm32.14-5.82a92.56,92.56,0,0,0-8.89-11.85l-1.14-.23a44.27,44.27,0,0,0-.45,6.27A42.86,42.86,0,0,0,777,1073.1Z"/><path d="M833.75,1060.9c0-6.84.57-13.56.91-16.75,2.85.11,8.21.23,12.65.23s9.24-.12,11.52-.23a102.43,102.43,0,0,0-1.37,15.5c0,7.64,3.3,26.11,12.42,26.11a3.77,3.77,0,0,0,1-.12c0-17.21-.91-33.74-1.37-41.49,3.42.11,9.46.23,13.57.23s10.14-.12,13.56-.23c-.57,9.69-1.36,30.09-1.36,50.38v4.34c-2.85-.23-8.21-.35-12.2-.35s-9.24.12-12.2.35v-8.33c-7.52,4.22-17.56,9.47-20.63,9.47C844.8,1100,833.75,1082.34,833.75,1060.9Z"/><path d="M906,1094.53c0-20.29-.8-40.69-1.37-50.38,3.42.11,9.46.23,13.57.23s10.14-.12,13.56-.23c-.11.91-.22,3.19-.34,5.81,8-3.08,18.58-7,21.66-7,5.25,0,12.54,12.54,12.54,28.5,0,9.57-1.94,21.2-3.3,27.36-2.63-.23-7.64-.35-12.09-.35s-9.12.23-11.4.35a106,106,0,0,0,3-23.15c0-12.31-4.91-21.09-10.61-21.09-.34,9.24-.79,23.72-.79,39.9v4.34c-2.85-.23-8.21-.35-12.2-.35s-9.24.12-12.2.35Z"/><path d="M972.6,1084.16a49.54,49.54,0,0,1-1.26-7.52l31.12-17.33a16,16,0,0,0-9.12-2.62c-9.23,0-17.44,2.62-21,4.56l-.69-.57L983.43,1043l16,.79c16.64.8,27.36,3.31,27.36,24.29,0,12.42-.12,20.4-.12,26.79v4c-2.85-.12-8.21-.23-12.2-.23s-9.23.11-12.19.23a64,64,0,0,0,.79-7.87l-19.6,10.15A33.87,33.87,0,0,1,972.6,1084.16Zm30-19-8.67,5.47a20.93,20.93,0,0,0,2.51,8.55,19,19,0,0,0,6.84,7Z"/><path d="M1057.18,1093.05c0-27-.8-54.72-1.37-68,3.31.22,9,.45,13.34.45s10-.23,13.34-.45c-.57,13.33-1.37,41-1.37,68v5.82c-3-.23-8.09-.35-12-.35s-9.12.12-12,.35Z"/><path d="M1091.84,1093.05c0-27-.8-54.72-1.37-68,3.3.22,9,.45,13.34.45s10-.23,13.33-.45c-.57,13.33-1.36,41-1.36,68v5.82c-3-.23-8.1-.35-12-.35s-9.12.12-12,.35Z"/><path d="M1124.67,1084.16a49.54,49.54,0,0,1-1.26-7.52l31.12-17.33a16,16,0,0,0-9.12-2.62c-9.23,0-17.44,2.62-21,4.56l-.69-.57L1135.5,1043l16,.79c16.64.8,27.36,3.31,27.36,24.29,0,12.42-.12,20.4-.12,26.79v4c-2.85-.12-8.21-.23-12.2-.23s-9.23.11-12.19.23a64,64,0,0,0,.79-7.87l-19.6,10.15A33.87,33.87,0,0,1,1124.67,1084.16Zm30-19-8.67,5.47a20.93,20.93,0,0,0,2.51,8.55,19,19,0,0,0,6.84,7Z"/><path d="M1187.59,1094.53c0-20.29-.79-40.69-1.36-50.38,3.42.11,9.46.23,13.56.23s10.15-.12,13.57-.23c-.12.91-.23,3.19-.34,5.81,8-3.08,18.58-7,21.66-7,5.24,0,12.54,12.54,12.54,28.5a142.3,142.3,0,0,1-3.31,27.36c-2.62-.23-7.64-.35-12.08-.35s-9.12.23-11.4.35a106.67,106.67,0,0,0,3-23.15c0-12.31-4.9-21.09-10.6-21.09-.34,9.24-.8,23.72-.8,39.9v4.34c-2.85-.23-8.21-.35-12.2-.35s-9.23.12-12.2.35Z"/><path d="M1275.15,1114.37l.45-.91c10.26-2.28,11.63-12.31,11.63-21v-3.19L1269.56,1100c-10-6-16.64-16.53-16.64-28.73,0-12.77,6.72-24.4,18.58-29.41l14.7,8.89c-.11-2.62-.22-5.36-.22-6.61,3.42.11,9.46.23,13.56.23s10.15-.12,13.57-.23c-.57,11.17-1.26,33.51-1.26,53.8,0,17.9-8.66,23.72-18.69,23.72C1282.78,1121.67,1276.86,1117.56,1275.15,1114.37Zm11-60.31c-5.81,1.37-10.14,7.87-10.14,15.28,0,8.21,4.79,14.93,11.06,15.85C1286.77,1075.27,1286.54,1062.61,1286.2,1054.06Z"/><path d="M1320.06,1084.16a48.34,48.34,0,0,1-1.25-7.52l31.12-17.33a16,16,0,0,0-9.12-2.62c-9.24,0-17.44,2.62-21,4.56l-.68-.57,11.74-17.67,16,.79c16.64.8,27.36,3.31,27.36,24.29,0,12.42-.11,20.4-.11,26.79v4c-2.85-.12-8.21-.23-12.2-.23s-9.24.11-12.2.23a63.48,63.48,0,0,0,.8-7.87l-19.61,10.15A33.87,33.87,0,0,1,1320.06,1084.16Zm30-19-8.66,5.47a20.77,20.77,0,0,0,2.51,8.55,19,19,0,0,0,6.84,7Z"/><path d="M1383,1094.53c0-20.29-.8-40.69-1.37-50.38,3.42.11,8.89.23,13,.23s9.69-.12,12.76-.23l-.34,6.61.8.23c1.94-3.08,5.36-7.41,10.26-7.41a23.21,23.21,0,0,1,4.33.57l-2.62,23.25a23.47,23.47,0,0,0-5.24-.68c-4.68,0-7.07,3.65-7.41,10.94-.23,5.25,0,12.77,0,16.87v4.34c-2.85-.23-8.55-.35-12.54-.35s-8.67.12-11.63.35Z"/><path d="M1426.42,1072.42c0-12.77,6.73-24.4,18.58-29.41l15.28,9.23c-.23-12-.57-22.57-.8-27.24,3.08.22,8.89.34,13.45.34,4.9,0,10.6-.12,13.57-.34-.57,13.33-1.26,41-1.26,68v5.82c-3-.23-8.32-.46-12.31-.46s-9.23.23-12.2.46v-8.78l-17.67,11.06C1433,1095.1,1426.42,1084.62,1426.42,1072.42Zm33.86-17.33c-6,1-10.72,7.75-10.72,15.39,0,8.21,4.79,15,11.17,15.85C1460.73,1074.93,1460.62,1064.21,1460.28,1055.09Z"/><path d="M1494,1084.16a48.34,48.34,0,0,1-1.25-7.52l31.12-17.33a16,16,0,0,0-9.12-2.62c-9.24,0-17.44,2.62-21,4.56l-.68-.57,11.74-17.67,16,.79c16.64.8,27.36,3.31,27.36,24.29,0,12.42-.11,20.4-.11,26.79v4c-2.85-.12-8.21-.23-12.2-.23s-9.24.11-12.2.23a63.48,63.48,0,0,0,.8-7.87l-19.61,10.15A33.87,33.87,0,0,1,1494,1084.16Zm30-19-8.66,5.47a20.77,20.77,0,0,0,2.51,8.55,19,19,0,0,0,6.84,7Z"/><path d="M1557,1094.53c0-20.29-.8-40.69-1.37-50.38,3.42.11,9.46.23,13.57.23s10.14-.12,13.56-.23c-.57,9.69-1.37,30.09-1.37,50.38v4.34c-2.85-.23-8.2-.35-12.19-.35s-9.24.12-12.2.35Zm-.46-64.75v-1.25l12-9.46h1.14l12.09,9.46v1.25l-12.09,9.35h-1.14Z"/><path d="M1606.42,1073.1l-19.15-28.95c3.31.11,9.24.23,13.34.23s10.49-.12,14-.23l6.61,10.83,7.87-10.83H1644L1628,1064.78l22.23,34.09c-3.42-.23-9.69-.35-14.48-.35-3.87,0-9.23.12-12.08.35l-10.49-16.42-12.2,16.42H1586.7Z"/><path d="M1655.56,1094.53c0-20.29-.8-40.69-1.37-50.38,3.42.11,9.46.23,13.56.23s10.15-.12,13.57-.23c-.57,9.69-1.37,30.09-1.37,50.38v4.34c-2.85-.23-8.2-.35-12.2-.35s-9.23.12-12.19.35Zm-.46-64.75v-1.25l12-9.46h1.14l12.08,9.46v1.25l-12.08,9.35h-1.14Z"/><path d="M1690.67,1094.53c0-20.29-.8-40.69-1.37-50.38,3.42.11,9.46.23,13.57.23s10.14-.12,13.56-.23c-.11.91-.23,3.19-.34,5.81,8-3.08,18.58-7,21.66-7,5.24,0,12.54,12.54,12.54,28.5a142.3,142.3,0,0,1-3.31,27.36c-2.62-.23-7.63-.35-12.08-.35s-9.12.23-11.4.35a106.67,106.67,0,0,0,3-23.15c0-12.31-4.9-21.09-10.6-21.09-.34,9.24-.8,23.72-.8,39.9v4.34c-2.85-.23-8.2-.35-12.19-.35s-9.24.12-12.2.35Z"/><path d="M1757.24,1084.16a49.56,49.56,0,0,1-1.25-7.52l31.12-17.33a16,16,0,0,0-9.12-2.62c-9.23,0-17.44,2.62-21,4.56l-.69-.57,11.74-17.67,16,.79c16.65.8,27.36,3.31,27.36,24.29,0,12.42-.11,20.4-.11,26.79v4c-2.85-.12-8.21-.23-12.2-.23s-9.23.11-12.2.23a61.55,61.55,0,0,0,.8-7.87l-19.61,10.15A34,34,0,0,1,1757.24,1084.16Zm30-19-8.67,5.47a20.93,20.93,0,0,0,2.51,8.55,19,19,0,0,0,6.84,7Z"/><g style="clip-path:url(#a)"><path d="M118.39,332.08c0-100.39-3-203.32-5.5-252.88,14.82.85,40.24,1.28,55.91,1.28,39.39,0,103.35-2.55,141.9-4.24l47.44,80.48-1.69,3-35.58,22.45c23.72,17.79,42.78,43.62,42.78,79.21,0,57.6-50,92.34-141,92.34-19.91,0-34.74-1.7-55.49-1.7-14.41,0-36.86.85-48.72,1.7ZM265.8,275.75c0-31.35-23.3-51.26-45.75-58.88-1.27,32.19-2.11,68.2-.84,106.32C248.43,319.38,265.8,303.28,265.8,275.75Zm-45.32-76.67,41.93-26.69-33.88-56.33-5.51-.43Z" style="fill:#8a1024"/><path d="M387.37,299c-2.12-6.77-3.81-19.9-4.66-28L498.35,206.7c-5.51-4.23-18.22-9.74-33.89-9.74-34.31,0-64.81,9.74-77.94,16.94L384,211.79l43.63-65.66,59.3,3c61.84,3,101.66,12.28,101.66,90.22,0,46.17-.42,75.82-.42,99.54v14.83c-10.59-.43-30.5-.85-45.33-.85-14.4,0-34.31.42-45.32.85a232,232,0,0,0,3-29.23l-72.85,37.7C416.17,352,398.38,335.47,387.37,299Zm111.4-70.73-32.19,20.33a77.52,77.52,0,0,0,9.32,31.77c6.35,11.86,16.09,19.91,25.41,25.84Z" style="fill:#8a1024"/><path d="M621.18,337.59c0-75.4-3-151.22-5.08-187.22,12.71.42,33,.84,48.29.84,15.67,0,36-.42,47.44-.84l-1.27,24.56,3,.85c7.21-11.44,19.91-27.53,38.13-27.53a87,87,0,0,1,16.09,2.12L758,236.78a87,87,0,0,0-19.48-2.54c-17.37,0-26.27,13.55-27.54,40.66-.84,19.49,0,47.44,0,62.69v16.1c-10.59-.85-31.77-1.27-46.59-1.27-14.4,0-32.19.42-43.21,1.27Z" style="fill:#8a1024"/><path d="M794,337.59c0-75.4-3-151.22-5.08-187.22,12.71.42,33,.84,48.29.84,15.67,0,36-.42,47.44-.84l-1.27,24.56,3,.85c7.2-11.44,19.91-27.53,38.12-27.53a87,87,0,0,1,16.1,2.12l-9.74,86.41a87,87,0,0,0-19.49-2.54c-17.36,0-26.26,13.55-27.53,40.66-.85,19.49,0,47.44,0,62.69v16.1c-10.59-.85-31.77-1.27-46.59-1.27-14.41,0-32.2.42-43.21,1.27Z" style="fill:#8a1024"/><path d="M959.62,212.63c0-25.41,2.12-50.4,3.39-62.26,10.59.42,30.49.84,47,.84s34.31-.42,42.79-.84c-2.12,12.28-5.09,36.42-5.09,57.6,0,28.38,12.29,97,46.17,97a14.77,14.77,0,0,0,3.82-.42c0-64-3.39-125.38-5.09-154.18,12.71.42,35.16.84,50.41.84,15.67,0,37.7-.42,50.41-.84-2.12,36-5.09,111.82-5.09,187.22v16.1c-10.59-.85-30.5-1.27-45.32-1.27-14.4,0-34.31.42-45.32,1.27V322.77c-28,15.67-65.24,35.15-76.67,35.15C1000.71,357.92,959.62,292.27,959.62,212.63Z" style="fill:#8a1024"/><path d="M1221,260.5a496.4,496.4,0,0,1,5.93-72.43l136.82-50.41,4.24.85c6.35,17.79,33,57.6,51.25,83L1318.39,280c6.78,6.36,15.67,9.32,27.95,9.32,22.88,0,44.48-7.62,54.22-13.55l3.39,4.66L1359.48,352c-7.63,2.54-25.84,5.93-46.6,5.93C1269.25,357.92,1221,337.17,1221,260.5Zm119.45-21.6a345.9,345.9,0,0,0-33-44.06l-4.24-.84a164.39,164.39,0,0,0-1.7,23.29c0,16.1,1.27,29.65,4.24,40.67Z" style="fill:#8a1024"/><path d="M1443.34,337.59c0-75.4-3-151.22-5.08-187.22,12.71.42,33,.84,48.29.84,15.67,0,36-.42,47.44-.84l-1.27,24.56,3,.85c7.2-11.44,19.91-27.53,38.13-27.53a87,87,0,0,1,16.09,2.12l-9.74,86.41a87,87,0,0,0-19.49-2.54c-17.36,0-26.26,13.55-27.53,40.66-.85,19.49,0,47.44,0,62.69v16.1c-10.59-.85-31.77-1.27-46.59-1.27-14.4,0-32.19.42-43.21,1.27Z" style="fill:#8a1024"/><path d="M1605.57,299c-2.12-6.77-3.81-19.9-4.66-28l115.64-64.39c-5.51-4.23-18.22-9.74-33.89-9.74-34.31,0-64.81,9.74-77.94,16.94l-2.54-2.11,43.63-65.66,59.3,3c61.85,3,101.66,12.28,101.66,90.22,0,46.17-.42,75.82-.42,99.54v14.83c-10.59-.43-30.5-.85-45.32-.85-14.41,0-34.32.42-45.33.85a233.45,233.45,0,0,0,3-29.23l-72.86,37.7C1634.37,352,1616.58,335.47,1605.57,299ZM1717,228.31l-32.19,20.33a77.52,77.52,0,0,0,9.32,31.77c6.35,11.86,16.1,19.91,25.41,25.84Z" style="fill:#8a1024"/></g></svg>